<?xml version="1.0" encoding="UTF-8"?>
<svg id="Layer_1" data-name="Layer 1" xmlns="http://www.w3.org/2000/svg" xmlns:xlink="http://www.w3.org/1999/xlink" version="1.1" viewBox="0 0 165.9 37.4">
  <defs>
    <style>
      .cls-1 {
        clip-path: url(#clippath);
      }

      .cls-2 {
        fill: none;
      }

      .cls-2, .cls-3, .cls-4 {
        stroke-width: 0px;
      }

      .cls-3 {
        fill: #0960b5;
      }

      .cls-4 {
        fill: #fff;
      }
    </style>
    <clipPath id="clippath">
      <rect class="cls-2" width="165.9" height="37.4"/>
    </clipPath>
  </defs>
  <g class="cls-1">
    <path class="cls-3" d="M5.8,0C2.5,0,0,2.5,0,5.7v26.1c0,3.1,2.5,5.7,5.8,5.7h154.5c3.1,0,5.8-2.5,5.8-5.7V5.7c0-3.1-2.6-5.7-5.8-5.7H5.8Z"/>
  </g>
  <g>
    <path class="cls-4" d="M25.5,10.3h2.5v12.9h6.9v2.2h-9.3s0-15.1,0-15.1Z"/>
    <path class="cls-4" d="M38.8,20.6c.3,1.8,1.7,2.9,3.7,2.9s2.3-.5,3.3-1.3l1.1,1.6c-1.3,1.2-2.7,1.8-4.5,1.8-3.4,0-6-2.5-6-5.9s2.6-5.9,5.9-5.9c3,0,5.2,2.3,5.2,5.2s0,.9-.2,1.5c0,0-8.4,0-8.4,0ZM45,18.7c0-1.7-1.3-2.7-2.9-2.7s-2.8,1-3.2,2.7h6.1Z"/>
    <path class="cls-4" d="M59.1,25.4h-2.3v-1.2c-.8.9-2.1,1.5-3.6,1.5-2.4,0-4-1.3-4-3.2s1.6-3.2,4.2-3.2h3.2v-.8c0-1.6-.8-2.4-2.4-2.4s-2.2.6-3.1,1.7l-1.4-1.4c1.1-1.6,2.8-2.4,4.7-2.4,2.7,0,4.6,1.7,4.6,4.7v6.8-.2ZM56.6,21h-2.9c-1.3,0-2,.5-2,1.4s.8,1.5,2,1.5,2.9-1.1,2.9-2.6v-.2h0Z"/>
    <path class="cls-4" d="M68.9,16.3h-.8c-1.9,0-3.3,1.1-3.3,3.1v6h-2.4v-11.2h2.3v1.5c.8-1,2-1.6,3.3-1.6s.7,0,.9,0v2.2h0Z"/>
    <path class="cls-4" d="M80.9,25.4h-2.4v-6.7c0-1.6-.9-2.6-2.5-2.6s-2.5,1-2.5,2.6v6.7h-2.4v-11.2h2.3v1.1c.8-.8,2-1.3,3.4-1.3,2.6,0,4.2,1.8,4.2,4.4v7.1h-.2Z"/>
    <path class="cls-4" d="M105.1,10v15.4h-2.5v-9.5l-4.3,5.7h-.8l-4.3-5.7v9.5h-2.5v-15.4h.8l6.3,8.5,6.3-8.5h.9Z"/>
    <path class="cls-4" d="M113.9,13.9c3.3,0,6,2.6,5.9,5.9,0,3.2-2.7,5.9-5.9,5.9-3.2,0-6-2.7-5.9-5.9,0-3.2,2.7-5.9,5.9-5.9ZM113.9,16.1c-2,0-3.5,1.6-3.5,3.7s1.5,3.7,3.5,3.7,3.5-1.6,3.5-3.7-1.5-3.7-3.5-3.7Z"/>
    <path class="cls-4" d="M129.1,16.3h-.8c-1.9,0-3.3,1.1-3.3,3.1v6h-2.4v-11.2h2.3v1.5c.8-1,2-1.6,3.3-1.6s.7,0,.9,0v2.2h0Z"/>
    <path class="cls-4" d="M132.7,20.6c.3,1.8,1.7,2.9,3.7,2.9s2.3-.5,3.3-1.3l1.1,1.6c-1.3,1.2-2.7,1.8-4.5,1.8-3.4,0-6-2.5-6-5.9s2.6-5.9,5.9-5.9c3,0,5.2,2.3,5.2,5.2s0,.9-.2,1.5c0,0-8.4,0-8.4,0ZM138.9,18.7c0-1.7-1.3-2.7-2.9-2.7s-2.8,1-3.2,2.7h6.1Z"/>
  </g>
</svg>