<?xml version="1.0" encoding="UTF-8"?>
<svg id="Layer_1" data-name="Layer 1" xmlns="http://www.w3.org/2000/svg" version="1.1" viewBox="0 0 589.2 63.6">
  <defs>
    <style>
      .cls-1 {
        fill: #ffbf3f;
        stroke-width: 0px;
      }
    </style>
  </defs>
  <path class="cls-1" d="M0,6.7h6.9v44.1H0V6.7ZM35.8,50.9h-8.7L7.1,27.4,25.2,6.7h8.5L15.7,27.4l19.9,23.4h.2Z"/>
  <path class="cls-1" d="M44.9,36.8c.8,5.3,5,8.7,10.4,8.7s6.6-1.3,9.5-3.9l3.2,4.8c-3.7,3.5-8,5.3-12.8,5.3-9.8,0-17.3-7.4-17.3-17.2-.2-9.5,7.5-17.3,16.7-17.2,8.5,0,14.9,6.4,14.9,15.1s-.2,2.9-.5,4.3h-24.1ZM62.6,31.3c0-5-3.7-8-8.3-8s-8.2,3.2-9.3,8h17.7Z"/>
  <path class="cls-1" d="M82.5,36.8c.8,5.3,5,8.7,10.4,8.7s6.6-1.3,9.5-3.9l3.2,4.8c-3.7,3.5-8,5.3-12.8,5.3-9.8,0-17.3-7.4-17.3-17.2-.2-9.5,7.5-17.3,16.7-17.2,8.5,0,14.9,6.4,14.9,15.1s-.2,2.9-.5,4.3c0,0-24.1,0-24.1,0ZM100.2,31.3c0-5-3.7-8-8.3-8s-8.2,3.2-9.3,8h17.7Z"/>
  <path class="cls-1" d="M132.6,51.5c-4.3,0-8.2-1.8-10.8-4.8v16.1h-6.9V18h6.4v4.7c2.4-3.4,6.6-5.3,11.2-5.3,9.1,0,15.9,7.4,15.9,17.2s-6.7,17.2-15.9,17.2v-.2ZM131.5,23.8c-5.1,0-9.8,3.5-9.8,10.8s4.7,10.8,9.8,10.8,9.8-4.3,9.8-10.8-4.3-10.8-9.8-10.8Z"/>
  <path class="cls-1" d="M204.5,18l-15.7,36.6c-2.7,6.3-6.3,9-11.9,9s-3.5-.2-5.3-.6v-5.9c2.1.2,3.2.3,3.9.3,3.2,0,5.5-1.1,7.1-4.8l1.3-3-12.8-31.3h7.4l9.3,23.9,9.5-23.9h7.4v-.2Z"/>
  <path class="cls-1" d="M224.4,17.3c9.5-.2,17.3,7.9,17.2,17.2.2,9.3-7.7,17.3-17.2,17.2-9.3.2-17.2-7.9-17-17.2-.2-9.5,7.7-17.2,17-17.2ZM224.5,23.8c-5.8,0-10.1,4.7-10.1,10.8s4.3,10.6,10,10.6,10.1-4.7,10.1-10.6-4.3-10.8-10-10.8Z"/>
  <path class="cls-1" d="M249.1,18h6.9v19.6c0,4.5,3,7.5,7.2,7.5s7.1-2.9,7.1-7.5v-19.6h6.9v19.1c0,8.8-6.1,14.4-14,14.4s-14.1-5.6-14.1-14.4v-19.1Z"/>
  <path class="cls-1" d="M305.3,24.2h-2.1c-5.5,0-9.5,3.2-9.5,9.1v17.5h-6.9V18h6.4v4.3c2.2-2.9,5.8-4.7,9.5-4.7s1.8,0,2.6.3c0,0,0,6.3,0,6.3Z"/>
  <path class="cls-1" d="M347.6,51.5c-4.3,0-8.2-1.8-10.8-4.8v16.1h-6.9V18h6.4v4.7c2.4-3.4,6.6-5.3,11.2-5.3,9.1,0,15.9,7.4,15.9,17.2s-6.7,17.2-15.9,17.2v-.2ZM346.5,23.8c-5.1,0-9.8,3.5-9.8,10.8s4.7,10.8,9.8,10.8,9.8-4.3,9.8-10.8-4.3-10.8-9.8-10.8Z"/>
  <path class="cls-1" d="M386.3,17.3c9.5-.2,17.3,7.9,17.2,17.2.2,9.3-7.7,17.3-17.2,17.2-9.3.2-17.2-7.9-17-17.2-.2-9.5,7.7-17.2,17-17.2ZM386.3,23.8c-5.8,0-10.1,4.7-10.1,10.8s4.3,10.6,10,10.6,10.1-4.7,10.1-10.6-4.3-10.8-10-10.8Z"/>
  <path class="cls-1" d="M429.8,24.2h-2.1c-5.5,0-9.5,3.2-9.5,9.1v17.5h-6.9V18h6.4v4.3c2.2-2.9,5.8-4.7,9.5-4.7s1.8,0,2.6.3v6.3h0Z"/>
  <path class="cls-1" d="M455.2,50.9c-2.1.5-4,.8-5.8.8-7.4,0-11.9-3.7-11.9-11.4v-16.1h-5.3v-6.1h5.3v-8.7h6.9v8.7h9.6v6.1h-9.6v15.4c0,4.2,2.2,5.6,6.4,5.6s2.4,0,4.3-.3v5.9Z"/>
  <path class="cls-1" d="M470.3,18h7.5v6.1h-7.5v26.8h-6.9v-26.8h-4.7v-6.1h4.7v-6.6c0-7.7,4.3-11.4,11.6-11.4s3.2.2,4.5.6v5.9c-1.1,0-1.9-.2-2.7-.2-4.2,0-6.3,1.4-6.3,5.6v5.9h-.2Z"/>
  <path class="cls-1" d="M498.2,17.3c9.5-.2,17.3,7.9,17.2,17.2.2,9.3-7.7,17.3-17.2,17.2-9.3.2-17.2-7.9-17-17.2-.2-9.5,7.7-17.2,17-17.2ZM498.4,23.8c-5.8,0-10.1,4.7-10.1,10.8s4.3,10.6,10,10.6,10.1-4.7,10.1-10.6-4.3-10.8-10-10.8Z"/>
  <path class="cls-1" d="M523.2.6h6.9v50.1h-6.9V.6Z"/>
  <path class="cls-1" d="M543.6,1.1c2.6,0,4.7,2.1,4.7,4.7s-2.1,4.7-4.7,4.7-4.7-1.9-4.7-4.7,2.1-4.7,4.7-4.7ZM540.2,18h6.9v32.7h-6.9V18Z"/>
  <path class="cls-1" d="M572,17.3c9.5-.2,17.3,7.9,17.2,17.2.2,9.3-7.7,17.3-17.2,17.2-9.3.2-17.2-7.9-17-17.2-.2-9.5,7.7-17.2,17-17.2ZM572,23.8c-5.8,0-10.1,4.7-10.1,10.8s4.3,10.6,10,10.6,10.1-4.7,10.1-10.6-4.3-10.8-10-10.8Z"/>
</svg>