<?xml version="1.0" encoding="UTF-8"?>
<svg id="Layer_1" data-name="Layer 1" xmlns="http://www.w3.org/2000/svg" version="1.1" viewBox="0 0 672.3 48.7">
  <defs>
    <style>
      .cls-1 {
        fill: #002d72;
        stroke-width: 0px;
      }
    </style>
  </defs>
  <path class="cls-1" d="M10.6,13.8h5.6v5.9h-5.6v19.7H3.6v-19.7H0v-5.9h3.6v-4.2C3.6,3.2,7.3,0,13.5,0s2.6.2,3.8.6v5.8c-.8-.1-1.4-.2-2.1-.2-3.2,0-4.7,1.1-4.7,4v3.6ZM24.4.2c2.5,0,4.5,1.9,4.5,4.3s-2,4.3-4.5,4.3-4.4-1.9-4.4-4.3S21.9.2,24.4.2ZM20.9,13.8h7v25.6h-7V13.8Z"/>
  <path class="cls-1" d="M58.3,39.4h-6.9v-14.9c0-2.9-1.9-5-4.8-5s-4.9,2-4.9,5v14.9h-7V13.8h6.4v2.3c1.8-1.8,4.4-2.9,7.5-2.9,5.9,0,9.6,4.1,9.6,10.3v15.9Z"/>
  <path class="cls-1" d="M86.5,39.4h-6.4v-2.5c-1.9,1.9-4.6,3.1-7.8,3.1-5.4,0-8.8-3.2-8.8-7.7s3.7-7.4,9.7-7.4h6.4v-1.1c0-2.8-1.7-4.5-4.8-4.5s-4.5,1.1-6.8,3.5l-3.6-4.3c2.9-3.5,6.7-5.3,11.2-5.3,6.7,0,11,3.9,11,11v15.2ZM79.6,29.5h-5.5c-2.3,0-3.6.9-3.6,2.6s1.4,2.8,3.7,2.8,5.4-2.1,5.4-5.1v-.3Z"/>
  <path class="cls-1" d="M116.8,39.4h-6.9v-14.9c0-2.9-1.9-5-4.8-5s-4.9,2-4.9,5v14.9h-7V13.8h6.4v2.3c1.8-1.8,4.4-2.9,7.5-2.9,5.9,0,9.6,4.1,9.6,10.3v15.9Z"/>
  <path class="cls-1" d="M135.8,13.2c5,0,8.9,2.4,11.1,6.3l-4.9,3.8c-1.6-2.3-3.5-3.7-6.2-3.7-3.9,0-6.7,3-6.7,7s2.8,7,6.7,7,4.5-1.3,6.2-3.7l4.9,3.7c-2.2,3.9-6.2,6.4-11.1,6.4-7.5.2-13.8-6.1-13.7-13.4,0-7.5,6.1-13.3,13.7-13.3Z"/>
  <path class="cls-1" d="M155.5.2c2.5,0,4.5,1.9,4.5,4.3s-2,4.3-4.5,4.3-4.4-1.9-4.4-4.3,2-4.3,4.4-4.3ZM152.1,13.8h7v25.6h-7V13.8Z"/>
  <path class="cls-1" d="M187.5,39.4h-6.4v-2.5c-1.9,1.9-4.6,3.1-7.8,3.1-5.4,0-8.8-3.2-8.8-7.7s3.7-7.4,9.7-7.4h6.4v-1.1c0-2.8-1.7-4.5-4.8-4.5s-4.5,1.1-6.8,3.5l-3.6-4.3c2.9-3.5,6.7-5.3,11.2-5.3,6.7,0,11,3.9,11,11v15.2ZM180.5,29.5h-5.5c-2.3,0-3.6.9-3.6,2.6s1.4,2.8,3.7,2.8,5.4-2.1,5.4-5.1v-.3Z"/>
  <path class="cls-1" d="M194.2.6h7v38.8h-7V.6Z"/>
  <path class="cls-1" d="M223.8,30.8c2.2,2.3,4.7,3.5,7.2,3.5s3.3-.7,3.3-2.1-.7-1.5-2.6-2.3l-2.7-1.1c-4.7-1.9-7-4-7-7.8s3.8-7.7,9.4-7.7,6.9,1.3,9.2,3.8l-3.5,4.3c-1.7-1.6-3.6-2.4-5.7-2.4s-2.7.6-2.7,1.8.7,1.4,2.7,2.3l2.5,1c5,2,7.2,4,7.2,7.8s-.9,4.6-2.8,6c-1.9,1.4-4.2,2.2-7.1,2.2-4.5,0-8.3-1.9-10.6-5l3.5-4.2Z"/>
  <path class="cls-1" d="M258.4,13.2c7.5-.1,13.9,6.1,13.8,13.3.2,7.3-6.3,13.6-13.8,13.4-7.5.2-13.8-6.1-13.7-13.4-.2-7.3,6.2-13.5,13.7-13.3ZM258.4,19.6c-3.9,0-6.6,2.9-6.6,7s2.7,6.9,6.6,6.9,6.6-2.9,6.6-6.9-2.8-7-6.6-7Z"/>
  <path class="cls-1" d="M277.6.6h7v38.8h-7V.6Z"/>
  <path class="cls-1" d="M291.2,13.8h7v14.9c0,2.9,2,4.9,4.9,4.9s4.8-2,4.8-4.9v-14.9h7v14.3c0,7.1-5.1,11.9-11.7,11.9s-11.8-4.8-11.8-11.9v-14.3Z"/>
  <path class="cls-1" d="M337.9,39.4c-1.7.4-3.3.6-4.8.6-6.5,0-10.2-3.2-10.2-9.6v-10.7h-4v-5.9h4v-6.5h7v6.5h7.2v5.9h-7.2v10.1c0,2.9,1.4,4,4.8,4s1.5,0,3.3-.2v5.8Z"/>
  <path class="cls-1" d="M346.4.2c2.5,0,4.5,1.9,4.5,4.3s-2,4.3-4.5,4.3-4.4-1.9-4.4-4.3,2-4.3,4.4-4.3ZM343,13.8h7v25.6h-7V13.8Z"/>
  <path class="cls-1" d="M369.2,13.2c7.5-.1,13.9,6.1,13.8,13.3.2,7.3-6.3,13.6-13.8,13.4-7.5.2-13.8-6.1-13.7-13.4-.2-7.3,6.2-13.5,13.7-13.3ZM369.2,19.6c-3.9,0-6.6,2.9-6.6,7s2.7,6.9,6.6,6.9,6.6-2.9,6.6-6.9-2.8-7-6.6-7Z"/>
  <path class="cls-1" d="M411.9,39.4h-6.9v-14.9c0-2.9-1.9-5-4.8-5s-4.9,2-4.9,5v14.9h-7V13.8h6.4v2.3c1.8-1.8,4.4-2.9,7.5-2.9,5.9,0,9.6,4.1,9.6,10.3v15.9Z"/>
  <path class="cls-1" d="M419.8,30.8c2.2,2.3,4.7,3.5,7.2,3.5s3.3-.7,3.3-2.1-.7-1.5-2.6-2.3l-2.7-1.1c-4.7-1.9-7-4-7-7.8s3.8-7.7,9.4-7.7,6.9,1.3,9.2,3.8l-3.5,4.3c-1.7-1.6-3.6-2.4-5.7-2.4s-2.7.6-2.7,1.8.7,1.4,2.7,2.3l2.5,1c5,2,7.2,4,7.2,7.8s-.9,4.6-2.8,6c-1.9,1.4-4.2,2.2-7.1,2.2-4.5,0-8.3-1.9-10.6-5l3.5-4.2Z"/>
  <path class="cls-1" d="M468.9,13.2c5,0,8.9,2.4,11.1,6.3l-4.9,3.8c-1.6-2.3-3.5-3.7-6.2-3.7-3.9,0-6.7,3-6.7,7s2.8,7,6.7,7,4.5-1.3,6.2-3.7l4.9,3.7c-2.2,3.9-6.2,6.4-11.1,6.4-7.5.2-13.8-6.1-13.7-13.4,0-7.5,6.1-13.3,13.7-13.3Z"/>
  <path class="cls-1" d="M506.6,39.4h-6.4v-2.5c-1.9,1.9-4.6,3.1-7.8,3.1-5.4,0-8.8-3.2-8.8-7.7s3.7-7.4,9.7-7.4h6.4v-1.1c0-2.8-1.7-4.5-4.8-4.5s-4.5,1.1-6.8,3.5l-3.6-4.3c2.9-3.5,6.7-5.3,11.2-5.3,6.7,0,11,3.9,11,11v15.2ZM499.7,29.5h-5.5c-2.3,0-3.6.9-3.6,2.6s1.4,2.8,3.7,2.8,5.4-2.1,5.4-5.1v-.3Z"/>
  <path class="cls-1" d="M536.9,39.4h-6.9v-14.9c0-2.9-1.9-5-4.8-5s-4.9,2-4.9,5v14.9h-7V13.8h6.4v2.3c1.8-1.8,4.4-2.9,7.5-2.9,5.9,0,9.6,4.1,9.6,10.3v15.9Z"/>
  <path class="cls-1" d="M581.6,39.4h-6.9v-14.9c0-2.9-1.9-5-4.8-5s-4.9,2-4.9,5v14.9h-7V.6h7v15.4c1.7-1.7,4.2-2.7,7-2.7,5.8,0,9.5,4.1,9.5,10.3v15.9Z"/>
  <path class="cls-1" d="M593.9,29c.8,3.3,3.5,5.1,7.2,5.1s4.9-.9,7.1-2.6l2.9,4.8c-3.1,2.5-6.5,3.8-10.2,3.8-7.9.2-14.2-6-14-13.4-.2-7.4,6-13.6,13.4-13.4,7.1,0,12.1,5.2,12.1,11.9s-.2,2.5-.5,3.8h-17.9ZM605.6,24.1c0-3.2-2.5-5.2-5.5-5.2s-5.3,2-6.1,5.2h11.6Z"/>
  <path class="cls-1" d="M617.8.6h7v38.8h-7V.6Z"/>
  <path class="cls-1" d="M646.3,40c-3.1,0-5.8-1.1-7.7-3.1v11.8h-7V13.8h6.4v3.2c1.7-2.4,4.7-3.8,8.2-3.8,7.1,0,12.4,5.7,12.4,13.3s-5.3,13.4-12.4,13.4ZM645.1,19.6c-3.5,0-6.5,2.4-6.5,7s2.9,7.1,6.5,7.1,6.6-2.8,6.6-7-2.8-7.1-6.6-7.1Z"/>
  <path class="cls-1" d="M667.6,30.4c2.7,0,4.8,2.1,4.8,4.8s-2,4.8-4.8,4.8-4.9-2.1-4.9-4.8,2.1-4.8,4.9-4.8Z"/>
</svg>