<?xml version="1.0" encoding="UTF-8"?>
<svg id="Layer_1" data-name="Layer 1" xmlns="http://www.w3.org/2000/svg" version="1.1" viewBox="0 0 300.8 39.4">
  <defs>
    <style>
      .cls-1 {
        fill: #002d72;
        stroke-width: 0px;
      }
    </style>
  </defs>
  <path class="cls-1" d="M4.8,28.2c2.2,3.1,4.7,5,8.4,5s4.9-1.4,4.9-3.8-1.1-2.7-4.3-4.2l-3.7-1.7C4.8,21.2,1.8,18.3,1.8,13.7S6.6,4,13.1,4s9.2,2.5,11.3,6.5l-4.8,3.7c-1.8-2.6-3.9-3.9-6.5-3.9s-4.2,1.2-4.2,3.3,1.1,2.6,4,3.9l3.9,1.7c5.7,2.5,8.4,5.4,8.4,10s-5.1,10.2-11.9,10.2-10.6-2.9-13.2-7.6l4.8-3.6Z"/>
  <path class="cls-1" d="M36.4,28.3c.8,3.3,3.5,5.1,7.2,5.1s4.9-.9,7.1-2.6l2.9,4.8c-3.1,2.5-6.5,3.8-10.2,3.8-7.9.2-14.2-6-14-13.4-.2-7.4,6-13.6,13.4-13.4,7.1,0,12.1,5.2,12.1,11.9s-.2,2.5-.5,3.8h-17.9ZM48.1,23.4c0-3.2-2.5-5.2-5.5-5.2s-5.3,2-6.1,5.2h11.6Z"/>
  <path class="cls-1" d="M65.8,28.3c.8,3.3,3.5,5.1,7.2,5.1s4.9-.9,7.1-2.6l2.9,4.8c-3.1,2.5-6.5,3.8-10.2,3.8-7.9.2-14.2-6-14-13.4-.2-7.4,6-13.6,13.4-13.4,7.1,0,12.1,5.2,12.1,11.9s-.2,2.5-.5,3.8h-17.9ZM77.5,23.4c0-3.2-2.5-5.2-5.5-5.2s-5.3,2-6.1,5.2h11.6Z"/>
  <path class="cls-1" d="M127.7,38.8h-6.9v-14.9c0-2.9-1.9-5-4.8-5s-4.9,2-4.9,5v14.9h-7V0h7v15.4c1.7-1.7,4.2-2.7,7-2.7,5.8,0,9.5,4.1,9.5,10.3v15.9Z"/>
  <path class="cls-1" d="M146.7,12.6c7.5-.1,13.9,6.1,13.8,13.3.2,7.3-6.3,13.6-13.8,13.4-7.5.2-13.8-6.1-13.7-13.4-.2-7.3,6.2-13.5,13.7-13.3ZM146.7,19c-3.9,0-6.6,2.9-6.6,7s2.7,6.9,6.6,6.9,6.6-2.9,6.6-6.9-2.8-7-6.6-7Z"/>
  <path class="cls-1" d="M205.1,13.2l-11.9,26.2h-2.3l-7.3-14.9-7.4,14.9h-2.3l-11.9-26.2h7.3l6.1,14.6,7-15.2h2.3l7.1,14.8,5.9-14.3h7.3Z"/>
  <path class="cls-1" d="M235.9,12.6c7.5-.1,13.9,6.1,13.8,13.3.2,7.3-6.3,13.6-13.8,13.4-7.5.2-13.8-6.1-13.7-13.4-.2-7.3,6.2-13.5,13.7-13.3ZM235.9,19c-3.9,0-6.6,2.9-6.6,7s2.7,6.9,6.6,6.9,6.6-2.9,6.6-6.9-2.8-7-6.6-7Z"/>
  <path class="cls-1" d="M254.8,13.2h7v14.9c0,2.9,2,4.9,4.9,4.9s4.8-2,4.8-4.9v-14.9h7v14.3c0,7.1-5.1,11.9-11.7,11.9s-11.8-4.8-11.8-11.9v-14.3Z"/>
  <path class="cls-1" d="M300.8,19.3h-1.9c-4.2,0-6.9,2.3-6.9,6.7v12.8h-7V13.2h6.4v3.1c1.7-2.1,4.2-3.4,7-3.4s1.6.1,2.3.3v6.2Z"/>
</svg>