<?xml version="1.0" encoding="UTF-8"?>
<svg id="Layer_1" data-name="Layer 1" xmlns="http://www.w3.org/2000/svg" xmlns:xlink="http://www.w3.org/1999/xlink" version="1.1" viewBox="0 0 200.2 45.1">
  <defs>
    <style>
      .cls-1 {
        clip-path: url(#clippath);
      }

      .cls-2 {
        fill: none;
      }

      .cls-2, .cls-3, .cls-4 {
        stroke-width: 0px;
      }

      .cls-3 {
        fill: #002d72;
      }

      .cls-4 {
        fill: #ffbf3f;
      }
    </style>
    <clipPath id="clippath">
      <rect class="cls-2" width="200.2" height="45.1"/>
    </clipPath>
  </defs>
  <g class="cls-1">
    <path class="cls-4" d="M7,0C3.1,0,0,3.1,0,6.8v31.4c0,3.8,3.1,6.8,7,6.8h186.4c3.8,0,7-3.1,7-6.8V6.8c-.1-3.8-3.2-6.8-7-6.8H7Z"/>
  </g>
  <g>
    <path class="cls-3" d="M35.9,14.2c3.2,0,5.8,1.4,7.6,3.8l-2.1,1.8c-1.4-1.9-3.2-2.8-5.5-2.8-3.9,0-6.5,2.8-6.5,6.7s2.8,6.8,6.7,6.8,4.3-1.1,5.5-2.7v-2h-5.6v-2.6h8.5v5.2c-1.6,3-4.8,4.8-8.5,4.8-5.4,0-9.7-4.2-9.6-9.5-.1-5.3,4.3-9.5,9.6-9.5h-.1Z"/>
    <path class="cls-3" d="M50,27c.3,2.2,2.1,3.6,4.4,3.6s2.7-.5,4-1.6l1.4,2c-1.6,1.5-3.4,2.2-5.5,2.2-4.1,0-7.3-3.1-7.3-7.1s3.2-7.2,7.1-7.2,6.3,2.6,6.3,6.2,0,1.2-.2,1.8h-10.2ZM57.4,24.7c0-2.1-1.6-3.4-3.5-3.4s-3.5,1.3-3.9,3.4h7.4Z"/>
    <path class="cls-3" d="M71.8,32.8c-.9.2-1.7.3-2.4.3-3.2,0-5.1-1.6-5.1-4.7v-6.6h-2.2v-2.5h2.2v-3.6h3v3.6h4v2.5h-4v6.4c0,1.8.9,2.3,2.6,2.3s.9,0,1.8-.1v2.4h.1Z"/>
    <path class="cls-3" d="M83.4,27.5c1.3,1.8,2.6,3,4.7,3s3.2-.9,3.2-2.5-.7-1.9-2.6-2.7l-2-.9c-2.6-1.3-4.2-2.6-4.2-5.1s2.6-5,5.8-5,4.7,1.3,5.9,3.3l-2,1.6c-.9-1.5-2.3-2.2-3.9-2.2s-2.7.7-2.7,2.2c.1,1.5.7,1.7,2.5,2.6l2,.9c3,1.4,4.4,2.8,4.4,5.2s-2.6,5.3-6.1,5.3-5.5-1.5-6.8-4l2.1-1.6h-.2Z"/>
    <path class="cls-3" d="M105.9,32.8c-.9.2-1.7.3-2.4.3-3.2,0-5.1-1.6-5.1-4.7v-6.6h-2.2v-2.5h2.2v-3.6h3v3.6h4v2.5h-4v6.4c0,1.8.9,2.3,2.6,2.3s.9,0,1.8-.1v2.4h.1Z"/>
    <path class="cls-3" d="M119.6,32.8h-2.7v-1.5c-.9,1.2-2.5,1.8-4.3,1.8-2.8,0-4.7-1.6-4.7-3.9s1.9-3.9,5.1-3.9h3.9v-.8c0-1.9-1.1-3-3-3s-2.6.6-3.8,2l-1.7-1.7c1.4-2,3.4-3,5.7-3,3.4,0,5.6,2,5.6,5.7,0,0,0,8.2,0,8.2ZM116.7,27.4h-3.5c-1.6,0-2.4.5-2.4,1.7s.9,1.8,2.4,1.8,3.5-1.4,3.5-3.2v-.2h0Z"/>
    <path class="cls-3" d="M131.5,21.7h-.8c-2.3,0-4,1.4-4,3.8v7.3h-3v-13.6h2.7v1.8c.9-1.3,2.4-1.9,4-1.9s.7,0,1.2.1v2.5h-.1Z"/>
    <path class="cls-3" d="M142.1,32.8c-.9.2-1.7.3-2.4.3-3.2,0-5.1-1.6-5.1-4.7v-6.6h-2.2v-2.5h2.2v-3.6h3v3.6h4v2.5h-4v6.4c0,1.8.9,2.3,2.6,2.3s.9,0,1.8-.1v2.4h.1Z"/>
    <path class="cls-3" d="M146.9,27c.3,2.2,2.1,3.6,4.4,3.6s2.7-.5,4-1.6l1.4,2c-1.6,1.5-3.4,2.2-5.5,2.2-4.1,0-7.3-3.1-7.3-7.1s3.2-7.2,7.1-7.2,6.3,2.6,6.3,6.2,0,1.2-.2,1.8h-10.2ZM154.4,24.7c0-2.1-1.6-3.4-3.5-3.4s-3.5,1.3-3.9,3.4h7.4Z"/>
    <path class="cls-3" d="M173.8,12v20.8h-2.7v-1.9c-.9,1.4-2.7,2.2-4.7,2.2-3.8,0-6.6-3.1-6.6-7.1s2.8-7.2,6.6-7.2,3.5.7,4.5,2v-8.9s3,0,3,0ZM166.9,21.5c-2.3,0-4.2,1.8-4.2,4.4s1.8,4.4,4.2,4.4,4.1-1.5,4.1-4.4-2-4.4-4.1-4.4Z"/>
  </g>
</svg>