<?xml version="1.0" encoding="UTF-8"?>
<svg id="Layer_1" data-name="Layer 1" xmlns="http://www.w3.org/2000/svg" version="1.1" viewBox="0 0 326 37.7">
  <defs>
    <style>
      .cls-1 {
        fill: #ffbf3f;
        stroke-width: 0px;
      }
    </style>
  </defs>
  <path class="cls-1" d="M2.9,28.6c2.4,3.7,5.5,5.6,9.1,5.6s6.6-2.1,6.6-5.5-1.8-4-5.5-5.8l-3.7-1.7c-4.5-2.1-7.4-4.4-7.4-8.8S6.6,3.9,12,3.9s8.1,2.2,10.3,5.6l-2.8,2.1c-1.8-2.6-4.5-4.1-7.5-4.1s-5.8,1.7-5.8,4.8.2,1.7.6,2.4c.8,1.2,2,1.9,4.6,3.1l3.6,1.7c5.2,2.5,7.6,4.9,7.6,9.1s-4.5,9.1-10.6,9.1-9.5-2.7-12.1-7l2.9-2.1Z"/>
  <path class="cls-1" d="M65.1,37.2h-3.8v-14.7c0-3.9-2.1-6.5-5.7-6.5s-6.2,2.7-6.2,6.1v15h-3.8v-14.7c0-3.9-2.2-6.5-5.8-6.5s-6.1,2.7-6.1,6.5v14.7h-3.8V13h3.6v2.5c1.7-2,4.2-3.1,7.2-3.1s6,1.5,7.4,4.2c1.8-2.5,4.7-4.2,8.3-4.2,5.6,0,8.8,3.8,8.8,9.5v15.2Z"/>
  <path class="cls-1" d="M91.3,37.2h-3.6v-3.1c-1.8,2.4-4.6,3.7-8.1,3.7s-8.4-2.6-8.4-6.8,3.5-6.7,8.7-6.7h7.6v-2.1c0-4-2.2-6.1-5.9-6.1s-5.1,1.3-7,3.9l-2.5-2.1c2.2-3.6,5.8-5.3,9.8-5.3,5.7,0,9.4,3.5,9.4,9.8v14.9ZM87.5,27.3h-7.2c-3.4,0-5.2,1.2-5.2,3.4s2.2,3.8,5,3.8,7.4-2.9,7.4-6.6v-.6Z"/>
  <path class="cls-1" d="M99.4,0h3.8v37.2h-3.8V0Z"/>
  <path class="cls-1" d="M111.6,0h3.8v37.2h-3.8V0Z"/>
  <path class="cls-1" d="M150.4,37.7c-3.8,0-7.3-1.6-9.2-4.4v3.8h-3.6V0h3.8v16.6c1.9-2.5,5.3-4.1,8.9-4.1,6.8,0,12,5.6,12,12.6s-5.1,12.6-11.9,12.6ZM149.8,16c-4.5,0-8.4,3-8.4,9.1s4.1,9.1,8.4,9.1,8.6-3.9,8.6-9.1-3.7-9.1-8.6-9.1Z"/>
  <path class="cls-1" d="M168.7,13h3.8v14.8c0,3.9,2.7,6.4,6.2,6.4s6.1-2.6,6.1-6.4v-14.8h3.8v14.5c0,6.1-4.4,10.2-10,10.2s-10-4.1-10-10.2v-14.5Z"/>
  <path class="cls-1" d="M196.9,30.5c2.3,2.4,4.2,3.7,6.9,3.7s4.6-1.3,4.6-3.4-1.2-2.7-4.2-3.9l-2.3-1c-4-1.6-6-3.5-6-6.7s3.5-6.7,8.1-6.7,6.1,1.4,8.1,3.8l-2.3,2.4c-1.6-1.6-3.7-2.7-6-2.7s-4,1.1-4,3,1,2.3,3.9,3.5l2.2.9c4.5,1.9,6.4,3.8,6.4,7.1s-.8,4-2.5,5.3c-1.6,1.2-3.6,1.8-6,1.8-4,0-7.3-1.9-9.4-4.7l2.4-2.5Z"/>
  <path class="cls-1" d="M221.2,1c1.5,0,2.8,1.2,2.8,2.8s-1.2,2.8-2.8,2.8-2.9-1.2-2.9-2.8,1.3-2.8,2.9-2.8ZM219.3,13h3.8v24.2h-3.8V13Z"/>
  <path class="cls-1" d="M251.5,37.2h-3.8v-14.7c0-3.8-2.3-6.4-6-6.4s-6.3,2.7-6.3,6.4v14.7h-3.8V13h3.6v2.6c1.8-2,4.4-3.1,7.4-3.1,5.6,0,9,3.8,9,9.5v15.2Z"/>
  <path class="cls-1" d="M261.8,26.3c.4,4.8,4.1,7.9,8.9,7.9s5.2-1.1,7.4-3.3l2.2,2.6c-2.5,2.6-5.9,4.2-9.7,4.2-7.2,0-12.8-5.5-12.8-12.6s5.5-12.6,12.3-12.6,11,4.5,11,10.9,0,1.9-.3,2.9h-19.1ZM277.2,22.9c0-4.3-3.2-6.9-7.2-6.9s-7.3,2.8-8.1,6.9h15.3Z"/>
  <path class="cls-1" d="M288,30.5c2.3,2.4,4.2,3.7,6.9,3.7s4.6-1.3,4.6-3.4-1.2-2.7-4.2-3.9l-2.3-1c-4-1.6-6-3.5-6-6.7s3.5-6.7,8.1-6.7,6.1,1.4,8.1,3.8l-2.3,2.4c-1.6-1.6-3.7-2.7-6-2.7s-4,1.1-4,3,1,2.3,3.9,3.5l2.2.9c4.5,1.9,6.4,3.8,6.4,7.1s-.8,4-2.5,5.3c-1.6,1.2-3.6,1.8-6,1.8-4,0-7.3-1.9-9.4-4.7l2.4-2.5Z"/>
  <path class="cls-1" d="M310.5,30.5c2.3,2.4,4.2,3.7,6.9,3.7s4.6-1.3,4.6-3.4-1.2-2.7-4.2-3.9l-2.3-1c-4-1.6-6-3.5-6-6.7s3.5-6.7,8.1-6.7,6.1,1.4,8.1,3.8l-2.3,2.4c-1.6-1.6-3.7-2.7-6-2.7s-4,1.1-4,3,1,2.3,3.9,3.5l2.2.9c4.5,1.9,6.4,3.8,6.4,7.1s-.8,4-2.5,5.3c-1.6,1.2-3.6,1.8-6,1.8-4,0-7.3-1.9-9.4-4.7l2.4-2.5Z"/>
</svg>