<?xml version="1.0" encoding="UTF-8"?>
<svg id="Layer_1" data-name="Layer 1" xmlns="http://www.w3.org/2000/svg" version="1.1" viewBox="0 0 255 46.7">
  <defs>
    <style>
      .cls-1 {
        fill: #ffbf3f;
        stroke-width: 0px;
      }
    </style>
  </defs>
  <path class="cls-1" d="M16.2,37.2c-1.5.3-2.9.5-4,.5-5,0-8.1-2.5-8.1-7.8v-13.4H0v-3.4h4.1v-6.6h3.8v6.6h7.5v3.4h-7.5v13.2c0,3.4,1.8,4.6,5.1,4.6s2,0,3.2-.3v3.2Z"/>
  <path class="cls-1" d="M32.3,12.5c6.9,0,12.8,5.7,12.6,12.6.1,6.8-5.8,12.7-12.7,12.6-6.9.1-12.7-5.8-12.6-12.6-.1-6.9,5.8-12.7,12.6-12.6ZM32.3,16c-5,0-8.7,3.9-8.7,9.1s3.8,9,8.7,9,8.8-4,8.8-9-3.8-9.1-8.7-9.1Z"/>
  <path class="cls-1" d="M85.5,37.2h-3.8v-14.7c0-3.9-2.3-6.5-6-6.5s-6.3,2.7-6.3,6.5v14.7h-3.8V0h3.8v15.8c1.6-2,4.2-3.3,7.2-3.3,5.6,0,8.9,3.8,8.9,9.5v15.2Z"/>
  <path class="cls-1" d="M95.9,26.3c.4,4.8,4.1,7.9,8.9,7.9s5.2-1.1,7.4-3.3l2.2,2.6c-2.5,2.6-5.9,4.2-9.7,4.2-7.2,0-12.8-5.5-12.8-12.6s5.5-12.6,12.3-12.6,11,4.5,11,10.9,0,1.9-.3,2.9h-19.1ZM111.3,22.9c0-4.3-3.2-6.9-7.2-6.9s-7.3,2.8-8.1,6.9h15.3Z"/>
  <path class="cls-1" d="M121.9,0h3.8v37.2h-3.8V0Z"/>
  <path class="cls-1" d="M146.8,37.7c-3.6,0-6.9-1.5-8.9-4v12.4h-3.8V13h3.6v3.9c1.8-2.8,5.4-4.4,9.1-4.4,6.9,0,12,5.5,12,12.6s-5.2,12.6-12,12.6ZM146.3,16c-4.3,0-8.4,3-8.4,9.1s3.9,9.1,8.4,9.1,8.6-3.9,8.6-9.1-3.7-9.1-8.6-9.1Z"/>
  <path class="cls-1" d="M200.6,13l-11.9,27.5c-1.8,4.2-4.5,6.1-8.2,6.1s-2.5-.1-3.7-.5v-3.2c1.2.1,2.2.2,2.9.2,2.5,0,4.2-.9,5.5-3.9l1.3-2.9-10-23.4h4.1l8,19.2,8-19.2h4.1Z"/>
  <path class="cls-1" d="M216,12.5c6.9,0,12.8,5.7,12.6,12.6.1,6.8-5.8,12.7-12.7,12.6-6.9.1-12.7-5.8-12.6-12.6-.1-6.9,5.8-12.7,12.6-12.6ZM216,16c-5,0-8.7,3.9-8.7,9.1s3.8,9,8.7,9,8.8-4,8.8-9-3.8-9.1-8.7-9.1Z"/>
  <path class="cls-1" d="M235,13h3.8v14.8c0,3.9,2.7,6.4,6.2,6.4s6.1-2.6,6.1-6.4v-14.8h3.8v14.5c0,6.1-4.4,10.2-10,10.2s-10-4.1-10-10.2v-14.5Z"/>
</svg>