<?xml version="1.0" encoding="UTF-8"?>
<svg id="Layer_1" data-name="Layer 1" xmlns="http://www.w3.org/2000/svg" version="1.1" viewBox="0 0 248.8 45.1">
  <defs>
    <style>
      .cls-1 {
        fill: #ffbf3f;
        stroke-width: 0px;
      }
    </style>
  </defs>
  <path class="cls-1" d="M4,25.2c.4,4.8,4.1,7.9,8.9,7.9s5.2-1.1,7.4-3.3l2.2,2.6c-2.5,2.6-5.9,4.2-9.7,4.2-7.2,0-12.8-5.5-12.8-12.6s5.5-12.6,12.3-12.6,11,4.5,11,10.9,0,1.9-.3,2.9H4ZM19.4,21.9c0-4.3-3.2-6.9-7.2-6.9s-7.3,2.8-8.1,6.9h15.3Z"/>
  <path class="cls-1" d="M44.5,36.2l-6.9-9.9-6.8,9.9h-4.5l9-12.6-8.2-11.6h4.4l6.1,8.9,6.2-8.9h4.4l-8.4,11.6,9.1,12.6h-4.4Z"/>
  <path class="cls-1" d="M66.9,36.7c-3.6,0-6.9-1.5-8.9-4v12.4h-3.8V12h3.6v3.9c1.8-2.8,5.4-4.4,9.1-4.4,6.9,0,12,5.5,12,12.6s-5.2,12.6-12,12.6ZM66.3,15c-4.3,0-8.4,3-8.4,9.1s3.9,9.1,8.4,9.1,8.6-3.9,8.6-9.1-3.7-9.1-8.6-9.1Z"/>
  <path class="cls-1" d="M87.8,25.2c.4,4.8,4.1,7.9,8.9,7.9s5.2-1.1,7.4-3.3l2.2,2.6c-2.5,2.6-5.9,4.2-9.7,4.2-7.2,0-12.8-5.5-12.8-12.6s5.5-12.6,12.3-12.6,11,4.5,11,10.9,0,1.9-.3,2.9h-19.1ZM103.2,21.9c0-4.3-3.2-6.9-7.2-6.9s-7.3,2.8-8.1,6.9h15.3Z"/>
  <path class="cls-1" d="M126.7,15.4h-1.4c-4.1,0-7.6,2.6-7.6,7.1v13.7h-3.8V12h3.6v3.4c1.7-2.3,4.6-3.6,7.5-3.6s1.1,0,1.8.2v3.4Z"/>
  <path class="cls-1" d="M133.7,0c1.5,0,2.8,1.2,2.8,2.8s-1.2,2.8-2.8,2.8-2.9-1.2-2.9-2.8,1.3-2.8,2.9-2.8ZM131.8,12h3.8v24.2h-3.8V12Z"/>
  <path class="cls-1" d="M146.2,25.2c.4,4.8,4.1,7.9,8.9,7.9s5.2-1.1,7.4-3.3l2.2,2.6c-2.5,2.6-5.9,4.2-9.7,4.2-7.2,0-12.8-5.5-12.8-12.6s5.5-12.6,12.3-12.6,11,4.5,11,10.9,0,1.9-.3,2.9h-19.1ZM161.7,21.9c0-4.3-3.2-6.9-7.2-6.9s-7.3,2.8-8.1,6.9h15.3Z"/>
  <path class="cls-1" d="M192.3,36.2h-3.8v-14.7c0-3.8-2.3-6.4-6-6.4s-6.3,2.7-6.3,6.4v14.7h-3.8V12h3.6v2.6c1.8-2,4.4-3.1,7.4-3.1,5.6,0,9,3.8,9,9.5v15.2Z"/>
  <path class="cls-1" d="M211.3,11.5c4.2,0,7.8,2,10,5.3l-2.7,2.2c-1.9-2.6-4.4-3.9-7.2-3.9-5,0-8.8,4.1-8.8,9.1s3.8,9.1,8.8,9.1,5.2-1.3,7.1-3.9l2.7,2.1c-2.2,3.2-5.7,5.3-9.9,5.3-7,0-12.6-5.7-12.6-12.6-.1-6.9,5.8-12.7,12.6-12.6Z"/>
  <path class="cls-1" d="M229.4,25.2c.4,4.8,4.1,7.9,8.9,7.9s5.2-1.1,7.4-3.3l2.2,2.6c-2.5,2.6-5.9,4.2-9.7,4.2-7.2,0-12.8-5.5-12.8-12.6s5.5-12.6,12.3-12.6,11,4.5,11,10.9,0,1.9-.3,2.9h-19.1ZM244.9,21.9c0-4.3-3.2-6.9-7.2-6.9s-7.3,2.8-8.1,6.9h15.3Z"/>
</svg>