<?xml version="1.0" encoding="UTF-8"?>
<svg id="Layer_1" data-name="Layer 1" xmlns="http://www.w3.org/2000/svg" version="1.1" viewBox="0 0 225.9 49.8">
  <defs>
    <style>
      .cls-1 {
        fill: #ffbf3f;
        stroke-width: 0px;
      }
    </style>
  </defs>
  <path class="cls-1" d="M25.4,0C33.8,0,40.7,3.7,45.3,10.1l-5.6,4.6c-3.6-5-8.4-7.6-14.4-7.6-10.1,0-17.3,7.6-17.3,17.7s7.4,18,17.7,18,11.4-2.7,14.4-7.3v-5.2h-14.8v-6.9h22.6v13.6c-4.3,7.7-12.8,12.7-22.5,12.7C11.3,50-.2,38.7,0,24.9-.3,11.1,11.5-.2,25.4,0Z"/>
  <path class="cls-1" d="M87.7,49l-13.7-18.6h-8.8v18.6h-7.7V.8h17.6c9.7,0,16.4,6.1,16.4,14.7s-3.5,11.3-9.3,13.6l14.5,19.9h-8.8ZM65.1,23.5h9.7c5.3,0,8.5-3.2,8.5-7.9s-3.2-8-8.5-8h-9.7v15.8Z"/>
  <path class="cls-1" d="M124.7,0c13.7-.2,25.6,11.1,25.3,24.9.3,13.8-11.7,25.1-25.3,24.9-13.8.2-25.5-11.1-25.3-24.9C99.2,11.1,111-.2,124.7,0ZM124.8,7.1c-10,0-17.3,7.6-17.3,17.7s7.3,17.9,17.3,17.9,17.3-7.6,17.3-17.9-7.4-17.7-17.3-17.7Z"/>
  <path class="cls-1" d="M225.9.8l-18.8,49h-2.6l-14.4-34.2-14.4,34.2h-2.6L154.4.8h8.5l12,32.6L188.8,0h2.7l13.9,33.4L217.4.8h8.5Z"/>
</svg>