<?xml version="1.0" encoding="UTF-8"?>
<svg id="Layer_1" data-name="Layer 1" xmlns="http://www.w3.org/2000/svg" version="1.1" viewBox="0 0 310 35.5">
  <defs>
    <style>
      .cls-1 {
        fill: #ffbf3f;
        stroke-width: 0px;
      }
    </style>
  </defs>
  <path class="cls-1" d="M3.5,26.2c2.1,3,4.5,4.9,8.1,4.9s5.3-1.7,5.3-4.3-1.3-3.1-4.5-4.6l-3.4-1.6c-4.5-2.1-7.2-4.4-7.2-8.5S6.2,3.7,11.5,3.7s8,2.2,9.9,5.5l-3.5,2.7c-1.6-2.4-3.9-3.7-6.5-3.7s-4.7,1.3-4.7,3.7c.2,2.4,1.3,2.8,4.3,4.4l3.5,1.6c5,2.3,7.4,4.7,7.4,8.8s-4.4,8.9-10.3,8.9-9.2-2.5-11.6-6.7l3.5-2.7Z"/>
  <path class="cls-1" d="M62.3,35h-4.9v-13.6c0-3.2-1.8-5.3-4.8-5.3s-5,2.1-5,5.1v13.9h-4.9v-13.6c0-3.2-1.9-5.3-4.8-5.3s-5,2.1-5,5.3v13.6h-4.9V12.1h4.6v2.1c1.6-1.7,3.9-2.7,6.6-2.7s5.6,1.4,7,3.6c1.7-2.2,4.5-3.6,7.7-3.6,5.3,0,8.5,3.6,8.5,9.1v14.3Z"/>
  <path class="cls-1" d="M87.3,35h-4.6v-2.6c-1.7,2-4.2,3.1-7.3,3.1-4.8,0-8-2.7-8-6.6s3.3-6.5,8.4-6.5h6.5v-1.5c0-3.2-1.8-4.9-4.9-4.9s-4.4,1.1-6.3,3.4l-2.8-2.9c2.3-3.3,5.7-4.9,9.7-4.9,5.6,0,9.4,3.4,9.4,9.6v13.9ZM82.4,25.9h-5.9c-2.6,0-4.1.9-4.1,2.8s1.6,3,4,3,5.9-2.3,5.9-5.4v-.4Z"/>
  <path class="cls-1" d="M94.1,0h4.9v35h-4.9V0Z"/>
  <path class="cls-1" d="M106.1,0h4.9v35h-4.9V0Z"/>
  <path class="cls-1" d="M144.7,35h-13.2V4.2h10.8c5.6,0,9.2,3.5,9.2,8.2s-.9,4.3-2.6,5.8c3.6,1.2,5.7,4.1,5.7,7.8s-4,9-10,9ZM136.3,8.5v8.3h5.5c3,0,4.8-1.6,4.8-4.2s-1.7-4.1-4.8-4.1h-5.5ZM144.3,21.1h-7.9v9.6h7.9c3.4,0,5.4-1.8,5.4-4.8s-2-4.8-5.4-4.8Z"/>
  <path class="cls-1" d="M159.8,12.1h4.9v13.7c0,3.2,2.2,5.2,5.2,5.2s5-2.1,5-5.2v-13.7h4.9v13.3c0,6.2-4.3,10.1-9.9,10.1s-10-4-10-10.1v-13.3Z"/>
  <path class="cls-1" d="M187.2,28c2,2.1,4,3.3,6.4,3.3s3.7-.9,3.7-2.6-1-1.9-3.2-2.8l-2.3-1c-4.1-1.7-6-3.5-6-6.7s3.4-6.6,8.1-6.6,5.9,1.2,7.9,3.5l-2.7,3c-1.4-1.5-3.4-2.3-5.4-2.3s-3.1.7-3.1,2.2.8,1.8,3,2.7l2.2.9c4.3,1.8,6.2,3.7,6.2,6.9s-.8,3.9-2.4,5.2c-1.6,1.2-3.6,1.8-6.1,1.8-3.9,0-7.2-1.8-9.2-4.4l2.8-3.1Z"/>
  <path class="cls-1" d="M210.3.3c1.8,0,3.3,1.4,3.3,3.3s-1.5,3.2-3.3,3.2-3.4-1.4-3.4-3.2,1.5-3.3,3.4-3.3ZM207.8,12.1h4.9v22.9h-4.9V12.1Z"/>
  <path class="cls-1" d="M239.8,35h-4.9v-13.7c0-3.2-2-5.3-5-5.3s-5.2,2.2-5.2,5.3v13.7h-4.9V12.1h4.6v2.2c1.7-1.8,4-2.8,6.9-2.8,5.4,0,8.6,3.6,8.6,9.1v14.3Z"/>
  <path class="cls-1" d="M250.1,25.1c.6,3.7,3.5,6,7.5,6s4.6-.9,6.7-2.7l2.3,3.4c-2.6,2.5-5.6,3.7-9.1,3.7-7,0-12.3-5.2-12.3-11.9-.1-6.6,5.4-12.1,11.8-12,6.1,0,10.6,4.5,10.6,10.5s-.1,2-.4,3.1h-17.1ZM262.7,21.3c0-3.5-2.7-5.6-5.9-5.6s-5.8,2.2-6.6,5.6h12.5Z"/>
  <path class="cls-1" d="M273.8,28c2,2.1,4,3.3,6.4,3.3s3.7-.9,3.7-2.6-1-1.9-3.2-2.8l-2.3-1c-4.1-1.7-6-3.5-6-6.7s3.4-6.6,8.1-6.6,5.9,1.2,7.9,3.5l-2.7,3c-1.4-1.5-3.4-2.3-5.4-2.3s-3.1.7-3.1,2.2.8,1.8,3,2.7l2.2.9c4.3,1.8,6.3,3.7,6.3,6.9s-.8,3.9-2.4,5.2c-1.6,1.2-3.6,1.8-6.1,1.8-3.9,0-7.2-1.8-9.2-4.4l2.8-3.1Z"/>
  <path class="cls-1" d="M295.1,28c2,2.1,4,3.3,6.4,3.3s3.7-.9,3.7-2.6-1-1.9-3.2-2.8l-2.3-1c-4.1-1.7-6-3.5-6-6.7s3.4-6.6,8.1-6.6,5.9,1.2,7.9,3.5l-2.7,3c-1.4-1.5-3.4-2.3-5.4-2.3s-3.1.7-3.1,2.2.8,1.8,3,2.7l2.2.9c4.3,1.8,6.2,3.7,6.2,6.9s-.8,3.9-2.4,5.2c-1.6,1.2-3.6,1.8-6.1,1.8-3.9,0-7.2-1.8-9.2-4.4l2.8-3.1Z"/>
</svg>