<?xml version="1.0" encoding="UTF-8"?>
<svg id="Layer_1" data-name="Layer 1" xmlns="http://www.w3.org/2000/svg" version="1.1" viewBox="0 0 202 43.6">
  <defs>
    <style>
      .cls-1 {
        fill: #ffbf3f;
        stroke-width: 0px;
      }
    </style>
  </defs>
  <path class="cls-1" d="M0,3.9h19.8v4.4H4.9v9.2h12.2v4.5H4.9v12.7H0V3.9Z"/>
  <path class="cls-1" d="M26.8,0c1.8,0,3.3,1.4,3.3,3.3s-1.5,3.2-3.3,3.2-3.4-1.4-3.4-3.2,1.5-3.3,3.4-3.3ZM24.3,11.8h4.9v22.9h-4.9V11.8Z"/>
  <path class="cls-1" d="M56.3,34.7h-4.9v-13.7c0-3.2-2-5.3-5-5.3s-5.2,2.2-5.2,5.3v13.7h-4.9V11.8h4.6v2.2c1.7-1.8,4-2.8,6.9-2.8,5.4,0,8.6,3.6,8.6,9.1v14.3Z"/>
  <path class="cls-1" d="M81.3,34.7h-4.6v-2.6c-1.7,2-4.2,3.1-7.3,3.1-4.8,0-8-2.7-8-6.6s3.3-6.5,8.4-6.5h6.5v-1.5c0-3.2-1.8-4.9-4.9-4.9s-4.4,1.1-6.3,3.4l-2.8-2.9c2.3-3.3,5.7-4.9,9.7-4.9,5.6,0,9.4,3.4,9.4,9.6v13.9ZM76.4,25.6h-5.9c-2.6,0-4.1.9-4.1,2.8s1.6,3,4,3,5.9-2.3,5.9-5.4v-.4Z"/>
  <path class="cls-1" d="M108.2,34.7h-4.9v-13.7c0-3.2-2-5.3-5-5.3s-5.2,2.2-5.2,5.3v13.7h-4.9V11.8h4.6v2.2c1.7-1.8,4-2.8,6.9-2.8,5.4,0,8.6,3.6,8.6,9.1v14.3Z"/>
  <path class="cls-1" d="M125.7,11.3c4.2,0,7.6,2,9.7,5.3l-3.5,2.7c-1.6-2.3-3.7-3.5-6.2-3.5-4.1,0-7.2,3.3-7.2,7.4s3.1,7.5,7.2,7.5,4.5-1.2,6.2-3.5l3.5,2.7c-2.1,3.3-5.5,5.3-9.7,5.3-6.8,0-12.1-5.3-12.1-12-.1-6.6,5.6-12,12.1-11.9Z"/>
  <path class="cls-1" d="M143.2,0c1.8,0,3.3,1.4,3.3,3.3s-1.5,3.2-3.3,3.2-3.4-1.4-3.4-3.2,1.5-3.3,3.4-3.3ZM140.7,11.8h4.9v22.9h-4.9V11.8Z"/>
  <path class="cls-1" d="M172.7,34.7h-4.9v-13.7c0-3.2-2-5.3-5-5.3s-5.2,2.2-5.2,5.3v13.7h-4.9V11.8h4.6v2.2c1.7-1.8,4-2.8,6.9-2.8,5.4,0,8.6,3.6,8.6,9.1v14.3Z"/>
  <path class="cls-1" d="M202,11.8v20.5c0,7.2-4.5,11.3-11.5,11.3s-8.3-1.8-11-4.3l2.7-3.4c2.6,2.1,4.9,3.3,8,3.3s6.9-2.2,6.9-6.5v-1.6c-1.7,2.1-4.6,3.3-7.7,3.3-6.4,0-11.1-4.8-11.1-11.5s4.8-11.5,11.1-11.5,6.4,1.4,8.1,3.8v-3.3h4.5ZM190.3,15.7c-2,0-3.6.7-5,2-1.4,1.3-2,3-2,5.1s.7,3.9,2,5.2c1.4,1.3,3,2,5,2s3.5-.6,4.9-1.9,2.1-3,2.1-5.4c0-4.7-3.1-7-6.9-7Z"/>
</svg>