<svg id="Layer_2" data-name="Layer 2" xmlns="http://www.w3.org/2000/svg" viewBox="0 0 99 26.83"><defs><style>.cls-1{fill:#e92128;}.cls-2{fill:#fff;}</style></defs><title>Artboard 1</title><rect class="cls-1" width="99" height="26.83"/><path class="cls-2" d="M11.21,18.47V17.34l.9-.1c.2,0,.23-.07.23-.29V9.63c0-.21,0-.27-.23-.29l-.9-.1V8.11H16V9.24l-1.19.11c-.21,0-.23.07-.23.27v7.31h2.55c.16,0,.2,0,.23-.16l.23-1.43h1.57v3.12Z"/><path class="cls-2" d="M26.62,17.92a6.68,6.68,0,0,1-2.93.73c-2.76,0-3.71-1.72-3.71-4,0-2.59,1.59-3.82,3.55-3.82s3.15,1,3.15,3.46c0,.17,0,.67,0,1H22.27c.07,1,.52,1.69,1.69,1.69a6.09,6.09,0,0,0,2.13-.49Zm-2.06-4c0-1.2-.49-1.52-1.07-1.52s-1.12.34-1.2,1.52Z"/><path class="cls-2" d="M32.15,18.47,32,17.7h-.07a3.23,3.23,0,0,1-2.4,1,1.88,1.88,0,0,1-2.09-2.12c0-1.43.89-2.09,2.68-2.2l1.65-.12v-.79c0-.67-.07-1.13-1-1.13-.69,0-1,.1-1,1l-2-.17c0-1.93,1.76-2.2,3.08-2.2,2.18,0,3,.59,3,2.59v3.48c0,.23,0,.26.23.29l.69.11v1.13Zm-.39-3.08-1,.07c-.84.06-1.15.27-1.15.84a.72.72,0,0,0,.82.79,2.35,2.35,0,0,0,1.3-.52Z"/><path class="cls-2" d="M35.31,18.47V17.32l.64-.09c.2,0,.23-.07.23-.29V12.75c0-.16,0-.26-.19-.3l-.77-.27L35.38,11H37.9l.17,1.15h.09a2.4,2.4,0,0,1,2-1.29,6.68,6.68,0,0,1,1.25.13v2.61l-1.72-.06-.14-.76c0-.13-.07-.16-.19-.16a1.9,1.9,0,0,0-1,.5v3.79c0,.23,0,.27.23.29l1.42.12v1.14Z"/><path class="cls-2" d="M47.36,18.47V13.85c0-.69,0-1.26-.76-1.26a2.88,2.88,0,0,0-1.49.53V17c0,.23,0,.26.23.29l.69.1v1.13h-4V17.33l.64-.09c.2,0,.23-.07.23-.29V12.75c0-.16,0-.26-.19-.3L42,12.18,42.16,11h2.5l.11.74.06,0a4.19,4.19,0,0,1,2.52-.92c1.56,0,2.16.86,2.16,2.43V17c0,.23,0,.26.23.29l.72.1v1.13Z"/><path class="cls-2" d="M63,18.47V13.85c0-.56-.06-1.23-.8-1.23A2.12,2.12,0,0,0,61,13a5.56,5.56,0,0,1,0,.7V17c0,.24,0,.27.23.3l.57.09v1.13h-3V13.78c0-.53,0-1.16-.76-1.16a2,2,0,0,0-1.19.46V17c0,.24,0,.24.23.29l.7.1v1.13h-4V17.34l.64-.1c.2,0,.23-.07.23-.29V12.75c0-.16,0-.26-.19-.3l-.77-.27L54,11h2.52l.11.74h.07a3.52,3.52,0,0,1,2.29-.9,1.85,1.85,0,0,1,1.75.86,3.83,3.83,0,0,1,2.3-.86c1.53,0,2.1.76,2.1,2.42V17c0,.23,0,.27.23.3l.72.09v1.13Z"/><path class="cls-2" d="M66.63,14.8c0-2.38,1.25-3.92,3.86-3.92s3.68,1.57,3.68,3.76c0,2.43-1.23,4-3.86,4S66.63,17,66.63,14.8Zm5.28-.09c0-1.69-.52-2.29-1.45-2.29s-1.57.59-1.57,2.3.56,2.42,1.52,2.42S71.91,16.5,71.91,14.71Z"/><path class="cls-2" d="M74.89,18.47V17.32l.64-.09c.2,0,.23-.07.23-.29V12.75c0-.16,0-.26-.19-.3l-.77-.27L75,11h2.52l.17,1.15h.09a2.4,2.4,0,0,1,2-1.29A6.68,6.68,0,0,1,81,11v2.61l-1.72-.06-.14-.76c0-.13-.07-.16-.19-.16a1.9,1.9,0,0,0-1,.5v3.79c0,.23,0,.27.23.29l1.42.12v1.14Z"/><path class="cls-2" d="M88.24,17.92a6.68,6.68,0,0,1-2.93.73c-2.76,0-3.71-1.72-3.71-4,0-2.59,1.59-3.82,3.55-3.82s3.15,1,3.15,3.46c0,.17,0,.67,0,1H83.89c.07,1,.52,1.69,1.69,1.69a6.09,6.09,0,0,0,2.13-.49Zm-2.06-4c0-1.2-.49-1.52-1.07-1.52s-1.12.34-1.2,1.52Z"/></svg>