<svg id="Layer_2" data-name="Layer 2" xmlns="http://www.w3.org/2000/svg" viewBox="0 0 60.18 69.47"><defs><style>.cls-1{fill:#007db9;}.cls-2{fill:#b2d235;}.cls-3{fill:#00bcf1;}.cls-4{fill:#ec1c24;}.cls-5{fill:#fff;}</style></defs><title>Artboard 1</title><polygon class="cls-1" points="12.86 30.51 48.09 30.51 48.09 30.5 24.57 24.64 12.86 30.51"/><polygon class="cls-2" points="17.3 22.83 12.86 30.51 24.57 24.64 17.3 22.83"/><polygon class="cls-3" points="24.57 24.64 48.09 30.5 40.18 16.82 24.57 24.64"/><polygon class="cls-4" points="30.48 0 18.23 21.21 39.24 15.19 30.48 0"/><path class="cls-5" d="M10.82,39.1l-.32,2.11a6.76,6.76,0,0,0-4.08-1.45c-2.84,0-4.34,2.15-4.34,5.25s1.53,5.25,4.3,5.25a7.56,7.56,0,0,0,3-.66V46.16H6.31L6,44.29h5.43v6.49a8.4,8.4,0,0,1-4.87,1.29C2.88,52.07,0,49.74,0,45c0-4.44,2.63-7.06,6.49-7.06A6.84,6.84,0,0,1,10.82,39.1Zm4.08,8.28c0,1,.4,3,2.69,3A5.35,5.35,0,0,0,21,49l.28,1.71a5.67,5.67,0,0,1-3.88,1.31c-2.63,0-4.42-1.77-4.42-5s2-5,4.24-5c2.84,0,4.08,2.33,4.08,4.79v.48Zm4.38-1.51c-.12-.64-.38-2.19-2.11-2.19A2.33,2.33,0,0,0,15,45.86Zm7.47,6.21c-2.47,0-4.44-1.59-4.44-5s2-5,4.44-5,4.42,1.75,4.42,5S29.18,52.07,26.75,52.07Zm0-1.65c1.49,0,2.47-1.41,2.47-3.32s-1-3.32-2.47-3.32c-1.67,0-2.47,1.59-2.47,3.32S25.18,50.42,26.75,50.42ZM34.52,44a4.06,4.06,0,0,1,3.3-1.89l.28,1.75A3.79,3.79,0,0,0,34.62,46v5.91H32.67V42.3h1.61Zm13-.08-1.73.18a2.57,2.57,0,0,1,.3,1.35,3.38,3.38,0,0,1-3.66,3.32,3.34,3.34,0,0,1-.72-.06c-.1,0-.38.26-.38.48s.34.3.68.36,1.45.3,2.09.4c1.83.28,3.1,1,3.1,2.49,0,1.91-2,3-4.52,3-3.52,0-4.64-1.27-4.64-2.53,0-1.41,1.53-2.21,1.91-2.41a1.22,1.22,0,0,1-.52-1,1.69,1.69,0,0,1,.88-1.25,3.16,3.16,0,0,1-1.65-2.81,3.44,3.44,0,0,1,3.68-3.34,3.84,3.84,0,0,1,2.45.78l2.45-.76ZM41.4,51.15c-.72.32-1.53.93-1.53,1.61S40.68,54,42.63,54c1.45,0,2.69-.46,2.69-1.33s-1.05-1-1.93-1.11Zm1-7.58a1.81,1.81,0,0,0-1.83,1.89,1.75,1.75,0,0,0,1.83,1.89,1.89,1.89,0,0,0,0-3.78Zm8.75-4.16a1.21,1.21,0,0,1-1.21,1.19,1.2,1.2,0,1,1,0-2.41A1.22,1.22,0,0,1,51.1,39.42Zm-.24,2.88H48.91v9.57h1.95V42.3Zm7.61,9.57-.08-1.17a3.51,3.51,0,0,1-2.84,1.37c-1.79,0-3.22-.93-3.22-3,0-2.86,3.88-3.26,5.91-3.48v-.3c0-.7-.28-1.53-1.87-1.53a7.71,7.71,0,0,0-3.14.88L53,42.94a9,9,0,0,1,3.54-.82c2.84,0,3.68,1.29,3.68,3.38v6.37Zm-.24-4.73c-2.19.22-4,.68-4,2,0,.86.6,1.27,1.47,1.27a3.81,3.81,0,0,0,2.53-1.25ZM16.75,59.84c0,2.73-2,4.3-4.64,4.3H9.51v5.13h-2V55.55h4.66C15.18,55.55,16.75,57.54,16.75,59.84ZM9.51,62.33H11.7c2,0,2.94-1.07,2.94-2.49s-.93-2.49-2.94-2.49H9.51Zm11.55,7.14c-2.47,0-4.44-1.59-4.44-5s2-5,4.44-5,4.42,1.75,4.42,5S23.49,69.47,21.06,69.47Zm0-1.65c1.49,0,2.47-1.41,2.47-3.32s-1-3.32-2.47-3.32c-1.67,0-2.47,1.59-2.47,3.32S19.49,67.82,21.06,67.82Zm17.86-8.12-3,9.57H34.31l-2-6.62-2,6.62H28.72l-3-9.57h2l1.95,6.57,2-6.57H33.2l2,6.57,1.95-6.57Zm2.17,5.07c0,1,.4,3,2.69,3a5.35,5.35,0,0,0,3.38-1.35l.28,1.71a5.67,5.67,0,0,1-3.88,1.31c-2.63,0-4.42-1.77-4.42-5s2-5,4.24-5c2.84,0,4.08,2.33,4.08,4.79v.48Zm4.38-1.51c-.12-.64-.38-2.19-2.11-2.19a2.33,2.33,0,0,0-2.17,2.19ZM51,61.42a4.07,4.07,0,0,1,3.3-1.89l.28,1.75a3.79,3.79,0,0,0-3.48,2.09v5.91H49.18V59.71h1.61Z"/></svg>