<svg id="Layer_2" data-name="Layer 2" xmlns="http://www.w3.org/2000/svg" viewBox="0 0 102.83 17.62"><defs><style>.cls-1{fill:#fff;}</style></defs><title>Artboard 1</title><path class="cls-1" d="M1.62,17.38v-1l1.29-.16c.22,0,.29-.13.4-.38l1-2.39L1.11,5.81C1,5.59,1,5.55.74,5.5L0,5.32l.22-1H3.94v1l-1.19.14,2.39,6,2.5-6L6.42,5.32l.2-1h3.56v1l-.61.09a.52.52,0,0,0-.45.3L4.75,16.23l1.74.18v1Z"/><path class="cls-1" d="M10.67,8.92c0-2.82,1.44-4.76,4.51-4.76s4.26,2,4.26,4.66c0,3-1.37,5-4.44,5S10.67,11.77,10.67,8.92Zm7.08,0c0-2.35-.86-3.4-2.61-3.4s-2.79,1-2.79,3.42.92,3.54,2.7,3.54S17.76,11.38,17.76,8.92Z"/><path class="cls-1" d="M28.29,13.57l-.14-1.22,0,0a5.17,5.17,0,0,1-3.47,1.46c-2,0-2.59-1.2-2.59-3.27V6c0-.29,0-.36-.29-.41l-.93-.23.14-1h2.71v5.81c0,1.56.27,2.32,1.4,2.32A4.11,4.11,0,0,0,28,10.89v-5c0-.29,0-.34-.29-.4l-.9-.23.14-1h2.68V12.1c0,.27.05.36.25.38l1,.13v1Z"/><path class="cls-1" d="M32.19,13.57v-1l.9-.11c.25,0,.29-.09.29-.36V6c0-.2-.05-.32-.23-.38l-1-.34.16-1h2.35l.18,1.24.05,0a3.68,3.68,0,0,1,2.7-1.44,5.66,5.66,0,0,1,1.29.16V7L37.58,7l-.22-1.24c0-.14-.05-.18-.22-.18A3.74,3.74,0,0,0,35,6.69V12.1c0,.29,0,.34.29.36l1.65.14v1Z"/><path class="cls-1" d="M44.71,13.57A17.85,17.85,0,0,0,44.93,11V1.67c0-.2-.05-.32-.23-.38L43.63,1l.16-1h2.77V5.2a5.56,5.56,0,0,1,3.07-1c2,0,3.4,1.29,3.4,4.46,0,3.7-1.53,5.18-3.79,5.18a3.91,3.91,0,0,1-2.79-1.11l-.05,0-.09.86Zm1.85-2.3A3.89,3.89,0,0,0,49,12.44c1.69,0,2.35-1.4,2.35-3.68s-.9-3.24-2.18-3.24a4.79,4.79,0,0,0-2.64,1Z"/><path class="cls-1" d="M54.27,13.57v-1l1.19-.11c.25,0,.29-.09.29-.36V6c0-.2-.05-.32-.23-.38l-1-.34.16-1h2.73v7.78c0,.29,0,.32.29.36l1.15.13v1Zm2-11.23a1.06,1.06,0,0,1-1.17-1.15A1.05,1.05,0,0,1,56.32.05a1,1,0,0,1,1.15,1.13A1,1,0,0,1,56.32,2.34Z"/><path class="cls-1" d="M67,5.61a2.79,2.79,0,0,1,.67,1.87c0,2.12-1.64,3.31-3.74,3.31a4.53,4.53,0,0,1-1.53-.22l-.81,1.56,2.21.13c3.24.18,4.69.34,4.69,2.46,0,1.78-1.53,2.89-4.66,2.89s-4.19-.84-4.19-2.21a2.82,2.82,0,0,1,1.1-2,1,1,0,0,1-.79-1,1.84,1.84,0,0,1,.4-1c.29-.41.67-.86,1-1.29A2.78,2.78,0,0,1,60,7.57c0-2,1.46-3.42,3.9-3.42a6.25,6.25,0,0,1,1.6.18h3.2V5.48ZM62,13.66a2.34,2.34,0,0,0-.79,1.49c0,1,1,1.19,2.77,1.2,1,0,2.79-.14,2.79-1.51,0-.84-.7-.92-1.87-1Zm1.87-8.2c-1.31,0-2.25.65-2.25,2,0,1.06.61,1.92,2.19,1.92a2,2,0,0,0,2.19-2A1.87,1.87,0,0,0,63.91,5.46Z"/><path class="cls-1" d="M76.72,5.61a2.79,2.79,0,0,1,.67,1.87c0,2.12-1.64,3.31-3.74,3.31a4.53,4.53,0,0,1-1.53-.22l-.81,1.56,2.21.13c3.24.18,4.69.34,4.69,2.46,0,1.78-1.53,2.89-4.66,2.89s-4.19-.84-4.19-2.21a2.82,2.82,0,0,1,1.1-2,1,1,0,0,1-.79-1,1.84,1.84,0,0,1,.4-1c.29-.41.67-.86,1-1.29a2.78,2.78,0,0,1-1.35-2.55c0-2,1.46-3.42,3.9-3.42a6.25,6.25,0,0,1,1.6.18h3.2V5.48Zm-4.94,8.05A2.34,2.34,0,0,0,71,15.15c0,1,1,1.19,2.77,1.2,1,0,2.79-.14,2.79-1.51,0-.84-.7-.92-1.87-1Zm1.87-8.2c-1.31,0-2.25.65-2.25,2,0,1.06.61,1.92,2.19,1.92a2,2,0,0,0,2.19-2A1.87,1.87,0,0,0,73.65,5.46Z"/><path class="cls-1" d="M86.82,13a6.58,6.58,0,0,1-3.27.81c-3.25,0-4.31-2.14-4.31-4.82,0-3.29,1.83-4.82,4.1-4.82S87,5.34,87,8.45c0,.23,0,.59,0,.9H81c.05,1.82.79,3.06,2.75,3.06a5.17,5.17,0,0,0,2.59-.65ZM85.4,8.11c0-2-1-2.64-2.07-2.64S81.12,6.11,81,8.11Z"/><path class="cls-1" d="M93.83,6.9l-.22-1.11c0-.13,0-.2-.18-.23a4.67,4.67,0,0,0-1.4-.2c-1.31,0-1.91.58-1.91,1.35,0,1,1.08,1.24,2.25,1.55,1.4.36,2.93.79,2.93,2.73s-1.74,2.8-3.65,2.8a8.59,8.59,0,0,1-3.25-.61V10.79l1.2.07.22,1.24a.26.26,0,0,0,.22.25,5.07,5.07,0,0,0,1.76.29c1.2,0,2-.45,2-1.42s-1-1.33-2.17-1.6c-1.4-.32-3-.68-3-2.66s1.73-2.8,3.58-2.8a8.32,8.32,0,0,1,2.84.5V7Z"/><path class="cls-1" d="M102.83,13.23a6.79,6.79,0,0,1-2.5.56c-1.73,0-2.5-.81-2.5-2.43V5.75c0-.11,0-.18-.14-.18H96.38v-1c1.4-.18,1.8-.74,2-2.57h1.06V4.15c0,.11,0,.18.14.18h2.64V5.57H99.47v5.3c0,1.13.27,1.56,1.29,1.56a4.7,4.7,0,0,0,1.67-.36Z"/></svg>