<svg id="Layer_2" data-name="Layer 2" xmlns="http://www.w3.org/2000/svg" viewBox="0 0 154.43 61.75"><defs><style>.cls-1{fill:#fff;}</style></defs><title>Artboard 1</title><path class="cls-1" d="M7.19,3.9,6.92,2.37C6.87,2.12,6.81,2,6.72,2A3.58,3.58,0,0,0,5,1.69c-1.85,0-2.75.81-2.75,2.08C2.26,5.27,3.56,5.7,5,6.15,6.79,6.7,8.83,7.3,8.83,10s-2.19,3.79-4.76,3.79A10.4,10.4,0,0,1,.29,13.1V10.16h1.2l.34,1.58a.44.44,0,0,0,.36.4,6.27,6.27,0,0,0,2,.31c1.83,0,2.93-.7,2.93-2.27s-1.24-2-2.64-2.46C2.68,7.17.58,6.7.58,4S2.59.32,5.09.32A9.49,9.49,0,0,1,8.43,1V4Z"/><path class="cls-1" d="M18.62,13.57,16.89,6.45l-2,7.12h-2L10.41,5.79c-.07-.22-.16-.25-.38-.31l-.77-.16.22-1h3.61v1l-1.15.14,2,6.45L16,4.6H17.9l1.74,7.3,2-6.43-1.17-.14.2-1h3.4v1l-.65.11c-.31.05-.38.13-.45.36l-2.43,7.78Z"/><path class="cls-1" d="M24.67,13.57v-1l1.19-.11c.25,0,.29-.09.29-.36V6c0-.2-.05-.32-.23-.38l-1-.34.16-1h2.73v7.78c0,.29,0,.32.29.36l1.15.13v1Zm2-11.23a1.06,1.06,0,0,1-1.17-1.15A1.05,1.05,0,0,1,26.72.05a1,1,0,0,1,1.15,1.13A1,1,0,0,1,26.72,2.34Z"/><path class="cls-1" d="M36.45,13.23a6.8,6.8,0,0,1-2.5.56c-1.73,0-2.5-.81-2.5-2.43V5.75c0-.11,0-.18-.14-.18H30v-1c1.4-.18,1.8-.74,2-2.57h1.06V4.15c0,.11,0,.18.14.18h2.64V5.57H33.09v5.3c0,1.13.27,1.56,1.29,1.56a4.72,4.72,0,0,0,1.67-.36Z"/><path class="cls-1" d="M44.52,13a6.06,6.06,0,0,1-3.07.75c-3.07,0-4.39-1.89-4.39-4.73,0-3.42,2-4.91,4.71-4.91a6.6,6.6,0,0,1,2.73.56V7.1L43.29,7l-.22-1.19a.26.26,0,0,0-.22-.25,4.09,4.09,0,0,0-1.22-.16c-1.6,0-2.88.93-2.88,3.5s1.19,3.49,2.93,3.49a4.8,4.8,0,0,0,2.3-.59Z"/><path class="cls-1" d="M51.72,13.57v-1l.86-.11c.23,0,.32-.11.32-.36V7.93c0-1.33-.23-2.39-1.51-2.39A4.88,4.88,0,0,0,48.56,6.7v5.41c0,.29,0,.32.29.36l1,.13v1H45.74v-1l.9-.11c.25,0,.29-.09.29-.36V1.67c0-.2-.05-.32-.23-.38L45.61,1l.16-1h2.77V5.34a5.45,5.45,0,0,1,3.24-1.19c1.92,0,2.77,1.24,2.77,3.27v4.69c0,.29,0,.32.29.36l1,.13v1Z"/><path class="cls-1" d="M67.2,13.23a6.8,6.8,0,0,1-2.5.56c-1.73,0-2.5-.81-2.5-2.43V5.75c0-.11,0-.18-.14-.18H60.74v-1c1.4-.18,1.8-.74,2-2.57h1.06V4.15c0,.11,0,.18.14.18h2.64V5.57H63.83v5.3c0,1.13.27,1.56,1.29,1.56a4.72,4.72,0,0,0,1.67-.36Z"/><path class="cls-1" d="M67.81,8.92c0-2.82,1.44-4.76,4.51-4.76s4.26,2,4.26,4.66c0,3-1.37,5-4.44,5S67.81,11.77,67.81,8.92Zm7.08,0c0-2.35-.86-3.4-2.61-3.4s-2.79,1-2.79,3.42.92,3.54,2.7,3.54S74.89,11.38,74.89,8.92Z"/><path class="cls-1" d="M88.11,13.57,88,12.4l-.05,0a4.58,4.58,0,0,1-3.25,1.4,2.24,2.24,0,0,1-2.53-2.46c0-1.8,1.11-2.64,3.27-2.82l2.43-.2v-1c0-1.31-.25-2-1.82-2-1.1,0-1.89,0-1.91,1.38l-1.55-.16c0-2.21,2-2.46,3.47-2.46,2.55,0,3.42.72,3.42,3.2v4.76c0,.29,0,.32.29.36l.92.13v1Zm-.31-4.13-2,.18c-1.55.14-2,.59-2,1.53s.41,1.37,1.26,1.37a4.68,4.68,0,0,0,2.75-1.38Z"/><path class="cls-1" d="M97.75,13.57v-1l.86-.11c.23,0,.32-.11.32-.36V7.85c0-1.17-.23-2.3-1.56-2.3A4.53,4.53,0,0,0,94.58,6.7v5.41c0,.29,0,.32.29.36l1,.13v1H91.76v-1l.9-.11c.25,0,.29-.09.29-.36V6c0-.2-.05-.32-.23-.38l-1-.34.16-1h2.35l.14,1.06.05,0a5.76,5.76,0,0,1,3.33-1.26c2.07,0,2.84,1.33,2.84,3.29v4.67c0,.29,0,.32.29.36l1,.13v1Z"/><path class="cls-1" d="M7.58,35a6.58,6.58,0,0,1-3.27.81C1.06,35.85,0,33.71,0,31c0-3.29,1.83-4.82,4.1-4.82s3.7,1.19,3.7,4.3c0,.23,0,.59,0,.9h-6c.05,1.82.79,3.06,2.75,3.06a5.17,5.17,0,0,0,2.59-.65ZM6.17,30.17c0-2-1-2.64-2.07-2.64s-2.21.65-2.35,2.64Z"/><path class="cls-1" d="M9,35.64v-1l1.11-.11c.25,0,.29-.09.29-.36V23.74c0-.2-.05-.32-.23-.38L9.09,23l.16-1H12V34.18c0,.29,0,.32.29.36l1.08.13v1Z"/><path class="cls-1" d="M22.11,35a6.58,6.58,0,0,1-3.27.81c-3.25,0-4.31-2.14-4.31-4.82,0-3.29,1.83-4.82,4.1-4.82s3.7,1.19,3.7,4.3c0,.23,0,.59,0,.9h-6c.05,1.82.79,3.06,2.75,3.06a5.17,5.17,0,0,0,2.59-.65Zm-1.42-4.87c0-2-1-2.64-2.07-2.64s-2.21.65-2.35,2.64Z"/><path class="cls-1" d="M31.15,35.1a6.06,6.06,0,0,1-3.07.75c-3.07,0-4.39-1.89-4.39-4.73,0-3.42,2-4.91,4.71-4.91a6.59,6.59,0,0,1,2.73.56v2.39l-1.2-.05-.22-1.19a.26.26,0,0,0-.22-.25,4.09,4.09,0,0,0-1.22-.16c-1.6,0-2.88.93-2.88,3.51s1.19,3.49,2.93,3.49a4.8,4.8,0,0,0,2.3-.59Z"/><path class="cls-1" d="M38.6,35.3a6.79,6.79,0,0,1-2.5.56c-1.73,0-2.5-.81-2.5-2.43V27.82c0-.11,0-.18-.14-.18H32.15v-1c1.4-.18,1.8-.74,2-2.57h1.06v2.19c0,.11,0,.18.14.18H38v1.24H35.24v5.3c0,1.13.27,1.56,1.29,1.56a4.7,4.7,0,0,0,1.67-.36Z"/><path class="cls-1" d="M39.86,35.64v-1l.9-.11c.25,0,.29-.09.29-.36V28.07c0-.2-.05-.32-.23-.38l-1-.34.16-1H42.3l.18,1.24.05,0a3.68,3.68,0,0,1,2.7-1.44,5.66,5.66,0,0,1,1.29.16v2.71L45.25,29,45,27.8c0-.14-.05-.18-.22-.18a3.74,3.74,0,0,0-2.14,1.13v5.41c0,.29,0,.34.29.36l1.65.14v1Z"/><path class="cls-1" d="M47.35,35.64v-1l1.19-.11c.25,0,.29-.09.29-.36V28.07c0-.2-.05-.32-.23-.38l-1-.34.16-1h2.73v7.78c0,.29,0,.32.29.36l1.15.13v1Zm2-11.23a1.14,1.14,0,1,1,0-2.28,1.14,1.14,0,1,1,0,2.28Z"/><path class="cls-1" d="M60.22,35.1a6.06,6.06,0,0,1-3.07.75c-3.07,0-4.39-1.89-4.39-4.73,0-3.42,2-4.91,4.71-4.91a6.59,6.59,0,0,1,2.73.56v2.39L59,29.11l-.22-1.19a.26.26,0,0,0-.22-.25,4.09,4.09,0,0,0-1.22-.16c-1.6,0-2.88.93-2.88,3.51s1.19,3.49,2.93,3.49a4.8,4.8,0,0,0,2.3-.59Z"/><path class="cls-1" d="M71.51,35.64v-1l.86-.11c.23,0,.32-.11.32-.36V30c0-1.33-.23-2.39-1.51-2.39a4.89,4.89,0,0,0-2.84,1.17v5.41c0,.29,0,.32.29.36l1,.13v1H65.52v-1l.9-.11c.25,0,.29-.09.29-.36V23.74c0-.2-.05-.32-.23-.38L65.4,23l.16-1h2.77v5.34a5.45,5.45,0,0,1,3.24-1.19c1.92,0,2.77,1.24,2.77,3.27v4.69c0,.29,0,.32.29.36l1,.13v1Z"/><path class="cls-1" d="M84.39,35a6.58,6.58,0,0,1-3.27.81c-3.25,0-4.31-2.14-4.31-4.82,0-3.29,1.83-4.82,4.1-4.82s3.7,1.19,3.7,4.3c0,.23,0,.59,0,.9h-6c.05,1.82.79,3.06,2.75,3.06a5.17,5.17,0,0,0,2.59-.65ZM83,30.17c0-2-1-2.64-2.07-2.64s-2.21.65-2.35,2.64Z"/><path class="cls-1" d="M91.87,35.64l-.16-1.17-.05,0a4.58,4.58,0,0,1-3.25,1.4,2.24,2.24,0,0,1-2.53-2.46c0-1.8,1.11-2.64,3.27-2.82l2.43-.2v-1c0-1.31-.25-2-1.82-2-1.1,0-1.89,0-1.91,1.38l-1.55-.16c0-2.21,2-2.46,3.47-2.46,2.55,0,3.42.72,3.42,3.2v4.76c0,.29,0,.32.29.36l.92.13v1Zm-.31-4.13-2,.18c-1.55.14-2,.59-2,1.53s.41,1.37,1.26,1.37a4.68,4.68,0,0,0,2.75-1.38Z"/><path class="cls-1" d="M101.48,35.3a6.79,6.79,0,0,1-2.5.56c-1.73,0-2.5-.81-2.5-2.43V27.82c0-.11,0-.18-.14-.18H95v-1c1.4-.18,1.8-.74,2-2.57h1.06v2.19c0,.11,0,.18.14.18h2.64v1.24H98.12v5.3c0,1.13.27,1.56,1.29,1.56a4.7,4.7,0,0,0,1.67-.36Z"/><path class="cls-1" d="M106.86,39.45v-1l.74-.11c.25,0,.31-.09.31-.36V28.07c0-.2-.05-.32-.23-.38l-1-.34.16-1h2.37l.16,1,.05,0a5.28,5.28,0,0,1,3.22-1.24c2,0,3.38,1.29,3.38,4.46,0,2.7-.92,5.18-3.74,5.18a3.87,3.87,0,0,1-2.73-1V38c0,.29,0,.34.29.36l1.69.14v1Zm2.66-6.11A3.76,3.76,0,0,0,112,34.5c1.71,0,2.35-1.42,2.35-3.68,0-2.44-1-3.22-2.07-3.22a4.8,4.8,0,0,0-2.75,1.12Z"/><path class="cls-1" d="M124.88,35.64l-.14-1.22,0,0a5.17,5.17,0,0,1-3.47,1.46c-2,0-2.59-1.2-2.59-3.27V28c0-.29,0-.36-.29-.41l-.93-.23.14-1h2.71V32.2c0,1.56.27,2.32,1.4,2.32A4.11,4.11,0,0,0,124.58,33V28c0-.29,0-.34-.29-.4l-.9-.23.14-1h2.68v7.77c0,.27.05.36.25.38l1,.13v1Z"/><path class="cls-1" d="M139.84,35.64v-1l.86-.11c.23,0,.32-.11.32-.36V29.85c0-1.13-.25-2.21-1.53-2.21a4.22,4.22,0,0,0-2.37.88,10.38,10.38,0,0,1,.05,1.1v4.57c0,.29,0,.32.29.36l.88.13v1h-4v-1l.86-.11c.23,0,.32-.11.32-.36V29.83c0-1-.07-2.19-1.37-2.19a4.4,4.4,0,0,0-2.57,1.11v5.43c0,.29,0,.32.29.36l1,.13v1h-4.08v-1l.9-.11c.25,0,.29-.09.29-.36V28.07c0-.2-.05-.32-.23-.38l-1-.34.16-1h2.35l.14,1.06.05,0a4.85,4.85,0,0,1,3.18-1.26,2.38,2.38,0,0,1,2.21,1.15A5.38,5.38,0,0,1,140,26.22c2,0,2.66,1.26,2.66,3.34v4.62c0,.29,0,.32.29.36l1,.13v1Z"/><path class="cls-1" d="M145.3,39.45v-1l.74-.11c.25,0,.3-.09.3-.36V28.07c0-.2-.05-.32-.23-.38l-1-.34.16-1h2.37l.16,1,.05,0A5.28,5.28,0,0,1,151,26.22c2,0,3.38,1.29,3.38,4.46,0,2.7-.92,5.18-3.74,5.18a3.87,3.87,0,0,1-2.73-1V38c0,.29,0,.34.29.36l1.69.14v1ZM148,33.34a3.76,3.76,0,0,0,2.46,1.17c1.71,0,2.35-1.42,2.35-3.68,0-2.44-1-3.22-2.07-3.22A4.8,4.8,0,0,0,148,28.72Z"/><path class="cls-1" d="M6.11,57.71l-.16-1.17-.05,0a4.58,4.58,0,0,1-3.25,1.4A2.24,2.24,0,0,1,.11,55.46c0-1.8,1.11-2.64,3.27-2.82l2.43-.2v-1c0-1.31-.25-2-1.82-2-1.1,0-1.89,0-1.91,1.38L.54,50.75c0-2.21,2-2.46,3.47-2.46,2.55,0,3.42.72,3.42,3.2v4.76c0,.29,0,.32.29.36l.92.13v1Zm-.31-4.13-2,.18c-1.55.14-2,.59-2,1.53s.41,1.37,1.26,1.37a4.68,4.68,0,0,0,2.75-1.38Z"/><path class="cls-1" d="M15.74,57.71v-1l.86-.11c.23,0,.32-.11.32-.36V52c0-1.17-.23-2.3-1.56-2.3a4.53,4.53,0,0,0-2.79,1.15v5.41c0,.29,0,.32.29.36l1,.13v1H9.76v-1l.9-.11c.25,0,.29-.09.29-.36V50.14c0-.2-.05-.32-.23-.38l-1-.34.16-1H12.2l.14,1.06.05,0a5.76,5.76,0,0,1,3.33-1.26c2.07,0,2.84,1.33,2.84,3.29v4.67c0,.29,0,.32.29.36l1,.13v1Z"/><path class="cls-1" d="M28,57.71l-.14-1.19-.07,0a4.36,4.36,0,0,1-3.16,1.42c-2,0-3.4-1.33-3.4-4.64,0-3.54,1.6-5,3.76-5a4.76,4.76,0,0,1,2.75.86V45.79a.34.34,0,0,0-.23-.36l-1.08-.34.16-1h2.75V56.25c0,.29,0,.32.29.36l.92.13v1Zm-.31-7.1a4.19,4.19,0,0,0-2.46-1c-1.69,0-2.35,1.47-2.35,3.61,0,2.5.84,3.31,2.1,3.31a4,4,0,0,0,2.71-1.49Z"/><path class="cls-1" d="M42.92,49.74a2.79,2.79,0,0,1,.67,1.87c0,2.12-1.64,3.31-3.74,3.31a4.53,4.53,0,0,1-1.53-.22l-.81,1.56,2.21.13c3.24.18,4.69.34,4.69,2.46,0,1.78-1.53,2.89-4.66,2.89s-4.19-.84-4.19-2.21a2.82,2.82,0,0,1,1.1-2,1,1,0,0,1-.79-1,1.84,1.84,0,0,1,.4-1c.29-.41.67-.86,1-1.29a2.78,2.78,0,0,1-1.35-2.55c0-2,1.46-3.42,3.9-3.42a6.25,6.25,0,0,1,1.6.18h3.2v1.15ZM38,57.79a2.34,2.34,0,0,0-.79,1.49c0,1,1,1.19,2.77,1.2,1,0,2.79-.14,2.79-1.51,0-.84-.7-.92-1.87-1Zm1.87-8.2c-1.31,0-2.25.65-2.25,2,0,1.06.61,1.92,2.19,1.92a2,2,0,0,0,2.19-2A1.87,1.87,0,0,0,39.84,49.6Z"/><path class="cls-1" d="M53,57.11a6.58,6.58,0,0,1-3.27.81c-3.25,0-4.31-2.14-4.31-4.82,0-3.29,1.83-4.82,4.1-4.82s3.7,1.19,3.7,4.3c0,.23,0,.59,0,.9h-6c.05,1.82.79,3.06,2.75,3.06a5.17,5.17,0,0,0,2.59-.65ZM51.6,52.24c0-2-1-2.64-2.07-2.64s-2.21.65-2.35,2.64Z"/><path class="cls-1" d="M60.78,57.36a6.79,6.79,0,0,1-2.5.56c-1.73,0-2.5-.81-2.5-2.43V49.89c0-.11,0-.18-.14-.18H54.33v-1c1.4-.18,1.8-.74,2-2.57h1.06v2.19c0,.11,0,.18.14.18H60.2v1.24H57.42V55c0,1.13.27,1.56,1.29,1.56a4.7,4.7,0,0,0,1.67-.36Z"/><path class="cls-1" d="M73.4,57.71l-.14-1.22,0,0a5.17,5.17,0,0,1-3.47,1.46c-2,0-2.59-1.2-2.59-3.27V50.08c0-.29,0-.36-.29-.41l-.93-.23.14-1h2.71v5.81c0,1.56.27,2.32,1.4,2.32A4.11,4.11,0,0,0,73.09,55v-5c0-.29,0-.34-.29-.4l-.9-.23.14-1h2.68v7.77c0,.27.05.36.25.38l1,.13v1Z"/><path class="cls-1" d="M77.42,61.52v-1l.74-.11c.25,0,.31-.09.31-.36V50.14c0-.2-.05-.32-.23-.38l-1-.34.16-1h2.37l.16,1,.05,0a5.28,5.28,0,0,1,3.22-1.24c2,0,3.38,1.29,3.38,4.46,0,2.7-.92,5.18-3.74,5.18a3.87,3.87,0,0,1-2.73-1V60c0,.29,0,.34.29.36l1.69.14v1Zm2.66-6.11a3.76,3.76,0,0,0,2.46,1.17c1.71,0,2.35-1.42,2.35-3.68,0-2.44-1-3.22-2.07-3.22a4.8,4.8,0,0,0-2.75,1.12Z"/><path class="cls-1" d="M98.3,57.36a6.79,6.79,0,0,1-2.5.56c-1.73,0-2.5-.81-2.5-2.43V49.89c0-.11,0-.18-.14-.18H91.85v-1c1.4-.18,1.8-.74,2-2.57h1.06v2.19c0,.11,0,.18.14.18h2.64v1.24H94.94V55c0,1.13.27,1.56,1.29,1.56a4.7,4.7,0,0,0,1.67-.36Z"/><path class="cls-1" d="M98.91,53c0-2.82,1.44-4.76,4.51-4.76s4.26,2,4.26,4.66c0,3-1.37,5-4.44,5S98.91,55.91,98.91,53ZM106,53c0-2.35-.86-3.4-2.61-3.4s-2.79,1-2.79,3.42.92,3.54,2.7,3.54S106,55.51,106,53Z"/><path class="cls-1" d="M119.22,57.71l-.16-1.17-.05,0a4.58,4.58,0,0,1-3.25,1.4,2.24,2.24,0,0,1-2.53-2.46c0-1.8,1.11-2.64,3.27-2.82l2.43-.2v-1c0-1.31-.25-2-1.82-2-1.1,0-1.89,0-1.91,1.38l-1.55-.16c0-2.21,2-2.46,3.47-2.46,2.55,0,3.42.72,3.42,3.2v4.76c0,.29,0,.32.29.36l.92.13v1Zm-.31-4.13-2,.18c-1.55.14-2,.59-2,1.53s.41,1.37,1.26,1.37a4.68,4.68,0,0,0,2.75-1.38Z"/></svg>