<svg id="Layer_2" data-name="Layer 2" xmlns="http://www.w3.org/2000/svg" viewBox="0 0 129.29 13.98"><defs><style>.cls-1{fill:#fff;}</style></defs><title>Artboard 1</title><path class="cls-1" d="M0,13.77v-1l1.15-.11c.25,0,.29-.09.29-.36V5.95c0-.11,0-.18-.14-.18H0V4.53H1.44V3.16C1.44,1.06,2.5,0,4.73,0c1.47,0,2.7.36,2.7,2.14L5.9,2.35c0-1-.41-1.13-1.24-1.13-1.33,0-1.58.72-1.58,1.89V4.35c0,.13,0,.18.14.18H6.17V5.77H3.07v6.51c0,.29,0,.34.29.36l2.1.16v1Z"/><path class="cls-1" d="M14.7,13.77l-.14-1.22,0,0A5.17,5.17,0,0,1,11.05,14c-2,0-2.59-1.2-2.59-3.27V6.15c0-.29,0-.36-.29-.41L7.24,5.5l.14-1H10.1v5.81c0,1.56.27,2.32,1.4,2.32a4.11,4.11,0,0,0,2.89-1.56v-5c0-.29,0-.34-.29-.4l-.9-.23.14-1H16v7.77c0,.27.05.36.25.38l1,.13v1Z"/><path class="cls-1" d="M18.6,13.77v-1l.9-.11c.25,0,.29-.09.29-.36V6.2c0-.2-.05-.32-.23-.38l-1-.34.16-1H21l.18,1.24.05,0A3.68,3.68,0,0,1,24,4.35a5.66,5.66,0,0,1,1.29.16V7.23L24,7.17l-.22-1.24c0-.14-.05-.18-.22-.18a3.74,3.74,0,0,0-2.14,1.13v5.41c0,.29,0,.34.29.36l1.65.14v1Z"/><path class="cls-1" d="M32.37,13.77v-1l.86-.11c.23,0,.32-.11.32-.36V8.05c0-1.17-.23-2.3-1.56-2.3A4.53,4.53,0,0,0,29.2,6.9v5.41c0,.29,0,.32.29.36l1,.13v1H26.38v-1l.9-.11c.25,0,.29-.09.29-.36V6.2c0-.2-.05-.32-.23-.38l-1-.34.16-1h2.35L29,5.59l.05,0a5.76,5.76,0,0,1,3.33-1.26c2.07,0,2.84,1.33,2.84,3.29v4.67c0,.29,0,.32.29.36l1,.13v1Z"/><path class="cls-1" d="M43.78,13.77l-.16-1.17-.05,0A4.58,4.58,0,0,1,40.31,14a2.24,2.24,0,0,1-2.53-2.46c0-1.8,1.11-2.64,3.27-2.82l2.43-.2v-1c0-1.31-.25-2-1.82-2-1.1,0-1.89,0-1.91,1.38l-1.55-.16c0-2.21,2-2.46,3.47-2.46,2.55,0,3.42.72,3.42,3.2v4.76c0,.29,0,.32.29.36l.92.13v1Zm-.31-4.13-2,.18c-1.55.14-2,.59-2,1.53s.41,1.37,1.26,1.37a4.68,4.68,0,0,0,2.75-1.38Z"/><path class="cls-1" d="M54.81,13.23a6.06,6.06,0,0,1-3.07.75c-3.07,0-4.39-1.89-4.39-4.73,0-3.42,2-4.91,4.71-4.91a6.59,6.59,0,0,1,2.73.56V7.3l-1.2-.05-.22-1.19a.26.26,0,0,0-.22-.25,4.09,4.09,0,0,0-1.22-.16c-1.6,0-2.88.93-2.88,3.51s1.19,3.49,2.93,3.49a4.8,4.8,0,0,0,2.3-.59Z"/><path class="cls-1" d="M63.48,13.18a6.58,6.58,0,0,1-3.27.81c-3.25,0-4.31-2.14-4.31-4.82,0-3.29,1.83-4.82,4.1-4.82s3.7,1.19,3.7,4.3c0,.23,0,.59,0,.9h-6c.05,1.82.79,3.06,2.75,3.06A5.17,5.17,0,0,0,63,12ZM62.06,8.3c0-2-1-2.64-2.07-2.64s-2.21.65-2.35,2.64Z"/><path class="cls-1" d="M70.48,7.1,70.27,6c0-.13,0-.2-.18-.23a4.67,4.67,0,0,0-1.4-.2c-1.31,0-1.91.58-1.91,1.35,0,1,1.08,1.24,2.25,1.55,1.4.36,2.93.79,2.93,2.73S70.21,14,68.31,14a8.59,8.59,0,0,1-3.25-.61V11l1.2.07.22,1.24a.26.26,0,0,0,.22.25,5.07,5.07,0,0,0,1.76.29c1.2,0,2-.45,2-1.42s-1-1.33-2.17-1.6c-1.4-.32-3-.68-3-2.66s1.73-2.8,3.58-2.8a8.31,8.31,0,0,1,2.84.5V7.17Z"/><path class="cls-1" d="M84.75,13.23a6.06,6.06,0,0,1-3.07.75c-3.07,0-4.39-1.89-4.39-4.73,0-3.42,2-4.91,4.71-4.91a6.59,6.59,0,0,1,2.73.56V7.3l-1.2-.05-.22-1.19a.26.26,0,0,0-.22-.25,4.09,4.09,0,0,0-1.22-.16c-1.6,0-2.88.93-2.88,3.51s1.19,3.49,2.93,3.49a4.8,4.8,0,0,0,2.3-.59Z"/><path class="cls-1" d="M92,13.77,91.8,12.6l-.05,0A4.58,4.58,0,0,1,88.49,14,2.24,2.24,0,0,1,86,11.52c0-1.8,1.11-2.64,3.27-2.82l2.43-.2v-1c0-1.31-.25-2-1.82-2-1.1,0-1.89,0-1.91,1.38l-1.55-.16c0-2.21,2-2.46,3.47-2.46,2.55,0,3.42.72,3.42,3.2v4.76c0,.29,0,.32.29.36l.92.13v1Zm-.31-4.13-2,.18c-1.55.14-2,.59-2,1.53s.41,1.37,1.26,1.37a4.68,4.68,0,0,0,2.75-1.38Z"/><path class="cls-1" d="M101.59,13.77v-1l.86-.11c.23,0,.32-.11.32-.36V8.05c0-1.17-.23-2.3-1.56-2.3A4.53,4.53,0,0,0,98.43,6.9v5.41c0,.29,0,.32.29.36l1,.13v1H95.61v-1l.9-.11c.25,0,.29-.09.29-.36V6.2c0-.2-.05-.32-.23-.38l-1-.34.16-1h2.35l.14,1.06.05,0a5.76,5.76,0,0,1,3.33-1.26c2.07,0,2.84,1.33,2.84,3.29v4.67c0,.29,0,.32.29.36l1,.13v1Z"/><path class="cls-1" d="M111.67,13.77a17.85,17.85,0,0,0,.22-2.57V1.87c0-.2-.05-.32-.23-.38l-1.06-.34.16-1h2.77V5.39a5.56,5.56,0,0,1,3.07-1c2,0,3.4,1.29,3.4,4.46,0,3.7-1.53,5.18-3.79,5.18a3.91,3.91,0,0,1-2.79-1.11l-.05,0-.09.86Zm1.85-2.3A3.89,3.89,0,0,0,116,12.64c1.69,0,2.35-1.4,2.35-3.68s-.9-3.24-2.18-3.24a4.79,4.79,0,0,0-2.64,1Z"/><path class="cls-1" d="M129.07,13.18a6.58,6.58,0,0,1-3.27.81c-3.25,0-4.31-2.14-4.31-4.82,0-3.29,1.83-4.82,4.1-4.82s3.7,1.19,3.7,4.3c0,.23,0,.59,0,.9h-6c.05,1.82.79,3.06,2.75,3.06a5.17,5.17,0,0,0,2.59-.65ZM127.65,8.3c0-2-1-2.64-2.07-2.64s-2.21.65-2.35,2.64Z"/></svg>