<svg id="Layer_2" data-name="Layer 2" xmlns="http://www.w3.org/2000/svg" viewBox="0 0 121.45 17.38"><defs><style>.cls-1{fill:#fff;}</style></defs><title>Artboard 1</title><path class="cls-1" d="M0,7C0,3.18,2.16.32,6.25.32s5.91,2.86,5.91,6.47c0,4.24-2,7-6.17,7S0,11,0,7ZM10.46,7c0-3.45-1.64-5.27-4.24-5.27S1.71,3.54,1.71,7c0,3.61,1.74,5.41,4.39,5.41S10.46,10.68,10.46,7Z"/><path class="cls-1" d="M13.57,13.57v-1l1.11-.11c.25,0,.29-.09.29-.36V1.67c0-.2-.05-.32-.23-.38L13.66,1l.16-1h2.79V12.11c0,.29,0,.32.29.36L18,12.6v1Z"/><path class="cls-1" d="M25.92,13.57l-.14-1.19-.07,0a4.36,4.36,0,0,1-3.16,1.42c-2,0-3.4-1.33-3.4-4.64,0-3.54,1.6-5,3.76-5A4.77,4.77,0,0,1,25.65,5V1.65a.34.34,0,0,0-.23-.36L24.33,1l.16-1h2.75V12.11c0,.29,0,.32.29.36l.92.13v1Zm-.31-7.1a4.19,4.19,0,0,0-2.46-1c-1.69,0-2.35,1.47-2.35,3.61,0,2.5.84,3.31,2.1,3.31a4,4,0,0,0,2.71-1.49Z"/><path class="cls-1" d="M39.77,13.57l-.16-1.17-.05,0a4.58,4.58,0,0,1-3.25,1.4,2.24,2.24,0,0,1-2.53-2.46c0-1.8,1.11-2.64,3.27-2.82l2.43-.2v-1c0-1.31-.25-2-1.82-2-1.1,0-1.89,0-1.91,1.38L34.2,6.61c0-2.21,2-2.46,3.47-2.46,2.55,0,3.42.72,3.42,3.2v4.76c0,.29,0,.32.29.36l.92.13v1Zm-.31-4.13-2,.18c-1.55.14-2,.59-2,1.53s.41,1.37,1.26,1.37a4.68,4.68,0,0,0,2.75-1.38Z"/><path class="cls-1" d="M43.54,17.38v-1l.74-.11c.25,0,.31-.09.31-.36V6c0-.2-.05-.32-.23-.38l-1-.34.16-1h2.37l.16,1,.05,0A5.28,5.28,0,0,1,49.3,4.15c2,0,3.38,1.29,3.38,4.46,0,2.7-.92,5.18-3.74,5.18a3.87,3.87,0,0,1-2.73-1v3.11c0,.29,0,.34.29.36l1.69.14v1Zm2.66-6.11a3.76,3.76,0,0,0,2.46,1.17C50.38,12.44,51,11,51,8.75c0-2.44-1-3.22-2.07-3.22A4.8,4.8,0,0,0,46.2,6.65Z"/><path class="cls-1" d="M54.42,17.38v-1l.74-.11c.25,0,.31-.09.31-.36V6c0-.2-.05-.32-.23-.38l-1-.34.16-1h2.37l.16,1,.05,0a5.28,5.28,0,0,1,3.22-1.24c2,0,3.38,1.29,3.38,4.46,0,2.7-.92,5.18-3.74,5.18a3.87,3.87,0,0,1-2.73-1v3.11c0,.29,0,.34.29.36l1.69.14v1Zm2.66-6.11a3.76,3.76,0,0,0,2.46,1.17c1.71,0,2.35-1.42,2.35-3.69,0-2.44-1-3.22-2.07-3.22a4.8,4.8,0,0,0-2.75,1.11Z"/><path class="cls-1" d="M64.95,13.57v-1l1.11-.11c.25,0,.29-.09.29-.36V1.67c0-.2-.05-.32-.23-.38L65,1l.16-1H68V12.11c0,.29,0,.32.29.36l1.08.13v1Z"/><path class="cls-1" d="M70.21,13.57v-1l1.19-.11c.25,0,.29-.09.29-.36V6c0-.2-.05-.32-.23-.38l-1-.34.16-1h2.73v7.78c0,.29,0,.32.29.36l1.15.13v1Zm2-11.23a1.06,1.06,0,0,1-1.17-1.15A1.05,1.05,0,0,1,72.26.05a1,1,0,0,1,1.15,1.13A1,1,0,0,1,72.26,2.34Z"/><path class="cls-1" d="M81.91,13.57l-.16-1.17-.05,0a4.58,4.58,0,0,1-3.25,1.4,2.24,2.24,0,0,1-2.53-2.46c0-1.8,1.11-2.64,3.27-2.82l2.43-.2v-1c0-1.31-.25-2-1.82-2-1.1,0-1.89,0-1.91,1.38l-1.55-.16c0-2.21,2-2.46,3.47-2.46,2.55,0,3.42.72,3.42,3.2v4.76c0,.29,0,.32.29.36l.92.13v1Zm-.31-4.13-2,.18c-1.55.14-2,.59-2,1.53s.41,1.37,1.26,1.37a4.68,4.68,0,0,0,2.75-1.38Z"/><path class="cls-1" d="M91.55,13.57v-1l.86-.11c.23,0,.32-.11.32-.36V7.85c0-1.17-.23-2.3-1.56-2.3A4.53,4.53,0,0,0,88.38,6.7v5.41c0,.29,0,.32.29.36l1,.13v1H85.56v-1l.9-.11c.25,0,.29-.09.29-.36V6c0-.2-.05-.32-.23-.38l-1-.34.16-1H88l.14,1.06.05,0a5.76,5.76,0,0,1,3.33-1.26c2.07,0,2.84,1.33,2.84,3.29v4.67c0,.29,0,.32.29.36l1,.13v1Z"/><path class="cls-1" d="M104.31,13a6.06,6.06,0,0,1-3.07.75c-3.07,0-4.39-1.89-4.39-4.73,0-3.42,2-4.91,4.71-4.91a6.6,6.6,0,0,1,2.73.56V7.1L103.08,7l-.22-1.19a.26.26,0,0,0-.22-.25,4.09,4.09,0,0,0-1.22-.16c-1.6,0-2.88.93-2.88,3.5s1.19,3.49,2.93,3.49a4.8,4.8,0,0,0,2.3-.59Z"/><path class="cls-1" d="M113,13a6.57,6.57,0,0,1-3.27.81c-3.25,0-4.31-2.14-4.31-4.82,0-3.29,1.83-4.82,4.1-4.82s3.7,1.19,3.7,4.3c0,.23,0,.59,0,.9h-6c.05,1.82.79,3.06,2.75,3.06a5.17,5.17,0,0,0,2.59-.65Zm-1.42-4.87c0-2-1-2.64-2.07-2.64s-2.21.65-2.35,2.64Z"/><path class="cls-1" d="M120,6.9l-.22-1.11c0-.13,0-.2-.18-.23a4.67,4.67,0,0,0-1.4-.2c-1.31,0-1.91.58-1.91,1.35,0,1,1.08,1.24,2.25,1.55,1.4.36,2.93.79,2.93,2.73s-1.74,2.8-3.65,2.8a8.6,8.6,0,0,1-3.25-.61V10.78l1.2.07L116,12.1a.26.26,0,0,0,.22.25,5.07,5.07,0,0,0,1.76.29c1.2,0,2-.45,2-1.42s-1-1.33-2.17-1.6c-1.4-.32-3-.68-3-2.66s1.73-2.8,3.58-2.8a8.31,8.31,0,0,1,2.84.5V7Z"/></svg>