<svg id="Layer_2" data-name="Layer 2" xmlns="http://www.w3.org/2000/svg" viewBox="0 0 108.28 17.62"><defs><style>.cls-1{fill:#fff;}</style></defs><title>Artboard 1</title><path class="cls-1" d="M7.58,13a6.58,6.58,0,0,1-3.27.81C1.06,13.79,0,11.65,0,9,0,5.68,1.83,4.15,4.1,4.15s3.7,1.19,3.7,4.3c0,.23,0,.59,0,.9h-6c.05,1.82.79,3.06,2.75,3.06a5.17,5.17,0,0,0,2.59-.65ZM6.17,8.11c0-2-1-2.64-2.07-2.64s-2.21.65-2.35,2.64Z"/><path class="cls-1" d="M15.2,13.57v-1l.86-.11c.23,0,.32-.11.32-.36V7.86c0-1.17-.23-2.3-1.56-2.3A4.53,4.53,0,0,0,12,6.71v5.41c0,.29,0,.32.29.36l1,.13v1H9.22v-1l.9-.11c.25,0,.29-.09.29-.36V6c0-.2-.05-.32-.23-.38l-1-.34.16-1h2.35l.14,1.06.05,0a5.76,5.76,0,0,1,3.33-1.26C17.25,4.15,18,5.48,18,7.44v4.67c0,.29,0,.32.29.36l1,.13v1Z"/><path class="cls-1" d="M28.09,13a6.58,6.58,0,0,1-3.27.81c-3.25,0-4.31-2.14-4.31-4.82,0-3.29,1.83-4.82,4.1-4.82s3.7,1.19,3.7,4.3c0,.23,0,.59,0,.9h-6c.05,1.82.79,3.06,2.75,3.06a5.17,5.17,0,0,0,2.59-.65ZM26.67,8.11c0-2-1-2.64-2.07-2.64s-2.21.65-2.35,2.64Z"/><path class="cls-1" d="M29.72,13.57v-1l.9-.11c.25,0,.29-.09.29-.36V6c0-.2-.05-.32-.23-.38l-1-.34.16-1h2.35l.18,1.24.05,0a3.68,3.68,0,0,1,2.7-1.44,5.66,5.66,0,0,1,1.29.16V7L35.12,7,34.9,5.73c0-.14-.05-.18-.22-.18a3.74,3.74,0,0,0-2.14,1.13V12.1c0,.29,0,.34.29.36l1.65.14v1Z"/><path class="cls-1" d="M44.5,5.61a2.79,2.79,0,0,1,.67,1.87c0,2.12-1.64,3.31-3.74,3.31a4.53,4.53,0,0,1-1.53-.22l-.81,1.56,2.21.13c3.24.18,4.69.34,4.69,2.46,0,1.78-1.53,2.89-4.66,2.89s-4.19-.84-4.19-2.21a2.82,2.82,0,0,1,1.1-2,1,1,0,0,1-.79-1,1.84,1.84,0,0,1,.4-1c.29-.41.67-.86,1-1.29a2.78,2.78,0,0,1-1.35-2.55c0-2,1.46-3.42,3.9-3.42a6.25,6.25,0,0,1,1.6.18h3.2V5.48Zm-4.94,8.05a2.34,2.34,0,0,0-.79,1.49c0,1,1,1.19,2.77,1.2,1,0,2.79-.14,2.79-1.51,0-.84-.7-.92-1.87-1Zm1.87-8.2c-1.31,0-2.25.65-2.25,2,0,1.06.61,1.92,2.19,1.92a2,2,0,0,0,2.19-2A1.87,1.87,0,0,0,41.42,5.46Z"/><path class="cls-1" d="M48.11,17.38v-1l1.29-.16c.22,0,.29-.13.4-.38l1-2.39L47.61,5.81c-.09-.22-.16-.25-.38-.31l-.74-.18.22-1h3.72v1l-1.19.14,2.39,6,2.5-6-1.22-.14.2-1h3.56v1l-.61.09a.52.52,0,0,0-.45.3L51.24,16.23l1.74.18v1Z"/><path class="cls-1" d="M68.44,13.57l-.14-1.19-.07,0a4.36,4.36,0,0,1-3.16,1.42c-2,0-3.4-1.33-3.4-4.64,0-3.54,1.6-5,3.76-5A4.76,4.76,0,0,1,68.17,5V1.65a.34.34,0,0,0-.23-.36L66.85,1,67,0h2.75V12.12c0,.29,0,.32.29.36l.92.13v1Zm-.31-7.1a4.19,4.19,0,0,0-2.46-1C64,5.5,63.31,7,63.31,9.11c0,2.5.84,3.31,2.1,3.31a4,4,0,0,0,2.71-1.49Z"/><path class="cls-1" d="M72.23,13.57v-1l.9-.11c.25,0,.29-.09.29-.36V6c0-.2-.05-.32-.23-.38l-1-.34.16-1h2.35l.18,1.24.05,0a3.68,3.68,0,0,1,2.7-1.44,5.66,5.66,0,0,1,1.29.16V7L77.62,7,77.4,5.73c0-.14-.05-.18-.22-.18A3.74,3.74,0,0,0,75,6.69V12.1c0,.29,0,.34.29.36L77,12.6v1Z"/><path class="cls-1" d="M85.63,13.57l-.16-1.17-.05,0a4.58,4.58,0,0,1-3.25,1.4,2.24,2.24,0,0,1-2.53-2.46c0-1.8,1.11-2.64,3.27-2.82l2.43-.2v-1c0-1.31-.25-2-1.82-2-1.1,0-1.89,0-1.91,1.38l-1.55-.16c0-2.21,2-2.46,3.47-2.46,2.55,0,3.42.72,3.42,3.2v4.76c0,.29,0,.32.29.36l.92.13v1Zm-.31-4.13-2,.18c-1.55.14-2,.59-2,1.53s.41,1.37,1.26,1.37a4.68,4.68,0,0,0,2.75-1.38Z"/><path class="cls-1" d="M89,13.57v-1l1.19-.11c.25,0,.29-.09.29-.36V6c0-.2-.05-.32-.23-.38l-1-.34.16-1H92.1v7.78c0,.29,0,.32.29.36l1.15.13v1ZM91,2.34a1.06,1.06,0,0,1-1.17-1.15A1,1,0,0,1,91,.05a1,1,0,0,1,1.15,1.13A1,1,0,0,1,91,2.34Z"/><path class="cls-1" d="M100.6,13.57v-1l.86-.11c.23,0,.32-.11.32-.36V7.86c0-1.17-.23-2.3-1.56-2.3a4.53,4.53,0,0,0-2.79,1.15v5.41c0,.29,0,.32.29.36l1,.13v1H94.62v-1l.9-.11c.25,0,.29-.09.29-.36V6c0-.2-.05-.32-.23-.38l-1-.34.16-1h2.35l.14,1.06.05,0a5.76,5.76,0,0,1,3.33-1.26c2.07,0,2.84,1.33,2.84,3.29v4.67c0,.29,0,.32.29.36l1,.13v1Z"/><path class="cls-1" d="M107.09,13.79a1,1,0,0,1-1.19-1.13,1.19,1.19,0,0,1,2.37,0A1,1,0,0,1,107.09,13.79Z"/></svg>