<svg id="Layer_2" data-name="Layer 2" xmlns="http://www.w3.org/2000/svg" viewBox="0 0 147.4 13.98"><defs><style>.cls-1{fill:#fff;}</style></defs><title>Artboard 1</title><path class="cls-1" d="M7.46,13.23A6.06,6.06,0,0,1,4.39,14C1.31,14,0,12.1,0,9.26,0,5.84,2,4.35,4.71,4.35a6.59,6.59,0,0,1,2.73.56V7.3l-1.2-.05L6,6.06a.26.26,0,0,0-.22-.25,4.09,4.09,0,0,0-1.22-.16c-1.6,0-2.88.93-2.88,3.51s1.19,3.49,2.93,3.49A4.8,4.8,0,0,0,6.94,12Z"/><path class="cls-1" d="M14.67,13.77,14.5,12.6l-.05,0A4.58,4.58,0,0,1,11.2,14a2.24,2.24,0,0,1-2.53-2.46c0-1.8,1.11-2.64,3.27-2.82l2.43-.2v-1c0-1.31-.25-2-1.82-2-1.1,0-1.89,0-1.91,1.38L9.09,6.81c0-2.21,2-2.46,3.47-2.46,2.55,0,3.42.72,3.42,3.2v4.76c0,.29,0,.32.29.36l.92.13v1Zm-.31-4.13-2,.18c-1.55.14-2,.59-2,1.53s.41,1.37,1.26,1.37a4.68,4.68,0,0,0,2.75-1.38Z"/><path class="cls-1" d="M24.3,13.77v-1l.86-.11c.23,0,.32-.11.32-.36V8.05c0-1.17-.23-2.3-1.56-2.3A4.53,4.53,0,0,0,21.13,6.9v5.41c0,.29,0,.32.29.36l1,.13v1H18.31v-1l.9-.11c.25,0,.29-.09.29-.36V6.2c0-.2-.05-.32-.23-.38l-1-.34.16-1h2.35l.14,1.06.05,0a5.76,5.76,0,0,1,3.33-1.26c2.07,0,2.84,1.33,2.84,3.29v4.67c0,.29,0,.32.29.36l1,.13v1Z"/><path class="cls-1" d="M34.38,13.77a17.85,17.85,0,0,0,.22-2.57V1.87c0-.2-.05-.32-.23-.38L33.3,1.15l.16-1h2.77V5.39a5.56,5.56,0,0,1,3.07-1c2,0,3.4,1.29,3.4,4.46,0,3.7-1.53,5.18-3.79,5.18a3.91,3.91,0,0,1-2.79-1.11l-.05,0-.09.86Zm1.85-2.3a3.89,3.89,0,0,0,2.46,1.17C40.38,12.64,41,11.23,41,9s-.9-3.24-2.18-3.24a4.79,4.79,0,0,0-2.64,1Z"/><path class="cls-1" d="M51.78,13.18A6.58,6.58,0,0,1,48.5,14c-3.25,0-4.31-2.14-4.31-4.82,0-3.29,1.83-4.82,4.1-4.82S52,5.54,52,8.65c0,.23,0,.59,0,.9h-6c.05,1.82.79,3.06,2.75,3.06A5.17,5.17,0,0,0,51.26,12ZM50.36,8.3c0-2-1-2.64-2.07-2.64s-2.21.65-2.35,2.64Z"/><path class="cls-1" d="M57.11,13.77v-1l1.19-.11c.25,0,.29-.09.29-.36V6.2c0-.2-.05-.32-.23-.38l-1-.34.16-1h2.73v7.78c0,.29,0,.32.29.36l1.15.13v1Zm2-11.23A1.06,1.06,0,0,1,58,1.38,1.05,1.05,0,0,1,59.16.25a1,1,0,0,1,1.15,1.13A1,1,0,0,1,59.16,2.53Z"/><path class="cls-1" d="M68.72,13.77v-1l.86-.11c.23,0,.32-.11.32-.36V8.05c0-1.17-.23-2.3-1.56-2.3A4.53,4.53,0,0,0,65.56,6.9v5.41c0,.29,0,.32.29.36l1,.13v1H62.74v-1l.9-.11c.25,0,.29-.09.29-.36V6.2c0-.2-.05-.32-.23-.38l-1-.34.16-1h2.35l.14,1.06.05,0a5.76,5.76,0,0,1,3.33-1.26c2.07,0,2.84,1.33,2.84,3.29v4.67c0,.29,0,.32.29.36l1,.13v1Z"/><path class="cls-1" d="M81.61,13.18a6.58,6.58,0,0,1-3.27.81C75.08,14,74,11.85,74,9.17c0-3.29,1.83-4.82,4.1-4.82s3.7,1.19,3.7,4.3c0,.23,0,.59,0,.9h-6c.05,1.82.79,3.06,2.75,3.06A5.17,5.17,0,0,0,81.09,12ZM80.19,8.3c0-2-1-2.64-2.07-2.64s-2.21.65-2.35,2.64Z"/><path class="cls-1" d="M83.21,13.77v-1l1.15-.11c.25,0,.29-.09.29-.36V5.95c0-.11,0-.18-.14-.18H83.21V4.53h1.44V3.16C84.64,1.06,85.7,0,87.93,0c1.47,0,2.7.36,2.7,2.14l-1.53.22c0-1-.41-1.13-1.24-1.13-1.33,0-1.58.72-1.58,1.89V4.35c0,.13,0,.18.14.18h2.95V5.77H86.28v6.51c0,.29,0,.34.29.36l2.1.16v1Z"/><path class="cls-1" d="M90.5,13.77v-1l1.15-.11c.25,0,.29-.09.29-.36V5.95c0-.11,0-.18-.14-.18H90.5V4.53h1.44V3.16C91.94,1.06,93,0,95.23,0c1.47,0,2.7.36,2.7,2.14l-1.53.22c0-1-.41-1.13-1.24-1.13-1.33,0-1.58.72-1.58,1.89V4.35c0,.13,0,.18.14.18h2.95V5.77H93.58v6.51c0,.29,0,.34.29.36l2.1.16v1Z"/><path class="cls-1" d="M97.91,13.77v-1l1.19-.11c.25,0,.29-.09.29-.36V6.2c0-.2-.05-.32-.23-.38l-1-.34.16-1H101v7.78c0,.29,0,.32.29.36l1.15.13v1Zm2-11.23a1.06,1.06,0,0,1-1.17-1.15A1.05,1.05,0,0,1,100,.25a1,1,0,0,1,1.15,1.13A1,1,0,0,1,100,2.53Z"/><path class="cls-1" d="M110.78,13.23a6.06,6.06,0,0,1-3.07.75c-3.07,0-4.39-1.89-4.39-4.73,0-3.42,2-4.91,4.71-4.91a6.59,6.59,0,0,1,2.73.56V7.3l-1.2-.05-.22-1.19a.26.26,0,0,0-.22-.25,4.09,4.09,0,0,0-1.22-.16c-1.6,0-2.88.93-2.88,3.51s1.19,3.49,2.93,3.49a4.8,4.8,0,0,0,2.3-.59Z"/><path class="cls-1" d="M111.8,13.77v-1l1.19-.11c.25,0,.29-.09.29-.36V6.2c0-.2-.05-.32-.23-.38l-1-.34.16-1h2.73v7.78c0,.29,0,.32.29.36l1.15.13v1Zm2-11.23a1.06,1.06,0,0,1-1.17-1.15A1.05,1.05,0,0,1,113.85.25,1,1,0,0,1,115,1.38,1,1,0,0,1,113.85,2.53Z"/><path class="cls-1" d="M124.79,13.18a6.58,6.58,0,0,1-3.27.81c-3.25,0-4.31-2.14-4.31-4.82,0-3.29,1.83-4.82,4.1-4.82s3.7,1.19,3.7,4.3c0,.23,0,.59,0,.9h-6c.05,1.82.79,3.06,2.75,3.06a5.17,5.17,0,0,0,2.59-.65ZM123.37,8.3c0-2-1-2.64-2.07-2.64S119.1,6.31,119,8.3Z"/><path class="cls-1" d="M132.41,13.77v-1l.86-.11c.23,0,.32-.11.32-.36V8.05c0-1.17-.23-2.3-1.56-2.3a4.53,4.53,0,0,0-2.79,1.15v5.41c0,.29,0,.32.29.36l1,.13v1h-4.12v-1l.9-.11c.25,0,.29-.09.29-.36V6.2c0-.2-.05-.32-.23-.38l-1-.34.16-1h2.35L129,5.59l.05,0a5.76,5.76,0,0,1,3.33-1.26c2.07,0,2.84,1.33,2.84,3.29v4.67c0,.29,0,.32.29.36l1,.13v1Z"/><path class="cls-1" d="M143.81,13.43a6.79,6.79,0,0,1-2.5.56c-1.73,0-2.5-.81-2.5-2.43V5.95c0-.11,0-.18-.14-.18h-1.31v-1c1.4-.18,1.8-.74,2-2.57h1.06V4.35c0,.11,0,.18.14.18h2.64V5.77h-2.79v5.3c0,1.13.27,1.56,1.29,1.56a4.7,4.7,0,0,0,1.67-.36Z"/><path class="cls-1" d="M146.21,14A1,1,0,0,1,145,12.85a1.19,1.19,0,0,1,2.37,0A1,1,0,0,1,146.21,14Z"/></svg>