<svg id="Layer_2" data-name="Layer 2" xmlns="http://www.w3.org/2000/svg" viewBox="0 0 137.07 20.89"><defs><style>.cls-1{fill:#fff;}</style></defs><title>Artboard 1</title><path class="cls-1" d="M4.33,10.41v1.28H2.53V10.51A7.31,7.31,0,0,1,0,10V7.66H1.58l.19,1c.05.2.09.26.28.32a3.64,3.64,0,0,0,1.07.13c1,0,1.47-.36,1.47-1,0-1.88-4.5-.7-4.5-4A2.7,2.7,0,0,1,2.53,1.39V.25H4.34V1.31a8.49,8.49,0,0,1,2.08.42V4.22l-1.6-.16-.17-1c-.05-.22-.1-.26-.29-.32a3.62,3.62,0,0,0-.83-.07c-.84,0-1.44.29-1.44,1,0,1.77,4.5.74,4.5,4A2.61,2.61,0,0,1,4.33,10.41Z"/><path class="cls-1" d="M12.06,7.6,11.71,11a5.8,5.8,0,0,1,3.16-.85c2.92,0,4.82,1.7,4.82,5.09,0,3.07-2.12,5.63-6.14,5.63A8.45,8.45,0,0,1,7.27,18.6l2-2.27a5.38,5.38,0,0,0,4,1.7,2.49,2.49,0,0,0,2.69-2.65A2.14,2.14,0,0,0,13.6,13,3.24,3.24,0,0,0,11.21,14L8.74,13l.55-8.55H15.8c.22,0,.27-.12.32-.3l.32-1.37,2.22-.15v5Z"/><path class="cls-1" d="M21.48,11.59c0-4.51,1.79-7.5,6.73-7.5s6.38,3,6.38,7.3c0,4.67-1.69,7.73-6.68,7.73S21.48,16.08,21.48,11.59Zm9.12-.05c0-3.41-.62-4.73-2.46-4.73s-2.65,1.34-2.65,4.83.63,4.82,2.57,4.82S30.6,15,30.6,11.54Z"/><path class="cls-1" d="M36.48,11.59c0-4.51,1.8-7.5,6.74-7.5s6.38,3,6.38,7.3c0,4.67-1.7,7.73-6.68,7.73S36.48,16.08,36.48,11.59Zm9.13-.05c0-3.41-.62-4.73-2.47-4.73S40.5,8.15,40.5,11.64s.62,4.82,2.57,4.82S45.61,15,45.61,11.54Z"/><path class="cls-1" d="M56.23,18.82v-2l1.12-.14c.35-.06.4-.13.4-.5V8.85c0-.27-.08-.45-.33-.52l-1.34-.48.27-2h4.39l.3,2h.15A4.18,4.18,0,0,1,64.7,5.58a11.11,11.11,0,0,1,2.17.23v4.54l-3-.1-.25-1.32c-.05-.23-.12-.28-.32-.28a3.36,3.36,0,0,0-1.8.87v6.61c0,.4,0,.47.4.5l2.47.2v2Z"/><path class="cls-1" d="M79.49,17.85a11.63,11.63,0,0,1-5.11,1.27c-4.82,0-6.46-3-6.46-6.88,0-4.51,2.77-6.66,6.18-6.66s5.49,1.73,5.49,6c0,.3,0,1.17,0,1.67H71.91c.12,1.77.9,2.94,2.94,2.94a10.45,10.45,0,0,0,3.71-.85ZM75.9,10.92c0-2.09-.85-2.64-1.87-2.64s-2,.6-2.1,2.64Z"/><path class="cls-1" d="M81.63,18.82A24.78,24.78,0,0,0,82,15.18V3c0-.28-.07-.45-.32-.53L80.31,2l.27-2h5.14V6.91l.1,0a5.66,5.66,0,0,1,3.76-1.35c2.7,0,4.82,1.75,4.82,6.39,0,5.13-2.17,7.15-5.24,7.15a4.8,4.8,0,0,1-3.67-1.57l-.12,0-.17,1.24Zm4.11-3.59a3.58,3.58,0,0,0,2.3,1c1.64,0,2.42-1.55,2.42-4,0-1.95-.63-3.64-2.3-3.64a4.69,4.69,0,0,0-2.42.87Z"/><path class="cls-1" d="M103.92,18.82l-.25-1.34-.13,0a5.58,5.58,0,0,1-4.19,1.67c-3.14,0-3.64-2.14-3.64-3.69,0-2.49,1.55-3.64,4.67-3.84l2.86-.2V10c0-1.17-.12-2-1.67-2-1.19,0-1.82.18-1.82,1.67l-3.51-.3c0-3.36,3.06-3.84,5.36-3.84,3.79,0,5.31,1,5.31,4.52v6.06c0,.4,0,.44.4.5l1.19.19v2Zm-.68-5.36-1.69.13c-1.47.1-2,.47-2,1.47A1.25,1.25,0,0,0,101,16.43a4,4,0,0,0,2.27-.9Z"/><path class="cls-1" d="M118.82,18.13a10,10,0,0,1-4.06,1c-3,0-4.09-1.19-4.09-4V8.58c0-.15,0-.25-.2-.25h-1.74V6.11c2.19-.25,3.06-1.35,3.34-4.07h2.37V5.58c0,.18,0,.25.2.25h3.51v2.5h-3.71v6c0,1.47.35,2,1.69,2a5.81,5.81,0,0,0,2-.4Z"/><path class="cls-1" d="M130.84,17.85a11.63,11.63,0,0,1-5.11,1.27c-4.81,0-6.46-3-6.46-6.88,0-4.51,2.77-6.66,6.18-6.66s5.49,1.73,5.49,6c0,.3,0,1.17-.05,1.67h-7.63c.12,1.77.9,2.94,2.94,2.94a10.54,10.54,0,0,0,3.72-.85Zm-3.59-6.93c0-2.09-.85-2.64-1.87-2.64s-1.95.6-2.09,2.64Z"/><path class="cls-1" d="M135,19.12c-1.44,0-2.14-.64-2.14-1.94s.7-1.95,2.14-1.95,2.12.68,2.12,1.95S136.37,19.12,135,19.12Z"/></svg>