<?xml version="1.0" encoding="utf-8"?>
<!-- Generator: Adobe Illustrator 19.1.0, SVG Export Plug-In . SVG Version: 6.00 Build 0)  -->
<svg version="1.1" id="Layer_2" xmlns="http://www.w3.org/2000/svg" xmlns:xlink="http://www.w3.org/1999/xlink" x="0px" y="0px"
	 viewBox="0 0 157.369 48.671" enable-background="new 0 0 157.369 48.671" xml:space="preserve">
<g>
	<path fill="#FFFFFF" d="M3.028,22.355v-0.089c0-8.815,6.589-16.118,15.762-16.118c5.031,0,8.237,1.647,11.131,4.052
		c0.356,0.312,0.712,0.802,0.712,1.425c0,0.936-0.846,1.736-1.781,1.736c-0.49,0-0.891-0.223-1.158-0.4
		c-2.405-2.137-5.121-3.562-8.95-3.562c-6.901,0-12.066,5.609-12.066,12.778v0.089c0,7.213,5.209,12.868,12.066,12.868
		c3.874,0,6.59-1.336,9.261-3.785c0.267-0.267,0.668-0.489,1.113-0.489c0.89,0,1.692,0.801,1.692,1.691
		c0,0.534-0.267,0.979-0.579,1.247c-3.072,2.805-6.456,4.586-11.576,4.586C9.662,38.385,3.028,31.306,3.028,22.355z"/>
	<path fill="#FFFFFF" d="M37.271,8.241c0-0.979,0.801-1.781,1.736-1.781c0.979,0,1.781,0.802,1.781,1.781v26.359h16.163
		c0.891,0,1.603,0.757,1.603,1.647c0,0.89-0.712,1.603-1.603,1.603H39.008c-0.935,0-1.736-0.802-1.736-1.781V8.241z"/>
	<path fill="#FFFFFF" d="M64.835,36.069V8.464c0-0.979,0.801-1.781,1.736-1.781h19.368c0.891,0,1.604,0.713,1.604,1.604
		s-0.713,1.603-1.604,1.603H68.352V20.53h15.584c0.89,0,1.603,0.757,1.603,1.603c0,0.891-0.713,1.604-1.603,1.604H68.352v10.908
		h17.81c0.891,0,1.604,0.713,1.604,1.604c0,0.89-0.713,1.603-1.604,1.603H66.571C65.636,37.851,64.835,37.049,64.835,36.069z"/>
	<path fill="#FFFFFF" d="M92.756,35.535l12.646-27.65c0.445-0.979,1.113-1.558,2.227-1.558h0.178c1.068,0,1.781,0.578,2.182,1.558
		l12.646,27.606c0.133,0.312,0.223,0.623,0.223,0.89c0,0.936-0.757,1.692-1.692,1.692c-0.846,0-1.425-0.579-1.736-1.291l-3.25-7.169
		H99.079l-3.251,7.258c-0.312,0.757-0.891,1.202-1.691,1.202c-0.891,0-1.604-0.713-1.604-1.603
		C92.533,36.203,92.578,35.892,92.756,35.535z M114.796,26.407l-7.168-15.939l-7.169,15.939H114.796z"/>
	<path fill="#FFFFFF" d="M129.582,8.464c0-0.979,0.801-1.781,1.736-1.781h11.665c3.83,0,6.902,1.158,8.861,3.117
		c1.514,1.514,2.404,3.695,2.404,6.145v0.089c0,5.12-3.474,8.104-8.326,9.039l7.747,9.974c0.356,0.4,0.579,0.801,0.579,1.291
		c0,0.935-0.891,1.736-1.781,1.736c-0.713,0-1.247-0.4-1.647-0.936l-8.771-11.398H133.1v10.553c0,0.979-0.802,1.781-1.781,1.781
		c-0.936,0-1.736-0.802-1.736-1.781V8.464z M142.672,22.578c4.676,0,8.015-2.404,8.015-6.411v-0.089c0-3.829-2.938-6.145-7.97-6.145
		H133.1v12.645H142.672z"/>
</g>
</svg>
