<?xml version="1.0" encoding="utf-8"?>
<!-- Generator: Adobe Illustrator 19.1.0, SVG Export Plug-In . SVG Version: 6.00 Build 0)  -->
<svg version="1.1" id="Layer_2" xmlns="http://www.w3.org/2000/svg" xmlns:xlink="http://www.w3.org/1999/xlink" x="0px" y="0px"
	 viewBox="0 0 115.867 26.438" enable-background="new 0 0 115.867 26.438" xml:space="preserve">
<g>
	<path fill="#FFFFFF" d="M0,22.478v-0.026c0-2.528,1.934-4.983,4.656-5.424c1.354-0.219,2.257-0.043,3.082,0.416
		c0.155,0.091,0.323,0.283,0.323,0.593c0,0.426-0.349,0.844-0.787,0.915c-0.207,0.033-0.361-0.032-0.49-0.101
		c-0.58-0.332-1.212-0.513-2.192-0.354c-1.664,0.269-2.928,1.932-2.928,3.661v0.026c0,1.858,1.225,3.026,3.069,2.728
		c0.851-0.138,1.625-0.534,2.18-1.037v-1.69l-1.78,0.288c-0.387,0.063-0.71-0.182-0.71-0.569c0-0.387,0.322-0.749,0.71-0.812
		l2.515-0.407c0.451-0.073,0.799,0.219,0.799,0.671v2.412c0,0.452-0.181,0.804-0.555,1.096c-0.774,0.641-1.857,1.281-3.211,1.5
		C1.857,26.821,0,25.11,0,22.478z"/>
	<path fill="#FFFFFF" d="M10.604,16.942c0-0.438,0.349-0.843,0.8-0.916c0.438-0.071,0.787,0.221,0.787,0.659v7.586
		c0,0.438-0.348,0.843-0.787,0.915c-0.451,0.073-0.8-0.219-0.8-0.658V16.942z"/>
	<path fill="#FFFFFF" d="M17.221,23.662l-3.16-6.919c-0.051-0.108-0.09-0.217-0.09-0.36c0-0.426,0.348-0.83,0.8-0.903
		c0.412-0.067,0.683,0.121,0.812,0.436l2.605,6.093l2.644-6.995c0.103-0.288,0.387-0.579,0.761-0.639
		c0.438-0.071,0.787,0.208,0.787,0.634c0,0.116-0.039,0.251-0.078,0.348l-3.173,7.996c-0.167,0.427-0.464,0.72-0.916,0.794
		l-0.09,0.015C17.685,24.231,17.388,24.035,17.221,23.662z"/>
	<path fill="#FFFFFF" d="M24.059,22.271V14.84c0-0.451,0.348-0.856,0.799-0.929l5.249-0.85c0.387-0.062,0.709,0.208,0.709,0.594
		c0,0.4-0.322,0.762-0.709,0.824l-4.462,0.723v2.348l3.882-0.629c0.387-0.062,0.709,0.208,0.709,0.608
		c0,0.387-0.322,0.749-0.709,0.811l-3.882,0.629v2.425l4.527-0.733c0.387-0.063,0.71,0.207,0.71,0.594c0,0.4-0.322,0.762-0.71,0.825
		l-5.313,0.86C24.407,23.014,24.059,22.722,24.059,22.271z"/>
	<path fill="#FFFFFF" d="M39.112,17.123l-3.108-3.766c-0.103-0.139-0.18-0.306-0.18-0.526c0-0.426,0.349-0.817,0.8-0.891
		c0.348-0.056,0.58,0.1,0.774,0.352l2.514,3.218l2.554-4.052c0.193-0.315,0.426-0.546,0.761-0.6C43.69,10.783,44,11.081,44,11.506
		c0,0.219-0.103,0.429-0.22,0.604l-3.082,4.717v2.825c0,0.438-0.348,0.844-0.799,0.916c-0.439,0.071-0.787-0.221-0.787-0.66V17.123z
		"/>
	<path fill="#FFFFFF" d="M44.595,15.255v-0.026c0-2.541,1.96-4.987,4.733-5.437c2.773-0.449,4.707,1.34,4.707,3.882v0.026
		c0,2.542-1.96,4.987-4.734,5.437C46.53,19.585,44.595,17.796,44.595,15.255z M52.372,13.995v-0.026c0-1.754-1.277-3.005-3.07-2.714
		c-1.792,0.29-3.043,1.925-3.043,3.679v0.026c0,1.754,1.277,2.992,3.069,2.702C51.121,17.371,52.372,15.749,52.372,13.995z"/>
	<path fill="#FFFFFF" d="M55.818,14.094V9.618c0-0.438,0.348-0.843,0.8-0.916c0.438-0.071,0.787,0.221,0.787,0.659v4.412
		c0,1.677,0.864,2.427,2.283,2.198c1.405-0.228,2.27-1.206,2.27-2.87V8.623c0-0.438,0.348-0.843,0.799-0.916
		c0.438-0.071,0.787,0.221,0.787,0.659v4.399c0,2.696-1.522,4.297-3.882,4.679C57.314,17.825,55.818,16.713,55.818,14.094z"/>
	<path fill="#FFFFFF" d="M65.726,8.09c0-0.451,0.348-0.856,0.799-0.929l3.224-0.522c1.135-0.183,2.025,0.007,2.605,0.481
		c0.477,0.413,0.748,1.04,0.748,1.827v0.026c0,1.445-0.838,2.458-2.051,3.029l1.728,1.9c0.155,0.168,0.258,0.319,0.258,0.564
		c0,0.439-0.374,0.796-0.76,0.859c-0.361,0.058-0.594-0.072-0.774-0.288l-2.193-2.445l-1.999,0.324v2.425
		c0,0.438-0.349,0.843-0.787,0.915c-0.451,0.073-0.799-0.219-0.799-0.658V8.09z M69.633,11.134c1.135-0.183,1.857-0.894,1.857-1.81
		V9.298c0-0.968-0.696-1.383-1.87-1.193l-2.308,0.374v3.031L69.633,11.134z"/>
	<path fill="#FFFFFF" d="M78.923,5.953c0-0.451,0.348-0.856,0.799-0.929l2.76-0.447c2.115-0.343,3.43,0.644,3.43,2.463v0.026
		c0,2.026-1.625,3.346-3.611,3.668l-1.793,0.291v2.18c0,0.438-0.348,0.844-0.787,0.914c-0.451,0.073-0.799-0.219-0.799-0.657V5.953z
		 M82.353,9.293c1.199-0.194,1.948-0.986,1.948-1.928V7.339c0-1.058-0.761-1.489-1.948-1.297l-1.844,0.299v3.251L82.353,9.293z"/>
	<path fill="#FFFFFF" d="M87.14,8.363V8.337c0-2.541,1.96-4.988,4.733-5.437c2.773-0.449,4.707,1.34,4.707,3.882v0.026
		c0,2.542-1.96,4.987-4.734,5.436C89.074,12.693,87.14,10.904,87.14,8.363z M94.917,7.103V7.077c0-1.754-1.277-3.005-3.07-2.715
		c-1.792,0.291-3.043,1.925-3.043,3.679v0.026c0,1.754,1.277,2.992,3.069,2.702C93.666,10.479,94.917,8.857,94.917,7.103z"/>
	<path fill="#FFFFFF" d="M98.105,6.587V6.561c0-2.541,1.96-4.987,4.733-5.436c2.773-0.449,4.707,1.34,4.707,3.881v0.026
		c0,2.542-1.96,4.988-4.733,5.437C100.04,10.917,98.105,9.128,98.105,6.587z M105.882,5.327V5.301c0-1.754-1.276-3.005-3.069-2.715
		c-1.792,0.29-3.044,1.925-3.044,3.679v0.026c0,1.754,1.277,2.992,3.069,2.702C104.631,8.703,105.882,7.081,105.882,5.327z"/>
	<path fill="#FFFFFF" d="M109.47,0.927c0-0.438,0.349-0.843,0.8-0.916c0.438-0.071,0.786,0.221,0.786,0.659v6.864l4.089-0.662
		c0.4-0.065,0.722,0.205,0.722,0.605s-0.322,0.774-0.722,0.839l-4.875,0.789c-0.451,0.073-0.8-0.218-0.8-0.67V0.927z"/>
</g>
</svg>
