<?xml version="1.0" encoding="utf-8"?>
<!-- Generator: Adobe Illustrator 19.1.0, SVG Export Plug-In . SVG Version: 6.00 Build 0)  -->
<svg version="1.1" id="Layer_2" xmlns="http://www.w3.org/2000/svg" xmlns:xlink="http://www.w3.org/1999/xlink" x="0px" y="0px"
	 viewBox="0 0 115.377 27.493" enable-background="new 0 0 115.377 27.493" xml:space="preserve">
<g>
	<path fill="#FFFFFF" d="M0,19.381c0-0.451,0.348-0.856,0.799-0.929l3.25-0.527c1.032-0.167,1.844-0.016,2.36,0.417
		c0.4,0.335,0.606,0.792,0.606,1.398v0.026c0,1.083-0.619,1.765-1.29,2.222c1.058,0.189,1.792,0.677,1.792,1.903v0.026
		c0,1.613-1.328,2.692-3.34,3.018l-3.379,0.547C0.348,27.555,0,27.264,0,26.812V19.381z M3.727,21.783
		c1.019-0.165,1.702-0.676,1.702-1.502v-0.026c0-0.71-0.567-1.056-1.586-0.891l-2.283,0.37v2.399L3.727,21.783z M4.191,25.527
		c1.083-0.176,1.741-0.708,1.741-1.521V23.98c0-0.761-0.606-1.115-1.857-0.912L1.56,23.476v2.477L4.191,25.527z"/>
	<path fill="#FFFFFF" d="M8.914,21.679v-0.026c0-2.541,1.96-4.987,4.733-5.437c2.773-0.449,4.707,1.34,4.707,3.882v0.026
		c0,2.542-1.96,4.987-4.733,5.436C10.848,26.009,8.914,24.22,8.914,21.679z M16.691,20.419v-0.027c0-1.754-1.277-3.005-3.069-2.715
		c-1.793,0.29-3.044,1.925-3.044,3.679v0.026c0,1.754,1.277,2.992,3.069,2.702C15.439,23.795,16.691,22.173,16.691,20.419z"/>
	<path fill="#FFFFFF" d="M19.879,19.902v-0.026c0-2.541,1.96-4.987,4.733-5.436s4.707,1.34,4.707,3.881v0.026
		c0,2.542-1.96,4.988-4.733,5.437S19.879,22.443,19.879,19.902z M27.656,18.643v-0.026c0-1.754-1.276-3.005-3.069-2.715
		c-1.792,0.29-3.044,1.925-3.044,3.679v0.026c0,1.754,1.277,2.992,3.069,2.702C26.405,22.019,27.656,20.397,27.656,18.643z"/>
	<path fill="#FFFFFF" d="M30.948,21.593c-0.181-0.1-0.31-0.298-0.31-0.556c0-0.413,0.335-0.79,0.748-0.856
		c0.22-0.036,0.361,0.006,0.465,0.067c0.748,0.472,1.548,0.678,2.528,0.519c0.98-0.159,1.599-0.724,1.599-1.394v-0.026
		c0-0.645-0.361-0.934-2.038-1.05c-1.922-0.153-3.005-0.545-3.005-2.209V16.06c0-1.548,1.29-2.828,3.083-3.119
		c1.135-0.183,2.05-0.035,2.863,0.375c0.18,0.074,0.348,0.266,0.348,0.576c0,0.413-0.335,0.79-0.748,0.857
		c-0.155,0.025-0.284,0.007-0.413-0.05c-0.696-0.339-1.367-0.462-2.076-0.347c-0.928,0.15-1.47,0.715-1.47,1.309v0.026
		c0,0.697,0.412,0.939,2.154,1.07c1.909,0.155,2.889,0.68,2.889,2.177v0.026c0,1.69-1.328,2.911-3.224,3.219
		C33.114,22.376,31.953,22.177,30.948,21.593z"/>
	<path fill="#FFFFFF" d="M41.46,13.336l-2.192,0.355c-0.413,0.067-0.735-0.216-0.735-0.616c0-0.4,0.322-0.788,0.735-0.855
		l5.997-0.971c0.4-0.065,0.722,0.218,0.722,0.618c0,0.4-0.322,0.788-0.722,0.852l-2.205,0.357v6.837c0,0.438-0.361,0.845-0.8,0.916
		c-0.438,0.071-0.799-0.219-0.799-0.657V13.336z"/>
	<path fill="#FFFFFF" d="M50.917,11.353c-0.039-0.084-0.065-0.196-0.065-0.299c0-0.438,0.374-0.834,0.813-0.905
		c0.387-0.063,0.684,0.134,0.787,0.453l2.076,5.869l2.038-6.509c0.129-0.395,0.4-0.697,0.799-0.761l0.116-0.019
		c0.4-0.065,0.683,0.147,0.799,0.502l2.038,5.849l2.076-6.555c0.116-0.341,0.387-0.63,0.774-0.693
		c0.426-0.069,0.787,0.208,0.787,0.633c0,0.103-0.039,0.239-0.077,0.335l-2.67,7.915c-0.142,0.423-0.438,0.728-0.826,0.791
		l-0.155,0.025c-0.387,0.062-0.671-0.137-0.812-0.526l-2.012-5.57l-2.012,6.221c-0.142,0.436-0.439,0.728-0.826,0.791l-0.155,0.025
		c-0.387,0.062-0.671-0.136-0.826-0.524L50.917,11.353z"/>
	<path fill="#FFFFFF" d="M65.739,8.655c0-0.438,0.348-0.843,0.799-0.916c0.438-0.071,0.787,0.221,0.787,0.659v7.586
		c0,0.438-0.349,0.843-0.787,0.915c-0.451,0.073-0.799-0.219-0.799-0.657V8.655z"/>
	<path fill="#FFFFFF" d="M71.956,8.397l-2.192,0.355c-0.413,0.067-0.735-0.216-0.735-0.616c0-0.4,0.322-0.788,0.735-0.855
		l5.997-0.971c0.4-0.065,0.722,0.218,0.722,0.618c0,0.4-0.322,0.788-0.722,0.852l-2.205,0.357v6.837
		c0,0.438-0.361,0.846-0.799,0.917c-0.439,0.071-0.8-0.219-0.8-0.658V8.397z"/>
	<path fill="#FFFFFF" d="M78.097,6.653c0-0.438,0.348-0.843,0.799-0.916c0.438-0.071,0.787,0.221,0.787,0.659v3.032l4.307-0.698
		V5.699c0-0.438,0.348-0.843,0.787-0.914c0.451-0.073,0.799,0.218,0.799,0.657v7.586c0,0.438-0.349,0.844-0.799,0.917
		c-0.439,0.071-0.787-0.221-0.787-0.66v-3.083l-4.307,0.698v3.083c0,0.438-0.348,0.844-0.787,0.915
		c-0.451,0.073-0.799-0.219-0.799-0.658V6.653z"/>
	<path fill="#FFFFFF" d="M87.502,8.949V8.923c0-2.541,1.96-4.987,4.733-5.437c2.773-0.449,4.707,1.34,4.707,3.882v0.026
		c0,2.542-1.96,4.987-4.733,5.437C89.436,13.279,87.502,11.49,87.502,8.949z M95.278,7.689V7.663c0-1.754-1.276-3.005-3.069-2.714
		c-1.792,0.29-3.044,1.925-3.044,3.679v0.026c0,1.754,1.277,2.992,3.069,2.702C94.028,11.065,95.278,9.443,95.278,7.689z"/>
	<path fill="#FFFFFF" d="M98.725,7.788V3.312c0-0.438,0.348-0.843,0.799-0.916c0.438-0.071,0.787,0.221,0.787,0.659v4.412
		c0,1.677,0.864,2.427,2.283,2.198c1.405-0.228,2.27-1.206,2.27-2.87V2.317c0-0.438,0.348-0.843,0.799-0.916
		c0.438-0.071,0.787,0.221,0.787,0.659V6.46c0,2.696-1.522,4.297-3.882,4.679C100.221,11.519,98.725,10.407,98.725,7.788z"/>
	<path fill="#FFFFFF" d="M110.85,2.096l-2.192,0.355c-0.413,0.067-0.735-0.216-0.735-0.616c0-0.4,0.322-0.788,0.735-0.855
		l5.997-0.971c0.4-0.065,0.722,0.218,0.722,0.618c0,0.4-0.322,0.788-0.722,0.852l-2.206,0.357v6.837
		c0,0.438-0.361,0.846-0.799,0.917c-0.438,0.071-0.799-0.219-0.799-0.658V2.096z"/>
</g>
</svg>
