<?xml version="1.0" encoding="utf-8"?>
<!-- Generator: Adobe Illustrator 19.1.0, SVG Export Plug-In . SVG Version: 6.00 Build 0)  -->
<svg version="1.1" id="Layer_2" xmlns="http://www.w3.org/2000/svg" xmlns:xlink="http://www.w3.org/1999/xlink" x="0px" y="0px"
	 viewBox="0 0 124.176 27.665" enable-background="new 0 0 124.176 27.665" xml:space="preserve">
<g>
	<path fill="#FFFFFF" d="M0,23.715v-0.026c0-2.541,1.96-4.987,4.733-5.436c2.773-0.45,4.707,1.34,4.707,3.881v0.026
		c0,2.542-1.96,4.987-4.733,5.437C1.934,28.045,0,26.256,0,23.715z M7.777,22.455v-0.026c0-1.754-1.277-3.005-3.069-2.715
		s-3.044,1.925-3.044,3.679v0.026c0,1.754,1.277,2.992,3.069,2.702C6.526,25.831,7.777,24.209,7.777,22.455z"/>
	<path fill="#FFFFFF" d="M13.596,25.486l-3.16-6.919c-0.051-0.107-0.09-0.217-0.09-0.36c0-0.426,0.348-0.83,0.8-0.903
		c0.412-0.067,0.683,0.122,0.812,0.436l2.605,6.093l2.644-6.995c0.103-0.288,0.387-0.578,0.761-0.639
		c0.438-0.071,0.787,0.208,0.787,0.633c0,0.116-0.039,0.251-0.078,0.348l-3.173,7.996c-0.167,0.427-0.464,0.72-0.916,0.793
		l-0.09,0.015C14.06,26.056,13.763,25.858,13.596,25.486z"/>
	<path fill="#FFFFFF" d="M20.434,24.094v-7.431c0-0.451,0.348-0.856,0.799-0.929l5.249-0.85c0.387-0.063,0.709,0.207,0.709,0.594
		c0,0.4-0.322,0.762-0.709,0.825l-4.462,0.723v2.347l3.882-0.628c0.387-0.063,0.709,0.207,0.709,0.607
		c0,0.387-0.322,0.749-0.709,0.812l-3.882,0.628v2.425l4.527-0.733c0.387-0.063,0.71,0.207,0.71,0.594c0,0.4-0.322,0.762-0.71,0.825
		l-5.313,0.86C20.782,24.838,20.434,24.546,20.434,24.094z"/>
	<path fill="#FFFFFF" d="M29.077,15.263c0-0.451,0.348-0.856,0.8-0.929l3.224-0.522c1.135-0.183,2.025,0.007,2.605,0.481
		c0.477,0.413,0.748,1.04,0.748,1.827v0.026c0,1.445-0.838,2.458-2.051,3.029l1.728,1.9c0.154,0.168,0.258,0.319,0.258,0.564
		c0,0.439-0.374,0.796-0.761,0.859c-0.361,0.058-0.594-0.072-0.774-0.288l-2.193-2.445l-1.999,0.324v2.425
		c0,0.438-0.348,0.844-0.786,0.915c-0.452,0.073-0.8-0.219-0.8-0.658V15.263z M32.984,18.307c1.135-0.184,1.858-0.894,1.858-1.81
		v-0.026c0-0.967-0.697-1.383-1.87-1.193l-2.309,0.374v3.031L32.984,18.307z"/>
	<path fill="#FFFFFF" d="M38.172,21.014c-0.181-0.1-0.31-0.298-0.31-0.556c0-0.413,0.335-0.79,0.748-0.856
		c0.22-0.036,0.361,0.006,0.465,0.067c0.748,0.472,1.548,0.678,2.528,0.519c0.98-0.159,1.599-0.724,1.599-1.394v-0.026
		c0-0.645-0.361-0.934-2.038-1.05c-1.922-0.153-3.005-0.545-3.005-2.209v-0.026c0-1.548,1.29-2.828,3.083-3.119
		c1.135-0.183,2.05-0.035,2.863,0.375c0.18,0.074,0.348,0.266,0.348,0.576c0,0.413-0.335,0.79-0.748,0.857
		c-0.155,0.025-0.284,0.007-0.413-0.05c-0.696-0.339-1.367-0.462-2.076-0.347c-0.928,0.15-1.47,0.715-1.47,1.309v0.026
		c0,0.697,0.412,0.939,2.154,1.07c1.909,0.155,2.889,0.68,2.889,2.177v0.026c0,1.69-1.328,2.911-3.224,3.219
		C40.338,21.799,39.178,21.6,38.172,21.014z"/>
	<path fill="#FFFFFF" d="M48.684,12.759l-2.192,0.355c-0.413,0.067-0.735-0.216-0.735-0.616c0-0.4,0.322-0.788,0.735-0.855
		l5.997-0.971c0.4-0.065,0.722,0.218,0.722,0.618c0,0.4-0.322,0.788-0.722,0.852l-2.205,0.357v6.837c0,0.438-0.361,0.845-0.8,0.916
		c-0.438,0.071-0.799-0.219-0.799-0.657V12.759z"/>
	<path fill="#FFFFFF" d="M53.277,18.542l3.353-8.025c0.181-0.429,0.503-0.727,0.954-0.8l0.078-0.012
		c0.451-0.073,0.76,0.122,0.941,0.493l3.353,6.939c0.065,0.106,0.09,0.217,0.09,0.321c0,0.426-0.323,0.814-0.748,0.883
		c-0.374,0.061-0.632-0.117-0.774-0.43l-0.735-1.57l-4.385,0.71l-0.76,1.865c-0.129,0.343-0.4,0.568-0.735,0.622
		c-0.413,0.067-0.736-0.204-0.736-0.616C53.174,18.803,53.213,18.681,53.277,18.542z M59.184,15.031l-1.587-3.394l-1.586,3.907
		L59.184,15.031z"/>
	<path fill="#FFFFFF" d="M63.766,9.645c0-0.451,0.348-0.856,0.8-0.929l3.25-0.526c1.032-0.167,1.844-0.016,2.36,0.417
		c0.4,0.335,0.606,0.792,0.606,1.398v0.026c0,1.083-0.619,1.764-1.289,2.221c1.057,0.19,1.792,0.677,1.792,1.903v0.026
		c0,1.613-1.328,2.692-3.34,3.018l-3.379,0.547c-0.452,0.073-0.8-0.218-0.8-0.67V9.645z M67.493,12.046
		c1.019-0.165,1.703-0.676,1.703-1.501v-0.026c0-0.71-0.568-1.056-1.587-0.891l-2.283,0.37v2.399L67.493,12.046z M67.957,15.79
		c1.084-0.175,1.741-0.707,1.741-1.52v-0.026c0-0.761-0.606-1.115-1.857-0.912l-2.515,0.408v2.477L67.957,15.79z"/>
	<path fill="#FFFFFF" d="M73.169,8.044c0-0.438,0.348-0.843,0.8-0.916c0.438-0.071,0.787,0.221,0.787,0.659v7.586
		c0,0.438-0.349,0.844-0.787,0.915c-0.452,0.073-0.8-0.219-0.8-0.657V8.044z"/>
	<path fill="#FFFFFF" d="M77.169,7.396c0-0.438,0.348-0.843,0.799-0.916c0.438-0.071,0.787,0.221,0.787,0.659v6.863l4.088-0.662
		c0.4-0.065,0.722,0.205,0.722,0.605c0,0.4-0.322,0.775-0.722,0.839l-4.875,0.79c-0.451,0.073-0.799-0.219-0.799-0.671V7.396z"/>
	<path fill="#FFFFFF" d="M85.244,6.088c0-0.438,0.348-0.843,0.799-0.916c0.438-0.071,0.787,0.221,0.787,0.659v7.586
		c0,0.438-0.349,0.844-0.787,0.915c-0.451,0.073-0.799-0.219-0.799-0.658V6.088z"/>
	<path fill="#FFFFFF" d="M88.869,13.112v-0.039c0-0.271,0.103-0.533,0.297-0.783l5.081-6.976L89.72,6.047
		c-0.375,0.061-0.697-0.197-0.697-0.584c0-0.387,0.322-0.761,0.697-0.822l5.932-0.961c0.387-0.063,0.71,0.207,0.71,0.581V4.3
		c0,0.271-0.103,0.52-0.284,0.781l-5.094,6.978l4.694-0.76c0.387-0.062,0.71,0.208,0.71,0.595s-0.322,0.749-0.71,0.811l-6.1,0.988
		C89.204,13.754,88.869,13.486,88.869,13.112z"/>
	<path fill="#FFFFFF" d="M98.389,3.959c0-0.438,0.349-0.843,0.8-0.916c0.438-0.071,0.787,0.221,0.787,0.659v7.586
		c0,0.438-0.349,0.843-0.787,0.915c-0.451,0.073-0.8-0.219-0.8-0.658V3.959z"/>
	<path fill="#FFFFFF" d="M102.388,3.337c0-0.439,0.348-0.856,0.799-0.93l0.167-0.027c0.387-0.062,0.606,0.095,0.826,0.331
		l4.513,5.112V2.277c0-0.426,0.349-0.83,0.774-0.899c0.438-0.071,0.787,0.221,0.787,0.647v7.586c0,0.438-0.335,0.841-0.774,0.912
		l-0.064,0.011c-0.374,0.061-0.606-0.095-0.826-0.344l-4.643-5.259v5.727c0,0.426-0.348,0.831-0.774,0.899
		c-0.438,0.071-0.786-0.221-0.786-0.647V3.337z"/>
	<path fill="#FFFFFF" d="M112.179,5.544V5.518c0-2.528,1.934-4.983,4.656-5.424c1.354-0.219,2.257-0.043,3.082,0.416
		c0.155,0.091,0.322,0.283,0.322,0.593c0,0.426-0.348,0.843-0.786,0.915c-0.206,0.033-0.361-0.032-0.49-0.101
		c-0.58-0.332-1.212-0.513-2.192-0.354c-1.664,0.269-2.928,1.931-2.928,3.661v0.026c0,1.858,1.225,3.026,3.069,2.727
		c0.851-0.138,1.625-0.533,2.18-1.036V5.25l-1.78,0.288c-0.387,0.063-0.709-0.182-0.709-0.569s0.322-0.749,0.709-0.812l2.515-0.407
		c0.451-0.073,0.799,0.219,0.799,0.671v2.412c0,0.452-0.181,0.804-0.555,1.096c-0.774,0.641-1.857,1.281-3.212,1.5
		C114.036,9.886,112.179,8.175,112.179,5.544z"/>
	<path fill="#FFFFFF" d="M123.273,6.391c0.516-0.083,0.903,0.241,0.903,0.744v0.129c0,0.503-0.387,0.953-0.903,1.037
		c-0.528,0.086-0.916-0.239-0.916-0.742V7.429C122.357,6.926,122.745,6.477,123.273,6.391z"/>
</g>
</svg>
