<?xml version="1.0" encoding="utf-8"?>
<!-- Generator: Adobe Illustrator 19.1.0, SVG Export Plug-In . SVG Version: 6.00 Build 0)  -->
<svg version="1.1" id="Layer_2" xmlns="http://www.w3.org/2000/svg" xmlns:xlink="http://www.w3.org/1999/xlink" x="0px" y="0px"
	 viewBox="0 0 137.496 52.151" enable-background="new 0 0 137.496 52.151" xml:space="preserve">
<g>
	<path fill="#FFFFFF" d="M5.6,12.114v-0.049c0-4.73,3.621-8.738,8.715-8.738c2.534,0,4.224,0.604,5.769,1.714
		c0.29,0.218,0.604,0.628,0.604,1.207c0,0.797-0.651,1.473-1.472,1.473c-0.387,0-0.677-0.169-0.918-0.338
		c-1.086-0.797-2.269-1.328-4.104-1.328c-3.114,0-5.479,2.729-5.479,5.963v0.048c0,3.477,2.293,6.035,5.745,6.035
		c1.593,0,3.042-0.507,4.079-1.279v-3.162h-3.331c-0.724,0-1.327-0.556-1.327-1.279c0-0.725,0.604-1.304,1.327-1.304h4.707
		c0.846,0,1.497,0.651,1.497,1.497v4.514c0,0.845-0.338,1.448-1.038,1.883c-1.448,0.966-3.476,1.835-6.011,1.835
		C9.076,20.805,5.6,17.038,5.6,12.114z"/>
	<path fill="#FFFFFF" d="M24.521,12.114v-0.049c0-4.755,3.669-8.738,8.859-8.738c5.189,0,8.811,3.935,8.811,8.69v0.048
		c0,4.756-3.669,8.739-8.858,8.739C28.143,20.805,24.521,16.869,24.521,12.114z M39.078,12.114v-0.049
		c0-3.282-2.391-6.011-5.745-6.011c-3.355,0-5.697,2.68-5.697,5.963v0.048c0,3.283,2.39,5.987,5.745,5.987
		S39.078,15.397,39.078,12.114z"/>
	<path fill="#FFFFFF" d="M53.024,5.113c0-0.845,0.651-1.496,1.497-1.496h9.849c0.748,0,1.352,0.604,1.352,1.352
		S65.118,6.32,64.37,6.32h-8.377v4.611h7.29c0.749,0,1.353,0.604,1.353,1.352s-0.604,1.352-1.353,1.352h-7.29v5.528
		c0,0.82-0.651,1.473-1.472,1.473c-0.846,0-1.497-0.652-1.497-1.473V5.113z"/>
	<path fill="#FFFFFF" d="M68.857,5.113c0-0.845,0.651-1.496,1.496-1.496h6.035c2.124,0,3.79,0.628,4.876,1.689
		c0.894,0.917,1.4,2.173,1.4,3.646V9c0,2.704-1.569,4.346-3.838,5.045l3.234,4.08c0.289,0.362,0.482,0.676,0.482,1.135
		c0,0.82-0.7,1.376-1.424,1.376c-0.676,0-1.11-0.314-1.448-0.772l-4.104-5.238h-3.742v4.538c0,0.82-0.651,1.473-1.473,1.473
		c-0.845,0-1.496-0.652-1.496-1.473V5.113z M76.171,11.993c2.125,0,3.477-1.11,3.477-2.824V9.121c0-1.811-1.304-2.801-3.5-2.801
		h-4.321v5.673H76.171z"/>
	<path fill="#FFFFFF" d="M85.558,12.114v-0.049c0-4.755,3.67-8.738,8.859-8.738c5.19,0,8.812,3.935,8.812,8.69v0.048
		c0,4.756-3.67,8.739-8.859,8.739C89.179,20.805,85.558,16.869,85.558,12.114z M100.114,12.114v-0.049
		c0-3.282-2.39-6.011-5.745-6.011s-5.697,2.68-5.697,5.963v0.048c0,3.283,2.39,5.987,5.745,5.987S100.114,15.397,100.114,12.114z"/>
	<path fill="#FFFFFF" d="M106.821,5.018c0-0.821,0.651-1.497,1.496-1.497h0.314c0.651,0,1.086,0.338,1.376,0.797l5.117,8.014
		l5.142-8.038c0.313-0.507,0.748-0.772,1.352-0.772h0.314c0.845,0,1.496,0.676,1.496,1.497v14.146c0,0.82-0.651,1.473-1.496,1.473
		c-0.797,0-1.473-0.677-1.473-1.473V9.024l-4.128,6.204c-0.313,0.482-0.7,0.772-1.256,0.772c-0.53,0-0.917-0.29-1.23-0.772
		l-4.104-6.156v10.114c0,0.821-0.652,1.449-1.473,1.449c-0.821,0-1.448-0.628-1.448-1.449V5.018z"/>
	<path fill="#FFFFFF" d="M1.425,37.114v-0.049c0-4.73,3.62-8.738,8.714-8.738c2.535,0,4.225,0.604,5.77,1.714
		c0.29,0.218,0.604,0.628,0.604,1.207c0,0.797-0.652,1.473-1.473,1.473c-0.386,0-0.676-0.169-0.917-0.338
		c-1.087-0.797-2.27-1.328-4.104-1.328c-3.114,0-5.48,2.729-5.48,5.963v0.048c0,3.477,2.294,6.035,5.745,6.035
		c1.594,0,3.042-0.507,4.08-1.279v-3.162h-3.331c-0.725,0-1.328-0.556-1.328-1.279c0-0.725,0.604-1.304,1.328-1.304h4.707
		c0.845,0,1.496,0.651,1.496,1.497v4.514c0,0.845-0.338,1.448-1.037,1.883c-1.449,0.966-3.477,1.835-6.011,1.835
		C4.9,45.805,1.425,42.038,1.425,37.114z"/>
	<path fill="#FFFFFF" d="M21.095,30.113c0-0.845,0.651-1.496,1.497-1.496h6.034c2.124,0,3.79,0.628,4.876,1.689
		c0.894,0.917,1.4,2.173,1.4,3.646V34c0,2.704-1.569,4.346-3.838,5.045l3.234,4.08c0.29,0.362,0.482,0.676,0.482,1.135
		c0,0.82-0.699,1.376-1.424,1.376c-0.676,0-1.11-0.314-1.448-0.772l-4.104-5.238h-3.742v4.538c0,0.82-0.651,1.473-1.472,1.473
		c-0.846,0-1.497-0.652-1.497-1.473V30.113z M28.409,36.993c2.124,0,3.476-1.11,3.476-2.824v-0.048c0-1.811-1.304-2.801-3.5-2.801
		h-4.321v5.673H28.409z"/>
	<path fill="#FFFFFF" d="M38.544,44.018V30.113c0-0.845,0.651-1.496,1.497-1.496h9.824c0.725,0,1.328,0.604,1.328,1.327
		c0,0.749-0.604,1.328-1.328,1.328h-8.353v4.394h7.267c0.724,0,1.327,0.604,1.327,1.352c0,0.725-0.604,1.304-1.327,1.304h-7.267
		v4.538h8.474c0.724,0,1.327,0.604,1.327,1.327c0,0.749-0.604,1.328-1.327,1.328h-9.945C39.195,45.515,38.544,44.863,38.544,44.018z
		"/>
	<path fill="#FFFFFF" d="M54.714,44.018V30.113c0-0.845,0.652-1.496,1.497-1.496h9.825c0.724,0,1.327,0.604,1.327,1.327
		c0,0.749-0.604,1.328-1.327,1.328h-8.353v4.394h7.266c0.725,0,1.328,0.604,1.328,1.352c0,0.725-0.604,1.304-1.328,1.304h-7.266
		v4.538h8.473c0.725,0,1.328,0.604,1.328,1.327c0,0.749-0.604,1.328-1.328,1.328h-9.945C55.366,45.515,54.714,44.863,54.714,44.018z
		"/>
	<path fill="#FFFFFF" d="M70.885,30.018c0-0.821,0.651-1.497,1.496-1.497h0.314c0.724,0,1.134,0.362,1.545,0.869l8.448,10.935
		v-10.38c0-0.796,0.652-1.448,1.448-1.448c0.821,0,1.473,0.652,1.473,1.448v14.194c0,0.82-0.628,1.473-1.448,1.473H84.04
		c-0.699,0-1.134-0.362-1.545-0.894l-8.689-11.249v10.718c0,0.797-0.652,1.449-1.448,1.449c-0.821,0-1.473-0.652-1.473-1.449V30.018
		z"/>
	<path fill="#FFFFFF" d="M101.343,31.369h-4.104c-0.772,0-1.376-0.628-1.376-1.376s0.604-1.376,1.376-1.376h11.225
		c0.749,0,1.353,0.628,1.353,1.376s-0.604,1.376-1.353,1.376h-4.128v12.794c0,0.82-0.676,1.473-1.496,1.473
		c-0.821,0-1.497-0.652-1.497-1.473V31.369z"/>
	<path fill="#FFFFFF" d="M111.165,37.114v-0.049c0-4.755,3.67-8.738,8.859-8.738c5.19,0,8.812,3.935,8.812,8.69v0.048
		c0,4.756-3.67,8.739-8.859,8.739C114.786,45.805,111.165,41.869,111.165,37.114z M125.722,37.114v-0.049
		c0-3.282-2.39-6.011-5.745-6.011s-5.697,2.68-5.697,5.963v0.048c0,3.283,2.39,5.987,5.745,5.987S125.722,40.397,125.722,37.114z"/>
</g>
</svg>
