<?xml version="1.0" encoding="utf-8"?>
<!-- Generator: Adobe Illustrator 19.1.0, SVG Export Plug-In . SVG Version: 6.00 Build 0)  -->
<svg version="1.1" id="Layer_2" xmlns="http://www.w3.org/2000/svg" xmlns:xlink="http://www.w3.org/1999/xlink" x="0px" y="0px"
	 viewBox="0 0 237.112 73.334" enable-background="new 0 0 237.112 73.334" xml:space="preserve">
<g>
	<path fill="#FFFFFF" d="M4.562,33.682v-0.134c0-13.285,9.93-24.288,23.751-24.288c7.581,0,12.412,2.482,16.773,6.105
		c0.536,0.47,1.073,1.208,1.073,2.147c0,1.409-1.275,2.617-2.684,2.617c-0.738,0-1.342-0.335-1.745-0.604
		c-3.623-3.221-7.716-5.368-13.485-5.368c-10.399,0-18.183,8.454-18.183,19.256v0.134c0,10.869,7.851,19.39,18.183,19.39
		c5.837,0,9.93-2.013,13.955-5.703c0.402-0.402,1.007-0.737,1.678-0.737c1.342,0,2.55,1.207,2.55,2.549
		c0,0.806-0.403,1.477-0.873,1.879c-4.629,4.227-9.729,6.91-17.443,6.91C14.56,57.835,4.562,47.168,4.562,33.682z"/>
	<path fill="#FFFFFF" d="M56.158,12.414c0-1.476,1.207-2.684,2.616-2.684c1.477,0,2.684,1.208,2.684,2.684v39.719h24.354
		c1.342,0,2.416,1.141,2.416,2.482s-1.074,2.415-2.416,2.415H58.774c-1.409,0-2.616-1.208-2.616-2.684V12.414z"/>
	<path fill="#FFFFFF" d="M97.689,54.347V12.749c0-1.476,1.207-2.684,2.616-2.684h29.186c1.342,0,2.415,1.073,2.415,2.415
		s-1.073,2.416-2.415,2.416h-26.502v16.035h23.482c1.342,0,2.416,1.141,2.416,2.416c0,1.342-1.074,2.415-2.416,2.415h-23.482v16.438
		h26.837c1.342,0,2.416,1.074,2.416,2.416s-1.074,2.415-2.416,2.415h-29.521C98.896,57.03,97.689,55.822,97.689,54.347z"/>
	<path fill="#FFFFFF" d="M139.757,53.541l19.055-41.664c0.671-1.476,1.678-2.349,3.354-2.349h0.269c1.61,0,2.684,0.873,3.287,2.349
		l19.055,41.598c0.201,0.47,0.336,0.939,0.336,1.342c0,1.409-1.141,2.55-2.55,2.55c-1.274,0-2.147-0.873-2.616-1.946l-4.898-10.802
		h-25.764l-4.897,10.937c-0.47,1.14-1.342,1.812-2.55,1.812c-1.342,0-2.415-1.074-2.415-2.416
		C139.422,54.548,139.489,54.078,139.757,53.541z M172.968,39.787l-10.802-24.019l-10.802,24.019H172.968z"/>
	<path fill="#FFFFFF" d="M195.245,12.749c0-1.476,1.207-2.684,2.616-2.684h17.578c5.771,0,10.399,1.744,13.352,4.696
		c2.281,2.281,3.623,5.569,3.623,9.259v0.134c0,7.716-5.233,12.211-12.546,13.62l11.674,15.029c0.537,0.604,0.872,1.207,0.872,1.945
		c0,1.409-1.342,2.617-2.684,2.617c-1.073,0-1.879-0.604-2.482-1.409L214.03,38.781h-13.485v15.9c0,1.477-1.208,2.685-2.684,2.685
		c-1.409,0-2.616-1.208-2.616-2.685V12.749z M214.97,34.018c7.045,0,12.077-3.623,12.077-9.661v-0.135
		c0-5.77-4.429-9.259-12.01-9.259h-14.492v19.055H214.97z"/>
</g>
</svg>
