<?xml version="1.0" encoding="utf-8"?>
<!-- Generator: Adobe Illustrator 19.1.0, SVG Export Plug-In . SVG Version: 6.00 Build 0)  -->
<svg version="1.1" id="Layer_2" xmlns="http://www.w3.org/2000/svg" xmlns:xlink="http://www.w3.org/1999/xlink" x="0px" y="0px"
	 viewBox="0 0 82.649 22.257" enable-background="new 0 0 82.649 22.257" xml:space="preserve">
<g>
	<path fill="#FFFFFF" d="M0.103,21.253l3.353-8.025c0.181-0.429,0.503-0.727,0.954-0.799l0.078-0.012
		c0.451-0.073,0.761,0.122,0.942,0.492l3.353,6.939c0.065,0.105,0.09,0.217,0.09,0.321c0,0.426-0.322,0.814-0.748,0.882
		c-0.374,0.061-0.632-0.117-0.774-0.43l-0.735-1.57l-4.385,0.71L1.47,21.625c-0.129,0.344-0.4,0.568-0.735,0.622
		C0.322,22.314,0,22.043,0,21.63C0,21.514,0.039,21.392,0.103,21.253z M6.01,17.741l-1.587-3.394l-1.586,3.907L6.01,17.741z"/>
	<path fill="#FFFFFF" d="M14.061,15.535v-0.026c0-2.567,1.922-4.981,4.656-5.424c1.393-0.226,2.309,0.039,3.095,0.518
		c0.167,0.101,0.31,0.298,0.31,0.582c0,0.438-0.348,0.831-0.787,0.902c-0.219,0.035-0.374-0.017-0.477-0.078
		c-0.619-0.403-1.289-0.604-2.153-0.464c-1.715,0.278-2.979,1.902-2.979,3.669v0.026c0,1.767,1.251,2.997,2.979,2.717
		c0.954-0.155,1.599-0.569,2.257-1.23c0.117-0.122,0.284-0.227,0.477-0.258c0.4-0.065,0.748,0.214,0.748,0.614
		c0,0.245-0.116,0.458-0.257,0.61c-0.851,0.886-1.819,1.507-3.276,1.743C16.021,19.86,14.061,18.128,14.061,15.535z"/>
	<path fill="#FFFFFF" d="M23.981,10.109c0-0.438,0.349-0.843,0.8-0.916c0.438-0.071,0.786,0.221,0.786,0.659v3.032l4.308-0.698
		V9.154c0-0.438,0.348-0.843,0.787-0.914c0.451-0.073,0.799,0.219,0.799,0.657v7.586c0,0.438-0.349,0.844-0.799,0.916
		c-0.439,0.071-0.787-0.221-0.787-0.66v-3.083l-4.308,0.698v3.083c0,0.438-0.348,0.844-0.786,0.915
		c-0.451,0.073-0.8-0.219-0.8-0.658V10.109z"/>
	<path fill="#FFFFFF" d="M33.785,8.521c0-0.438,0.348-0.843,0.799-0.916c0.438-0.071,0.787,0.221,0.787,0.659v6.863l4.088-0.662
		c0.4-0.065,0.722,0.205,0.722,0.605c0,0.4-0.322,0.775-0.722,0.839l-4.875,0.79c-0.451,0.073-0.799-0.219-0.799-0.671V8.521z"/>
	<path fill="#FFFFFF" d="M40.855,11.194v-0.026c0-2.541,1.96-4.987,4.733-5.436c2.773-0.449,4.707,1.34,4.707,3.881v0.026
		c0,2.542-1.96,4.987-4.733,5.437C42.789,15.525,40.855,13.735,40.855,11.194z M48.632,9.935V9.909c0-1.754-1.277-3.005-3.07-2.715
		c-1.792,0.29-3.043,1.925-3.043,3.679v0.026c0,1.754,1.276,2.992,3.069,2.702C47.38,13.311,48.632,11.689,48.632,9.935z"/>
	<path fill="#FFFFFF" d="M52.219,5.612c0-0.451,0.348-0.856,0.799-0.929l3.224-0.522c1.135-0.184,2.025,0.007,2.605,0.481
		c0.477,0.413,0.748,1.04,0.748,1.826v0.026c0,1.445-0.838,2.458-2.051,3.029l1.728,1.9c0.155,0.168,0.258,0.319,0.258,0.564
		c0,0.439-0.374,0.796-0.76,0.859c-0.361,0.059-0.594-0.072-0.774-0.288l-2.193-2.444l-1.999,0.324v2.425
		c0,0.438-0.348,0.843-0.787,0.914c-0.451,0.073-0.799-0.219-0.799-0.657V5.612z M56.127,8.656c1.135-0.184,1.857-0.894,1.857-1.81
		V6.82c0-0.967-0.696-1.383-1.87-1.193l-2.309,0.374v3.031L56.127,8.656z"/>
	<path fill="#FFFFFF" d="M61.636,4.009c0-0.438,0.348-0.843,0.799-0.916c0.438-0.071,0.787,0.221,0.787,0.659v7.586
		c0,0.438-0.349,0.844-0.787,0.915c-0.451,0.073-0.799-0.219-0.799-0.658V4.009z"/>
	<path fill="#FFFFFF" d="M65.635,3.388c0-0.439,0.349-0.856,0.8-0.93l0.167-0.027c0.387-0.062,0.606,0.095,0.825,0.331l4.514,5.112
		V2.327c0-0.426,0.349-0.83,0.774-0.899c0.438-0.071,0.787,0.221,0.787,0.646V9.66c0,0.438-0.335,0.842-0.774,0.913l-0.064,0.01
		c-0.374,0.061-0.606-0.095-0.826-0.344L67.196,4.98v5.727c0,0.426-0.348,0.831-0.774,0.899c-0.438,0.071-0.787-0.221-0.787-0.647
		V3.388z"/>
	<path fill="#FFFFFF" d="M75.827,9.219V1.788c0-0.451,0.348-0.856,0.799-0.929l5.249-0.85c0.387-0.063,0.709,0.207,0.709,0.594
		c0,0.4-0.322,0.762-0.709,0.824L77.413,2.15v2.348l3.882-0.629c0.387-0.062,0.709,0.208,0.709,0.608
		c0,0.387-0.322,0.749-0.709,0.811l-3.882,0.629v2.425l4.527-0.733c0.387-0.063,0.71,0.207,0.71,0.594c0,0.4-0.322,0.762-0.71,0.825
		l-5.313,0.86C76.175,9.962,75.827,9.671,75.827,9.219z"/>
</g>
</svg>
