<?xml version="1.0" encoding="utf-8"?>
<!-- Generator: Adobe Illustrator 19.1.0, SVG Export Plug-In . SVG Version: 6.00 Build 0)  -->
<svg version="1.1" id="Layer_2" xmlns="http://www.w3.org/2000/svg" xmlns:xlink="http://www.w3.org/1999/xlink" x="0px" y="0px"
	 viewBox="0 0 258.369 27.094" enable-background="new 0 0 258.369 27.094" xml:space="preserve">
<g>
	<path fill="#FFFFFF" d="M1.421,12.092v-0.048c0-4.72,3.611-8.716,8.692-8.716c2.528,0,4.213,0.602,5.754,1.709
		c0.289,0.216,0.603,0.626,0.603,1.204c0,0.795-0.65,1.469-1.469,1.469c-0.386,0-0.675-0.168-0.915-0.337
		c-1.084-0.794-2.264-1.324-4.094-1.324c-3.105,0-5.466,2.721-5.466,5.947v0.048c0,3.467,2.288,6.02,5.731,6.02
		c1.589,0,3.033-0.506,4.068-1.276v-3.154h-3.322c-0.723,0-1.324-0.554-1.324-1.276c0-0.723,0.602-1.3,1.324-1.3h4.695
		c0.843,0,1.493,0.65,1.493,1.493v4.503c0,0.843-0.338,1.444-1.036,1.878c-1.444,0.963-3.467,1.83-5.995,1.83
		C4.888,20.76,1.421,17.004,1.421,12.092z"/>
	<path fill="#FFFFFF" d="M20.303,12.092v-0.048c0-4.744,3.659-8.716,8.837-8.716c5.177,0,8.788,3.924,8.788,8.668v0.048
		c0,4.743-3.66,8.716-8.837,8.716S20.303,16.835,20.303,12.092z M34.821,12.092v-0.048c0-3.275-2.384-5.996-5.73-5.996
		s-5.683,2.673-5.683,5.947v0.048c0,3.274,2.384,5.971,5.731,5.971C32.486,18.015,34.821,15.367,34.821,12.092z"/>
	<path fill="#FFFFFF" d="M48.744,5.109c0-0.843,0.65-1.493,1.493-1.493h9.823c0.747,0,1.349,0.602,1.349,1.349
		c0,0.746-0.602,1.348-1.349,1.348h-8.354v4.599h7.271c0.746,0,1.349,0.602,1.349,1.348c0,0.747-0.603,1.349-1.349,1.349h-7.271
		v5.514c0,0.819-0.65,1.469-1.469,1.469c-0.843,0-1.493-0.65-1.493-1.469V5.109z"/>
	<path fill="#FFFFFF" d="M64.543,5.109c0-0.843,0.65-1.493,1.493-1.493h6.02c2.119,0,3.78,0.626,4.863,1.686
		c0.892,0.915,1.396,2.167,1.396,3.636v0.048c0,2.697-1.564,4.334-3.828,5.032l3.227,4.069c0.289,0.361,0.481,0.674,0.481,1.132
		c0,0.818-0.698,1.373-1.421,1.373c-0.674,0-1.107-0.313-1.444-0.771l-4.094-5.225h-3.731v4.526c0,0.819-0.65,1.469-1.469,1.469
		c-0.843,0-1.493-0.65-1.493-1.469V5.109z M71.839,11.972c2.119,0,3.467-1.108,3.467-2.817V9.106c0-1.806-1.3-2.793-3.491-2.793
		h-4.31v5.659H71.839z"/>
	<path fill="#FFFFFF" d="M81.21,12.092v-0.048c0-4.744,3.659-8.716,8.837-8.716c5.177,0,8.788,3.924,8.788,8.668v0.048
		c0,4.743-3.66,8.716-8.837,8.716S81.21,16.835,81.21,12.092z M95.729,12.092v-0.048c0-3.275-2.384-5.996-5.73-5.996
		s-5.683,2.673-5.683,5.947v0.048c0,3.274,2.384,5.971,5.731,5.971C93.394,18.015,95.729,15.367,95.729,12.092z"/>
	<path fill="#FFFFFF" d="M102.427,5.013c0-0.818,0.65-1.493,1.493-1.493h0.312c0.65,0,1.084,0.337,1.373,0.794l5.104,7.994
		l5.129-8.018c0.312-0.506,0.746-0.771,1.348-0.771h0.313c0.843,0,1.493,0.674,1.493,1.493v14.11c0,0.819-0.65,1.469-1.493,1.469
		c-0.795,0-1.469-0.674-1.469-1.469V9.01l-4.117,6.188c-0.313,0.481-0.698,0.771-1.252,0.771c-0.53,0-0.915-0.289-1.229-0.771
		l-4.094-6.14v10.089c0,0.818-0.649,1.445-1.469,1.445c-0.818,0-1.444-0.626-1.444-1.445V5.013z"/>
	<path fill="#FFFFFF" d="M129.811,12.092v-0.048c0-4.72,3.611-8.716,8.692-8.716c2.528,0,4.213,0.602,5.754,1.709
		c0.289,0.216,0.603,0.626,0.603,1.204c0,0.795-0.65,1.469-1.469,1.469c-0.386,0-0.675-0.168-0.915-0.337
		c-1.084-0.794-2.264-1.324-4.094-1.324c-3.105,0-5.466,2.721-5.466,5.947v0.048c0,3.467,2.288,6.02,5.731,6.02
		c1.589,0,3.033-0.506,4.068-1.276v-3.154h-3.322c-0.723,0-1.324-0.554-1.324-1.276c0-0.723,0.602-1.3,1.324-1.3h4.695
		c0.843,0,1.493,0.65,1.493,1.493v4.503c0,0.843-0.338,1.444-1.036,1.878c-1.444,0.963-3.467,1.83-5.995,1.83
		C133.277,20.76,129.811,17.004,129.811,12.092z"/>
	<path fill="#FFFFFF" d="M149.438,5.109c0-0.843,0.65-1.493,1.493-1.493h6.02c2.119,0,3.78,0.626,4.863,1.686
		c0.892,0.915,1.396,2.167,1.396,3.636v0.048c0,2.697-1.564,4.334-3.828,5.032l3.227,4.069c0.289,0.361,0.481,0.674,0.481,1.132
		c0,0.818-0.698,1.373-1.421,1.373c-0.674,0-1.107-0.313-1.444-0.771l-4.094-5.225h-3.731v4.526c0,0.819-0.65,1.469-1.469,1.469
		c-0.843,0-1.493-0.65-1.493-1.469V5.109z M156.733,11.972c2.119,0,3.467-1.108,3.467-2.817V9.106c0-1.806-1.3-2.793-3.491-2.793
		h-4.31v5.659H156.733z"/>
	<path fill="#FFFFFF" d="M166.851,18.979V5.109c0-0.843,0.65-1.493,1.493-1.493h9.8c0.723,0,1.324,0.602,1.324,1.324
		c0,0.747-0.602,1.325-1.324,1.325h-8.331v4.382h7.247c0.723,0,1.324,0.602,1.324,1.349c0,0.722-0.602,1.3-1.324,1.3h-7.247v4.527
		h8.451c0.723,0,1.324,0.602,1.324,1.324c0,0.746-0.602,1.324-1.324,1.324h-9.92C167.501,20.471,166.851,19.821,166.851,18.979z"/>
	<path fill="#FFFFFF" d="M182.986,18.979V5.109c0-0.843,0.65-1.493,1.493-1.493h9.8c0.723,0,1.324,0.602,1.324,1.324
		c0,0.747-0.602,1.325-1.324,1.325h-8.331v4.382h7.247c0.723,0,1.324,0.602,1.324,1.349c0,0.722-0.602,1.3-1.324,1.3h-7.247v4.527
		h8.451c0.723,0,1.324,0.602,1.324,1.324c0,0.746-0.602,1.324-1.324,1.324h-9.92C183.637,20.471,182.986,19.821,182.986,18.979z"/>
	<path fill="#FFFFFF" d="M199.123,5.013c0-0.818,0.65-1.493,1.493-1.493h0.312c0.723,0,1.132,0.361,1.541,0.867l8.428,10.908V4.94
		c0-0.794,0.65-1.444,1.444-1.444c0.819,0,1.469,0.65,1.469,1.444v14.158c0,0.819-0.626,1.469-1.444,1.469h-0.12
		c-0.698,0-1.132-0.361-1.541-0.891l-8.669-11.221v10.691c0,0.794-0.649,1.445-1.444,1.445c-0.818,0-1.469-0.65-1.469-1.445V5.013z"
		/>
	<path fill="#FFFFFF" d="M229.516,6.361h-4.094c-0.771,0-1.372-0.626-1.372-1.373s0.602-1.373,1.372-1.373h11.197
		c0.746,0,1.348,0.626,1.348,1.373s-0.602,1.373-1.348,1.373h-4.118v12.761c0,0.819-0.674,1.469-1.492,1.469
		c-0.819,0-1.493-0.65-1.493-1.469V6.361z"/>
	<path fill="#FFFFFF" d="M239.318,12.092v-0.048c0-4.744,3.659-8.716,8.837-8.716c5.177,0,8.788,3.924,8.788,8.668v0.048
		c0,4.743-3.66,8.716-8.837,8.716S239.318,16.835,239.318,12.092z M253.837,12.092v-0.048c0-3.275-2.384-5.996-5.73-5.996
		s-5.683,2.673-5.683,5.947v0.048c0,3.274,2.384,5.971,5.731,5.971C251.502,18.015,253.837,15.367,253.837,12.092z"/>
</g>
</svg>
