<svg id="Layer_2" data-name="Layer 2" xmlns="http://www.w3.org/2000/svg" viewBox="0 0 124.75 26"><defs><style>.cls-1{fill:#e92128;}.cls-2{fill:#fff;}</style></defs><title>Artboard 1</title><rect class="cls-1" width="124.75" height="26"/><path class="cls-2" d="M25.52,16.89V15.81l.86-.1c.19,0,.22-.07.22-.27v-7c0-.2,0-.26-.22-.27l-.86-.1V7H30V8.11l-1.13.11c-.2,0-.22.07-.22.26v7h2.42c.15,0,.19,0,.22-.15l.22-1.36h1.5v3Z"/><path class="cls-2" d="M40.18,16.36a6.36,6.36,0,0,1-2.79.69c-2.63,0-3.52-1.63-3.52-3.76,0-2.46,1.51-3.63,3.38-3.63s3,.94,3,3.29c0,.16,0,.64,0,.91H36c.07,1,.49,1.61,1.61,1.61a5.8,5.8,0,0,0,2-.46Zm-2-3.78c0-1.14-.46-1.44-1-1.44s-1.06.33-1.14,1.44Z"/><path class="cls-2" d="M45.43,16.89l-.14-.73h-.07a3.07,3.07,0,0,1-2.29.91,1.79,1.79,0,0,1-2-2c0-1.36.84-2,2.55-2.1l1.56-.11v-.75c0-.64-.07-1.08-.91-1.08-.65,0-1,.1-1,.91l-1.92-.16c0-1.84,1.67-2.1,2.93-2.1,2.07,0,2.9.56,2.9,2.46v3.31c0,.22,0,.25.22.27l.65.11v1.08ZM45.06,14l-.93.07c-.8.05-1.09.26-1.09.8a.68.68,0,0,0,.78.75,2.24,2.24,0,0,0,1.24-.49Z"/><path class="cls-2" d="M48.44,16.89v-1.1l.61-.08c.19,0,.22-.07.22-.27v-4c0-.15,0-.25-.18-.29l-.73-.26.15-1.1h2.4l.16,1.09h.08a2.28,2.28,0,0,1,1.92-1.23,6.34,6.34,0,0,1,1.18.12v2.48l-1.63-.05-.14-.72c0-.12-.07-.15-.18-.15a1.8,1.8,0,0,0-1,.48v3.61c0,.22,0,.26.22.27l1.35.11v1.09Z"/><path class="cls-2" d="M59.9,16.89v-4.4c0-.65,0-1.2-.72-1.2a2.75,2.75,0,0,0-1.42.5v3.65c0,.22,0,.25.22.27l.65.1v1.08H54.88V15.8l.61-.08c.19,0,.22-.07.22-.27v-4c0-.15,0-.25-.18-.29l-.74-.26L55,9.8h2.38l.11.71.05,0a4,4,0,0,1,2.4-.87c1.48,0,2.06.82,2.06,2.31v3.47c0,.22,0,.25.22.27l.68.1v1.08Z"/><path class="cls-2" d="M74.74,16.89v-4.4c0-.53-.05-1.17-.76-1.17a2,2,0,0,0-1.1.37,5.3,5.3,0,0,1,0,.67v3.09c0,.23,0,.26.22.29l.54.08v1.08H70.86V12.42c0-.5,0-1.1-.72-1.1a1.89,1.89,0,0,0-1.13.44v3.69c0,.23,0,.23.22.27l.67.1v1.08H66.12V15.81l.61-.1c.19,0,.22-.07.22-.27v-4c0-.15,0-.25-.18-.29L66,10.9l.15-1.1h2.4l.11.71h.07a3.34,3.34,0,0,1,2.18-.86,1.76,1.76,0,0,1,1.66.82,3.64,3.64,0,0,1,2.19-.82c1.46,0,2,.72,2,2.3v3.48c0,.22,0,.26.22.29l.68.08v1.08Z"/><path class="cls-2" d="M78.23,13.39c0-2.26,1.18-3.73,3.67-3.73s3.5,1.5,3.5,3.58c0,2.31-1.17,3.81-3.67,3.81S78.23,15.53,78.23,13.39Zm5-.08c0-1.61-.49-2.18-1.37-2.18s-1.5.56-1.5,2.19.53,2.3,1.44,2.3S83.26,15,83.26,13.31Z"/><path class="cls-2" d="M86.09,16.89v-1.1l.61-.08c.19,0,.22-.07.22-.27v-4c0-.15,0-.25-.18-.29L86,10.9l.15-1.1h2.4l.16,1.09h.08a2.28,2.28,0,0,1,1.92-1.23,6.35,6.35,0,0,1,1.18.12v2.48l-1.63-.05-.14-.72c0-.12-.07-.15-.18-.15a1.8,1.8,0,0,0-1,.48v3.61c0,.22,0,.26.22.27l1.35.11v1.09Z"/><path class="cls-2" d="M98.79,16.36a6.36,6.36,0,0,1-2.79.69c-2.63,0-3.53-1.63-3.53-3.76,0-2.46,1.51-3.63,3.38-3.63s3,.94,3,3.29c0,.16,0,.64,0,.91H94.65c.07,1,.49,1.61,1.61,1.61a5.8,5.8,0,0,0,2-.46Zm-2-3.78c0-1.14-.46-1.44-1-1.44s-1.06.33-1.14,1.44Z"/></svg>