<svg id="Layer_1" data-name="Layer 1" xmlns="http://www.w3.org/2000/svg" viewBox="0 0 209.31 36.83"><defs><style>.cls-1{fill:#007db9;}.cls-2{fill:#b2d235;}.cls-3{fill:#00bcf1;}.cls-4{fill:#ec1c24;}.cls-5{fill:#fff;}</style></defs><title>Artboard 1</title><g id="Layer_4" data-name="Layer 4"><polygon class="cls-1" points="0 31.67 36.57 31.67 36.56 31.66 12.16 25.58 0 31.67"/><polygon class="cls-2" points="4.61 23.69 0 31.67 12.16 25.58 4.61 23.69"/><polygon class="cls-3" points="12.16 25.58 36.56 31.66 28.36 17.45 12.16 25.58"/><polygon class="cls-4" points="18.29 0 5.58 22.01 27.38 15.76 18.29 0"/><path class="cls-5" d="M58.88,13.06l-.46,3.07a9.86,9.86,0,0,0-6-2.13c-4.15,0-6.32,3.13-6.32,7.65s2.23,7.65,6.26,7.65a11,11,0,0,0,4.41-1v-5H52.29l-.43-2.73h7.92V30a12.24,12.24,0,0,1-7.11,2c-5.36,0-9.57-3.39-9.57-10.29,0-6.47,3.83-10.29,9.45-10.29C56.53,11.37,58.27,12.62,58.88,13.06Zm6,12.06c0,1.48.58,4.41,3.91,4.41a7.79,7.79,0,0,0,4.93-2l.4,2.47a8.27,8.27,0,0,1-5.65,2C64.59,32,62,29.38,62,24.68c0-4.87,2.93-7.25,6.18-7.25,4.15,0,5.94,3.39,5.94,7v.7Zm6.38-2.2c-.17-.93-.55-3.19-3.07-3.19-2,0-2.93,1.8-3.16,3.19Zm10.89,9c-3.6,0-6.47-2.32-6.47-7.25s2.93-7.25,6.47-7.25c3.71,0,6.44,2.55,6.44,7.25S85.62,32,82.09,32Zm0-2.41c2.17,0,3.6-2.06,3.6-4.84s-1.39-4.84-3.6-4.84c-2.44,0-3.6,2.32-3.6,4.84,0,2.74,1.3,4.88,3.59,4.88Zm11.32-9.34a5.92,5.92,0,0,1,4.81-2.75l.4,2.58a5.52,5.52,0,0,0-5.07,3v8.61H90.71V17.72h2.35ZM112.31,20l-2.52.26a3.74,3.74,0,0,1,.43,2c0,2.15-1.59,4.84-5.33,4.84a4.85,4.85,0,0,1-1-.09c-.14.06-.55.38-.55.7s.49.43,1,.52,2.12.43,3,.58c2.67.41,4.52,1.45,4.52,3.62,0,2.78-2.93,4.35-6.58,4.35-5.13,0-6.76-1.86-6.76-3.68,0-2.06,2.23-3.22,2.78-3.51a1.78,1.78,0,0,1-.75-1.42,2.46,2.46,0,0,1,1.28-1.83,4.6,4.6,0,0,1-2.41-4.09,5,5,0,0,1,5.12-4.88h.24a5.6,5.6,0,0,1,3.57,1.13l3.57-1.1Zm-8.87,10.52c-1,.46-2.23,1.36-2.23,2.35s1.19,1.77,4,1.77c2.12,0,3.91-.67,3.91-1.94,0-1.1-1.54-1.39-2.81-1.62Zm1.39-11a2.64,2.64,0,0,0-2.67,2.61s0,.1,0,.14a2.55,2.55,0,0,0,2.34,2.75h.33a2.63,2.63,0,0,0,2.67-2.59q0-.08,0-.16A2.61,2.61,0,0,0,105,19.58h-.19Zm12.74-6.06a1.76,1.76,0,1,1-1.77-1.77h0a1.78,1.78,0,0,1,1.77,1.78Zm-.35,4.2h-2.84v14h2.84v-14Zm11.08,14L128.19,30A5.11,5.11,0,0,1,124,32c-2.61,0-4.7-1.36-4.7-4.35,0-4.18,5.65-4.76,8.61-5.07V22.1c0-1-.41-2.23-2.73-2.23a11.23,11.23,0,0,0-4.58,1.28l-.38-2.49a13.07,13.07,0,0,1,5.16-1.19c4.15,0,5.36,1.88,5.36,4.93v9.28Zm-.35-6.9c-3.19.32-5.83,1-5.83,2.93,0,1.25.87,1.86,2.15,1.86A5.56,5.56,0,0,0,128,27.73Zm26.21-6.84c0,4-3,6.26-6.76,6.26h-3.8v7.48h-3v-20h6.78c4.5,0,6.79,2.9,6.79,6.27Zm-10.55,3.62h3.19c3,0,4.29-1.57,4.29-3.62s-1.36-3.62-4.29-3.62h-3.19ZM160.45,32c-3.6,0-6.47-2.32-6.47-7.25s2.93-7.25,6.47-7.25c3.71,0,6.44,2.55,6.44,7.25S164,32,160.45,32Zm0-2.41c2.17,0,3.6-2.06,3.6-4.84s-1.39-4.84-3.6-4.84c-2.44,0-3.6,2.32-3.6,4.84s1.31,4.8,3.6,4.8Zm26-11.83L182,31.71h-2.32L176.83,22l-2.9,9.65h-2.32L167.17,17.7H170l2.84,9.57,2.9-9.57h2.35l2.9,9.57,2.84-9.57Zm3.16,7.39c0,1.48.58,4.41,3.91,4.41a7.79,7.79,0,0,0,4.93-2l.41,2.49a8.27,8.27,0,0,1-5.63,2c-3.83,0-6.44-2.58-6.44-7.28,0-4.87,2.93-7.25,6.18-7.25,4.15,0,5.94,3.39,5.94,7v.7Zm6.38-2.2c-.17-.93-.55-3.19-3.07-3.19-2,0-2.93,1.8-3.16,3.19Zm8.1-2.7a5.92,5.92,0,0,1,4.81-2.75l.41,2.55a5.52,5.52,0,0,0-5.07,3v8.61H201.4V17.72h2.35Z"/></g></svg>