<svg id="Layer_2" data-name="Layer 2" xmlns="http://www.w3.org/2000/svg" viewBox="0 0 134.84 19.51"><defs><style>.cls-1{fill:#fff;}</style></defs><title>Artboard 1</title><path class="cls-1" d="M0,15v-1.1l1.23-.12c.28,0,.32-.1.32-.4V1.85c0-.22-.06-.36-.26-.42L.1,1.06.28,0H3.37V13.42c0,.32,0,.36.32.4L4.88,14V15Z"/><path class="cls-1" d="M5.83,15v-1.1l1.31-.12c.28,0,.32-.1.32-.4V6.65c0-.22-.06-.36-.26-.42L6.07,5.85,6.25,4.8h3v8.62c0,.32,0,.36.32.4l1.27.14V15ZM8.1,2.59A1.17,1.17,0,0,1,6.81,1.31,1.16,1.16,0,0,1,8.1.06,1.15,1.15,0,0,1,9.38,1.31,1.15,1.15,0,0,1,8.1,2.59Z"/><path class="cls-1" d="M19.91,6.21a3.09,3.09,0,0,1,.74,2.07c0,2.35-1.81,3.66-4.14,3.66a5,5,0,0,1-1.69-.24l-.9,1.73,2.45.14c3.58.2,5.2.38,5.2,2.73,0,2-1.69,3.21-5.16,3.21s-4.64-.94-4.64-2.45A3.13,3.13,0,0,1,13,14.81a1.1,1.1,0,0,1-.88-1.08,2,2,0,0,1,.44-1.1c.32-.46.74-1,1.1-1.43a3.08,3.08,0,0,1-1.49-2.83c0-2.23,1.61-3.78,4.32-3.78a6.92,6.92,0,0,1,1.77.2h3.54V6.07Zm-5.48,8.92a2.59,2.59,0,0,0-.88,1.65c0,1.08,1.12,1.31,3.07,1.33,1.06,0,3.09-.16,3.09-1.67,0-.94-.78-1-2.07-1.13Zm2.07-9.08c-1.45,0-2.49.72-2.49,2.27,0,1.17.68,2.13,2.43,2.13A2.18,2.18,0,0,0,18.88,8.2,2.07,2.07,0,0,0,16.51,6.05Z"/><path class="cls-1" d="M29.43,15v-1.1l1-.12c.26,0,.36-.12.36-.4V8.78c0-1.47-.26-2.65-1.67-2.65a5.42,5.42,0,0,0-3.15,1.29v6c0,.32,0,.36.32.4l1.12.14V15H22.8v-1.1l1-.12c.28,0,.32-.1.32-.4V1.85c0-.22-.06-.36-.26-.42l-1.19-.38L22.83,0H25.9V5.91A6,6,0,0,1,29.49,4.6c2.13,0,3.07,1.37,3.07,3.62v5.2c0,.32,0,.36.32.4L34,14V15Z"/><path class="cls-1" d="M42,14.66a7.53,7.53,0,0,1-2.77.62c-1.91,0-2.77-.9-2.77-2.69V6.37c0-.12,0-.2-.16-.2H34.9V5c1.55-.2,2-.82,2.25-2.85h1.17V4.6c0,.12,0,.2.16.2h2.93V6.17H38.33V12c0,1.25.3,1.73,1.43,1.73a5.22,5.22,0,0,0,1.85-.4Z"/><path class="cls-1" d="M48.7,15a19.83,19.83,0,0,0,.24-2.85V1.85c0-.22-.06-.36-.26-.42L47.5,1.06,47.68,0h3.07V5.75A6.17,6.17,0,0,1,54.15,4.6c2.23,0,3.76,1.43,3.76,4.94,0,4.1-1.69,5.73-4.2,5.73A4.33,4.33,0,0,1,50.63,14l-.06,0-.1,1Zm2.05-2.55a4.31,4.31,0,0,0,2.73,1.29c1.87,0,2.61-1.55,2.61-4.08s-1-3.58-2.41-3.58a5.3,5.3,0,0,0-2.93,1.12Z"/><path class="cls-1" d="M67.77,15l-.16-1.35,0,0a5.73,5.73,0,0,1-3.84,1.61c-2.19,0-2.87-1.33-2.87-3.62V6.59c0-.32,0-.4-.32-.46l-1-.26.16-1.08h3v6.43c0,1.73.3,2.57,1.55,2.57a4.55,4.55,0,0,0,3.21-1.73V6.57c0-.32,0-.38-.32-.44l-1-.26.16-1.08h3v8.6c0,.3.06.4.28.42l1.06.14V15Z"/><path class="cls-1" d="M71.85,15v-1.1l1.23-.12c.28,0,.32-.1.32-.4V1.85c0-.22-.06-.36-.26-.42l-1.19-.38L72.13,0h3.09V13.42c0,.32,0,.36.32.4l1.19.14V15Z"/><path class="cls-1" d="M78.84,15a19.82,19.82,0,0,0,.24-2.85V1.85c0-.22-.06-.36-.26-.42l-1.17-.38L77.82,0h3.07V5.75A6.16,6.16,0,0,1,84.29,4.6c2.23,0,3.76,1.43,3.76,4.94,0,4.1-1.69,5.73-4.2,5.73A4.33,4.33,0,0,1,80.77,14l-.06,0-.1,1Zm2.05-2.55a4.31,4.31,0,0,0,2.73,1.29c1.87,0,2.61-1.55,2.61-4.08s-1-3.58-2.41-3.58a5.31,5.31,0,0,0-2.93,1.12Z"/><path class="cls-1" d="M95.8,7.65l-.24-1.23c0-.14,0-.22-.2-.26a5.17,5.17,0,0,0-1.55-.22c-1.45,0-2.11.64-2.11,1.49,0,1.13,1.19,1.37,2.49,1.71,1.55.4,3.25.88,3.25,3,0,2.31-1.93,3.11-4,3.11a9.54,9.54,0,0,1-3.6-.68V11.95l1.33.08.24,1.37a.29.29,0,0,0,.24.28,5.61,5.61,0,0,0,2,.32c1.33,0,2.19-.5,2.19-1.57S94.61,11,93.33,10.65C91.78,10.29,90,9.9,90,7.71S91.94,4.6,94,4.6a9.18,9.18,0,0,1,3.15.56V7.73Z"/><path class="cls-1" d="M111.61,14.44a6.71,6.71,0,0,1-3.41.84c-3.41,0-4.86-2.09-4.86-5.24,0-3.78,2.19-5.44,5.22-5.44a7.29,7.29,0,0,1,3,.62V7.87l-1.33-.06L110,6.49a.29.29,0,0,0-.24-.28A4.53,4.53,0,0,0,108.42,6c-1.77,0-3.19,1-3.19,3.88s1.31,3.86,3.25,3.86a5.32,5.32,0,0,0,2.55-.66Z"/><path class="cls-1" d="M119.59,15l-.18-1.29-.06,0a5.07,5.07,0,0,1-3.6,1.55,2.48,2.48,0,0,1-2.81-2.73c0-2,1.23-2.93,3.62-3.13l2.69-.22V8.14c0-1.45-.28-2.17-2-2.17-1.21,0-2.09,0-2.11,1.53l-1.71-.18c0-2.45,2.27-2.73,3.84-2.73,2.83,0,3.78.8,3.78,3.54v5.28c0,.32,0,.36.32.4l1,.14V15Zm-.34-4.58-2.25.2c-1.71.16-2.19.66-2.19,1.69s.46,1.51,1.39,1.51a5.19,5.19,0,0,0,3-1.53Z"/><path class="cls-1" d="M130.26,15v-1.1l1-.12c.26,0,.36-.12.36-.4V8.7c0-1.29-.26-2.55-1.73-2.55a5,5,0,0,0-3.09,1.27v6c0,.32,0,.36.32.4l1.12.14V15h-4.56v-1.1l1-.12c.28,0,.32-.1.32-.4V6.65c0-.22-.06-.36-.26-.42l-1.13-.38.18-1.06h2.61L126.5,6l.06,0a6.38,6.38,0,0,1,3.68-1.39c2.29,0,3.15,1.47,3.15,3.64v5.18c0,.32,0,.36.32.4l1.13.14V15Z"/></svg>