<svg id="Layer_2" data-name="Layer 2" xmlns="http://www.w3.org/2000/svg" viewBox="0 0 113.92 19.51"><defs><style>.cls-1{fill:#fff;}</style></defs><title>Artboard 1</title><path class="cls-1" d="M1.79,19.26v-1.1L3.23,18c.24,0,.32-.14.44-.42l1.15-2.65L1.23,6.43c-.1-.24-.18-.28-.42-.34L0,5.89.24,4.8H4.36v1.1L3,6.05,5.7,12.74,8.46,6.05,7.11,5.89l.22-1.1h3.94v1.1l-.68.1a.58.58,0,0,0-.5.34L5.26,18l1.93.2v1.08Z"/><path class="cls-1" d="M11.83,9.88c0-3.13,1.59-5.28,5-5.28s4.72,2.17,4.72,5.16c0,3.35-1.51,5.52-4.92,5.52S11.83,13,11.83,9.88Zm7.85,0c0-2.61-1-3.76-2.89-3.76S13.7,7.27,13.7,9.9s1,3.92,3,3.92S19.67,12.6,19.67,9.88Z"/><path class="cls-1" d="M31.34,15l-.16-1.35,0,0a5.73,5.73,0,0,1-3.84,1.61c-2.19,0-2.87-1.33-2.87-3.62V6.59c0-.32,0-.4-.32-.46l-1-.26.16-1.08h3v6.43c0,1.73.3,2.57,1.55,2.57A4.55,4.55,0,0,0,31,12.07V6.57c0-.32,0-.38-.32-.44l-1-.26.16-1.08h3v8.6c0,.3.06.4.28.42l1.06.14V15Z"/><path class="cls-1" d="M35.66,15v-1.1l1-.12c.28,0,.32-.1.32-.4V6.65c0-.22-.06-.36-.26-.42l-1.13-.38.18-1.06h2.61l.2,1.37.06,0a4.08,4.08,0,0,1,3-1.59A6.27,6.27,0,0,1,43,4.78v3l-1.41-.06-.24-1.37c0-.16-.06-.2-.24-.2a4.15,4.15,0,0,0-2.37,1.25v6c0,.32,0,.38.32.4l1.83.16V15Z"/><path class="cls-1" d="M49.53,15a19.83,19.83,0,0,0,.24-2.85V1.85c0-.22-.06-.36-.26-.42l-1.17-.38L48.52,0h3.07V5.75A6.17,6.17,0,0,1,55,4.6c2.23,0,3.76,1.43,3.76,4.94,0,4.1-1.69,5.73-4.2,5.73A4.33,4.33,0,0,1,51.46,14l-.06,0-.1,1Zm2.05-2.55a4.31,4.31,0,0,0,2.73,1.29c1.87,0,2.61-1.55,2.61-4.08s-1-3.58-2.41-3.58a5.3,5.3,0,0,0-2.93,1.12Z"/><path class="cls-1" d="M60.12,15v-1.1l1.31-.12c.28,0,.32-.1.32-.4V6.65c0-.22-.06-.36-.26-.42l-1.13-.38.18-1.06h3v8.62c0,.32,0,.36.32.4l1.27.14V15ZM62.39,2.59A1.17,1.17,0,0,1,61.1,1.31,1.16,1.16,0,0,1,62.39.06a1.15,1.15,0,0,1,1.27,1.25A1.15,1.15,0,0,1,62.39,2.59Z"/><path class="cls-1" d="M74.2,6.21a3.09,3.09,0,0,1,.74,2.07c0,2.35-1.81,3.66-4.14,3.66a5,5,0,0,1-1.69-.24l-.9,1.73,2.45.14c3.58.2,5.2.38,5.2,2.73,0,2-1.69,3.21-5.16,3.21s-4.64-.94-4.64-2.45a3.13,3.13,0,0,1,1.21-2.25,1.1,1.1,0,0,1-.88-1.08,2,2,0,0,1,.44-1.1c.32-.46.74-1,1.09-1.43a3.08,3.08,0,0,1-1.49-2.83c0-2.23,1.61-3.78,4.32-3.78a6.91,6.91,0,0,1,1.77.2h3.54V6.07Zm-5.48,8.92a2.59,2.59,0,0,0-.88,1.65c0,1.08,1.12,1.31,3.07,1.33C72,18.12,74,18,74,16.45c0-.94-.78-1-2.07-1.13ZM70.8,6.05a2.18,2.18,0,0,0-2.49,2.27c0,1.17.68,2.13,2.43,2.13A2.18,2.18,0,0,0,73.17,8.2,2.08,2.08,0,0,0,70.8,6.05Z"/><path class="cls-1" d="M85,6.21a3.09,3.09,0,0,1,.74,2.07c0,2.35-1.81,3.66-4.14,3.66a5,5,0,0,1-1.69-.24L79,13.44l2.45.14c3.58.2,5.2.38,5.2,2.73,0,2-1.69,3.21-5.16,3.21s-4.64-.94-4.64-2.45a3.13,3.13,0,0,1,1.21-2.25,1.1,1.1,0,0,1-.88-1.08,2,2,0,0,1,.44-1.1c.32-.46.74-1,1.09-1.43a3.08,3.08,0,0,1-1.49-2.83c0-2.23,1.61-3.78,4.32-3.78a6.91,6.91,0,0,1,1.77.2h3.54V6.07Zm-5.48,8.92a2.59,2.59,0,0,0-.88,1.65c0,1.08,1.12,1.31,3.07,1.33,1.06,0,3.09-.16,3.09-1.67,0-.94-.78-1-2.07-1.13Zm2.07-9.08A2.18,2.18,0,0,0,79.1,8.32c0,1.17.68,2.13,2.43,2.13A2.18,2.18,0,0,0,84,8.2,2.08,2.08,0,0,0,81.59,6.05Z"/><path class="cls-1" d="M96.18,14.38a7.28,7.28,0,0,1-3.62.9c-3.6,0-4.78-2.37-4.78-5.34,0-3.64,2-5.34,4.54-5.34s4.1,1.31,4.1,4.76c0,.26,0,.66,0,1H89.69c.06,2,.88,3.39,3,3.39A5.73,5.73,0,0,0,95.6,13ZM94.61,9c0-2.27-1.08-2.93-2.29-2.93S89.87,6.77,89.71,9Z"/><path class="cls-1" d="M103.94,7.65l-.24-1.23c0-.14,0-.22-.2-.26A5.17,5.17,0,0,0,102,5.93c-1.45,0-2.11.64-2.11,1.49,0,1.13,1.19,1.37,2.49,1.71,1.55.4,3.25.88,3.25,3,0,2.31-1.93,3.11-4,3.11a9.54,9.54,0,0,1-3.6-.68V11.95l1.33.08.24,1.37a.29.29,0,0,0,.24.28,5.61,5.61,0,0,0,2,.32c1.33,0,2.19-.5,2.19-1.57s-1.13-1.47-2.41-1.77c-1.55-.36-3.31-.76-3.31-2.95s1.91-3.11,4-3.11a9.18,9.18,0,0,1,3.15.56V7.73Z"/><path class="cls-1" d="M113.92,14.66a7.53,7.53,0,0,1-2.77.62c-1.91,0-2.77-.9-2.77-2.69V6.37c0-.12,0-.2-.16-.2h-1.45V5c1.55-.2,2-.82,2.25-2.85h1.17V4.6c0,.12,0,.2.16.2h2.93V6.17h-3.09V12c0,1.25.3,1.73,1.43,1.73a5.21,5.21,0,0,0,1.85-.4Z"/></svg>