<svg id="Layer_2" data-name="Layer 2" xmlns="http://www.w3.org/2000/svg" viewBox="0 0 119.95 19.51"><defs><style>.cls-1{fill:#fff;}</style></defs><title>Artboard 1</title><path class="cls-1" d="M8.4,14.38a7.28,7.28,0,0,1-3.62.9C1.17,15.27,0,12.9,0,9.94,0,6.29,2,4.6,4.54,4.6s4.1,1.31,4.1,4.76c0,.26,0,.66,0,1H1.91c.06,2,.88,3.39,3,3.39A5.73,5.73,0,0,0,7.83,13ZM6.83,9c0-2.27-1.08-2.93-2.29-2.93S2.09,6.77,1.93,9Z"/><path class="cls-1" d="M16.84,15v-1.1l1-.12c.26,0,.36-.12.36-.4V8.7c0-1.29-.26-2.55-1.73-2.55a5,5,0,0,0-3.09,1.27v6c0,.32,0,.36.32.4l1.12.14V15H10.21v-1.1l1-.12c.28,0,.32-.1.32-.4V6.65c0-.22-.06-.36-.26-.42l-1.13-.38.18-1.06h2.61L13.08,6l.06,0A6.38,6.38,0,0,1,16.82,4.6C19.11,4.6,20,6.07,20,8.24v5.18c0,.32,0,.36.32.4l1.14.14V15Z"/><path class="cls-1" d="M31.12,14.38a7.28,7.28,0,0,1-3.62.9c-3.6,0-4.78-2.37-4.78-5.34,0-3.64,2-5.34,4.54-5.34s4.1,1.31,4.1,4.76c0,.26,0,.66,0,1H24.63c.06,2,.88,3.39,3,3.39A5.73,5.73,0,0,0,30.54,13ZM29.55,9c0-2.27-1.08-2.93-2.29-2.93S24.81,6.77,24.65,9Z"/><path class="cls-1" d="M32.93,15v-1.1l1-.12c.28,0,.32-.1.32-.4V6.65c0-.22-.06-.36-.26-.42l-1.13-.38L33,4.8h2.61l.2,1.37.06,0a4.08,4.08,0,0,1,3-1.59,6.27,6.27,0,0,1,1.43.18v3L38.9,7.73l-.24-1.37c0-.16-.06-.2-.24-.2a4.15,4.15,0,0,0-2.37,1.25v6c0,.32,0,.38.32.4l1.83.16V15Z"/><path class="cls-1" d="M49.29,6.21A3.09,3.09,0,0,1,50,8.28c0,2.35-1.81,3.66-4.14,3.66a5,5,0,0,1-1.69-.24l-.9,1.73,2.45.14c3.58.2,5.2.38,5.2,2.73,0,2-1.69,3.21-5.16,3.21s-4.64-.94-4.64-2.45a3.13,3.13,0,0,1,1.21-2.25,1.1,1.1,0,0,1-.88-1.08,2,2,0,0,1,.44-1.1c.32-.46.74-1,1.1-1.43a3.08,3.08,0,0,1-1.49-2.83c0-2.23,1.61-3.78,4.32-3.78a6.92,6.92,0,0,1,1.77.2h3.54V6.07Zm-5.48,8.92a2.59,2.59,0,0,0-.88,1.65c0,1.08,1.12,1.31,3.07,1.33,1.06,0,3.09-.16,3.09-1.67,0-.94-.78-1-2.07-1.13Zm2.07-9.08c-1.45,0-2.49.72-2.49,2.27,0,1.17.68,2.13,2.43,2.13A2.18,2.18,0,0,0,48.26,8.2,2.07,2.07,0,0,0,45.89,6.05Z"/><path class="cls-1" d="M53.29,19.26v-1.1L54.73,18c.24,0,.32-.14.44-.42l1.15-2.65L52.74,6.43c-.1-.24-.18-.28-.42-.34l-.82-.2.24-1.1h4.12v1.1l-1.31.16,2.65,6.69L60,6.05l-1.35-.16.22-1.1h3.94v1.1L62.1,6a.58.58,0,0,0-.5.34L56.76,18l1.93.2v1.08Z"/><path class="cls-1" d="M75.81,15l-.16-1.31-.08,0a4.83,4.83,0,0,1-3.5,1.57c-2.27,0-3.76-1.47-3.76-5.14,0-3.92,1.77-5.54,4.16-5.54a5.28,5.28,0,0,1,3,1V1.83a.37.37,0,0,0-.26-.4l-1.19-.38L74.24,0h3V13.42c0,.32,0,.36.32.4l1,.14V15Zm-.34-7.87a4.64,4.64,0,0,0-2.73-1.08c-1.87,0-2.61,1.63-2.61,4,0,2.77.94,3.66,2.33,3.66a4.47,4.47,0,0,0,3-1.65Z"/><path class="cls-1" d="M80,15v-1.1l1-.12c.28,0,.32-.1.32-.4V6.65c0-.22-.06-.36-.26-.42l-1.13-.38.18-1.06h2.61l.2,1.37.06,0A4.08,4.08,0,0,1,86,4.6a6.27,6.27,0,0,1,1.43.18v3L86,7.73l-.24-1.37c0-.16-.06-.2-.24-.2a4.15,4.15,0,0,0-2.37,1.25v6c0,.32,0,.38.32.4l1.83.16V15Z"/><path class="cls-1" d="M94.86,15l-.18-1.29-.06,0A5.07,5.07,0,0,1,91,15.27a2.48,2.48,0,0,1-2.81-2.73c0-2,1.23-2.93,3.62-3.13l2.69-.22V8.14c0-1.45-.28-2.17-2-2.17C91.3,6,90.42,6,90.4,7.51l-1.71-.18c0-2.45,2.27-2.73,3.84-2.73,2.83,0,3.78.8,3.78,3.54v5.28c0,.32,0,.36.32.4l1,.14V15Zm-.34-4.58-2.25.2c-1.71.16-2.19.66-2.19,1.69s.46,1.51,1.39,1.51a5.19,5.19,0,0,0,3-1.53Z"/><path class="cls-1" d="M98.59,15v-1.1l1.31-.12c.28,0,.32-.1.32-.4V6.65c0-.22-.06-.36-.26-.42l-1.13-.38L99,4.8h3v8.62c0,.32,0,.36.32.4l1.27.14V15Zm2.27-12.45a1.17,1.17,0,0,1-1.29-1.27A1.16,1.16,0,0,1,100.86.06a1.15,1.15,0,0,1,1.27,1.25A1.15,1.15,0,0,1,100.86,2.59Z"/><path class="cls-1" d="M111.45,15v-1.1l1-.12c.26,0,.36-.12.36-.4V8.7c0-1.29-.26-2.55-1.73-2.55a5,5,0,0,0-3.09,1.27v6c0,.32,0,.36.32.4l1.12.14V15h-4.56v-1.1l1-.12c.28,0,.32-.1.32-.4V6.65c0-.22-.06-.36-.26-.42l-1.13-.38.18-1.06h2.61L107.69,6l.06,0a6.38,6.38,0,0,1,3.68-1.39c2.29,0,3.15,1.47,3.15,3.64v5.18c0,.32,0,.36.32.4L116,14V15Z"/><path class="cls-1" d="M118.63,15.27A1.14,1.14,0,0,1,117.32,14a1.32,1.32,0,0,1,2.63,0A1.14,1.14,0,0,1,118.63,15.27Z"/></svg>