<svg id="Layer_2" data-name="Layer 2" xmlns="http://www.w3.org/2000/svg" viewBox="0 0 138.51 21.11"><defs><style>.cls-1{fill:#fff;}</style></defs><title>Artboard 1</title><path class="cls-1" d="M4.37,10.51v1.3H2.55V10.62A7.24,7.24,0,0,1,0,10.09V7.74H1.6l.19,1a.33.33,0,0,0,.28.32,3.8,3.8,0,0,0,1.09.13c1,0,1.48-.37,1.48-1,0-1.89-4.55-.7-4.55-4A2.73,2.73,0,0,1,2.55,1.4V.25H4.39V1.32a8.11,8.11,0,0,1,2.1.43V4.26L4.87,4.1l-.17-1c0-.22-.11-.26-.3-.32a3.54,3.54,0,0,0-.83-.08c-.85,0-1.46.3-1.46,1,0,1.79,4.55.75,4.55,4A2.62,2.62,0,0,1,4.37,10.51Z"/><path class="cls-1" d="M12.18,7.68l-.35,3.45a5.93,5.93,0,0,1,3.2-.85c3,0,4.86,1.71,4.86,5.14,0,3.1-2.14,5.69-6.2,5.69a8.5,8.5,0,0,1-6.34-2.32l2-2.29a5.41,5.41,0,0,0,4,1.71,2.51,2.51,0,0,0,2.72-2.67,2.16,2.16,0,0,0-2.35-2.44,3.28,3.28,0,0,0-2.41,1.08l-2.5-1,.56-8.64H16c.23,0,.28-.13.33-.3l.33-1.39,2.24-.15v5Z"/><path class="cls-1" d="M21.7,11.71c0-4.56,1.82-7.58,6.81-7.58S35,7.13,35,11.51c0,4.71-1.72,7.81-6.76,7.81S21.7,16.25,21.7,11.71Zm9.22-.05c0-3.45-.63-4.78-2.49-4.78s-2.67,1.36-2.67,4.88.63,4.87,2.59,4.87S30.92,15.19,30.92,11.66Z"/><path class="cls-1" d="M36.87,11.71c0-4.56,1.81-7.58,6.8-7.58s6.45,3,6.45,7.38c0,4.71-1.71,7.81-6.75,7.81S36.87,16.25,36.87,11.71Zm9.22-.05c0-3.45-.63-4.78-2.49-4.78s-2.68,1.36-2.68,4.88.63,4.87,2.6,4.87S46.09,15.19,46.09,11.66Z"/><path class="cls-1" d="M56.82,19V17L58,16.83c.36,0,.41-.13.41-.51V8.94A.47.47,0,0,0,58,8.41l-1.36-.47.28-2h4.43l.3,2h.15a4.23,4.23,0,0,1,3.55-2.27,11.52,11.52,0,0,1,2.2.23v4.58l-3-.1L64.3,9c0-.23-.12-.28-.33-.28a3.4,3.4,0,0,0-1.81.88V16.3c0,.4,0,.48.4.5l2.5.2v2Z"/><path class="cls-1" d="M80.32,18a11.82,11.82,0,0,1-5.16,1.28c-4.86,0-6.53-3-6.53-7,0-4.56,2.8-6.73,6.25-6.73s5.54,1.74,5.54,6.1c0,.3,0,1.18,0,1.69h-7.7c.12,1.79.9,3,3,3a10.73,10.73,0,0,0,3.75-.86ZM76.7,11c0-2.11-.86-2.67-1.89-2.67S72.84,9,72.69,11Z"/><path class="cls-1" d="M82.49,19a24,24,0,0,0,.38-3.68V3.05c0-.28-.08-.46-.33-.53L81.15,2l.28-2h5.19V7l.1,0a5.73,5.73,0,0,1,3.81-1.36c2.72,0,4.86,1.77,4.86,6.45,0,5.19-2.19,7.23-5.29,7.23a4.86,4.86,0,0,1-3.71-1.58l-.12,0L86.09,19Zm4.16-3.63a3.57,3.57,0,0,0,2.31,1c1.67,0,2.45-1.57,2.45-4.09,0-2-.63-3.67-2.32-3.67a4.65,4.65,0,0,0-2.44.88Z"/><path class="cls-1" d="M105,19l-.25-1.36-.13,0a5.64,5.64,0,0,1-4.23,1.69c-3.17,0-3.68-2.16-3.68-3.73,0-2.52,1.56-3.67,4.71-3.88l2.9-.2V10.13c0-1.19-.13-2-1.69-2-1.21,0-1.84.17-1.84,1.68l-3.55-.3c0-3.4,3.1-3.88,5.42-3.88,3.83,0,5.36,1,5.36,4.56v6.12c0,.41,0,.46.41.51l1.21.2v2Zm-.68-5.42-1.71.13c-1.49.1-2,.48-2,1.49A1.27,1.27,0,0,0,102,16.6a4.14,4.14,0,0,0,2.29-.91Z"/><path class="cls-1" d="M120.07,18.31a10,10,0,0,1-4.1,1c-3,0-4.13-1.21-4.13-4.05V8.67c0-.16,0-.26-.21-.26h-1.76V6.17c2.22-.25,3.1-1.36,3.38-4.1h2.39V5.64c0,.18,0,.26.2.26h3.55V8.41h-3.75v6c0,1.48.35,2.06,1.71,2.06a6.12,6.12,0,0,0,2-.4Z"/><path class="cls-1" d="M132.22,18a11.89,11.89,0,0,1-5.17,1.28c-4.86,0-6.52-3-6.52-7,0-4.56,2.79-6.73,6.24-6.73s5.55,1.74,5.55,6.1c0,.3,0,1.18,0,1.69h-7.71c.12,1.79.9,3,3,3a10.73,10.73,0,0,0,3.75-.86Zm-3.63-7c0-2.11-.86-2.67-1.89-2.67s-2,.61-2.12,2.67Z"/><path class="cls-1" d="M136.37,19.32c-1.46,0-2.16-.65-2.16-2s.7-2,2.16-2,2.14.68,2.14,2S137.81,19.32,136.37,19.32Z"/></svg>