<svg id="Layer_2" data-name="Layer 2" xmlns="http://www.w3.org/2000/svg" viewBox="0 0 136.33 19.51"><defs><style>.cls-1{fill:#fff;}</style></defs><title>Artboard 1</title><path class="cls-1" d="M6.74,15.23l-.18-1.31-.06,0a5.14,5.14,0,0,1-3.65,1.57A2.51,2.51,0,0,1,0,12.71c0-2,1.25-3,3.67-3.17l2.72-.22V8.25c0-1.47-.28-2.2-2-2.2-1.23,0-2.12,0-2.14,1.55L.48,7.42c0-2.48,2.3-2.76,3.89-2.76,2.86,0,3.83.81,3.83,3.59V13.6c0,.32,0,.36.32.4l1,.14v1.09Zm-.34-4.64-2.28.2c-1.73.16-2.22.67-2.22,1.71S2.36,14,3.31,14a5.26,5.26,0,0,0,3.09-1.55Z"/><path class="cls-1" d="M11,19.51V18.4l.83-.12c.28,0,.34-.1.34-.4V6.74c0-.22-.06-.36-.26-.42l-1.15-.38.18-1.07h2.66L13.76,6l.06,0a5.93,5.93,0,0,1,3.61-1.39c2.26,0,3.79,1.45,3.79,5,0,3-1,5.81-4.2,5.81A4.34,4.34,0,0,1,14,14.36v3.49c0,.32,0,.38.32.4l1.9.16v1.09Zm3-6.86A4.22,4.22,0,0,0,16.72,14c1.92,0,2.64-1.59,2.64-4.14,0-2.74-1.07-3.61-2.32-3.61A5.38,5.38,0,0,0,14,7.46Z"/><path class="cls-1" d="M23.18,19.51V18.4l.83-.12c.28,0,.34-.1.34-.4V6.74c0-.22-.06-.36-.26-.42l-1.15-.38.18-1.07h2.66L26,6l.06,0a5.93,5.93,0,0,1,3.61-1.39c2.26,0,3.79,1.45,3.79,5,0,3-1,5.81-4.2,5.81a4.34,4.34,0,0,1-3.07-1.11v3.49c0,.32,0,.38.32.4l1.9.16v1.09Zm3-6.86A4.22,4.22,0,0,0,28.93,14c1.92,0,2.64-1.59,2.64-4.14,0-2.74-1.07-3.61-2.32-3.61a5.38,5.38,0,0,0-3.09,1.25Z"/><path class="cls-1" d="M35,15.23V14.12L36.25,14c.28,0,.32-.1.32-.4V1.88c0-.22-.06-.36-.26-.42L35.1,1.07,35.28,0h3.13V13.6c0,.32,0,.36.32.4l1.21.14v1.09Z"/><path class="cls-1" d="M40.91,15.23V14.12L42.24,14c.28,0,.32-.1.32-.4V6.74c0-.22-.06-.36-.26-.42l-1.15-.38.18-1.07H44.4V13.6c0,.32,0,.36.32.4l1.29.14v1.09Zm2.3-12.61A1.18,1.18,0,0,1,41.9,1.33,1.18,1.18,0,0,1,43.21.06,1.16,1.16,0,0,1,44.5,1.33,1.17,1.17,0,0,1,43.21,2.62Z"/><path class="cls-1" d="M54,15.23l-.18-1.31-.06,0a5.14,5.14,0,0,1-3.65,1.57,2.51,2.51,0,0,1-2.84-2.76c0-2,1.25-3,3.67-3.17l2.72-.22V8.25c0-1.47-.28-2.2-2-2.2-1.23,0-2.12,0-2.14,1.55l-1.73-.18c0-2.48,2.3-2.76,3.89-2.76,2.86,0,3.83.81,3.83,3.59V13.6c0,.32,0,.36.32.4l1,.14v1.09Zm-.34-4.64-2.28.2c-1.73.16-2.22.67-2.22,1.71S49.67,14,50.61,14a5.26,5.26,0,0,0,3.09-1.55Z"/><path class="cls-1" d="M64.85,15.23V14.12l1-.12c.26,0,.36-.12.36-.4V8.82c0-1.31-.26-2.58-1.75-2.58A5.09,5.09,0,0,0,61.3,7.52V13.6c0,.32,0,.36.32.4l1.13.14v1.09H58.14V14.12l1-.12c.28,0,.32-.1.32-.4V6.74c0-.22-.06-.36-.26-.42l-1.15-.38.18-1.07h2.64L61,6.05l.06,0a6.47,6.47,0,0,1,3.73-1.41C67.15,4.66,68,6.15,68,8.35V13.6c0,.32,0,.36.32.4l1.15.14v1.09Z"/><path class="cls-1" d="M79.18,14.63a6.8,6.8,0,0,1-3.45.85c-3.45,0-4.92-2.12-4.92-5.31,0-3.83,2.22-5.51,5.29-5.51a7.39,7.39,0,0,1,3.07.63V8l-1.35-.06-.24-1.33a.29.29,0,0,0-.24-.28A4.58,4.58,0,0,0,76,6.11c-1.8,0-3.23,1-3.23,3.93S74.05,14,76,14a5.39,5.39,0,0,0,2.58-.67Z"/><path class="cls-1" d="M88.9,14.56a7.38,7.38,0,0,1-3.67.91c-3.65,0-4.84-2.4-4.84-5.41,0-3.69,2.06-5.41,4.6-5.41S89.14,6,89.14,9.48c0,.26,0,.67,0,1H82.32c.06,2,.89,3.43,3.09,3.43a5.8,5.8,0,0,0,2.9-.73ZM87.31,9.1c0-2.3-1.09-3-2.32-3s-2.48.73-2.64,3Z"/><path class="cls-1" d="M96.77,7.75,96.53,6.5c0-.14,0-.22-.2-.26A5.24,5.24,0,0,0,94.75,6c-1.47,0-2.14.65-2.14,1.51,0,1.15,1.21,1.39,2.52,1.73,1.57.4,3.29.89,3.29,3.07,0,2.34-2,3.15-4.09,3.15a9.65,9.65,0,0,1-3.65-.69V12.1l1.35.08.24,1.39a.29.29,0,0,0,.24.28,5.69,5.69,0,0,0,2,.32c1.35,0,2.22-.5,2.22-1.59s-1.15-1.49-2.44-1.8c-1.57-.36-3.35-.77-3.35-3s1.94-3.15,4-3.15a9.31,9.31,0,0,1,3.19.56v2.6Z"/><path class="cls-1" d="M112.79,14.63a6.8,6.8,0,0,1-3.45.85c-3.45,0-4.92-2.12-4.92-5.31,0-3.83,2.22-5.51,5.29-5.51a7.39,7.39,0,0,1,3.07.63V8l-1.35-.06-.24-1.33a.29.29,0,0,0-.24-.28,4.58,4.58,0,0,0-1.37-.18c-1.8,0-3.23,1-3.23,3.93S107.66,14,109.62,14a5.39,5.39,0,0,0,2.58-.67Z"/><path class="cls-1" d="M120.87,15.23l-.18-1.31-.06,0A5.14,5.14,0,0,1,117,15.47a2.51,2.51,0,0,1-2.84-2.76c0-2,1.25-3,3.67-3.17l2.72-.22V8.25c0-1.47-.28-2.2-2-2.2-1.23,0-2.12,0-2.14,1.55l-1.73-.18c0-2.48,2.3-2.76,3.89-2.76,2.86,0,3.83.81,3.83,3.59V13.6c0,.32,0,.36.32.4l1,.14v1.09Zm-.34-4.64-2.28.2c-1.73.16-2.22.67-2.22,1.71S116.5,14,117.45,14a5.25,5.25,0,0,0,3.09-1.55Z"/><path class="cls-1" d="M131.69,15.23V14.12l1-.12c.26,0,.36-.12.36-.4V8.82c0-1.31-.26-2.58-1.75-2.58a5.08,5.08,0,0,0-3.13,1.29V13.6c0,.32,0,.36.32.4l1.13.14v1.09H125V14.12l1-.12c.28,0,.32-.1.32-.4V6.74c0-.22-.06-.36-.26-.42l-1.15-.38.18-1.07h2.64l.16,1.19.06,0a6.47,6.47,0,0,1,3.73-1.41c2.32,0,3.19,1.49,3.19,3.69V13.6c0,.32,0,.36.32.4l1.15.14v1.09Z"/></svg>