<svg id="Layer_2" data-name="Layer 2" xmlns="http://www.w3.org/2000/svg" viewBox="0 0 31.93 15.47"><defs><style>.cls-1{fill:#fff;}</style></defs><title>Artboard 1</title><path class="cls-1" d="M0,7.85C0,3.57,2.42.36,7,.36s6.64,3.21,6.64,7.26c0,4.76-2.3,7.85-6.92,7.85S0,12.31,0,7.85Zm11.74,0C11.74,4,9.9,1.92,7,1.92S1.92,4,1.92,7.85c0,4.05,2,6.07,4.92,6.07S11.74,12,11.74,7.83Z"/><path class="cls-1" d="M15.23,15.23V14.12L16.48,14c.28,0,.32-.1.32-.4V1.88c0-.22-.06-.36-.26-.42l-1.21-.38L15.51,0h3.13V13.6c0,.32,0,.36.32.4l1.21.14v1.09Z"/><path class="cls-1" d="M29.09,15.23l-.16-1.33-.08,0a4.89,4.89,0,0,1-3.55,1.59c-2.3,0-3.81-1.49-3.81-5.2,0-4,1.8-5.61,4.22-5.61a5.35,5.35,0,0,1,3.09,1V1.86a.38.38,0,0,0-.26-.4l-1.21-.38L27.5,0h3.09V13.6c0,.32,0,.36.32.4l1,.14v1.09Zm-.34-8A4.7,4.7,0,0,0,26,6.17c-1.9,0-2.64,1.65-2.64,4.05,0,2.8.95,3.71,2.36,3.71a4.53,4.53,0,0,0,3-1.67Z"/></svg>