<svg id="Layer_2" data-name="Layer 2" xmlns="http://www.w3.org/2000/svg" viewBox="0 0 138.68 19.51"><defs><style>.cls-1{fill:#fff;}</style></defs><title>Artboard 1</title><path class="cls-1" d="M0,15V14l1.25-.14c.28,0,.32-.1.32-.4V2.25c0-.3,0-.38-.32-.4L0,1.71V.62H5.93c3.41,0,4.34,1.55,4.34,3.52A3.39,3.39,0,0,1,7.85,7.49v.06c2.27.26,3.37,1.59,3.37,3.58C11.21,14.08,9,15,5.87,15ZM5.14,7c1.57,0,3.31-.46,3.31-2.59,0-1.83-1-2.31-3-2.31H3.38V7Zm.52,6.61c2.09,0,3.64-.36,3.64-2.57,0-1.93-1.41-2.65-3.25-2.65H3.38v5.22Z"/><path class="cls-1" d="M20.47,15l-.16-1.35,0,0a5.73,5.73,0,0,1-3.84,1.61c-2.19,0-2.87-1.33-2.87-3.62V6.59c0-.32,0-.4-.32-.46l-1-.26.16-1.08h3v6.43c0,1.73.3,2.57,1.55,2.57a4.55,4.55,0,0,0,3.21-1.73V6.57c0-.32,0-.38-.32-.44l-1-.26L19,4.8h3v8.6c0,.3.06.4.28.42l1.06.14V15Z"/><path class="cls-1" d="M31.6,14.66a7.53,7.53,0,0,1-2.77.62c-1.91,0-2.77-.9-2.77-2.69V6.37c0-.12,0-.2-.16-.2H24.45V5c1.55-.2,2-.82,2.25-2.85h1.17V4.6c0,.12,0,.2.16.2H31V6.17H27.87V12c0,1.25.3,1.73,1.43,1.73a5.22,5.22,0,0,0,1.85-.4Z"/><path class="cls-1" d="M44,15v-1.1l1-.12c.26,0,.36-.12.36-.4V8.7c0-1.29-.26-2.55-1.73-2.55a5,5,0,0,0-3.09,1.27v6c0,.32,0,.36.32.4L42,14V15H37.41v-1.1l1-.12c.28,0,.32-.1.32-.4V6.65c0-.22-.06-.36-.26-.42l-1.13-.38.18-1.06h2.61L40.27,6l.06,0A6.38,6.38,0,0,1,44,4.6c2.29,0,3.15,1.47,3.15,3.64v5.18c0,.32,0,.36.32.4l1.14.14V15Z"/><path class="cls-1" d="M56.68,15l-.18-1.29-.06,0a5.07,5.07,0,0,1-3.6,1.55A2.48,2.48,0,0,1,50,12.54c0-2,1.23-2.93,3.62-3.13l2.69-.22V8.14c0-1.45-.28-2.17-2-2.17-1.21,0-2.09,0-2.11,1.53l-1.71-.18c0-2.45,2.27-2.73,3.84-2.73,2.83,0,3.78.8,3.78,3.54v5.28c0,.32,0,.36.32.4l1,.14V15Zm-.34-4.58-2.25.2c-1.71.16-2.19.66-2.19,1.69s.46,1.51,1.39,1.51a5.19,5.19,0,0,0,3-1.53Z"/><path class="cls-1" d="M67.33,14.66a7.53,7.53,0,0,1-2.77.62c-1.91,0-2.77-.9-2.77-2.69V6.37c0-.12,0-.2-.16-.2H60.18V5c1.55-.2,2-.82,2.25-2.85h1.17V4.6c0,.12,0,.2.16.2h2.93V6.17H63.61V12c0,1.25.3,1.73,1.43,1.73a5.22,5.22,0,0,0,1.85-.4Z"/><path class="cls-1" d="M76.19,15,76,13.68l0,0a5.73,5.73,0,0,1-3.84,1.61c-2.19,0-2.87-1.33-2.87-3.62V6.59c0-.32,0-.4-.32-.46l-1-.26.16-1.08h3v6.43c0,1.73.3,2.57,1.55,2.57a4.55,4.55,0,0,0,3.21-1.73V6.57c0-.32,0-.38-.32-.44l-1-.26L74.7,4.8h3v8.6c0,.3.06.4.28.42L79,14V15Z"/><path class="cls-1" d="M80.51,15v-1.1l1-.12c.28,0,.32-.1.32-.4V6.65c0-.22-.06-.36-.26-.42l-1.13-.38.18-1.06h2.61l.2,1.37.06,0a4.07,4.07,0,0,1,3-1.59,6.27,6.27,0,0,1,1.43.18v3l-1.41-.06-.24-1.37c0-.16-.06-.2-.24-.2a4.15,4.15,0,0,0-2.37,1.25v6c0,.32,0,.38.32.4l1.83.16V15Z"/><path class="cls-1" d="M95.36,15l-.18-1.29-.06,0a5.07,5.07,0,0,1-3.6,1.55,2.48,2.48,0,0,1-2.81-2.73c0-2,1.23-2.93,3.62-3.13L95,9.2V8.14C95,6.69,94.75,6,93,6,91.8,6,90.92,6,90.9,7.51l-1.71-.18c0-2.45,2.27-2.73,3.84-2.73,2.83,0,3.78.8,3.78,3.54v5.28c0,.32,0,.36.32.4l1,.14V15ZM95,10.45l-2.25.2c-1.71.16-2.19.66-2.19,1.69S91,13.86,92,13.86a5.19,5.19,0,0,0,3-1.53Z"/><path class="cls-1" d="M99.16,15v-1.1l1.23-.12c.28,0,.32-.1.32-.4V1.85c0-.22-.06-.36-.26-.42l-1.19-.38L99.44,0h3.09V13.42c0,.32,0,.36.32.4L104,14V15Z"/><path class="cls-1" d="M117.68,6.21a3.09,3.09,0,0,1,.74,2.07c0,2.35-1.81,3.66-4.14,3.66a5,5,0,0,1-1.69-.24l-.9,1.73,2.45.14c3.58.2,5.2.38,5.2,2.73,0,2-1.69,3.21-5.16,3.21s-4.64-.94-4.64-2.45a3.13,3.13,0,0,1,1.21-2.25,1.1,1.1,0,0,1-.88-1.08,2,2,0,0,1,.44-1.1c.32-.46.74-1,1.09-1.43a3.08,3.08,0,0,1-1.49-2.83c0-2.23,1.61-3.78,4.32-3.78a6.91,6.91,0,0,1,1.77.2h3.54V6.07Zm-5.48,8.92a2.59,2.59,0,0,0-.88,1.65c0,1.08,1.12,1.31,3.07,1.33,1.06,0,3.09-.16,3.09-1.67,0-.94-.78-1-2.07-1.13Zm2.07-9.08a2.18,2.18,0,0,0-2.49,2.27c0,1.17.68,2.13,2.43,2.13a2.18,2.18,0,0,0,2.43-2.25A2.08,2.08,0,0,0,114.27,6.05Z"/><path class="cls-1" d="M127.06,15l-.18-1.29-.06,0a5.07,5.07,0,0,1-3.6,1.55,2.48,2.48,0,0,1-2.81-2.73c0-2,1.23-2.93,3.62-3.13l2.69-.22V8.14c0-1.45-.28-2.17-2-2.17-1.21,0-2.09,0-2.11,1.53l-1.71-.18c0-2.45,2.27-2.73,3.84-2.73,2.83,0,3.78.8,3.78,3.54v5.28c0,.32,0,.36.32.4l1,.14V15Zm-.34-4.58-2.25.2c-1.71.16-2.19.66-2.19,1.69s.46,1.51,1.39,1.51a5.19,5.19,0,0,0,3-1.53Z"/><path class="cls-1" d="M137,7.65l-.24-1.23c0-.14,0-.22-.2-.26a5.17,5.17,0,0,0-1.55-.22c-1.45,0-2.11.64-2.11,1.49,0,1.13,1.19,1.37,2.49,1.71,1.55.4,3.25.88,3.25,3,0,2.31-1.93,3.11-4,3.11a9.54,9.54,0,0,1-3.6-.68V11.95l1.33.08.24,1.37a.29.29,0,0,0,.24.28,5.61,5.61,0,0,0,2,.32c1.33,0,2.19-.5,2.19-1.57s-1.13-1.47-2.41-1.77c-1.55-.36-3.31-.76-3.31-2.95s1.91-3.11,4-3.11a9.18,9.18,0,0,1,3.15.56V7.73Z"/></svg>