<svg id="Layer_2" data-name="Layer 2" xmlns="http://www.w3.org/2000/svg" viewBox="0 0 143.22 15.49"><defs><style>.cls-1{fill:#fff;}</style></defs><title>Artboard 1</title><path class="cls-1" d="M0,15.25v-1.1L1.27,14c.28,0,.32-.1.32-.4v-7c0-.12,0-.2-.16-.2H0V5H1.59V3.5C1.59,1.17,2.77,0,5.24,0c1.63,0,3,.4,3,2.37l-1.69.24c0-1.06-.46-1.25-1.37-1.25-1.47,0-1.75.8-1.75,2.09V4.82c0,.14,0,.2.16.2H6.83V6.39H3.41V13.6c0,.32,0,.38.32.4l2.33.18v1.08Z"/><path class="cls-1" d="M16.29,15.25l-.16-1.35,0,0a5.73,5.73,0,0,1-3.84,1.61c-2.19,0-2.87-1.33-2.87-3.62V6.81c0-.32,0-.4-.32-.46L8,6.09,8.18,5h3v6.43c0,1.73.3,2.57,1.55,2.57a4.55,4.55,0,0,0,3.21-1.73V6.79c0-.32,0-.38-.32-.44l-1-.26L14.79,5h3v8.6c0,.3.06.4.28.42l1.06.14v1.08Z"/><path class="cls-1" d="M20.61,15.25v-1.1l1-.12c.28,0,.32-.1.32-.4V6.87c0-.22-.06-.36-.26-.42l-1.13-.38L20.71,5h2.61l.2,1.37.06,0a4.08,4.08,0,0,1,3-1.59A6.27,6.27,0,0,1,28,5V8l-1.41-.06-.24-1.37c0-.16-.06-.2-.24-.2a4.15,4.15,0,0,0-2.37,1.25v6c0,.32,0,.38.32.4l1.83.16v1.08Z"/><path class="cls-1" d="M35.86,15.25v-1.1l1-.12c.26,0,.36-.12.36-.4V8.92c0-1.29-.26-2.55-1.73-2.55a5,5,0,0,0-3.09,1.27v6c0,.32,0,.36.32.4l1.12.14v1.08H29.23v-1.1l1-.12c.28,0,.32-.1.32-.4V6.87c0-.22-.06-.36-.26-.42l-1.13-.38L29.33,5h2.61l.16,1.18.06,0a6.38,6.38,0,0,1,3.68-1.39C38.13,4.82,39,6.29,39,8.46v5.18c0,.32,0,.36.32.4l1.14.14v1.08Z"/><path class="cls-1" d="M48.5,15.25,48.32,14l-.06,0a5.07,5.07,0,0,1-3.6,1.55,2.48,2.48,0,0,1-2.81-2.73c0-2,1.23-2.93,3.62-3.13l2.69-.22V8.36c0-1.45-.28-2.17-2-2.17-1.21,0-2.09,0-2.11,1.53l-1.71-.18c0-2.45,2.27-2.73,3.84-2.73C49,4.82,50,5.62,50,8.36v5.28c0,.32,0,.36.32.4l1,.14v1.08Zm-.34-4.58-2.25.2c-1.71.16-2.19.66-2.19,1.69s.46,1.51,1.39,1.51a5.19,5.19,0,0,0,3-1.53Z"/><path class="cls-1" d="M60.72,14.66a6.71,6.71,0,0,1-3.4.84c-3.41,0-4.86-2.09-4.86-5.24,0-3.78,2.19-5.44,5.22-5.44a7.3,7.3,0,0,1,3,.62V8.08L59.37,8l-.24-1.31a.29.29,0,0,0-.24-.28,4.53,4.53,0,0,0-1.35-.18c-1.77,0-3.19,1-3.19,3.88S55.66,14,57.6,14a5.32,5.32,0,0,0,2.55-.66Z"/><path class="cls-1" d="M70.32,14.6a7.28,7.28,0,0,1-3.62.9c-3.6,0-4.78-2.37-4.78-5.34,0-3.64,2-5.34,4.54-5.34s4.1,1.31,4.1,4.76c0,.26,0,.66,0,1H63.83c.06,2,.88,3.39,3,3.39a5.73,5.73,0,0,0,2.87-.72ZM68.75,9.2c0-2.27-1.08-2.93-2.29-2.93S64,7,63.85,9.2Z"/><path class="cls-1" d="M78.08,7.87l-.24-1.23c0-.14,0-.22-.2-.26a5.17,5.17,0,0,0-1.55-.22c-1.45,0-2.11.64-2.11,1.49C74,8.78,75.17,9,76.47,9.36c1.55.4,3.25.88,3.25,3,0,2.31-1.93,3.11-4,3.11a9.53,9.53,0,0,1-3.6-.68V12.17l1.33.08.24,1.37a.29.29,0,0,0,.24.28,5.62,5.62,0,0,0,2,.32c1.33,0,2.19-.5,2.19-1.57s-1.13-1.47-2.41-1.77c-1.55-.36-3.31-.76-3.31-2.95s1.91-3.11,4-3.11a9.19,9.19,0,0,1,3.15.56V7.94Z"/><path class="cls-1" d="M93.89,14.66a6.71,6.71,0,0,1-3.41.84c-3.41,0-4.86-2.09-4.86-5.24,0-3.78,2.19-5.44,5.22-5.44a7.29,7.29,0,0,1,3,.62V8.08L92.54,8,92.3,6.71a.29.29,0,0,0-.24-.28,4.53,4.53,0,0,0-1.35-.18c-1.77,0-3.19,1-3.19,3.88S88.83,14,90.76,14a5.32,5.32,0,0,0,2.55-.66Z"/><path class="cls-1" d="M101.87,15.25,101.69,14l-.06,0A5.07,5.07,0,0,1,98,15.49a2.48,2.48,0,0,1-2.81-2.73c0-2,1.23-2.93,3.62-3.13l2.69-.22V8.36c0-1.45-.28-2.17-2-2.17-1.21,0-2.09,0-2.11,1.53L95.7,7.55c0-2.45,2.27-2.73,3.84-2.73,2.83,0,3.78.8,3.78,3.54v5.28c0,.32,0,.36.32.4l1,.14v1.08Zm-.34-4.58-2.25.2c-1.71.16-2.19.66-2.19,1.69s.46,1.51,1.39,1.51a5.19,5.19,0,0,0,3-1.53Z"/><path class="cls-1" d="M112.54,15.25v-1.1l1-.12c.26,0,.36-.12.36-.4V8.92c0-1.29-.26-2.55-1.73-2.55A5,5,0,0,0,109,7.65v6c0,.32,0,.36.32.4l1.12.14v1.08h-4.56v-1.1l1-.12c.28,0,.32-.1.32-.4V6.87c0-.22-.06-.36-.26-.42l-1.13-.38L106,5h2.61l.16,1.18.06,0a6.38,6.38,0,0,1,3.68-1.39c2.29,0,3.15,1.47,3.15,3.64v5.18c0,.32,0,.36.32.4l1.13.14v1.08Z"/><path class="cls-1" d="M123.71,15.25a19.82,19.82,0,0,0,.24-2.85V2.07c0-.22-.06-.36-.26-.42l-1.17-.38.18-1.06h3.07V6a6.16,6.16,0,0,1,3.41-1.15c2.23,0,3.76,1.43,3.76,4.94,0,4.1-1.69,5.73-4.2,5.73a4.33,4.33,0,0,1-3.09-1.23l-.06,0-.1,1Zm2.05-2.55A4.31,4.31,0,0,0,128.49,14c1.87,0,2.61-1.55,2.61-4.08s-1-3.58-2.41-3.58a5.31,5.31,0,0,0-2.93,1.12Z"/><path class="cls-1" d="M143,14.6a7.28,7.28,0,0,1-3.62.9c-3.6,0-4.78-2.37-4.78-5.34,0-3.64,2-5.34,4.54-5.34s4.1,1.31,4.1,4.76c0,.26,0,.66,0,1h-6.69c.06,2,.88,3.39,3,3.39a5.73,5.73,0,0,0,2.87-.72Zm-1.57-5.4c0-2.27-1.08-2.93-2.29-2.93s-2.45.72-2.61,2.93Z"/></svg>