<svg id="Layer_2" data-name="Layer 2" xmlns="http://www.w3.org/2000/svg" viewBox="0 0 85.91 15.27"><defs><style>.cls-1{fill:#fff;}</style></defs><title>Artboard 1</title><path class="cls-1" d="M0,7.75C0,3.52,2.39.36,6.93.36s6.55,3.17,6.55,7.17c0,4.7-2.27,7.75-6.83,7.75S0,12.15,0,7.75Zm11.59,0c0-3.82-1.81-5.83-4.7-5.83s-5,2-5,5.85c0,4,1.93,6,4.86,6S11.59,11.83,11.59,7.73Z"/><path class="cls-1" d="M23.47,15l-.16-1.35,0,0a5.73,5.73,0,0,1-3.84,1.61c-2.19,0-2.87-1.33-2.87-3.62V6.59c0-.32,0-.4-.32-.46l-1-.26.16-1.08h3v6.43c0,1.73.3,2.57,1.55,2.57a4.55,4.55,0,0,0,3.21-1.73V6.57c0-.32,0-.38-.32-.44l-1-.26L22,4.8h3v8.6c0,.3.06.4.28.42l1.06.14V15Z"/><path class="cls-1" d="M34.6,14.66a7.53,7.53,0,0,1-2.77.62c-1.91,0-2.77-.9-2.77-2.69V6.37c0-.12,0-.2-.16-.2H27.45V5c1.55-.2,2-.82,2.25-2.85h1.17V4.6c0,.12,0,.2.16.2H34V6.17H30.88V12c0,1.25.3,1.73,1.43,1.73a5.22,5.22,0,0,0,1.85-.4Z"/><path class="cls-1" d="M43,15l-.16-1.31-.08,0a4.83,4.83,0,0,1-3.5,1.57c-2.27,0-3.76-1.47-3.76-5.14,0-3.92,1.77-5.54,4.16-5.54a5.28,5.28,0,0,1,3,1V1.83a.37.37,0,0,0-.26-.4l-1.19-.38L41.45,0h3V13.42c0,.32,0,.36.32.4l1,.14V15Zm-.34-7.87A4.65,4.65,0,0,0,40,6.09c-1.87,0-2.61,1.63-2.61,4,0,2.77.94,3.66,2.33,3.66a4.47,4.47,0,0,0,3-1.65Z"/><path class="cls-1" d="M54,15l-.18-1.29-.06,0a5.07,5.07,0,0,1-3.6,1.55,2.48,2.48,0,0,1-2.81-2.73c0-2,1.23-2.93,3.62-3.13l2.69-.22V8.14c0-1.45-.28-2.17-2-2.17-1.21,0-2.09,0-2.11,1.53l-1.71-.18c0-2.45,2.27-2.73,3.84-2.73,2.83,0,3.78.8,3.78,3.54v5.28c0,.32,0,.36.32.4l1,.14V15Zm-.34-4.58-2.25.2c-1.71.16-2.19.66-2.19,1.69s.46,1.51,1.39,1.51a5.19,5.19,0,0,0,3-1.53Z"/><path class="cls-1" d="M64.6,14.66a7.53,7.53,0,0,1-2.77.62c-1.91,0-2.77-.9-2.77-2.69V6.37c0-.12,0-.2-.16-.2H57.46V5c1.55-.2,2-.82,2.25-2.85h1.17V4.6c0,.12,0,.2.16.2H64V6.17H60.88V12c0,1.25.3,1.73,1.43,1.73a5.21,5.21,0,0,0,1.85-.4Z"/><path class="cls-1" d="M73.68,14.38a7.28,7.28,0,0,1-3.62.9c-3.6,0-4.78-2.37-4.78-5.34,0-3.64,2-5.34,4.54-5.34s4.1,1.31,4.1,4.76c0,.26,0,.66,0,1H67.19c.06,2,.88,3.39,3,3.39A5.73,5.73,0,0,0,73.1,13ZM72.11,9c0-2.27-1.08-2.93-2.29-2.93S67.37,6.77,67.21,9Z"/><path class="cls-1" d="M83.1,15l-.16-1.31-.08,0a4.83,4.83,0,0,1-3.5,1.57c-2.27,0-3.76-1.47-3.76-5.14,0-3.92,1.77-5.54,4.16-5.54a5.28,5.28,0,0,1,3,1V1.83a.37.37,0,0,0-.26-.4l-1.19-.38L81.53,0h3V13.42c0,.32,0,.36.32.4l1,.14V15Zm-.34-7.87A4.64,4.64,0,0,0,80,6.09c-1.87,0-2.61,1.63-2.61,4,0,2.77.94,3.66,2.33,3.66a4.47,4.47,0,0,0,3-1.65Z"/></svg>