<svg xmlns="http://www.w3.org/2000/svg" viewBox="0 0 138.58 85.51"><defs><style>.cls-1{fill:#fff;}</style></defs><title>Artboard 1</title><g id="Layer_2" data-name="Layer 2"><path class="cls-1" d="M46.4,4.32l-.3-1.69c-.06-.28-.12-.36-.22-.42A4,4,0,0,0,44,1.87c-2.05,0-3,.9-3,2.31,0,1.65,1.43,2.13,3,2.63,2,.62,4.24,1.27,4.24,4.26s-2.43,4.2-5.28,4.2a11.53,11.53,0,0,1-4.18-.76V11.25h1.33L40.46,13a.48.48,0,0,0,.4.44,6.94,6.94,0,0,0,2.23.34c2,0,3.25-.78,3.25-2.51S45,9,43.41,8.54c-2-.6-4.34-1.11-4.34-4.12,0-2.85,2.23-4.06,5-4.06a10.51,10.51,0,0,1,3.7.7V4.44Z"/><path class="cls-1" d="M59.06,15,57.15,7.15,55,15H52.77L50,6.41c-.08-.24-.18-.28-.42-.34l-.86-.18.24-1.1h4v1.1l-1.27.16,2.23,7.15,2.29-8.1h2.09l1.93,8.08,2.21-7.13-1.29-.16.22-1.1h3.76v1.1L64.38,6c-.34.06-.42.14-.5.4L61.19,15Z"/><path class="cls-1" d="M65.77,15v-1.1l1.31-.12c.28,0,.32-.1.32-.4V6.65c0-.22-.06-.36-.26-.42L66,5.85l.18-1.06h3v8.62c0,.32,0,.36.32.4L70.8,14V15ZM68,2.59a1.17,1.17,0,0,1-1.29-1.27A1.16,1.16,0,0,1,68,.06a1.15,1.15,0,0,1,1.27,1.25A1.15,1.15,0,0,1,68,2.59Z"/><path class="cls-1" d="M78.81,14.66a7.53,7.53,0,0,1-2.77.62c-1.91,0-2.77-.9-2.77-2.69V6.37c0-.12,0-.2-.16-.2H71.66V5c1.55-.2,2-.82,2.25-2.85h1.17V4.6c0,.12,0,.2.16.2h2.93V6.17H75.08V12c0,1.25.3,1.73,1.43,1.73a5.21,5.21,0,0,0,1.85-.4Z"/><path class="cls-1" d="M87.75,14.44a6.71,6.71,0,0,1-3.41.84c-3.41,0-4.86-2.09-4.86-5.24,0-3.78,2.19-5.44,5.22-5.44a7.29,7.29,0,0,1,3,.62V7.87l-1.33-.06-.24-1.31a.29.29,0,0,0-.24-.28A4.53,4.53,0,0,0,84.56,6c-1.77,0-3.19,1-3.19,3.88s1.31,3.86,3.25,3.86a5.32,5.32,0,0,0,2.55-.66Z"/><path class="cls-1" d="M95.73,15v-1.1l1-.12c.26,0,.36-.12.36-.4V8.78c0-1.47-.26-2.65-1.67-2.65a5.41,5.41,0,0,0-3.15,1.29v6c0,.32,0,.36.32.4l1.12.14V15H89.1v-1.1l1-.12c.28,0,.32-.1.32-.4V1.85c0-.22-.06-.36-.26-.42L89,1.06,89.14,0h3.07V5.91A6,6,0,0,1,95.79,4.6c2.13,0,3.07,1.37,3.07,3.62v5.2c0,.32,0,.36.32.4l1.13.14V15Z"/><path class="cls-1" d="M17.31,36.66a7.53,7.53,0,0,1-2.77.62c-1.91,0-2.77-.9-2.77-2.69V28.37c0-.12,0-.2-.16-.2H10.16V27c1.55-.2,2-.82,2.25-2.85h1.17V26.6c0,.12,0,.2.16.2h2.93v1.37H13.59V34c0,1.25.3,1.73,1.43,1.73a5.22,5.22,0,0,0,1.85-.4Z"/><path class="cls-1" d="M18,31.88c0-3.13,1.59-5.28,5-5.28s4.72,2.17,4.72,5.16c0,3.35-1.51,5.52-4.92,5.52S18,35,18,31.88Zm7.85,0c0-2.61-1-3.76-2.89-3.76s-3.09,1.15-3.09,3.78,1,3.92,3,3.92S25.83,34.6,25.83,31.88Z"/><path class="cls-1" d="M40.48,37l-.18-1.29-.06,0a5.07,5.07,0,0,1-3.6,1.55,2.48,2.48,0,0,1-2.81-2.73c0-2,1.23-2.93,3.62-3.13l2.69-.22V30.14c0-1.45-.28-2.17-2-2.17C36.92,28,36,28,36,29.51l-1.71-.18c0-2.45,2.27-2.73,3.84-2.73,2.83,0,3.78.8,3.78,3.54v5.28c0,.32,0,.36.32.4l1,.14V37Zm-.34-4.58-2.25.2c-1.71.16-2.19.66-2.19,1.69s.46,1.51,1.39,1.51a5.19,5.19,0,0,0,3-1.53Z"/><path class="cls-1" d="M51.16,37v-1.1l1-.12c.26,0,.36-.12.36-.4V30.7c0-1.29-.26-2.55-1.73-2.55a5,5,0,0,0-3.09,1.27v6c0,.32,0,.36.32.4l1.12.14V37H44.52v-1.1l1-.12c.28,0,.32-.1.32-.4V28.65c0-.22-.06-.36-.26-.42l-1.13-.38.18-1.06h2.61L47.39,28l.06,0a6.38,6.38,0,0,1,3.68-1.39c2.29,0,3.15,1.47,3.15,3.64v5.18c0,.32,0,.36.32.4l1.14.14V37Z"/><path class="cls-1" d="M69.85,36.38a7.28,7.28,0,0,1-3.62.9c-3.6,0-4.78-2.37-4.78-5.34,0-3.64,2-5.34,4.54-5.34s4.1,1.31,4.1,4.76c0,.26,0,.66,0,1H63.36c.06,2,.88,3.39,3,3.39A5.73,5.73,0,0,0,69.27,35ZM68.28,31c0-2.27-1.08-2.93-2.29-2.93s-2.45.72-2.61,2.93Z"/><path class="cls-1" d="M71.42,37v-1.1l1.23-.12c.28,0,.32-.1.32-.4V23.85c0-.22-.06-.36-.26-.42l-1.19-.38L71.7,22h3.09V35.42c0,.32,0,.36.32.4L76.3,36V37Z"/><path class="cls-1" d="M85.94,36.38a7.28,7.28,0,0,1-3.62.9c-3.6,0-4.78-2.37-4.78-5.34,0-3.64,2-5.34,4.54-5.34s4.1,1.31,4.1,4.76c0,.26,0,.66,0,1H79.44c.06,2,.88,3.39,3,3.39A5.73,5.73,0,0,0,85.36,35ZM84.36,31c0-2.27-1.08-2.93-2.29-2.93s-2.45.72-2.61,2.93Z"/><path class="cls-1" d="M96,36.44a6.71,6.71,0,0,1-3.41.84c-3.41,0-4.86-2.09-4.86-5.24,0-3.78,2.19-5.44,5.22-5.44a7.29,7.29,0,0,1,3,.62v2.65l-1.33-.06-.24-1.31a.29.29,0,0,0-.24-.28A4.53,4.53,0,0,0,92.76,28c-1.77,0-3.19,1-3.19,3.88s1.31,3.86,3.25,3.86a5.32,5.32,0,0,0,2.55-.66Z"/><path class="cls-1" d="M104.21,36.66a7.53,7.53,0,0,1-2.77.62c-1.91,0-2.77-.9-2.77-2.69V28.37c0-.12,0-.2-.16-.2H97.06V27c1.55-.2,2-.82,2.25-2.85h1.17V26.6c0,.12,0,.2.16.2h2.93v1.37h-3.09V34c0,1.25.3,1.73,1.43,1.73a5.21,5.21,0,0,0,1.85-.4Z"/><path class="cls-1" d="M105.6,37v-1.1l1-.12c.28,0,.32-.1.32-.4V28.65c0-.22-.06-.36-.26-.42l-1.13-.38.18-1.06h2.61l.2,1.37.06,0a4.08,4.08,0,0,1,3-1.59,6.27,6.27,0,0,1,1.43.18v3l-1.41-.06-.24-1.37c0-.16-.06-.2-.24-.2a4.15,4.15,0,0,0-2.37,1.25v6c0,.32,0,.38.32.4l1.83.16V37Z"/><path class="cls-1" d="M113.9,37v-1.1l1.31-.12c.28,0,.32-.1.32-.4V28.65c0-.22-.06-.36-.26-.42l-1.13-.38.18-1.06h3v8.62c0,.32,0,.36.32.4l1.27.14V37Zm2.27-12.45a1.26,1.26,0,1,1,0-2.53,1.15,1.15,0,0,1,1.27,1.25A1.15,1.15,0,0,1,116.17,24.59Z"/><path class="cls-1" d="M128.16,36.44a6.71,6.71,0,0,1-3.41.84c-3.41,0-4.86-2.09-4.86-5.24,0-3.78,2.19-5.44,5.22-5.44a7.29,7.29,0,0,1,3,.62v2.65l-1.33-.06-.24-1.31a.29.29,0,0,0-.24-.28A4.53,4.53,0,0,0,125,28c-1.77,0-3.19,1-3.19,3.88s1.31,3.86,3.25,3.86a5.32,5.32,0,0,0,2.55-.66Z"/><path class="cls-1" d="M6.77,59v-1.1l1-.12c.26,0,.36-.12.36-.4V52.78c0-1.47-.26-2.65-1.67-2.65a5.42,5.42,0,0,0-3.15,1.29v6c0,.32,0,.36.32.4L4.7,58V59H.14v-1.1l1-.12c.28,0,.32-.1.32-.4V45.85c0-.22-.06-.36-.26-.42L0,45.06.18,44H3.25v5.91A6,6,0,0,1,6.83,48.6C9,48.6,9.9,50,9.9,52.22v5.2c0,.32,0,.36.32.4l1.14.14V59Z"/><path class="cls-1" d="M21,58.38a7.28,7.28,0,0,1-3.62.9c-3.6,0-4.78-2.37-4.78-5.34,0-3.64,2-5.34,4.54-5.34s4.1,1.31,4.1,4.76c0,.26,0,.66,0,1H14.55c.06,2,.88,3.39,3,3.39A5.73,5.73,0,0,0,20.47,57ZM19.47,53c0-2.27-1.08-2.93-2.29-2.93s-2.45.72-2.61,2.93Z"/><path class="cls-1" d="M29.33,59l-.18-1.29-.06,0a5.07,5.07,0,0,1-3.6,1.55,2.48,2.48,0,0,1-2.81-2.73c0-2,1.23-2.93,3.62-3.13L29,53.2V52.14c0-1.45-.28-2.17-2-2.17-1.21,0-2.09,0-2.11,1.53l-1.71-.18c0-2.45,2.27-2.73,3.84-2.73,2.83,0,3.78.8,3.78,3.54v5.28c0,.32,0,.36.32.4l1,.14V59ZM29,54.45l-2.25.2c-1.71.16-2.19.66-2.19,1.69s.46,1.51,1.39,1.51a5.19,5.19,0,0,0,3-1.53Z"/><path class="cls-1" d="M40,58.66a7.53,7.53,0,0,1-2.77.62c-1.91,0-2.77-.9-2.77-2.69V50.37c0-.12,0-.2-.16-.2H32.83V49c1.55-.2,2-.82,2.25-2.85h1.17V48.6c0,.12,0,.2.16.2h2.93v1.37H36.25V56c0,1.25.3,1.73,1.43,1.73a5.22,5.22,0,0,0,1.85-.4Z"/><path class="cls-1" d="M45.93,63.26v-1.1l.82-.12c.28,0,.34-.1.34-.4v-11c0-.22-.06-.36-.26-.42l-1.13-.38.18-1.06H48.5L48.68,50l.06,0A5.85,5.85,0,0,1,52.3,48.6C54.53,48.6,56,50,56,53.54c0,3-1,5.73-4.14,5.73a4.29,4.29,0,0,1-3-1.1v3.45c0,.32,0,.38.32.4l1.87.16v1.08Zm2.95-6.77a4.16,4.16,0,0,0,2.73,1.29c1.89,0,2.61-1.57,2.61-4.08,0-2.71-1.06-3.56-2.29-3.56a5.32,5.32,0,0,0-3,1.23Z"/><path class="cls-1" d="M65.9,59l-.16-1.35,0,0a5.73,5.73,0,0,1-3.84,1.61c-2.19,0-2.87-1.33-2.87-3.62V50.59c0-.32,0-.4-.32-.46l-1-.26.16-1.08h3v6.43c0,1.73.3,2.57,1.55,2.57a4.55,4.55,0,0,0,3.21-1.73v-5.5c0-.32,0-.38-.32-.44l-1-.26.16-1.08h3v8.6c0,.3.06.4.28.42l1.06.14V59Z"/><path class="cls-1" d="M82.46,59v-1.1l1-.12c.26,0,.36-.12.36-.4v-4.8c0-1.25-.28-2.45-1.69-2.45a4.67,4.67,0,0,0-2.63,1,11.46,11.46,0,0,1,.06,1.21v5.06c0,.32,0,.36.32.4l1,.14V59H76.39v-1.1l1-.12c.26,0,.36-.12.36-.4V52.6c0-1.14-.08-2.43-1.51-2.43a4.87,4.87,0,0,0-2.85,1.23v6c0,.32,0,.36.32.4l1.08.14V59H70.22v-1.1l1-.12c.28,0,.32-.1.32-.4V50.65c0-.22-.06-.36-.26-.42l-1.13-.38.18-1.06h2.61L73.08,50l.06,0a5.37,5.37,0,0,1,3.52-1.39,2.63,2.63,0,0,1,2.45,1.27,6,6,0,0,1,3.52-1.27c2.27,0,2.95,1.39,2.95,3.7v5.12c0,.32,0,.36.32.4L87,58V59Z"/><path class="cls-1" d="M88.51,63.26v-1.1l.82-.12c.28,0,.34-.1.34-.4v-11c0-.22-.06-.36-.26-.42l-1.14-.38.18-1.06h2.63L91.26,50l.06,0a5.85,5.85,0,0,1,3.56-1.37c2.23,0,3.74,1.43,3.74,4.94,0,3-1,5.73-4.14,5.73a4.29,4.29,0,0,1-3-1.1v3.45c0,.32,0,.38.32.4l1.87.16v1.08Zm2.95-6.77a4.16,4.16,0,0,0,2.73,1.29c1.89,0,2.61-1.57,2.61-4.08,0-2.71-1.06-3.56-2.29-3.56a5.32,5.32,0,0,0-3,1.23Z"/><path class="cls-1" d="M111.57,59l-.18-1.29-.06,0a5.07,5.07,0,0,1-3.6,1.55,2.48,2.48,0,0,1-2.81-2.73c0-2,1.23-2.93,3.62-3.13l2.69-.22V52.14c0-1.45-.28-2.17-2-2.17-1.21,0-2.09,0-2.11,1.53l-1.71-.18c0-2.45,2.27-2.73,3.84-2.73,2.83,0,3.78.8,3.78,3.54v5.28c0,.32,0,.36.32.4l1,.14V59Zm-.34-4.58-2.25.2c-1.71.16-2.19.66-2.19,1.69s.46,1.51,1.39,1.51a5.19,5.19,0,0,0,3-1.53Z"/><path class="cls-1" d="M122.24,59v-1.1l1-.12c.26,0,.36-.12.36-.4V52.7c0-1.29-.26-2.55-1.73-2.55a5,5,0,0,0-3.09,1.27v6c0,.32,0,.36.32.4l1.12.14V59h-4.56v-1.1l1-.12c.28,0,.32-.1.32-.4V50.65c0-.22-.06-.36-.26-.42l-1.13-.38.18-1.06h2.61l.16,1.18.06,0a6.38,6.38,0,0,1,3.68-1.39c2.29,0,3.15,1.47,3.15,3.64v5.18c0,.32,0,.36.32.4l1.13.14V59Z"/><path class="cls-1" d="M135.78,59l-.16-1.31-.08,0a4.83,4.83,0,0,1-3.5,1.57c-2.27,0-3.76-1.47-3.76-5.14,0-3.92,1.77-5.54,4.16-5.54a5.28,5.28,0,0,1,3,1V45.83a.37.37,0,0,0-.26-.4L134,45.06,134.2,44h3V57.42c0,.32,0,.36.32.4l1,.14V59Zm-.34-7.87a4.64,4.64,0,0,0-2.73-1.08c-1.87,0-2.61,1.63-2.61,4,0,2.77.94,3.66,2.33,3.66a4.47,4.47,0,0,0,3-1.65Z"/><path class="cls-1" d="M29.75,72.21a3.09,3.09,0,0,1,.74,2.07c0,2.35-1.81,3.66-4.14,3.66a5,5,0,0,1-1.69-.24l-.9,1.73,2.45.14c3.58.2,5.2.38,5.2,2.73,0,2-1.69,3.21-5.16,3.21s-4.64-.94-4.64-2.45a3.13,3.13,0,0,1,1.21-2.25,1.1,1.1,0,0,1-.88-1.08,2,2,0,0,1,.44-1.1c.32-.46.74-1,1.1-1.43A3.08,3.08,0,0,1,22,74.38c0-2.23,1.61-3.78,4.32-3.78a6.92,6.92,0,0,1,1.77.2h3.54v1.27Zm-5.48,8.92a2.59,2.59,0,0,0-.88,1.65c0,1.08,1.12,1.31,3.07,1.33,1.06,0,3.09-.16,3.09-1.67,0-.94-.78-1-2.07-1.13Zm2.07-9.08c-1.45,0-2.49.72-2.49,2.27,0,1.17.68,2.13,2.43,2.13a2.18,2.18,0,0,0,2.43-2.25A2.07,2.07,0,0,0,26.34,72.05Z"/><path class="cls-1" d="M40.93,80.38a7.28,7.28,0,0,1-3.62.9c-3.6,0-4.78-2.37-4.78-5.34,0-3.64,2-5.34,4.54-5.34s4.1,1.31,4.1,4.76c0,.26,0,.66,0,1H34.44c.06,2,.88,3.39,3,3.39A5.73,5.73,0,0,0,40.36,79ZM39.36,75c0-2.27-1.08-2.93-2.29-2.93s-2.45.72-2.61,2.93Z"/><path class="cls-1" d="M49.53,80.66a7.53,7.53,0,0,1-2.77.62c-1.91,0-2.77-.9-2.77-2.69V72.37c0-.12,0-.2-.16-.2H42.39V71c1.55-.2,2-.82,2.25-2.85h1.17V70.6c0,.12,0,.2.16.2H48.9v1.37H45.81V78c0,1.25.3,1.73,1.43,1.73a5.22,5.22,0,0,0,1.85-.4Z"/><path class="cls-1" d="M63.51,81l-.16-1.35,0,0a5.73,5.73,0,0,1-3.84,1.61c-2.19,0-2.87-1.33-2.87-3.62V72.59c0-.32,0-.4-.32-.46l-1-.26.16-1.08h3v6.43c0,1.73.3,2.57,1.55,2.57a4.55,4.55,0,0,0,3.21-1.73v-5.5c0-.32,0-.38-.32-.44l-1-.26L62,70.8h3v8.6c0,.3.06.4.28.42l1.06.14V81Z"/><path class="cls-1" d="M68,85.26v-1.1l.82-.12c.28,0,.34-.1.34-.4v-11c0-.22-.06-.36-.26-.42l-1.13-.38.18-1.06h2.63L70.72,72l.06,0a5.85,5.85,0,0,1,3.56-1.37c2.23,0,3.74,1.43,3.74,4.94,0,3-1,5.73-4.14,5.73a4.29,4.29,0,0,1-3-1.1v3.45c0,.32,0,.38.32.4l1.87.16v1.08Zm2.95-6.77a4.16,4.16,0,0,0,2.73,1.29c1.89,0,2.61-1.57,2.61-4.08,0-2.71-1.06-3.56-2.29-3.56a5.32,5.32,0,0,0-3,1.23Z"/><path class="cls-1" d="M91.1,80.66a7.53,7.53,0,0,1-2.77.62c-1.91,0-2.77-.9-2.77-2.69V72.37c0-.12,0-.2-.16-.2H84V71c1.55-.2,2-.82,2.25-2.85h1.17V70.6c0,.12,0,.2.16.2h2.93v1.37H87.38V78c0,1.25.3,1.73,1.43,1.73a5.21,5.21,0,0,0,1.85-.4Z"/><path class="cls-1" d="M91.78,75.88c0-3.13,1.59-5.28,5-5.28s4.72,2.17,4.72,5.16c0,3.35-1.51,5.52-4.92,5.52S91.78,79,91.78,75.88Zm7.85,0c0-2.61-1-3.76-2.89-3.76s-3.09,1.15-3.09,3.78,1,3.92,3,3.92S99.62,78.6,99.62,75.88Z"/><path class="cls-1" d="M114.28,81l-.18-1.29-.06,0a5.07,5.07,0,0,1-3.6,1.55,2.48,2.48,0,0,1-2.81-2.73c0-2,1.23-2.93,3.62-3.13l2.69-.22V74.14c0-1.45-.28-2.17-2-2.17-1.21,0-2.09,0-2.11,1.53l-1.71-.18c0-2.45,2.27-2.73,3.84-2.73,2.83,0,3.78.8,3.78,3.54v5.28c0,.32,0,.36.32.4l1,.14V81Zm-.34-4.58-2.25.2c-1.71.16-2.19.66-2.19,1.69s.46,1.51,1.39,1.51a5.19,5.19,0,0,0,3-1.53Z"/></g></svg>