<svg id="Layer_2" data-name="Layer 2" xmlns="http://www.w3.org/2000/svg" viewBox="0 0 128.08 15.69"><defs><style>.cls-1{fill:#fff;}</style></defs><title>Artboard 1</title><path class="cls-1" d="M1.21,15.45a20,20,0,0,0,.24-2.88V2.1c0-.22-.06-.36-.26-.42L0,1.29.18.22H3.29V6.05A6.25,6.25,0,0,1,6.74,4.88c2.26,0,3.81,1.45,3.81,5,0,4.16-1.71,5.81-4.26,5.81a4.39,4.39,0,0,1-3.13-1.25l-.06,0-.1,1Zm2.08-2.58a4.37,4.37,0,0,0,2.76,1.31c1.9,0,2.64-1.57,2.64-4.14s-1-3.63-2.44-3.63a5.37,5.37,0,0,0-3,1.13Z"/><path class="cls-1" d="M20.74,14.79a7.38,7.38,0,0,1-3.67.91c-3.65,0-4.84-2.4-4.84-5.41,0-3.69,2.06-5.41,4.6-5.41S21,6.21,21,9.7c0,.26,0,.67,0,1H14.16c.06,2,.89,3.43,3.09,3.43a5.8,5.8,0,0,0,2.9-.73ZM19.14,9.32c0-2.3-1.09-3-2.32-3s-2.48.73-2.64,3Z"/><path class="cls-1" d="M26.73,15.45V14.34l1.33-.12c.28,0,.32-.1.32-.4V7c0-.22-.06-.36-.26-.42L27,6.15l.18-1.07h3.07v8.73c0,.32,0,.36.32.4l1.29.14v1.09ZM29,2.84a1.18,1.18,0,0,1-1.31-1.29A1.18,1.18,0,0,1,29,.28a1.16,1.16,0,0,1,1.29,1.27A1.17,1.17,0,0,1,29,2.84Z"/><path class="cls-1" d="M39.76,15.45V14.34l1-.12c.26,0,.36-.12.36-.4V9c0-1.31-.26-2.58-1.75-2.58a5.09,5.09,0,0,0-3.13,1.29v6.07c0,.32,0,.36.32.4l1.13.14v1.09H33V14.34l1-.12c.28,0,.32-.1.32-.4V7c0-.22-.06-.36-.26-.42L33,6.15l.18-1.07h2.64l.16,1.19.06,0a6.47,6.47,0,0,1,3.73-1.41c2.32,0,3.19,1.49,3.19,3.69v5.25c0,.32,0,.36.32.4l1.15.14v1.09Z"/><path class="cls-1" d="M54.22,14.79a7.38,7.38,0,0,1-3.67.91c-3.65,0-4.84-2.4-4.84-5.41,0-3.69,2.06-5.41,4.6-5.41s4.16,1.33,4.16,4.82c0,.26,0,.67,0,1H47.65c.06,2,.89,3.43,3.09,3.43a5.8,5.8,0,0,0,2.9-.73ZM52.63,9.32c0-2.3-1.09-3-2.32-3s-2.48.73-2.64,3Z"/><path class="cls-1" d="M56,15.45V14.34l1.29-.12c.28,0,.32-.1.32-.4V6.68c0-.12,0-.2-.16-.2H56V5.08h1.61V3.55C57.63,1.19,58.82,0,61.32,0c1.65,0,3,.4,3,2.4l-1.71.24c0-1.07-.46-1.27-1.39-1.27-1.49,0-1.77.81-1.77,2.12V4.88c0,.14,0,.2.16.2h3.31V6.48H59.47v7.3c0,.32,0,.38.32.4l2.36.18v1.09Z"/><path class="cls-1" d="M64.21,15.45V14.34l1.29-.12c.28,0,.32-.1.32-.4V6.68c0-.12,0-.2-.16-.2H64.21V5.08h1.61V3.55C65.82,1.19,67,0,69.51,0c1.65,0,3,.4,3,2.4l-1.71.24c0-1.07-.46-1.27-1.39-1.27-1.49,0-1.78.81-1.78,2.12V4.88c0,.14,0,.2.16.2h3.31V6.48H67.66v7.3c0,.32,0,.38.32.4l2.36.18v1.09Z"/><path class="cls-1" d="M72.52,15.45V14.34l1.33-.12c.28,0,.32-.1.32-.4V7c0-.22-.06-.36-.26-.42l-1.15-.38.18-1.07H76v8.73c0,.32,0,.36.32.4l1.29.14v1.09Zm2.3-12.61a1.18,1.18,0,0,1-1.31-1.29A1.18,1.18,0,0,1,74.82.28a1.16,1.16,0,0,1,1.29,1.27A1.17,1.17,0,0,1,74.82,2.84Z"/><path class="cls-1" d="M87,14.85a6.8,6.8,0,0,1-3.45.85c-3.45,0-4.92-2.12-4.92-5.31,0-3.83,2.22-5.51,5.29-5.51a7.39,7.39,0,0,1,3.07.63V8.19l-1.35-.06L85.35,6.8a.29.29,0,0,0-.24-.28,4.58,4.58,0,0,0-1.37-.18c-1.8,0-3.23,1-3.23,3.93s1.33,3.91,3.29,3.91a5.39,5.39,0,0,0,2.58-.67Z"/><path class="cls-1" d="M88.11,15.45V14.34l1.33-.12c.28,0,.32-.1.32-.4V7c0-.22-.06-.36-.26-.42l-1.15-.38.18-1.07H91.6v8.73c0,.32,0,.36.32.4l1.29.14v1.09Zm2.3-12.61A1.18,1.18,0,0,1,89.1,1.55,1.18,1.18,0,0,1,90.41.28,1.16,1.16,0,0,1,91.7,1.55,1.17,1.17,0,0,1,90.41,2.84Z"/><path class="cls-1" d="M102.7,14.79a7.38,7.38,0,0,1-3.67.91c-3.65,0-4.84-2.4-4.84-5.41,0-3.69,2.06-5.41,4.6-5.41s4.16,1.33,4.16,4.82c0,.26,0,.67,0,1H96.12c.06,2,.89,3.43,3.09,3.43a5.8,5.8,0,0,0,2.9-.73ZM101.1,9.32c0-2.3-1.09-3-2.32-3s-2.48.73-2.64,3Z"/><path class="cls-1" d="M111.25,15.45V14.34l1-.12c.26,0,.36-.12.36-.4V9c0-1.31-.26-2.58-1.75-2.58a5.08,5.08,0,0,0-3.13,1.29v6.07c0,.32,0,.36.32.4l1.13.14v1.09h-4.62V14.34l1-.12c.28,0,.32-.1.32-.4V7c0-.22-.06-.36-.26-.42l-1.15-.38.18-1.07h2.64l.16,1.19.06,0a6.47,6.47,0,0,1,3.73-1.41c2.32,0,3.19,1.49,3.19,3.69v5.25c0,.32,0,.36.32.4l1.15.14v1.09Z"/><path class="cls-1" d="M124,15.07a7.63,7.63,0,0,1-2.8.63c-1.94,0-2.8-.91-2.8-2.72V6.68c0-.12,0-.2-.16-.2H116.8V5.31c1.57-.2,2-.83,2.28-2.88h1.19V4.88c0,.12,0,.2.16.2h3V6.48h-3.13v6c0,1.27.3,1.75,1.45,1.75a5.29,5.29,0,0,0,1.88-.4Z"/><path class="cls-1" d="M126.75,15.69a1.16,1.16,0,0,1-1.33-1.27,1.33,1.33,0,0,1,2.66,0A1.16,1.16,0,0,1,126.75,15.69Z"/></svg>