<svg id="Layer_1" data-name="Layer 1" xmlns="http://www.w3.org/2000/svg" viewBox="0 0 109.07 88.43"><defs><style>.cls-1{fill:#76236c;}.cls-2{fill:none;stroke:#fff;stroke-linecap:round;stroke-linejoin:round;stroke-width:1.95px;}.cls-3{fill:#fff;}</style></defs><path class="cls-1" d="M54.54,79.88C24.42,79.88,0,62,0,39.94S24.42,0,54.54,0s54.53,17.88,54.53,39.94S84.65,79.88,54.54,79.88"/><path class="cls-1" d="M80,76.81c0,6.57-6.55,11.77-14.63,11.62s-14.62-5.6-14.61-12.16S57.32,64.49,65.4,64.64,80,70.24,80,76.81"/><path class="cls-2" d="M92,36.57l-5.29,5.28L67.09,22.26,72.37,17M53.92,27.25h8.72a5.23,5.23,0,0,0,3.7-1.53l2.17-2.11m0,0L81.63,36.73"/><path class="cls-3" d="M88.21,32.83a1.53,1.53,0,1,1-1.53-1.54,1.53,1.53,0,0,1,1.53,1.54"/><path class="cls-2" d="M74.28,45.73l8.13-8.14m-62.47-1,5.28,5.28,19.6-19.59L39.53,17m3.06,15a6.23,6.23,0,0,0,0,8.8m.3,8.45-2.47,2.47a3.16,3.16,0,0,1-4.36.14A3.1,3.1,0,0,1,36,47.37L47.61,35.75a4.78,4.78,0,0,1,3.44-1.42l5.68,0,2.57,2.57a6.18,6.18,0,0,0,7,1.22,1.56,1.56,0,0,0,.44-2.51l-7-7a4.87,4.87,0,0,0-3.44-1.42H49.28a5.23,5.23,0,0,1-3.7-1.53l-1.92-1.81m-.19-.3L29.33,37.75m8.29,8-8.13-8.14M69.12,58.06a3.09,3.09,0,1,0,4.38-4.37l-5.35-5.35a3.09,3.09,0,0,0-4.38,4.37Zm-5.27,3.48a3.09,3.09,0,0,0,4.37-4.38l-3.55-3.55A3.09,3.09,0,1,0,60.3,58Zm7.73-9.77A3.09,3.09,0,0,0,76,47.4L72.4,43.85A3.09,3.09,0,1,0,68,48.22ZM58.57,65A3.1,3.1,0,1,0,63,60.63L61.2,58.89a3.09,3.09,0,0,0-4.37,4.37Zm-8.78-14-7,7a3.09,3.09,0,0,1-4.37-4.38l7-7m8.75,8.75-6.09,6.08a3.09,3.09,0,1,1-4.37-4.37l3.55-3.55m8.88,8.61L53.36,65A3.09,3.09,0,1,1,49,60.61l1.74-1.75"/><path class="cls-3" d="M23.69,32.83a1.54,1.54,0,1,0,1.53-1.54,1.54,1.54,0,0,0-1.53,1.54"/><path class="cls-2" d="M74.28,36.93a6.23,6.23,0,0,1,0,8.8"/></svg>