<?xml version="1.0" encoding="UTF-8"?>
<svg xmlns="http://www.w3.org/2000/svg" version="1.1" viewBox="0 0 247.4 61.1">
  <defs>
    <style>
      .cls-1 {
        fill: #ffbf3f;
      }

      .cls-2 {
        fill: #002d72;
      }
    </style>
  </defs>
  <!-- Generator: Adobe Illustrator 28.7.1, SVG Export Plug-In . SVG Version: 1.2.0 Build 142)  -->
  <g>
    <g id="Layer_1">
      <rect class="cls-1" width="247.4" height="61.1" rx="6.6" ry="6.6"/>
      <g>
        <path class="cls-2" d="M31.7,18.3h3.9v20.7h11v3.5h-14.9v-24.1Z"/>
        <path class="cls-2" d="M53,34.7c.5,2.9,2.8,4.7,5.9,4.7s3.6-.7,5.2-2.1l1.8,2.6c-2,1.9-4.4,2.9-7.2,2.9-5.5,0-9.7-4.1-9.7-9.4-.1-5.2,4.2-9.5,9.3-9.4,4.8,0,8.3,3.5,8.3,8.2s-.1,1.6-.3,2.4h-13.4ZM62.8,31.7c0-2.7-2.1-4.4-4.6-4.4s-4.6,1.7-5.2,4.4h9.8Z"/>
        <path class="cls-2" d="M85.3,42.5h-3.6v-2c-1.3,1.6-3.3,2.4-5.7,2.4-3.8,0-6.3-2.1-6.3-5.2s2.6-5.1,6.6-5.1h5.1v-1.2c0-2.5-1.4-3.8-3.8-3.8s-3.5.9-5,2.7l-2.2-2.3c1.8-2.6,4.5-3.8,7.6-3.8,4.4,0,7.4,2.7,7.4,7.5v10.9ZM81.4,35.3h-4.6c-2,0-3.2.7-3.2,2.2s1.3,2.4,3.1,2.4,4.6-1.8,4.6-4.2v-.3Z"/>
        <path class="cls-2" d="M100.9,27.9h-1.2c-3,0-5.3,1.8-5.3,5v9.6h-3.8v-18h3.6v2.3c1.3-1.6,3.2-2.5,5.2-2.5s1,0,1.5.2v3.4Z"/>
        <path class="cls-2" d="M120,42.5h-3.8v-10.7c0-2.5-1.6-4.2-3.9-4.2s-4.1,1.7-4.1,4.2v10.7h-3.8v-18h3.6v1.8c1.4-1.4,3.1-2.2,5.4-2.2,4.2,0,6.7,2.9,6.7,7.1v11.2Z"/>
        <path class="cls-2" d="M158.8,17.9v24.5h-3.9v-15.1l-6.9,9.1h-1.3l-6.9-9.1v15.2h-3.9v-24.5h1.4l10.1,13.5,10.1-13.5h1.3Z"/>
        <path class="cls-2" d="M172.8,24.1c5.2-.1,9.7,4.3,9.5,9.4.1,5.1-4.3,9.5-9.5,9.4-5.2.1-9.6-4.3-9.5-9.4-.1-5.2,4.3-9.4,9.5-9.4ZM172.8,27.6c-3.2,0-5.6,2.6-5.6,5.9s2.4,5.8,5.6,5.8,5.6-2.6,5.6-5.8-2.5-5.9-5.6-5.9Z"/>
        <path class="cls-2" d="M197,27.9h-1.2c-3,0-5.3,1.8-5.3,5v9.6h-3.8v-18h3.6v2.3c1.3-1.6,3.2-2.5,5.2-2.5s1,0,1.5.2v3.4Z"/>
        <path class="cls-2" d="M202.9,34.7c.5,2.9,2.8,4.7,5.9,4.7s3.6-.7,5.2-2.1l1.8,2.6c-2,1.9-4.4,2.9-7.2,2.9-5.5,0-9.7-4.1-9.7-9.4-.1-5.2,4.2-9.5,9.3-9.4,4.8,0,8.3,3.5,8.3,8.2s-.1,1.6-.3,2.4h-13.4ZM212.7,31.7c0-2.7-2.1-4.4-4.6-4.4s-4.6,1.7-5.2,4.4h9.8Z"/>
      </g>
    </g>
  </g>
</svg>