<?xml version="1.0" encoding="UTF-8"?>
<svg xmlns="http://www.w3.org/2000/svg" version="1.1" viewBox="0 0 453.2 48.9">
  <defs>
    <style>
      .cls-1 {
        fill: #002d72;
      }
    </style>
  </defs>
  <!-- Generator: Adobe Illustrator 28.7.1, SVG Export Plug-In . SVG Version: 1.2.0 Build 142)  -->
  <g>
    <g id="Layer_1">
      <g>
        <path class="cls-1" d="M0,.9h17.7c9.9,0,17,6.1,17,15.2s-7.1,15.3-17,15.3h-8.1v16.7H0V.9ZM17.7,22.9c4.5,0,7.1-2.8,7.1-6.9s-2.8-6.7-7.1-6.7h-8.1v13.6h8.1Z"/>
        <path class="cls-1" d="M64.6,41.9h-19.3l-2.6,6.1h-10.4L53.3,0h3.2l21,48h-10.4l-2.6-6.1ZM54.9,18l-6.3,15.9h12.6l-6.3-15.9Z"/>
        <path class="cls-1" d="M112.9,48l-12.2-16.7h-7.1v16.7h-9.7V.9h17.7c9.9,0,17,6.1,17,15.2s-3.1,10.9-8.3,13.4l13.4,18.5h-10.9ZM93.6,22.9h8.1c4.5,0,7.1-2.7,7.1-6.8s-2.8-6.7-7.1-6.7h-8.1v13.5Z"/>
        <path class="cls-1" d="M138.6,9.6h-15.1V.9h39.9v8.7h-15.2v38.5h-9.7V9.6Z"/>
        <path class="cls-1" d="M210,.9v48h-3.2l-27.3-29.2v28.3h-9.7V0h3.1l27.4,29V.9h9.7Z"/>
        <path class="cls-1" d="M220.7.9h31.7v8.7h-22.1v9.6h16.2v8.2h-16.2v11.9h22.9v8.7h-32.6V.9Z"/>
        <path class="cls-1" d="M290.7,48l-12.2-16.7h-7.1v16.7h-9.7V.9h17.7c9.9,0,17,6.1,17,15.2s-3.1,10.9-8.3,13.4l13.4,18.5h-10.9ZM271.4,22.9h8.1c4.5,0,7.1-2.7,7.1-6.8s-2.8-6.7-7.1-6.7h-8.1v13.5Z"/>
        <path class="cls-1" d="M310.5,33.5c3.1,4.2,6.4,6.9,11.6,6.9s6.7-2,6.7-5.2-1.5-3.8-6-5.9l-5.1-2.3c-7.2-3.2-11.4-7.3-11.4-13.6s6.7-13.4,15.7-13.4,12.7,3.5,15.6,8.9l-6.6,5.1c-2.4-3.6-5.4-5.4-9-5.4s-5.9,1.6-5.9,4.6,1.5,3.6,5.5,5.4l5.4,2.4c7.9,3.5,11.7,7.4,11.7,13.8s-7.1,14.2-16.5,14.2-14.6-4.1-18.2-10.4l6.6-5Z"/>
        <path class="cls-1" d="M347.1.9h9.7v18.1h20.9V.9h9.7v47.2h-9.7v-20.4h-20.9v20.4h-9.7V.9Z"/>
        <path class="cls-1" d="M398,.9h9.7v47.2h-9.7V.9Z"/>
        <path class="cls-1" d="M418.5.9h17.7c9.9,0,17,6.1,17,15.2s-7.1,15.3-17,15.3h-8.1v16.7h-9.7V.9ZM436.2,22.9c4.5,0,7.1-2.8,7.1-6.9s-2.8-6.7-7.1-6.7h-8.1v13.6h8.1Z"/>
      </g>
    </g>
  </g>
</svg>