<?xml version="1.0" encoding="UTF-8"?>
<svg xmlns="http://www.w3.org/2000/svg" version="1.1" viewBox="0 0 207.9 40.7">
  <defs>
    <style>
      .cls-1 {
        fill: #002d72;
      }
    </style>
  </defs>
  <!-- Generator: Adobe Illustrator 28.7.1, SVG Export Plug-In . SVG Version: 1.2.0 Build 142)  -->
  <g>
    <g id="Layer_1">
      <g>
        <path class="cls-1" d="M0,.7h24.7v4.2H4.7v13.6h16.6v4.2H4.7v17.4H0V.7Z"/>
        <path class="cls-1" d="M48.8,0c11-.2,20.7,9.1,20.5,20.4.2,11.3-9.4,20.5-20.5,20.4-11.2.2-20.7-9.2-20.4-20.4C28.2,9.1,37.7-.2,48.8,0ZM48.9,4.3c-8.9,0-15.6,6.9-15.6,16s6.7,16.1,15.6,16.1c8.7.1,15.8-7.1,15.6-16.1.2-8.9-6.9-16.2-15.6-16Z"/>
        <path class="cls-1" d="M102.9,40.1l-12.2-16.5h-8.4v16.5h-4.7V.7h13.9c7.6,0,12.6,4.8,12.6,11.4s-3.1,9.4-8.3,10.9l12.6,17.1h-5.4ZM82.3,19.3h9c5.1,0,7.9-2.9,7.9-7.2s-2.9-7.3-7.9-7.3h-9v14.5Z"/>
        <path class="cls-1" d="M151,0v40.1h-4.7V11.8l-12.6,17.1h-1.7l-12.7-17.2v28.4h-4.7V0h1.7l16.4,22.7L149.4,0h1.6Z"/>
        <path class="cls-1" d="M199.6,32.1h-19.3l-3.3,8h-4.9L189.1,0h1.7l17.1,40.1h-5l-3.3-8ZM189.9,8.5l-7.9,19.4h15.8l-7.9-19.4Z"/>
      </g>
    </g>
  </g>
</svg>