<?xml version="1.0" encoding="UTF-8"?>
<svg xmlns="http://www.w3.org/2000/svg" version="1.1" viewBox="0 0 241.1 32.5">
  <defs>
    <style>
      .cls-1 {
        fill: #ffbf3f;
      }
    </style>
  </defs>
  <!-- Generator: Adobe Illustrator 28.7.1, SVG Export Plug-In . SVG Version: 1.2.0 Build 142)  -->
  <g>
    <g id="Layer_1">
      <g>
        <path class="cls-1" d="M11.1,3.9H0V.5h25.9v3.3h-11.1v28.1h-3.7V3.9Z"/>
        <path class="cls-1" d="M31.1.5h3.7v13h17.6V.5h3.7v31.5h-3.7v-15.2h-17.6v15.2h-3.7V.5Z"/>
        <path class="cls-1" d="M84,25.6h-15.4l-2.7,6.4h-3.9L75.6,0h1.4l13.6,32h-4l-2.7-6.4ZM76.3,6.8l-6.3,15.5h12.6l-6.3-15.5Z"/>
        <path class="cls-1" d="M100.5,3.9h-11.1V.5h25.9v3.3h-11.1v28.1h-3.7V3.9Z"/>
        <path class="cls-1" d="M145.8,0c5.3,0,9.9,2.4,12.8,6.4l-2.8,2.2c-2.4-3.3-5.8-5.2-10-5.2-7.1-.1-12.6,5.7-12.5,12.8-.1,7.2,5.4,13.1,12.7,13,4.6,0,8.3-2.2,10.5-5.6v-4.2h-10.7v-3.3h14.4v8.4c-1.4,2.5-3.4,4.5-6,6-2.5,1.5-5.3,2.2-8.4,2.2-9,.1-16.5-7.2-16.3-16.2C129.3,7.2,136.8-.1,145.8,0Z"/>
        <path class="cls-1" d="M167.1.5h20.2v3.3h-16.4v9.6h12.6v3.3h-12.6v11.8h17v3.3h-20.7V.5Z"/>
        <path class="cls-1" d="M201.7,3.9h-11.1V.5h25.9v3.3h-11.1v28.1h-3.7V3.9Z"/>
        <path class="cls-1" d="M222.1,23.7c2.3,3.6,5.3,5.4,8.8,5.4s6.3-2,6.3-5.2-1.7-3.8-5.2-5.5l-3.5-1.7c-4.3-2-7.1-4.2-7.1-8.4S225.7,0,230.8,0s7.8,2.1,9.9,5.3l-2.7,2c-1.7-2.5-4.3-4-7.2-4s-5.6,1.7-5.6,4.6.2,1.7.6,2.3c.8,1.2,2,1.8,4.4,3l3.5,1.7c5,2.4,7.3,4.7,7.3,8.8s-4.3,8.8-10.2,8.8-9.1-2.6-11.6-6.8l2.8-2Z"/>
      </g>
    </g>
  </g>
</svg>