<?xml version="1.0" encoding="UTF-8"?>
<svg xmlns="http://www.w3.org/2000/svg" version="1.1" viewBox="0 0 470.5 148.8">
  <defs>
    <style>
      .cls-1 {
        fill: #ffbf3f;
      }
    </style>
  </defs>
  <!-- Generator: Adobe Illustrator 28.7.1, SVG Export Plug-In . SVG Version: 1.2.0 Build 142)  -->
  <g>
    <g id="Layer_1">
      <g>
        <path class="cls-1" d="M51,0v53.1h-10.7v-27.8l-13.1,16.4h-3.5l-13.1-16.4v27.8H0V0h3.5l22,28.2L47.5,0h3.5Z"/>
        <path class="cls-1" d="M87.7,0c15-.3,28,12.1,27.8,27,.2,14.9-12.8,27.3-27.8,27-15,.3-27.9-12.1-27.6-27C59.8,12.1,72.7-.3,87.7,0ZM87.8,9.9c-9.6,0-16.7,7.1-16.7,17.1s7.1,17.1,16.7,17.1,16.7-7.1,16.7-17.1-7.2-17.1-16.7-17.1Z"/>
        <path class="cls-1" d="M156.5,53.1l-13.5-18.4h-7.8v18.4h-10.7V1h19.6c10.9,0,18.8,6.8,18.8,16.8s-3.5,12-9.2,14.8l14.8,20.5h-12ZM135.1,25.3h8.9c5,0,7.9-3,7.9-7.5s-3.1-7.4-7.9-7.4h-8.9v14.9Z"/>
        <path class="cls-1" d="M175,1h35.1v9.6h-24.4v10.6h17.9v9.1h-17.9v13.2h25.4v9.6h-36V1Z"/>
        <path class="cls-1" d="M242.4,1h17.1c16.5-.2,28.7,10.5,28.4,25.9.2,15.1-11.9,26.5-28.4,26.2h-17.1V1ZM259.4,43.4c10.5,0,17.5-6.6,17.5-16.6s-6.9-16.3-17.5-16.3h-6.3v32.9h6.3Z"/>
        <path class="cls-1" d="M296.9,1h35.1v9.6h-24.4v10.6h17.9v9.1h-17.9v13.2h25.4v9.6h-36V1Z"/>
        <path class="cls-1" d="M372.9,46.3h-21.3l-2.9,6.8h-11.5L360.5,0h3.6l23.2,53.1h-11.5l-2.9-6.8ZM362.2,19.9l-7,17.6h13.9l-7-17.6Z"/>
        <path class="cls-1" d="M394.4,1h10.7v42.5h22.8v9.6h-33.5V1Z"/>
        <path class="cls-1" d="M439.5,37c3.4,4.7,7.1,7.6,12.8,7.6s7.4-2.2,7.4-5.8-1.7-4.2-6.6-6.5l-5.6-2.5c-8-3.6-12.6-8.1-12.6-15S442.2,0,452.1,0s14,3.9,17.2,9.9l-7.3,5.6c-2.7-4-6-6-10-6s-6.5,1.8-6.5,5.1,1.7,4,6.1,6l5.9,2.6c8.8,3.9,12.9,8.2,12.9,15.2s-7.8,15.6-18.2,15.6-16.1-4.5-20.1-11.5l7.3-5.5Z"/>
        <path class="cls-1" d="M142.3,95.7h17.1c16.5-.2,28.7,10.5,28.4,25.9.2,15.1-11.9,26.5-28.4,26.2h-17.1v-52.1ZM159.2,138.2c10.5,0,17.5-6.6,17.5-16.6s-6.9-16.3-17.5-16.3h-6.3v32.9h6.3Z"/>
        <path class="cls-1" d="M221.4,94.8c15-.3,28,12.1,27.8,27,.2,14.9-12.8,27.3-27.8,27-15,.3-27.9-12.1-27.6-27-.2-14.9,12.6-27.3,27.6-27ZM221.5,104.7c-9.6,0-16.7,7.1-16.7,17.1s7.1,17.1,16.7,17.1,16.7-7.1,16.7-17.1-7.2-17.1-16.7-17.1Z"/>
        <path class="cls-1" d="M302.6,95.7v53.1h-3.6l-30.2-32.2v31.3h-10.7v-53.1h3.5l30.2,32.1v-31.1h10.7Z"/>
        <path class="cls-1" d="M314.5,95.7h35.1v9.6h-24.4v10.6h17.9v9.1h-17.9v13.2h25.4v9.6h-36v-52.1Z"/>
      </g>
    </g>
  </g>
</svg>