<?xml version="1.0" encoding="UTF-8"?>
<svg xmlns="http://www.w3.org/2000/svg" version="1.1" viewBox="0 0 431.4 34.9">
  <defs>
    <style>
      .cls-1 {
        fill: #ffbf3f;
      }
    </style>
  </defs>
  <!-- Generator: Adobe Illustrator 28.7.1, SVG Export Plug-In . SVG Version: 1.2.0 Build 142)  -->
  <g>
    <g id="Layer_1">
      <g>
        <path class="cls-1" d="M3,25.5c2.5,3.8,5.7,5.8,9.4,5.8s6.8-2.2,6.8-5.6-1.8-4.1-5.6-5.9l-3.8-1.8c-4.7-2.2-7.6-4.6-7.6-9.1S6.8,0,12.3,0s8.4,2.3,10.6,5.7l-2.9,2.2c-1.8-2.7-4.7-4.3-7.7-4.3s-6,1.8-6,4.9.2,1.8.7,2.5c.9,1.3,2.1,1.9,4.8,3.2l3.7,1.8c5.3,2.6,7.9,5.1,7.9,9.4s-4.6,9.4-10.9,9.4-9.8-2.8-12.4-7.3l3-2.2Z"/>
        <path class="cls-1" d="M31.1.6h21.7v3.6h-17.7v10.3h13.5v3.6h-13.5v12.7h18.3v3.6h-22.3V.6Z"/>
        <path class="cls-1" d="M60.1.6h21.7v3.6h-17.7v10.3h13.5v3.6h-13.5v12.7h18.3v3.6h-22.3V.6Z"/>
        <path class="cls-1" d="M148.5.6l-12.8,34.4h-1.4l-10.7-26.8-10.7,26.8h-1.4L98.6.6h4.4l9.3,25.8L122.8,0h1.4l10.6,26.3L144.1.6h4.4Z"/>
        <path class="cls-1" d="M155.5.6h4v13.9h19V.6h4v33.8h-4v-16.3h-19v16.3h-4V.6Z"/>
        <path class="cls-1" d="M204.9,20.4v14h-4v-14L189.2.6h4.5l9.2,15.9,9.3-15.9h4.5l-11.7,19.8Z"/>
        <path class="cls-1" d="M280.7.6l-12.8,34.4h-1.4l-10.7-26.8-10.7,26.8h-1.4L230.7.6h4.4l9.3,25.8L255,0h1.4l10.6,26.3,9.3-25.7h4.4Z"/>
        <path class="cls-1" d="M287.7.6h21.7v3.6h-17.7v10.3h13.5v3.6h-13.5v12.7h18.3v3.6h-22.3V.6Z"/>
        <path class="cls-1" d="M317.5.6h4.6l-2.2,13.2h-3.1l.7-13.2Z"/>
        <path class="cls-1" d="M352.7,34.4l-10.5-14.2h-7.2v14.2h-4V.6h11.9c6.6,0,10.8,4.1,10.8,9.8s-2.7,8.1-7.1,9.4l10.8,14.7h-4.7ZM335,16.6h7.7c4.4,0,6.8-2.5,6.8-6.2s-2.5-6.2-6.8-6.2h-7.7v12.4Z"/>
        <path class="cls-1" d="M362.9.6h21.7v3.6h-17.7v10.3h13.5v3.6h-13.5v12.7h18.3v3.6h-22.3V.6Z"/>
        <path class="cls-1" d="M424.2,27.5h-16.6l-2.9,6.9h-4.2L415.2,0h1.5l14.6,34.4h-4.3l-2.9-6.9ZM415.9,7.3l-6.8,16.6h13.5l-6.8-16.6Z"/>
      </g>
    </g>
  </g>
</svg>