<?xml version="1.0" encoding="UTF-8"?>
<svg xmlns="http://www.w3.org/2000/svg" version="1.1" viewBox="0 0 512.3 153.1">
  <defs>
    <style>
      .cls-1 {
        fill: #ffbf3f;
      }
    </style>
  </defs>
  <!-- Generator: Adobe Illustrator 28.7.1, SVG Export Plug-In . SVG Version: 1.2.0 Build 142)  -->
  <g>
    <g id="Layer_1">
      <g>
        <path class="cls-1" d="M126,12h-18.8V1.1h49.8v10.9h-18.9v48h-12.1V12Z"/>
        <path class="cls-1" d="M191.6,0c17-.4,31.7,13.7,31.4,30.5.3,16.9-14.5,30.9-31.4,30.5-17,.4-31.5-13.7-31.3-30.5C160.1,13.7,174.7-.4,191.6,0ZM191.7,11.2c-10.9,0-18.9,8-18.9,19.4s8,19.4,18.9,19.4,18.9-8,18.9-19.4-8.1-19.4-18.9-19.4Z"/>
        <path class="cls-1" d="M233.3,1.1h22.1c12.3,0,21.3,7.7,21.3,19s-8.9,19.1-21.3,19.1h-10.1v20.8h-12.1V1.1ZM255.4,28.7c5.6,0,8.9-3.5,8.9-8.6s-3.5-8.4-8.9-8.4h-10.1v17h10.1Z"/>
        <path class="cls-1" d="M349.4,49.8v10.3h-43.5c0,0,0-2.5,0-2.5l21.1-22.9c5.8-6.3,8.3-10.4,8.3-14.8s-3.2-8.7-8.2-8.7-8.3,3.7-8.3,9,.2,2.5.4,4.3h-12.1c-.4-1.6-.6-3.3-.6-5C306.4,9.5,314.6,0,327.2,0s20.5,8.1,20.5,18.8-1.1,7.7-3.2,11.2c-2.1,3.4-5.3,7.3-9.5,11.7l-7.6,8h22Z"/>
        <path class="cls-1" d="M377.8,61.1c-10,0-17.9-5.3-21.9-13.4l8.4-5.9c3.5,5.4,7.4,8.1,13.1,8.1s10.5-3.5,10.5-9.1-4.2-8.5-12.1-8.5h-13.8V1.1h34.8v10.9h-23.2v10.7c2.2-.4,4.5-.7,6.7-.7,10.2,0,19.9,6.7,19.9,18.7s-10,20.5-22.6,20.5Z"/>
        <path class="cls-1" d="M8.3,133.8c3.8,5.3,8,8.6,14.5,8.6s8.4-2.5,8.4-6.5-1.9-4.7-7.5-7.3l-6.3-2.9c-9-4-14.3-9.1-14.3-17s8.4-16.7,19.6-16.7,15.8,4.4,19.5,11.2l-8.2,6.3c-3-4.6-6.8-6.8-11.3-6.8s-7.3,2.1-7.3,5.7,1.9,4.6,6.9,6.8l6.7,2.9c9.9,4.4,14.6,9.3,14.6,17.2s-8.8,17.7-20.6,17.7-18.2-5.1-22.8-13l8.3-6.3Z"/>
        <path class="cls-1" d="M80.3,152h-26.3v-58.9h20.9c10.9,0,18.7,6.8,18.7,16.4s-1.4,7.9-4.4,10.6c6.5,2.4,10.4,7.4,10.4,14.6,0,10.2-8,17.3-19.4,17.3ZM65.6,103.4v13.5h8.3c4.9,0,7.7-2.6,7.7-6.8s-2.8-6.7-7.7-6.7h-8.3ZM79.4,126.8h-13.8v14.8h13.8c5.3,0,8.4-2.8,8.4-7.4s-3.1-7.4-8.4-7.4Z"/>
        <path class="cls-1" d="M143.3,144.3h-24.1l-3.3,7.7h-13l26.3-60h4l26.3,60h-13l-3.3-7.7ZM131.3,114.5l-7.9,19.9h15.7l-7.9-19.9Z"/>
        <path class="cls-1" d="M188.2,93.1h12.1v48h25.8v10.9h-37.9v-58.9Z"/>
        <path class="cls-1" d="M235,93.1h39.7v10.9h-27.6v12h20.3v10.3h-20.3v14.9h28.7v10.9h-40.7v-58.9Z"/>
        <path class="cls-1" d="M336.3,93.1v60h-4l-34.1-36.4v35.4h-12.1v-60h3.9l34.2,36.3v-35.2h12.1Z"/>
        <path class="cls-1" d="M349.8,93.1h19.3c18.7-.2,32.4,11.9,32.2,29.3.3,17.1-13.5,29.9-32.2,29.7h-19.3v-58.9ZM369,141.1c11.9,0,19.8-7.4,19.8-18.8s-7.8-18.4-19.8-18.4h-7.1v37.2h7.1Z"/>
        <path class="cls-1" d="M411.4,93.1h39.7v10.9h-27.6v12h20.3v10.3h-20.3v14.9h28.7v10.9h-40.7v-58.9Z"/>
        <path class="cls-1" d="M498.8,152l-15.3-20.8h-8.8v20.8h-12.1v-58.9h22.1c12.3,0,21.3,7.7,21.3,19s-3.9,13.6-10.4,16.8l16.7,23.1h-13.6ZM474.7,120.6h10.1c5.6,0,8.9-3.4,8.9-8.5s-3.5-8.4-8.9-8.4h-10.1v16.9Z"/>
      </g>
    </g>
  </g>
</svg>