<svg id="Layer_1" data-name="Layer 1" xmlns="http://www.w3.org/2000/svg" viewBox="0 0 111.95 91.67"><defs><style>.cls-1{fill:#008996;}.cls-2,.cls-3{fill:none;}.cls-2{stroke:#fff;stroke-linecap:round;stroke-linejoin:round;stroke-width:3.49px;}</style></defs><path class="cls-1" d="M56,11.49C84.73,11.49,108,28.56,108,49.62S84.73,87.75,56,87.75,3.91,70.68,3.91,49.62,27.22,11.49,56,11.49"/><path class="cls-1" d="M31.65,14.41c0-6.27,6.26-11.23,14-11.09s14,5.34,14,11.61S53.31,26.17,45.6,26s-14-5.34-14-11.62"/><path class="cls-2" d="M66.85,23.74V21.3H73v7.32M57.07,21.3,77.85,37.17M57.07,21.3,36.29,37.17m4.89,11V33.43M73,46.93V33.43M27.74,61.58l3.66-3.66L47.29,73.79l-3.66,3.66m6.11-18.31h11.7a3.66,3.66,0,0,0,0-7.32H44.85A7.35,7.35,0,0,0,40,54.26l-6.11,6.1m14.66-1.22H63.28a4.25,4.25,0,0,0,2.57-.86l9.55-7.69A3.61,3.61,0,0,1,81.52,53c0,1.57-1.33,2.67-2.45,3.66l-11,8.54a5,5,0,0,1-3.67,1.22H49.74a3.81,3.81,0,0,0-2.45,1.23l-3,3"/><rect class="cls-3" x="1.21" y="-1.12" width="106.84" height="88.87"/></svg>