<?xml version="1.0" encoding="UTF-8"?>
<svg id="Layer_1" data-name="Layer 1" xmlns="http://www.w3.org/2000/svg" version="1.1" viewBox="0 0 470.5 50.8">
  <defs>
    <style>
      .cls-1 {
        fill: #ffbf3f;
        stroke-width: 0px;
      }
    </style>
  </defs>
  <path class="cls-1" d="M0,5.4h5.5v35.2H0V5.4ZM28.6,40.6h-6.9L5.6,21.9,20.1,5.4h6.8l-14.4,16.5,15.9,18.7h.1Z"/>
  <path class="cls-1" d="M35.9,29.4c.6,4.2,4,6.9,8.3,6.9s5.3-1,7.6-3.1l2.6,3.8c-2.9,2.8-6.4,4.2-10.3,4.2-7.8,0-13.8-5.9-13.8-13.7-.1-7.6,6-13.8,13.3-13.7,6.8,0,11.9,5.1,11.9,12s-.1,2.3-.4,3.5h-19.2ZM50,25c0-4-2.9-6.4-6.7-6.4s-6.5,2.6-7.4,6.4h14.1Z"/>
  <path class="cls-1" d="M65.9,29.4c.6,4.2,4,6.9,8.3,6.9s5.3-1,7.6-3.1l2.6,3.8c-2.9,2.8-6.4,4.2-10.3,4.2-7.8,0-13.8-5.9-13.8-13.7-.1-7.6,6-13.8,13.3-13.7,6.8,0,11.9,5.1,11.9,12s-.1,2.3-.4,3.5c0,0-19.2,0-19.2,0ZM80,25c0-4-2.9-6.4-6.7-6.4s-6.5,2.6-7.4,6.4h14.1Z"/>
  <path class="cls-1" d="M105.9,41.1c-3.5,0-6.5-1.4-8.6-3.8v12.8h-5.5V14.4h5.1v3.7c1.9-2.7,5.3-4.2,9-4.2,7.3,0,12.7,5.9,12.7,13.7s-5.4,13.7-12.7,13.7h0ZM105,19c-4.1,0-7.8,2.8-7.8,8.6s3.7,8.6,7.8,8.6,7.8-3.5,7.8-8.6-3.5-8.6-7.8-8.6Z"/>
  <path class="cls-1" d="M163.3,14.4l-12.6,29.2c-2.2,5-5,7.2-9.5,7.2s-2.8-.1-4.2-.5v-4.7c1.7.1,2.6.3,3.1.3,2.6,0,4.4-.9,5.6-3.8l1-2.4-10.3-25h5.9l7.4,19.1,7.6-19.1h5.9Z"/>
  <path class="cls-1" d="M179.2,13.8c7.6-.1,13.8,6.3,13.7,13.7.1,7.4-6.2,13.8-13.7,13.7-7.4.1-13.7-6.3-13.6-13.7-.1-7.6,6.2-13.7,13.6-13.7ZM179.3,19c-4.6,0-8.1,3.7-8.1,8.6s3.5,8.5,7.9,8.5,8.1-3.7,8.1-8.5-3.5-8.6-7.9-8.6Z"/>
  <path class="cls-1" d="M198.9,14.4h5.5v15.6c0,3.6,2.4,6,5.8,6s5.6-2.3,5.6-6v-15.6h5.5v15.3c0,7-4.9,11.5-11.2,11.5s-11.3-4.5-11.3-11.5v-15.3Z"/>
  <path class="cls-1" d="M243.8,19.4h-1.7c-4.4,0-7.6,2.6-7.6,7.3v14h-5.5V14.4h5.1v3.5c1.8-2.3,4.6-3.7,7.6-3.7s1.4,0,2.1.3c0,0,0,5,0,5Z"/>
  <path class="cls-1" d="M277.6,41.1c-3.5,0-6.5-1.4-8.6-3.8v12.8h-5.5V14.4h5.1v3.7c1.9-2.7,5.3-4.2,9-4.2,7.3,0,12.7,5.9,12.7,13.7s-5.4,13.7-12.7,13.7h0ZM276.7,19c-4.1,0-7.8,2.8-7.8,8.6s3.7,8.6,7.8,8.6,7.8-3.5,7.8-8.6-3.5-8.6-7.8-8.6Z"/>
  <path class="cls-1" d="M308.5,13.8c7.6-.1,13.8,6.3,13.7,13.7.1,7.4-6.2,13.8-13.7,13.7-7.4.1-13.7-6.3-13.6-13.7-.1-7.6,6.2-13.7,13.6-13.7ZM308.5,19c-4.6,0-8.1,3.7-8.1,8.6s3.5,8.5,7.9,8.5,8.1-3.7,8.1-8.5-3.5-8.6-7.9-8.6Z"/>
  <path class="cls-1" d="M343.3,19.4h-1.7c-4.4,0-7.6,2.6-7.6,7.3v14h-5.5V14.4h5.1v3.5c1.8-2.3,4.6-3.7,7.6-3.7s1.4,0,2.1.3v5h0Z"/>
  <path class="cls-1" d="M363.5,40.6c-1.7.4-3.2.6-4.6.6-5.9,0-9.5-2.9-9.5-9.1v-12.8h-4.2v-4.9h4.2v-6.9h5.5v6.9h7.7v4.9h-7.7v12.3c0,3.3,1.8,4.5,5.1,4.5s1.9,0,3.5-.3v4.7Z"/>
  <path class="cls-1" d="M375.6,14.4h6v4.9h-6v21.4h-5.5v-21.4h-3.7v-4.9h3.7v-5.3c0-6.2,3.5-9.1,9.2-9.1s2.6.1,3.6.5v4.7c-.9,0-1.5-.1-2.2-.1-3.3,0-5,1.2-5,4.5v4.7h-.1Z"/>
  <path class="cls-1" d="M397.9,13.8c7.6-.1,13.8,6.3,13.7,13.7.1,7.4-6.2,13.8-13.7,13.7-7.4.1-13.7-6.3-13.6-13.7-.1-7.6,6.2-13.7,13.6-13.7ZM398,19c-4.6,0-8.1,3.7-8.1,8.6s3.5,8.5,7.9,8.5,8.1-3.7,8.1-8.5-3.5-8.6-7.9-8.6Z"/>
  <path class="cls-1" d="M417.8.5h5.5v40h-5.5V.5Z"/>
  <path class="cls-1" d="M434.1.9c2.1,0,3.7,1.7,3.7,3.7s-1.7,3.7-3.7,3.7-3.7-1.5-3.7-3.7,1.7-3.7,3.7-3.7ZM431.4,14.4h5.5v26.1h-5.5V14.4Z"/>
  <path class="cls-1" d="M456.8,13.8c7.6-.1,13.8,6.3,13.7,13.7.1,7.4-6.2,13.8-13.7,13.7-7.4.1-13.7-6.3-13.6-13.7-.1-7.6,6.2-13.7,13.6-13.7ZM456.8,19c-4.6,0-8.1,3.7-8.1,8.6s3.5,8.5,7.9,8.5,8.1-3.7,8.1-8.5-3.5-8.6-7.9-8.6Z"/>
</svg>