<?xml version="1.0" encoding="UTF-8"?>
<svg id="Layer_1" data-name="Layer 1" xmlns="http://www.w3.org/2000/svg" version="1.1" viewBox="0 0 290.1 32.1">
  <defs>
    <style>
      .cls-1 {
        fill: #ffbf3f;
        stroke-width: 0px;
      }
    </style>
  </defs>
  <path class="cls-1" d="M10.6,10.8c5.9-.1,10.8,4.9,10.7,10.7.1,5.8-4.8,10.8-10.7,10.7C4.8,32.3-.1,27.2,0,21.4c-.1-5.9,4.8-10.7,10.6-10.7ZM10.6,14.8c-3.6,0-6.3,2.9-6.3,6.7s2.7,6.6,6.2,6.6,6.3-2.9,6.3-6.6-2.7-6.7-6.2-6.7Z"/>
  <path class="cls-1" d="M31.2,11.2h4.7v3.8h-4.7v16.7h-4.3V15h-2.9v-3.8h2.9v-4.1c0-4.8,2.7-7.1,7.2-7.1s2,.1,2.8.4v3.7c-.7,0-1.2-.1-1.7-.1-2.6,0-3.9.9-3.9,3.5v3.7Z"/>
  <path class="cls-1" d="M59,10.8c3.7,0,6.7,1.8,8.5,4.7l-3,2.4c-1.4-2.1-3.2-3.1-5.4-3.1-3.6,0-6.3,2.9-6.3,6.6s2.7,6.7,6.3,6.7,3.9-1,5.4-3.1l3,2.4c-1.8,3-4.8,4.7-8.5,4.7-5.9,0-10.6-4.7-10.6-10.7-.1-5.9,4.9-10.7,10.6-10.7Z"/>
  <path class="cls-1" d="M81.1,10.8c5.9-.1,10.8,4.9,10.7,10.7.1,5.8-4.8,10.8-10.7,10.7-5.8.1-10.7-4.9-10.6-10.7-.1-5.9,4.8-10.7,10.6-10.7ZM81.2,14.8c-3.6,0-6.3,2.9-6.3,6.7s2.7,6.6,6.2,6.6,6.3-2.9,6.3-6.6-2.7-6.7-6.2-6.7Z"/>
  <path class="cls-1" d="M126.9,31.7h-4.3v-12.2c0-2.9-1.6-4.7-4.2-4.7s-4.4,1.9-4.4,4.5v12.4h-4.3v-12.2c0-2.8-1.6-4.7-4.2-4.7s-4.4,1.9-4.4,4.7v12.2h-4.3V11.2h4v1.9c1.4-1.5,3.4-2.4,5.8-2.4s4.9,1.2,6.1,3.2c1.5-2,4-3.2,6.8-3.2,4.6,0,7.4,3.2,7.4,8.1v12.8Z"/>
  <path class="cls-1" d="M163,31.7h-4.3v-12.2c0-2.9-1.6-4.7-4.2-4.7s-4.4,1.9-4.4,4.5v12.4h-4.3v-12.2c0-2.8-1.6-4.7-4.2-4.7s-4.4,1.9-4.4,4.7v12.2h-4.3V11.2h4v1.9c1.4-1.5,3.4-2.4,5.8-2.4s4.9,1.2,6.1,3.2c1.5-2,4-3.2,6.8-3.2,4.6,0,7.4,3.2,7.4,8.1v12.8Z"/>
  <path class="cls-1" d="M168.8,11.2h4.3v12.2c0,2.8,1.9,4.7,4.5,4.7s4.4-1.8,4.4-4.7v-12.2h4.3v11.9c0,5.5-3.8,9-8.7,9s-8.8-3.5-8.8-9v-11.9Z"/>
  <path class="cls-1" d="M209.9,31.7h-4.3v-12.2c0-2.8-1.8-4.7-4.4-4.7s-4.6,2-4.6,4.7v12.2h-4.3V11.2h4v2c1.5-1.6,3.5-2.5,6-2.5,4.7,0,7.5,3.2,7.5,8.1v12.8Z"/>
  <path class="cls-1" d="M218,.7c1.6,0,2.9,1.3,2.9,2.9s-1.3,2.9-2.9,2.9-2.9-1.2-2.9-2.9,1.3-2.9,2.9-2.9ZM215.8,11.2h4.3v20.4h-4.3V11.2Z"/>
  <path class="cls-1" d="M238.3,31.7c-1.4.3-2.5.5-3.6.5-4.6,0-7.4-2.3-7.4-7.1v-10h-3.3v-3.8h3.3v-5.4h4.3v5.4h6v3.8h-6v9.6c0,2.6,1.4,3.5,4,3.5s1.5,0,2.7-.2v3.7Z"/>
  <path class="cls-1" d="M244.8.7c1.6,0,2.9,1.3,2.9,2.9s-1.3,2.9-2.9,2.9-2.9-1.2-2.9-2.9,1.3-2.9,2.9-2.9ZM242.6,11.2h4.3v20.4h-4.3V11.2Z"/>
  <path class="cls-1" d="M256.3,22.9c.5,3.3,3.1,5.4,6.5,5.4s4.1-.8,5.9-2.4l2,3c-2.3,2.2-5,3.3-8,3.3-6.1,0-10.8-4.6-10.8-10.7-.1-5.9,4.7-10.8,10.4-10.7,5.3,0,9.3,4,9.3,9.4s-.1,1.8-.3,2.7h-15ZM267.3,19.5c0-3.1-2.3-5-5.2-5s-5.1,2-5.8,5h10.9Z"/>
  <path class="cls-1" d="M277.1,25.4c1.8,1.9,3.5,2.9,5.6,2.9s3.2-.8,3.2-2.3-.9-1.7-2.8-2.5l-2-.9c-3.6-1.5-5.2-3.1-5.2-6s3-5.9,7.1-5.9,5.2,1,7,3.2l-2.3,2.7c-1.3-1.3-2.9-2.1-4.7-2.1s-2.7.7-2.7,2,.7,1.6,2.7,2.4l1.9.8c3.8,1.6,5.5,3.3,5.5,6.2s-.7,3.5-2.1,4.6c-1.4,1.1-3.2,1.6-5.3,1.6-3.4,0-6.3-1.6-8.1-4l2.5-2.7Z"/>
</svg>