<?xml version="1.0" encoding="UTF-8"?>
<svg id="Layer_1" data-name="Layer 1" xmlns="http://www.w3.org/2000/svg" version="1.1" viewBox="0 0 404.8 37.7">
  <defs>
    <style>
      .cls-1 {
        fill: #002d72;
        stroke-width: 0px;
      }
    </style>
  </defs>
  <path class="cls-1" d="M9.8,13h5.2v5.6h-5.2v18.6H3.4v-18.6H0v-5.6h3.4v-4C3.4,3,6.8,0,12.5,0s2.4.2,3.5.5v5.5c-.7,0-1.3-.1-1.9-.1-2.9,0-4.3,1-4.3,3.8v3.4ZM22.6.1c2.3,0,4.2,1.8,4.2,4.1s-1.9,4-4.2,4-4.1-1.8-4.1-4S20.3.1,22.6.1ZM19.4,13h6.5v24.1h-6.5V13Z"/>
  <path class="cls-1" d="M54.1,37.2h-6.4v-14.1c0-2.8-1.8-4.7-4.4-4.7s-4.5,1.9-4.5,4.7v14.1h-6.5V13h5.9v2.2c1.7-1.7,4.1-2.7,6.9-2.7,5.5,0,8.9,3.9,8.9,9.7v15Z"/>
  <path class="cls-1" d="M80.2,37.2h-5.9v-2.3c-1.7,1.8-4.2,2.9-7.2,2.9-5,0-8.2-3-8.2-7.2s3.5-7,9-7h5.9v-1.1c0-2.7-1.5-4.2-4.4-4.2s-4.2,1-6.3,3.3l-3.4-4c2.7-3.3,6.2-5,10.4-5,6.2,0,10.2,3.7,10.2,10.3v14.3ZM73.7,27.8h-5.1c-2.1,0-3.3.8-3.3,2.4s1.3,2.6,3.4,2.6,5-2,5-4.8v-.3Z"/>
  <path class="cls-1" d="M108.2,37.2h-6.4v-14.1c0-2.8-1.8-4.7-4.4-4.7s-4.5,1.9-4.5,4.7v14.1h-6.5V13h5.9v2.2c1.7-1.7,4.1-2.7,6.9-2.7,5.5,0,8.9,3.9,8.9,9.7v15Z"/>
  <path class="cls-1" d="M125.8,12.5c4.6,0,8.2,2.2,10.3,5.9l-4.5,3.6c-1.5-2.2-3.2-3.5-5.7-3.5-3.6,0-6.2,2.8-6.2,6.6s2.6,6.6,6.2,6.6,4.2-1.3,5.7-3.5l4.5,3.5c-2.1,3.7-5.7,6-10.3,6-6.9.1-12.8-5.7-12.7-12.7,0-7.1,5.7-12.6,12.7-12.6Z"/>
  <path class="cls-1" d="M144.1.1c2.3,0,4.2,1.8,4.2,4.1s-1.9,4-4.2,4-4.1-1.8-4.1-4,1.8-4.1,4.1-4.1ZM140.9,13h6.5v24.1h-6.5V13Z"/>
  <path class="cls-1" d="M173.7,37.2h-5.9v-2.3c-1.7,1.8-4.2,2.9-7.2,2.9-5,0-8.2-3-8.2-7.2s3.5-7,9-7h5.9v-1.1c0-2.7-1.5-4.2-4.4-4.2s-4.2,1-6.3,3.3l-3.4-4c2.7-3.3,6.2-5,10.4-5,6.2,0,10.2,3.7,10.2,10.3v14.3ZM167.2,27.8h-5.1c-2.1,0-3.3.8-3.3,2.4s1.3,2.6,3.4,2.6,5-2,5-4.8v-.3Z"/>
  <path class="cls-1" d="M179.9.6h6.5v36.6h-6.5V.6Z"/>
  <path class="cls-1" d="M207.3,29.1c2.1,2.2,4.3,3.3,6.7,3.3s3-.7,3-2-.7-1.4-2.4-2.2l-2.5-1.1c-4.4-1.8-6.5-3.8-6.5-7.4s3.5-7.2,8.7-7.2,6.4,1.2,8.5,3.6l-3.3,4c-1.6-1.5-3.4-2.3-5.3-2.3s-2.5.6-2.5,1.7.6,1.4,2.5,2.1l2.3,1c4.6,1.9,6.7,3.8,6.7,7.4s-.9,4.3-2.6,5.7c-1.7,1.4-3.9,2-6.6,2-4.2,0-7.7-1.8-9.8-4.7l3.3-4Z"/>
  <path class="cls-1" d="M239.4,12.5c6.9,0,12.9,5.7,12.7,12.6.1,6.9-5.8,12.8-12.8,12.6-7,.1-12.8-5.8-12.7-12.6-.1-6.9,5.8-12.7,12.7-12.6ZM239.4,18.5c-3.6,0-6.1,2.8-6.1,6.6s2.5,6.5,6.1,6.5,6.1-2.8,6.1-6.5-2.6-6.6-6.1-6.6Z"/>
  <path class="cls-1" d="M257.2.6h6.5v36.6h-6.5V.6Z"/>
  <path class="cls-1" d="M269.8,13h6.5v14c0,2.8,1.9,4.6,4.5,4.6s4.4-1.9,4.4-4.6v-14h6.5v13.5c0,6.7-4.7,11.2-10.9,11.2s-11-4.5-11-11.2v-13.5Z"/>
  <path class="cls-1" d="M313.1,37.2c-1.5.4-3,.6-4.5.6-6,0-9.5-3-9.5-9.1v-10.1h-3.7v-5.6h3.7v-6.1h6.5v6.1h6.7v5.6h-6.7v9.5c0,2.7,1.3,3.8,4.4,3.8s1.4,0,3.1-.2v5.5Z"/>
  <path class="cls-1" d="M321,.1c2.3,0,4.2,1.8,4.2,4.1s-1.9,4-4.2,4-4.1-1.8-4.1-4,1.8-4.1,4.1-4.1ZM317.8,13h6.5v24.1h-6.5V13Z"/>
  <path class="cls-1" d="M342.1,12.5c6.9,0,12.9,5.7,12.7,12.6.1,6.9-5.8,12.8-12.8,12.6-7,.1-12.8-5.8-12.7-12.6-.1-6.9,5.8-12.7,12.7-12.6ZM342.1,18.5c-3.6,0-6.1,2.8-6.1,6.6s2.5,6.5,6.1,6.5,6.1-2.8,6.1-6.5-2.6-6.6-6.1-6.6Z"/>
  <path class="cls-1" d="M381.6,37.2h-6.4v-14.1c0-2.8-1.8-4.7-4.4-4.7s-4.5,1.9-4.5,4.7v14.1h-6.5V13h5.9v2.2c1.7-1.7,4.1-2.7,6.9-2.7,5.5,0,8.9,3.9,8.9,9.7v15Z"/>
  <path class="cls-1" d="M389,29.1c2.1,2.2,4.3,3.3,6.7,3.3s3-.7,3-2-.7-1.4-2.4-2.2l-2.5-1.1c-4.4-1.8-6.5-3.8-6.5-7.4s3.5-7.2,8.7-7.2,6.4,1.2,8.5,3.6l-3.3,4c-1.6-1.5-3.4-2.3-5.3-2.3s-2.5.6-2.5,1.7.6,1.4,2.5,2.1l2.3,1c4.6,1.9,6.7,3.8,6.7,7.4s-.9,4.3-2.6,5.7c-1.7,1.4-3.9,2-6.6,2-4.2,0-7.7-1.8-9.8-4.7l3.3-4Z"/>
</svg>