<?xml version="1.0" encoding="UTF-8"?>
<svg id="Layer_1" data-name="Layer 1" xmlns="http://www.w3.org/2000/svg" version="1.1" viewBox="0 0 201.2 45.4">
  <defs>
    <style>
      .cls-1 {
        fill: #002d72;
        stroke-width: 0px;
      }
    </style>
  </defs>
  <path class="cls-1" d="M12.7,11.9c4.6,0,8.2,2.2,10.3,5.9l-4.5,3.6c-1.5-2.2-3.2-3.5-5.7-3.5-3.6,0-6.2,2.8-6.2,6.6s2.6,6.6,6.2,6.6,4.2-1.3,5.7-3.5l4.5,3.5c-2.1,3.7-5.7,6-10.3,6C5.8,37.3,0,31.5,0,24.5,0,17.4,5.7,11.9,12.7,11.9Z"/>
  <path class="cls-1" d="M47.7,36.6h-5.9v-2.3c-1.7,1.8-4.2,2.9-7.2,2.9-5,0-8.2-3-8.2-7.2s3.5-7,9-7h5.9v-1.1c0-2.7-1.5-4.2-4.4-4.2s-4.2,1-6.3,3.3l-3.4-4c2.7-3.3,6.2-5,10.4-5,6.2,0,10.2,3.7,10.2,10.3v14.3ZM41.2,27.3h-5.1c-2.1,0-3.3.8-3.3,2.4s1.3,2.6,3.4,2.6,5-2,5-4.8v-.3Z"/>
  <path class="cls-1" d="M75.7,36.6h-6.4v-14.1c0-2.8-1.8-4.7-4.4-4.7s-4.5,1.9-4.5,4.7v14.1h-6.5V12.4h5.9v2.2c1.7-1.7,4.1-2.7,6.9-2.7,5.5,0,8.9,3.9,8.9,9.7v15Z"/>
  <path class="cls-1" d="M117.2,36.6h-6.4v-14c0-2.8-1.8-4.7-4.4-4.7s-4.5,1.9-4.5,4.7v14h-6.5V0h6.5v14.5c1.6-1.6,3.9-2.6,6.5-2.6,5.4,0,8.8,3.9,8.8,9.7v15Z"/>
  <path class="cls-1" d="M128.6,26.7c.8,3.1,3.2,4.8,6.7,4.8s4.6-.8,6.6-2.4l2.7,4.5c-2.8,2.4-6,3.6-9.5,3.6-7.3.1-13.1-5.7-13-12.6-.1-7,5.6-12.8,12.4-12.6,6.6,0,11.2,4.9,11.2,11.2s-.1,2.4-.4,3.6h-16.6ZM139.4,22.1c0-3-2.3-4.9-5.1-4.9s-4.9,1.9-5.7,4.9h10.8Z"/>
  <path class="cls-1" d="M150.7,0h6.5v36.6h-6.5V0Z"/>
  <path class="cls-1" d="M177.1,37.2c-2.9,0-5.4-1-7.1-2.9v11.1h-6.5V12.4h5.9v3c1.6-2.3,4.4-3.6,7.6-3.6,6.6,0,11.5,5.4,11.5,12.6s-4.9,12.7-11.5,12.7ZM175.9,17.8c-3.3,0-6,2.3-6,6.6s2.7,6.7,6,6.7,6.1-2.7,6.1-6.6-2.6-6.7-6.1-6.7Z"/>
  <path class="cls-1" d="M196.8,28.1c2.5,0,4.4,2,4.4,4.5s-1.9,4.5-4.4,4.5-4.5-2-4.5-4.5,2-4.5,4.5-4.5Z"/>
</svg>