<?xml version="1.0" encoding="UTF-8"?>
<svg id="Layer_1" data-name="Layer 1" xmlns="http://www.w3.org/2000/svg" version="1.1" viewBox="0 0 278.7 37.2">
  <defs>
    <style>
      .cls-1 {
        fill: #002d72;
        stroke-width: 0px;
      }
    </style>
  </defs>
  <path class="cls-1" d="M4.5,26.6c2.1,2.9,4.3,4.7,7.8,4.7s4.5-1.4,4.5-3.6-1-2.6-4-4l-3.4-1.6c-4.8-2.2-7.7-5-7.7-9.3S6.1,3.8,12.1,3.8s8.5,2.4,10.4,6.1l-4.4,3.5c-1.6-2.5-3.6-3.7-6-3.7s-3.9,1.1-3.9,3.1,1,2.5,3.7,3.7l3.6,1.6c5.3,2.4,7.8,5.1,7.8,9.4s-4.7,9.7-11.1,9.7-9.8-2.8-12.2-7.1l4.5-3.4Z"/>
  <path class="cls-1" d="M33.7,26.7c.8,3.1,3.2,4.8,6.7,4.8s4.6-.8,6.6-2.4l2.7,4.5c-2.8,2.4-6,3.6-9.5,3.6-7.3.1-13.1-5.7-13-12.6-.1-7,5.6-12.8,12.4-12.6,6.6,0,11.2,4.9,11.2,11.2s-.1,2.4-.4,3.6h-16.6ZM44.5,22.1c0-3-2.3-4.9-5.1-4.9s-4.9,1.9-5.7,4.9h10.8Z"/>
  <path class="cls-1" d="M61,26.7c.8,3.1,3.2,4.8,6.7,4.8s4.6-.8,6.6-2.4l2.7,4.5c-2.8,2.4-6,3.6-9.5,3.6-7.3.1-13.1-5.7-13-12.6-.1-7,5.6-12.8,12.4-12.6,6.6,0,11.2,4.9,11.2,11.2s-.1,2.4-.4,3.6h-16.6ZM71.8,22.1c0-3-2.3-4.9-5.1-4.9s-4.9,1.9-5.7,4.9h10.8Z"/>
  <path class="cls-1" d="M118.3,36.6h-6.4v-14c0-2.8-1.8-4.7-4.4-4.7s-4.5,1.9-4.5,4.7v14h-6.5V0h6.5v14.5c1.6-1.6,3.9-2.6,6.5-2.6,5.4,0,8.8,3.9,8.8,9.7v15Z"/>
  <path class="cls-1" d="M135.9,11.9c7,0,12.9,5.7,12.7,12.6.1,6.9-5.8,12.8-12.8,12.6-6.9.1-12.8-5.8-12.7-12.6-.1-6.9,5.8-12.7,12.7-12.6ZM135.9,17.9c-3.6,0-6.1,2.8-6.1,6.6s2.5,6.5,6.1,6.5,6.1-2.8,6.1-6.5-2.6-6.6-6.1-6.6Z"/>
  <path class="cls-1" d="M190,12.4l-11,24.7h-2.1l-6.8-14-6.9,14h-2.1l-11-24.7h6.8l5.6,13.8,6.5-14.3h2.2l6.6,14,5.5-13.5h6.8Z"/>
  <path class="cls-1" d="M218.6,11.9c6.9,0,12.9,5.7,12.7,12.6.1,6.9-5.8,12.8-12.8,12.6-7,.1-12.8-5.8-12.7-12.6-.1-6.9,5.8-12.7,12.7-12.6ZM218.6,17.9c-3.6,0-6.1,2.8-6.1,6.6s2.5,6.5,6.1,6.5,6.1-2.8,6.1-6.5-2.6-6.6-6.1-6.6Z"/>
  <path class="cls-1" d="M236.1,12.4h6.5v14c0,2.8,1.9,4.6,4.5,4.6s4.4-1.9,4.4-4.6v-14h6.5v13.5c0,6.7-4.7,11.2-10.9,11.2s-11-4.5-11-11.2v-13.5Z"/>
  <path class="cls-1" d="M278.7,18.2h-1.7c-3.9,0-6.4,2.1-6.4,6.3v12h-6.5V12.4h5.9v2.9c1.6-2,3.9-3.2,6.5-3.2s1.5,0,2.1.3v5.8Z"/>
</svg>