<svg id="Layer_1" data-name="Layer 1" xmlns="http://www.w3.org/2000/svg" viewBox="0 0 64.83 52.59"><defs><style>.cls-1{fill:#008996;}.cls-2,.cls-3{fill:none;}.cls-2{stroke:#fff;stroke-linecap:round;stroke-linejoin:round;stroke-width:2.06px;}</style></defs><path class="cls-1" d="M32.34,6c17,0,30.75,10.08,30.75,22.52S49.32,51,32.34,51,1.6,40.93,1.6,28.49,15.36,6,32.34,6"/><path class="cls-1" d="M18,7.7c0-3.7,3.7-6.64,8.25-6.55S34.47,4.3,34.47,8s-3.7,6.64-8.25,6.55S18,11.4,18,7.7"/><path class="cls-2" d="M38.76,13.21V11.76h3.61v4.33M33,11.76l12.27,9.38M33,11.76,20.72,21.14m2.89,6.49v-8.7m18.76,8v-8M15.67,35.55l2.16-2.16,9.38,9.37-2.16,2.17m3.61-10.82h6.91a2.16,2.16,0,0,0,2-1.27,2.21,2.21,0,0,0,0-1.78,2.16,2.16,0,0,0-2-1.27h-9.8a4.35,4.35,0,0,0-2.89,1.44l-3.61,3.6m8.67-.72h8.71a2.51,2.51,0,0,0,1.52-.51l5.65-4.53a2.12,2.12,0,0,1,3.6,1.44c0,.93-.78,1.58-1.44,2.16l-6.49,5a3,3,0,0,1-2.17.72H28.66a2.25,2.25,0,0,0-1.45.72L25.41,41"/><rect class="cls-3" y="-1.47" width="63.09" height="52.48"/></svg>