<?xml version="1.0" encoding="UTF-8"?>
<svg id="Layer_1" data-name="Layer 1" xmlns="http://www.w3.org/2000/svg" xmlns:xlink="http://www.w3.org/1999/xlink" version="1.1" viewBox="0 0 124.6 28">
  <defs>
    <style>
      .cls-1 {
        clip-path: url(#clippath);
      }

      .cls-2 {
        fill: none;
      }

      .cls-2, .cls-3, .cls-4 {
        stroke-width: 0px;
      }

      .cls-3 {
        fill: #002d72;
      }

      .cls-4 {
        fill: #ffbf3f;
      }
    </style>
    <clipPath id="clippath">
      <rect class="cls-2" width="124.6" height="28"/>
    </clipPath>
  </defs>
  <g class="cls-1">
    <path class="cls-4" d="M4.3,0C1.9,0,0,1.9,0,4.2v19.6c0,2.4,1.9,4.2,4.3,4.2h116c2.4,0,4.3-1.9,4.3-4.2V4.2c0-2.4-2-4.2-4.3-4.2H4.3Z"/>
  </g>
  <g>
    <path class="cls-3" d="M22.4,8.8c2,0,3.6.9,4.7,2.4l-1.3,1.1c-.9-1.2-2-1.7-3.4-1.7-2.4,0-4,1.7-4,4.2s1.7,4.2,4.2,4.2,2.7-.7,3.4-1.7v-1.2h-3.5v-1.6h5.3v3.2c-1,1.8-3,3-5.3,3-3.4,0-6-2.6-6-5.9,0-3.3,2.7-5.9,6-5.9,0,0,0,0,0,0Z"/>
    <path class="cls-3" d="M31.1,16.8c.2,1.4,1.3,2.2,2.7,2.2s1.7-.3,2.5-1l.9,1.2c-1,.9-2.1,1.4-3.4,1.4-2.6,0-4.5-1.9-4.5-4.4s2-4.5,4.4-4.5,3.9,1.6,3.9,3.9,0,.7-.1,1.1h-6.4ZM35.8,15.3c0-1.3-1-2.1-2.2-2.1s-2.2.8-2.4,2.1h4.6Z"/>
    <path class="cls-3" d="M44.7,20.4c-.6.1-1.1.2-1.5.2-2,0-3.2-1-3.2-2.9v-4.1h-1.4v-1.6h1.4v-2.2h1.8v2.2h2.5v1.6h-2.5v4c0,1.1.6,1.4,1.6,1.4s.6,0,1.1,0v1.5h.1Z"/>
    <path class="cls-3" d="M52,17.1c.8,1.1,1.6,1.8,2.9,1.8s2-.6,2-1.6-.4-1.2-1.6-1.7l-1.2-.6c-1.6-.8-2.6-1.6-2.6-3.2s1.6-3.1,3.6-3.1,2.9.8,3.7,2.1l-1.2,1c-.6-.9-1.4-1.4-2.4-1.4s-1.7.4-1.7,1.4c0,.9.4,1.1,1.6,1.6l1.2.6c1.8.9,2.7,1.7,2.7,3.2s-1.6,3.3-3.8,3.3-3.4-.9-4.2-2.5l1.3-1h-.2Z"/>
    <path class="cls-3" d="M65.9,20.4c-.6.1-1.1.2-1.5.2-2,0-3.2-1-3.2-2.9v-4.1h-1.4v-1.6h1.4v-2.2h1.8v2.2h2.5v1.6h-2.5v4c0,1.1.6,1.4,1.6,1.4s.6,0,1.1,0v1.5h.1Z"/>
    <path class="cls-3" d="M74.4,20.4h-1.7v-.9c-.6.7-1.6,1.1-2.7,1.1-1.7,0-2.9-1-2.9-2.4s1.2-2.4,3.2-2.4h2.4v-.5c0-1.2-.7-1.8-1.8-1.8s-1.6.4-2.4,1.2l-1.1-1.1c.9-1.2,2.1-1.8,3.6-1.8,2.1,0,3.5,1.2,3.5,3.6v5.1h-.1ZM72.6,17.1h-2.2c-1,0-1.5.3-1.5,1.1s.6,1.1,1.5,1.1,2.2-.9,2.2-2h0v-.2Z"/>
    <path class="cls-3" d="M81.9,13.5h-.5c-1.4,0-2.5.9-2.5,2.4v4.5h-1.8v-8.5h1.7v1.1c.6-.8,1.5-1.2,2.5-1.2s.4,0,.7,0v1.6h-.1Z"/>
    <path class="cls-3" d="M88.5,20.4c-.6.1-1.1.2-1.5.2-2,0-3.2-1-3.2-2.9v-4.1h-1.4v-1.6h1.4v-2.2h1.8v2.2h2.5v1.6h-2.5v4c0,1.1.6,1.4,1.6,1.4s.6,0,1.1,0v1.5h.1Z"/>
    <path class="cls-3" d="M91.4,16.8c.2,1.4,1.3,2.2,2.7,2.2s1.7-.3,2.5-1l.9,1.2c-1,.9-2.1,1.4-3.4,1.4-2.6,0-4.5-1.9-4.5-4.4s2-4.5,4.4-4.5,3.9,1.6,3.9,3.9,0,.7-.1,1.1h-6.4ZM96.1,15.3c0-1.3-1-2.1-2.2-2.1s-2.2.8-2.4,2.1h4.6Z"/>
    <path class="cls-3" d="M108.2,7.5v12.9h-1.7v-1.2c-.6.9-1.7,1.4-2.9,1.4-2.4,0-4.1-1.9-4.1-4.4s1.7-4.5,4.1-4.5,2.2.4,2.8,1.2v-5.5h1.8ZM103.8,13.4c-1.4,0-2.6,1.1-2.6,2.7s1.1,2.7,2.6,2.7,2.6-.9,2.6-2.7-1.2-2.7-2.6-2.7Z"/>
  </g>
</svg>