<?xml version="1.0" encoding="UTF-8"?>
<svg id="Layer_1" data-name="Layer 1" xmlns="http://www.w3.org/2000/svg" xmlns:xlink="http://www.w3.org/1999/xlink" version="1.1" viewBox="0 0 146 32.1">
  <defs>
    <style>
      .cls-1 {
        mask: url(#mask);
      }

      .cls-2 {
        fill: #ffbf3f;
      }

      .cls-2, .cls-3 {
        fill-rule: evenodd;
        stroke-width: 0px;
      }

      .cls-3 {
        fill: #fff;
      }

      .cls-4 {
        mask: url(#mask-1);
      }
    </style>
    <mask id="mask" x=".1" y="19.7" width="12.8" height="12.4" maskUnits="userSpaceOnUse">
      <g id="_0qlatkqx1b" data-name="0qlatkqx1b">
        <path id="xug0mt3vua" class="cls-3" d="M.1,19.7h12.8v12.4H.1v-12.4Z"/>
      </g>
    </mask>
    <mask id="mask-1" x="0" y="3" width="20.4" height="26" maskUnits="userSpaceOnUse">
      <g id="yj5fx719zd">
        <path id="_6g4296ayvc" data-name="6g4296ayvc" class="cls-3" d="M0,3h20.4v26H0V3Z"/>
      </g>
    </mask>
  </defs>
  <path class="cls-2" d="M15,12.4c1.4-1.1,2.9-2.2,4.4-3.4,1-.8,1.4-1.9,0-2.9-1.2-.8-6.5-4.7-8.4-5.9-1.1-.7-4.1.6-3.2,3.6.6,2,3.4,5.2,7.3,8.6"/>
  <g class="cls-1">
    <path class="cls-2" d="M5.4,19.7c-1.4,1-2.9,2.2-4.4,3.4-1,.8-1.4,1.9,0,2.9,1.2.8,6.5,4.7,8.4,5.9,1.1.7,4.1-.6,3.2-3.6-.6-2-3.4-5.2-7.3-8.6"/>
  </g>
  <g class="cls-4">
    <path class="cls-2" d="M17.1,18.3l-8.6-9c-2.5-2.7-3.4-4.5-3.2-5.9,0-.8-.4-.4-3.4,1.7-4,2.8-.7,6.5,1.4,8.7l8.6,9c2.5,2.7,3.4,4.5,3.2,5.9,0,.8.4.4,3.4-1.7,4-2.8.7-6.5-1.4-8.7"/>
  </g>
  <path class="cls-3" d="M40.4,12.1l-.9.3c-1.2-1.9-3.6-4.4-6-4.4s-3,.9-3,2.6,2.1,2.5,3.6,3l1.4.5c3,1,5.9,2.3,5.9,5.9s-2.8,5.6-5.9,5.6-2.1-.2-3-.5c-.5-.1-.7-.3-1.2-.3s-.6,0-2.2.8l-1.6-5.6.9-.3c1.4,2.3,3.8,5,6.7,5s3.5-1.2,3.5-3.1-1.9-2.6-3.5-3.1c-3.2-1-7.3-2.3-7.3-6.4s2.4-5.1,5.4-5.1,1.7.2,2.7.5c.3.1.7.2,1,.2.6,0,1.4-.5,1.9-.9,0,0,1.6,5.2,1.6,5.2ZM45.7,19.4c0,1.8.4,5.1,2.8,5.1s2.7-3.4,2.7-5.1-.2-5.3-2.6-5.3-2.8,3.5-2.8,5.3M42.2,19.5c0-4.2,3.6-6.3,6.5-6.3s5.9,3.1,5.9,5.8-2.5,6.5-6.2,6.5-6.2-2.5-6.2-6M63.8,23.5c-1.3,1-2.7,2-4.4,2s-3.3-1.6-3.3-3.6v-4.4c0-1.3-.3-2.2-1.7-2.3v-.8l5.2-1.5v8.9c0,.9.7,1.6,1.7,1.6s1.9-.7,2.5-1.3v-4.6c0-1.3-.3-2.2-1.7-2.3v-.8l5.2-1.5v9.2c0,1.3.3,2.2,1.7,2.3v.8h-5.2v-1.7h0ZM68.2,14.5v-1.1c3.1-.3,3.6-2,4.3-4.2h.9v4.2h3.4v1.1h-3.4v7.4c0,.9.3,1.7,1.5,1.7s1.4-.5,1.9-.9l.6.5c-.9,1.2-2.6,2.1-4,2.1-2.6,0-3.4-2-3.4-3.4v-7.5h-1.7ZM82.5,15.1c1.3-1,2.4-1.9,4.2-1.9s3.4,1.5,3.4,3.3v6.3c0,1.4.8,1.6,1.5,1.6v.7h-6.6v-.7c.9,0,1.5,0,1.6-2v-5.5c0-.3-.3-1.6-1.8-1.6s-1.6.6-2.3.9v6.7c0,1.4.8,1.6,1.5,1.6v.7h-6.6v-.7c.9,0,1.5,0,1.6-2v-10.9c0-1.3-.3-2.2-1.7-2.3v-.7l5.2-1.5s0,8.1,0,8.1ZM105.1,12.1l-.9.3c-1.2-1.9-3.6-4.4-6-4.4s-3,.9-3,2.6,2.1,2.5,3.6,3l1.4.5c3,1,5.9,2.3,5.9,5.9s-2.8,5.6-5.9,5.6-2.1-.2-3-.5c-.5-.1-.7-.3-1.2-.3s-.6,0-2.2.8l-1.6-5.6.9-.3c1.4,2.3,3.8,5,6.7,5s3.5-1.2,3.5-3.1-1.9-2.6-3.5-3.1c-3.2-1-7.3-2.3-7.3-6.4s2.4-5.1,5.4-5.1,1.7.2,2.7.5c.3.1.7.2,1,.2.6,0,1.4-.5,1.9-.9l1.6,5.2h0ZM105.8,14.5v-1.1c3.1-.3,3.6-2,4.3-4.2h.9v4.2h3.4v1.1h-3.4v7.4c0,.9.3,1.7,1.5,1.7s1.4-.5,1.9-.9l.6.5c-.9,1.2-2.6,2.1-4,2.1-2.6,0-3.4-2-3.4-3.4v-7.5h-1.7Z"/>
  <path class="cls-3" d="M122.1,18.7c-1.9.2-4,1-4,3.3s.6,1.9,1.7,1.9,1.8-.7,2.3-1.3v-3.9ZM125.6,22.3c0,.6,0,1.4.8,1.4s.4,0,.6-.1l.2.4c-.6.8-1.7,1.5-2.7,1.5s-1.9-.6-2.4-1.5c-1.2,1-2.5,1.5-4.1,1.5s-3.6-.9-3.6-3c0-3.4,5.1-4.3,7.6-4.7v-.7c0-1.2,0-3-1.6-3s-1.5.9-1.8,1.8c-.3.8-.8,1.7-1.8,1.7s-1.5-.6-1.5-1.4c0-1.2,1.4-2.9,5.5-2.9s2.7.2,3.6.9c1.1.9,1.1,2,1.1,3.1v5.2h0ZM126.8,14.5v-1.1c3.1-.3,3.6-2,4.3-4.2h.9v4.2h3.4v1.1h-3.4v7.4c0,.9.3,1.7,1.5,1.7s1.4-.5,1.9-.9l.6.5c-.9,1.2-2.6,2.1-4,2.1-2.6,0-3.4-2-3.4-3.4v-7.5h-1.7Z"/>
  <path class="cls-3" d="M142.8,18.2c0-2.4-.5-4-2.4-4s-2.7,2.4-2.7,4h5.1ZM137.8,19.3c0,2.2,1.6,4.7,4.1,4.7s2.6-.8,3.6-1.8l.6.5c-1.5,1.8-3.1,2.7-5.5,2.7s-6.2-2.2-6.2-5.8.6-3.1,1.6-4.4c1.1-1.4,2.7-2.1,4.5-2.1,3.4,0,5.7,2.7,5.6,6.1h-8.2,0Z"/>
</svg>