<?xml version="1.0" encoding="UTF-8"?>
<svg id="Layer_1" data-name="Layer 1" xmlns="http://www.w3.org/2000/svg" version="1.1" viewBox="0 0 189.2 35.2">
  <defs>
    <style>
      .cls-1 {
        fill: #ffbf3f;
        stroke-width: 0px;
      }
    </style>
  </defs>
  <path class="cls-1" d="M10.9,28.1H0V3.7h8.7c4.5,0,7.7,2.8,7.7,6.8s-.6,3.3-1.8,4.4c2.7,1,4.3,3.1,4.3,6,0,4.2-3.3,7.2-8,7.2ZM4.8,8v5.6h3.4c2,0,3.2-1.1,3.2-2.8s-1.1-2.8-3.2-2.8h-3.4ZM10.5,17.7h-5.7v6.1h5.7c2.2,0,3.5-1.1,3.5-3.1s-1.3-3.1-3.5-3.1Z"/>
  <path class="cls-1" d="M33.9,14.2h-1.3c-3,0-4.9,1.6-4.9,4.8v9.2h-5V9.8h4.6v2.2c1.2-1.5,3-2.4,5-2.4s1.1,0,1.6.2v4.4Z"/>
  <path class="cls-1" d="M39.5,0c1.8,0,3.2,1.3,3.2,3.1s-1.4,3.1-3.2,3.1-3.2-1.3-3.2-3.1,1.4-3.1,3.2-3.1ZM37,9.8h5v18.3h-5V9.8Z"/>
  <path class="cls-1" d="M63.9,28.1h-5v-10.7c0-2.1-1.4-3.6-3.4-3.6s-3.5,1.4-3.5,3.6v10.7h-5V9.8h4.6v1.7c1.3-1.3,3.2-2.1,5.4-2.1,4.3,0,6.9,2.9,6.9,7.4v11.4Z"/>
  <path class="cls-1" d="M87.1,9.8v16.3c0,6-3.7,9.2-9.5,9.2s-6.4-1.1-9-3.4l2.6-3.5c2,1.5,3.7,2.4,6,2.4s4.9-1.5,4.9-4.3v-1c-1.3,1.4-3.3,2.2-5.6,2.2-5.1,0-8.8-3.7-8.8-9.1s3.8-9.1,8.8-9.1,4.7,1,6,2.7v-2.3h4.6ZM77.5,13.6c-2.7,0-4.7,1.8-4.7,4.8s2.1,4.9,4.7,4.9,4.6-1.8,4.6-5-2.1-4.7-4.6-4.7Z"/>
  <path class="cls-1" d="M130.7,28.1h-5v-10.7c0-2.2-1.3-3.6-3.3-3.6s-3.4,1.4-3.4,3.4v10.8h-5v-10.7c0-2.2-1.3-3.6-3.3-3.6s-3.4,1.4-3.4,3.6v10.7h-5V9.8h4.6v1.6c1.2-1.3,3.1-2,5.2-2s4.2.9,5.4,2.6c1.4-1.6,3.6-2.6,6.1-2.6,4.3,0,6.9,2.9,6.9,7.4v11.4Z"/>
  <path class="cls-1" d="M144.3,9.4c5.4,0,10,4.3,9.9,9.6.1,5.2-4.5,9.7-9.9,9.6-5.4.1-9.9-4.4-9.8-9.6-.1-5.2,4.4-9.7,9.8-9.6ZM144.3,13.9c-2.8,0-4.7,2.1-4.7,5s2,5,4.7,5,4.7-2.1,4.7-5-2-5-4.7-5Z"/>
  <path class="cls-1" d="M169.3,14.2h-1.3c-3,0-4.9,1.6-4.9,4.8v9.2h-5V9.8h4.6v2.2c1.2-1.5,3-2.4,5-2.4s1.1,0,1.6.2v4.4Z"/>
  <path class="cls-1" d="M176,20.6c.6,2.3,2.5,3.6,5.1,3.6s3.5-.6,5.1-1.9l2.1,3.4c-2.2,1.8-4.6,2.7-7.3,2.7-5.7.1-10.2-4.3-10-9.6-.1-5.3,4.3-9.7,9.6-9.6,5.1,0,8.6,3.7,8.6,8.5s-.1,1.8-.3,2.7h-12.9ZM184.3,17.1c0-2.3-1.8-3.7-4-3.7s-3.8,1.4-4.4,3.7h8.3Z"/>
</svg>