<?xml version="1.0" encoding="UTF-8"?>
<svg id="Layer_1" data-name="Layer 1" xmlns="http://www.w3.org/2000/svg" version="1.1" viewBox="0 0 35.6 23.4">
  <defs>
    <style>
      .cls-1 {
        fill: #ffbf3f;
        stroke-width: 0px;
      }
    </style>
  </defs>
  <path class="cls-1" d="M13.7,23c-1.2.3-2.3.4-3.4.4-4.6,0-7.3-2.3-7.3-6.9v-7.7H0v-4.2h2.9V0h5v4.6h5.2v4.2h-5.2v7.2c0,2.1,1,2.9,3.4,2.9s1.1,0,2.4-.1v4.2Z"/>
  <path class="cls-1" d="M25.7,4.2c5.4,0,10,4.3,9.9,9.6.1,5.2-4.5,9.7-9.9,9.6-5.4.1-9.9-4.4-9.8-9.6-.1-5.2,4.4-9.7,9.8-9.6ZM25.7,8.8c-2.8,0-4.7,2.1-4.7,5s2,5,4.7,5,4.7-2.1,4.7-5-2-5-4.7-5Z"/>
</svg>