<?xml version="1.0" encoding="UTF-8"?>
<svg id="Layer_1" data-name="Layer 1" xmlns="http://www.w3.org/2000/svg" version="1.1" viewBox="0 0 156.5 28.2">
  <defs>
    <style>
      .cls-1 {
        fill: #ffbf3f;
        stroke-width: 0px;
      }
    </style>
  </defs>
  <path class="cls-1" d="M13.7,27.8c-1.2.3-2.3.4-3.4.4-4.6,0-7.3-2.3-7.3-6.9v-7.7H0v-4.2h2.9v-4.6h5v4.6h5.2v4.2h-5.2v7.2c0,2.1,1,2.9,3.4,2.9s1.1,0,2.4-.1v4.2Z"/>
  <path class="cls-1" d="M34.2,27.8h-5v-10.7c0-2.1-1.4-3.6-3.4-3.6s-3.5,1.4-3.5,3.6v10.7h-5V0h5v11c1.2-1.2,3-2,5-2,4.1,0,6.8,2.9,6.8,7.4v11.4Z"/>
  <path class="cls-1" d="M43,20.3c.6,2.3,2.5,3.6,5.1,3.6s3.5-.6,5.1-1.9l2.1,3.4c-2.2,1.8-4.6,2.7-7.3,2.7-5.7.1-10.2-4.3-10-9.6-.1-5.3,4.3-9.7,9.6-9.6,5.1,0,8.6,3.7,8.6,8.5s-.1,1.8-.3,2.7h-12.9ZM51.3,16.8c0-2.3-1.8-3.7-4-3.7s-3.8,1.4-4.4,3.7h8.3Z"/>
  <path class="cls-1" d="M82.2,27.8c-1.2.3-2.3.4-3.4.4-4.6,0-7.3-2.3-7.3-6.9v-7.7h-2.9v-4.2h2.9v-4.6h5v4.6h5.2v4.2h-5.2v7.2c0,2.1,1,2.9,3.4,2.9s1.1,0,2.4-.1v4.2Z"/>
  <path class="cls-1" d="M101.2,27.8h-4.6v-1.8c-1.3,1.4-3.3,2.2-5.6,2.2-3.9,0-6.3-2.3-6.3-5.5s2.7-5.3,6.9-5.3h4.6v-.8c0-2-1.2-3.2-3.4-3.2s-3.2.8-4.9,2.5l-2.6-3.1c2.1-2.5,4.8-3.8,8-3.8,4.8,0,7.9,2.8,7.9,7.9v10.9ZM96.2,20.7h-3.9c-1.6,0-2.6.6-2.6,1.9s1,2,2.6,2,3.9-1.5,3.9-3.6v-.2Z"/>
  <path class="cls-1" d="M116.5,28.2c-2.5,0-4.6-1-5.9-2.7v2.3h-4.6V0h5v11.2c1.3-1.4,3.1-2.2,5.5-2.2,5.1,0,8.9,4.1,8.9,9.6s-3.8,9.6-8.9,9.6ZM115.6,13.6c-2.6,0-4.6,1.8-4.6,5.1s2.1,5,4.6,5,4.7-2,4.7-5.1-2.1-5-4.7-5Z"/>
  <path class="cls-1" d="M129.3,0h5v27.8h-5V0Z"/>
  <path class="cls-1" d="M143.3,20.3c.6,2.3,2.5,3.6,5.1,3.6s3.5-.6,5.1-1.9l2.1,3.4c-2.2,1.8-4.6,2.7-7.3,2.7-5.7.1-10.2-4.3-10-9.6-.1-5.3,4.3-9.7,9.6-9.6,5.1,0,8.6,3.7,8.6,8.5s-.1,1.8-.3,2.7h-12.9ZM151.6,16.8c0-2.3-1.8-3.7-4-3.7s-3.8,1.4-4.4,3.7h8.3Z"/>
</svg>