<?xml version="1.0" encoding="UTF-8"?>
<svg id="Layer_1" data-name="Layer 1" xmlns="http://www.w3.org/2000/svg" version="1.1" viewBox="0 0 180.2 26.2">
  <defs>
    <style>
      .cls-1 {
        fill: #ffbf3f;
        stroke-width: 0px;
      }
    </style>
  </defs>
  <path class="cls-1" d="M2.1,15.5c1.2,1.8,2.7,2.9,4.8,2.9s3.2-1,3.2-2.6-.8-1.9-2.7-2.8l-2-1c-2.7-1.2-4.3-2.7-4.3-5.1S3.7,2,6.9,2s4.8,1.3,6,3.3l-2.1,1.6c-1-1.5-2.3-2.2-3.9-2.2s-2.8.8-2.8,2.2c.1,1.5.8,1.7,2.6,2.6l2.1,1c3,1.4,4.4,2.8,4.4,5.3s-2.6,5.3-6.2,5.3-5.5-1.5-7-4l2.1-1.6Z"/>
  <path class="cls-1" d="M24.9,20.8h-7.9V2.4h6.5c3.3,0,5.5,2.1,5.5,4.9s-.5,2.6-1.5,3.5c2.2.7,3.4,2.4,3.4,4.7s-2.4,5.4-6,5.4ZM19.9,5v5h3.3c1.8,0,2.9-1,2.9-2.5s-1-2.5-2.9-2.5h-3.3ZM24.6,12.5h-4.8v5.7h4.8c2,0,3.2-1.1,3.2-2.9s-1.2-2.9-3.2-2.9Z"/>
  <path class="cls-1" d="M45.1,17.8h-8.3l-1.3,3.1h-3.2L40.4,2h1l8.1,18.8h-3.2l-1.3-3.1ZM40.9,7.6l-3.1,7.6h6.2l-3.1-7.6Z"/>
  <path class="cls-1" d="M59,2.4h11.9v2.7h-8.9v5.5h7.3v2.7h-7.3v7.6h-3V2.4Z"/>
  <path class="cls-1" d="M75.1,0c1.1,0,2,.9,2,2s-.9,1.9-2,1.9-2-.8-2-1.9.9-2,2-2ZM73.6,7.1h2.9v13.7h-2.9V7.1Z"/>
  <path class="cls-1" d="M92.8,20.8h-2.9v-8.2c0-1.9-1.2-3.2-3-3.2s-3.1,1.3-3.1,3.2v8.2h-2.9V7.1h2.7v1.3c1-1.1,2.4-1.7,4.1-1.7,3.2,0,5.2,2.2,5.2,5.5v8.6Z"/>
  <path class="cls-1" d="M107.8,20.8h-2.7v-1.5c-1,1.2-2.5,1.8-4.4,1.8-2.9,0-4.8-1.6-4.8-4s2-3.9,5.1-3.9h3.9v-.9c0-1.9-1.1-2.9-2.9-2.9s-2.7.7-3.8,2l-1.7-1.7c1.4-2,3.4-2.9,5.8-2.9,3.4,0,5.6,2,5.6,5.7v8.3ZM104.8,15.4h-3.5c-1.6,0-2.4.6-2.4,1.7s1,1.8,2.4,1.8,3.6-1.4,3.6-3.2v-.3Z"/>
  <path class="cls-1" d="M123.9,20.8h-2.9v-8.2c0-1.9-1.2-3.2-3-3.2s-3.1,1.3-3.1,3.2v8.2h-2.9V7.1h2.7v1.3c1-1.1,2.4-1.7,4.1-1.7,3.2,0,5.2,2.2,5.2,5.5v8.6Z"/>
  <path class="cls-1" d="M134.4,6.8c2.5,0,4.6,1.2,5.8,3.2l-2.1,1.6c-1-1.4-2.2-2.1-3.7-2.1-2.5,0-4.3,2-4.3,4.5s1.8,4.5,4.3,4.5,2.7-.7,3.7-2.1l2.1,1.6c-1.2,2-3.3,3.2-5.8,3.2-4.1,0-7.3-3.2-7.3-7.2,0-3.9,3.3-7.2,7.3-7.2Z"/>
  <path class="cls-1" d="M144.9,0c1.1,0,2,.9,2,2s-.9,1.9-2,1.9-2-.8-2-1.9.9-2,2-2ZM143.4,7.1h2.9v13.7h-2.9V7.1Z"/>
  <path class="cls-1" d="M162.6,20.8h-2.9v-8.2c0-1.9-1.2-3.2-3-3.2s-3.1,1.3-3.1,3.2v8.2h-2.9V7.1h2.7v1.3c1-1.1,2.4-1.7,4.1-1.7,3.2,0,5.2,2.2,5.2,5.5v8.6Z"/>
  <path class="cls-1" d="M180.2,7.1v12.3c0,4.3-2.7,6.8-6.9,6.8s-5-1.1-6.6-2.6l1.6-2c1.5,1.2,2.9,2,4.8,2s4.1-1.3,4.1-3.9v-1c-1,1.3-2.7,2-4.6,2-3.8,0-6.7-2.9-6.7-6.9s2.9-6.9,6.7-6.9,3.9.8,4.9,2.3v-2h2.7ZM173.2,9.4c-1.2,0-2.2.4-3,1.2-.8.8-1.2,1.8-1.2,3.1s.4,2.3,1.2,3.1c.8.8,1.8,1.2,3,1.2s2.1-.4,2.9-1.1c.8-.8,1.2-1.8,1.2-3.2,0-2.8-1.9-4.2-4.1-4.2Z"/>
</svg>