<?xml version="1.0" encoding="UTF-8"?>
<svg id="Layer_1" data-name="Layer 1" xmlns="http://www.w3.org/2000/svg" version="1.1" viewBox="0 0 162.2 21.3">
  <defs>
    <style>
      .cls-1 {
        fill: #ffbf3f;
        stroke-width: 0px;
      }
    </style>
  </defs>
  <path class="cls-1" d="M2.1,15.7c1.2,1.8,2.7,2.9,4.8,2.9s3.2-1,3.2-2.6-.8-1.9-2.7-2.8l-2-1c-2.7-1.2-4.3-2.7-4.3-5.1S3.7,2.2,6.9,2.2s4.8,1.3,6,3.3l-2.1,1.6c-1-1.5-2.3-2.2-3.9-2.2s-2.8.8-2.8,2.2c.1,1.5.8,1.7,2.6,2.6l2.1,1c3,1.4,4.4,2.8,4.4,5.3s-2.6,5.3-6.2,5.3-5.5-1.5-7-4l2.1-1.6Z"/>
  <path class="cls-1" d="M23.2,6.9c4,0,7.4,3.3,7.3,7.2,0,3.9-3.3,7.3-7.3,7.2-3.9,0-7.3-3.3-7.3-7.2,0-3.9,3.3-7.2,7.3-7.2ZM23.2,9.6c-2.4,0-4.3,2-4.3,4.5s1.8,4.5,4.3,4.5,4.3-2,4.3-4.5-1.9-4.5-4.3-4.5Z"/>
  <path class="cls-1" d="M33.7,7.3h2.9v8.2c0,1.9,1.3,3.1,3.1,3.1s3-1.2,3-3.1V7.3h2.9v8c0,3.7-2.6,6.1-6,6.1s-6-2.4-6-6.1v-8Z"/>
  <path class="cls-1" d="M58,21c-.9.2-1.7.3-2.4.3-3.2,0-5.1-1.6-5.1-4.8v-6.7h-2.2v-2.5h2.2v-3.6h3v3.6h4.1v2.5h-4.1v6.5c0,1.8.9,2.4,2.7,2.4s1,0,1.8-.1v2.5Z"/>
  <path class="cls-1" d="M72.9,21h-2.9v-8.2c0-1.9-1.2-3.2-3-3.2s-3.1,1.3-3.1,3.2v8.2h-2.9V0h2.9v8.6c.9-1.1,2.3-1.7,4-1.7,3.1,0,5.1,2.2,5.1,5.5v8.6Z"/>
  <path class="cls-1" d="M78,15.7c1.2,1.8,2.7,2.9,4.8,2.9s3.2-1,3.2-2.6-.8-1.9-2.7-2.8l-2-1c-2.7-1.2-4.3-2.7-4.3-5.1s2.6-5,5.8-5,4.8,1.3,6,3.3l-2.1,1.6c-1-1.5-2.3-2.2-3.9-2.2s-2.8.8-2.8,2.2c.1,1.5.8,1.7,2.6,2.6l2.1,1c3,1.4,4.4,2.8,4.4,5.3s-2.6,5.3-6.2,5.3-5.5-1.5-7-4l2.1-1.6Z"/>
  <path class="cls-1" d="M100.7,21c-.9.2-1.7.3-2.4.3-3.2,0-5.1-1.6-5.1-4.8v-6.7h-2.2v-2.5h2.2v-3.6h3v3.6h4.1v2.5h-4.1v6.5c0,1.8.9,2.4,2.7,2.4s1,0,1.8-.1v2.5Z"/>
  <path class="cls-1" d="M114.6,21h-2.7v-1.5c-1,1.2-2.5,1.8-4.4,1.8-2.9,0-4.8-1.6-4.8-4s2-3.9,5.1-3.9h3.9v-.9c0-1.9-1.1-2.9-2.9-2.9s-2.7.7-3.8,2l-1.7-1.7c1.4-2,3.4-2.9,5.8-2.9,3.4,0,5.6,2,5.6,5.7v8.3ZM111.6,15.5h-3.5c-1.6,0-2.4.6-2.4,1.7s1,1.8,2.4,1.8,3.6-1.4,3.6-3.2v-.3Z"/>
  <path class="cls-1" d="M126.9,21c-.9.2-1.7.3-2.4.3-3.2,0-5.1-1.6-5.1-4.8v-6.7h-2.2v-2.5h2.2v-3.6h3v3.6h4.1v2.5h-4.1v6.5c0,1.8.9,2.4,2.7,2.4s1,0,1.8-.1v2.5Z"/>
  <path class="cls-1" d="M131.7,15.1c.4,2.2,2.1,3.6,4.5,3.6s2.8-.5,4-1.6l1.4,2c-1.6,1.5-3.4,2.2-5.5,2.2-4.2,0-7.4-3.1-7.4-7.2,0-3.9,3.2-7.3,7.1-7.2,3.6,0,6.4,2.7,6.4,6.3s0,1.2-.2,1.8h-10.2ZM139.2,12.8c0-2.1-1.6-3.4-3.5-3.4s-3.5,1.3-3.9,3.4h7.5Z"/>
  <path class="cls-1" d="M145.8,2.5h3.4l-1.4,7.5h-2.3l.3-7.5Z"/>
  <path class="cls-1" d="M153.2,16.8c1.2,1.3,2.4,2,3.9,2s2.2-.5,2.2-1.5-.6-1.1-1.9-1.7l-1.4-.6c-2.4-1-3.6-2.1-3.6-4s2-4,4.8-4,3.6.7,4.8,2.1l-1.6,1.8c-.9-.9-2-1.4-3.2-1.4s-1.9.4-1.9,1.3.5,1.1,1.8,1.6l1.3.5c2.6,1.1,3.8,2.2,3.8,4.1s-.5,2.4-1.5,3.1c-1,.7-2.2,1.1-3.6,1.1-2.4,0-4.3-1.1-5.5-2.7l1.7-1.8Z"/>
</svg>