<?xml version="1.0" encoding="UTF-8"?>
<svg id="Layer_1" data-name="Layer 1" xmlns="http://www.w3.org/2000/svg" version="1.1" viewBox="0 0 54.3 21.3">
  <defs>
    <style>
      .cls-1 {
        fill: #ffbf3f;
        stroke-width: 0px;
      }
    </style>
  </defs>
  <path class="cls-1" d="M22.3,7.4l-5.7,13.9h-.8l-4.6-10.3-4.6,10.3h-.8L0,7.4h2.3l3.9,10.1,4.5-10.4h.8l4.6,10.3,3.9-10h2.3Z"/>
  <path class="cls-1" d="M26.6.6c.9,0,1.6.7,1.6,1.6s-.7,1.6-1.6,1.6-1.6-.7-1.6-1.6.7-1.6,1.6-1.6ZM25.5,7.4h2.2v13.6h-2.2V7.4Z"/>
  <path class="cls-1" d="M39.8,21c-.9.2-1.6.3-2.3.3-2.8,0-4.6-1.4-4.6-4.4v-7.6h-2.3v-1.9h2.3v-3.7h2.2v3.7h4.3v1.9h-4.3v7.4c0,1.9,1,2.6,2.9,2.6s1.1,0,1.8-.2v1.8Z"/>
  <path class="cls-1" d="M54.3,21h-2.2v-8.3c0-2.2-1.3-3.7-3.4-3.7s-3.6,1.5-3.6,3.7v8.3h-2.2V0h2.2v8.9c.9-1.1,2.4-1.8,4.1-1.8,3.1,0,5,2.2,5,5.4v8.6Z"/>
</svg>