<?xml version="1.0" encoding="UTF-8"?>
<svg id="Layer_1" data-name="Layer 1" xmlns="http://www.w3.org/2000/svg" version="1.1" viewBox="0 0 151.8 21.3">
  <defs>
    <style>
      .cls-1 {
        fill: #ffbf3f;
        stroke-width: 0px;
      }
    </style>
  </defs>
  <path class="cls-1" d="M9.7,2.2c3.4,0,6.3,1.7,7.9,4.3l-2.2,1.7c-1.3-2-3.2-3.2-5.7-3.2-3.8,0-6.7,2.9-6.7,6.8s2.9,6.8,6.7,6.8,4.3-1.1,5.7-3.2l2.2,1.7c-1.6,2.6-4.5,4.3-7.9,4.3C4.5,21.4-.1,17.1,0,11.8-.1,6.5,4.5,2.1,9.7,2.2Z"/>
  <path class="cls-1" d="M20.9,7.3h2.9v8.2c0,1.9,1.3,3.1,3.1,3.1s3-1.2,3-3.1V7.3h2.9v8c0,3.7-2.6,6.1-6,6.1s-6-2.4-6-6.1v-8Z"/>
  <path class="cls-1" d="M37.4,16.8c1.2,1.3,2.4,2,3.9,2s2.2-.5,2.2-1.5-.6-1.1-1.9-1.7l-1.4-.6c-2.4-1-3.6-2.1-3.6-4s2-4,4.8-4,3.6.7,4.8,2.1l-1.6,1.8c-.9-.9-2-1.4-3.2-1.4s-1.9.4-1.9,1.3.5,1.1,1.8,1.6l1.3.5c2.6,1.1,3.8,2.2,3.8,4.1s-.5,2.4-1.5,3.1c-1,.7-2.2,1.1-3.6,1.1-2.4,0-4.3-1.1-5.5-2.7l1.7-1.8Z"/>
  <path class="cls-1" d="M57.9,21c-.9.2-1.7.3-2.4.3-3.2,0-5.1-1.6-5.1-4.8v-6.7h-2.2v-2.5h2.2v-3.6h3v3.6h4.1v2.5h-4.1v6.5c0,1.8.9,2.4,2.7,2.4s1,0,1.8-.1v2.5Z"/>
  <path class="cls-1" d="M66.9,6.9c4,0,7.4,3.3,7.3,7.2,0,3.9-3.3,7.3-7.3,7.2-3.9,0-7.3-3.3-7.3-7.2,0-3.9,3.3-7.2,7.3-7.2ZM67,9.6c-2.4,0-4.3,2-4.3,4.5s1.8,4.5,4.3,4.5,4.3-2,4.3-4.5-1.9-4.5-4.3-4.5Z"/>
  <path class="cls-1" d="M98.3,21h-3v-8.2c0-1.9-1.1-3.2-2.9-3.2s-3,1.3-3,3.1v8.3h-2.9v-8.2c0-1.9-1.1-3.2-2.9-3.2s-3,1.3-3,3.2v8.2h-2.9V7.3h2.7v1.3c1-1,2.3-1.6,4-1.6s3.4.8,4.2,2.2c1-1.3,2.7-2.2,4.6-2.2,3.2,0,5.1,2.2,5.1,5.5v8.6Z"/>
  <path class="cls-1" d="M103.8.2c1.1,0,2,.9,2,2s-.9,1.9-2,1.9-2-.8-2-1.9.9-2,2-2ZM102.3,7.3h2.9v13.7h-2.9V7.3Z"/>
  <path class="cls-1" d="M119.7,18.5v2.5h-11.7v-.8l7.2-10.4h-6.6v-2.5h11v.8l-7.2,10.4h7.3Z"/>
  <path class="cls-1" d="M124.6,15.1c.4,2.2,2.1,3.6,4.5,3.6s2.8-.5,4-1.6l1.4,2c-1.6,1.5-3.4,2.2-5.5,2.2-4.2,0-7.4-3.1-7.4-7.2,0-3.9,3.2-7.3,7.1-7.2,3.6,0,6.4,2.7,6.4,6.3s0,1.2-.2,1.8h-10.2ZM132.1,12.8c0-2.1-1.6-3.4-3.5-3.4s-3.5,1.3-3.9,3.4h7.5Z"/>
  <path class="cls-1" d="M151.8,0v21h-2.7v-2c-1,1.4-2.8,2.3-4.8,2.3-3.9,0-6.7-3.1-6.7-7.2,0-4,2.9-7.3,6.7-7.2,1.9,0,3.6.7,4.6,2V0h3ZM144.8,9.6c-2.4,0-4.2,1.8-4.2,4.5s1.8,4.5,4.2,4.5,4.1-1.5,4.1-4.5-2-4.5-4.1-4.5Z"/>
</svg>