<?xml version="1.0" encoding="UTF-8"?>
<svg id="Layer_1" data-name="Layer 1" xmlns="http://www.w3.org/2000/svg" version="1.1" viewBox="0 0 253.4 142.4">
  <defs>
    <style>
      .cls-1 {
        fill: none;
        stroke: #fdbc3b;
      }

      .cls-1, .cls-2 {
        stroke-miterlimit: 10;
        stroke-width: 4.7px;
      }

      .cls-3 {
        stroke-width: 0px;
      }

      .cls-3, .cls-2 {
        fill: #002d72;
      }

      .cls-2 {
        stroke: #ffbf3f;
        stroke-linecap: round;
      }
    </style>
  </defs>
  <g>
    <path class="cls-3" d="M43.2,53.7l45.5,45.5s8.2-12,23-12.5c32.1-14.2,58.2-37.8,58.2-37.8l-100.7-17.5-25.9,22.3Z"/>
    <path class="cls-2" d="M55.1,137.5L4.8,87.3c-3.3-3.3-3.3-8.7,0-12l24-24c3.3-3.3,8.7-3.3,12,0l50.2,50.2c3.3,3.3,3.3,8.7,0,12l-24,24c-3.3,3.3-8.7,3.3-12,0ZM140.8,52.7h47.1c2.2,0,4-1.8,4-4,0-10.4-8.4-18.8-18.7-18.8h-26.1c-3.9-.1-7.7-1.2-11.1-3.1-7-3.9-16.4-6.3-26.8-6.3-21,0-41.1,8.4-56,23.2l-10,10M88.7,99.2l5.5-5.5c3.7-3.7,8.6-5.7,13.8-5.7h58.8c4.2,0,8.2-1.7,11.2-4.6L250.4,10.8c.8-.8.8-2,0-2.8-7.1-7.1-18.5-7.6-26.2-1.2l-36.3,30.3"/>
  </g>
  <circle class="cls-1" cx="72.3" cy="107.6" r="4.2"/>
</svg>