<?xml version="1.0" encoding="UTF-8"?>
<svg id="Layer_1" data-name="Layer 1" xmlns="http://www.w3.org/2000/svg" xmlns:xlink="http://www.w3.org/1999/xlink" version="1.1" viewBox="0 0 215.6 47.5">
  <defs>
    <style>
      .cls-1 {
        mask: url(#mask);
      }

      .cls-2 {
        fill: #ffbf3f;
      }

      .cls-2, .cls-3 {
        fill-rule: evenodd;
        stroke-width: 0px;
      }

      .cls-3 {
        fill: #fff;
      }

      .cls-4 {
        mask: url(#mask-1);
      }
    </style>
    <mask id="mask" x=".2" y="29.1" width="18.9" height="18.3" maskUnits="userSpaceOnUse">
      <g id="_0qlatkqx1b" data-name="0qlatkqx1b">
        <path id="xug0mt3vua" class="cls-3" d="M.2,29.1h18.9v18.3H.2v-18.3Z"/>
      </g>
    </mask>
    <mask id="mask-1" x="0" y="4.5" width="30.2" height="38.4" maskUnits="userSpaceOnUse">
      <g id="yj5fx719zd">
        <path id="_6g4296ayvc" data-name="6g4296ayvc" class="cls-3" d="M0,4.5h30.2v38.4H0V4.5Z"/>
      </g>
    </mask>
  </defs>
  <path class="cls-2" d="M22.2,18.3c2-1.6,4.3-3.3,6.5-5,1.4-1.1,2-2.9-.1-4.3-1.8-1.2-9.6-6.9-12.5-8.7-1.7-1.1-6,.9-4.8,5.3.9,3,5,7.7,10.8,12.7"/>
  <g class="cls-1">
    <path class="cls-2" d="M8,29.1c-2.1,1.6-4.3,3.3-6.5,5-1.4,1.1-2,2.9.1,4.3,1.8,1.2,9.6,6.9,12.5,8.7,1.7,1.1,6-.9,4.8-5.3-.9-3-5-7.7-10.8-12.7"/>
  </g>
  <g class="cls-4">
    <path class="cls-2" d="M25.3,27l-12.8-13.2c-3.7-3.9-5-6.7-4.8-8.8,0-1.2-.7-.6-4.9,2.5-5.9,4.2-1.1,9.6,2.1,12.9l12.8,13.2c3.7,3.9,5,6.7,4.8,8.8,0,1.2.7.6,4.9-2.5,5.9-4.2,1.1-9.6-2.1-12.9"/>
  </g>
  <path class="cls-3" d="M59.7,17.8l-1.4.5c-1.8-2.9-5.3-6.5-8.9-6.5s-4.5,1.3-4.5,3.9,3.1,3.7,5.4,4.4l2.1.7c4.4,1.4,8.7,3.5,8.7,8.8s-4.1,8.3-8.8,8.3-3-.3-4.5-.8c-.7-.2-1.1-.4-1.8-.4s-.9,0-3.2,1.1l-2.3-8.3,1.4-.5c2.1,3.4,5.6,7.4,9.9,7.4s5.2-1.8,5.2-4.6-2.9-3.8-5.1-4.5c-4.8-1.5-10.7-3.3-10.7-9.4s3.6-7.5,8-7.5,2.6.2,3.9.7c.5.2,1,.4,1.5.4.9,0,2.1-.7,2.8-1.3,0,0,2.4,7.7,2.4,7.7ZM67.5,28.7c0,2.6.6,7.5,4.1,7.5s4-5,4-7.5-.3-7.8-3.9-7.8-4.2,5.1-4.2,7.8M62.3,28.8c0-6.2,5.3-9.3,9.6-9.3s8.7,4.6,8.7,8.5-3.7,9.5-9.2,9.5-9.1-3.7-9.1-8.8M94.2,34.7c-1.9,1.5-4,2.9-6.5,2.9s-4.9-2.3-4.9-5.3v-6.4c0-1.9-.5-3.2-2.5-3.4v-1.1l7.7-2.2v13.1c0,1.4,1,2.3,2.5,2.3s2.8-1,3.8-1.9v-6.8c0-1.9-.5-3.2-2.5-3.4v-1.1l7.7-2.2v13.5c0,1.9.5,3.2,2.6,3.4v1.1h-7.7v-2.5h0ZM100.7,21.5v-1.7c4.6-.4,5.3-3,6.4-6.3h1.4v6.3h5v1.7h-5v11c0,1.3.5,2.6,2.3,2.6s2-.7,2.8-1.3l.8.8c-1.4,1.8-3.8,3.1-6,3.1-3.8,0-5-2.9-5-5v-11.1h-2.5ZM121.8,22.2c1.9-1.5,3.6-2.8,6.1-2.8s5,2.2,5,4.9v9.3c0,2.1,1.2,2.3,2.3,2.3v1.1h-9.8v-1.1c1.3,0,2.3-.1,2.4-2.9v-8.1c0-.5-.5-2.4-2.6-2.4s-2.4.8-3.4,1.4v9.8c0,2.1,1.2,2.3,2.3,2.3v1.1h-9.8v-1.1c1.3,0,2.3-.1,2.4-2.9v-16c0-1.9-.5-3.2-2.5-3.4v-1.1l7.7-2.2s0,11.9,0,11.9ZM155.2,17.8l-1.4.5c-1.8-2.9-5.3-6.5-8.9-6.5s-4.5,1.3-4.5,3.9,3.1,3.7,5.4,4.4l2.1.7c4.4,1.4,8.7,3.5,8.7,8.8s-4.1,8.3-8.8,8.3-3-.3-4.5-.8c-.7-.2-1.1-.4-1.8-.4s-.9,0-3.2,1.1l-2.3-8.3,1.4-.5c2.1,3.4,5.6,7.4,9.9,7.4s5.2-1.8,5.2-4.6-2.9-3.8-5.1-4.5c-4.8-1.5-10.7-3.3-10.7-9.4s3.6-7.5,8-7.5,2.6.2,3.9.7c.5.2,1,.4,1.5.4.9,0,2.1-.7,2.8-1.3l2.4,7.7h0ZM156.3,21.5v-1.7c4.6-.4,5.3-3,6.4-6.3h1.4v6.3h5v1.7h-5v11c0,1.3.5,2.6,2.3,2.6s2-.7,2.8-1.3l.8.8c-1.4,1.8-3.8,3.1-6,3.1-3.8,0-5-2.9-5-5v-11.1h-2.5Z"/>
  <path class="cls-3" d="M180.3,27.7c-2.9.3-5.9,1.5-5.9,4.9s.8,2.9,2.5,2.9,2.6-1,3.4-2v-5.8ZM185.4,33c0,.9,0,2,1.2,2s.6-.1.9-.2l.2.6c-.9,1.2-2.5,2.1-4,2.1s-2.8-.8-3.5-2.1c-1.8,1.4-3.7,2.1-6,2.1s-5.3-1.4-5.3-4.5c0-5,7.5-6.4,11.3-7v-1c0-1.7.1-4.5-2.4-4.5s-2.2,1.3-2.7,2.7c-.4,1.2-1.3,2.5-2.6,2.5s-2.3-.9-2.3-2.1c0-1.8,2.1-4.3,8.2-4.3s4,.3,5.3,1.3c1.6,1.3,1.6,2.9,1.6,4.6v7.6h0ZM187.2,21.5v-1.7c4.6-.4,5.3-3,6.4-6.3h1.4v6.3h5v1.7h-5v11c0,1.3.5,2.6,2.3,2.6s2-.7,2.8-1.3l.8.8c-1.4,1.8-3.8,3.1-6,3.1-3.8,0-5-2.9-5-5v-11.1h-2.5Z"/>
  <path class="cls-3" d="M210.9,26.9c0-3.5-.7-5.9-3.5-5.9s-4,3.6-4,5.9h7.5ZM203.5,28.5c0,3.3,2.3,7,6.1,7s3.9-1.2,5.3-2.6l.9.8c-2.2,2.6-4.6,4-8.1,4s-9.2-3.3-9.2-8.5.8-4.6,2.3-6.5c1.7-2,4-3.1,6.6-3.1,5,0,8.4,3.9,8.3,9h-12,0Z"/>
</svg>