<?xml version="1.0" encoding="UTF-8"?>
<svg id="Layer_1" data-name="Layer 1" xmlns="http://www.w3.org/2000/svg" version="1.1" viewBox="0 0 216.6 39.2">
  <defs>
    <style>
      .cls-1 {
        fill: #ffbf3f;
        stroke-width: 0px;
      }
    </style>
  </defs>
  <path class="cls-1" d="M3.5,22c.4,4.1,3.6,6.9,7.7,6.9s4.5-1,6.4-2.8l1.9,2.2c-2.2,2.3-5.1,3.7-8.4,3.7-6.3,0-11.1-4.8-11.1-11s4.7-11,10.7-11,9.6,3.9,9.6,9.5,0,1.6-.3,2.5H3.5ZM16.9,19c0-3.8-2.8-6-6.3-6s-6.3,2.4-7.1,6h13.3Z"/>
  <path class="cls-1" d="M38.8,31.5l-6-8.6-6,8.6h-3.9l7.8-11-7.2-10.1h3.8l5.4,7.7,5.4-7.7h3.8l-7.3,10.1,7.9,11h-3.8Z"/>
  <path class="cls-1" d="M58.2,31.9c-3.1,0-6-1.3-7.7-3.5v10.8h-3.3V10.4h3.1v3.4c1.6-2.4,4.7-3.8,7.9-3.8,6,0,10.4,4.8,10.4,11s-4.5,11-10.4,11ZM57.8,13c-3.8,0-7.3,2.6-7.3,7.9s3.4,7.9,7.3,7.9,7.5-3.4,7.5-7.9-3.2-7.9-7.5-7.9Z"/>
  <path class="cls-1" d="M76.4,22c.4,4.1,3.6,6.9,7.7,6.9s4.5-1,6.4-2.8l1.9,2.2c-2.2,2.3-5.1,3.7-8.4,3.7-6.3,0-11.1-4.8-11.1-11s4.7-11,10.7-11,9.6,3.9,9.6,9.5,0,1.6-.3,2.5h-16.6ZM89.9,19c0-3.8-2.8-6-6.3-6s-6.3,2.4-7.1,6h13.3Z"/>
  <path class="cls-1" d="M110.3,13.4h-1.3c-3.5,0-6.6,2.3-6.6,6.2v11.9h-3.3V10.4h3.1v3c1.5-2,4-3.2,6.5-3.2s1,0,1.6.2v2.9Z"/>
  <path class="cls-1" d="M116.4,0c1.3,0,2.5,1.1,2.5,2.4s-1.1,2.4-2.5,2.4-2.5-1-2.5-2.4,1.1-2.4,2.5-2.4ZM114.7,10.4h3.3v21h-3.3V10.4Z"/>
  <path class="cls-1" d="M127.3,22c.4,4.1,3.6,6.9,7.7,6.9s4.5-1,6.4-2.8l1.9,2.2c-2.2,2.3-5.1,3.7-8.4,3.7-6.3,0-11.1-4.8-11.1-11s4.7-11,10.7-11,9.6,3.9,9.6,9.5,0,1.6-.3,2.5h-16.6ZM140.8,19c0-3.8-2.8-6-6.3-6s-6.3,2.4-7.1,6h13.3Z"/>
  <path class="cls-1" d="M167.4,31.5h-3.3v-12.8c0-3.3-2-5.6-5.2-5.6s-5.5,2.3-5.5,5.6v12.8h-3.3V10.4h3.1v2.2c1.6-1.7,3.8-2.7,6.5-2.7,4.9,0,7.8,3.3,7.8,8.3v13.2Z"/>
  <path class="cls-1" d="M183.9,10c3.7,0,6.8,1.8,8.7,4.6l-2.4,1.9c-1.7-2.3-3.8-3.4-6.3-3.4-4.4,0-7.6,3.5-7.6,7.9s3.3,7.9,7.6,7.9,4.5-1.1,6.2-3.4l2.4,1.9c-1.9,2.8-5,4.6-8.6,4.6-6.1,0-11-4.9-11-11-.1-6,5-11.1,11-11Z"/>
  <path class="cls-1" d="M199.7,22c.4,4.1,3.6,6.9,7.7,6.9s4.5-1,6.4-2.8l1.9,2.2c-2.2,2.3-5.1,3.7-8.4,3.7-6.3,0-11.1-4.8-11.1-11s4.7-11,10.7-11,9.6,3.9,9.6,9.5,0,1.6-.3,2.5h-16.6ZM213.2,19c0-3.8-2.8-6-6.3-6s-6.3,2.4-7.1,6h13.3Z"/>
</svg>