<?xml version="1.0" encoding="UTF-8"?>
<svg id="Layer_1" data-name="Layer 1" xmlns="http://www.w3.org/2000/svg" version="1.1" viewBox="0 0 255.5 56.3">
  <defs>
    <style>
      .cls-1 {
        fill: #ffbf3f;
        stroke-width: 0px;
      }
    </style>
  </defs>
  <path class="cls-1" d="M28.7,0C38.2,0,46.1,4.1,51.3,11.4l-6.4,5.2c-4-5.7-9.5-8.6-16.3-8.6-11.5,0-19.6,8.6-19.6,20.1s8.3,20.4,20.1,20.4,12.9-3.1,16.3-8.3v-5.9h-16.8v-7.8h25.5v15.4c-4.9,8.7-14.4,14.4-25.4,14.4C12.8,56.6-.2,43.8,0,28.2-.3,12.6,13-.2,28.7,0Z"/>
  <path class="cls-1" d="M99.2,55.4l-15.5-21.1h-10v21.1h-8.8V.9h19.9c11,0,18.5,6.9,18.5,16.7s-4,12.8-10.5,15.4l16.3,22.5h-10ZM73.7,26.6h11c6,0,9.7-3.6,9.7-8.9s-3.6-9-9.7-9h-11v17.9Z"/>
  <path class="cls-1" d="M141,0c15.4-.2,29,12.5,28.7,28.2.3,15.6-13.2,28.4-28.7,28.2-15.6.2-28.9-12.5-28.6-28.2C112.2,12.6,125.5-.2,141,0ZM141.1,8c-11.3,0-19.6,8.6-19.6,20.1s8.3,20.2,19.6,20.2,19.6-8.6,19.6-20.2-8.4-20.1-19.6-20.1Z"/>
  <path class="cls-1" d="M255.5.9l-21.2,55.4h-2.9l-16.3-38.6-16.3,38.6h-3L174.6.9h9.7l13.6,36.8L213.5,0h3.1l15.7,37.7L245.9.9h9.6Z"/>
</svg>