<?xml version="1.0" encoding="UTF-8"?>
<svg id="Layer_1" data-name="Layer 1" xmlns="http://www.w3.org/2000/svg" version="1.1" viewBox="0 0 222 40.6">
  <defs>
    <style>
      .cls-1 {
        fill: #ffbf3f;
        stroke-width: 0px;
      }
    </style>
  </defs>
  <path class="cls-1" d="M14.1,32.4c-1.3.3-2.5.5-3.5.5-4.4,0-7.1-2.2-7.1-6.8v-11.7H0v-3h3.5v-5.7h3.3v5.7h6.6v3h-6.6v11.5c0,3,1.6,4,4.4,4s1.7,0,2.8-.3v2.8Z"/>
  <path class="cls-1" d="M28.1,10.9c6,0,11.1,5,11,11,.1,5.9-5.1,11.1-11.1,11-6,.1-11.1-5.1-11-11-.1-6,5-11.1,11-11ZM28.1,13.9c-4.3,0-7.6,3.4-7.6,7.9s3.3,7.9,7.6,7.9,7.6-3.5,7.6-7.9-3.3-7.9-7.6-7.9Z"/>
  <path class="cls-1" d="M74.5,32.4h-3.3v-12.8c0-3.4-2-5.7-5.2-5.7s-5.5,2.4-5.5,5.7v12.8h-3.3V0h3.3v13.7c1.4-1.8,3.7-2.8,6.3-2.8,4.8,0,7.8,3.3,7.8,8.3v13.2Z"/>
  <path class="cls-1" d="M83.4,22.9c.4,4.1,3.6,6.9,7.7,6.9s4.5-1,6.4-2.8l1.9,2.2c-2.2,2.3-5.1,3.7-8.4,3.7-6.3,0-11.1-4.8-11.1-11s4.7-11,10.7-11,9.6,3.9,9.6,9.5,0,1.6-.3,2.5h-16.6ZM96.9,19.9c0-3.8-2.8-6-6.3-6s-6.3,2.4-7.1,6h13.3Z"/>
  <path class="cls-1" d="M106.1,0h3.3v32.4h-3.3V0Z"/>
  <path class="cls-1" d="M127.8,32.9c-3.1,0-6-1.3-7.7-3.5v10.8h-3.3V11.4h3.1v3.4c1.6-2.4,4.7-3.8,7.9-3.8,6,0,10.4,4.8,10.4,11s-4.5,11-10.4,11ZM127.3,13.9c-3.8,0-7.3,2.6-7.3,7.9s3.4,7.9,7.3,7.9,7.5-3.4,7.5-7.9-3.2-7.9-7.5-7.9Z"/>
  <path class="cls-1" d="M174.6,11.4l-10.4,24c-1.6,3.7-3.9,5.3-7.1,5.3s-2.2-.1-3.2-.4v-2.8c1.1.1,1.9.2,2.5.2,2.2,0,3.7-.8,4.7-3.4l1.1-2.5-8.7-20.4h3.6l7,16.7,7-16.7h3.5Z"/>
  <path class="cls-1" d="M188,10.9c6,0,11.1,5,11,11,.1,5.9-5,11.1-11.1,11-6,.1-11.1-5.1-11-11-.1-6,5-11.1,11-11ZM188,13.9c-4.3,0-7.6,3.4-7.6,7.9s3.3,7.9,7.6,7.9,7.6-3.5,7.6-7.9-3.3-7.9-7.6-7.9Z"/>
  <path class="cls-1" d="M204.6,11.4h3.3v12.9c0,3.4,2.3,5.6,5.4,5.6s5.4-2.2,5.4-5.6v-12.9h3.3v12.6c0,5.3-3.8,8.8-8.7,8.8s-8.7-3.5-8.7-8.8v-12.6Z"/>
</svg>