<?xml version="1.0" encoding="UTF-8"?>
<svg id="Layer_1" data-name="Layer 1" xmlns="http://www.w3.org/2000/svg" version="1.1" viewBox="0 0 283.8 32.9">
  <defs>
    <style>
      .cls-1 {
        fill: #ffbf3f;
        stroke-width: 0px;
      }
    </style>
  </defs>
  <path class="cls-1" d="M2.5,24.9c2.1,3.2,4.8,4.9,7.9,4.9s5.7-1.9,5.7-4.7-1.6-3.5-4.7-5l-3.2-1.5c-3.9-1.9-6.4-3.8-6.4-7.6S5.7,3.4,10.4,3.4s7.1,1.9,8.9,4.8l-2.5,1.9c-1.6-2.3-3.9-3.6-6.5-3.6s-5.1,1.5-5.1,4.1.2,1.5.6,2.1c.7,1.1,1.8,1.6,4,2.7l3.2,1.5c4.5,2.2,6.6,4.3,6.6,7.9s-3.9,7.9-9.2,7.9S2.2,30.5,0,26.7l2.5-1.9Z"/>
  <path class="cls-1" d="M56.7,32.4h-3.3v-12.8c0-3.4-1.9-5.7-5-5.7s-5.4,2.4-5.4,5.4v13.1h-3.3v-12.8c0-3.4-1.9-5.7-5-5.7s-5.4,2.3-5.4,5.7v12.8h-3.3V11.4h3.1v2.2c1.5-1.7,3.7-2.7,6.3-2.7s5.3,1.3,6.5,3.6c1.6-2.2,4.1-3.6,7.2-3.6,4.8,0,7.6,3.3,7.6,8.3v13.2Z"/>
  <path class="cls-1" d="M79.5,32.4h-3.1v-2.7c-1.6,2.1-4,3.2-7.1,3.2s-7.3-2.3-7.3-5.9,3-5.9,7.6-5.9h6.6v-1.8c0-3.5-1.9-5.3-5.1-5.3s-4.4,1.1-6.1,3.4l-2.2-1.8c1.9-3.1,5.1-4.6,8.5-4.6,5,0,8.2,3,8.2,8.5v13ZM76.1,23.8h-6.3c-2.9,0-4.5,1-4.5,3s1.9,3.3,4.4,3.3,6.4-2.5,6.4-5.8v-.5Z"/>
  <path class="cls-1" d="M86.5,0h3.3v32.4h-3.3V0Z"/>
  <path class="cls-1" d="M97.1,0h3.3v32.4h-3.3V0Z"/>
  <path class="cls-1" d="M130.9,32.9c-3.3,0-6.4-1.4-8-3.8v3.3h-3.1V0h3.3v14.4c1.7-2.2,4.6-3.5,7.7-3.5,5.9,0,10.4,4.8,10.4,11s-4.4,11-10.4,11ZM130.4,13.9c-3.9,0-7.3,2.6-7.3,7.9s3.5,7.9,7.3,7.9,7.5-3.4,7.5-7.9-3.2-7.9-7.5-7.9Z"/>
  <path class="cls-1" d="M146.9,11.4h3.3v12.9c0,3.4,2.3,5.6,5.4,5.6s5.4-2.2,5.4-5.6v-12.9h3.3v12.6c0,5.3-3.8,8.8-8.7,8.8s-8.7-3.5-8.7-8.8v-12.6Z"/>
  <path class="cls-1" d="M171.4,26.5c2,2.1,3.7,3.2,6,3.2s4-1.1,4-3-1.1-2.3-3.7-3.4l-2-.9c-3.5-1.4-5.2-3-5.2-5.8s3.1-5.9,7.1-5.9,5.3,1.3,7,3.3l-2,2.1c-1.4-1.4-3.2-2.3-5.2-2.3s-3.5.9-3.5,2.6.9,2,3.4,3.1l1.9.8c3.9,1.7,5.6,3.3,5.6,6.2s-.7,3.5-2.2,4.6c-1.4,1.1-3.2,1.6-5.2,1.6-3.5,0-6.3-1.7-8.2-4.1l2.1-2.2Z"/>
  <path class="cls-1" d="M192.6.9c1.3,0,2.5,1.1,2.5,2.4s-1.1,2.4-2.5,2.4-2.5-1-2.5-2.4,1.1-2.4,2.5-2.4ZM190.9,11.4h3.3v21h-3.3V11.4Z"/>
  <path class="cls-1" d="M218.9,32.4h-3.3v-12.8c0-3.3-2-5.6-5.2-5.6s-5.5,2.3-5.5,5.6v12.8h-3.3V11.4h3.1v2.2c1.6-1.7,3.8-2.7,6.5-2.7,4.9,0,7.8,3.3,7.8,8.3v13.2Z"/>
  <path class="cls-1" d="M227.9,22.9c.4,4.1,3.6,6.9,7.7,6.9s4.5-.9,6.4-2.8l1.9,2.2c-2.2,2.3-5.1,3.7-8.4,3.7-6.3,0-11.1-4.8-11.1-11s4.7-11,10.7-11,9.6,3.9,9.6,9.5,0,1.6-.3,2.5h-16.6ZM241.3,19.9c0-3.8-2.8-6-6.3-6s-6.3,2.4-7.1,6h13.3Z"/>
  <path class="cls-1" d="M250.7,26.5c2,2.1,3.7,3.2,6,3.2s4-1.1,4-3-1.1-2.3-3.7-3.4l-2-.9c-3.5-1.4-5.2-3-5.2-5.8s3.1-5.9,7.1-5.9,5.3,1.3,7,3.3l-2,2.1c-1.4-1.4-3.2-2.3-5.2-2.3s-3.5.9-3.5,2.6.9,2,3.4,3.1l1.9.8c3.9,1.7,5.6,3.3,5.6,6.2s-.7,3.5-2.2,4.6c-1.4,1.1-3.2,1.6-5.2,1.6-3.5,0-6.3-1.7-8.2-4.1l2.1-2.2Z"/>
  <path class="cls-1" d="M270.3,26.5c2,2.1,3.7,3.2,6,3.2s4-1.1,4-3-1.1-2.3-3.7-3.4l-2-.9c-3.5-1.4-5.2-3-5.2-5.8s3.1-5.9,7.1-5.9,5.3,1.3,7,3.3l-2,2.1c-1.4-1.4-3.2-2.3-5.2-2.3s-3.5.9-3.5,2.6.9,2,3.4,3.1l1.9.8c3.9,1.7,5.6,3.3,5.6,6.2s-.7,3.5-2.2,4.6c-1.4,1.1-3.2,1.6-5.2,1.6-3.5,0-6.3-1.7-8.2-4.1l2.1-2.2Z"/>
</svg>