<?xml version="1.0" encoding="UTF-8"?>
<svg id="Layer_1" data-name="Layer 1" xmlns="http://www.w3.org/2000/svg" version="1.1" viewBox="0 0 296.6 34">
  <defs>
    <style>
      .cls-1 {
        fill: #ffbf3f;
        stroke-width: 0px;
      }
    </style>
  </defs>
  <path class="cls-1" d="M3.3,25c2,2.9,4.3,4.7,7.7,4.7s5.1-1.6,5.1-4.1-1.2-3-4.3-4.4l-3.3-1.5c-4.3-2-6.9-4.2-6.9-8.2S5.9,3.5,11,3.5s7.7,2.1,9.5,5.3l-3.3,2.5c-1.6-2.3-3.7-3.6-6.2-3.6s-4.5,1.2-4.5,3.6c.2,2.3,1.2,2.7,4.1,4.2l3.3,1.5c4.8,2.2,7.1,4.5,7.1,8.4s-4.2,8.5-9.9,8.5S2.3,31.6,0,27.6l3.3-2.5Z"/>
  <path class="cls-1" d="M59.6,33.5h-4.7v-13c0-3.1-1.7-5.1-4.6-5.1s-4.8,2.1-4.8,4.9v13.3h-4.7v-13c0-3-1.8-5.1-4.6-5.1s-4.8,2.1-4.8,5.1v13h-4.7V11.6h4.4v2.1c1.6-1.6,3.7-2.5,6.3-2.5s5.4,1.3,6.7,3.4c1.6-2.1,4.3-3.4,7.4-3.4,5,0,8.1,3.5,8.1,8.7v13.7Z"/>
  <path class="cls-1" d="M83.6,33.5h-4.4v-2.5c-1.6,1.9-4,2.9-7,2.9-4.6,0-7.6-2.5-7.6-6.3s3.1-6.2,8.1-6.2h6.2v-1.4c0-3-1.7-4.7-4.7-4.7s-4.2,1.1-6.1,3.3l-2.7-2.8c2.2-3.2,5.4-4.7,9.2-4.7,5.4,0,9,3.3,9,9.1v13.3ZM78.8,24.8h-5.6c-2.5,0-3.9.9-3.9,2.7s1.6,2.9,3.8,2.9,5.7-2.2,5.7-5.2v-.4Z"/>
  <path class="cls-1" d="M90.1,0h4.7v33.5h-4.7V0Z"/>
  <path class="cls-1" d="M101.5,0h4.7v33.5h-4.7V0Z"/>
  <path class="cls-1" d="M138.4,33.5h-12.6V4h10.3c5.3,0,8.8,3.3,8.8,7.9s-.8,4.2-2.5,5.5c3.4,1.1,5.5,3.9,5.5,7.5s-3.8,8.6-9.6,8.6ZM130.5,8.2v7.9h5.2c2.9,0,4.6-1.6,4.6-4s-1.7-3.9-4.6-3.9h-5.2ZM138,20.2h-7.6v9.2h7.6c3.3,0,5.2-1.7,5.2-4.6s-1.9-4.6-5.2-4.6Z"/>
  <path class="cls-1" d="M152.9,11.6h4.6v13.1c0,3,2.1,5,5,5s4.8-2,4.8-5v-13.1h4.7v12.7c0,5.9-4.2,9.7-9.5,9.7s-9.6-3.8-9.6-9.7v-12.7Z"/>
  <path class="cls-1" d="M179.2,26.8c1.9,2,3.8,3.1,6.2,3.1s3.5-.8,3.5-2.5-.9-1.8-3.1-2.7l-2.2-.9c-3.9-1.6-5.7-3.3-5.7-6.4s3.3-6.3,7.7-6.3,5.7,1.1,7.6,3.4l-2.5,2.9c-1.4-1.4-3.2-2.2-5.1-2.2s-3,.7-3,2.1.8,1.7,2.9,2.6l2.1.8c4.2,1.7,6,3.5,6,6.6s-.8,3.7-2.3,5c-1.6,1.2-3.5,1.7-5.8,1.7-3.7,0-6.9-1.7-8.8-4.2l2.7-2.9Z"/>
  <path class="cls-1" d="M201.2.3c1.7,0,3.2,1.4,3.2,3.1s-1.4,3.1-3.2,3.1-3.2-1.3-3.2-3.1,1.4-3.1,3.2-3.1ZM198.8,11.6h4.7v21.9h-4.7V11.6Z"/>
  <path class="cls-1" d="M229.5,33.5h-4.7v-13.1c0-3-1.9-5.1-4.8-5.1s-5,2.1-5,5.1v13.1h-4.7V11.6h4.4v2.1c1.7-1.7,3.8-2.6,6.6-2.6,5.1,0,8.2,3.5,8.2,8.7v13.7Z"/>
  <path class="cls-1" d="M239.4,24.1c.6,3.6,3.4,5.8,7.1,5.8s4.4-.8,6.4-2.6l2.2,3.2c-2.5,2.4-5.4,3.5-8.7,3.5-6.7,0-11.8-5-11.8-11.4-.1-6.3,5.1-11.6,11.3-11.5,5.8,0,10.1,4.3,10.1,10s-.1,1.9-.4,2.9h-16.3ZM251.4,20.4c0-3.3-2.5-5.4-5.6-5.4s-5.6,2.1-6.3,5.4h11.9Z"/>
  <path class="cls-1" d="M262,26.8c1.9,2,3.8,3.1,6.2,3.1s3.5-.8,3.5-2.5-.9-1.8-3.1-2.7l-2.2-.9c-3.9-1.6-5.7-3.3-5.7-6.4s3.3-6.3,7.7-6.3,5.7,1.1,7.6,3.4l-2.5,2.9c-1.4-1.4-3.2-2.2-5.1-2.2s-3,.7-3,2.1.8,1.7,2.9,2.6l2.1.8c4.2,1.7,6,3.5,6,6.6s-.8,3.7-2.3,5c-1.6,1.2-3.5,1.7-5.8,1.7-3.7,0-6.9-1.7-8.8-4.2l2.7-2.9Z"/>
  <path class="cls-1" d="M282.3,26.8c1.9,2,3.8,3.1,6.2,3.1s3.5-.8,3.5-2.5-.9-1.8-3.1-2.7l-2.2-.9c-3.9-1.6-5.7-3.3-5.7-6.4s3.3-6.3,7.7-6.3,5.7,1.1,7.6,3.4l-2.5,2.9c-1.4-1.4-3.2-2.2-5.1-2.2s-3,.7-3,2.1.8,1.7,2.9,2.6l2.1.8c4.2,1.7,6,3.5,6,6.6s-.8,3.7-2.3,5c-1.6,1.2-3.5,1.7-5.8,1.7-3.7,0-6.9-1.7-8.8-4.2l2.7-2.9Z"/>
</svg>