<?xml version="1.0" encoding="UTF-8"?>
<svg id="Layer_1" data-name="Layer 1" xmlns="http://www.w3.org/2000/svg" version="1.1" viewBox="0 0 385.8 23.9">
  <defs>
    <style>
      .cls-1 {
        fill: #fff;
        stroke-width: 0px;
      }
    </style>
  </defs>
  <path class="cls-1" d="M10.8,2.5c3.7,0,6.8,1.7,8.6,4.5l-1.8,1.4c-1.6-2.3-3.9-3.6-6.7-3.6-4.7,0-8.2,3.6-8.2,8.4s3.6,8.4,8.2,8.4,5.1-1.3,6.7-3.6l1.8,1.4c-1.7,2.7-4.9,4.5-8.6,4.5C4.9,24-.1,19.1,0,13.2-.1,7.2,4.9,2.4,10.8,2.5Z"/>
  <path class="cls-1" d="M30.2,7.9c4.4,0,8.1,3.6,8,8,0,4.3-3.7,8.1-8,8-4.4,0-8-3.7-8-8,0-4.4,3.6-8.1,8-8ZM30.2,10.1c-3.1,0-5.5,2.5-5.5,5.8s2.4,5.7,5.5,5.7,5.6-2.5,5.6-5.7-2.4-5.8-5.5-5.8Z"/>
  <path class="cls-1" d="M64.7,23.5h-2.4v-9.3c0-2.5-1.3-4.1-3.6-4.1s-3.9,1.7-3.9,3.9v9.5h-2.4v-9.3c0-2.5-1.4-4.1-3.6-4.1s-3.9,1.7-3.9,4.1v9.3h-2.4v-15.3h2.3v1.6c1.1-1.3,2.7-1.9,4.5-1.9s3.8,1,4.7,2.6c1.1-1.6,3-2.6,5.2-2.6,3.5,0,5.6,2.4,5.6,6v9.6Z"/>
  <path class="cls-1" d="M71.2,16.6c.3,3,2.6,5,5.6,5s3.3-.7,4.7-2.1l1.4,1.6c-1.6,1.7-3.7,2.7-6.1,2.7-4.5,0-8.1-3.5-8.1-8s3.4-8,7.8-8,7,2.9,7,6.9,0,1.2-.2,1.8h-12.1ZM81,14.5c0-2.7-2-4.4-4.5-4.4s-4.6,1.8-5.1,4.4h9.7Z"/>
  <path class="cls-1" d="M109,8.2l-7.2,15.6h-.9l-7.2-15.6h2.6l5.1,11.5,5-11.5h2.6Z"/>
  <path class="cls-1" d="M113.7.7c1,0,1.8.8,1.8,1.8s-.8,1.8-1.8,1.8-1.8-.8-1.8-1.8.8-1.8,1.8-1.8ZM112.4,8.2h2.4v15.3h-2.4v-15.3Z"/>
  <path class="cls-1" d="M120.2,19.3c1.5,1.5,2.7,2.4,4.4,2.4s2.9-.8,2.9-2.2-.8-1.7-2.7-2.4l-1.5-.6c-2.5-1-3.8-2.2-3.8-4.2s2.2-4.3,5.1-4.3,3.9.9,5.1,2.4l-1.5,1.5c-1-1-2.4-1.7-3.8-1.7s-2.5.7-2.5,1.9.6,1.4,2.5,2.2l1.4.6c2.9,1.2,4,2.4,4,4.5s-.5,2.5-1.6,3.3c-1,.8-2.3,1.2-3.8,1.2-2.5,0-4.6-1.2-6-3l1.5-1.6Z"/>
  <path class="cls-1" d="M135.6.7c1,0,1.8.8,1.8,1.8s-.8,1.8-1.8,1.8-1.8-.8-1.8-1.8.8-1.8,1.8-1.8ZM134.4,8.2h2.4v15.3h-2.4v-15.3Z"/>
  <path class="cls-1" d="M150.4,23.5c-1,.2-1.8.3-2.5.3-3.2,0-5.1-1.6-5.1-5v-8.5h-2.6v-2.2h2.6v-4.2h2.4v4.2h4.8v2.2h-4.8v8.3c0,2.2,1.1,2.9,3.2,2.9s1.3,0,2-.2v2Z"/>
  <path class="cls-1" d="M162.6,8.2h2.4v9.3c0,2.5,1.7,4,4,4s3.9-1.6,3.9-4v-9.3h2.4v9.2c0,3.9-2.8,6.4-6.3,6.4s-6.3-2.6-6.3-6.4v-9.2Z"/>
  <path class="cls-1" d="M180.5,19.3c1.5,1.5,2.7,2.4,4.4,2.4s2.9-.8,2.9-2.2-.8-1.7-2.7-2.4l-1.5-.6c-2.5-1-3.8-2.2-3.8-4.2s2.2-4.3,5.1-4.3,3.9.9,5.1,2.4l-1.5,1.5c-1-1-2.4-1.7-3.8-1.7s-2.5.7-2.5,1.9.6,1.4,2.5,2.2l1.4.6c2.9,1.2,4,2.4,4,4.5s-.5,2.5-1.6,3.3c-1,.8-2.3,1.2-3.8,1.2-2.5,0-4.6-1.2-6-3l1.5-1.6Z"/>
  <path class="cls-1" d="M214.8,23.5h-2.3v-2c-1.1,1.5-2.9,2.3-5.1,2.3s-5.3-1.7-5.3-4.3,2.2-4.3,5.5-4.3h4.8v-1.3c0-2.5-1.4-3.9-3.7-3.9s-3.2.8-4.5,2.4l-1.6-1.3c1.4-2.3,3.7-3.4,6.2-3.4,3.6,0,6,2.2,6,6.2v9.4ZM212.4,17.3h-4.5c-2.1,0-3.3.8-3.3,2.2s1.4,2.4,3.2,2.4,4.7-1.8,4.7-4.2v-.4Z"/>
  <path class="cls-1" d="M228.3,23.5c-1,.2-1.8.3-2.5.3-3.2,0-5.1-1.6-5.1-5v-8.5h-2.6v-2.2h2.6v-4.2h2.4v4.2h4.8v2.2h-4.8v8.3c0,2.2,1.1,2.9,3.2,2.9s1.3,0,2-.2v2Z"/>
  <path class="cls-1" d="M248.7,23.9c-2.4,0-4.6-1-5.8-2.8v2.4h-2.3V0h2.4v10.5c1.2-1.6,3.3-2.6,5.6-2.6,4.3,0,7.6,3.5,7.6,8s-3.2,8-7.5,8ZM248.3,10.1c-2.8,0-5.3,1.9-5.3,5.8s2.6,5.7,5.3,5.7,5.4-2.5,5.4-5.8-2.3-5.7-5.4-5.7Z"/>
  <path class="cls-1" d="M267.4,7.9c4.4,0,8.1,3.6,8,8,0,4.3-3.7,8.1-8,8-4.4,0-8-3.7-8-8,0-4.4,3.6-8.1,8-8ZM267.4,10.1c-3.1,0-5.5,2.5-5.5,5.8s2.4,5.7,5.5,5.7,5.6-2.5,5.6-5.7-2.4-5.8-5.5-5.8Z"/>
  <path class="cls-1" d="M286.5,7.9c4.4,0,8.1,3.6,8,8,0,4.3-3.7,8.1-8,8-4.4,0-8-3.7-8-8,0-4.4,3.6-8.1,8-8ZM286.5,10.1c-3.1,0-5.5,2.5-5.5,5.8s2.4,5.7,5.5,5.7,5.6-2.5,5.6-5.7-2.4-5.8-5.5-5.8Z"/>
  <path class="cls-1" d="M307.1,23.5c-1,.2-1.8.3-2.5.3-3.2,0-5.1-1.6-5.1-5v-8.5h-2.6v-2.2h2.6v-4.2h2.4v4.2h4.8v2.2h-4.8v8.3c0,2.2,1.1,2.9,3.2,2.9s1.3,0,2-.2v2Z"/>
  <path class="cls-1" d="M323.3,23.5h-2.4v-9.3c0-2.5-1.4-4.1-3.8-4.1s-4,1.7-4,4.1v9.3h-2.4V0h2.4v10c1-1.3,2.7-2.1,4.6-2.1,3.5,0,5.6,2.4,5.6,6v9.6Z"/>
  <path class="cls-1" d="M349.3,10.3l-.8,5.7h3.1v2.1h-3.4l-.8,5.4h-2l.7-5.4h-6l-.8,5.4h-2l.7-5.4h-2.8v-2.1h3l.8-5.7h-3v-2.1h3.3l.7-5.4h2.1l-.8,5.4h6l.7-5.4h2.1l-.8,5.4h2.8v2.1h-3ZM346.5,16l.8-5.7h-6l-.8,5.7h6Z"/>
  <path class="cls-1" d="M361.1,23.9c-3.2,0-5.6-1.8-7-4.3l1.7-1.2c1.3,2,2.9,3.3,5.3,3.3s4.8-1.8,4.8-4.6-1.9-4.3-5.2-4.3h-2v-.7l5.4-6.9h-8.6v-2.3h12.4v.7l-5.5,7.1c3.1.3,6,2.5,6,6.4s-3.4,6.9-7.3,6.9Z"/>
  <path class="cls-1" d="M378.7,23.9c-3.9,0-7.1-3-7.1-7s.2-2,.6-2.9c.4-.8,1-1.9,1.9-3.1.2-.3.3-.5.4-.6l5.1-7.5h2.9l-5.3,7.6c.5-.2,1.1-.3,1.7-.3,3.7,0,6.7,3,6.7,6.8s-3.1,7-7.1,7ZM378.7,12.2c-2.6,0-4.6,2.1-4.6,4.7s2,4.7,4.6,4.7,4.6-2.1,4.6-4.7-2-4.7-4.6-4.7Z"/>
</svg>