<?xml version="1.0" encoding="utf-8"?>
<!-- Generator: Adobe Illustrator 26.0.3, SVG Export Plug-In . SVG Version: 6.00 Build 0)  -->
<svg version="1.1" id="Layer_1" xmlns="http://www.w3.org/2000/svg" xmlns:xlink="http://www.w3.org/1999/xlink" x="0px" y="0px"
	 viewBox="0 0 66.2 50" style="enable-background:new 0 0 66.2 50;" xml:space="preserve">
<style type="text/css">
	.st0{fill:#FFFFFF;}
	.st1{fill:#231F20;stroke:#231F20;stroke-width:0.1766;}
	.st2{fill:#E21D38;}
</style>
<g>
	<path class="st0" d="M56.1,5.6c0.3,0,0.7,0.1,1,0.3c0.3,0.2,0.6,0.4,0.8,0.8c0.2,0.3,0.3,0.7,0.3,1c0,0.4-0.1,0.7-0.3,1
		c-0.2,0.3-0.4,0.6-0.8,0.8c-0.3,0.2-0.7,0.3-1,0.3c-0.4,0-0.7-0.1-1-0.3c-0.3-0.2-0.6-0.4-0.8-0.8C54.1,8.4,54,8,54,7.7
		c0-0.4,0.1-0.7,0.3-1c0.2-0.3,0.4-0.6,0.8-0.8C55.4,5.7,55.7,5.6,56.1,5.6z M56.1,5.9c-0.3,0-0.6,0.1-0.9,0.2
		c-0.3,0.1-0.5,0.4-0.6,0.6c-0.2,0.3-0.2,0.6-0.2,0.9c0,0.3,0.1,0.6,0.2,0.8C54.7,8.8,55,9,55.2,9.1c0.3,0.2,0.6,0.2,0.9,0.2
		c0.3,0,0.6-0.1,0.9-0.2c0.3-0.2,0.5-0.4,0.6-0.6c0.2-0.3,0.2-0.6,0.2-0.8c0-0.3-0.1-0.6-0.2-0.9c-0.2-0.3-0.4-0.5-0.6-0.6
		C56.7,6,56.4,5.9,56.1,5.9z M55.2,8.8V6.6H56c0.3,0,0.5,0,0.6,0.1c0.1,0,0.2,0.1,0.3,0.2c0.1,0.1,0.1,0.2,0.1,0.3
		c0,0.2-0.1,0.3-0.2,0.4c-0.1,0.1-0.3,0.2-0.5,0.2c0.1,0,0.1,0.1,0.2,0.1c0.1,0.1,0.2,0.2,0.3,0.4l0.3,0.4h-0.4l-0.2-0.3
		C56.3,8.2,56.1,8,56,7.9c-0.1-0.1-0.2-0.1-0.3-0.1h-0.2v0.9H55.2z M55.5,7.6H56c0.2,0,0.4,0,0.4-0.1c0.1-0.1,0.1-0.1,0.1-0.2
		c0-0.1,0-0.1-0.1-0.2c0-0.1-0.1-0.1-0.2-0.1c-0.1,0-0.2,0-0.4,0h-0.4V7.6z"/>
	<path class="st0" d="M54.1,10.2C54.1,10.2,54.1,10.2,54.1,10.2c0.5-6-6-5.9-6-5.9L19.2,4.4l0,2.7C8.5,10.3,1.9,17.4,1.9,25.4
		c0,11.2,14,20.3,31.2,20.3c17.2,0,31.2-9.1,31.2-20.3C64.3,18.9,60.8,13.9,54.1,10.2z"/>
	<path class="st1" d="M21.7,7.6C10.6,10.3,3.6,17.3,3.6,25.2C3.6,35.6,16.8,44,33.1,44c16.3,0,29.5-8.4,29.5-18.9
		c0-6.3-3.6-11.1-10.3-14.5c-0.2,0.8-0.4,1.2-0.7,1.8c2.3,1.6,4.8,3.1,4.8,7.4c-0.1,6.7-10.4,12.3-23.2,12.3
		c-12.8,0-23-5.4-23.2-12.2c-0.1-4.6,5-8.1,11.9-10.6"/>
	<g>
		<path class="st0" d="M11.7,28l-1.6,1.1l0.6,1.8l-1.6-1.1l-1.6,1.1l0.6-1.8L6.6,28h1.9l0.6-1.8L9.7,28H11.7z"/>
	</g>
	<g>
		<path class="st0" d="M59.4,28.2l-1.6,1.1l0.6,1.8L56.9,30l-1.6,1.1l0.6-1.8l-1.6-1.1l1.9,0l0.6-1.8l0.6,1.8L59.4,28.2z"/>
	</g>
	<path class="st2" d="M31.1,5.5v4.4h-1.7v11.6c0,1.1,0,2.3-0.9,3.4c-1.3,1.7-3.6,1.7-5.7,1.7h-3.9c-1.3,0-2.5-0.1-3.9-0.6
		c-1.7-0.6-2-2.9-2.1-4.2l0-3.2l6.3,0v3.6h3.1V9.9h-1.8V5.5H31.1z"/>
	<path class="st2" d="M32.6,5.5h13c2.2,0,4.8,0,6.1,1.3c0.9,0.9,1,2.2,1,3.7c0,3.2-0.5,4.7-4,5.2c3.6,0.8,4,2.1,4,4.6
		c0,3-0.3,4.3-1.3,5.2c-1.3,1.1-3.4,1.1-5.8,1.1H32.6v-4.4h1.7V9.9h-1.7V5.5z M41.4,9.9v4h4.2v-4H41.4z M41.4,17.7v4.5h4.2v-4.5
		H41.4z"/>
	<path class="st2" d="M30,13.9h3.9v3.9H30V13.9z"/>
	<g>
		<path class="st0" d="M13.4,29.2c1.4,0.7,2.7,1.3,4.1,1.9c0,0.6,0,1.1,0,1.7c-0.3-0.1-0.6-0.2-0.9-0.4c0.2,1.1,0.4,2.2,0.6,3.3
			c0.1,0.7,0.1,0.9,0.2,1.8c0.1-0.7,0.1-1,0.4-1.8c0.4-1.4,0.8-2.8,1.2-4.1c0.8,0.3,1.7,0.6,2.5,0.8c0.4,1.6,0.7,3.2,1.1,4.8
			c0.2,0.9,0.3,1.2,0.4,2c0.1-0.9,0.1-1.1,0.2-1.6c0.2-1,0.4-1.9,0.5-2.9c-0.3-0.1-0.7-0.2-1-0.2c0-0.6,0-1.1,0-1.7
			c1.4,0.4,2.8,0.7,4.3,0.9c0,0.6,0,1.1,0,1.7c-0.2,0-0.5-0.1-0.7-0.1c-0.4,2.1-0.9,4.1-1.3,6.2c-1.2-0.3-2.4-0.6-3.6-0.9
			c-0.3-1.4-0.6-2.7-1-4.1c-0.1-0.5-0.1-0.7-0.2-1.2c-0.1,0.5-0.1,0.7-0.3,1.1c-0.3,1.1-0.6,2.2-0.9,3.4c-1.2-0.4-2.3-0.9-3.5-1.4
			c-0.5-2.3-0.9-4.7-1.3-7.1c-0.2-0.1-0.4-0.2-0.7-0.3C13.4,30.3,13.4,29.7,13.4,29.2z"/>
		<path class="st0" d="M27.9,33.8c2.5,0.3,5,0.4,7.6,0.3c0,0.9,0,1.8,0,2.7c-0.8,0-1.6,0.1-2.4,0.1c0-0.3,0-0.6,0-1
			c-0.5,0-1,0-1.6,0c0,0.5,0,1,0,1.5c0.7,0,1.5,0,2.2,0c0,0.5,0,1,0,1.5c-0.7,0-1.5,0-2.2,0c0,0.6,0,1.1,0,1.7c0.5,0,1,0,1.6,0
			c0-0.3,0-0.7,0-1c0.9,0,1.7,0,2.6-0.1c0,0.9,0,1.8,0,2.7c-2.6,0.2-5.2,0.1-7.7-0.3c0-0.6,0-1.1,0-1.7c0.2,0,0.5,0.1,0.7,0.1
			c0-1.6,0-3.2,0-4.7c-0.2,0-0.5-0.1-0.7-0.1C27.9,35,27.9,34.4,27.9,33.8z"/>
		<path class="st0" d="M36.8,34c1.4-0.1,2.9-0.3,4.3-0.6c0,0.6,0,1.1,0,1.7c-0.2,0-0.5,0.1-0.7,0.1c0,1.6,0,3.2,0,4.7
			c0.4-0.1,0.9-0.2,1.3-0.3c0-0.5,0-1,0-1.4c0.9-0.2,1.8-0.4,2.7-0.7c0,1,0,2.1,0,3.1c-2.5,0.7-5,1.2-7.6,1.4c0-0.6,0-1.1,0-1.7
			c0.2,0,0.5,0,0.7-0.1c0-1.6,0-3.2,0-4.7c-0.2,0-0.5,0-0.7,0.1C36.8,35.2,36.8,34.6,36.8,34z"/>
		<path class="st0" d="M45.2,32.4c1.8-0.5,3.5-1.2,5.3-2c0.5-0.2,1.1-0.5,1.6-0.6c0.9-0.1,0.9,0.8,0.9,1.4c0,1.3,0,2.5,0,3.8
			c0,0.5,0,1-0.2,1.5c-0.4,1-1.4,1.5-2.2,1.9c-1.8,0.8-3.5,1.5-5.3,2c0-0.6,0-1.1,0-1.7c0.2-0.1,0.4-0.1,0.7-0.2c0-1.6,0-3.2,0-4.7
			c-0.2,0.1-0.4,0.1-0.7,0.2C45.2,33.5,45.2,33,45.2,32.4z M50.2,32.2c-0.5,0.2-1,0.4-1.5,0.6c0,1.6,0,3.2,0,4.7
			c0.5-0.2,1-0.4,1.5-0.6C50.2,35.4,50.2,33.8,50.2,32.2z"/>
	</g>
</g>
</svg>
