<svg id="Layer_1" data-name="Layer 1" xmlns="http://www.w3.org/2000/svg" viewBox="0 0 116.75 28.88"><defs><style>.cls-1{fill:#ec1c24;}.cls-2{fill:#fff;}</style></defs><title>Artboard 1</title><g id="Layer_2" data-name="Layer 2"><rect class="cls-1" width="116.75" height="28.88"/></g><g id="Layer_3" data-name="Layer 3"><path class="cls-2" d="M20.85,19.58v-1.1l.88-.1c.19,0,.22-.07.22-.28V11c0-.21,0-.26-.22-.28l-.88-.1V9.5h4.64v1.1l-1.16.11c-.21,0-.22.07-.22.26v7.12h2.48c.15,0,.19,0,.22-.15L27,16.55h1.53v3Z"/><path class="cls-2" d="M35.85,19a6.51,6.51,0,0,1-2.86.71c-2.69,0-3.61-1.67-3.61-3.84,0-2.52,1.55-3.72,3.46-3.72s3.06,1,3.06,3.37v.93H31.62c.07,1,.5,1.64,1.64,1.64a5.94,5.94,0,0,0,2.08-.47Zm-2-3.87c0-1.17-.47-1.48-1-1.48s-1.09.33-1.17,1.48Z"/><path class="cls-2" d="M41.23,19.58l-.14-.75H41a3.14,3.14,0,0,1-2.34.93,1.83,1.83,0,0,1-2-2.06c0-1.39.86-2,2.6-2.15l1.6-.11v-.77c0-.65-.07-1.1-.93-1.1-.67,0-1,.1-1,.93l-2-.17c0-1.88,1.71-2.15,3-2.15,2.12,0,3,.57,3,2.52v3.39c0,.22,0,.25.22.28l.67.11v1.1Zm-.38-3-1,.07c-.82.06-1.11.27-1.11.82a.7.7,0,0,0,.62.77h.17a2.29,2.29,0,0,0,1.27-.5Z"/><path class="cls-2" d="M44.31,19.58V18.45l.63-.08c.19,0,.22-.07.22-.28V14c0-.15,0-.25-.18-.29l-.75-.26.15-1.13h2.45L47,13.44h.08a2.33,2.33,0,0,1,2-1.25,6.47,6.47,0,0,1,1.21.13v2.54l-1.67-.06-.14-.74c0-.13-.07-.15-.18-.15a1.84,1.84,0,0,0-1,.49v3.69c0,.22,0,.26.22.28l1.38.11v1.11Z"/><path class="cls-2" d="M56,19.58v-4.5c0-.67,0-1.23-.74-1.23a2.81,2.81,0,0,0-1.45.52V18.1c0,.22,0,.25.22.28l.67.1v1.1H50.9V18.47l.63-.08c.19,0,.22-.07.22-.28V14c0-.15,0-.25-.18-.29l-.75-.26L51,12.32h2.44l.11.72h.06A4.09,4.09,0,0,1,56,12.19c1.52,0,2.1.84,2.1,2.37v3.55c0,.22,0,.25.22.28l.7.1v1.1Z"/><path class="cls-2" d="M71.23,19.58v-4.5c0-.54-.06-1.2-.78-1.2a2.06,2.06,0,0,0-1.13.38,5.55,5.55,0,0,1,0,.68V18.1c0,.24,0,.26.22.29l.56.08v1.1H67.26V15c0-.52,0-1.13-.74-1.13a1.94,1.94,0,0,0-1.16.45V18.1c0,.24,0,.24.22.28l.68.1v1.1H62.41v-1.1l.63-.1c.2,0,.22-.07.22-.28V14c0-.15,0-.25-.18-.29l-.75-.26.15-1.13h2.45L65,13h.07a3.43,3.43,0,0,1,2.23-.88A1.8,1.8,0,0,1,69,13a3.73,3.73,0,0,1,2.24-.84c1.49,0,2,.74,2,2.35v3.57c0,.22,0,.26.22.29l.7.08v1.1Z"/><path class="cls-2" d="M74.81,16c0-2.31,1.21-3.82,3.76-3.82s3.58,1.53,3.58,3.66c0,2.37-1.2,3.9-3.76,3.9S74.81,18.19,74.81,16Zm5.14-.08c0-1.64-.5-2.23-1.41-2.23S77,14.26,77,15.93s.54,2.35,1.48,2.35S79.95,17.66,79.95,15.92Z"/><path class="cls-2" d="M82.85,19.58V18.45l.63-.08c.2,0,.22-.07.22-.28V14c0-.15,0-.25-.18-.29l-.75-.26.15-1.13h2.45l.17,1.11h.08a2.33,2.33,0,0,1,2-1.25,6.46,6.46,0,0,1,1.21.13v2.54l-1.67-.06L87,14.05c0-.13-.07-.15-.18-.15a1.84,1.84,0,0,0-1,.49v3.69c0,.22,0,.26.22.28l1.38.11v1.11Z"/><path class="cls-2" d="M95.85,19a6.5,6.5,0,0,1-2.86.71c-2.69,0-3.61-1.67-3.61-3.84,0-2.52,1.55-3.72,3.46-3.72s3.06,1,3.06,3.37v.93H91.61c.07,1,.5,1.64,1.64,1.64a5.94,5.94,0,0,0,2.08-.47Zm-2-3.87c0-1.17-.47-1.48-1-1.48s-1.09.33-1.17,1.48Z"/></g></svg>