<svg id="Layer_2" data-name="Layer 2" xmlns="http://www.w3.org/2000/svg" viewBox="0 0 256.49 26.15"><defs><style>.cls-1{fill:#fff;}</style></defs><title>Artboard 1</title><path class="cls-1" d="M1.6,20.15a26.5,26.5,0,0,0,.32-3.82V2.48c0-.29-.08-.48-.35-.56L0,1.41.24,0H4.35V7.71A8.26,8.26,0,0,1,8.91,6.16c3,0,5,1.92,5,6.62,0,5.5-2.27,7.69-5.63,7.69a5.81,5.81,0,0,1-4.14-1.65l-.08.05L4,20.15Zm2.75-3.42A5.77,5.77,0,0,0,8,18.47c2.51,0,3.5-2.08,3.5-5.47s-1.33-4.8-3.23-4.8A7.11,7.11,0,0,0,4.35,9.69Z"/><path class="cls-1" d="M15.8,20.15V18.68l1.76-.16c.37,0,.43-.13.43-.53V8.91c0-.29-.08-.48-.35-.56l-1.52-.51.24-1.41h4.06V18c0,.43,0,.48.43.53l1.71.19v1.44Zm3-16.68a1.57,1.57,0,0,1-1.73-1.71A1.56,1.56,0,0,1,18.84.08a1.54,1.54,0,0,1,1.71,1.68A1.55,1.55,0,0,1,18.84,3.47Z"/><path class="cls-1" d="M34.67,8.33a4.15,4.15,0,0,1,1,2.78c0,3.15-2.43,4.91-5.55,4.91a6.7,6.7,0,0,1-2.27-.32L26.64,18l3.28.19c4.8.27,7,.51,7,3.66,0,2.64-2.27,4.3-6.91,4.3s-6.22-1.25-6.22-3.28c0-1.31.72-2.08,1.63-3a1.47,1.47,0,0,1-1.17-1.44,2.73,2.73,0,0,1,.59-1.47c.43-.61,1-1.28,1.47-1.92a4.13,4.13,0,0,1-2-3.79c0-3,2.16-5.07,5.79-5.07a9.24,9.24,0,0,1,2.37.27h4.75V8.14Zm-7.34,12a3.47,3.47,0,0,0-1.17,2.22c0,1.44,1.49,1.76,4.11,1.79,1.41,0,4.14-.21,4.14-2.24,0-1.25-1-1.36-2.78-1.52ZM30.11,8.11c-1.95,0-3.34,1-3.34,3,0,1.57.91,2.86,3.26,2.86a2.93,2.93,0,0,0,3.26-3C33.28,9.18,32.11,8.11,30.11,8.11Z"/><path class="cls-1" d="M49.14,8.33a4.15,4.15,0,0,1,1,2.78c0,3.15-2.43,4.91-5.55,4.91a6.7,6.7,0,0,1-2.27-.32L41.11,18l3.28.19c4.8.27,7,.51,7,3.66,0,2.64-2.27,4.3-6.91,4.3s-6.22-1.25-6.22-3.28c0-1.31.72-2.08,1.63-3a1.47,1.47,0,0,1-1.17-1.44,2.73,2.73,0,0,1,.59-1.47c.43-.61,1-1.28,1.47-1.92a4.13,4.13,0,0,1-2-3.79c0-3,2.16-5.07,5.79-5.07a9.24,9.24,0,0,1,2.38.27h4.75V8.14Zm-7.34,12a3.47,3.47,0,0,0-1.17,2.22c0,1.44,1.49,1.76,4.11,1.79,1.41,0,4.14-.21,4.14-2.24,0-1.25-1-1.36-2.78-1.52ZM44.58,8.11c-1.95,0-3.34,1-3.34,3,0,1.57.91,2.86,3.26,2.86a2.93,2.93,0,0,0,3.26-3C47.75,9.18,46.58,8.11,44.58,8.11Z"/><path class="cls-1" d="M64.14,19.27a9.76,9.76,0,0,1-4.86,1.2c-4.83,0-6.41-3.18-6.41-7.15,0-4.88,2.72-7.15,6.08-7.15s5.5,1.76,5.5,6.38c0,.35,0,.88-.05,1.33h-9c.08,2.7,1.17,4.54,4.08,4.54a7.68,7.68,0,0,0,3.84-1ZM62,12C62,9,60.59,8.11,59,8.11c-1.79,0-3.28,1-3.5,3.92Z"/><path class="cls-1" d="M74.55,10.25l-.32-1.65c0-.19-.05-.29-.27-.35A6.94,6.94,0,0,0,71.88,8c-1.95,0-2.83.85-2.83,2,0,1.52,1.6,1.84,3.34,2.3,2.08.53,4.35,1.17,4.35,4.06,0,3.1-2.59,4.16-5.42,4.16a12.78,12.78,0,0,1-4.83-.91V16l1.79.11L68.6,18a.39.39,0,0,0,.32.37,7.51,7.51,0,0,0,2.62.43c1.79,0,2.94-.67,2.94-2.11,0-1.6-1.52-2-3.23-2.37-2.08-.48-4.43-1-4.43-4s2.56-4.16,5.31-4.16a12.34,12.34,0,0,1,4.22.75v3.44Z"/><path class="cls-1" d="M87.93,19.64a10.1,10.1,0,0,1-3.71.83c-2.56,0-3.71-1.2-3.71-3.6V8.54c0-.16,0-.27-.21-.27H78.34V6.73c2.08-.27,2.67-1.09,3-3.82h1.57V6.16c0,.16,0,.27.21.27h3.92V8.27H82.94v7.87c0,1.68.4,2.32,1.92,2.32a7,7,0,0,0,2.48-.53Z"/><path class="cls-1" d="M106.93,19.27a9.76,9.76,0,0,1-4.86,1.2c-4.83,0-6.41-3.18-6.41-7.15,0-4.88,2.72-7.15,6.08-7.15s5.5,1.76,5.5,6.38c0,.35,0,.88-.05,1.33h-9c.08,2.7,1.17,4.54,4.08,4.54a7.68,7.68,0,0,0,3.84-1ZM104.82,12c-.05-3-1.44-3.92-3.07-3.92-1.79,0-3.28,1-3.5,3.92Z"/><path class="cls-1" d="M118.25,20.15V18.68l1.28-.16c.35,0,.48-.16.48-.53V11.66c0-1.73-.35-3.42-2.32-3.42A6.74,6.74,0,0,0,113.55,10v8c0,.43,0,.48.43.53l1.49.19v1.44h-6.11V18.68l1.33-.16c.37-.05.43-.13.43-.53V8.91c0-.29-.08-.48-.35-.56l-1.52-.51.24-1.41H113L113.21,8l.08,0a8.56,8.56,0,0,1,4.94-1.87c3.07,0,4.22,2,4.22,4.88V18c0,.43,0,.48.43.53l1.52.19v1.44Z"/><path class="cls-1" d="M137.39,19.27a9.76,9.76,0,0,1-4.86,1.2c-4.83,0-6.41-3.18-6.41-7.15,0-4.88,2.72-7.15,6.08-7.15s5.5,1.76,5.5,6.38c0,.35,0,.88-.05,1.33h-9c.08,2.7,1.17,4.54,4.08,4.54a7.68,7.68,0,0,0,3.84-1ZM135.28,12c-.05-3-1.44-3.92-3.07-3.92-1.79,0-3.28,1-3.5,3.92Z"/><path class="cls-1" d="M139.82,20.15V18.68l1.33-.16c.37-.05.43-.13.43-.53V8.91c0-.29-.08-.48-.35-.56l-1.52-.51L140,6.43h3.5l.27,1.84.08,0a5.46,5.46,0,0,1,4-2.14,8.42,8.42,0,0,1,1.92.24v4l-1.9-.08-.32-1.84c0-.21-.08-.27-.32-.27A5.56,5.56,0,0,0,144,9.93v8c0,.43,0,.51.43.53l2.46.21v1.44Z"/><path class="cls-1" d="M161.76,8.33a4.15,4.15,0,0,1,1,2.78c0,3.15-2.43,4.91-5.55,4.91a6.7,6.7,0,0,1-2.27-.32L153.73,18l3.28.19c4.8.27,7,.51,7,3.66,0,2.64-2.27,4.3-6.91,4.3s-6.22-1.25-6.22-3.28c0-1.31.72-2.08,1.63-3a1.47,1.47,0,0,1-1.17-1.44,2.74,2.74,0,0,1,.59-1.47c.43-.61,1-1.28,1.47-1.92a4.13,4.13,0,0,1-2-3.79c0-3,2.16-5.07,5.79-5.07a9.24,9.24,0,0,1,2.38.27h4.75V8.14Zm-7.34,12a3.47,3.47,0,0,0-1.17,2.22c0,1.44,1.49,1.76,4.11,1.79,1.41,0,4.14-.21,4.14-2.24,0-1.25-1-1.36-2.78-1.52ZM157.2,8.11c-1.95,0-3.34,1-3.34,3,0,1.57.91,2.86,3.26,2.86a2.93,2.93,0,0,0,3.26-3C160.37,9.18,159.2,8.11,157.2,8.11Z"/><path class="cls-1" d="M167.13,25.81V24.34L169,24.1c.32,0,.43-.19.59-.56L171.18,20l-4.8-11.37c-.13-.32-.24-.37-.56-.45l-1.09-.27L165,6.43h5.52V7.9l-1.76.21,3.55,9,3.71-9-1.81-.21.29-1.47h5.28V7.9l-.91.13a.77.77,0,0,0-.67.45L171.77,24.1l2.59.27v1.44Z"/><path class="cls-1" d="M197.31,20.15l-.21-1.76-.11,0a6.48,6.48,0,0,1-4.7,2.11c-3,0-5-2-5-6.89,0-5.26,2.38-7.42,5.58-7.42a7.08,7.08,0,0,1,4.08,1.28v-5a.5.5,0,0,0-.35-.53L195,1.41,195.21,0h4.08V18c0,.43,0,.48.43.53l1.36.19v1.44Zm-.45-10.54a6.22,6.22,0,0,0-3.66-1.44c-2.51,0-3.5,2.19-3.5,5.36,0,3.71,1.25,4.91,3.12,4.91,1.58,0,2.86-1,4-2.21Z"/><path class="cls-1" d="M202.95,20.15V18.68l1.33-.16c.37-.05.43-.13.43-.53V8.91c0-.29-.08-.48-.35-.56l-1.52-.51.24-1.41h3.5l.27,1.84.08,0a5.46,5.46,0,0,1,4-2.14,8.42,8.42,0,0,1,1.92.24v4l-1.9-.08-.32-1.84c0-.21-.08-.27-.32-.27a5.56,5.56,0,0,0-3.18,1.68v8c0,.43,0,.51.43.53l2.46.21v1.44Z"/><path class="cls-1" d="M222.86,20.15l-.24-1.73-.08,0a6.8,6.8,0,0,1-4.83,2.08c-3.34,0-3.76-2.3-3.76-3.66,0-2.67,1.65-3.92,4.86-4.19l3.6-.29V10.92C222.41,9,222,8,219.71,8c-1.63,0-2.8.05-2.83,2.06l-2.29-.24c0-3.28,3-3.66,5.15-3.66,3.79,0,5.07,1.07,5.07,4.75V18c0,.43,0,.48.43.53l1.36.19v1.44ZM222.41,14l-3,.27c-2.29.21-2.94.88-2.94,2.27s.61,2,1.87,2c1.57,0,3.26-1.28,4.08-2.05Z"/><path class="cls-1" d="M227.85,20.15V18.68l1.76-.16c.37,0,.43-.13.43-.53V8.91c0-.29-.08-.48-.35-.56l-1.52-.51.24-1.41h4.06V18c0,.43,0,.48.43.53l1.71.19v1.44Zm3-16.68a1.57,1.57,0,0,1-1.73-1.71A1.56,1.56,0,0,1,230.9.08a1.54,1.54,0,0,1,1.71,1.68A1.55,1.55,0,0,1,230.9,3.47Z"/><path class="cls-1" d="M245.09,20.15V18.68l1.28-.16c.35,0,.48-.16.48-.53V11.66c0-1.73-.35-3.42-2.32-3.42A6.74,6.74,0,0,0,240.4,10v8c0,.43,0,.48.43.53l1.49.19v1.44h-6.11V18.68l1.33-.16c.37-.05.43-.13.43-.53V8.91c0-.29-.08-.48-.35-.56l-1.52-.51.24-1.41h3.5L240.05,8l.08,0a8.56,8.56,0,0,1,4.94-1.87c3.07,0,4.22,2,4.22,4.88V18c0,.43,0,.48.43.53l1.52.19v1.44Z"/><path class="cls-1" d="M254.73,20.47A1.53,1.53,0,0,1,253,18.79a1.76,1.76,0,0,1,3.52,0A1.53,1.53,0,0,1,254.73,20.47Z"/></svg>