<svg id="Layer_2" data-name="Layer 2" xmlns="http://www.w3.org/2000/svg" viewBox="0 0 253.29 26.15"><defs><style>.cls-1{fill:#fff;}</style></defs><title>Artboard 1</title><path class="cls-1" d="M0,10.38C0,4.72,3.2.48,9.29.48s8.78,4.24,8.78,9.61c0,6.3-3,10.38-9.15,10.38S0,16.28,0,10.38Zm15.53,0c0-5.12-2.43-7.82-6.3-7.82s-6.7,2.72-6.7,7.85c0,5.36,2.59,8,6.51,8S15.53,15.85,15.53,10.35Z"/><path class="cls-1" d="M31.47,20.15l-.21-1.81-.05,0a7.68,7.68,0,0,1-5.15,2.16c-2.94,0-3.84-1.79-3.84-4.86V8.83c0-.43,0-.53-.43-.61l-1.39-.35.21-1.44h4v8.62c0,2.32.4,3.44,2.08,3.44A6.1,6.1,0,0,0,31,16.17V8.81c0-.43,0-.51-.43-.59l-1.33-.35.21-1.44h4V18c0,.4.08.53.37.56l1.41.19v1.44Z"/><path class="cls-1" d="M46.39,19.64a10.1,10.1,0,0,1-3.71.83c-2.56,0-3.71-1.2-3.71-3.6V8.54c0-.16,0-.27-.21-.27H36.81V6.73c2.08-.27,2.67-1.09,3-3.82H41.4V6.16c0,.16,0,.27.21.27h3.92V8.27H41.4v7.87c0,1.68.4,2.32,1.92,2.32a7,7,0,0,0,2.48-.53Z"/><path class="cls-1" d="M57.68,20.15l-.21-1.76-.11,0a6.47,6.47,0,0,1-4.7,2.11c-3,0-5-2-5-6.89,0-5.26,2.38-7.42,5.58-7.42a7.07,7.07,0,0,1,4.08,1.28v-5a.5.5,0,0,0-.35-.53l-1.6-.51L55.57,0h4.08V18c0,.43,0,.48.43.53l1.36.19v1.44ZM57.23,9.61a6.22,6.22,0,0,0-3.66-1.44c-2.51,0-3.5,2.19-3.5,5.36,0,3.71,1.25,4.91,3.12,4.91,1.57,0,2.86-1,4-2.21Z"/><path class="cls-1" d="M72.34,20.15l-.24-1.73-.08,0a6.8,6.8,0,0,1-4.83,2.08c-3.34,0-3.76-2.3-3.76-3.66,0-2.67,1.65-3.92,4.86-4.19l3.6-.29V10.92C71.88,9,71.51,8,69.19,8c-1.63,0-2.8.05-2.83,2.06l-2.29-.24c0-3.28,3-3.66,5.15-3.66,3.79,0,5.07,1.07,5.07,4.75V18c0,.43,0,.48.43.53l1.36.19v1.44ZM71.88,14l-3,.27c-2.29.21-2.94.88-2.94,2.27s.61,2,1.87,2c1.57,0,3.26-1.28,4.08-2.05Z"/><path class="cls-1" d="M86.62,19.64a10.1,10.1,0,0,1-3.71.83c-2.56,0-3.71-1.2-3.71-3.6V8.54c0-.16,0-.27-.21-.27H77V6.73c2.08-.27,2.67-1.09,3-3.82h1.57V6.16c0,.16,0,.27.21.27h3.92V8.27H81.63v7.87c0,1.68.4,2.32,1.92,2.32A7,7,0,0,0,86,17.93Z"/><path class="cls-1" d="M98.79,19.27a9.76,9.76,0,0,1-4.86,1.2c-4.83,0-6.41-3.18-6.41-7.15,0-4.88,2.72-7.15,6.08-7.15s5.5,1.76,5.5,6.38c0,.35,0,.88-.05,1.33h-9c.08,2.7,1.17,4.54,4.08,4.54a7.68,7.68,0,0,0,3.84-1ZM96.68,12c-.05-3-1.44-3.92-3.07-3.92-1.79,0-3.28,1-3.5,3.92Z"/><path class="cls-1" d="M111.42,20.15l-.21-1.76-.11,0a6.48,6.48,0,0,1-4.7,2.11c-3,0-5-2-5-6.89,0-5.26,2.38-7.42,5.58-7.42A7.08,7.08,0,0,1,111,7.45v-5a.5.5,0,0,0-.35-.53l-1.6-.51L109.31,0h4.08V18c0,.43,0,.48.43.53l1.36.19v1.44ZM111,9.61a6.22,6.22,0,0,0-3.66-1.44c-2.51,0-3.5,2.19-3.5,5.36,0,3.71,1.25,4.91,3.12,4.91,1.58,0,2.86-1,4-2.21Z"/><path class="cls-1" d="M122.66,20.15V18.68l1.65-.16c.37,0,.43-.13.43-.53V2.48c0-.29-.08-.48-.35-.56l-1.6-.51L123,0h4.14V18c0,.43,0,.48.43.53l1.6.19v1.44Z"/><path class="cls-1" d="M130.48,20.15V18.68l1.76-.16c.38,0,.43-.13.43-.53V8.91c0-.29-.08-.48-.35-.56l-1.52-.51L131,6.43h4.06V18c0,.43,0,.48.43.53l1.71.19v1.44Zm3-16.68a1.57,1.57,0,0,1-1.73-1.71A1.56,1.56,0,0,1,133.52.08a1.54,1.54,0,0,1,1.71,1.68A1.55,1.55,0,0,1,133.52,3.47Z"/><path class="cls-1" d="M149.35,8.33a4.15,4.15,0,0,1,1,2.78c0,3.15-2.43,4.91-5.55,4.91a6.7,6.7,0,0,1-2.27-.32L141.31,18l3.28.19c4.8.27,7,.51,7,3.66,0,2.64-2.27,4.3-6.91,4.3s-6.22-1.25-6.22-3.28c0-1.31.72-2.08,1.63-3a1.47,1.47,0,0,1-1.17-1.44,2.74,2.74,0,0,1,.59-1.47c.43-.61,1-1.28,1.47-1.92a4.13,4.13,0,0,1-2-3.79c0-3,2.16-5.07,5.79-5.07a9.24,9.24,0,0,1,2.38.27h4.75V8.14Zm-7.34,12a3.48,3.48,0,0,0-1.17,2.22c0,1.44,1.49,1.76,4.11,1.79,1.41,0,4.13-.21,4.13-2.24,0-1.25-1-1.36-2.78-1.52Zm2.78-12.17c-1.95,0-3.34,1-3.34,3,0,1.57.91,2.86,3.26,2.86A2.93,2.93,0,0,0,148,11C148,9.18,146.78,8.11,144.78,8.11Z"/><path class="cls-1" d="M162.11,20.15V18.68l1.28-.16c.35,0,.48-.16.48-.53V11.77c0-2-.35-3.55-2.24-3.55A7.26,7.26,0,0,0,157.41,10v8c0,.43,0,.48.43.53l1.49.19v1.44h-6.11V18.68l1.33-.16c.37-.05.43-.13.43-.53V2.48c0-.29-.08-.48-.35-.56L153,1.41,153.27,0h4.11V7.93a8.09,8.09,0,0,1,4.8-1.76C165,6.16,166.3,8,166.3,11v7c0,.43,0,.48.43.53l1.52.19v1.44Z"/><path class="cls-1" d="M179,19.64a10.11,10.11,0,0,1-3.71.83c-2.56,0-3.71-1.2-3.71-3.6V8.54c0-.16,0-.27-.21-.27h-1.95V6.73c2.08-.27,2.67-1.09,3-3.82H174V6.16c0,.16,0,.27.21.27h3.92V8.27H174v7.87c0,1.68.4,2.32,1.92,2.32a7,7,0,0,0,2.48-.53Z"/><path class="cls-1" d="M187.95,20.15a26.5,26.5,0,0,0,.32-3.82V2.48c0-.29-.08-.48-.35-.56l-1.57-.51L186.58,0h4.11V7.71a8.26,8.26,0,0,1,4.56-1.55c3,0,5,1.92,5,6.62,0,5.5-2.27,7.69-5.63,7.69a5.81,5.81,0,0,1-4.14-1.65l-.08.05-.13,1.28Zm2.75-3.42a5.78,5.78,0,0,0,3.66,1.73c2.51,0,3.5-2.08,3.5-5.47s-1.33-4.8-3.23-4.8a7.12,7.12,0,0,0-3.92,1.49Z"/><path class="cls-1" d="M213.52,20.15l-.21-1.81-.05,0a7.68,7.68,0,0,1-5.15,2.16c-2.94,0-3.84-1.79-3.84-4.86V8.83c0-.43,0-.53-.43-.61l-1.39-.35.21-1.44h4v8.62c0,2.32.4,3.44,2.08,3.44a6.1,6.1,0,0,0,4.3-2.32V8.81c0-.43,0-.51-.43-.59l-1.33-.35.21-1.44h4V18c0,.4.08.53.37.56l1.41.19v1.44Z"/><path class="cls-1" d="M219,20.15V18.68l1.65-.16c.38,0,.43-.13.43-.53V2.48c0-.29-.08-.48-.35-.56l-1.6-.51L219.36,0h4.14V18c0,.43,0,.48.43.53l1.6.19v1.44Z"/><path class="cls-1" d="M228.36,20.15a26.5,26.5,0,0,0,.32-3.82V2.48c0-.29-.08-.48-.35-.56l-1.57-.51L227,0h4.11V7.71a8.26,8.26,0,0,1,4.56-1.55c3,0,5,1.92,5,6.62,0,5.5-2.27,7.69-5.63,7.69a5.81,5.81,0,0,1-4.14-1.65l-.08.05-.13,1.28Zm2.75-3.42a5.78,5.78,0,0,0,3.66,1.73c2.51,0,3.5-2.08,3.5-5.47s-1.33-4.8-3.23-4.8a7.12,7.12,0,0,0-3.92,1.49Z"/><path class="cls-1" d="M251.1,10.25l-.32-1.65c0-.19-.05-.29-.27-.35A6.93,6.93,0,0,0,248.43,8c-1.95,0-2.83.85-2.83,2,0,1.52,1.6,1.84,3.34,2.3,2.08.53,4.35,1.17,4.35,4.06,0,3.1-2.59,4.16-5.42,4.16a12.77,12.77,0,0,1-4.83-.91V16l1.79.11.32,1.84a.39.39,0,0,0,.32.37,7.52,7.52,0,0,0,2.62.43c1.79,0,2.94-.67,2.94-2.11,0-1.6-1.52-2-3.23-2.37-2.08-.48-4.43-1-4.43-4s2.56-4.16,5.31-4.16a12.34,12.34,0,0,1,4.22.75v3.44Z"/></svg>