<svg id="Layer_2" data-name="Layer 2" xmlns="http://www.w3.org/2000/svg" viewBox="0 0 180.39 25.81"><defs><style>.cls-1{fill:#fff;}</style></defs><title>Artboard 1</title><path class="cls-1" d="M0,10.38C0,4.72,3.2.48,9.29.48s8.78,4.24,8.78,9.61c0,6.3-3,10.38-9.15,10.38S0,16.28,0,10.38Zm15.53,0c0-5.12-2.43-7.82-6.3-7.82s-6.7,2.72-6.7,7.85c0,5.36,2.59,8,6.51,8S15.53,15.85,15.53,10.35Z"/><path class="cls-1" d="M20.15,20.15V18.68l1.65-.16c.37,0,.43-.13.43-.53V2.48c0-.29-.08-.48-.35-.56l-1.6-.51L20.53,0h4.14V18c0,.43,0,.48.43.53l1.6.19v1.44Z"/><path class="cls-1" d="M38.49,20.15l-.21-1.76-.11,0a6.47,6.47,0,0,1-4.7,2.11c-3,0-5-2-5-6.89,0-5.26,2.38-7.42,5.58-7.42a7.07,7.07,0,0,1,4.08,1.28v-5a.5.5,0,0,0-.35-.53l-1.6-.51L36.38,0h4.08V18c0,.43,0,.48.43.53l1.36.19v1.44ZM38,9.61a6.22,6.22,0,0,0-3.66-1.44c-2.51,0-3.5,2.19-3.5,5.36,0,3.71,1.25,4.91,3.12,4.91,1.57,0,2.86-1,4-2.21Z"/><path class="cls-1" d="M59.07,20.15l-.24-1.73-.08,0a6.8,6.8,0,0,1-4.83,2.08c-3.34,0-3.76-2.3-3.76-3.66,0-2.67,1.65-3.92,4.86-4.19l3.6-.29V10.92C58.62,9,58.24,8,55.92,8c-1.63,0-2.8.05-2.83,2.06L50.8,9.82c0-3.28,3-3.66,5.15-3.66,3.79,0,5.07,1.07,5.07,4.75V18c0,.43,0,.48.43.53l1.36.19v1.44ZM58.62,14l-3,.27c-2.29.21-2.94.88-2.94,2.27s.61,2,1.87,2c1.57,0,3.26-1.28,4.08-2.05Z"/><path class="cls-1" d="M64.68,25.81V24.34l1.09-.16c.37-.05.45-.13.45-.53V8.91c0-.29-.08-.48-.35-.56l-1.52-.51.24-1.41h3.52L68.36,8l.08,0a7.84,7.84,0,0,1,4.78-1.84c3,0,5,1.92,5,6.62,0,4-1.36,7.69-5.55,7.69A5.75,5.75,0,0,1,68.63,19v4.62c0,.43,0,.51.43.53l2.51.21v1.44Zm3.95-9.07a5.58,5.58,0,0,0,3.66,1.73c2.54,0,3.5-2.11,3.5-5.47,0-3.63-1.41-4.78-3.07-4.78a7.13,7.13,0,0,0-4.08,1.65Z"/><path class="cls-1" d="M80.83,25.81V24.34l1.09-.16c.37-.05.45-.13.45-.53V8.91c0-.29-.08-.48-.35-.56l-1.52-.51.24-1.41h3.52L84.51,8l.08,0a7.84,7.84,0,0,1,4.78-1.84c3,0,5,1.92,5,6.62,0,4-1.36,7.69-5.55,7.69A5.75,5.75,0,0,1,84.78,19v4.62c0,.43,0,.51.43.53l2.51.21v1.44Zm3.95-9.07a5.58,5.58,0,0,0,3.66,1.73c2.54,0,3.5-2.11,3.5-5.47,0-3.63-1.41-4.78-3.07-4.78a7.13,7.13,0,0,0-4.08,1.65Z"/><path class="cls-1" d="M96.47,20.15V18.68l1.65-.16c.37,0,.43-.13.43-.53V2.48c0-.29-.08-.48-.35-.56l-1.6-.51L96.84,0H101V18c0,.43,0,.48.43.53l1.6.19v1.44Z"/><path class="cls-1" d="M104.29,20.15V18.68l1.76-.16c.37,0,.43-.13.43-.53V8.91c0-.29-.08-.48-.35-.56l-1.52-.51.24-1.41h4.06V18c0,.43,0,.48.43.53l1.71.19v1.44Zm3-16.68a1.57,1.57,0,0,1-1.73-1.71A1.56,1.56,0,0,1,107.33.08,1.54,1.54,0,0,1,109,1.76,1.55,1.55,0,0,1,107.33,3.47Z"/><path class="cls-1" d="M121.67,20.15l-.24-1.73-.08,0a6.8,6.8,0,0,1-4.83,2.08c-3.34,0-3.76-2.3-3.76-3.66,0-2.67,1.65-3.92,4.86-4.19l3.6-.29V10.92c0-1.95-.37-2.91-2.7-2.91-1.63,0-2.8.05-2.83,2.06l-2.29-.24c0-3.28,3-3.66,5.15-3.66,3.79,0,5.07,1.07,5.07,4.75V18c0,.43,0,.48.43.53l1.36.19v1.44ZM121.21,14l-3,.27c-2.29.21-2.94.88-2.94,2.27s.61,2,1.87,2c1.57,0,3.26-1.28,4.08-2.05Z"/><path class="cls-1" d="M136,20.15V18.68l1.28-.16c.35,0,.48-.16.48-.53V11.66c0-1.73-.35-3.42-2.32-3.42A6.74,6.74,0,0,0,131.28,10v8c0,.43,0,.48.43.53l1.49.19v1.44h-6.11V18.68l1.33-.16c.37-.05.43-.13.43-.53V8.91c0-.29-.08-.48-.35-.56L127,7.85l.24-1.41h3.5L130.93,8,131,8a8.56,8.56,0,0,1,4.94-1.87c3.07,0,4.22,2,4.22,4.88V18c0,.43,0,.48.43.53l1.52.19v1.44Z"/><path class="cls-1" d="M154.93,19.35a9,9,0,0,1-4.56,1.12c-4.56,0-6.51-2.8-6.51-7,0-5.07,2.94-7.29,7-7.29A9.78,9.78,0,0,1,154.9,7v3.55l-1.79-.08-.32-1.76a.39.39,0,0,0-.32-.37,6.07,6.07,0,0,0-1.81-.24c-2.37,0-4.27,1.39-4.27,5.2s1.76,5.18,4.35,5.18a7.13,7.13,0,0,0,3.42-.88Z"/><path class="cls-1" d="M167.79,19.27a9.76,9.76,0,0,1-4.86,1.2c-4.83,0-6.41-3.18-6.41-7.15,0-4.88,2.72-7.15,6.08-7.15s5.5,1.76,5.5,6.38c0,.35,0,.88-.05,1.33h-9c.08,2.7,1.17,4.54,4.08,4.54a7.68,7.68,0,0,0,3.84-1ZM165.68,12c-.05-3-1.44-3.92-3.07-3.92-1.79,0-3.28,1-3.5,3.92Z"/><path class="cls-1" d="M178.2,10.25l-.32-1.65c0-.19-.05-.29-.27-.35A6.93,6.93,0,0,0,175.53,8c-1.95,0-2.83.85-2.83,2,0,1.52,1.6,1.84,3.34,2.3,2.08.53,4.35,1.17,4.35,4.06,0,3.1-2.59,4.16-5.42,4.16a12.78,12.78,0,0,1-4.83-.91V16l1.79.11.32,1.84a.39.39,0,0,0,.32.37,7.52,7.52,0,0,0,2.62.43c1.79,0,2.94-.67,2.94-2.11,0-1.6-1.52-2-3.23-2.37-2.08-.48-4.43-1-4.43-4s2.56-4.16,5.31-4.16a12.35,12.35,0,0,1,4.22.75v3.44Z"/></svg>