<svg id="Layer_2" data-name="Layer 2" xmlns="http://www.w3.org/2000/svg" viewBox="0 0 256.87 26.1"><defs><style>.cls-1{fill:#fff;}</style></defs><title>Artboard 1</title><path class="cls-1" d="M0,20.44V19l1.71-.16c.37,0,.43-.13.43-.53V8.83c0-.16,0-.27-.21-.27H0V6.73H2.14v-2C2.14,1.57,3.71,0,7,0c2.19,0,4,.53,4,3.18L8.75,3.5c0-1.41-.61-1.68-1.84-1.68-2,0-2.35,1.07-2.35,2.8V6.46c0,.19,0,.27.21.27H9.15V8.57H4.56v9.66c0,.43,0,.51.43.53L8.11,19v1.44Z"/><path class="cls-1" d="M21.83,20.44l-.21-1.81-.05,0a7.68,7.68,0,0,1-5.15,2.16c-2.94,0-3.84-1.79-3.84-4.86V9.13c0-.43,0-.53-.43-.61l-1.39-.35L11,6.73h4v8.62c0,2.32.4,3.44,2.08,3.44a6.1,6.1,0,0,0,4.3-2.32V9.1c0-.43,0-.51-.43-.59l-1.33-.35.21-1.44h4V18.25c0,.4.08.53.37.56L25.6,19v1.44Z"/><path class="cls-1" d="M27.63,20.44V19L29,18.81c.37-.05.43-.13.43-.53V9.21c0-.29-.08-.48-.35-.56l-1.52-.51.24-1.41h3.5l.27,1.84.08,0a5.46,5.46,0,0,1,4-2.14,8.41,8.41,0,0,1,1.92.24v4l-1.9-.08-.32-1.84c0-.21-.08-.27-.32-.27a5.56,5.56,0,0,0-3.18,1.68v8c0,.43,0,.51.43.53L34.7,19v1.44Z"/><path class="cls-1" d="M48.07,20.44V19l1.28-.16c.35,0,.48-.16.48-.53V12c0-1.73-.35-3.42-2.32-3.42a6.73,6.73,0,0,0-4.14,1.71v8c0,.43,0,.48.43.53L45.3,19v1.44H39.19V19l1.33-.16c.37-.05.43-.13.43-.53V9.21c0-.29-.08-.48-.35-.56l-1.52-.51.24-1.41h3.5L43,8.3l.08,0A8.56,8.56,0,0,1,48,6.46c3.07,0,4.22,2,4.22,4.88v6.94c0,.43,0,.48.43.53l1.52.19v1.44Z"/><path class="cls-1" d="M65,20.44l-.24-1.73-.08,0a6.8,6.8,0,0,1-4.83,2.08c-3.34,0-3.76-2.3-3.76-3.66,0-2.67,1.65-3.92,4.86-4.19l3.6-.29V11.21c0-1.95-.37-2.91-2.7-2.91-1.63,0-2.8.05-2.83,2.06l-2.29-.24c0-3.28,3-3.66,5.15-3.66,3.79,0,5.07,1.07,5.07,4.75v7.07c0,.43,0,.48.43.53l1.36.19v1.44Zm-.45-6.14-3,.27c-2.29.21-2.94.88-2.94,2.27s.61,2,1.87,2c1.57,0,3.26-1.28,4.08-2.05Z"/><path class="cls-1" d="M81.41,19.64a9,9,0,0,1-4.56,1.12c-4.56,0-6.51-2.8-6.51-7,0-5.07,2.94-7.29,7-7.29a9.78,9.78,0,0,1,4.06.83v3.55l-1.79-.08L79.28,9A.39.39,0,0,0,79,8.62a6.07,6.07,0,0,0-1.81-.24c-2.38,0-4.27,1.39-4.27,5.2s1.76,5.18,4.35,5.18a7.13,7.13,0,0,0,3.42-.88Z"/><path class="cls-1" d="M94.28,19.56a9.76,9.76,0,0,1-4.86,1.2c-4.83,0-6.41-3.18-6.41-7.15,0-4.88,2.72-7.15,6.08-7.15s5.5,1.76,5.5,6.38c0,.35,0,.88-.05,1.33h-9c.08,2.7,1.17,4.54,4.08,4.54a7.68,7.68,0,0,0,3.84-1Zm-2.11-7.23c-.05-3-1.44-3.92-3.07-3.92-1.79,0-3.28,1-3.5,3.92Z"/><path class="cls-1" d="M104.69,10.54l-.32-1.65c0-.19-.05-.29-.27-.35A6.93,6.93,0,0,0,102,8.25c-1.95,0-2.83.85-2.83,2,0,1.52,1.6,1.84,3.34,2.3,2.08.53,4.35,1.17,4.35,4.06,0,3.1-2.59,4.16-5.42,4.16a12.78,12.78,0,0,1-4.83-.91V16.31l1.79.11.32,1.84a.39.39,0,0,0,.32.37,7.52,7.52,0,0,0,2.62.43c1.79,0,2.94-.67,2.94-2.11,0-1.6-1.52-2-3.23-2.37-2.08-.48-4.43-1-4.43-4s2.56-4.16,5.31-4.16a12.35,12.35,0,0,1,4.22.75v3.44Z"/><path class="cls-1" d="M125.88,19.64a9,9,0,0,1-4.56,1.12c-4.56,0-6.51-2.8-6.51-7,0-5.07,2.94-7.29,7-7.29a9.78,9.78,0,0,1,4.06.83v3.55l-1.79-.08L123.75,9a.39.39,0,0,0-.32-.37,6.07,6.07,0,0,0-1.81-.24c-2.37,0-4.27,1.39-4.27,5.2s1.76,5.18,4.35,5.18a7.13,7.13,0,0,0,3.42-.88Z"/><path class="cls-1" d="M136.59,20.44l-.24-1.73-.08,0a6.8,6.8,0,0,1-4.83,2.08c-3.34,0-3.76-2.3-3.76-3.66,0-2.67,1.65-3.92,4.86-4.19l3.6-.29V11.21c0-1.95-.37-2.91-2.7-2.91-1.63,0-2.8.05-2.83,2.06l-2.29-.24c0-3.28,3-3.66,5.15-3.66,3.79,0,5.07,1.07,5.07,4.75v7.07c0,.43,0,.48.43.53l1.36.19v1.44Zm-.45-6.14-3,.27c-2.29.21-2.94.88-2.94,2.27s.61,2,1.87,2c1.57,0,3.26-1.28,4.08-2.05Z"/><path class="cls-1" d="M150.89,20.44V19l1.28-.16c.35,0,.48-.16.48-.53V12c0-1.73-.35-3.42-2.32-3.42a6.74,6.74,0,0,0-4.14,1.71v8c0,.43,0,.48.43.53l1.49.19v1.44H142V19l1.33-.16c.37-.05.43-.13.43-.53V9.21c0-.29-.08-.48-.35-.56l-1.52-.51.24-1.41h3.5l.21,1.57.08,0a8.56,8.56,0,0,1,4.94-1.87c3.07,0,4.22,2,4.22,4.88v6.94c0,.43,0,.48.43.53L157,19v1.44Z"/><path class="cls-1" d="M165.87,20.44a26.5,26.5,0,0,0,.32-3.82V2.78c0-.29-.08-.48-.35-.56l-1.57-.51.24-1.41h4.11V8a8.26,8.26,0,0,1,4.56-1.55c3,0,5,1.92,5,6.62,0,5.5-2.27,7.69-5.63,7.69a5.81,5.81,0,0,1-4.14-1.65l-.08.05-.13,1.28ZM168.62,17a5.78,5.78,0,0,0,3.66,1.73c2.51,0,3.5-2.08,3.5-5.47s-1.33-4.8-3.23-4.8A7.11,7.11,0,0,0,168.62,10Z"/><path class="cls-1" d="M191.71,19.56a9.76,9.76,0,0,1-4.86,1.2c-4.83,0-6.41-3.18-6.41-7.15,0-4.88,2.72-7.15,6.08-7.15s5.5,1.76,5.5,6.38c0,.35,0,.88-.05,1.33h-9c.08,2.7,1.17,4.54,4.08,4.54a7.68,7.68,0,0,0,3.84-1Zm-2.11-7.23c-.05-3-1.44-3.92-3.07-3.92-1.79,0-3.28,1-3.5,3.92Z"/><path class="cls-1" d="M201.56,26.1V24.63l1.92-.24c.32,0,.43-.19.59-.56l1.55-3.55-4.8-11.37c-.13-.32-.24-.37-.56-.45l-1.09-.27.32-1.47H205V8.19l-1.76.21,3.55,9,3.71-9-1.81-.21L209,6.73h5.28V8.19l-.91.13a.77.77,0,0,0-.67.45L206.2,24.39l2.59.27V26.1Z"/><path class="cls-1" d="M215,13.53c0-4.19,2.13-7.07,6.7-7.07S228,9.37,228,13.37c0,4.48-2,7.39-6.59,7.39S215,17.77,215,13.53Zm10.51,0c0-3.5-1.28-5-3.87-5s-4.14,1.55-4.14,5.07,1.36,5.26,4,5.26S225.53,17.19,225.53,13.53Z"/><path class="cls-1" d="M241.17,20.44,241,18.63l-.05,0a7.68,7.68,0,0,1-5.15,2.16c-2.94,0-3.84-1.79-3.84-4.86V9.13c0-.43,0-.53-.43-.61l-1.39-.35.21-1.44h4v8.62c0,2.32.4,3.44,2.08,3.44a6.1,6.1,0,0,0,4.3-2.32V9.1c0-.43,0-.51-.43-.59L239,8.17l.21-1.44h4V18.25c0,.4.08.53.37.56l1.42.19v1.44Z"/><path class="cls-1" d="M247,20.44V19l1.33-.16c.37-.05.43-.13.43-.53V9.21c0-.29-.08-.48-.35-.56l-1.52-.51.24-1.41h3.5l.27,1.84.08,0a5.46,5.46,0,0,1,4-2.14,8.42,8.42,0,0,1,1.92.24v4l-1.9-.08-.32-1.84c0-.21-.08-.27-.32-.27a5.56,5.56,0,0,0-3.18,1.68v8c0,.43,0,.51.43.53L254,19v1.44Z"/></svg>