<svg id="Layer_4" data-name="Layer 4" xmlns="http://www.w3.org/2000/svg" viewBox="0 0 238.47 41.48"><defs><style>.cls-1{fill:#fff;}</style></defs><title>Artboard 1</title><path class="cls-1" d="M34.92,4.3l-.3-1.68c-.06-.28-.12-.36-.22-.42a4,4,0,0,0-1.88-.34c-2,0-3,.89-3,2.3,0,1.64,1.43,2.12,3,2.61,2,.61,4.22,1.27,4.22,4.24s-2.42,4.18-5.25,4.18a11.44,11.44,0,0,1-4.16-.75V11.19h1.33L29,12.93a.48.48,0,0,0,.4.44,6.91,6.91,0,0,0,2.22.34c2,0,3.23-.77,3.23-2.5S33.5,9,32,8.5c-2-.59-4.32-1.11-4.32-4.1,0-2.83,2.22-4,5-4A10.46,10.46,0,0,1,36.29,1V4.42Z"/><path class="cls-1" d="M47.52,15l-1.9-7.84L43.44,15H41.26L38.47,6.38c-.08-.24-.18-.28-.42-.34l-.85-.18.24-1.09h4V5.86L40.15,6l2.22,7.11,2.28-8.06h2.08l1.92,8L50.85,6l-1.29-.16.22-1.09h3.74V5.86L52.81,6c-.34.06-.42.14-.5.4L49.64,15Z"/><path class="cls-1" d="M54.2,15V13.86l1.31-.12c.28,0,.32-.1.32-.4V6.62c0-.22-.06-.36-.26-.42l-1.13-.38.18-1h3v8.58c0,.32,0,.36.32.4l1.27.14V15ZM56.46,2.57a1.16,1.16,0,0,1-1.29-1.27A1.16,1.16,0,0,1,56.46.06a1.14,1.14,0,0,1,1.27,1.25A1.15,1.15,0,0,1,56.46,2.57Z"/><path class="cls-1" d="M67.17,14.58a7.49,7.49,0,0,1-2.75.61c-1.9,0-2.75-.89-2.75-2.67V6.34c0-.12,0-.2-.16-.2H60.06V5c1.54-.2,2-.81,2.24-2.83h1.17V4.58c0,.12,0,.2.16.2h2.91V6.14H63.47V12c0,1.25.3,1.72,1.43,1.72a5.2,5.2,0,0,0,1.84-.4Z"/><path class="cls-1" d="M76.07,14.36a6.67,6.67,0,0,1-3.39.83c-3.39,0-4.83-2.08-4.83-5.21C67.85,6.22,70,4.58,73,4.58a7.26,7.26,0,0,1,3,.61V7.82l-1.33-.06-.24-1.31a.29.29,0,0,0-.24-.28A4.5,4.5,0,0,0,72.9,6c-1.76,0-3.17,1-3.17,3.86S71,13.71,73,13.71a5.29,5.29,0,0,0,2.54-.65Z"/><path class="cls-1" d="M84,15V13.86l1-.12c.26,0,.36-.12.36-.4V8.73c0-1.47-.26-2.63-1.66-2.63a5.39,5.39,0,0,0-3.13,1.29v6c0,.32,0,.36.32.4l1.11.14V15H77.42V13.86l1-.12c.28,0,.32-.1.32-.4V1.84c0-.22-.06-.36-.26-.42L77.28,1l.18-1h3V5.88a6,6,0,0,1,3.57-1.31c2.12,0,3,1.37,3,3.6v5.17c0,.32,0,.36.32.4l1.13.14V15Z"/><path class="cls-1" d="M101.07,14.58a7.49,7.49,0,0,1-2.75.61c-1.9,0-2.75-.89-2.75-2.67V6.34c0-.12,0-.2-.16-.2H94V5c1.54-.2,2-.81,2.24-2.83h1.17V4.58c0,.12,0,.2.16.2h2.91V6.14H97.37V12c0,1.25.3,1.72,1.43,1.72a5.2,5.2,0,0,0,1.84-.4Z"/><path class="cls-1" d="M101.74,9.82c0-3.11,1.58-5.25,5-5.25s4.69,2.16,4.69,5.13c0,3.33-1.51,5.49-4.89,5.49S101.74,13,101.74,9.82Zm7.8,0c0-2.59-1-3.74-2.87-3.74s-3.07,1.15-3.07,3.76,1,3.9,3,3.9S109.55,12.54,109.55,9.82Z"/><path class="cls-1" d="M124.13,15l-.18-1.29-.06,0a5.05,5.05,0,0,1-3.58,1.54,2.47,2.47,0,0,1-2.79-2.71c0-2,1.23-2.91,3.6-3.11l2.67-.22v-1c0-1.45-.28-2.16-2-2.16-1.21,0-2.08,0-2.1,1.52L118,7.29c0-2.44,2.26-2.71,3.82-2.71,2.81,0,3.76.79,3.76,3.53v5.25c0,.32,0,.36.32.4l1,.14V15Zm-.34-4.56-2.24.2c-1.7.16-2.18.65-2.18,1.68s.46,1.51,1.39,1.51a5.16,5.16,0,0,0,3-1.53Z"/><path class="cls-1" d="M134.75,15V13.86l1-.12c.26,0,.36-.12.36-.4V8.66c0-1.29-.26-2.54-1.72-2.54a5,5,0,0,0-3.07,1.27v6c0,.32,0,.36.32.4l1.11.14V15h-4.54V13.86l1-.12c.28,0,.32-.1.32-.4V6.62c0-.22-.06-.36-.26-.42l-1.13-.38.18-1h2.59L131,5.94l.06,0a6.35,6.35,0,0,1,3.66-1.39c2.28,0,3.13,1.47,3.13,3.62v5.15c0,.32,0,.36.32.4l1.13.14V15Z"/><path class="cls-1" d="M153.35,14.3a7.24,7.24,0,0,1-3.6.89c-3.58,0-4.75-2.36-4.75-5.31,0-3.62,2-5.31,4.52-5.31s4.08,1.31,4.08,4.73c0,.26,0,.65,0,1h-6.66c.06,2,.87,3.37,3,3.37a5.7,5.7,0,0,0,2.85-.71Zm-1.56-5.37c0-2.26-1.07-2.91-2.28-2.91s-2.44.71-2.59,2.91Z"/><path class="cls-1" d="M154.91,15V13.86l1.23-.12c.28,0,.32-.1.32-.4V1.84c0-.22-.06-.36-.26-.42L155,1l.18-1h3.07V13.35c0,.32,0,.36.32.4l1.19.14V15Z"/><path class="cls-1" d="M169.35,14.3a7.24,7.24,0,0,1-3.6.89c-3.58,0-4.75-2.36-4.75-5.31,0-3.62,2-5.31,4.52-5.31s4.08,1.31,4.08,4.73c0,.26,0,.65,0,1H162.9c.06,2,.87,3.37,3,3.37a5.7,5.7,0,0,0,2.85-.71Zm-1.56-5.37c0-2.26-1.07-2.91-2.28-2.91s-2.44.71-2.59,2.91Z"/><path class="cls-1" d="M179.32,14.36a6.68,6.68,0,0,1-3.39.83c-3.39,0-4.83-2.08-4.83-5.21,0-3.76,2.18-5.41,5.19-5.41a7.26,7.26,0,0,1,3,.61V7.82L178,7.76l-.24-1.31a.29.29,0,0,0-.24-.28A4.5,4.5,0,0,0,176.15,6C174.39,6,173,7,173,9.86s1.31,3.84,3.23,3.84a5.29,5.29,0,0,0,2.54-.65Z"/><path class="cls-1" d="M187.54,14.58a7.49,7.49,0,0,1-2.75.61c-1.9,0-2.75-.89-2.75-2.67V6.34c0-.12,0-.2-.16-.2h-1.45V5c1.54-.2,2-.81,2.24-2.83h1.17V4.58c0,.12,0,.2.16.2h2.91V6.14h-3.07V12c0,1.25.3,1.72,1.43,1.72a5.2,5.2,0,0,0,1.84-.4Z"/><path class="cls-1" d="M188.93,15V13.86l1-.12c.28,0,.32-.1.32-.4V6.62c0-.22-.06-.36-.26-.42l-1.13-.38.18-1h2.59l.2,1.37.06,0a4.05,4.05,0,0,1,3-1.58,6.23,6.23,0,0,1,1.43.18v3l-1.41-.06-.24-1.37c0-.16-.06-.2-.24-.2A4.12,4.12,0,0,0,192,7.37v6c0,.32,0,.38.32.4l1.82.16V15Z"/><path class="cls-1" d="M197.19,15V13.86l1.31-.12c.28,0,.32-.1.32-.4V6.62c0-.22-.06-.36-.26-.42l-1.13-.38.18-1h3v8.58c0,.32,0,.36.32.4l1.27.14V15Zm2.26-12.38a1.16,1.16,0,0,1-1.29-1.27A1.16,1.16,0,0,1,199.45.06a1.14,1.14,0,0,1,1.27,1.25A1.15,1.15,0,0,1,199.45,2.57Z"/><path class="cls-1" d="M211.37,14.36a6.68,6.68,0,0,1-3.39.83c-3.39,0-4.83-2.08-4.83-5.21,0-3.76,2.18-5.41,5.19-5.41a7.26,7.26,0,0,1,3,.61V7.82L210,7.76l-.24-1.31a.29.29,0,0,0-.24-.28A4.5,4.5,0,0,0,208.2,6C206.44,6,205,7,205,9.86s1.31,3.84,3.23,3.84a5.29,5.29,0,0,0,2.54-.65Z"/><path class="cls-1" d="M6.73,37V35.93l1-.12c.26,0,.36-.12.36-.4V30.8c0-1.47-.26-2.63-1.66-2.63a5.39,5.39,0,0,0-3.13,1.29v6c0,.32,0,.36.32.4L4.67,36V37H.14V35.93l1-.12c.28,0,.32-.1.32-.4V23.91c0-.22-.06-.36-.26-.42L0,23.12l.18-1h3V28a6,6,0,0,1,3.57-1.31c2.12,0,3,1.37,3,3.6v5.17c0,.32,0,.36.32.4l1.13.14V37Z"/><path class="cls-1" d="M20.94,36.37a7.24,7.24,0,0,1-3.6.89c-3.58,0-4.75-2.36-4.75-5.31,0-3.62,2-5.31,4.52-5.31s4.08,1.31,4.08,4.73c0,.26,0,.65,0,1H14.48c.06,2,.87,3.37,3,3.37A5.7,5.7,0,0,0,20.36,35ZM19.37,31c0-2.26-1.07-2.91-2.28-2.91S14.66,28.8,14.5,31Z"/><path class="cls-1" d="M29.18,37,29,35.74l-.06,0a5,5,0,0,1-3.58,1.54,2.47,2.47,0,0,1-2.79-2.71c0-2,1.23-2.91,3.6-3.11l2.67-.22v-1c0-1.45-.28-2.16-2-2.16-1.21,0-2.08,0-2.1,1.52L23,29.36c0-2.44,2.26-2.71,3.82-2.71,2.81,0,3.76.79,3.76,3.53v5.25c0,.32,0,.36.32.4L32,36V37Zm-.34-4.56-2.24.2c-1.7.16-2.18.65-2.18,1.68s.46,1.51,1.39,1.51a5.16,5.16,0,0,0,3-1.53Z"/><path class="cls-1" d="M39.78,36.65a7.49,7.49,0,0,1-2.75.61c-1.9,0-2.75-.89-2.75-2.67V28.41c0-.12,0-.2-.16-.2H32.67V27.06c1.54-.2,2-.81,2.24-2.83h1.17v2.42c0,.12,0,.2.16.2h2.91v1.37H36.07v5.84c0,1.25.3,1.72,1.43,1.72a5.2,5.2,0,0,0,1.84-.4Z"/><path class="cls-1" d="M45.7,41.22V40.13l.81-.12c.28,0,.34-.1.34-.4V28.68c0-.22-.06-.36-.26-.42l-1.13-.38.18-1h2.61L48.43,28l.06,0A5.82,5.82,0,0,1,52,26.64c2.22,0,3.72,1.43,3.72,4.91,0,3-1,5.7-4.12,5.7a4.26,4.26,0,0,1-3-1.09V39.6c0,.32,0,.38.32.4l1.86.16v1.07Zm2.93-6.73a4.14,4.14,0,0,0,2.71,1.29c1.88,0,2.59-1.56,2.59-4.06,0-2.69-1-3.54-2.28-3.54a5.29,5.29,0,0,0-3,1.23Z"/><path class="cls-1" d="M65.57,37l-.16-1.35,0,0a5.7,5.7,0,0,1-3.82,1.6c-2.18,0-2.85-1.33-2.85-3.6v-5c0-.32,0-.4-.32-.46l-1-.26.16-1.07h3v6.4c0,1.72.3,2.55,1.54,2.55a4.53,4.53,0,0,0,3.19-1.72V28.61c0-.32,0-.38-.32-.44l-1-.26.16-1.07h3V35.4c0,.3.06.4.28.42l1,.14V37Z"/><path class="cls-1" d="M82.05,37V35.93l1-.12c.26,0,.36-.12.36-.4V30.65c0-1.25-.28-2.44-1.68-2.44a4.65,4.65,0,0,0-2.61,1,11.23,11.23,0,0,1,.06,1.21v5c0,.32,0,.36.32.4l1,.14V37H76V35.93l1-.12c.26,0,.36-.12.36-.4V30.63c0-1.13-.08-2.42-1.51-2.42A4.84,4.84,0,0,0,73,29.44v6c0,.32,0,.36.32.4l1.07.14V37h-4.5V35.93l1-.12c.28,0,.32-.1.32-.4V28.68c0-.22-.06-.36-.26-.42l-1.13-.38.18-1h2.59L72.72,28l.06,0a5.35,5.35,0,0,1,3.51-1.39,2.62,2.62,0,0,1,2.44,1.27,5.93,5.93,0,0,1,3.51-1.27c2.26,0,2.93,1.39,2.93,3.68v5.09c0,.32,0,.36.32.4l1.13.14V37Z"/><path class="cls-1" d="M88.08,41.22V40.13l.81-.12c.28,0,.34-.1.34-.4V28.68c0-.22-.06-.36-.26-.42l-1.13-.38.18-1h2.61L90.81,28l.06,0a5.82,5.82,0,0,1,3.55-1.37c2.22,0,3.72,1.43,3.72,4.91,0,3-1,5.7-4.12,5.7a4.26,4.26,0,0,1-3-1.09V39.6c0,.32,0,.38.32.4l1.86.16v1.07ZM91,34.49a4.14,4.14,0,0,0,2.71,1.29c1.88,0,2.59-1.56,2.59-4.06,0-2.69-1-3.54-2.28-3.54a5.29,5.29,0,0,0-3,1.23Z"/><path class="cls-1" d="M111,37l-.18-1.29-.06,0a5,5,0,0,1-3.58,1.54,2.47,2.47,0,0,1-2.79-2.71c0-2,1.23-2.91,3.6-3.11l2.67-.22v-1c0-1.45-.28-2.16-2-2.16-1.21,0-2.08,0-2.1,1.52l-1.7-.18c0-2.44,2.26-2.71,3.82-2.71,2.81,0,3.76.79,3.76,3.53v5.25c0,.32,0,.36.32.4l1,.14V37Zm-.34-4.56-2.24.2c-1.7.16-2.18.65-2.18,1.68s.46,1.51,1.39,1.51a5.16,5.16,0,0,0,3-1.53Z"/><path class="cls-1" d="M121.63,37V35.93l1-.12c.26,0,.36-.12.36-.4V30.72c0-1.29-.26-2.54-1.72-2.54a5,5,0,0,0-3.07,1.27v6c0,.32,0,.36.32.4l1.11.14V37H115V35.93l1-.12c.28,0,.32-.1.32-.4V28.68c0-.22-.06-.36-.26-.42L115,27.89l.18-1h2.59l.16,1.17.06,0a6.35,6.35,0,0,1,3.66-1.39c2.28,0,3.13,1.47,3.13,3.62v5.15c0,.32,0,.36.32.4l1.13.14V37Z"/><path class="cls-1" d="M135.1,37l-.16-1.31-.08,0a4.8,4.8,0,0,1-3.49,1.56c-2.26,0-3.74-1.47-3.74-5.11,0-3.9,1.76-5.51,4.14-5.51a5.25,5.25,0,0,1,3,1v-3.7a.37.37,0,0,0-.26-.4l-1.19-.38.18-1h3V35.42c0,.32,0,.36.32.4l1,.14V37Zm-.34-7.82a4.62,4.62,0,0,0-2.71-1.07c-1.86,0-2.59,1.62-2.59,4,0,2.75.93,3.64,2.32,3.64a4.45,4.45,0,0,0,3-1.64Z"/><path class="cls-1" d="M151.58,28.25a3.08,3.08,0,0,1,.73,2.06c0,2.34-1.8,3.64-4.12,3.64a5,5,0,0,1-1.68-.24l-.89,1.72,2.44.14c3.57.2,5.17.38,5.17,2.71,0,2-1.68,3.19-5.13,3.19s-4.62-.93-4.62-2.44a3.11,3.11,0,0,1,1.21-2.24,1.09,1.09,0,0,1-.87-1.07,2,2,0,0,1,.44-1.09c.32-.46.73-1,1.09-1.43a3.07,3.07,0,0,1-1.49-2.81c0-2.22,1.6-3.76,4.3-3.76a6.84,6.84,0,0,1,1.76.2h3.53v1.27Zm-5.45,8.87a2.57,2.57,0,0,0-.87,1.64c0,1.07,1.11,1.31,3.05,1.33,1,0,3.07-.16,3.07-1.66,0-.93-.77-1-2.06-1.13Zm2.06-9c-1.45,0-2.48.71-2.48,2.26,0,1.17.67,2.12,2.42,2.12a2.17,2.17,0,0,0,2.42-2.24A2.06,2.06,0,0,0,148.2,28.09Z"/><path class="cls-1" d="M162.72,36.37a7.24,7.24,0,0,1-3.6.89c-3.58,0-4.75-2.36-4.75-5.31,0-3.62,2-5.31,4.52-5.31S163,28,163,31.38c0,.26,0,.65,0,1h-6.66c.06,2,.87,3.37,3,3.37a5.7,5.7,0,0,0,2.85-.71ZM161.15,31c0-2.26-1.07-2.91-2.28-2.91s-2.44.71-2.59,2.91Z"/><path class="cls-1" d="M171.28,36.65a7.49,7.49,0,0,1-2.75.61c-1.9,0-2.75-.89-2.75-2.67V28.41c0-.12,0-.2-.16-.2h-1.45V27.06c1.54-.2,2-.81,2.24-2.83h1.17v2.42c0,.12,0,.2.16.2h2.91v1.37h-3.07v5.84c0,1.25.3,1.72,1.43,1.72a5.2,5.2,0,0,0,1.84-.4Z"/><path class="cls-1" d="M185.18,37,185,35.68l0,0a5.7,5.7,0,0,1-3.82,1.6c-2.18,0-2.85-1.33-2.85-3.6v-5c0-.32,0-.4-.32-.46l-1-.26.16-1.07h3v6.4c0,1.72.3,2.55,1.54,2.55a4.53,4.53,0,0,0,3.19-1.72V28.61c0-.32,0-.38-.32-.44l-1-.26.16-1.07h3V35.4c0,.3.06.4.28.42l1,.14V37Z"/><path class="cls-1" d="M189.62,41.22V40.13l.81-.12c.28,0,.34-.1.34-.4V28.68c0-.22-.06-.36-.26-.42l-1.13-.38.18-1h2.61l.18,1.15.06,0A5.82,5.82,0,0,1,196,26.64c2.22,0,3.72,1.43,3.72,4.91,0,3-1,5.7-4.12,5.7a4.27,4.27,0,0,1-3-1.09V39.6c0,.32,0,.38.32.4l1.86.16v1.07Zm2.93-6.73a4.14,4.14,0,0,0,2.71,1.29c1.88,0,2.59-1.56,2.59-4.06,0-2.69-1-3.54-2.28-3.54a5.3,5.3,0,0,0-3,1.23Z"/><path class="cls-1" d="M212.64,36.65a7.49,7.49,0,0,1-2.75.61c-1.9,0-2.75-.89-2.75-2.67V28.41c0-.12,0-.2-.16-.2h-1.45V27.06c1.54-.2,2-.81,2.24-2.83h1.17v2.42c0,.12,0,.2.16.2H212v1.37h-3.07v5.84c0,1.25.3,1.72,1.43,1.72a5.2,5.2,0,0,0,1.84-.4Z"/><path class="cls-1" d="M213.31,31.89c0-3.11,1.58-5.25,5-5.25S223,28.8,223,31.77c0,3.33-1.51,5.49-4.89,5.49S213.31,35,213.31,31.89Zm7.8,0c0-2.59-1-3.74-2.87-3.74s-3.07,1.15-3.07,3.76,1,3.9,3,3.9S221.12,34.61,221.12,31.89Z"/><path class="cls-1" d="M235.7,37l-.18-1.29-.06,0a5.05,5.05,0,0,1-3.58,1.54,2.47,2.47,0,0,1-2.79-2.71c0-2,1.23-2.91,3.6-3.11l2.67-.22v-1c0-1.45-.28-2.16-2-2.16-1.21,0-2.08,0-2.1,1.52l-1.7-.18c0-2.44,2.26-2.71,3.82-2.71,2.81,0,3.76.79,3.76,3.53v5.25c0,.32,0,.36.32.4l1,.14V37Zm-.34-4.56-2.24.2c-1.7.16-2.18.65-2.18,1.68s.46,1.51,1.39,1.51a5.16,5.16,0,0,0,3-1.53Z"/></svg>