<svg id="Layer_2" data-name="Layer 2" xmlns="http://www.w3.org/2000/svg" viewBox="0 0 218.94 20.76"><defs><style>.cls-1{fill:#fff;}</style></defs><title>Artboard 1</title><path class="cls-1" d="M11.08,19.64a9,9,0,0,1-4.56,1.12C1.95,20.76,0,18,0,13.74,0,8.67,2.94,6.46,7,6.46A9.78,9.78,0,0,1,11,7.29v3.55l-1.79-.08L8.94,9a.39.39,0,0,0-.32-.37,6.07,6.07,0,0,0-1.81-.24c-2.38,0-4.27,1.39-4.27,5.2s1.76,5.18,4.35,5.18a7.13,7.13,0,0,0,3.42-.88Z"/><path class="cls-1" d="M21.78,20.44l-.24-1.73-.08,0a6.8,6.8,0,0,1-4.83,2.08c-3.34,0-3.76-2.3-3.76-3.66,0-2.67,1.65-3.92,4.86-4.19l3.6-.29V11.21c0-1.95-.37-2.91-2.7-2.91-1.63,0-2.8.05-2.83,2.06l-2.29-.24c0-3.28,3-3.66,5.15-3.66,3.79,0,5.07,1.07,5.07,4.75v7.07c0,.43,0,.48.43.53l1.36.19v1.44Zm-.45-6.14-3,.27c-2.29.21-2.94.88-2.94,2.27s.61,2,1.87,2c1.57,0,3.26-1.28,4.08-2.05Z"/><path class="cls-1" d="M36.09,20.44V19l1.28-.16c.35,0,.48-.16.48-.53V12c0-1.73-.35-3.42-2.32-3.42a6.73,6.73,0,0,0-4.14,1.71v8c0,.43,0,.48.43.53l1.49.19v1.44H27.2V19l1.33-.16c.37-.05.43-.13.43-.53V9.21c0-.29-.08-.48-.35-.56l-1.52-.51.24-1.41h3.5L31,8.3l.08,0a8.56,8.56,0,0,1,4.94-1.87c3.07,0,4.22,2,4.22,4.88v6.94c0,.43,0,.48.43.53l1.52.19v1.44Z"/><path class="cls-1" d="M51.06,20.44a26.5,26.5,0,0,0,.32-3.82V2.78c0-.29-.08-.48-.35-.56l-1.57-.51L49.7.29h4.11V8a8.26,8.26,0,0,1,4.56-1.55c3,0,5,1.92,5,6.62,0,5.5-2.27,7.69-5.63,7.69a5.81,5.81,0,0,1-4.14-1.65l-.08.05-.13,1.28ZM53.81,17a5.77,5.77,0,0,0,3.66,1.73c2.51,0,3.5-2.08,3.5-5.47s-1.33-4.8-3.23-4.8A7.11,7.11,0,0,0,53.81,10Z"/><path class="cls-1" d="M76.9,19.56A9.76,9.76,0,0,1,72,20.76c-4.83,0-6.41-3.18-6.41-7.15,0-4.88,2.72-7.15,6.08-7.15s5.5,1.76,5.5,6.38c0,.35,0,.88-.05,1.33h-9c.08,2.7,1.17,4.54,4.08,4.54a7.68,7.68,0,0,0,3.84-1Zm-2.11-7.23c-.05-3-1.44-3.92-3.07-3.92-1.79,0-3.28,1-3.5,3.92Z"/><path class="cls-1" d="M84.83,20.44V19l1.76-.16c.37,0,.43-.13.43-.53V9.21c0-.29-.08-.48-.35-.56l-1.52-.51.24-1.41h4.06V18.28c0,.43,0,.48.43.53l1.71.19v1.44Zm3-16.68a1.57,1.57,0,0,1-1.73-1.71A1.56,1.56,0,0,1,87.87.37a1.54,1.54,0,0,1,1.71,1.68A1.55,1.55,0,0,1,87.87,3.76Z"/><path class="cls-1" d="M102.07,20.44V19l1.28-.16c.35,0,.48-.16.48-.53V12c0-1.73-.35-3.42-2.32-3.42a6.74,6.74,0,0,0-4.14,1.71v8c0,.43,0,.48.43.53L99.3,19v1.44H93.19V19l1.33-.16c.37-.05.43-.13.43-.53V9.21c0-.29-.08-.48-.35-.56l-1.52-.51.24-1.41h3.5L97,8.3l.08,0A8.56,8.56,0,0,1,102,6.46c3.07,0,4.22,2,4.22,4.88v6.94c0,.43,0,.48.43.53l1.52.19v1.44Z"/><path class="cls-1" d="M121.21,19.56a9.76,9.76,0,0,1-4.86,1.2c-4.83,0-6.41-3.18-6.41-7.15,0-4.88,2.72-7.15,6.08-7.15s5.5,1.76,5.5,6.38c0,.35,0,.88-.05,1.33h-9c.08,2.7,1.17,4.54,4.08,4.54a7.68,7.68,0,0,0,3.84-1Zm-2.11-7.23c-.05-3-1.44-3.92-3.07-3.92-1.79,0-3.28,1-3.5,3.92Z"/><path class="cls-1" d="M123.59,20.44V19l1.71-.16c.37,0,.43-.13.43-.53V8.83c0-.16,0-.27-.21-.27h-1.92V6.73h2.13v-2c0-3.12,1.58-4.7,4.88-4.7,2.19,0,4,.53,4,3.18l-2.27.32c0-1.41-.61-1.68-1.84-1.68-2,0-2.35,1.07-2.35,2.8V6.46c0,.19,0,.27.21.27h4.38V8.57h-4.59v9.66c0,.43,0,.51.43.53l3.12.24v1.44Z"/><path class="cls-1" d="M134.43,20.44V19l1.71-.16c.37,0,.43-.13.43-.53V8.83c0-.16,0-.27-.21-.27h-1.92V6.73h2.13v-2c0-3.12,1.58-4.7,4.88-4.7,2.19,0,4,.53,4,3.18l-2.27.32c0-1.41-.61-1.68-1.84-1.68-2,0-2.35,1.07-2.35,2.8V6.46c0,.19,0,.27.21.27h4.38V8.57H139v9.66c0,.43,0,.51.43.53l3.12.24v1.44Z"/><path class="cls-1" d="M145.42,20.44V19l1.76-.16c.37,0,.43-.13.43-.53V9.21c0-.29-.08-.48-.35-.56l-1.52-.51L146,6.73H150V18.28c0,.43,0,.48.43.53l1.71.19v1.44Zm3-16.68a1.57,1.57,0,0,1-1.73-1.71A1.56,1.56,0,0,1,148.47.37a1.54,1.54,0,0,1,1.71,1.68A1.55,1.55,0,0,1,148.47,3.76Z"/><path class="cls-1" d="M164.53,19.64A9,9,0,0,1,160,20.76c-4.56,0-6.51-2.8-6.51-7,0-5.07,2.94-7.29,7-7.29a9.78,9.78,0,0,1,4.06.83v3.55l-1.79-.08L162.4,9a.39.39,0,0,0-.32-.37,6.07,6.07,0,0,0-1.81-.24c-2.37,0-4.27,1.39-4.27,5.2s1.76,5.18,4.35,5.18a7.13,7.13,0,0,0,3.42-.88Z"/><path class="cls-1" d="M166.06,20.44V19l1.76-.16c.37,0,.43-.13.43-.53V9.21c0-.29-.08-.48-.35-.56l-1.52-.51.24-1.41h4.06V18.28c0,.43,0,.48.43.53l1.71.19v1.44Zm3-16.68a1.57,1.57,0,0,1-1.73-1.71A1.56,1.56,0,0,1,169.1.37a1.54,1.54,0,0,1,1.71,1.68A1.55,1.55,0,0,1,169.1,3.76Z"/><path class="cls-1" d="M185.35,19.56a9.76,9.76,0,0,1-4.86,1.2c-4.83,0-6.41-3.18-6.41-7.15,0-4.88,2.72-7.15,6.08-7.15s5.5,1.76,5.5,6.38c0,.35,0,.88-.05,1.33h-9c.08,2.7,1.17,4.54,4.08,4.54a7.68,7.68,0,0,0,3.84-1Zm-2.11-7.23c-.05-3-1.44-3.92-3.07-3.92-1.79,0-3.28,1-3.5,3.92Z"/><path class="cls-1" d="M196.67,20.44V19l1.28-.16c.35,0,.48-.16.48-.53V12c0-1.73-.35-3.42-2.32-3.42A6.74,6.74,0,0,0,192,10.25v8c0,.43,0,.48.43.53l1.49.19v1.44h-6.11V19l1.33-.16c.37-.05.43-.13.43-.53V9.21c0-.29-.08-.48-.35-.56l-1.52-.51.24-1.41h3.5l.21,1.57.08,0a8.56,8.56,0,0,1,4.94-1.87c3.07,0,4.22,2,4.22,4.88v6.94c0,.43,0,.48.43.53l1.52.19v1.44Z"/><path class="cls-1" d="M213.6,19.94a10.1,10.1,0,0,1-3.71.83c-2.56,0-3.71-1.2-3.71-3.6V8.83c0-.16,0-.27-.21-.27H204V7c2.08-.27,2.67-1.09,3-3.82h1.58V6.46c0,.16,0,.27.21.27h3.92V8.57h-4.14v7.87c0,1.68.4,2.32,1.92,2.32a7,7,0,0,0,2.48-.53Z"/><path class="cls-1" d="M217.17,20.76a1.53,1.53,0,0,1-1.76-1.68,1.76,1.76,0,0,1,3.52,0A1.53,1.53,0,0,1,217.17,20.76Z"/></svg>