<svg id="Layer_2" data-name="Layer 2" xmlns="http://www.w3.org/2000/svg" viewBox="0 0 185.94 26.15"><defs><style>.cls-1{fill:#fff;}</style></defs><title>Artboard 1</title><path class="cls-1" d="M0,20.15V18.71l1.68-.19c.37-.05.43-.13.43-.53V3c0-.4-.05-.51-.43-.53L0,2.29V.83H8c4.56,0,5.82,2.08,5.82,4.72A4.55,4.55,0,0,1,10.52,10v.08c3,.35,4.51,2.14,4.51,4.8,0,3.95-3,5.23-7.15,5.23ZM6.89,9.34c2.11,0,4.43-.61,4.43-3.47,0-2.46-1.36-3.1-4-3.1H4.54V9.34Zm.69,8.86c2.8,0,4.88-.48,4.88-3.44,0-2.59-1.89-3.55-4.35-3.55H4.54v7Z"/><path class="cls-1" d="M27.44,20.15l-.21-1.81-.05,0A7.68,7.68,0,0,1,22,20.47c-2.94,0-3.84-1.79-3.84-4.86V8.83c0-.43,0-.53-.43-.61l-1.39-.35.21-1.44h4v8.62c0,2.32.4,3.44,2.08,3.44A6.1,6.1,0,0,0,27,16.17V8.81c0-.43,0-.51-.43-.59l-1.33-.35.21-1.44h4V18c0,.4.08.53.37.56l1.41.19v1.44Z"/><path class="cls-1" d="M42.36,19.64a10.1,10.1,0,0,1-3.71.83c-2.56,0-3.71-1.2-3.71-3.6V8.54c0-.16,0-.27-.21-.27H32.78V6.73c2.08-.27,2.67-1.09,3-3.82h1.57V6.16c0,.16,0,.27.21.27h3.92V8.27H37.37v7.87c0,1.68.4,2.32,1.92,2.32a7,7,0,0,0,2.48-.53Z"/><path class="cls-1" d="M59,20.15V18.68l1.28-.16c.35,0,.48-.16.48-.53V11.66c0-1.73-.35-3.42-2.32-3.42A6.73,6.73,0,0,0,54.35,10v8c0,.43,0,.48.43.53l1.49.19v1.44H50.16V18.68l1.33-.16c.37-.05.43-.13.43-.53V8.91c0-.29-.08-.48-.35-.56L50,7.85l.24-1.41h3.5L54,8l.08,0A8.56,8.56,0,0,1,59,6.16c3.07,0,4.22,2,4.22,4.88V18c0,.43,0,.48.43.53l1.52.19v1.44Z"/><path class="cls-1" d="M76,20.15l-.24-1.73-.08,0a6.8,6.8,0,0,1-4.83,2.08c-3.34,0-3.76-2.3-3.76-3.66,0-2.67,1.65-3.92,4.86-4.19l3.6-.29V10.92C75.54,9,75.17,8,72.84,8,71.22,8,70,8.06,70,10.06l-2.29-.24c0-3.28,3-3.66,5.15-3.66,3.79,0,5.07,1.07,5.07,4.75V18c0,.43,0,.48.43.53l1.36.19v1.44ZM75.54,14l-3,.27c-2.29.21-2.94.88-2.94,2.27s.61,2,1.87,2c1.57,0,3.26-1.28,4.08-2.05Z"/><path class="cls-1" d="M90.27,19.64a10.1,10.1,0,0,1-3.71.83c-2.56,0-3.71-1.2-3.71-3.6V8.54c0-.16,0-.27-.21-.27H80.69V6.73c2.08-.27,2.67-1.09,3-3.82h1.57V6.16c0,.16,0,.27.21.27h3.92V8.27H85.28v7.87c0,1.68.4,2.32,1.92,2.32a7,7,0,0,0,2.48-.53Z"/><path class="cls-1" d="M102.15,20.15l-.21-1.81-.05,0a7.68,7.68,0,0,1-5.15,2.16c-2.94,0-3.84-1.79-3.84-4.86V8.83c0-.43,0-.53-.43-.61l-1.39-.35.21-1.44h4v8.62c0,2.32.4,3.44,2.08,3.44a6.1,6.1,0,0,0,4.3-2.32V8.81c0-.43,0-.51-.43-.59l-1.33-.35.21-1.44h4V18c0,.4.08.53.37.56l1.42.19v1.44Z"/><path class="cls-1" d="M107.95,20.15V18.68l1.33-.16c.37-.05.43-.13.43-.53V8.91c0-.29-.08-.48-.35-.56l-1.52-.51.24-1.41h3.5l.27,1.84.08,0a5.46,5.46,0,0,1,4-2.14,8.42,8.42,0,0,1,1.92.24v4l-1.9-.08-.32-1.84c0-.21-.08-.27-.32-.27a5.56,5.56,0,0,0-3.18,1.68v8c0,.43,0,.51.43.53l2.46.21v1.44Z"/><path class="cls-1" d="M127.86,20.15l-.24-1.73-.08,0a6.8,6.8,0,0,1-4.83,2.08c-3.34,0-3.76-2.3-3.76-3.66,0-2.67,1.65-3.92,4.86-4.19l3.6-.29V10.92C127.41,9,127,8,124.71,8c-1.63,0-2.8.05-2.83,2.06l-2.29-.24c0-3.28,3-3.66,5.15-3.66,3.79,0,5.07,1.07,5.07,4.75V18c0,.43,0,.48.43.53l1.36.19v1.44ZM127.41,14l-3,.27c-2.29.21-2.94.88-2.94,2.27s.61,2,1.87,2c1.57,0,3.26-1.28,4.08-2.05Z"/><path class="cls-1" d="M133,20.15V18.68l1.65-.16c.37,0,.43-.13.43-.53V2.48c0-.29-.08-.48-.35-.56l-1.6-.51L133.33,0h4.14V18c0,.43,0,.48.43.53l1.6.19v1.44Z"/><path class="cls-1" d="M157.78,8.33a4.15,4.15,0,0,1,1,2.78c0,3.15-2.43,4.91-5.55,4.91a6.7,6.7,0,0,1-2.27-.32L149.75,18l3.28.19c4.8.27,7,.51,7,3.66,0,2.64-2.27,4.3-6.91,4.3s-6.22-1.25-6.22-3.28c0-1.31.72-2.08,1.63-3a1.47,1.47,0,0,1-1.17-1.44,2.74,2.74,0,0,1,.59-1.47c.43-.61,1-1.28,1.47-1.92a4.13,4.13,0,0,1-2-3.79c0-3,2.16-5.07,5.79-5.07a9.24,9.24,0,0,1,2.38.27h4.75V8.14Zm-7.34,12a3.47,3.47,0,0,0-1.17,2.22c0,1.44,1.49,1.76,4.11,1.79,1.41,0,4.14-.21,4.14-2.24,0-1.25-1-1.36-2.78-1.52Zm2.78-12.17c-1.95,0-3.34,1-3.34,3,0,1.57.91,2.86,3.26,2.86a2.93,2.93,0,0,0,3.26-3C156.39,9.18,155.22,8.11,153.22,8.11Z"/><path class="cls-1" d="M170.35,20.15l-.24-1.73-.08,0a6.8,6.8,0,0,1-4.83,2.08c-3.34,0-3.76-2.3-3.76-3.66,0-2.67,1.65-3.92,4.86-4.19l3.6-.29V10.92c0-1.95-.37-2.91-2.7-2.91-1.63,0-2.8.05-2.83,2.06l-2.29-.24c0-3.28,3-3.66,5.15-3.66,3.79,0,5.07,1.07,5.07,4.75V18c0,.43,0,.48.43.53l1.36.19v1.44ZM169.9,14l-3,.27c-2.29.21-2.94.88-2.94,2.27s.61,2,1.87,2c1.57,0,3.26-1.28,4.08-2.05Z"/><path class="cls-1" d="M183.75,10.25l-.32-1.65c0-.19-.05-.29-.27-.35A6.93,6.93,0,0,0,181.09,8c-1.95,0-2.83.85-2.83,2,0,1.52,1.6,1.84,3.34,2.3,2.08.53,4.35,1.17,4.35,4.06,0,3.1-2.59,4.16-5.42,4.16a12.78,12.78,0,0,1-4.83-.91V16l1.79.11L177.8,18a.39.39,0,0,0,.32.37,7.52,7.52,0,0,0,2.62.43c1.79,0,2.94-.67,2.94-2.11,0-1.6-1.52-2-3.23-2.37-2.08-.48-4.43-1-4.43-4s2.56-4.16,5.31-4.16a12.35,12.35,0,0,1,4.22.75v3.44Z"/></svg>