<svg id="Layer_2" data-name="Layer 2" xmlns="http://www.w3.org/2000/svg" viewBox="0 0 190.58 29.04"><defs><style>.cls-1{fill:#fff;}</style></defs><title>Artboard 1</title><path class="cls-1" d="M6,14.46v1.78H3.52V14.6A9.71,9.71,0,0,1,0,13.87V10.64H2.2l.26,1.41c.07.29.13.37.39.45a5,5,0,0,0,1.49.18c1.36,0,2-.5,2-1.43,0-2.61-6.26-1-6.26-5.54,0-2.18,1.44-3.39,3.4-3.8V.34H6V1.81a11.52,11.52,0,0,1,2.89.59V5.85L6.71,5.63,6.46,4.3c-.06-.31-.14-.37-.4-.45a5.13,5.13,0,0,0-1.15-.1c-1.17,0-2,.41-2,1.35,0,2.47,6.26,1,6.26,5.58A3.62,3.62,0,0,1,6,14.46Z"/><path class="cls-1" d="M16.76,10.57l-.49,4.75a8.11,8.11,0,0,1,4.4-1.18c4.06,0,6.69,2.35,6.69,7.07,0,4.26-2.94,7.83-8.52,7.83-3.81,0-6.9-1.21-8.73-3.19l2.77-3.15a7.42,7.42,0,0,0,5.51,2.35,3.45,3.45,0,0,0,3.74-3.67c0-2.84-1.91-3.36-3.22-3.36a4.52,4.52,0,0,0-3.33,1.49l-3.43-1.42L12.91,6.2H22c.31,0,.38-.17.45-.41l.45-1.91,3.08-.21v6.9Z"/><path class="cls-1" d="M29.86,16.11c0-6.27,2.5-10.43,9.36-10.43s8.87,4.13,8.87,10.16c0,6.48-2.36,10.74-9.29,10.74S29.86,22.35,29.86,16.11ZM42.54,16c0-4.74-.86-6.58-3.43-6.58s-3.67,1.87-3.67,6.72c0,4.68.87,6.69,3.57,6.69S42.54,20.9,42.54,16Z"/><path class="cls-1" d="M50.73,16.11c0-6.27,2.49-10.43,9.35-10.43S69,9.81,69,15.84c0,6.48-2.35,10.74-9.28,10.74S50.73,22.35,50.73,16.11ZM63.41,16c0-4.74-.87-6.58-3.43-6.58s-3.67,1.87-3.67,6.72c0,4.68.86,6.69,3.57,6.69C62.44,22.87,63.41,20.9,63.41,16Z"/><path class="cls-1" d="M78.18,26.16v-2.8l1.56-.21c.48-.07.55-.18.55-.7V12.3c0-.38-.1-.62-.45-.73L78,10.92l.38-2.81h6.1l.42,2.77h.2C86.22,9.11,87.74,7.76,90,7.76a16.28,16.28,0,0,1,3,.31v6.31l-4.15-.14-.35-1.83C88.4,12.09,88.3,12,88,12a4.62,4.62,0,0,0-2.5,1.22v9.18c0,.55,0,.66.56.69l3.43.28v2.77Z"/><path class="cls-1" d="M110.51,24.81a16.17,16.17,0,0,1-7.1,1.77c-6.69,0-9-4.16-9-9.57,0-6.27,3.85-9.25,8.6-9.25,4.57,0,7.62,2.39,7.62,8.39,0,.41,0,1.63-.07,2.32H100c.17,2.46,1.25,4.09,4.09,4.09a14.7,14.7,0,0,0,5.16-1.18Zm-5-9.63c0-2.91-1.18-3.68-2.6-3.68s-2.7.84-2.91,3.68Z"/><path class="cls-1" d="M113.5,26.16A34.12,34.12,0,0,0,114,21.1V4.19c0-.38-.11-.62-.45-.73l-1.91-.65L112,0h7.14V9.6l.14,0a7.88,7.88,0,0,1,5.23-1.87c3.74,0,6.69,2.43,6.69,8.87,0,7.14-3,10-7.28,10a6.67,6.67,0,0,1-5.09-2.18l-.18,0-.24,1.73Zm5.71-5a5,5,0,0,0,3.19,1.35c2.29,0,3.36-2.14,3.36-5.61,0-2.7-.86-5.06-3.18-5.06a6.62,6.62,0,0,0-3.37,1.21Z"/><path class="cls-1" d="M144.48,26.16l-.35-1.87-.17,0a7.83,7.83,0,0,1-5.82,2.32c-4.37,0-5.06-3-5.06-5.13,0-3.47,2.15-5.06,6.48-5.34l4-.27V13.93c0-1.63-.17-2.74-2.32-2.74-1.66,0-2.53.25-2.53,2.32l-4.88-.41c0-4.68,4.26-5.34,7.45-5.34,5.26,0,7.38,1.42,7.38,6.27v8.42c0,.56,0,.63.55.7l1.67.27v2.74Zm-.94-7.45-2.35.18c-2.05.13-2.77.65-2.77,2a1.74,1.74,0,0,0,2,1.91,5.65,5.65,0,0,0,3.15-1.25Z"/><path class="cls-1" d="M165.21,25.19a13.88,13.88,0,0,1-5.65,1.39c-4.13,0-5.69-1.66-5.69-5.58V11.92c0-.21,0-.35-.27-.35h-2.43V8.49c3.05-.35,4.26-1.87,4.64-5.65h3.3V7.76c0,.24,0,.35.27.35h4.89v3.46h-5.16v8.29c0,2,.48,2.84,2.35,2.84a8.32,8.32,0,0,0,2.81-.56Z"/><path class="cls-1" d="M181.91,24.81a16.17,16.17,0,0,1-7.1,1.77c-6.69,0-9-4.16-9-9.57,0-6.27,3.85-9.25,8.6-9.25,4.57,0,7.62,2.39,7.62,8.39,0,.41,0,1.63-.07,2.32h-10.6c.17,2.46,1.24,4.09,4.09,4.09a14.7,14.7,0,0,0,5.16-1.18Zm-5-9.63c0-2.91-1.18-3.68-2.6-3.68s-2.7.84-2.91,3.68Z"/><path class="cls-1" d="M187.63,26.58c-2,0-3-.9-3-2.7s1-2.71,3-2.71,3,.94,3,2.71S189.61,26.58,187.63,26.58Z"/></svg>