<?xml version="1.0" encoding="UTF-8"?>
<svg id="Layer_1" data-name="Layer 1" xmlns="http://www.w3.org/2000/svg" version="1.1" viewBox="0 0 315.1 58.7">
  <defs>
    <style>
      .cls-1 {
        fill: #ffbf3f;
        stroke-width: 0px;
      }
    </style>
  </defs>
  <path class="cls-1" d="M18.1,46.8H0V6.1h14.4c7.5,0,12.9,4.7,12.9,11.4s-1,5.4-3,7.3c4.5,1.7,7.2,5.1,7.2,10.1,0,7-5.6,12-13.4,12ZM8,13.3v9.3h5.7c3.4,0,5.3-1.8,5.3-4.7s-1.9-4.6-5.3-4.6h-5.7ZM17.5,29.4h-9.5v10.2h9.5c3.6,0,5.8-1.9,5.8-5.1s-2.2-5.1-5.8-5.1Z"/>
  <path class="cls-1" d="M56.5,23.6h-2.2c-5,0-8.2,2.7-8.2,8v15.2h-8.3v-30.5h7.7v3.6c2-2.5,5-4,8.4-4s1.9.1,2.7.4v7.3Z"/>
  <path class="cls-1" d="M65.8,0c3,0,5.4,2.2,5.4,5.2s-2.4,5.1-5.4,5.1-5.3-2.2-5.3-5.1,2.3-5.2,5.3-5.2ZM61.7,16.3h8.3v30.5h-8.3v-30.5Z"/>
  <path class="cls-1" d="M106.4,46.8h-8.3v-17.8c0-3.5-2.3-5.9-5.7-5.9s-5.8,2.4-5.8,5.9v17.8h-8.3v-30.5h7.7v2.8c2.2-2.2,5.3-3.5,8.9-3.5,7.1,0,11.5,4.9,11.5,12.3v18.9Z"/>
  <path class="cls-1" d="M145.1,16.3v27.2c0,9.9-6.2,15.2-15.8,15.2s-10.7-1.9-15-5.7l4.4-5.8c3.4,2.5,6.2,3.9,9.9,3.9s8.1-2.5,8.1-7.2v-1.7c-2.2,2.4-5.4,3.6-9.3,3.6-8.5,0-14.6-6.2-14.6-15.2s6.3-15.1,14.6-15.1,7.8,1.6,10,4.5v-3.8h7.7ZM129.1,22.7c-4.5,0-7.9,3-7.9,8s3.5,8.2,7.9,8.2,7.7-3,7.7-8.3-3.5-7.9-7.7-7.9Z"/>
  <path class="cls-1" d="M217.7,46.8h-8.3v-17.8c0-3.6-2.2-5.9-5.4-5.9s-5.6,2.3-5.6,5.7v18h-8.3v-17.8c0-3.6-2.2-5.9-5.4-5.9s-5.6,2.3-5.6,5.9v17.8h-8.3v-30.5h7.7v2.7c2-2.2,5.1-3.4,8.6-3.4s7,1.5,9.1,4.4c2.4-2.7,6-4.4,10.2-4.4,7.2,0,11.5,4.9,11.5,12.3v18.9Z"/>
  <path class="cls-1" d="M240.3,15.6c8.9-.1,16.6,7.2,16.4,15.9.2,8.7-7.5,16.2-16.5,16-8.9.2-16.5-7.3-16.3-16-.2-8.7,7.4-16.1,16.4-15.9ZM240.3,23.2c-4.6,0-7.9,3.5-7.9,8.4s3.3,8.3,7.9,8.3,7.9-3.5,7.9-8.3-3.4-8.4-7.9-8.4Z"/>
  <path class="cls-1" d="M281.9,23.6h-2.2c-5,0-8.2,2.7-8.2,8v15.2h-8.3v-30.5h7.7v3.6c2-2.5,5-4,8.4-4s1.9.1,2.7.4v7.3Z"/>
  <path class="cls-1" d="M293.1,34.4c1,3.9,4.1,6,8.6,6s5.9-1,8.5-3.1l3.5,5.7c-3.6,3-7.7,4.6-12.2,4.6-9.4.2-16.9-7.2-16.7-16-.2-8.8,7.2-16.2,16-16,8.5,0,14.4,6.2,14.4,14.2s-.2,3-.6,4.6h-21.4ZM307,28.5c0-3.8-3-6.2-6.6-6.2s-6.4,2.4-7.3,6.2h13.9Z"/>
</svg>