<?xml version="1.0" encoding="UTF-8"?>
<svg id="Layer_1" data-name="Layer 1" xmlns="http://www.w3.org/2000/svg" version="1.1" viewBox="0 0 59.2 39">
  <defs>
    <style>
      .cls-1 {
        fill: #ffbf3f;
        stroke-width: 0px;
      }
    </style>
  </defs>
  <path class="cls-1" d="M22.8,38.3c-2,.5-3.9.7-5.7.7-7.7,0-12.2-3.8-12.2-11.5v-12.8H0v-7h4.8V0h8.3v7.7h8.6v7h-8.6v12c0,3.5,1.7,4.8,5.7,4.8s1.8,0,3.9-.2v7Z"/>
  <path class="cls-1" d="M42.8,7c8.9-.1,16.6,7.2,16.4,15.9.2,8.7-7.5,16.2-16.5,16-8.9.2-16.5-7.3-16.3-16-.2-8.7,7.4-16.1,16.4-15.9ZM42.8,14.6c-4.6,0-7.9,3.5-7.9,8.4s3.3,8.3,7.9,8.3,7.9-3.5,7.9-8.3-3.4-8.4-7.9-8.4Z"/>
</svg>