<?xml version="1.0" encoding="UTF-8"?>
<svg id="Layer_1" data-name="Layer 1" xmlns="http://www.w3.org/2000/svg" version="1.1" viewBox="0 0 260.6 47">
  <defs>
    <style>
      .cls-1 {
        fill: #ffbf3f;
        stroke-width: 0px;
      }
    </style>
  </defs>
  <path class="cls-1" d="M22.8,46.3c-2,.5-3.9.7-5.7.7-7.7,0-12.2-3.8-12.2-11.5v-12.8H0v-7h4.8v-7.7h8.3v7.7h8.6v7h-8.6v12c0,3.5,1.7,4.8,5.7,4.8s1.8,0,3.9-.2v7Z"/>
  <path class="cls-1" d="M56.9,46.3h-8.3v-17.8c0-3.5-2.3-5.9-5.7-5.9s-5.8,2.4-5.8,5.9v17.8h-8.3V0h8.3v18.3c2-2,5-3.3,8.4-3.3,6.9,0,11.4,4.9,11.4,12.3v18.9Z"/>
  <path class="cls-1" d="M71.6,33.8c1,3.9,4.1,6,8.6,6s5.9-1,8.5-3.1l3.5,5.7c-3.6,3-7.7,4.6-12.2,4.6-9.4.2-16.9-7.2-16.7-16-.2-8.8,7.2-16.2,16-16,8.5,0,14.4,6.2,14.4,14.2s-.2,3-.6,4.6h-21.4ZM85.5,28c0-3.8-3-6.2-6.6-6.2s-6.4,2.4-7.3,6.2h13.9Z"/>
  <path class="cls-1" d="M136.9,46.3c-2,.5-3.9.7-5.7.7-7.7,0-12.2-3.8-12.2-11.5v-12.8h-4.8v-7h4.8v-7.7h8.3v7.7h8.6v7h-8.6v12c0,3.5,1.7,4.8,5.7,4.8s1.8,0,3.9-.2v7Z"/>
  <path class="cls-1" d="M168.6,46.3h-7.7v-3c-2.2,2.3-5.4,3.7-9.3,3.7-6.5,0-10.6-3.8-10.6-9.1s4.4-8.9,11.5-8.9h7.7v-1.4c0-3.4-2-5.4-5.7-5.4s-5.4,1.3-8.1,4.2l-4.3-5.1c3.5-4.2,8-6.3,13.3-6.3,8,0,13.1,4.6,13.1,13.1v18.1ZM160.2,34.5h-6.5c-2.7,0-4.3,1-4.3,3.1s1.7,3.3,4.4,3.3,6.4-2.5,6.4-6v-.4Z"/>
  <path class="cls-1" d="M194.1,47c-4.2,0-7.7-1.6-9.8-4.5v3.8h-7.7V0h8.3v18.7c2.2-2.4,5.2-3.6,9.1-3.6,8.5,0,14.8,6.8,14.8,16s-6.3,16-14.8,16ZM192.5,22.6c-4.3,0-7.7,3-7.7,8.5s3.5,8.4,7.7,8.4,7.9-3.3,7.9-8.5-3.5-8.4-7.9-8.4Z"/>
  <path class="cls-1" d="M215.4,0h8.3v46.3h-8.3V0Z"/>
  <path class="cls-1" d="M238.7,33.8c1,3.9,4.1,6,8.6,6s5.9-1,8.5-3.1l3.5,5.7c-3.6,3-7.7,4.6-12.2,4.6-9.4.2-16.9-7.2-16.7-16-.2-8.8,7.2-16.2,16-16,8.5,0,14.4,6.2,14.4,14.2s-.2,3-.6,4.6h-21.4ZM252.5,28c0-3.8-3-6.2-6.6-6.2s-6.4,2.4-7.3,6.2h13.9Z"/>
</svg>