<?xml version="1.0" encoding="UTF-8"?>
<svg id="Layer_1" data-name="Layer 1" xmlns="http://www.w3.org/2000/svg" version="1.1" viewBox="0 0 95.1 37.3">
  <defs>
    <style>
      .cls-1 {
        fill: #ffbf3f;
        stroke-width: 0px;
      }
    </style>
  </defs>
  <path class="cls-1" d="M39.1,12.9l-10.1,24.4h-1.4l-8.1-18-8.1,18h-1.3L0,12.9h4l6.9,17.7,7.9-18.2h1.4l8,18.1,6.8-17.6h4Z"/>
  <path class="cls-1" d="M46.5,1c1.5,0,2.8,1.2,2.8,2.7s-1.2,2.7-2.8,2.7-2.8-1.2-2.8-2.7,1.3-2.7,2.8-2.7ZM44.6,12.9h3.8v23.9h-3.8V12.9Z"/>
  <path class="cls-1" d="M69.7,36.8c-1.5.3-2.8.5-4,.5-5,0-8-2.5-8-7.7v-13.3h-4v-3.4h4v-6.5h3.8v6.5h7.5v3.4h-7.5v13c0,3.4,1.8,4.6,5.1,4.6s2,0,3.2-.3v3.2Z"/>
  <path class="cls-1" d="M95.1,36.8h-3.8v-14.5c0-3.9-2.3-6.4-5.9-6.4s-6.3,2.7-6.3,6.4v14.5h-3.8V0h3.8v15.6c1.6-2,4.2-3.2,7.2-3.2,5.5,0,8.8,3.8,8.8,9.4v15Z"/>
</svg>