<?xml version="1.0" encoding="UTF-8"?>
<svg id="Layer_1" data-name="Layer 1" xmlns="http://www.w3.org/2000/svg" version="1.1" viewBox="0 0 414.2 60.2">
  <defs>
    <style>
      .cls-1 {
        fill: #ffbf3f;
        stroke-width: 0px;
      }
    </style>
  </defs>
  <path class="cls-1" d="M4.8,35.7c2.8,4.1,6.2,6.8,11.1,6.8s7.3-2.3,7.3-5.9-1.8-4.3-6.2-6.4l-4.7-2.2c-6.2-2.8-9.9-6.1-9.9-11.8S8.5,4.7,15.8,4.7s11.1,3,13.7,7.6l-4.8,3.7c-2.3-3.3-5.3-5.1-8.9-5.1s-6.4,1.8-6.4,5.1c.3,3.3,1.7,3.9,5.9,6l4.8,2.2c6.9,3.2,10.2,6.5,10.2,12.1s-6,12.3-14.2,12.3S3.3,45.1,0,39.4l4.8-3.7Z"/>
  <path class="cls-1" d="M57.2,47.9h-18.2V5.4h14.9c7.7,0,12.7,4.8,12.7,11.3s-1.2,6-3.5,8c5,1.6,7.9,5.6,7.9,10.8s-5.5,12.4-13.8,12.4ZM45.7,11.4v11.5h7.5c4.2,0,6.6-2.3,6.6-5.8s-2.4-5.7-6.6-5.7h-7.5ZM56.6,28.7h-10.9v13.2h10.9c4.7,0,7.5-2.5,7.5-6.6s-2.8-6.6-7.5-6.6Z"/>
  <path class="cls-1" d="M103.6,40.8h-19.1l-3,7.1h-7.3L92.9,4.7h2.3l18.7,43.2h-7.3l-3-7.1ZM94.1,17.4l-7.1,17.6h14.2l-7.1-17.6Z"/>
  <path class="cls-1" d="M135.5,5.4h27.3v6.1h-20.5v12.7h16.9v6.2h-16.9v17.5h-6.8V5.4Z"/>
  <path class="cls-1" d="M172.5,0c2.5,0,4.6,2,4.6,4.5s-2.1,4.4-4.6,4.4-4.6-1.9-4.6-4.4,2.1-4.5,4.6-4.5ZM169.1,16.3h6.8v31.6h-6.8v-31.6Z"/>
  <path class="cls-1" d="M213.2,47.9h-6.8v-18.9c0-4.4-2.8-7.3-6.9-7.3s-7.2,3-7.2,7.3v18.9h-6.8v-31.6h6.3v3.1c2.4-2.5,5.5-3.8,9.5-3.8,7.4,0,11.8,5,11.8,12.5v19.8Z"/>
  <path class="cls-1" d="M247.7,47.9h-6.3v-3.5c-2.3,2.8-5.8,4.2-10.1,4.2-6.6,0-11-3.7-11-9.1s4.5-9,11.6-9h8.9v-2.1c0-4.4-2.4-6.8-6.8-6.8s-6.1,1.5-8.8,4.7l-3.9-4c3.2-4.6,7.8-6.8,13.3-6.8,7.8,0,12.9,4.7,12.9,13.2v19.1ZM240.9,35.3h-8.1c-3.6,0-5.6,1.3-5.6,3.9s2.3,4.2,5.5,4.2,8.2-3.2,8.2-7.5v-.6Z"/>
  <path class="cls-1" d="M284.7,47.9h-6.8v-18.9c0-4.4-2.8-7.3-6.9-7.3s-7.2,3-7.2,7.3v18.9h-6.8v-31.6h6.3v3.1c2.4-2.5,5.5-3.8,9.5-3.8,7.4,0,11.8,5,11.8,12.5v19.8Z"/>
  <path class="cls-1" d="M308.9,15.6c5.9,0,10.6,2.8,13.3,7.3l-4.8,3.7c-2.3-3.2-5.1-4.8-8.5-4.8-5.7,0-9.9,4.5-9.9,10.2s4.2,10.3,9.9,10.3,6.2-1.6,8.5-4.8l4.8,3.7c-2.8,4.6-7.6,7.3-13.3,7.3-9.3,0-16.7-7.3-16.7-16.5-.2-9.1,7.7-16.6,16.7-16.5Z"/>
  <path class="cls-1" d="M333,0c2.5,0,4.6,2,4.6,4.5s-2.1,4.4-4.6,4.4-4.6-1.9-4.6-4.4,2.1-4.5,4.6-4.5ZM329.6,16.3h6.8v31.6h-6.8v-31.6Z"/>
  <path class="cls-1" d="M373.8,47.9h-6.8v-18.9c0-4.4-2.8-7.3-6.9-7.3s-7.2,3-7.2,7.3v18.9h-6.8v-31.6h6.3v3.1c2.4-2.5,5.5-3.8,9.5-3.8,7.4,0,11.8,5,11.8,12.5v19.8Z"/>
  <path class="cls-1" d="M414.2,16.3v28.3c0,10-6.2,15.6-15.8,15.6s-11.4-2.4-15.2-6l3.7-4.7c3.5,2.8,6.8,4.5,11.1,4.5s9.5-3.1,9.5-9v-2.3c-2.4,2.9-6.3,4.5-10.7,4.5-8.8,0-15.4-6.6-15.4-15.8s6.6-15.8,15.4-15.8,8.9,1.9,11.2,5.2v-4.5h6.2ZM398,21.6c-2.8,0-5,.9-6.9,2.7s-2.8,4.2-2.8,7.1.9,5.3,2.8,7.2c1.9,1.8,4.1,2.7,6.9,2.7s4.8-.8,6.7-2.6,2.8-4.2,2.8-7.4c0-6.4-4.3-9.7-9.5-9.7Z"/>
</svg>