<?xml version="1.0" encoding="UTF-8"?>
<svg id="Layer_1" data-name="Layer 1" xmlns="http://www.w3.org/2000/svg" version="1.1" viewBox="0 0 372.7 49">
  <defs>
    <style>
      .cls-1 {
        fill: #ffbf3f;
        stroke-width: 0px;
      }
    </style>
  </defs>
  <path class="cls-1" d="M4.8,36.1c2.8,4.1,6.2,6.8,11.1,6.8s7.3-2.3,7.3-5.9-1.8-4.3-6.2-6.4l-4.7-2.2c-6.2-2.8-9.9-6.1-9.9-11.8S8.5,5.1,15.8,5.1s11.1,3,13.7,7.6l-4.8,3.7c-2.3-3.3-5.3-5.1-8.9-5.1s-6.4,1.8-6.4,5.1c.3,3.3,1.7,3.9,5.9,6l4.8,2.2c6.9,3.2,10.2,6.5,10.2,12.1s-6,12.3-14.2,12.3S3.3,45.5,0,39.8l4.8-3.7Z"/>
  <path class="cls-1" d="M53.2,16c9.2-.2,17,7.5,16.8,16.5.2,8.9-7.6,16.7-16.8,16.5-9.1.2-16.9-7.6-16.7-16.5-.2-9.1,7.6-16.6,16.7-16.5ZM53.3,22.1c-5.6,0-9.8,4.5-9.8,10.4s4.2,10.2,9.8,10.2,9.8-4.5,9.8-10.2-4.3-10.4-9.8-10.4Z"/>
  <path class="cls-1" d="M77.4,16.7h6.7v18.9c0,4.4,3,7.2,7.1,7.2s6.9-2.8,6.9-7.2v-18.9h6.8v18.3c0,8.5-6,14-13.7,14s-13.8-5.5-13.8-14v-18.3Z"/>
  <path class="cls-1" d="M133.2,48.3c-2.1.5-4,.7-5.6.7-7.3,0-11.6-3.6-11.6-11v-15.4h-5.1v-5.9h5.1v-8.3h6.8v8.3h9.4v5.9h-9.4v14.9c0,4.1,2.1,5.5,6.2,5.5s2.3-.1,4.2-.3v5.7Z"/>
  <path class="cls-1" d="M167.6,48.3h-6.8v-18.8c0-4.4-2.7-7.3-6.9-7.3s-7.2,3-7.2,7.3v18.8h-6.8V0h6.8v19.8c2.1-2.5,5.3-3.9,9.1-3.9,7.2,0,11.7,5.1,11.7,12.5v19.8Z"/>
  <path class="cls-1" d="M179.3,36.1c2.8,4.1,6.2,6.8,11.1,6.8s7.3-2.3,7.3-5.9-1.8-4.3-6.2-6.4l-4.7-2.2c-6.2-2.8-9.9-6.1-9.9-11.8s6-11.5,13.4-11.5,11.1,3,13.7,7.6l-4.8,3.7c-2.3-3.3-5.3-5.1-8.9-5.1s-6.4,1.8-6.4,5.1c.3,3.3,1.7,3.9,5.9,6l4.8,2.2c6.9,3.2,10.2,6.5,10.2,12.1s-6,12.3-14.2,12.3-12.7-3.5-16-9.2l4.8-3.7Z"/>
  <path class="cls-1" d="M231.4,48.3c-2.1.5-4,.7-5.6.7-7.3,0-11.6-3.6-11.6-11v-15.4h-5.1v-5.9h5.1v-8.3h6.8v8.3h9.4v5.9h-9.4v14.9c0,4.1,2.1,5.5,6.2,5.5s2.3-.1,4.2-.3v5.7Z"/>
  <path class="cls-1" d="M263.4,48.3h-6.3v-3.5c-2.3,2.8-5.8,4.2-10.1,4.2-6.6,0-11-3.7-11-9.1s4.5-9,11.6-9h8.9v-2.1c0-4.4-2.4-6.8-6.8-6.8s-6.1,1.5-8.8,4.7l-3.9-4c3.2-4.6,7.8-6.8,13.3-6.8,7.8,0,12.9,4.7,12.9,13.2v19.1ZM256.5,35.7h-8.1c-3.6,0-5.6,1.3-5.6,3.9s2.3,4.2,5.5,4.2,8.2-3.2,8.2-7.5v-.6Z"/>
  <path class="cls-1" d="M291.5,48.3c-2.1.5-4,.7-5.6.7-7.3,0-11.6-3.6-11.6-11v-15.4h-5.1v-5.9h5.1v-8.3h6.8v8.3h9.4v5.9h-9.4v14.9c0,4.1,2.1,5.5,6.2,5.5s2.3-.1,4.2-.3v5.7Z"/>
  <path class="cls-1" d="M302.6,34.7c.8,5.1,4.9,8.3,10.3,8.3s6.4-1.2,9.2-3.7l3.2,4.6c-3.6,3.4-7.8,5.1-12.6,5.1-9.7,0-17-7.1-17-16.5-.2-9.1,7.4-16.7,16.3-16.5,8.4,0,14.6,6.2,14.6,14.5s-.2,2.8-.5,4.2h-23.6ZM319.9,29.4c0-4.8-3.7-7.7-8.1-7.7s-8,3-9.1,7.7h17.2Z"/>
  <path class="cls-1" d="M335.2,5.8h7.8l-3.2,17.2h-5.2l.6-17.2Z"/>
  <path class="cls-1" d="M352.1,38.6c2.8,2.9,5.5,4.5,8.9,4.5s5.1-1.2,5.1-3.5-1.4-2.6-4.4-3.9l-3.2-1.4c-5.6-2.3-8.2-4.8-8.2-9.2s4.7-9.1,11.1-9.1,8.2,1.6,10.9,4.9l-3.7,4.2c-2-2.1-4.6-3.2-7.4-3.2s-4.3,1-4.3,3,1.1,2.4,4.2,3.7l3,1.2c6,2.5,8.6,5.1,8.6,9.5s-1.1,5.4-3.3,7.1c-2.3,1.7-5,2.5-8.4,2.5-5.4,0-9.9-2.4-12.7-6.1l3.9-4.2Z"/>
</svg>