<?xml version="1.0" encoding="UTF-8"?>
<svg id="Layer_1" data-name="Layer 1" xmlns="http://www.w3.org/2000/svg" version="1.1" viewBox="0 0 348.9 49">
  <defs>
    <style>
      .cls-1 {
        fill: #ffbf3f;
        stroke-width: 0px;
      }
    </style>
  </defs>
  <path class="cls-1" d="M22.3,5.1c7.8,0,14.5,3.8,18.2,9.8l-5.1,3.8c-3-4.7-7.4-7.3-13-7.3-8.7,0-15.3,6.7-15.3,15.7s6.6,15.7,15.3,15.7,10-2.6,13-7.3l5.1,3.8c-3.6,6-10.3,9.8-18.2,9.8C10.2,49.2-.3,39.2,0,27-.3,14.9,10.2,4.9,22.3,5.1Z"/>
  <path class="cls-1" d="M47.9,16.7h6.7v18.9c0,4.4,3,7.2,7.1,7.2s6.9-2.8,6.9-7.2v-18.9h6.8v18.3c0,8.5-6,14-13.7,14s-13.8-5.5-13.8-14v-18.3Z"/>
  <path class="cls-1" d="M85.8,38.6c2.8,2.9,5.5,4.5,8.9,4.5s5.1-1.2,5.1-3.5-1.4-2.6-4.4-3.9l-3.2-1.4c-5.6-2.3-8.2-4.8-8.2-9.2s4.7-9.1,11.1-9.1,8.2,1.6,10.9,4.9l-3.7,4.2c-2-2.1-4.6-3.2-7.4-3.2s-4.3,1-4.3,3,1.1,2.4,4.2,3.7l3,1.2c6,2.5,8.6,5.1,8.6,9.5s-1.1,5.4-3.3,7.1c-2.3,1.7-5,2.5-8.4,2.5-5.4,0-9.9-2.4-12.7-6.1l3.9-4.2Z"/>
  <path class="cls-1" d="M133,48.3c-2.1.5-4,.7-5.6.7-7.3,0-11.6-3.6-11.6-11v-15.4h-5.1v-5.9h5.1v-8.3h6.8v8.3h9.4v5.9h-9.4v14.9c0,4.1,2.1,5.5,6.2,5.5s2.3-.1,4.2-.3v5.7Z"/>
  <path class="cls-1" d="M153.9,16c9.2-.2,17,7.5,16.8,16.5.2,8.9-7.6,16.7-16.8,16.5-9.1.2-16.9-7.6-16.7-16.5-.2-9.1,7.6-16.6,16.7-16.5ZM153.9,22.1c-5.6,0-9.8,4.5-9.8,10.4s4.2,10.2,9.8,10.2,9.8-4.5,9.8-10.2-4.3-10.4-9.8-10.4Z"/>
  <path class="cls-1" d="M225.8,48.3h-6.8v-18.8c0-4.4-2.5-7.3-6.6-7.3s-6.9,3-6.9,7v19.1h-6.8v-18.8c0-4.4-2.6-7.3-6.6-7.3s-6.9,3-6.9,7.3v18.8h-6.8v-31.6h6.3v3c2.3-2.3,5.3-3.7,9.1-3.7s7.7,1.9,9.6,5c2.3-3,6.2-5,10.7-5,7.3,0,11.7,5,11.7,12.5v19.8Z"/>
  <path class="cls-1" d="M238.6.4c2.5,0,4.6,2,4.6,4.5s-2.1,4.4-4.6,4.4-4.6-1.9-4.6-4.4,2.1-4.5,4.6-4.5ZM235.2,16.7h6.8v31.6h-6.8v-31.6Z"/>
  <path class="cls-1" d="M275.1,42.4v5.9h-26.8v-1.9l16.5-23.9h-15.1v-5.9h25.2v1.9l-16.6,23.8h16.7Z"/>
  <path class="cls-1" d="M286.3,34.7c.8,5.1,4.9,8.3,10.3,8.3s6.4-1.2,9.2-3.7l3.2,4.6c-3.6,3.4-7.8,5.1-12.6,5.1-9.7,0-17-7.1-17-16.5-.2-9.1,7.4-16.7,16.3-16.5,8.4,0,14.6,6.2,14.6,14.5s-.2,2.8-.5,4.2h-23.6ZM303.6,29.4c0-4.8-3.7-7.7-8.1-7.7s-8,3-9.1,7.7h17.2Z"/>
  <path class="cls-1" d="M348.9,0v48.3h-6.3v-4.5c-2.3,3.3-6.4,5.2-11.1,5.2-8.9,0-15.4-7.1-15.4-16.5-.2-9.2,6.7-16.7,15.4-16.5,4.4,0,8.2,1.7,10.6,4.6V0h6.8ZM332.7,22.1c-5.4,0-9.7,4.2-9.7,10.3s4.1,10.4,9.7,10.4,9.5-3.4,9.5-10.3-4.6-10.4-9.5-10.4Z"/>
</svg>