<?xml version="1.0" encoding="UTF-8"?>
<svg id="Layer_1" data-name="Layer 1" xmlns="http://www.w3.org/2000/svg" version="1.1" viewBox="0 0 250.3 87.5">
  <defs>
    <style>
      .cls-1 {
        fill: #fff;
        stroke-width: 0px;
      }
    </style>
  </defs>
  <path class="cls-1" d="M14.2,2.4c4.8,0,9,2.3,11.3,5.9l-2.4,1.9c-2.1-3-5.1-4.8-8.9-4.8-6.1,0-10.9,4.8-10.9,11.1s4.7,11.1,10.9,11.1,6.8-1.8,8.9-4.8l2.4,1.9c-2.3,3.6-6.5,5.9-11.3,5.9C6.4,30.7-.2,24.3,0,16.5-.2,8.7,6.4,2.3,14.2,2.4Z"/>
  <path class="cls-1" d="M39.7,9.5c5.7,0,10.6,4.7,10.5,10.5.1,5.7-4.8,10.6-10.6,10.5-5.7.1-10.6-4.8-10.5-10.5-.1-5.7,4.8-10.6,10.5-10.5ZM39.7,12.5c-4.1,0-7.3,3.3-7.3,7.6s3.1,7.5,7.2,7.5,7.3-3.3,7.3-7.5-3.2-7.6-7.3-7.6Z"/>
  <path class="cls-1" d="M85.1,30.1h-3.2v-12.2c0-3.3-1.8-5.4-4.7-5.4s-5.2,2.3-5.2,5.1v12.5h-3.2v-12.2c0-3.3-1.9-5.4-4.8-5.4s-5.1,2.2-5.1,5.4v12.2h-3.2V10h3v2.1c1.4-1.7,3.5-2.6,6-2.6s5,1.3,6.2,3.5c1.5-2.1,3.9-3.5,6.9-3.5,4.6,0,7.3,3.1,7.3,7.9v12.6Z"/>
  <path class="cls-1" d="M93.7,21c.4,4,3.4,6.6,7.4,6.6s4.3-.9,6.1-2.7l1.9,2.1c-2.1,2.2-4.9,3.5-8,3.5-6,0-10.6-4.6-10.6-10.5s4.5-10.5,10.3-10.5,9.2,3.8,9.2,9.1,0,1.6-.2,2.4h-15.9ZM106.6,18.2c0-3.6-2.6-5.8-6-5.8s-6.1,2.3-6.8,5.8h12.7Z"/>
  <path class="cls-1" d="M143.4,10l-9.4,20.5h-1.2l-9.5-20.5h3.4l6.7,15.1,6.6-15.1h3.4Z"/>
  <path class="cls-1" d="M149.6,0c1.3,0,2.4,1,2.4,2.3s-1,2.3-2.4,2.3-2.4-1-2.4-2.3,1.1-2.3,2.4-2.3ZM147.9,10h3.2v20.1h-3.2V10Z"/>
  <path class="cls-1" d="M158.2,24.5c1.9,2,3.5,3.1,5.8,3.1s3.8-1.1,3.8-2.8-1-2.2-3.5-3.2l-1.9-.8c-3.3-1.4-5-2.9-5-5.6s2.9-5.6,6.8-5.6,5.1,1.2,6.7,3.2l-1.9,2c-1.4-1.4-3.1-2.2-5-2.2s-3.3.9-3.3,2.5.8,1.9,3.3,2.9l1.9.8c3.8,1.6,5.3,3.2,5.3,5.9s-.7,3.3-2.1,4.4c-1.4,1-3,1.5-5,1.5-3.3,0-6.1-1.6-7.8-3.9l2-2.1Z"/>
  <path class="cls-1" d="M178.4,0c1.3,0,2.4,1,2.4,2.3s-1,2.3-2.4,2.3-2.4-1-2.4-2.3,1.1-2.3,2.4-2.3ZM176.8,10h3.2v20.1h-3.2V10Z"/>
  <path class="cls-1" d="M197.9,30.1c-1.3.3-2.4.5-3.3.5-4.2,0-6.8-2.1-6.8-6.5v-11.2h-3.4v-2.8h3.4v-5.5h3.2v5.5h6.3v2.8h-6.3v11c0,2.8,1.5,3.8,4.2,3.8s1.7,0,2.7-.2v2.7Z"/>
  <path class="cls-1" d="M214,10h3.1v12.3c0,3.3,2.2,5.3,5.2,5.3s5.1-2.1,5.1-5.3v-12.3h3.2v12.1c0,5.1-3.6,8.5-8.3,8.5s-8.3-3.4-8.3-8.5v-12.1Z"/>
  <path class="cls-1" d="M237.5,24.5c1.9,2,3.5,3.1,5.8,3.1s3.8-1.1,3.8-2.8-1-2.2-3.5-3.2l-1.9-.8c-3.3-1.4-5-2.9-5-5.6s2.9-5.6,6.8-5.6,5.1,1.2,6.7,3.2l-1.9,2c-1.4-1.4-3.1-2.2-5-2.2s-3.3.9-3.3,2.5.8,1.9,3.3,2.9l1.9.8c3.8,1.6,5.3,3.2,5.3,5.9s-.7,3.3-2.1,4.4c-1.4,1-3,1.5-5,1.5-3.3,0-6.1-1.6-7.8-3.9l2-2.1Z"/>
  <path class="cls-1" d="M21,87.1h-3v-2.6c-1.5,2-3.8,3.1-6.8,3.1s-7-2.2-7-5.7,2.9-5.6,7.2-5.6h6.4v-1.7c0-3.3-1.9-5.1-4.9-5.1s-4.2,1.1-5.9,3.2l-2.1-1.7c1.8-3,4.8-4.4,8.2-4.4,4.7,0,7.8,2.9,7.8,8.2v12.4ZM17.9,78.9h-6c-2.8,0-4.3,1-4.3,2.8s1.8,3.2,4.2,3.2,6.1-2.4,6.1-5.5v-.5Z"/>
  <path class="cls-1" d="M38.7,87.1c-1.3.3-2.4.5-3.3.5-4.2,0-6.8-2.1-6.8-6.5v-11.2h-3.4v-2.8h3.4v-5.5h3.2v5.5h6.3v2.8h-6.3v11c0,2.8,1.5,3.8,4.2,3.8s1.7,0,2.7-.2v2.7Z"/>
  <path class="cls-1" d="M65.6,87.5c-3.1,0-6.1-1.4-7.6-3.6v3.2h-3v-30.9h3.2v13.8c1.6-2.1,4.4-3.4,7.4-3.4,5.7,0,9.9,4.6,9.9,10.5s-4.2,10.5-9.9,10.5ZM65.1,69.5c-3.7,0-7,2.5-7,7.6s3.4,7.6,7,7.6,7.1-3.3,7.1-7.6-3.1-7.6-7.1-7.6Z"/>
  <path class="cls-1" d="M90.2,66.5c5.7,0,10.6,4.7,10.5,10.5.1,5.7-4.8,10.6-10.6,10.5-5.7.1-10.6-4.8-10.5-10.5-.1-5.7,4.8-10.6,10.5-10.5ZM90.2,69.5c-4.1,0-7.3,3.3-7.3,7.6s3.1,7.5,7.2,7.5,7.3-3.3,7.3-7.5-3.2-7.6-7.3-7.6Z"/>
  <path class="cls-1" d="M115.4,66.5c5.7,0,10.6,4.7,10.5,10.5.1,5.7-4.8,10.6-10.6,10.5-5.7.1-10.6-4.8-10.5-10.5-.1-5.7,4.8-10.6,10.5-10.5ZM115.4,69.5c-4.1,0-7.3,3.3-7.3,7.6s3.1,7.5,7.2,7.5,7.3-3.3,7.3-7.5-3.2-7.6-7.3-7.6Z"/>
  <path class="cls-1" d="M142.4,87.1c-1.3.3-2.4.5-3.3.5-4.2,0-6.8-2.1-6.8-6.5v-11.2h-3.4v-2.8h3.4v-5.5h3.2v5.5h6.3v2.8h-6.3v11c0,2.8,1.5,3.8,4.2,3.8s1.7,0,2.7-.2v2.7Z"/>
  <path class="cls-1" d="M163.8,87.1h-3.2v-12.2c0-3.3-1.9-5.4-5-5.4s-5.3,2.3-5.3,5.4v12.2h-3.2v-30.9h3.2v13.1c1.4-1.7,3.5-2.7,6-2.7,4.6,0,7.4,3.2,7.4,7.9v12.6Z"/>
  <path class="cls-1" d="M198,69.7l-1,7.5h4v2.7h-4.4l-1,7.1h-2.7l.9-7.1h-7.9l-1,7.1h-2.7l.9-7.1h-3.6v-2.7h4l1-7.5h-4v-2.7h4.4l.9-7.1h2.8l-1,7.1h7.9l.9-7.1h2.8l-1,7.1h3.6v2.7h-4ZM194.3,77.2l1-7.5h-7.9l-1,7.5h7.9Z"/>
  <path class="cls-1" d="M213.5,87.5c-4.2,0-7.4-2.4-9.2-5.7l2.3-1.6c1.8,2.6,3.8,4.3,6.9,4.3s6.4-2.4,6.4-6.1-2.5-5.6-6.9-5.6h-2.7v-.9l7.1-9.1h-11.3v-3h16.3v.9l-7.2,9.3c4.1.4,7.9,3.3,7.9,8.4s-4.5,9.1-9.7,9.1Z"/>
  <path class="cls-1" d="M236.7,87.5c-5.1,0-9.3-4-9.3-9.2s.2-2.6.7-3.8c.5-1.1,1.3-2.5,2.4-4.1.3-.3.4-.6.6-.8l6.8-9.8h3.8l-6.9,10c.7-.2,1.4-.4,2.3-.4,4.8,0,8.9,3.9,8.9,8.9s-4.1,9.2-9.3,9.2ZM236.7,72.2c-3.4,0-6.1,2.8-6.1,6.2s2.7,6.2,6.1,6.2,6.1-2.8,6.1-6.2-2.7-6.2-6.1-6.2Z"/>
</svg>