<?xml version="1.0" encoding="UTF-8"?>
<svg xmlns="http://www.w3.org/2000/svg" version="1.1" viewBox="0 0 211.5 1592.4">
  <defs>
    <style>
      .cls-1 {
        fill: none;
      }

      .cls-2 {
        fill: #fdbb3a;
      }

      .cls-3 {
        fill: #fdbc3e;
      }
    </style>
  </defs>
  <!-- Generator: Adobe Illustrator 28.7.1, SVG Export Plug-In . SVG Version: 1.2.0 Build 142)  -->
  <g>
    <g id="Layer_1">
      <g>
        <path class="cls-1" d="M125.5,219.8v4c0,1.3,1.1,2.4,2.4,2.4h5.5v-4c0-1.3-1.1-2.4-2.4-2.4h-5.5Z"/>
        <path class="cls-1" d="M170.5,199.7h-13.7v5.3c0,2.9-2.4,5.3-5.3,5.3h-26v6.6h5.5c2.9,0,5.3,2.4,5.3,5.3v4h34.2v-26.5h0Z"/>
        <path class="cls-1" d="M136.3,240.1c0,1.3,1.1,2.4,2.4,2.4h29.4c1.3,0,2.4-1.1,2.4-2.4v-11.1h-34.2v11.1h0Z"/>
        <path class="cls-1" d="M125.5,207.4h26c1.3,0,2.4-1.1,2.4-2.4v-5.3h-13.6c-2.9,0-5.3-2.4-5.3-5.3v-17.3h-9.6v30.3h.1Z"/>
        <path class="cls-1" d="M153.9,196.8v-17.3c0-1.3-1.1-2.4-2.4-2.4h-13.6v17.3c0,1.3,1.1,2.4,2.4,2.4h13.6Z"/>
        <path class="cls-1" d="M135.1,167.2h-7.2c-1.3,0-2.4,1.1-2.4,2.4v4.7h9.6v-7.1h0Z"/>
        <path class="cls-1" d="M110.3,108.4v-17h-14.1c-1.3,0-2.4,1.1-2.4,2.4v17h14.1c1.3,0,2.4-1.1,2.4-2.4Z"/>
        <path class="cls-1" d="M170.5,169.6c0-1.3-1.1-2.4-2.4-2.4h-30.1v7.1h13.6c2.9,0,5.3,2.4,5.3,5.3v17.3h13.7v-27.2h-.1Z"/>
        <path class="cls-1" d="M66.3,130.7v5.6h22.2c1.3,0,2.4-1.1,2.4-2.4v-5.6h-22.2c-1.3,0-2.4,1.1-2.4,2.4Z"/>
        <path class="cls-1" d="M90.9,125.5v-11.8h-44.9c-2.9,0-5.3-2.4-5.3-5.3v-22.2h-7.5c-1.3,0-2.4,1.1-2.4,2.4v45.4c0,1.3,1.1,2.4,2.4,2.4h30.3v-5.6c0-2.9,2.4-5.3,5.3-5.3h22.2,0Z"/>
        <path class="cls-1" d="M107.9,128.3h-14.1v5.6c0,2.9-2.4,5.3-5.3,5.3h-22.2v6.6c0,1.3,1.1,2.4,2.4,2.4h41.6v-17.5c0-1.3-1.1-2.4-2.4-2.4h0Z"/>
        <path class="cls-1" d="M113.2,148.2h21.9v-18.9c0-2.9,2.4-5.3,5.3-5.3h8.8c2.9,0,5.3,2.4,5.3,5.3v16.5c0,2.9-2.4,5.3-5.3,5.3h-11.2v13.2h30.1c2.9,0,5.3,2.4,5.3,5.3v27.2h9.9c1.3,0,2.4-1.1,2.4-2.4v-42.9c0-1.3-1.1-2.4-2.4-2.4h-11.8c-2.9,0-5.3-2.4-5.3-5.3v-27.4h-34.5c-2.9,0-5.3-2.4-5.3-5.3v-19.8h-13.3v17c0,2.9-2.4,5.3-5.3,5.3h-14.1v11.8h14.1c2.9,0,5.3,2.4,5.3,5.3v17.5h.1Z"/>
        <path class="cls-1" d="M106.8,227.3h-5.2c0,2.9-2.4,5.2-5.3,5.2h-11.5v8.5c0,2.9-2.4,5.3-5.3,5.3h-25.5c-1.3,0-2.4,1.1-2.4,2.4v2.8c0,1.3,1.1,2.4,2.4,2.4h55.1v-24.1c0-1.3-1.1-2.4-2.4-2.4h.1Z"/>
        <path class="cls-1" d="M173.4,229v11.1c0,2.9-2.4,5.3-5.3,5.3h-29.4c-2.9,0-5.3-2.4-5.3-5.3v-11.1h-5.5c-2.9,0-5.3-2.4-5.3-5.3v-4h-21.1v4.7h5.2c2.9,0,5.3,2.4,5.3,5.3v24.1h81.8c.6,0,1.2-.3,1.7-.7.5-.5.7-1.2.7-1.7l-.2-22.4h-22.6,0Z"/>
        <path class="cls-1" d="M206.5,136.4h-6.1c-.6,0-1.3.2-1.7.7-.4.4-.7,1-.7,1.7h0l.8,87.3h7.6c1.3,0,2.4-1.1,2.4-2.4v-84.9c0-1.3-1.1-2.4-2.4-2.4h0Z"/>
        <path class="cls-1" d="M151.6,145.8v-16.5c0-1.3-1.1-2.4-2.4-2.4h-8.8c-1.3,0-2.4,1.1-2.4,2.4v18.9h11.2c1.3,0,2.4-1.1,2.4-2.4Z"/>
        <path class="cls-1" d="M84.8,229.7h11.5c1.3,0,2.4-1,2.4-2.3h-11.5c-1.3,0-2.4,1-2.4,2.3Z"/>
        <rect class="cls-1" x="101.6" y="210.3" width="21.1" height="6.6"/>
        <path class="cls-1" d="M87.2,224.5h11.5v-4.7h-51.8c-1.3,0-2.4,1.1-2.4,2.4v5.1c0,1.3,1.1,2.4,2.4,2.4h35c0-2.9,2.4-5.2,5.3-5.2Z"/>
        <path class="cls-1" d="M122.7,169.6c0-2.9,2.4-5.3,5.3-5.3h7.2v-13.2h-21.9v20.8c0,1.3,1.1,2.4,2.4,2.4h7.1v-4.7h0Z"/>
        <path class="cls-1" d="M98.7,200.3c0-1.3-1.1-2.4-2.4-2.4h-12.9v7.1c0,1.3,1.1,2.4,2.4,2.4h12.9v-7.1Z"/>
        <path class="cls-1" d="M182.8,111.2v-29.3c0-1.3-1.1-2.4-2.4-2.4h-8.9c-1.3,0-2.4,1.1-2.4,2.4v31.7h11.3c1.3,0,2.4-1.1,2.4-2.4h0Z"/>
        <path class="cls-1" d="M140.7,86.1v-17c0-1.3-1.1-2.4-2.4-2.4h-6.6c-1.3,0-2.4,1.1-2.4,2.4v19.4h9c1.3,0,2.4-1.1,2.4-2.4Z"/>
        <path class="cls-1" d="M2.9,200.3v14.6c0,1.3,1.1,2.4,2.4,2.4h9.4c1.3,0,2.4-1.1,2.4-2.4v-17H5.3c-1.3,0-2.4,1.1-2.4,2.4Z"/>
        <path class="cls-1" d="M65.8,165.2v-5.6c0-1.3-1.1-2.4-2.4-2.4h-14.6c-1.3,0-2.4,1.1-2.4,2.4v8h17c1.3,0,2.4-1.1,2.4-2.4Z"/>
        <path class="cls-1" d="M51.2,271.2v3.9c0,1.3,1.1,2.4,2.4,2.4h53.2c1.3,0,2.4-1.1,2.4-2.4v-6.3h-55.6c-1.3,0-2.4,1.1-2.4,2.4Z"/>
        <path class="cls-1" d="M43.6,181.3v-10.8h-23.7v24.6h60.6v-8.5h-31.7c-2.9,0-5.3-2.4-5.3-5.3h0Z"/>
        <path class="cls-1" d="M14.7,115.5H5.3c-1.3,0-2.4,1.1-2.4,2.4v47.3c0,1.3,1.1,2.4,2.4,2.4h11.8v-49.7c0-1.3-1.1-2.4-2.4-2.4Z"/>
        <path class="cls-1" d="M90.5,68.6v-6.6c0-1.3-1.1-2.4-2.4-2.4h-13.7c-1.3,0-2.4,1.1-2.4,2.4v9h16.1c1.3,0,2.4-1.1,2.4-2.4Z"/>
        <path class="cls-1" d="M69.1,80.9v-7.1h-23.2c-1.3,0-2.4,1.1-2.4,2.4v7.1h23.2c1.3,0,2.4-1.1,2.4-2.4Z"/>
        <path class="cls-1" d="M96.1,181.3v-12.2c0-1.3-1.1-2.4-2.4-2.4h-8c-1.3,0-2.4,1.1-2.4,2.4v14.6h10.4c1.3,0,2.4-1.1,2.4-2.4h0Z"/>
        <path class="cls-2" d="M111.7,545.8c0-22.3,0-154.9,0-180.3h-2.6v180.3h0"/>
        <path class="cls-2" d="M206.5,133.6h-6.1c-1.4,0-2.7.6-3.7,1.6s-1.5,2.5-1.5,3.7l.8,87.3h-22.6v-26.5h9.9c2.9,0,5.3-2.4,5.3-5.3v-42.9c0-2.9-2.4-5.3-5.3-5.3h-11.8c-1.3,0-2.4-1.1-2.4-2.4v-27.4h11.3c2.9,0,5.3-2.4,5.3-5.3v-29.3c0-2.9-2.4-5.3-5.3-5.3h-8.9c-2.9,0-5.3,2.4-5.3,5.3v31.7h-34.5c-1.3,0-2.4-1.1-2.4-2.4v-19.8h9c2.9,0,5.3-2.4,5.3-5.3v-17c0-2.9-2.4-5.3-5.3-5.3h-6.6c-2.9,0-5.3,2.4-5.3,5.3v19.4h-13.3V17.7h3.7c2.1,0,3.8-1.7,3.8-3.8V3.8c0-2.1-1.7-3.8-3.8-3.8h-10.1c-2.1,0-3.8,1.7-3.8,3.8v10.1c0,2.1,1.7,3.8,3.8,3.8h3.5v70.9h-14.1c-2.9,0-5.3,2.4-5.3,5.3v17h-44.9c-1.3,0-2.4-1.1-2.4-2.4v-22.2h23.2c2.9,0,5.3-2.4,5.3-5.3v-7.1h16.1c2.9,0,5.3-2.4,5.3-5.3v-6.6c0-2.9-2.4-5.3-5.3-5.3h-13.7c-2.9,0-5.3,2.4-5.3,5.3v9h-23.2c-2.9,0-5.3,2.4-5.3,5.3v7.1h-7.5c-2.9,0-5.3,2.4-5.3,5.3v45.4c0,2.9,2.4,5.3,5.3,5.3h30.3v6.6c0,2.9,2.4,5.3,5.3,5.3h41.6v20.8c0,2.9,2.4,5.3,5.3,5.3h7.1v30.3h-21.1v-7.1c0-2.9-2.4-5.3-5.3-5.3h-12.9v-8.5h10.4c2.9,0,5.3-2.4,5.3-5.3v-12.2c0-2.9-2.4-5.3-5.3-5.3h-8c-2.9,0-5.3,2.4-5.3,5.3v14.6h-31.7c-1.3,0-2.4-1.1-2.4-2.4v-10.8h17c2.9,0,5.3-2.4,5.3-5.3v-5.6c0-2.9-2.4-5.3-5.3-5.3h-14.6c-2.9,0-5.3,2.4-5.3,5.3v8h-23.7v-49.7c0-2.9-2.4-5.3-5.3-5.3H5.3c-2.9,0-5.3,2.4-5.3,5.3v47.3c0,2.9,2.4,5.3,5.3,5.3h11.8v24.6H5.3c-2.9,0-5.3,2.4-5.3,5.3v14.6c0,2.9,2.4,5.3,5.3,5.3h9.4c2.9,0,5.3-2.4,5.3-5.3v-17h60.6v7.1c0,2.9,2.4,5.3,5.3,5.3h12.9v6.6h-51.8c-2.9,0-5.3,2.4-5.3,5.3v5.1c0,2.9,2.4,5.3,5.3,5.3h35v8.5c0,1.3-1.1,2.4-2.4,2.4h-25.5c-2.9,0-5.3,2.4-5.3,5.3v2.8c0,2.9,2.4,5.3,5.3,5.3h55.1v9.3h-55.6c-2.9,0-5.3,2.4-5.3,5.3v3.9c0,2.9,2.4,5.3,5.3,5.3h53.2c2.9,0,5.3-2.4,5.3-5.3v-6.3h32.4c1.3,0,2.4,1.1,2.4,2.4v3.9c0,1.3-1.1,2.4-2.4,2.4h-30c-2.9,0-5.3,2.4-5.3,5.3v82.4h2.6v.4h0v-42.4h0v-3.5h0v-36.8c0-1.3,1.1-2.4,2.4-2.4h30c2.9,0,5.3-2.4,5.3-5.3v-3.9c0-2.9-2.4-5.3-5.3-5.3h-32.4v-9.3h81.8c1.4,0,2.7-.6,3.7-1.6s1.5-2.4,1.5-3.7l-.2-22.4h7.6c2.9,0,5.3-2.4,5.3-5.3v-84.9c0-2.9-2.4-5.3-5.3-5.3l.3-.5ZM169.1,81.9c0-1.3,1.1-2.4,2.4-2.4h8.9c1.3,0,2.4,1.1,2.4,2.4v29.3c0,1.3-1.1,2.4-2.4,2.4h-11.3v-31.7h0ZM129.3,69.2c0-1.3,1.1-2.4,2.4-2.4h6.6c1.3,0,2.4,1.1,2.4,2.4v17c0,1.3-1.1,2.4-2.4,2.4h-9v-19.4ZM72,62.1c0-1.3,1.1-2.4,2.4-2.4h13.7c1.3,0,2.4,1.1,2.4,2.4v6.6c0,1.3-1.1,2.4-2.4,2.4h-16.1v-9ZM43.6,76.3c0-1.3,1.1-2.4,2.4-2.4h23.2v7.1c0,1.3-1.1,2.4-2.4,2.4h-23.2s0-7.1,0-7.1ZM83.4,169.1c0-1.3,1.1-2.4,2.4-2.4h8c1.3,0,2.4,1.1,2.4,2.4v12.2c0,1.3-1.1,2.4-2.4,2.4h-10.4v-14.6h0ZM46.4,159.6c0-1.3,1.1-2.4,2.4-2.4h14.6c1.3,0,2.4,1.1,2.4,2.4v5.6c0,1.3-1.1,2.4-2.4,2.4h-17v-8ZM17.1,215c0,1.3-1.1,2.4-2.4,2.4H5.3c-1.3,0-2.4-1.1-2.4-2.4v-14.6c0-1.3,1.1-2.4,2.4-2.4h11.8v17ZM17.1,167.6H5.3c-1.3,0-2.4-1.1-2.4-2.4v-47.3c0-1.3,1.1-2.4,2.4-2.4h9.4c1.3,0,2.4,1.1,2.4,2.4v49.7ZM80.5,195.1H19.9v-24.6h23.7v10.8c0,2.9,2.4,5.3,5.3,5.3h31.7v8.5h0ZM109.2,275.1c0,1.3-1.1,2.4-2.4,2.4h-53.2c-1.3,0-2.4-1.1-2.4-2.4v-3.9c0-1.3,1.1-2.4,2.4-2.4h55.6v6.3ZM93.8,93.8c0-1.3,1.1-2.4,2.4-2.4h14.1v17c0,1.3-1.1,2.4-2.4,2.4h-14.1v-17ZM63.5,130.7v5.6h-30.3c-1.3,0-2.4-1.1-2.4-2.4v-45.4c0-1.3,1.1-2.4,2.4-2.4h7.5v22.2c0,2.9,2.4,5.3,5.3,5.3h44.9v11.8h-22.2c-2.9,0-5.3,2.4-5.3,5.3h.1ZM90.9,128.3v5.6c0,1.3-1.1,2.4-2.4,2.4h-22.2v-5.6c0-1.3,1.1-2.4,2.4-2.4,0,0,22.2,0,22.2,0ZM110.3,148.2h-41.6c-1.3,0-2.4-1.1-2.4-2.4v-6.6h22.2c2.9,0,5.3-2.4,5.3-5.3v-5.6h14.1c1.3,0,2.4,1.1,2.4,2.4v17.5h0ZM107.9,125.5h-14.1v-11.8h14.1c2.9,0,5.3-2.4,5.3-5.3v-17h13.3v19.8c0,2.9,2.4,5.3,5.3,5.3h34.5v27.4c0,2.9,2.4,5.3,5.3,5.3h11.8c1.3,0,2.4,1.1,2.4,2.4v42.9c0,1.3-1.1,2.4-2.4,2.4h-9.9v-27.2c0-2.9-2.4-5.3-5.3-5.3h-30.1v-13.2h11.2c2.9,0,5.3-2.4,5.3-5.3v-16.5c0-2.9-2.4-5.3-5.3-5.3h-8.8c-2.9,0-5.3,2.4-5.3,5.3v18.9h-21.9v-17.5c0-2.9-2.4-5.3-5.3-5.3h0ZM136.3,226.1v-4c0-2.9-2.4-5.3-5.3-5.3h-5.5v-6.6h26c2.9,0,5.3-2.4,5.3-5.3v-5.3h13.7v26.5h-34.2ZM170.5,229v11.1c0,1.3-1.1,2.4-2.4,2.4h-29.4c-1.3,0-2.4-1.1-2.4-2.4v-11.1h34.2,0ZM133.4,222.2v4h-5.5c-1.3,0-2.4-1.1-2.4-2.4v-4h5.5c1.3,0,2.4,1.1,2.4,2.4ZM135.1,177.1v17.3c0,2.9,2.4,5.3,5.3,5.3h13.6v5.3c0,1.3-1.1,2.4-2.4,2.4h-26v-30.3h9.6-.1ZM125.5,174.3v-4.7c0-1.3,1.1-2.4,2.4-2.4h7.2v7.1h-9.6ZM138,194.4v-17.3h13.6c1.3,0,2.4,1.1,2.4,2.4v17.3h-13.6c-1.3,0-2.4-1.1-2.4-2.4ZM156.8,196.8v-17.3c0-2.9-2.4-5.3-5.3-5.3h-13.6v-7.1h30.1c1.3,0,2.4,1.1,2.4,2.4v27.2h-13.7.1ZM138,148.2v-18.9c0-1.3,1.1-2.4,2.4-2.4h8.8c1.3,0,2.4,1.1,2.4,2.4v16.5c0,1.3-1.1,2.4-2.4,2.4h-11.2ZM115.6,174.3c-1.3,0-2.4-1.1-2.4-2.4v-20.8h21.9v13.2h-7.2c-2.9,0-5.3,2.4-5.3,5.3v4.7h-7.1.1ZM101.6,210.3h21.1v6.6h-21.1v-6.6ZM85.8,207.4c-1.3,0-2.4-1.1-2.4-2.4v-7.1h12.9c1.3,0,2.4,1.1,2.4,2.4v7.1h-12.9ZM46.9,229.7c-1.3,0-2.4-1.1-2.4-2.4v-5.1c0-1.3,1.1-2.4,2.4-2.4h51.8v4.7h-11.5c-2.9,0-5.2,2.3-5.3,5.2,0,0-35,0-35,0ZM98.7,227.3c0,1.3-1.1,2.3-2.4,2.3h-11.5c0-1.3,1.1-2.3,2.4-2.3h11.5ZM109.2,253.8h-55.1c-1.3,0-2.4-1.1-2.4-2.4v-2.8c0-1.3,1.1-2.4,2.4-2.4h25.5c2.9,0,5.3-2.4,5.3-5.3v-8.5h11.5c2.9,0,5.2-2.3,5.3-5.2h5.2c1.3,0,2.4,1.1,2.4,2.4v24.1h-.1ZM195.5,253.1c-.5.5-1.1.7-1.7.7h-81.8v-24.1c0-2.9-2.4-5.3-5.3-5.3h-5.2v-4.7h21.1v4c0,2.9,2.4,5.3,5.3,5.3h5.5v11.1c0,2.9,2.4,5.3,5.3,5.3h29.4c2.9,0,5.3-2.4,5.3-5.3v-11.1h22.6l.2,22.4c0,.5-.2,1.2-.7,1.7h0ZM208.9,223.7c0,1.3-1.1,2.4-2.4,2.4h-7.6l-.8-87.3h0c0-.7.2-1.3.7-1.7.5-.5,1.1-.7,1.7-.7h6.1c1.3,0,2.4,1.1,2.4,2.4v84.9h0Z"/>
        <path class="cls-2" d="M109.2,365.2v.4h2.6v-.4h-2.6Z"/>
      </g>
      <g>
        <path class="cls-1" d="M164.5,963.8c0-1.4-1.1-2.5-2.5-2.5h-33.3c-1.4,0-2.5,1.1-2.5,2.5v32c0,1.4,1.1,2.5,2.5,2.5h35.7v-34.5h.1Z"/>
        <path class="cls-1" d="M195.6,1031.6v-28.2c0-1.4-1.1-2.5-2.5-2.5h-25.9v14c0,2.8-2.3,5.2-5.2,5.2h-42.3v13.9h73.3c1.4,0,2.5-1.1,2.5-2.5h0Z"/>
        <path class="cls-1" d="M81.4,937.5c0-1.4-1.1-2.5-2.5-2.5h-23.1c-1.4,0-2.5,1.1-2.5,2.5v29.1c0,1.4,1.1,2.5,2.5,2.5h25.6v-31.6Z"/>
        <path class="cls-1" d="M84.1,1015c0,1.4,1.1,2.5,2.5,2.5h30.5v-22.1c0-1.4-1.1-2.5-2.5-2.5h-30.5v22.1Z"/>
        <path class="cls-1" d="M81.4,1015v-22.1H28c-1.4,0-2.5,1.1-2.5,2.5v36.2c0,1.4,1.1,2.5,2.5,2.5h89.1v-13.9h-30.5c-2.8,0-5.2-2.3-5.2-5.2Z"/>
        <path class="cls-1" d="M106,1056.5h-29.2c-1.4,0-2.5,1.1-2.5,2.5v15.2c0,1.4,1.1,2.5,2.5,2.5h31.7v-17.7c0-1.4-1.1-2.5-2.5-2.5h0Z"/>
        <path class="cls-2" d="M108.2,763v104.3h0v99.3c0,1.4-1.1,2.5-2.5,2.5h-21.6v-31.6c0-2.8-2.3-5.2-5.2-5.2h-23.1c-2.8,0-5.2,2.3-5.2,5.2v29.1c0,2.8,2.3,5.2,5.2,5.2h25.6v18.4H28c-2.8,0-5.2,2.3-5.2,5.2v36.2c0,2.8,2.3,5.2,5.2,5.2h89.1v14.6c0,2.8,2.3,5.2,5.2,5.2h45.4c1.4,0,2.5,1.1,2.5,2.5v15.2c0,1.4-1.1,2.5-2.5,2.5h-56.5v-17.7c0-2.8-2.3-5.2-5.2-5.2h-29.2c-2.8,0-5.2,2.3-5.2,5.2v15.2c0,2.8,2.3,5.2,5.2,5.2h31.7v113.8h0v68.4c0,1.4,2.7,1.1,2.7,1.1h0v-69.4h0v-113.8h56.5c2.8,0,5.2-2.3,5.2-5.2v-15.2c0-2.8-2.3-5.2-5.2-5.2h-45.4c-1.4,0-2.5-1.1-2.5-2.5v-14.6h73.3c2.8,0,5.2-2.3,5.2-5.2v-28.2c0-2.8-2.3-5.2-5.2-5.2h-25.9v-34.5c0-2.8-2.3-5.2-5.2-5.2h-33.3c-2.8,0-5.2,2.3-5.2,5.2v32c0,2.8,2.3,5.2,5.2,5.2h35.7v14c0,1.4-1.1,2.5-2.5,2.5h-42.3v-22.1c0-2.8-2.3-5.2-5.2-5.2h-30.5v-18.4h21.6c2.8,0,5.2-2.3,5.2-5.2v-99.3h0v-104.3M108.5,1076.7h-31.7c-1.4,0-2.5-1.1-2.5-2.5v-15.2c0-1.4,1.1-2.5,2.5-2.5h29.2c1.4,0,2.5,1.1,2.5,2.5v17.7ZM128.8,998.3c-1.4,0-2.5-1.1-2.5-2.5v-32c0-1.4,1.1-2.5,2.5-2.5h33.3c1.4,0,2.5,1.1,2.5,2.5v34.5h-35.8ZM119.7,1020.1h42.3c2.8,0,5.2-2.3,5.2-5.2v-14h25.9c1.4,0,2.5,1.1,2.5,2.5v28.2c0,1.4-1.1,2.5-2.5,2.5h-73.3v-13.9h0ZM55.8,969.1c-1.4,0-2.5-1.1-2.5-2.5v-29.1c0-1.4,1.1-2.5,2.5-2.5h23.1c1.4,0,2.5,1.1,2.5,2.5v31.6h-25.6ZM117.1,1034.1H28c-1.4,0-2.5-1.1-2.5-2.5v-36.2c0-1.4,1.1-2.5,2.5-2.5h53.5v22.1c0,2.8,2.3,5.2,5.2,5.2h30.5v13.9h0ZM114.6,992.9c1.4,0,2.5,1.1,2.5,2.5v22.1h-30.5c-1.4,0-2.5-1.1-2.5-2.5v-22.1h30.5Z"/>
      </g>
      <path class="cls-2" d="M110.3,544h-7.2c-1.1,0-2.1.6-2.6,1.6s-.5,2.1,0,3l7.2,10.9c.5.8,1.5,1.3,2.5,1.3s1.9-.5,2.5-1.3l7.2-10.9c.3-.5.5-1.1.5-1.6s0-1-.4-1.4c-.5-1-1.5-1.6-2.6-1.6h-7.2Z"/>
      <path class="cls-2" d="M109.5,1252.5h-7.2c-1.1,0-2.1.6-2.6,1.6s-.5,2.1,0,3l7.2,10.9c.5.8,1.5,1.3,2.5,1.3s1.9-.5,2.5-1.3l7.2-10.9c.3-.5.5-1.1.5-1.6s0-1-.4-1.4c-.5-1-1.5-1.6-2.6-1.6h-7.2Z"/>
      <path class="cls-2" d="M109.5,1575.6h-7.2c-1.1,0-2.1.6-2.6,1.6s-.5,2.1,0,3l7.2,10.9c.5.8,1.5,1.3,2.5,1.3s1.9-.5,2.5-1.3l7.2-10.9c.3-.5.5-1.1.5-1.6s0-1-.4-1.4c-.5-1-1.5-1.6-2.6-1.6h-7.2Z"/>
      <rect class="cls-3" x="108.5" y="1431.4" width="2.7" height="146.6"/>
    </g>
  </g>
</svg>