<?xml version="1.0" encoding="UTF-8"?>
<svg xmlns="http://www.w3.org/2000/svg" version="1.1" viewBox="0 0 176.1 32.8">
  <defs>
    <style>
      .cls-1 {
        fill: #ffbf3f;
      }
    </style>
  </defs>
  <!-- Generator: Adobe Illustrator 28.7.1, SVG Export Plug-In . SVG Version: 1.2.0 Build 142)  -->
  <g>
    <g id="Layer_1">
      <g>
        <path class="cls-1" d="M8.1,5.6H0v-2.4h18.9v2.4h-8.1v20.6h-2.7V5.6Z"/>
        <path class="cls-1" d="M36.6,26.2h-2.7v-10.3c0-2.8-1.6-4.6-4.2-4.6s-4.5,1.9-4.5,4.6v10.3h-2.7V0h2.7v11.1c1.2-1.4,3-2.3,5.1-2.3,3.9,0,6.3,2.7,6.3,6.7v10.7Z"/>
        <path class="cls-1" d="M43.9,18.5c.3,3.3,2.9,5.6,6.2,5.6s3.7-.8,5.2-2.3l1.6,1.8c-1.8,1.8-4.1,3-6.8,3-5.1,0-9-3.9-9-8.9s3.8-8.9,8.7-8.9,7.7,3.2,7.7,7.7,0,1.3-.2,2h-13.4ZM54.8,16.1c0-3-2.2-4.9-5.1-4.9s-5.1,2-5.7,4.9h10.8Z"/>
        <path class="cls-1" d="M80.9,26.5c-2.5,0-4.8-1-6.2-2.8v8.7h-2.7V9.2h2.5v2.7c1.3-2,3.8-3.1,6.4-3.1,4.8,0,8.4,3.9,8.4,8.9s-3.6,8.9-8.4,8.9ZM80.5,11.3c-3,0-5.9,2.1-5.9,6.4s2.8,6.4,5.9,6.4,6-2.7,6-6.4-2.6-6.4-6-6.4Z"/>
        <path class="cls-1" d="M106.8,26.2h-2.5v-2.2c-1.3,1.7-3.2,2.6-5.7,2.6s-5.9-1.8-5.9-4.8,2.4-4.7,6.1-4.7h5.4v-1.5c0-2.8-1.6-4.3-4.1-4.3s-3.6.9-5,2.7l-1.8-1.5c1.5-2.5,4.1-3.7,6.9-3.7,4,0,6.6,2.4,6.6,6.9v10.5ZM104.1,19.2h-5.1c-2.4,0-3.7.8-3.7,2.4s1.5,2.7,3.5,2.7,5.2-2.1,5.2-4.7v-.4Z"/>
        <path class="cls-1" d="M127.4,9.2l-8.4,19.4c-1.3,3-3.1,4.3-5.8,4.3s-1.7-.1-2.6-.3v-2.3c.9.1,1.6.2,2.1.2,1.8,0,3-.7,3.8-2.7l.9-2-7-16.5h2.9l5.6,13.5,5.6-13.5h2.9Z"/>
        <path class="cls-1" d="M140.3,11.5h-1c-2.9,0-5.3,1.8-5.3,5v9.6h-2.7V9.2h2.5v2.4c1.2-1.6,3.2-2.5,5.3-2.5s.8,0,1.3.1v2.4Z"/>
        <path class="cls-1" d="M151.2,8.8c4.8,0,9,4,8.9,8.9.1,4.8-4.1,9-8.9,8.9-4.8.1-8.9-4.1-8.9-8.9-.1-4.8,4-9,8.9-8.9ZM151.2,11.3c-3.5,0-6.1,2.8-6.1,6.4s2.7,6.3,6.1,6.3,6.2-2.8,6.2-6.3-2.7-6.4-6.1-6.4Z"/>
        <path class="cls-1" d="M164.8,0h2.7v26.2h-2.7V0Z"/>
        <path class="cls-1" d="M173.4,0h2.7v26.2h-2.7V0Z"/>
      </g>
    </g>
  </g>
</svg>