<?xml version="1.0" encoding="UTF-8"?>
<svg xmlns="http://www.w3.org/2000/svg" version="1.1" viewBox="0 0 269.3 32.8">
  <defs>
    <style>
      .cls-1 {
        fill: #ffbf3f;
      }
    </style>
  </defs>
  <!-- Generator: Adobe Illustrator 28.7.1, SVG Export Plug-In . SVG Version: 1.2.0 Build 142)  -->
  <g>
    <g id="Layer_1">
      <g>
        <path class="cls-1" d="M11.4,26.2c-1.1.2-2,.4-2.8.4-3.5,0-5.7-1.8-5.7-5.5v-9.5H0v-2.4h2.9v-4.6h2.7v4.6h5.3v2.4h-5.3v9.3c0,2.4,1.3,3.2,3.6,3.2s1.4,0,2.3-.2v2.3Z"/>
        <path class="cls-1" d="M22.7,8.8c4.8,0,9,4,8.9,8.9.1,4.8-4.1,9-8.9,8.9-4.8.1-8.9-4.1-8.9-8.9-.1-4.8,4-9,8.9-8.9ZM22.7,11.3c-3.5,0-6.1,2.8-6.1,6.4s2.7,6.3,6.1,6.3,6.2-2.8,6.2-6.3-2.7-6.4-6.1-6.4Z"/>
        <path class="cls-1" d="M60.2,26.2h-2.7v-10.3c0-2.8-1.6-4.6-4.2-4.6s-4.5,1.9-4.5,4.6v10.3h-2.7V0h2.7v11.1c1.2-1.4,3-2.3,5.1-2.3,3.9,0,6.3,2.7,6.3,6.7v10.7Z"/>
        <path class="cls-1" d="M67.4,18.5c.3,3.3,2.9,5.6,6.2,5.6s3.7-.8,5.2-2.3l1.6,1.8c-1.8,1.8-4.1,3-6.8,3-5.1,0-9-3.9-9-8.9s3.8-8.9,8.7-8.9,7.7,3.2,7.7,7.7,0,1.3-.2,2h-13.4ZM78.3,16.1c0-3-2.2-4.9-5.1-4.9s-5.1,2-5.7,4.9h10.8Z"/>
        <path class="cls-1" d="M85.8,0h2.7v26.2h-2.7V0Z"/>
        <path class="cls-1" d="M103.3,26.5c-2.5,0-4.8-1-6.2-2.8v8.7h-2.7V9.2h2.5v2.7c1.3-2,3.8-3.1,6.4-3.1,4.8,0,8.4,3.9,8.4,8.9s-3.6,8.9-8.4,8.9ZM102.9,11.3c-3,0-5.9,2.1-5.9,6.4s2.8,6.4,5.9,6.4,6-2.7,6-6.4-2.6-6.4-6-6.4Z"/>
        <path class="cls-1" d="M141.1,9.2l-8.4,19.4c-1.3,3-3.1,4.3-5.8,4.3s-1.7-.1-2.6-.3v-2.3c.9.1,1.6.2,2.1.2,1.8,0,3-.7,3.8-2.7l.9-2-7-16.5h2.9l5.6,13.5,5.6-13.5h2.9Z"/>
        <path class="cls-1" d="M152,8.8c4.8,0,9,4,8.9,8.9.1,4.8-4.1,9-8.9,8.9-4.8.1-8.9-4.1-8.9-8.9-.1-4.8,4-9,8.9-8.9ZM152,11.3c-3.5,0-6.1,2.8-6.1,6.4s2.7,6.3,6.1,6.3,6.2-2.8,6.2-6.3-2.7-6.4-6.1-6.4Z"/>
        <path class="cls-1" d="M165.3,9.2h2.7v10.4c0,2.8,1.9,4.5,4.4,4.5s4.3-1.8,4.3-4.5v-10.4h2.7v10.2c0,4.3-3.1,7.2-7,7.2s-7-2.9-7-7.2v-10.2Z"/>
        <path class="cls-1" d="M194.1,11.5h-1c-2.9,0-5.3,1.8-5.3,5v9.6h-2.7V9.2h2.5v2.4c1.2-1.6,3.2-2.5,5.3-2.5s.8,0,1.3.1v2.4Z"/>
        <path class="cls-1" d="M207.7,3.1h8.1c4.5,0,7.4,2.8,7.4,6.7s-2.9,6.7-7.4,6.7h-5.4v9.6h-2.7V3.1ZM215.7,14.1c2.9,0,4.6-1.7,4.6-4.3s-1.7-4.3-4.6-4.3h-5.3v8.5h5.3Z"/>
        <path class="cls-1" d="M227.7,3.1h14.8v2.4h-12v7h9.2v2.4h-9.2v8.7h12.5v2.4h-15.2V3.1Z"/>
        <path class="cls-1" d="M257.3,2.8c6.5-.1,12.1,5.3,12,11.9.1,6.6-5.5,12-12,11.9-6.5.1-12.1-5.4-11.9-11.9-.1-6.6,5.4-12,11.9-11.9ZM257.4,5.3c-5.2,0-9.1,4-9.1,9.3s3.9,9.4,9.1,9.4c5.1,0,9.2-4.2,9.1-9.4.1-5.2-4-9.5-9.1-9.3Z"/>
      </g>
    </g>
  </g>
</svg>