<?xml version="1.0" encoding="UTF-8"?>
<svg xmlns="http://www.w3.org/2000/svg" version="1.1" viewBox="0 0 175 31.7">
  <defs>
    <style>
      .cls-1 {
        fill: #ffbf3f;
      }
    </style>
  </defs>
  <!-- Generator: Adobe Illustrator 28.7.1, SVG Export Plug-In . SVG Version: 1.2.0 Build 142)  -->
  <g>
    <g id="Layer_1">
      <g>
        <path class="cls-1" d="M2.8,17.8c.3,3.3,2.9,5.6,6.2,5.6s3.7-.8,5.2-2.3l1.6,1.8c-1.8,1.8-4.1,3-6.8,3-5.1,0-9-3.9-9-8.9s3.8-8.9,8.7-8.9,7.7,3.2,7.7,7.7,0,1.3-.2,2H2.8ZM13.7,15.4c0-3-2.2-4.9-5.1-4.9s-5.1,2-5.7,4.9h10.8Z"/>
        <path class="cls-1" d="M31.3,25.4l-4.8-7-4.8,7h-3.1l6.3-8.9-5.8-8.1h3.1l4.3,6.2,4.4-6.2h3.1l-5.9,8.1,6.4,8.9h-3.1Z"/>
        <path class="cls-1" d="M47.1,25.8c-2.5,0-4.8-1-6.2-2.8v8.7h-2.7V8.4h2.5v2.7c1.3-2,3.8-3.1,6.4-3.1,4.8,0,8.4,3.9,8.4,8.9s-3.6,8.9-8.4,8.9ZM46.7,10.5c-3,0-5.9,2.1-5.9,6.4s2.8,6.4,5.9,6.4,6-2.7,6-6.4-2.6-6.4-6-6.4Z"/>
        <path class="cls-1" d="M61.7,17.8c.3,3.3,2.9,5.6,6.2,5.6s3.7-.8,5.2-2.3l1.6,1.8c-1.8,1.8-4.1,3-6.8,3-5.1,0-9-3.9-9-8.9s3.8-8.9,8.7-8.9,7.7,3.2,7.7,7.7,0,1.3-.2,2h-13.4ZM72.6,15.4c0-3-2.2-4.9-5.1-4.9s-5.1,2-5.7,4.9h10.8Z"/>
        <path class="cls-1" d="M89.1,10.8h-1c-2.9,0-5.3,1.8-5.3,5v9.6h-2.7V8.4h2.5v2.4c1.2-1.6,3.2-2.5,5.3-2.5s.8,0,1.3.1v2.4Z"/>
        <path class="cls-1" d="M94.1,0c1.1,0,2,.9,2,2s-.9,2-2,2-2-.8-2-2,.9-2,2-2ZM92.7,8.4h2.7v17h-2.7V8.4Z"/>
        <path class="cls-1" d="M102.9,17.8c.3,3.3,2.9,5.6,6.2,5.6s3.7-.8,5.2-2.3l1.6,1.8c-1.8,1.8-4.1,3-6.8,3-5.1,0-9-3.9-9-8.9s3.8-8.9,8.7-8.9,7.7,3.2,7.7,7.7,0,1.3-.2,2h-13.4ZM113.8,15.4c0-3-2.2-4.9-5.1-4.9s-5.1,2-5.7,4.9h10.8Z"/>
        <path class="cls-1" d="M135.3,25.4h-2.7v-10.4c0-2.7-1.6-4.5-4.2-4.5s-4.5,1.9-4.5,4.5v10.4h-2.7V8.4h2.5v1.8c1.3-1.4,3.1-2.2,5.2-2.2,3.9,0,6.3,2.7,6.3,6.7v10.7Z"/>
        <path class="cls-1" d="M148.6,8.1c3,0,5.5,1.4,7,3.7l-1.9,1.5c-1.4-1.8-3.1-2.8-5.1-2.8-3.5,0-6.2,2.9-6.2,6.4s2.7,6.4,6.2,6.4,3.7-.9,5-2.7l1.9,1.5c-1.5,2.3-4,3.7-7,3.7-4.9,0-8.9-4-8.9-8.9-.1-4.8,4-8.9,8.9-8.9Z"/>
        <path class="cls-1" d="M161.4,17.8c.3,3.3,2.9,5.6,6.2,5.6s3.7-.8,5.2-2.3l1.6,1.8c-1.8,1.8-4.1,3-6.8,3-5.1,0-9-3.9-9-8.9s3.8-8.9,8.7-8.9,7.7,3.2,7.7,7.7,0,1.3-.2,2h-13.4ZM172.3,15.4c0-3-2.2-4.9-5.1-4.9s-5.1,2-5.7,4.9h10.8Z"/>
      </g>
    </g>
  </g>
</svg>