<?xml version="1.0" encoding="UTF-8"?>
<svg xmlns="http://www.w3.org/2000/svg" version="1.1" viewBox="0 0 234.7 78.9">
  <defs>
    <style>
      .cls-1 {
        fill: #ffbf3f;
      }
    </style>
  </defs>
  <!-- Generator: Adobe Illustrator 28.7.1, SVG Export Plug-In . SVG Version: 1.2.0 Build 142)  -->
  <g>
    <g id="Layer_1">
      <g>
        <path class="cls-1" d="M92,30.3l-7.7-10.5h-4.5v10.5h-6.1V.5h11.2c6.2,0,10.7,3.9,10.7,9.6s-2,6.9-5.2,8.5l8.4,11.7h-6.9ZM79.8,14.4h5.1c2.8,0,4.5-1.7,4.5-4.3s-1.8-4.2-4.5-4.2h-5.1v8.5Z"/>
        <path class="cls-1" d="M101.4.5h6.1v17.9c0,4.3,2.7,6.8,6.5,6.8s6.5-2.4,6.5-6.8V.5h6.1v17.5c0,7.9-5.4,12.9-12.6,12.9s-12.6-5-12.6-12.9V.5Z"/>
        <path class="cls-1" d="M158.6.5v30.3h-2l-17.2-18.4v17.9h-6.1V0h2l17.3,18.3V.5h6.1Z"/>
        <path class="cls-1" d="M4.2,69.2c1.9,2.7,4.1,4.3,7.3,4.3s4.2-1.3,4.2-3.3-.9-2.4-3.8-3.7l-3.2-1.4c-4.6-2-7.2-4.6-7.2-8.6s4.2-8.4,9.9-8.4,8,2.2,9.8,5.6l-4.1,3.2c-1.5-2.3-3.4-3.4-5.7-3.4s-3.7,1-3.7,2.9.9,2.3,3.5,3.4l3.4,1.5c5,2.2,7.4,4.7,7.4,8.7s-4.5,8.9-10.4,8.9-9.2-2.6-11.5-6.6l4.2-3.2Z"/>
        <path class="cls-1" d="M56.4,48.1v30.3h-6.1v-15.9l-7.5,9.4h-2l-7.5-9.4v15.9h-6.1v-30.3h2l12.6,16.1,12.6-16.1h2Z"/>
        <path class="cls-1" d="M77.4,48.1c8.6-.2,16,6.9,15.9,15.4.1,8.5-7.3,15.6-15.9,15.4-8.6.2-15.9-6.9-15.8-15.4-.1-8.5,7.2-15.6,15.8-15.4ZM77.4,53.7c-5.5,0-9.6,4.1-9.6,9.8s4.1,9.8,9.6,9.8,9.6-4.1,9.6-9.8-4.1-9.8-9.6-9.8Z"/>
        <path class="cls-1" d="M112.5,48.1c8.6-.2,16,6.9,15.9,15.4.1,8.5-7.3,15.6-15.9,15.4-8.6.2-15.9-6.9-15.8-15.4-.1-8.5,7.2-15.6,15.8-15.4ZM112.5,53.7c-5.5,0-9.6,4.1-9.6,9.8s4.1,9.8,9.6,9.8,9.6-4.1,9.6-9.8-4.1-9.8-9.6-9.8Z"/>
        <path class="cls-1" d="M139.6,54.1h-9.5v-5.5h25.2v5.5h-9.6v24.3h-6.1v-24.3Z"/>
        <path class="cls-1" d="M159.3,48.6h6.1v11.4h13.2v-11.4h6.1v29.8h-6.1v-12.9h-13.2v12.9h-6.1v-29.8Z"/>
        <path class="cls-1" d="M191.4,48.6h6.1v24.3h13v5.5h-19.1v-29.8Z"/>
        <path class="cls-1" d="M224.5,66.7v11.7h-6.1v-11.7l-10.3-18.1h6.8l6.6,11.8,6.5-11.8h6.7l-10.2,18Z"/>
      </g>
    </g>
  </g>
</svg>