<?xml version="1.0" encoding="UTF-8"?>
<svg xmlns="http://www.w3.org/2000/svg" version="1.1" viewBox="0 0 184.9 20.9">
  <defs>
    <style>
      .cls-1 {
        fill: #ffbf3f;
      }
    </style>
  </defs>
  <!-- Generator: Adobe Illustrator 28.7.1, SVG Export Plug-In . SVG Version: 1.2.0 Build 142)  -->
  <g>
    <g id="Layer_1">
      <g>
        <path class="cls-1" d="M1.8,15.2c1.5,2.3,3.4,3.5,5.6,3.5s4.1-1.3,4.1-3.4-1.1-2.4-3.4-3.6l-2.3-1.1c-2.8-1.3-4.6-2.7-4.6-5.4S4.1,0,7.4,0s5,1.4,6.3,3.4l-1.7,1.3c-1.1-1.6-2.8-2.5-4.6-2.5s-3.6,1.1-3.6,2.9.1,1.1.4,1.5c.5.8,1.3,1.2,2.8,1.9l2.2,1.1c3.2,1.6,4.7,3,4.7,5.6s-2.8,5.6-6.5,5.6-5.8-1.7-7.4-4.3l1.8-1.3Z"/>
        <path class="cls-1" d="M27.8,0c5.7,0,10.6,4.7,10.5,10.4.1,5.8-4.8,10.5-10.5,10.4-5.7.1-10.6-4.7-10.5-10.4C17.2,4.7,22.1,0,27.8,0ZM27.8,2.2c-4.6,0-8,3.5-8,8.2s3.5,8.3,8,8.3c4.4,0,8.1-3.6,8-8.3,0-4.6-3.6-8.3-8-8.2Z"/>
        <path class="cls-1" d="M42.3.3h2.4v12.3c0,3.9,2.3,6,5.7,6s5.6-2.1,5.6-6V.3h2.4v12.2c0,5.3-3.4,8.4-8,8.4s-8.1-3.1-8.1-8.4V.3Z"/>
        <path class="cls-1" d="M68.5,2.5h-7.1V.3h16.6v2.1h-7.1v18.1h-2.4V2.5Z"/>
        <path class="cls-1" d="M81.4.3h2.4v8.3h11.3V.3h2.4v20.2h-2.4v-9.7h-11.3v9.7h-2.4V.3Z"/>
        <path class="cls-1" d="M103.4,15.2c1.5,2.3,3.4,3.5,5.6,3.5s4.1-1.3,4.1-3.4-1.1-2.4-3.4-3.6l-2.3-1.1c-2.8-1.3-4.6-2.7-4.6-5.4S105.7,0,109,0s5,1.4,6.3,3.4l-1.7,1.3c-1.1-1.6-2.8-2.5-4.6-2.5s-3.6,1.1-3.6,2.9.1,1.1.4,1.5c.5.8,1.3,1.2,2.8,1.9l2.2,1.1c3.2,1.6,4.7,3,4.7,5.6s-2.8,5.6-6.5,5.6-5.8-1.7-7.4-4.3l1.8-1.3Z"/>
        <path class="cls-1" d="M125.1,2.5h-7.1V.3h16.6v2.1h-7.1v18.1h-2.4V2.5Z"/>
        <path class="cls-1" d="M148,16.4h-9.9l-1.7,4.1h-2.5L142.6,0h.9l8.8,20.5h-2.5l-1.7-4.1ZM143.1,4.3l-4,10h8.1l-4-10Z"/>
        <path class="cls-1" d="M158.6,2.5h-7.1V.3h16.6v2.1h-7.1v18.1h-2.4V2.5Z"/>
        <path class="cls-1" d="M171.5.3h13v2.1h-10.6v6.2h8.1v2.1h-8.1v7.6h10.9v2.1h-13.3V.3Z"/>
      </g>
    </g>
  </g>
</svg>