<?xml version="1.0" encoding="UTF-8"?>
<svg xmlns="http://www.w3.org/2000/svg" version="1.1" viewBox="0 0 211.1 20.9">
  <defs>
    <style>
      .cls-1 {
        fill: #ffbf3f;
      }
    </style>
  </defs>
  <!-- Generator: Adobe Illustrator 28.7.1, SVG Export Plug-In . SVG Version: 1.2.0 Build 142)  -->
  <g>
    <g id="Layer_1">
      <g>
        <path class="cls-1" d="M0,.3h7.1c3.9,0,6.5,2.4,6.5,5.8s-2.5,5.9-6.5,5.9H2.4v8.5H0V.3ZM7,10c2.6,0,4-1.5,4-3.7s-1.5-3.7-4-3.7H2.4v7.5h4.7Z"/>
        <path class="cls-1" d="M27.4,16.4h-9.9l-1.7,4.1h-2.5L22,0h.9l8.8,20.5h-2.5l-1.7-4.1ZM22.5,4.3l-4,10h8.1l-4-10Z"/>
        <path class="cls-1" d="M48.4,20.5l-6.3-8.5h-4.3v8.5h-2.4V.3h7.1c3.9,0,6.5,2.4,6.5,5.8s-1.6,4.8-4.3,5.6l6.5,8.8h-2.8ZM37.8,9.9h4.6c2.6,0,4.1-1.5,4.1-3.7s-1.5-3.7-4.1-3.7h-4.6v7.4Z"/>
        <path class="cls-1" d="M58.6,2.5h-7.1V.3h16.6v2.1h-7.1v18.1h-2.4V2.5Z"/>
        <path class="cls-1" d="M87.6.3v20.5h-.9l-12.9-15.5v15.2h-2.4V0h.9l12.9,15.5V.3h2.4Z"/>
        <path class="cls-1" d="M93.2.3h13v2.1h-10.6v6.2h8.1v2.1h-8.1v7.6h10.9v2.1h-13.3V.3Z"/>
        <path class="cls-1" d="M123.5,20.5l-6.3-8.5h-4.3v8.5h-2.4V.3h7.1c3.9,0,6.5,2.4,6.5,5.8s-1.6,4.8-4.3,5.6l6.5,8.8h-2.8ZM112.9,9.9h4.6c2.6,0,4.1-1.5,4.1-3.7s-1.5-3.7-4.1-3.7h-4.6v7.4Z"/>
        <path class="cls-1" d="M165.1.3l-7.7,20.5h-.9l-6.4-16-6.4,16h-.9L135.2.3h2.6l5.6,15.4,6.3-15.7h.9l6.3,15.7,5.6-15.4h2.6Z"/>
        <path class="cls-1" d="M169.3.3h2.4v20.2h-2.4V.3Z"/>
        <path class="cls-1" d="M182.1,2.5h-7.1V.3h16.6v2.1h-7.1v18.1h-2.4V2.5Z"/>
        <path class="cls-1" d="M195,.3h2.4v8.3h11.3V.3h2.4v20.2h-2.4v-9.7h-11.3v9.7h-2.4V.3Z"/>
      </g>
    </g>
  </g>
</svg>