<?xml version="1.0" encoding="UTF-8"?>
<svg xmlns="http://www.w3.org/2000/svg" version="1.1" viewBox="0 0 255.3 28.2">
  <defs>
    <style>
      .cls-1 {
        fill: #ffbf3f;
      }
    </style>
  </defs>
  <!-- Generator: Adobe Illustrator 28.7.1, SVG Export Plug-In . SVG Version: 1.2.0 Build 142)  -->
  <g>
    <g id="Layer_1">
      <g>
        <path class="cls-1" d="M14.5,0C19.7,0,24.1,2.5,26.6,6.8l-4.2,3c-1.9-3.1-4.5-4.6-7.8-4.6-5.1,0-8.8,3.8-8.8,9s3.7,8.9,8.8,8.9,5.9-1.5,7.8-4.6l4.2,3c-2.4,4.3-6.8,6.8-12.1,6.8C6.5,28.4-.2,21.9,0,14.1-.1,6.3,6.6-.2,14.5,0Z"/>
        <path class="cls-1" d="M31,.5h5.6v16.4c0,4,2.5,6.2,6,6.2s6-2.2,6-6.2V.5h5.6v16c0,7.2-5,11.8-11.6,11.8s-11.6-4.5-11.6-11.8V.5Z"/>
        <path class="cls-1" d="M61.9,19.3c1.8,2.4,3.7,4,6.7,4s3.9-1.2,3.9-3-.9-2.2-3.5-3.4l-2.9-1.3c-4.2-1.9-6.6-4.2-6.6-7.8S63.4,0,68.5,0s7.3,2,9,5.2l-3.8,2.9c-1.4-2.1-3.1-3.1-5.2-3.1s-3.4.9-3.4,2.6.9,2.1,3.2,3.1l3.1,1.4c4.6,2,6.7,4.3,6.7,8s-4.1,8.2-9.5,8.2-8.4-2.4-10.5-6l3.8-2.9Z"/>
        <path class="cls-1" d="M89.2,5.5h-8.7V.5h23v5h-8.8v22.2h-5.6V5.5Z"/>
        <path class="cls-1" d="M119.6,0c7.8-.2,14.7,6.3,14.5,14.1.1,7.8-6.7,14.3-14.5,14.1-7.8.2-14.6-6.3-14.5-14.1C105,6.3,111.7-.2,119.6,0ZM119.6,5.2c-5,0-8.8,3.7-8.8,9s3.7,9,8.8,9,8.8-3.7,8.8-9-3.8-9-8.8-9Z"/>
        <path class="cls-1" d="M165.5,0v27.7h-5.6v-14.5l-6.9,8.6h-1.8l-6.9-8.6v14.5h-5.6V0h1.8l11.5,14.7L163.7,0h1.8Z"/>
        <path class="cls-1" d="M171.8.5h5.6v27.3h-5.6V.5Z"/>
        <path class="cls-1" d="M203.5,22.7v5h-22.3v-1.5l13.7-20.7h-11.9V.5h20.5v1.5l-13.7,20.7h13.7Z"/>
        <path class="cls-1" d="M207.8.5h18.3v5h-12.8v5.5h9.4v4.7h-9.4v6.9h13.3v5h-18.8V.5Z"/>
        <path class="cls-1" d="M231.5.5h8.9c8.6,0,15,5.5,14.9,13.5.1,7.9-6.2,13.8-14.9,13.7h-8.9V.5ZM240.4,22.7c5.5,0,9.2-3.4,9.2-8.7s-3.6-8.5-9.2-8.5h-3.3v17.2h3.3Z"/>
      </g>
    </g>
  </g>
</svg>