<?xml version="1.0" encoding="UTF-8"?>
<svg xmlns="http://www.w3.org/2000/svg" version="1.1" viewBox="0 0 176.9 28.2">
  <defs>
    <style>
      .cls-1 {
        fill: #ffbf3f;
      }
    </style>
  </defs>
  <!-- Generator: Adobe Illustrator 28.7.1, SVG Export Plug-In . SVG Version: 1.2.0 Build 142)  -->
  <g>
    <g id="Layer_1">
      <g>
        <path class="cls-1" d="M12.1,27.7H0V.5h9.7c5,0,8.6,3.1,8.6,7.6s-.7,3.6-2,4.9c3,1.1,4.8,3.4,4.8,6.7,0,4.7-3.7,8-9,8ZM5.4,5.3v6.2h3.8c2.3,0,3.6-1.2,3.6-3.1s-1.3-3.1-3.6-3.1h-3.8ZM11.7,16.1h-6.4v6.9h6.4c2.4,0,3.9-1.3,3.9-3.4s-1.4-3.4-3.9-3.4Z"/>
        <path class="cls-1" d="M41.3,24.2h-11.1l-1.5,3.6h-6L34.8,0h1.9l12.1,27.7h-6l-1.5-3.6ZM35.7,10.4l-3.6,9.2h7.3l-3.6-9.2Z"/>
        <path class="cls-1" d="M75.7.5v27.7h-1.9l-15.8-16.8v16.4h-5.6V0h1.8l15.8,16.8V.5h5.6Z"/>
        <path class="cls-1" d="M99.2,27.7l-11.7-14.2v14.2h-5.6V.5h5.6v12.6L97.9.5h6.6l-10.4,12.8,11.8,14.4h-6.7Z"/>
        <path class="cls-1" d="M109.6.5h5.6v27.3h-5.6V.5Z"/>
        <path class="cls-1" d="M144.6.5v27.7h-1.9l-15.8-16.8v16.4h-5.6V0h1.8l15.8,16.8V.5h5.6Z"/>
        <path class="cls-1" d="M163.9,0c4.8,0,8.8,2.1,11.5,5.9l-4,3.3c-1.9-2.7-4.5-4-7.6-4-5.2,0-8.8,3.8-8.8,9s3.7,9.1,9.1,9.1,5.7-1.3,7.2-3.4v-2.2h-7.5v-4.8h13.1v8.1c-1.2,2.2-3,4-5.3,5.4-2.3,1.4-4.8,2-7.7,2-8,.2-14.7-6.3-14.6-14.1C149.1,6.3,155.8-.1,163.9,0Z"/>
      </g>
    </g>
  </g>
</svg>