<?xml version="1.0" encoding="UTF-8"?>
<svg xmlns="http://www.w3.org/2000/svg" version="1.1" viewBox="0 0 55.6 20.9">
  <defs>
    <style>
      .cls-1 {
        fill: #ffbf3f;
      }
    </style>
  </defs>
  <!-- Generator: Adobe Illustrator 28.7.1, SVG Export Plug-In . SVG Version: 1.2.0 Build 142)  -->
  <g>
    <g id="Layer_1">
      <g>
        <path class="cls-1" d="M0,.3h12.6v2.1H2.4v7h8.5v2.2H2.4v8.9H0V.3Z"/>
        <path class="cls-1" d="M25.1,0c5.7,0,10.6,4.7,10.5,10.4.1,5.8-4.8,10.5-10.5,10.4-5.7.1-10.6-4.7-10.5-10.4C14.5,4.7,19.3,0,25.1,0ZM25.1,2.2c-4.6,0-8,3.5-8,8.2s3.5,8.3,8,8.3c4.4,0,8.1-3.6,8-8.3,0-4.6-3.6-8.3-8-8.2Z"/>
        <path class="cls-1" d="M52.8,20.6l-6.3-8.5h-4.3v8.5h-2.4V.3h7.1c3.9,0,6.5,2.4,6.5,5.8s-1.6,4.8-4.3,5.6l6.5,8.8h-2.8ZM42.2,9.9h4.6c2.6,0,4.1-1.5,4.1-3.7s-1.5-3.7-4.1-3.7h-4.6v7.4Z"/>
      </g>
    </g>
  </g>
</svg>