<svg id="Layer_1" data-name="Layer 1" xmlns="http://www.w3.org/2000/svg" xmlns:xlink="http://www.w3.org/1999/xlink" viewBox="0 0 125.02 100.13"><defs><style>.cls-1,.cls-3,.cls-4,.cls-5,.cls-6{fill:none;}.cls-2{fill:#00a0df;}.cls-3,.cls-4,.cls-5,.cls-6{stroke:#fff;}.cls-3,.cls-6{stroke-linecap:round;}.cls-3{stroke-linejoin:round;}.cls-3,.cls-4,.cls-6{stroke-width:3.14px;}.cls-4,.cls-5,.cls-6{stroke-miterlimit:10;}.cls-5{stroke-width:3.13px;}.cls-7{clip-path:url(#clip-path);}</style><clipPath id="clip-path"><rect class="cls-1" x="2.7" y="4.22" width="117.72" height="97.92"/></clipPath></defs><path class="cls-2" d="M63.05,88.25c31.69,0,57.37-18.81,57.37-42s-25.68-42-57.37-42S5.68,23,5.68,46.23s25.68,42,57.37,42"/><path class="cls-2" d="M36.25,85c0,6.91,6.9,12.39,15.39,12.23S67,91.36,67,84.45,60.12,72.06,51.62,72.22,36.24,78.11,36.25,85"/><path class="cls-3" d="M86,40.73,81,25.13a7.46,7.46,0,0,0-7-4.9H44.56a7.44,7.44,0,0,0-7,4.9L31.35,41.84a10.34,10.34,0,0,0-.59,3.45V57.06a2.5,2.5,0,0,0,2.48,2.53H58.12"/><path class="cls-4" d="M30.76,56.26V63a2.58,2.58,0,0,0,2.46,2.68h3.71A2.58,2.58,0,0,0,39.4,63V59"/><path class="cls-3" d="M33.16,37.19,35,38.66a6.21,6.21,0,0,0,3.93,1.56H79.37"/><path class="cls-5" d="M44.33,51.12h-5.7c-2.36,0-4.27-2.24-4.27-5a1.55,1.55,0,0,1,1.42-1.66h5.7c2.36,0,4.27,2.23,4.27,5A1.56,1.56,0,0,1,44.33,51.12Z"/><rect class="cls-1" x="2.7" y="4.22" width="117.72" height="97.92"/><line class="cls-6" x1="58.15" y1="54.02" x2="48.78" y2="54.02"/><g class="cls-7"><path class="cls-4" d="M86.42,36.94h4.32a3.39,3.39,0,0,0,3.08-3.63A2,2,0,0,0,92,31.13h-3.7a2,2,0,0,0-1.85,2.18Zm-54.27,0H27.83a3.39,3.39,0,0,1-3.08-3.63,2,2,0,0,1,1.85-2.18h3.7a2,2,0,0,1,1.85,2.18Z"/><path class="cls-4" d="M78.41,46.31A13.79,13.79,0,1,0,92.08,60.09,13.74,13.74,0,0,0,78.41,46.31Z"/></g><polyline class="cls-3" points="72.92 59.05 78.04 64.39 92.1 49.69"/></svg>