<?xml version="1.0" encoding="utf-8"?>
<!-- Generator: Adobe Illustrator 26.0.3, SVG Export Plug-In . SVG Version: 6.00 Build 0)  -->
<svg version="1.1" id="Layer_1" xmlns="http://www.w3.org/2000/svg" xmlns:xlink="http://www.w3.org/1999/xlink" x="0px" y="0px"
	 viewBox="0 0 122.9 90" style="enable-background:new 0 0 122.9 90;" xml:space="preserve">
<style type="text/css">
	.st0{fill:#FFFFFF;}
	.st1{fill:#231F20;stroke:#231F20;stroke-width:0.3256;}
	.st2{fill:#E31937;}
</style>
<g>
	<path class="st0" d="M103.9,9.2c0.6,0,1.3,0.2,1.9,0.5c0.6,0.3,1.1,0.8,1.4,1.4c0.3,0.6,0.5,1.2,0.5,1.9c0,0.7-0.2,1.3-0.5,1.9
		c-0.3,0.6-0.8,1.1-1.4,1.4c-0.6,0.3-1.2,0.5-1.9,0.5c-0.7,0-1.3-0.2-1.9-0.5c-0.6-0.3-1.1-0.8-1.4-1.4c-0.3-0.6-0.5-1.2-0.5-1.9
		c0-0.7,0.2-1.3,0.5-1.9c0.3-0.6,0.8-1.1,1.4-1.4C102.6,9.4,103.2,9.2,103.9,9.2z M103.9,9.9c-0.5,0-1.1,0.1-1.6,0.4
		c-0.5,0.3-0.9,0.7-1.2,1.2c-0.3,0.5-0.4,1-0.4,1.6c0,0.5,0.1,1.1,0.4,1.6c0.3,0.5,0.7,0.9,1.2,1.2c0.5,0.3,1,0.4,1.6,0.4
		c0.6,0,1.1-0.1,1.6-0.4c0.5-0.3,0.9-0.7,1.2-1.2c0.3-0.5,0.4-1,0.4-1.6c0-0.5-0.1-1.1-0.4-1.6c-0.3-0.5-0.7-0.9-1.2-1.2
		C104.9,10,104.4,9.9,103.9,9.9z M102.2,15.1V11h1.4c0.5,0,0.8,0,1.1,0.1c0.2,0.1,0.4,0.2,0.5,0.4c0.1,0.2,0.2,0.4,0.2,0.6
		c0,0.3-0.1,0.6-0.3,0.8c-0.2,0.2-0.5,0.3-0.9,0.4c0.1,0.1,0.3,0.1,0.3,0.2c0.2,0.2,0.4,0.4,0.6,0.8l0.5,0.8h-0.8l-0.4-0.6
		c-0.3-0.5-0.5-0.8-0.7-0.9c-0.1-0.1-0.3-0.1-0.5-0.1h-0.4v1.7H102.2z M102.8,12.8h0.8c0.4,0,0.7-0.1,0.8-0.2
		c0.1-0.1,0.2-0.3,0.2-0.5c0-0.1,0-0.2-0.1-0.3c-0.1-0.1-0.2-0.2-0.3-0.2c-0.1,0-0.3-0.1-0.7-0.1h-0.8V12.8z"/>
	<path class="st0" d="M100.1,17.7c0,0,0-0.1,0-0.1C101,6.7,88.9,6.9,88.9,6.9L35.9,7l0,4.9c-19.7,5.9-32,19-32,33.9
		c0,20.6,25.8,37.4,57.6,37.4c31.8,0,57.6-16.7,57.6-37.4C119,33.7,112.5,24.5,100.1,17.7z"/>
	<path class="st1" d="M40.5,12.9C20,18,7.1,30.7,7.1,45.3c0,19.2,24.3,34.8,54.4,34.8c30,0,54.4-15.6,54.4-34.8
		c0-11.6-6.6-20.4-19-26.7c-0.4,1.4-0.7,2.3-1.3,3.3c4.3,3,8.9,5.8,8.8,13.7c-0.1,12.4-19.2,22.7-42.8,22.7
		c-23.6,0-42.5-10-42.8-22.4c-0.2-8.5,9.3-14.9,21.9-19.5"/>
	<g>
		<path class="st0" d="M21.9,50.5l-2.9,2.1l1.1,3.4l-2.9-2.1l-2.9,2.1l1.1-3.4l-2.9-2.1h3.5l1.1-3.3l1.1,3.3H21.9z"/>
	</g>
	<g>
		<path class="st0" d="M110,50.9l-2.9,2.1l1.1,3.4l-2.9-2.1l-2.9,2.1l1.1-3.4l-2.9-2.1l3.5,0l1.1-3.3l1.1,3.3L110,50.9z"/>
	</g>
	<path class="st2" d="M57.8,9v8.1h-3.1v21.4c0,2-0.1,4.3-1.6,6.3c-2.4,3.1-6.7,3.1-10.5,3.1h-7.2c-2.4,0-4.5-0.2-7.2-1.1
		c-3.2-1.1-3.7-5.3-3.9-7.8l0.1-5.9l11.5,0v6.6h5.8V17.1h-3.3V9H57.8z"/>
	<path class="st2" d="M60.6,9h24c4,0,8.8,0,11.3,2.5c1.6,1.7,1.9,4,1.9,6.8c0,5.8-1,8.6-7.4,9.5c6.7,1.5,7.4,3.9,7.4,8.5
		c0,5.5-0.5,7.9-2.3,9.5c-2.4,2.1-6.3,2.1-10.6,2.1H60.6v-8.1h3.2V17.1h-3.2V9z M76.8,17.1v7.3h7.7v-7.3H76.8z M76.8,31.6v8.2h7.7
		v-8.2H76.8z"/>
	<path class="st2" d="M55.7,24.5h7.1v7.1h-7.1V24.5z"/>
	<g>
		<path class="st0" d="M25.2,52.7c2.5,1.3,5,2.5,7.6,3.5c0,1,0,2.1,0,3.1c-0.5-0.2-1.1-0.4-1.6-0.7c0.3,2.1,0.7,4.1,1,6.1
			c0.2,1.3,0.2,1.7,0.3,3.4c0.1-1.3,0.2-1.8,0.6-3.3c0.7-2.5,1.4-5.1,2.1-7.6c1.5,0.6,3.1,1.1,4.6,1.5c0.7,3,1.4,5.9,2,8.9
			c0.4,1.7,0.5,2.2,0.7,3.7c0.1-1.7,0.2-2,0.4-3c0.3-1.8,0.7-3.6,1-5.4c-0.6-0.1-1.2-0.3-1.8-0.5c0-1,0-2.1,0-3.1
			c2.6,0.7,5.2,1.3,7.9,1.7c0,1,0,2.1,0,3.1c-0.4-0.1-0.9-0.1-1.3-0.2c-0.8,3.8-1.7,7.6-2.5,11.4c-2.2-0.5-4.4-1-6.6-1.7
			c-0.6-2.5-1.2-5.1-1.8-7.6c-0.2-0.9-0.2-1.2-0.4-2.1c-0.2,0.9-0.3,1.2-0.5,2.1c-0.6,2.1-1.1,4.1-1.7,6.2c-2.2-0.8-4.3-1.7-6.4-2.7
			c-0.8-4.3-1.7-8.7-2.5-13c-0.4-0.2-0.8-0.4-1.2-0.6C25.2,54.8,25.2,53.7,25.2,52.7z"/>
		<path class="st0" d="M51.8,61.3c4.6,0.6,9.3,0.8,14,0.5c0,1.6,0,3.3,0,4.9c-1.5,0.1-3,0.1-4.5,0.1c0-0.6,0-1.2,0-1.8
			c-1,0-1.9,0-2.9-0.1c0,0.9,0,1.9,0,2.8c1.3,0.1,2.7,0.1,4,0.1c0,0.9,0,1.8,0,2.8c-1.3,0-2.7,0-4-0.1c0,1,0,2.1,0,3.1
			c1,0,1.9,0.1,2.9,0.1c0-0.6,0-1.3,0-1.9c1.6,0,3.2,0,4.8-0.1c0,1.7,0,3.4,0,5c-4.8,0.3-9.5,0.1-14.3-0.5c0-1,0-2.1,0-3.1
			c0.4,0.1,0.9,0.1,1.3,0.2c0-2.9,0-5.8,0-8.7c-0.4,0-0.9-0.1-1.3-0.2C51.8,63.4,51.8,62.3,51.8,61.3z"/>
		<path class="st0" d="M68.2,61.7c2.6-0.2,5.3-0.6,7.9-1.1c0,1,0,2.1,0,3.1c-0.4,0.1-0.8,0.2-1.3,0.2c0,2.9,0,5.8,0,8.7
			c0.8-0.1,1.6-0.3,2.4-0.5c0-0.9,0-1.8,0-2.6c1.7-0.4,3.3-0.8,5-1.2c0,1.9,0,3.8,0,5.8c-4.6,1.3-9.3,2.2-14,2.6c0-1,0-2.1,0-3.1
			c0.4,0,0.8-0.1,1.3-0.1c0-2.9,0-5.8,0-8.7c-0.4,0-0.8,0.1-1.3,0.1C68.2,63.7,68.2,62.7,68.2,61.7z"/>
		<path class="st0" d="M83.7,58.6c3.3-1,6.5-2.2,9.7-3.7c1-0.4,2.1-1,2.9-1c1.7-0.1,1.7,1.4,1.8,2.6c0,2.3,0,4.7,0,7
			c0,0.9,0,1.8-0.5,2.8c-0.8,1.9-2.6,2.8-4.1,3.5c-3.2,1.5-6.5,2.7-9.9,3.7c0-1,0-2.1,0-3.1c0.4-0.1,0.8-0.3,1.2-0.4
			c0-2.9,0-5.8,0-8.7c-0.4,0.1-0.8,0.3-1.2,0.4C83.7,60.7,83.7,59.7,83.7,58.6z M93,58.3c-0.9,0.4-1.9,0.8-2.8,1.2
			c0,2.9,0,5.8,0,8.7c0.9-0.4,1.9-0.8,2.8-1.2C93,64.1,93,61.2,93,58.3z"/>
	</g>
</g>
</svg>
