<svg id="Layer_2" data-name="Layer 2" xmlns="http://www.w3.org/2000/svg" viewBox="0 0 257.33 59.67"><defs><style>.cls-1{fill:#e92128;}.cls-2{fill:#fff;}</style></defs><title>Artboard 1</title><rect class="cls-1" width="257.33" height="59.67"/><path class="cls-2" d="M39.26,41.62V39l2.09-.23c.46-.07.53-.17.53-.66v-17c0-.5-.07-.63-.53-.66l-2.09-.23V17.63h11v2.62l-2.75.27c-.5,0-.53.17-.53.63V38.07h5.9c.36,0,.46,0,.53-.37L54,34.4h3.65v7.22Z"/><path class="cls-2" d="M75,40.33A15.47,15.47,0,0,1,68.16,42c-6.4,0-8.58-4-8.58-9.15,0-6,3.68-8.85,8.22-8.85,4.37,0,7.29,2.29,7.29,8,0,.4,0,1.56-.07,2.22H64.88c.17,2.35,1.19,3.91,3.91,3.91A14.13,14.13,0,0,0,73.73,37Zm-4.77-9.21c0-2.78-1.13-3.51-2.49-3.51s-2.58.8-2.78,3.51Z"/><path class="cls-2" d="M87.75,41.62l-.33-1.79-.17,0A7.48,7.48,0,0,1,81.69,42c-4.18,0-4.84-2.85-4.84-4.9,0-3.31,2.05-4.84,6.2-5.1l3.81-.26V29.92c0-1.56-.17-2.62-2.22-2.62-1.59,0-2.42.23-2.42,2.22l-4.67-.4c0-4.47,4.08-5.1,7.13-5.1,5,0,7.06,1.36,7.06,6v8.05c0,.53,0,.6.53.66l1.59.27v2.62Zm-.9-7.13-2.25.17c-2,.13-2.65.63-2.65,2a1.66,1.66,0,0,0,1.89,1.82,5.45,5.45,0,0,0,3-1.19Z"/><path class="cls-2" d="M95.08,41.62V38.94l1.49-.2c.46-.07.53-.17.53-.66V28.36c0-.36-.1-.6-.43-.7L94.88,27l.36-2.68h5.83l.4,2.65h.2c1.09-1.69,2.55-3,4.67-3a15.38,15.38,0,0,1,2.88.3v6l-4-.13-.33-1.76c-.07-.3-.17-.37-.43-.37a4.39,4.39,0,0,0-2.39,1.16V38c0,.53,0,.63.53.66l3.28.27v2.65Z"/><path class="cls-2" d="M123,41.62V30.92c0-1.59-.1-2.92-1.76-2.92a6.69,6.69,0,0,0-3.45,1.23v8.88c0,.53,0,.6.53.66l1.59.23v2.62h-9.15V39l1.49-.2c.46-.07.53-.17.53-.66V28.36c0-.36-.1-.6-.43-.7L110.56,27l.4-2.68h5.8l.27,1.72.13.07A9.72,9.72,0,0,1,123,24c3.61,0,5,2,5,5.63v8.45c0,.53,0,.6.53.66l1.66.23v2.62Z"/><path class="cls-2" d="M159.12,41.62V30.92c0-1.29-.13-2.85-1.86-2.85a4.9,4.9,0,0,0-2.68.89,12.93,12.93,0,0,1,.1,1.62v7.52c0,.56,0,.63.53.7l1.33.2v2.62h-6.86V30.75c0-1.23-.1-2.68-1.76-2.68a4.61,4.61,0,0,0-2.75,1.06v9c0,.56,0,.56.53.66l1.62.23v2.62h-9.18V39l1.49-.23c.46-.07.53-.17.53-.66V28.36c0-.36-.1-.6-.43-.7L137.94,27l.36-2.68h5.83l.27,1.72.17,0a8.15,8.15,0,0,1,5.3-2.09,4.29,4.29,0,0,1,4,2,8.88,8.88,0,0,1,5.34-2c3.55,0,4.87,1.76,4.87,5.6v8.48c0,.53,0,.63.53.7l1.66.2v2.62Z"/><path class="cls-2" d="M167.64,33.1c0-5.5,2.88-9.08,8.95-9.08s8.52,3.65,8.52,8.72c0,5.63-2.85,9.28-8.95,9.28S167.64,38.31,167.64,33.1Zm12.23-.2c0-3.91-1.19-5.3-3.35-5.3s-3.65,1.36-3.65,5.34,1.29,5.6,3.51,5.6S179.87,37,179.87,32.9Z"/><path class="cls-2" d="M186.77,41.62V38.94l1.49-.2c.46-.07.53-.17.53-.66V28.36c0-.36-.1-.6-.43-.7L186.57,27l.36-2.68h5.83l.4,2.65h.2c1.09-1.69,2.55-3,4.67-3a15.38,15.38,0,0,1,2.88.3v6l-4-.13-.33-1.76c-.07-.3-.17-.37-.43-.37a4.39,4.39,0,0,0-2.39,1.16V38c0,.53,0,.63.53.66l3.28.27v2.65Z"/><path class="cls-2" d="M217.7,40.33A15.47,15.47,0,0,1,210.9,42c-6.4,0-8.58-4-8.58-9.15,0-6,3.68-8.85,8.22-8.85,4.37,0,7.29,2.29,7.29,8,0,.4,0,1.56-.07,2.22H207.62c.17,2.35,1.19,3.91,3.91,3.91A14.13,14.13,0,0,0,216.47,37Zm-4.77-9.21c0-2.78-1.13-3.51-2.49-3.51s-2.58.8-2.78,3.51Z"/></svg>