<svg id="Layer_2" data-name="Layer 2" xmlns="http://www.w3.org/2000/svg" viewBox="0 0 143.4 165.55"><defs><style>.cls-1{fill:#007db9;}.cls-2{fill:#b2d235;}.cls-3{fill:#00bcf1;}.cls-4{fill:#ec1c24;}.cls-5{fill:#fff;}</style></defs><title>Artboard 1</title><polygon class="cls-1" points="30.64 72.71 114.6 72.71 114.59 72.69 58.55 58.72 30.64 72.71"/><polygon class="cls-2" points="41.22 54.4 30.64 72.71 58.55 58.72 41.22 54.4"/><polygon class="cls-3" points="58.55 58.72 114.59 72.69 95.76 40.07 58.55 58.72"/><polygon class="cls-4" points="72.62 0 43.44 50.54 93.51 36.18 72.62 0"/><path class="cls-5" d="M25.79,93.17l-.76,5a16.11,16.11,0,0,0-9.72-3.46C8.53,94.73,5,99.85,5,107.25s3.65,12.52,10.24,12.52a18,18,0,0,0,7.21-1.56V110H15l-.71-4.46H27.26V121c-.43.38-4.5,3.08-11.61,3.08C6.87,124.08,0,118.53,0,107.25,0,96.68,6.26,90.42,15.45,90.42,21.95,90.42,24.79,92.46,25.79,93.17Zm9.73,19.72c0,2.42.95,7.21,6.4,7.21A12.74,12.74,0,0,0,50,116.87l.66,4.08a13.52,13.52,0,0,1-9.24,3.13c-6.26,0-10.52-4.22-10.52-11.9,0-8,4.79-11.85,10.1-11.85,6.78,0,9.72,5.55,9.72,11.43v1.14Zm10.43-3.6c-.28-1.52-.9-5.21-5-5.21-3.32,0-4.79,2.94-5.17,5.21Zm17.8,14.79c-5.88,0-10.57-3.79-10.57-11.85S58,100.38,63.75,100.38c6.07,0,10.52,4.17,10.52,11.85C74.27,120.1,69.53,124.08,63.75,124.08Zm0-3.93c3.56,0,5.88-3.37,5.88-7.92s-2.28-7.92-5.88-7.92c-4,0-5.88,3.79-5.88,7.92C57.87,116.64,60,120.14,63.75,120.14Zm18.52-15.27a9.69,9.69,0,0,1,7.87-4.5l.66,4.17c-3.6,0-6.12,1.47-8.3,5V123.6H77.86V100.8H81.7Zm30.9-.19-4.12.43a6.12,6.12,0,0,1,.71,3.22c0,3.51-2.61,7.92-8.72,7.92a8,8,0,0,1-1.71-.14c-.24.09-.9.62-.9,1.14s.81.71,1.61.85,3.46.71,5,.95c4.36.66,7.4,2.37,7.4,5.93,0,4.55-4.79,7.11-10.76,7.11-8.39,0-11-3-11-6,0-3.37,3.65-5.26,4.55-5.74A2.91,2.91,0,0,1,93.91,118c0-1.56,1.52-2.61,2.09-3a7.52,7.52,0,0,1-3.93-6.68c0-4,3.18-8,8.77-8a9.15,9.15,0,0,1,5.83,1.85l5.83-1.8ZM98.66,121.9c-1.71.76-3.65,2.23-3.65,3.84s1.94,2.89,6.59,2.89c3.46,0,6.4-1.09,6.4-3.18,0-1.8-2.51-2.28-4.6-2.65C101.59,122.47,98.66,121.9,98.66,121.9Zm2.28-18.06a4.32,4.32,0,0,0-4.36,4.5,4.16,4.16,0,0,0,4.36,4.5,4.51,4.51,0,0,0,0-9Zm20.84-9.91a2.89,2.89,0,0,1-2.89,2.84,2.87,2.87,0,1,1,0-5.74A2.9,2.9,0,0,1,121.77,93.93Zm-.57,6.87h-4.65v22.8h4.65V100.8Zm18.12,22.8-.19-2.8a8.36,8.36,0,0,1-6.78,3.27c-4.27,0-7.68-2.23-7.68-7.11,0-6.83,9.24-7.77,14.08-8.3V108c0-1.66-.66-3.65-4.46-3.65a18.37,18.37,0,0,0-7.49,2.09l-.62-4.08a21.36,21.36,0,0,1,8.44-1.94c6.78,0,8.77,3.08,8.77,8.06V123.6Zm-.57-11.28c-5.21.52-9.53,1.61-9.53,4.79,0,2,1.42,3,3.51,3,3.13,0,5.5-2.47,6-3ZM39.92,142.61c0,6.5-4.84,10.24-11,10.24H22.66v12.23H17.78V132.37H28.87C36.17,132.37,39.92,137.11,39.92,142.61Zm-17.26,5.93h5.21c4.88,0,7-2.56,7-5.93s-2.23-5.93-7-5.93H22.66Zm27.53,17c-5.88,0-10.57-3.79-10.57-11.85s4.79-11.85,10.57-11.85c6.07,0,10.52,4.17,10.52,11.85C60.72,161.57,56,165.55,50.2,165.55Zm0-3.93c3.56,0,5.88-3.37,5.88-7.92s-2.28-7.92-5.88-7.92c-4,0-5.88,3.79-5.88,7.92C44.32,158.11,46.45,161.62,50.2,161.62Zm42.56-19.34-7.21,22.8H81.76L77,149.29l-4.74,15.79H68.44l-7.25-22.8h4.69l4.65,15.64,4.74-15.64h3.84l4.74,15.64,4.65-15.64Zm5.16,12.09c0,2.42.95,7.21,6.4,7.21a12.75,12.75,0,0,0,8.06-3.22l.66,4.08a13.52,13.52,0,0,1-9.24,3.13c-6.26,0-10.52-4.22-10.52-11.9,0-8,4.79-11.85,10.1-11.85,6.78,0,9.72,5.55,9.72,11.43v1.14Zm10.43-3.6c-.28-1.52-.9-5.21-5-5.21-3.32,0-4.79,2.94-5.17,5.21Zm13.25-4.41a9.69,9.69,0,0,1,7.87-4.5l.66,4.17c-3.6,0-6.12,1.47-8.3,5v14.08h-4.65v-22.8H121Z"/></svg>