<svg id="Layer_2" data-name="Layer 2" xmlns="http://www.w3.org/2000/svg" viewBox="0 0 583.35 60.88"><defs><style>.cls-1{fill:#fff;}</style></defs><title>Artboard 1</title><path class="cls-1" d="M0,24.35C0,10.93,7.45,1.12,21.43,1.12s20.25,9.81,20.25,22.3c0,14.66-7.14,24.23-21.12,24.23C6.4,47.65,0,37.83,0,24.35ZM37.4,24c0-12.42-6.27-19.26-16.09-19.26s-17,6.9-17,19.57S10.87,44,20.81,44,37.4,37.4,37.4,24Z"/><path class="cls-1" d="M74.17,46.9l-.56-4.53-.12-.06c-2.8,2.55-6.71,5.34-12.24,5.34-7,0-8.94-4.35-8.94-11.43v-16c0-1-.06-1.3-1-1.49L48,17.77l.44-2.61h8V35.1c0,6.09,1.12,9,5.59,9,4.78,0,8.82-3.42,11.37-6.4V20.13c0-1-.06-1.24-1-1.43l-3.35-.93.43-2.61h8.08V42.43c0,.93.19,1.24.81,1.3l3.42.44V46.9Z"/><path class="cls-1" d="M107.15,45.91a21.68,21.68,0,0,1-8,1.74c-5.4,0-8-2.73-8-7.7V19.26c0-.37,0-.62-.5-.62H86v-2.8c4.6-.62,5.65-2.24,6.46-8.39h2.8v7.08c0,.37,0,.62.5.62H105v3.48H95.29V38.39c0,4,1.12,5.53,4.72,5.53a17.32,17.32,0,0,0,6-1.24Z"/><path class="cls-1" d="M133.86,46.9l-.5-4.22-.19-.06c-3,2.8-6.21,5-11.18,5-7,0-11.62-4.53-11.62-15.84,0-12.11,5.22-17.27,12.92-17.27a17.16,17.16,0,0,1,9.75,3V5a1.17,1.17,0,0,0-.81-1.24l-3.79-1.18L129,0h8.26V42.49c0,1,.06,1.12,1,1.24l3.23.44V46.9Zm-.81-24.79a14.77,14.77,0,0,0-9.69-4c-6.34,0-8.88,5.4-8.88,13.54,0,9.69,3.6,12.3,8.08,12.3,4.29,0,7.64-2.49,10.5-5.84Z"/><path class="cls-1" d="M167.84,46.9l-.56-4.16-.19-.06c-3.29,3-6.77,5-11.49,5-7.77,0-8.63-5.34-8.63-8.26,0-6.21,3.85-8.82,11.18-9.5l8.88-.81V25.59c0-5.22-1.06-7.52-7.08-7.52-4.16,0-7.33,0-7.39,5l-4-.5c0-7.33,6.83-8.08,11.43-8.08,8.51,0,11.18,2.48,11.18,10.93v17c0,1,.06,1.12,1,1.24l3.23.44V46.9ZM167,32.36l-8.14.75c-6,.56-7.58,2.3-7.58,5.78,0,3.73,1.86,5.28,5.09,5.28,4.29,0,8.32-2.8,10.62-5.84Z"/><path class="cls-1" d="M199.34,45.91a21.68,21.68,0,0,1-8,1.74c-5.4,0-8-2.73-8-7.7V19.26c0-.37,0-.62-.5-.62h-4.6v-2.8c4.6-.62,5.65-2.24,6.46-8.39h2.8v7.08c0,.37,0,.62.5.62h9.26v3.48h-9.75V38.39c0,4,1.12,5.53,4.72,5.53a17.32,17.32,0,0,0,6-1.24Z"/><path class="cls-1" d="M227,45a21.06,21.06,0,0,1-10.68,2.61c-11,0-14.47-7.39-14.47-16.77,0-11.12,6.09-16.34,13.67-16.34,7.33,0,12.49,4,12.49,14.66,0,.87-.06,1.74-.12,2.67H206.17c.19,7.08,2.92,12,10.44,12a15.85,15.85,0,0,0,8.82-2.3Zm-3.29-16.52c-.12-7.7-3.79-10.31-8.14-10.31-4.72,0-8.7,2.61-9.26,10.31Z"/><path class="cls-1" d="M257.17,46.9l-.5-4.22-.19-.06c-3,2.8-6.21,5-11.18,5-7,0-11.62-4.53-11.62-15.84,0-12.11,5.22-17.27,12.92-17.27a17.16,17.16,0,0,1,9.75,3V5a1.17,1.17,0,0,0-.81-1.24l-3.79-1.18.5-2.61h8.26V42.49c0,1,.06,1.12,1,1.24l3.23.44V46.9Zm-.81-24.79a14.77,14.77,0,0,0-9.69-4c-6.34,0-8.88,5.4-8.88,13.54,0,9.69,3.6,12.3,8.08,12.3,4.29,0,7.64-2.49,10.5-5.84Z"/><path class="cls-1" d="M283.44,46.9v-2.8l4.16-.37c.87-.06,1-.31,1-1.24V5.09c0-.68-.19-1.12-.81-1.3L284,2.61,284.5,0h8.26V42.49c0,1,.06,1.12,1,1.24l4,.44V46.9Z"/><path class="cls-1" d="M301.08,46.9v-2.8l4.47-.37c.87-.12,1-.31,1-1.24V20.25c0-.68-.19-1.12-.81-1.3l-3.6-1.18.5-2.61h8.08V42.49c0,1,.06,1.12,1,1.24l4.35.44V46.9Zm6.71-39.45a3,3,0,0,1-3.35-3.29,3.35,3.35,0,0,1,6.71,0A3,3,0,0,1,307.79,7.45Z"/><path class="cls-1" d="M343.88,19a9.81,9.81,0,0,1,2.3,6.58c0,7.52-5.53,11.62-12.8,11.62a14.67,14.67,0,0,1-5.4-.87l-2.92,5.84,11,.81C345,43.61,349,44.6,349,51.19c0,5.9-5,9.69-15.78,9.69-10.5,0-14-2.92-14-7.64,0-3.17,1.68-5.28,4.22-7.7-2-.43-2.92-1.18-2.92-2.8a5.68,5.68,0,0,1,1.24-3l3-4.78c-2.55-1.55-4.35-4.6-4.35-8.7,0-7,5.09-11.68,13.11-11.68a20.67,20.67,0,0,1,5.34.62h10.81v3.42ZM327.42,46.22c-1.68,1.49-3.85,3.73-3.85,6.27,0,3.67,4.1,4.6,10.87,4.6a28.45,28.45,0,0,0,3.42-.25c4.16-.62,6.65-2.42,6.65-5.59s-2.48-4.16-6.9-4.41ZM333.57,18c-5.28,0-8.94,2.61-8.94,8,0,4.22,2.36,7.7,8.76,7.7,5.34,0,8.7-3.23,8.7-7.83C342.08,20.81,339,18,333.57,18Z"/><path class="cls-1" d="M374.44,46.9v-2.8l3.23-.37c.87-.12,1-.25,1-1.18V27.39c0-6.21-1.86-9.07-6.34-9.07s-8.94,2.92-10.81,4.66V42.49c0,1,.06,1.12,1,1.24l3.73.44V46.9H353.14v-2.8l3.23-.37c.87-.12,1-.31,1-1.24V5.09c0-.68-.19-1.12-.81-1.3l-3.79-1.18.5-2.61h8.26V18.88c3.29-2.42,6.71-4.35,11.55-4.35,6.46,0,9.75,3.35,9.75,11.8V42.49c0,1,.06,1.12,1,1.24l3.73.44V46.9Z"/><path class="cls-1" d="M412.09,45.91a21.68,21.68,0,0,1-8,1.74c-5.4,0-8-2.73-8-7.7V19.26c0-.37,0-.62-.5-.62H391v-2.8c4.6-.62,5.65-2.24,6.46-8.39h2.8v7.08c0,.37,0,.62.5.62H410v3.48h-9.75V38.39c0,4,1.12,5.53,4.72,5.53a17.32,17.32,0,0,0,6-1.24Z"/><path class="cls-1" d="M434,46.9a69,69,0,0,0,.68-8.82v-33c0-.68-.19-1.12-.81-1.3L430.1,2.61,430.6,0h8.26V18.33c3-1.8,6.59-3.79,11.06-3.79,7,0,11.62,4.53,11.62,15.22,0,12.8-5.22,17.89-13,17.89a14.06,14.06,0,0,1-9.88-3.73l-.12.06-.31,2.92Zm4.85-7.45c2.3,2.42,5.84,4.6,9.26,4.6,6.9,0,9.32-5.28,9.32-13.79,0-9.32-3.67-12.05-8.2-12.05-4.16,0-8,2.24-10.37,4Z"/><path class="cls-1" d="M493.52,46.9,493,42.37l-.12-.06c-2.8,2.55-6.71,5.34-12.24,5.34-7,0-8.94-4.35-8.94-11.43v-16c0-1-.06-1.3-1-1.49l-3.29-.93.43-2.61h8V35.1c0,6.09,1.12,9,5.59,9,4.78,0,8.82-3.42,11.37-6.4V20.13c0-1-.06-1.24-1-1.43l-3.35-.93.43-2.61h8.08V42.43c0,.93.19,1.24.81,1.3l3.42.44V46.9Z"/><path class="cls-1" d="M505.57,46.9v-2.8l4.16-.37c.87-.06,1-.31,1-1.24V5.09c0-.68-.19-1.12-.81-1.3l-3.79-1.18.5-2.61h8.26V42.49c0,1,.06,1.12,1,1.24l4,.44V46.9Z"/><path class="cls-1" d="M527.25,46.9a68.78,68.78,0,0,0,.68-8.82v-33c0-.68-.19-1.12-.81-1.3l-3.79-1.18.5-2.61h8.26V18.33c3-1.8,6.58-3.79,11.06-3.79,7,0,11.62,4.53,11.62,15.22,0,12.8-5.22,17.89-13,17.89a14.06,14.06,0,0,1-9.88-3.73l-.12.06-.31,2.92Zm4.85-7.45c2.3,2.42,5.84,4.6,9.26,4.6,6.9,0,9.32-5.28,9.32-13.79,0-9.32-3.67-12.05-8.2-12.05-4.16,0-8,2.24-10.37,4Z"/><path class="cls-1" d="M579.25,23.67l-.75-4.1a.83.83,0,0,0-.68-.81,17.45,17.45,0,0,0-5.16-.75c-5.16,0-7.27,2.36-7.27,5.28,0,3.91,3.79,4.85,7.89,5.9,4.78,1.24,10.06,2.67,10.06,9.19,0,7-6,9.26-12,9.26a29.8,29.8,0,0,1-10.87-2V38l3.17.19.75,4.1a.83.83,0,0,0,.68.81,19.86,19.86,0,0,0,6.71,1.12c4.54,0,7.52-1.68,7.52-5.4,0-4-3.6-5-7.58-6-4.91-1.18-10.31-2.36-10.31-8.95,0-6.83,5.78-9.26,11.86-9.26a25.67,25.67,0,0,1,9.13,1.68v7.64Z"/></svg>