<svg id="Layer_1" data-name="Layer 1" xmlns="http://www.w3.org/2000/svg" viewBox="0 0 252.85 38.54"><defs><style>.cls-1{fill:#fff;}</style></defs><title>Artboard 1</title><path class="cls-1" d="M8,19.2v2.35H4.67V19.38a13.14,13.14,0,0,1-4.67-1V14.13H2.92L3.27,16c.08.38.16.49.51.59a6.41,6.41,0,0,0,2,.25c1.8,0,2.71-.67,2.71-1.91,0-3.46-8.31-1.28-8.31-7.34,0-2.9,1.9-4.51,4.51-5V.46H8v2a15.06,15.06,0,0,1,3.83.78V7.77L8.9,7.48,8.58,5.71c-.08-.4-.19-.48-.54-.59A6.62,6.62,0,0,0,6.51,5C5,5,3.86,5.52,3.86,6.78c0,3.27,8.31,1.37,8.31,7.4A4.81,4.81,0,0,1,8,19.2Z"/><path class="cls-1" d="M22.24,14l-.65,6.3a10.76,10.76,0,0,1,5.85-1.57c5.38,0,8.87,3.13,8.87,9.39,0,5.65-3.91,10.39-11.31,10.39-5.06,0-9.15-1.61-11.59-4.23l3.68-4.19a9.81,9.81,0,0,0,7.31,3.13c2.76,0,5-1.61,5-4.87,0-3.78-2.53-4.46-4.28-4.46a6,6,0,0,0-4.42,2L16.12,24l1-15.78h12c.41,0,.5-.23.59-.55l.6-2.53,4.1-.27V14Z"/><path class="cls-1" d="M39.62,21.39c0-8.33,3.31-13.85,12.42-13.85S63.81,13,63.81,21c0,8.6-3.13,14.25-12.32,14.25S39.62,29.66,39.62,21.39Zm16.83-.1c0-6.3-1.15-8.73-4.55-8.73S47,15,47,21.48c0,6.21,1.15,8.87,4.74,8.87C55.17,30.35,56.45,27.73,56.45,21.29Z"/><path class="cls-1" d="M67.3,21.39c0-8.33,3.31-13.85,12.42-13.85S91.49,13,91.49,21c0,8.6-3.12,14.25-12.32,14.25S67.3,29.66,67.3,21.39Zm16.84-.1c0-6.3-1.15-8.73-4.56-8.73S74.71,15,74.71,21.48c0,6.21,1.15,8.87,4.73,8.87C82.85,30.35,84.14,27.73,84.14,21.29Z"/><path class="cls-1" d="M103.72,34.72V31l2.07-.28c.65-.09.74-.23.74-.92V16.33c0-.51-.14-.83-.6-1l-2.48-.87.5-3.73h8.1l.55,3.68h.27c1.52-2.34,3.55-4.14,6.49-4.14a21.35,21.35,0,0,1,4,.42v8.37l-5.52-.19-.46-2.44c-.09-.41-.23-.5-.6-.5a6.09,6.09,0,0,0-3.31,1.61V29.76c0,.73,0,.87.74.92l4.55.36v3.68Z"/><path class="cls-1" d="M146.63,32.93a21.48,21.48,0,0,1-9.43,2.34c-8.88,0-11.91-5.51-11.91-12.69,0-8.32,5.1-12.28,11.41-12.28,6.07,0,10.11,3.18,10.11,11.13,0,.55,0,2.16-.09,3.08H132.65c.23,3.27,1.65,5.43,5.42,5.43a19.58,19.58,0,0,0,6.86-1.56ZM140,20.14c0-3.86-1.57-4.87-3.45-4.87s-3.59,1.1-3.87,4.87Z"/><path class="cls-1" d="M150.58,34.72a45.09,45.09,0,0,0,.69-6.71V5.56c0-.5-.14-.82-.6-1l-2.53-.87L148.65,0h9.47V12.74l.19,0a10.44,10.44,0,0,1,6.94-2.49c5,0,8.88,3.22,8.88,11.78,0,9.47-4,13.19-9.66,13.19a8.88,8.88,0,0,1-6.76-2.89l-.23,0-.32,2.3Zm7.59-6.62a6.55,6.55,0,0,0,4.23,1.79c3,0,4.46-2.85,4.46-7.45,0-3.58-1.15-6.71-4.23-6.71a8.64,8.64,0,0,0-4.46,1.61Z"/><path class="cls-1" d="M191.69,34.72l-.46-2.48-.23-.05a10.31,10.31,0,0,1-7.72,3.08c-5.8,0-6.72-4-6.72-6.8,0-4.6,2.85-6.72,8.6-7.08l5.29-.37V18.49c0-2.16-.23-3.64-3.08-3.64-2.21,0-3.36.33-3.36,3.09l-6.48-.56c0-6.2,5.66-7.08,9.89-7.08,7,0,9.79,1.89,9.79,8.33V29.8c0,.74,0,.83.74.92l2.21.37v3.63Zm-1.24-9.89-3.13.23c-2.71.19-3.67.88-3.67,2.72a2.3,2.3,0,0,0,2.62,2.53,7.58,7.58,0,0,0,4.18-1.66Z"/><path class="cls-1" d="M219.19,33.44a18.45,18.45,0,0,1-7.49,1.83c-5.48,0-7.55-2.2-7.55-7.4v-12c0-.28,0-.46-.36-.46h-3.22V11.27c4-.46,5.65-2.49,6.16-7.5h4.37V10.3c0,.32,0,.46.37.46H218v4.6H211.1v11c0,2.72.64,3.77,3.13,3.77a11,11,0,0,0,3.72-.73Z"/><path class="cls-1" d="M241.36,32.93a21.48,21.48,0,0,1-9.43,2.34c-8.88,0-11.91-5.51-11.91-12.69,0-8.32,5.1-12.28,11.4-12.28,6.07,0,10.12,3.18,10.12,11.13,0,.55,0,2.16-.09,3.08H227.38c.23,3.27,1.65,5.43,5.42,5.43a19.58,19.58,0,0,0,6.86-1.56Zm-6.62-12.79c-.05-3.86-1.57-4.87-3.45-4.87s-3.59,1.1-3.87,4.87Z"/><path class="cls-1" d="M248.94,35.27c-2.66,0-3.95-1.19-3.95-3.58s1.29-3.59,3.95-3.59,3.91,1.24,3.91,3.59S251.56,35.27,248.94,35.27Z"/></svg>