<svg id="Layer_2" data-name="Layer 2" xmlns="http://www.w3.org/2000/svg" viewBox="0 0 426.89 60.95"><defs><style>.cls-1{fill:#fff;}</style></defs><title>Artboard 1</title><path class="cls-1" d="M0,47V44.22l3.92-.44c.87-.12,1-.31,1-1.24V6.41c0-.93-.12-1.18-1-1.24L0,4.73V1.93H17.6c10.64,0,13.5,4.85,13.5,11a10.59,10.59,0,0,1-7.59,10.45v.19c7.09.81,10.57,5,10.57,11.26C34.08,44,27.3,47,17.54,47ZM15.67,22.14c5.1,0,11.07-1.62,11.07-8.77,0-6-3.17-7.84-10.14-7.84H9V22.14Zm1.55,21.15c7,0,12.5-1.06,12.5-8.58,0-6.41-4.85-9-11.13-9H9V43.29Z"/><path class="cls-1" d="M64.13,47l-.56-4.54-.12-.06c-2.8,2.55-6.72,5.35-12.25,5.35-7,0-9-4.35-9-11.44v-16c0-1-.06-1.31-1-1.49l-3.3-.93.44-2.61h8v20c0,6.09,1.12,9,5.6,9,4.79,0,8.83-3.42,11.38-6.41V20.15c0-1-.06-1.24-1-1.43L59,17.79l.44-2.61h8.09v27.3c0,.93.19,1.24.81,1.31l3.42.44V47Z"/><path class="cls-1" d="M97.16,46a21.69,21.69,0,0,1-8,1.74c-5.41,0-8-2.74-8-7.71V19.28c0-.37,0-.62-.5-.62H76v-2.8c4.6-.62,5.66-2.24,6.47-8.4h2.8v7.09c0,.37,0,.62.5.62H95v3.48H85.28V38.44c0,4,1.12,5.54,4.73,5.54a17.34,17.34,0,0,0,6-1.24Z"/><path class="cls-1" d="M137.65,47v-2.8l3.23-.37c.87-.12,1-.25,1-1.18V27.68c0-6.41-1.74-9.33-6.34-9.33s-9,2.92-10.82,4.67V42.54c0,1,.06,1.12,1,1.24l3.73.44V47H116.32v-2.8l3.23-.37c.87-.12,1-.31,1-1.24V20.28c0-.68-.19-1.12-.81-1.31l-3.61-1.18.5-2.61h7l.5,3.86.19.06c3.11-2.3,7.09-4.54,12.07-4.54,7.28,0,9.64,4.6,9.64,11.82V42.54c0,1,.06,1.12,1,1.24l3.73.44V47Z"/><path class="cls-1" d="M176.71,47l-.56-4.17-.19-.06c-3.3,3-6.78,5-11.51,5-7.77,0-8.65-5.35-8.65-8.27,0-6.22,3.86-8.83,11.2-9.52l8.89-.81V25.62c0-5.22-1.06-7.53-7.09-7.53-4.17,0-7.34,0-7.4,5l-4-.5c0-7.34,6.84-8.08,11.44-8.08,8.52,0,11.19,2.49,11.19,10.95v17c0,1,.06,1.12,1,1.24l3.23.44V47ZM175.9,32.4l-8.15.75c-6,.56-7.59,2.3-7.59,5.78,0,3.73,1.87,5.29,5.1,5.29,4.29,0,8.33-2.8,10.64-5.85Z"/><path class="cls-1" d="M208.25,46a21.69,21.69,0,0,1-8,1.74c-5.41,0-8-2.74-8-7.71V19.28c0-.37,0-.62-.5-.62h-4.6v-2.8c4.6-.62,5.66-2.24,6.47-8.4h2.8v7.09c0,.37,0,.62.5.62h9.27v3.48h-9.76V38.44c0,4,1.12,5.54,4.73,5.54a17.34,17.34,0,0,0,6-1.24Z"/><path class="cls-1" d="M236.74,47l-.56-4.54-.12-.06c-2.8,2.55-6.72,5.35-12.25,5.35-7,0-9-4.35-9-11.44v-16c0-1-.06-1.31-1-1.49l-3.3-.93.44-2.61h8v20c0,6.09,1.12,9,5.6,9,4.79,0,8.83-3.42,11.38-6.41V20.15c0-1-.06-1.24-1-1.43l-3.36-.93.44-2.61h8.09v27.3c0,.93.19,1.24.81,1.31l3.42.44V47Z"/><path class="cls-1" d="M249.74,47v-2.8l3.23-.37c.87-.12,1-.31,1-1.24V20.28c0-.68-.19-1.12-.81-1.31l-3.61-1.18.5-2.61h7.09l.56,4c2.05-1.93,5.29-4.6,9.64-4.6a16.37,16.37,0,0,1,4.1.56v8.65l-3.17-.19-.81-4.73c-.06-.44-.12-.56-.75-.56-3.3,0-7,3-8.58,4.6V42.54c0,1,.06,1.12,1,1.24l5.6.44V47Z"/><path class="cls-1" d="M295.21,47l-.56-4.17-.19-.06c-3.3,3-6.78,5-11.51,5-7.77,0-8.65-5.35-8.65-8.27,0-6.22,3.86-8.83,11.2-9.52l8.89-.81V25.62c0-5.22-1.06-7.53-7.09-7.53-4.17,0-7.34,0-7.4,5l-4-.5c0-7.34,6.84-8.08,11.44-8.08,8.52,0,11.19,2.49,11.19,10.95v17c0,1,.06,1.12,1,1.24l3.23.44V47ZM294.4,32.4l-8.15.75c-6,.56-7.59,2.3-7.59,5.78,0,3.73,1.87,5.29,5.1,5.29,4.29,0,8.33-2.8,10.64-5.85Z"/><path class="cls-1" d="M306.41,47v-2.8l4.17-.37c.87-.06,1-.31,1-1.24V5.1c0-.68-.19-1.12-.81-1.31L307,2.61l.5-2.61h8.27V42.54c0,1,.06,1.12,1,1.24l4,.44V47Z"/><path class="cls-1" d="M363.57,19a9.81,9.81,0,0,1,2.3,6.59c0,7.53-5.54,11.63-12.81,11.63a14.69,14.69,0,0,1-5.41-.87l-2.92,5.85,11,.81c9,.62,12.94,1.62,12.94,8.21,0,5.91-5,9.7-15.8,9.7-10.51,0-14.06-2.92-14.06-7.65,0-3.17,1.68-5.29,4.23-7.71-2-.44-2.92-1.18-2.92-2.8a5.68,5.68,0,0,1,1.24-3l3-4.79c-2.55-1.56-4.35-4.6-4.35-8.71,0-7,5.1-11.69,13.12-11.69a20.69,20.69,0,0,1,5.35.62h10.82V18.6ZM347.09,46.27c-1.68,1.49-3.86,3.73-3.86,6.28,0,3.67,4.1,4.6,10.88,4.6a28.45,28.45,0,0,0,3.42-.25c4.17-.62,6.65-2.43,6.65-5.6s-2.49-4.17-6.9-4.42ZM353.24,18c-5.29,0-9,2.61-9,8,0,4.23,2.36,7.71,8.77,7.71,5.35,0,8.71-3.23,8.71-7.84C361.76,20.84,358.72,18,353.24,18Z"/><path class="cls-1" d="M392.37,47l-.56-4.17-.19-.06c-3.3,3-6.78,5-11.51,5-7.77,0-8.65-5.35-8.65-8.27,0-6.22,3.86-8.83,11.2-9.52l8.89-.81V25.62c0-5.22-1.06-7.53-7.09-7.53-4.17,0-7.34,0-7.4,5l-4-.5c0-7.34,6.84-8.08,11.44-8.08,8.52,0,11.19,2.49,11.19,10.95v17c0,1,.06,1.12,1,1.24l3.23.44V47Zm-.81-14.55-8.15.75c-6,.56-7.59,2.3-7.59,5.78,0,3.73,1.87,5.29,5.1,5.29,4.29,0,8.33-2.8,10.64-5.85Z"/><path class="cls-1" d="M422.78,23.7l-.75-4.1a.83.83,0,0,0-.68-.81,17.47,17.47,0,0,0-5.16-.75c-5.16,0-7.28,2.36-7.28,5.29,0,3.92,3.79,4.85,7.9,5.91,4.79,1.24,10.08,2.67,10.08,9.21,0,7-6,9.27-12,9.27A29.84,29.84,0,0,1,404,45.65V38l3.17.19.75,4.1a.83.83,0,0,0,.68.81,19.88,19.88,0,0,0,6.72,1.12c4.54,0,7.53-1.68,7.53-5.41,0-4-3.61-5-7.59-6-4.91-1.18-10.32-2.36-10.32-9,0-6.84,5.78-9.27,11.88-9.27A25.71,25.71,0,0,1,426,16.23v7.65Z"/></svg>