<svg id="Layer_2" data-name="Layer 2" xmlns="http://www.w3.org/2000/svg" viewBox="0 0 593.34 60.83"><defs><style>.cls-1{fill:#fff;}</style></defs><title>Artboard 1</title><path class="cls-1" d="M0,47.64v-2.8l4.17-.37c.87-.06,1-.31,1-1.24V20c0-.37,0-.62-.5-.62H.06V15.86h5.1V10.57C5.16,3.73,8.4,0,15.8,0c4.79,0,8.58,1.18,8.58,6.84l-3.92.56c0-3.36-1.68-3.86-4.85-3.86-5.16,0-6.28,2.67-6.28,7.21v4.48c0,.44,0,.62.5.62H20.21v3.48H9.33V43.16c0,1,.06,1.18,1,1.24l7.15.5v2.74Z"/><path class="cls-1" d="M50.82,47.64l-.56-4.54L50.13,43c-2.8,2.55-6.72,5.35-12.25,5.35-7,0-9-4.35-9-11.44v-16c0-1-.06-1.31-1-1.49l-3.3-.93.44-2.61h8v20c0,6.1,1.12,9,5.6,9,4.79,0,8.83-3.42,11.38-6.41V20.84c0-1-.06-1.24-1-1.43l-3.36-.93.44-2.61h8.09v27.3c0,.93.19,1.24.81,1.31l3.42.44v2.74Z"/><path class="cls-1" d="M63.82,47.64v-2.8l3.23-.37c.87-.12,1-.31,1-1.24V21c0-.68-.19-1.12-.81-1.31l-3.61-1.18.5-2.61h7.09l.56,4c2.05-1.93,5.29-4.6,9.64-4.6a16.39,16.39,0,0,1,4.1.56v8.65l-3.17-.19-.81-4.73c-.06-.44-.12-.56-.75-.56-3.3,0-7,3-8.58,4.6V43.23c0,1,.06,1.12,1,1.24l5.6.44v2.74Z"/><path class="cls-1" d="M111.09,47.64v-2.8l3.23-.37c.87-.12,1-.25,1-1.18V28.36C115.32,22,113.58,19,109,19S100,22,98.15,23.7V43.23c0,1,.06,1.12,1,1.24l3.73.44v2.74H89.76v-2.8L93,44.47c.87-.12,1-.31,1-1.24V21c0-.68-.19-1.12-.81-1.31l-3.61-1.18.5-2.61h7l.5,3.86.19.06c3.11-2.3,7.09-4.54,12.07-4.54,7.28,0,9.64,4.6,9.64,11.82V43.23c0,1,.06,1.12,1,1.24l3.73.44v2.74Z"/><path class="cls-1" d="M150.15,47.64l-.56-4.17-.19-.06c-3.3,3-6.78,5-11.51,5-7.77,0-8.65-5.35-8.65-8.27,0-6.22,3.86-8.83,11.2-9.52l8.89-.81V26.31c0-5.22-1.06-7.53-7.09-7.53-4.17,0-7.34,0-7.4,5l-4-.5c0-7.34,6.84-8.08,11.44-8.08,8.52,0,11.19,2.49,11.19,10.95v17c0,1,.06,1.12,1,1.24l3.23.44v2.74Zm-.81-14.55-8.15.75c-6,.56-7.59,2.3-7.59,5.78,0,3.73,1.87,5.29,5.1,5.29,4.29,0,8.33-2.8,10.64-5.85Z"/><path class="cls-1" d="M187,46c-2.18,1.43-6.28,2.43-10.2,2.43-10.39,0-14.74-6.72-14.74-16.29,0-11.88,6.72-16.85,16-16.85a23,23,0,0,1,8.83,1.68v7.65l-3.17-.19-.75-4.1a.83.83,0,0,0-.68-.81,16.62,16.62,0,0,0-4.73-.62c-6.22,0-11.13,3.54-11.13,13.06,0,9,4.29,12.75,10.95,12.75a15.22,15.22,0,0,0,8-2.18Z"/><path class="cls-1" d="M216.27,45.77a21.08,21.08,0,0,1-10.7,2.61c-11,0-14.49-7.4-14.49-16.79,0-11.13,6.1-16.36,13.68-16.36,7.34,0,12.5,4,12.5,14.68,0,.87-.06,1.74-.12,2.67H195.44c.19,7.09,2.92,12,10.45,12a15.87,15.87,0,0,0,8.83-2.3ZM213,29.23c-.12-7.71-3.79-10.32-8.15-10.32-4.73,0-8.71,2.61-9.27,10.32Z"/><path class="cls-1" d="M241,24.38l-.75-4.1a.83.83,0,0,0-.68-.81,17.45,17.45,0,0,0-5.16-.75c-5.16,0-7.28,2.36-7.28,5.29,0,3.92,3.79,4.85,7.9,5.91,4.79,1.24,10.08,2.67,10.08,9.21,0,7-6,9.27-12,9.27a29.87,29.87,0,0,1-10.88-2.05V38.69l3.17.19.75,4.1a.83.83,0,0,0,.68.81,19.86,19.86,0,0,0,6.72,1.12c4.54,0,7.53-1.68,7.53-5.41,0-4-3.61-5-7.59-6-4.91-1.18-10.32-2.36-10.32-9,0-6.84,5.78-9.27,11.88-9.27a25.73,25.73,0,0,1,9.14,1.68v7.65Z"/><path class="cls-1" d="M289.73,46c-2.18,1.43-6.28,2.43-10.2,2.43-10.39,0-14.74-6.72-14.74-16.29,0-11.88,6.72-16.85,16-16.85a23,23,0,0,1,8.83,1.68v7.65l-3.17-.19-.75-4.1a.83.83,0,0,0-.68-.81,16.62,16.62,0,0,0-4.73-.62c-6.22,0-11.13,3.54-11.13,13.06,0,9,4.29,12.75,10.95,12.75a15.22,15.22,0,0,0,8-2.18Z"/><path class="cls-1" d="M315.36,47.64l-.56-4.17-.19-.06c-3.3,3-6.78,5-11.51,5-7.77,0-8.65-5.35-8.65-8.27,0-6.22,3.86-8.83,11.2-9.52l8.89-.81V26.31c0-5.22-1.06-7.53-7.09-7.53-4.17,0-7.34,0-7.4,5l-4-.5c0-7.34,6.84-8.08,11.44-8.08,8.52,0,11.19,2.49,11.19,10.95v17c0,1,.06,1.12,1,1.24l3.23.44v2.74Zm-.81-14.55-8.15.75c-6,.56-7.59,2.3-7.59,5.78,0,3.73,1.87,5.29,5.1,5.29,4.29,0,8.33-2.8,10.64-5.85Z"/><path class="cls-1" d="M348.83,47.64v-2.8l3.23-.37c.87-.12,1-.25,1-1.18V28.36c0-6.41-1.74-9.33-6.34-9.33s-9,2.92-10.82,4.66V43.23c0,1,.06,1.12,1,1.24l3.73.44v2.74H327.49v-2.8l3.23-.37c.87-.12,1-.31,1-1.24V21c0-.68-.19-1.12-.81-1.31l-3.61-1.18.5-2.61h7l.5,3.86.19.06c3.11-2.3,7.09-4.54,12.07-4.54,7.28,0,9.64,4.6,9.64,11.82V43.23c0,1,.06,1.12,1,1.24l3.73.44v2.74Z"/><path class="cls-1" d="M383.91,47.64a69,69,0,0,0,.68-8.83v-33c0-.68-.19-1.12-.81-1.31L380,3.3l.5-2.61h8.27V19c3-1.8,6.59-3.79,11.07-3.79,7,0,11.63,4.54,11.63,15.24,0,12.81-5.22,17.91-13.06,17.91a14.08,14.08,0,0,1-9.89-3.73l-.12.06-.31,2.92Zm4.85-7.46c2.3,2.42,5.85,4.6,9.27,4.6,6.9,0,9.33-5.29,9.33-13.81,0-9.33-3.67-12.07-8.21-12.07-4.17,0-8,2.24-10.39,4Z"/><path class="cls-1" d="M442.38,45.77a21.08,21.08,0,0,1-10.7,2.61c-11,0-14.49-7.4-14.49-16.79,0-11.13,6.1-16.36,13.68-16.36,7.34,0,12.5,4,12.5,14.68,0,.87-.06,1.74-.12,2.67H421.54c.19,7.09,2.92,12,10.45,12a15.87,15.87,0,0,0,8.83-2.3Zm-3.3-16.54c-.12-7.71-3.79-10.32-8.15-10.32-4.73,0-8.71,2.61-9.27,10.32Z"/><path class="cls-1" d="M466,60.83V58l4.35-.5c.75-.06.93-.44,1.31-1.31l4-9.21L464.65,20.28c-.31-.75-.56-.87-1.31-1.06l-2.55-.62.62-2.74h11.82V18.6l-4.23.5L477.89,42l9.27-22.95-4.29-.5.62-2.74h11.32V18.6l-2.11.31A1.73,1.73,0,0,0,491.14,20L475.41,57.53l5.85.56v2.74Z"/><path class="cls-1" d="M497.3,31.66c0-9.7,4.85-16.42,15.18-16.42s14.24,6.72,14.24,16c0,10.39-4.6,17.17-14.86,17.17S497.3,41.42,497.3,31.66Zm25.13,0c0-8.52-3.23-12.75-10.08-12.75s-10.76,4.29-10.76,12.81S505.14,45,512,45,522.43,40.43,522.43,31.66Z"/><path class="cls-1" d="M558.63,47.64l-.56-4.54-.12-.06c-2.8,2.55-6.72,5.35-12.25,5.35-7,0-9-4.35-9-11.44v-16c0-1-.06-1.31-1-1.49l-3.3-.93.44-2.61h8v20c0,6.1,1.12,9,5.6,9,4.79,0,8.83-3.42,11.38-6.41V20.84c0-1-.06-1.24-1-1.43l-3.36-.93.44-2.61h8.09v27.3c0,.93.19,1.24.81,1.31l3.42.44v2.74Z"/><path class="cls-1" d="M571.63,47.64v-2.8l3.23-.37c.87-.12,1-.31,1-1.24V21c0-.68-.19-1.12-.81-1.31l-3.61-1.18.5-2.61H579l.56,4c2.05-1.93,5.29-4.6,9.64-4.6a16.39,16.39,0,0,1,4.1.56v8.65l-3.17-.19-.81-4.73c-.06-.44-.12-.56-.75-.56-3.3,0-7,3-8.58,4.6V43.23c0,1,.06,1.12,1,1.24l5.6.44v2.74Z"/></svg>