<svg id="Layer_2" data-name="Layer 2" xmlns="http://www.w3.org/2000/svg" viewBox="0 0 589.05 60.95"><defs><style>.cls-1{fill:#fff;}</style></defs><title>Artboard 1</title><path class="cls-1" d="M3.92,47a69,69,0,0,0,.68-8.83V5.1c0-.68-.19-1.12-.81-1.31L0,2.61.5,0H8.77V18.35c3-1.8,6.59-3.79,11.07-3.79,7,0,11.63,4.54,11.63,15.24,0,12.81-5.22,17.91-13.06,17.91A14.08,14.08,0,0,1,8.52,44L8.4,44,8.09,47Zm4.85-7.46c2.3,2.42,5.85,4.6,9.27,4.6,6.9,0,9.33-5.29,9.33-13.81,0-9.33-3.67-12.07-8.21-12.07-4.17,0-8,2.24-10.39,4Z"/><path class="cls-1" d="M36.14,47v-2.8l4.48-.37c.87-.12,1-.31,1-1.24V20.28c0-.68-.19-1.12-.81-1.31L37.2,17.79l.5-2.61h8.09V42.54c0,1,.06,1.12,1,1.24l4.35.44V47ZM42.86,7.46a3,3,0,0,1-3.36-3.3A3,3,0,0,1,42.86.87a3,3,0,0,1,3.36,3.3A3,3,0,0,1,42.86,7.46Z"/><path class="cls-1" d="M79,19a9.82,9.82,0,0,1,2.3,6.59c0,7.53-5.54,11.63-12.81,11.63a14.7,14.7,0,0,1-5.41-.87l-2.92,5.85,11,.81c9,.62,12.94,1.62,12.94,8.21,0,5.91-5,9.7-15.8,9.7C57.79,61,54.24,58,54.24,53.3c0-3.17,1.68-5.29,4.23-7.71-2-.44-2.92-1.18-2.92-2.8a5.69,5.69,0,0,1,1.24-3l3-4.79c-2.55-1.55-4.35-4.6-4.35-8.71,0-7,5.1-11.69,13.12-11.69a20.69,20.69,0,0,1,5.35.62H84.78V18.6ZM62.51,46.27c-1.68,1.49-3.86,3.73-3.86,6.28,0,3.67,4.1,4.6,10.88,4.6A28.55,28.55,0,0,0,73,56.91c4.17-.62,6.65-2.43,6.65-5.6s-2.49-4.17-6.9-4.42ZM68.67,18c-5.29,0-9,2.61-9,8,0,4.23,2.36,7.71,8.77,7.71,5.35,0,8.71-3.23,8.71-7.84C77.19,20.83,74.14,18,68.67,18Z"/><path class="cls-1" d="M112.21,19a9.82,9.82,0,0,1,2.3,6.59c0,7.53-5.54,11.63-12.81,11.63a14.7,14.7,0,0,1-5.41-.87l-2.92,5.85,11,.81c9,.62,12.94,1.62,12.94,8.21,0,5.91-5,9.7-15.8,9.7C91,61,87.46,58,87.46,53.3c0-3.17,1.68-5.29,4.23-7.71-2-.44-2.92-1.18-2.92-2.8a5.69,5.69,0,0,1,1.24-3l3-4.79c-2.55-1.55-4.35-4.6-4.35-8.71,0-7,5.1-11.69,13.12-11.69a20.69,20.69,0,0,1,5.35.62H118V18.6ZM95.73,46.27C94,47.77,91.87,50,91.87,52.55c0,3.67,4.1,4.6,10.88,4.6a28.55,28.55,0,0,0,3.42-.25c4.17-.62,6.65-2.43,6.65-5.6s-2.49-4.17-6.9-4.42ZM101.89,18c-5.29,0-9,2.61-9,8,0,4.23,2.36,7.71,8.77,7.71,5.35,0,8.71-3.23,8.71-7.84C110.41,20.83,107.36,18,101.89,18Z"/><path class="cls-1" d="M146.48,45.09a21.08,21.08,0,0,1-10.7,2.61c-11,0-14.49-7.4-14.49-16.79,0-11.13,6.1-16.36,13.68-16.36,7.34,0,12.5,4,12.5,14.68,0,.87-.06,1.74-.12,2.67H125.65c.19,7.09,2.92,12,10.45,12a15.87,15.87,0,0,0,8.83-2.3Zm-3.3-16.54c-.12-7.71-3.79-10.32-8.15-10.32-4.73,0-8.71,2.61-9.27,10.32Z"/><path class="cls-1" d="M171.24,23.7l-.75-4.1a.83.83,0,0,0-.68-.81,17.45,17.45,0,0,0-5.16-.75c-5.16,0-7.28,2.36-7.28,5.29,0,3.92,3.79,4.85,7.9,5.91,4.79,1.24,10.08,2.67,10.08,9.21,0,7-6,9.27-12,9.27a29.87,29.87,0,0,1-10.88-2.05V38l3.17.19.75,4.1a.83.83,0,0,0,.68.81,19.86,19.86,0,0,0,6.72,1.12c4.54,0,7.53-1.68,7.53-5.41,0-4-3.61-5-7.59-6-4.91-1.18-10.32-2.36-10.32-9,0-6.84,5.78-9.27,11.88-9.27a25.73,25.73,0,0,1,9.14,1.68v7.65Z"/><path class="cls-1" d="M200.91,46a21.7,21.7,0,0,1-8,1.74c-5.41,0-8-2.74-8-7.71V19.28c0-.37,0-.62-.5-.62h-4.6v-2.8c4.6-.62,5.66-2.24,6.47-8.4H189v7.09c0,.37,0,.62.5.62h9.27v3.48H189V38.44c0,4,1.12,5.54,4.73,5.54a17.33,17.33,0,0,0,6-1.24Z"/><path class="cls-1" d="M245.07,45.09a21.08,21.08,0,0,1-10.7,2.61c-11,0-14.49-7.4-14.49-16.79,0-11.13,6.1-16.36,13.68-16.36,7.34,0,12.5,4,12.5,14.68,0,.87-.06,1.74-.12,2.67H224.24c.19,7.09,2.92,12,10.45,12a15.87,15.87,0,0,0,8.83-2.3Zm-3.3-16.54c-.12-7.71-3.79-10.32-8.15-10.32-4.73,0-8.71,2.61-9.27,10.32Z"/><path class="cls-1" d="M272.88,47v-2.8l3.23-.37c.87-.12,1-.25,1-1.18V27.68c0-6.41-1.74-9.33-6.34-9.33s-9,2.92-10.82,4.66V42.54c0,1,.06,1.12,1,1.24l3.73.44V47H251.54v-2.8l3.23-.37c.87-.12,1-.31,1-1.24V20.28c0-.68-.19-1.12-.81-1.31l-3.61-1.18.5-2.61h7l.5,3.86.19.06c3.11-2.3,7.09-4.54,12.07-4.54,7.28,0,9.64,4.6,9.64,11.82V42.54c0,1,.06,1.12,1,1.24l3.73.44V47Z"/><path class="cls-1" d="M315.55,45.09a21.08,21.08,0,0,1-10.7,2.61c-11,0-14.49-7.4-14.49-16.79,0-11.13,6.1-16.36,13.68-16.36,7.34,0,12.5,4,12.5,14.68,0,.87-.06,1.74-.12,2.67H294.71c.19,7.09,2.92,12,10.45,12a15.87,15.87,0,0,0,8.83-2.3Zm-3.3-16.54c-.12-7.71-3.79-10.32-8.15-10.32-4.73,0-8.71,2.61-9.27,10.32Z"/><path class="cls-1" d="M322,47v-2.8l3.23-.37c.87-.12,1-.31,1-1.24V20.28c0-.68-.19-1.12-.81-1.31l-3.61-1.18.5-2.61h7.09l.56,4c2.05-1.93,5.29-4.6,9.64-4.6a16.39,16.39,0,0,1,4.1.56v8.65l-3.17-.19-.81-4.73c-.06-.44-.12-.56-.75-.56-3.3,0-7,3-8.58,4.6V42.54c0,1,.06,1.12,1,1.24l5.6.44V47Z"/><path class="cls-1" d="M371.28,19a9.82,9.82,0,0,1,2.3,6.59c0,7.53-5.54,11.63-12.81,11.63a14.7,14.7,0,0,1-5.41-.87l-2.92,5.85,11,.81c9,.62,12.94,1.62,12.94,8.21,0,5.91-5,9.7-15.8,9.7-10.51,0-14.06-2.92-14.06-7.65,0-3.17,1.68-5.29,4.23-7.71-2-.44-2.92-1.18-2.92-2.8a5.69,5.69,0,0,1,1.24-3l3-4.79c-2.55-1.55-4.35-4.6-4.35-8.71,0-7,5.1-11.69,13.12-11.69a20.69,20.69,0,0,1,5.35.62h10.82V18.6ZM354.8,46.27c-1.68,1.49-3.86,3.73-3.86,6.28,0,3.67,4.1,4.6,10.88,4.6a28.55,28.55,0,0,0,3.42-.25c4.17-.62,6.65-2.43,6.65-5.6s-2.49-4.17-6.9-4.42ZM361,18c-5.29,0-9,2.61-9,8,0,4.23,2.36,7.71,8.77,7.71,5.35,0,8.71-3.23,8.71-7.84C369.48,20.83,366.43,18,361,18Z"/><path class="cls-1" d="M383.35,60.14v-2.8l4.35-.5c.75-.06.93-.44,1.31-1.31l4-9.21L382,19.59c-.31-.75-.56-.87-1.31-1.06l-2.55-.62.62-2.74h11.82v2.74l-4.23.5,8.89,23,9.27-23-4.29-.5.62-2.74h11.32v2.74l-2.11.31a1.72,1.72,0,0,0-1.55,1.06L392.8,56.85l5.85.56v2.74Z"/><path class="cls-1" d="M453.88,47l-.5-4.23-.19-.06c-3,2.8-6.22,5-11.2,5-7,0-11.63-4.54-11.63-15.86,0-12.13,5.22-17.29,12.94-17.29a17.18,17.18,0,0,1,9.76,3V5a1.17,1.17,0,0,0-.81-1.24l-3.79-1.18L449,0h8.27V42.54c0,1,.06,1.12,1,1.24l3.23.44V47Zm-.81-24.82a14.79,14.79,0,0,0-9.7-4c-6.34,0-8.89,5.41-8.89,13.56,0,9.7,3.61,12.31,8.09,12.31,4.29,0,7.65-2.49,10.51-5.85Z"/><path class="cls-1" d="M466.82,47v-2.8l3.23-.37c.87-.12,1-.31,1-1.24V20.28c0-.68-.19-1.12-.81-1.31l-3.61-1.18.5-2.61h7.09l.56,4c2.05-1.93,5.29-4.6,9.64-4.6a16.39,16.39,0,0,1,4.1.56v8.65l-3.17-.19-.81-4.73c-.06-.44-.12-.56-.75-.56-3.3,0-7,3-8.58,4.6V42.54c0,1,.06,1.12,1,1.24l5.6.44V47Z"/><path class="cls-1" d="M512.29,47l-.56-4.17-.19-.06c-3.3,3-6.78,5-11.51,5-7.77,0-8.65-5.35-8.65-8.27,0-6.22,3.86-8.83,11.2-9.52l8.89-.81V25.62c0-5.22-1.06-7.53-7.09-7.53-4.17,0-7.34,0-7.4,5l-4-.5c0-7.34,6.84-8.08,11.44-8.08,8.52,0,11.2,2.49,11.2,10.95v17c0,1,.06,1.12,1,1.24l3.23.44V47Zm-.81-14.55-8.15.75c-6,.56-7.59,2.3-7.59,5.78,0,3.73,1.87,5.29,5.1,5.29,4.29,0,8.33-2.8,10.63-5.85Z"/><path class="cls-1" d="M523.18,47v-2.8l4.48-.37c.87-.12,1-.31,1-1.24V20.28c0-.68-.19-1.12-.81-1.31l-3.61-1.18.5-2.61h8.09V42.54c0,1,.06,1.12,1,1.24l4.35.44V47ZM529.9,7.46a3,3,0,0,1-3.36-3.3,3.36,3.36,0,0,1,6.72,0A3,3,0,0,1,529.9,7.46Z"/><path class="cls-1" d="M563.73,47v-2.8l3.23-.37c.87-.12,1-.25,1-1.18V27.68c0-6.41-1.74-9.33-6.34-9.33s-9,2.92-10.82,4.66V42.54c0,1,.06,1.12,1,1.24l3.73.44V47H542.4v-2.8l3.23-.37c.87-.12,1-.31,1-1.24V20.28c0-.68-.19-1.12-.81-1.31l-3.61-1.18.5-2.61h7l.5,3.86.19.06c3.11-2.3,7.09-4.54,12.07-4.54,7.28,0,9.64,4.6,9.64,11.82V42.54c0,1,.06,1.12,1,1.24l3.73.44V47Z"/><path class="cls-1" d="M585.44,47.7c-2.3,0-3.61-1.18-3.61-3.54s1.31-3.54,3.61-3.54S589,41.79,589,44.16,587.74,47.7,585.44,47.7Z"/></svg>