<svg id="Layer_2" data-name="Layer 2" xmlns="http://www.w3.org/2000/svg" viewBox="0 0 415.69 60.14"><defs><style>.cls-1{fill:#fff;}</style></defs><title>Artboard 1</title><path class="cls-1" d="M0,24.38C0,10.95,7.46,1.12,21.46,1.12s20.28,9.83,20.28,22.33c0,14.68-7.15,24.26-21.15,24.26C6.41,47.7,0,37.88,0,24.38Zm37.44-.31c0-12.44-6.28-19.28-16.11-19.28s-17,6.9-17,19.59S10.88,44,20.84,44,37.44,37.44,37.44,24.07Z"/><path class="cls-1" d="M47.21,47v-2.8l4.17-.37c.87-.06,1-.31,1-1.24V5.1c0-.68-.19-1.12-.81-1.31L47.77,2.61,48.27,0h8.27V42.54c0,1,.06,1.12,1,1.24l4,.44V47Z"/><path class="cls-1" d="M89.57,47l-.5-4.23-.19-.06c-3,2.8-6.22,5-11.19,5-7,0-11.63-4.54-11.63-15.86,0-12.13,5.22-17.29,12.94-17.29a17.18,17.18,0,0,1,9.76,3V5A1.17,1.17,0,0,0,88,3.79L84.16,2.61,84.65,0h8.27V42.54c0,1,.06,1.12,1,1.24l3.23.44V47Zm-.81-24.82a14.79,14.79,0,0,0-9.7-4c-6.34,0-8.89,5.41-8.89,13.56,0,9.7,3.61,12.31,8.09,12.31,4.29,0,7.65-2.49,10.51-5.85Z"/><path class="cls-1" d="M137.9,47l-.56-4.17-.19-.06c-3.3,3-6.78,5-11.51,5-7.77,0-8.65-5.35-8.65-8.27,0-6.22,3.86-8.83,11.2-9.52l8.89-.81V25.62c0-5.22-1.06-7.53-7.09-7.53-4.17,0-7.34,0-7.4,5l-4-.5c0-7.34,6.84-8.08,11.44-8.08,8.52,0,11.19,2.49,11.19,10.95v17c0,1,.06,1.12,1,1.24l3.23.44V47Zm-.81-14.55-8.15.75c-6,.56-7.59,2.3-7.59,5.78,0,3.73,1.87,5.29,5.1,5.29,4.29,0,8.33-2.8,10.64-5.85Z"/><path class="cls-1" d="M150.65,60.14v-2.8l2.61-.37c.87-.12,1-.31,1-1.24V20.28c0-.68-.19-1.12-.81-1.31l-3.61-1.18.5-2.61h7.09l.5,3.73.12.06c2.86-2.18,7-4.42,11.44-4.42,7,0,11.63,4.54,11.63,15.24,0,11.38-4.17,16.67-10.57,17.73a16.13,16.13,0,0,1-2.49.19A13.24,13.24,0,0,1,158.55,44l-.12.06V55.73c0,1,.06,1.18,1,1.24l5.6.44v2.74Zm7.77-20.65c2.3,2.43,5.85,4.6,9.27,4.6,6.9,0,9.33-5.29,9.33-13.81,0-9.33-3.67-12-8.21-12-4.17,0-8.46,2.86-10.39,4.48Z"/><path class="cls-1" d="M188,60.14v-2.8l2.61-.37c.87-.12,1-.31,1-1.24V20.28c0-.68-.19-1.12-.81-1.31l-3.61-1.18.5-2.61h7.09l.5,3.73.12.06c2.86-2.18,7-4.42,11.44-4.42,7,0,11.63,4.54,11.63,15.24,0,11.38-4.17,16.67-10.57,17.73a16.13,16.13,0,0,1-2.49.19A13.24,13.24,0,0,1,195.87,44l-.12.06V55.73c0,1,.06,1.18,1,1.24l5.6.44v2.74Zm7.77-20.65c2.3,2.43,5.85,4.6,9.27,4.6,6.9,0,9.33-5.29,9.33-13.81,0-9.33-3.67-12-8.21-12-4.17,0-8.46,2.86-10.39,4.48Z"/><path class="cls-1" d="M223.74,47v-2.8l4.17-.37c.87-.06,1-.31,1-1.24V5.1c0-.68-.19-1.12-.81-1.31L224.3,2.61,224.8,0h8.27V42.54c0,1,.06,1.12,1,1.24l4,.44V47Z"/><path class="cls-1" d="M241.4,47v-2.8l4.48-.37c.87-.12,1-.31,1-1.24V20.28c0-.68-.19-1.12-.81-1.31l-3.61-1.18.5-2.61H251V42.54c0,1,.06,1.12,1,1.24l4.35.44V47Zm6.72-39.49a3,3,0,0,1-3.36-3.3,3.36,3.36,0,0,1,6.72,0A3,3,0,0,1,248.12,7.46Z"/><path class="cls-1" d="M281.71,47l-.56-4.17-.19-.06c-3.3,3-6.78,5-11.51,5-7.77,0-8.65-5.35-8.65-8.27,0-6.22,3.86-8.83,11.2-9.52l8.89-.81V25.62c0-5.22-1.06-7.53-7.09-7.53-4.17,0-7.34,0-7.4,5l-4-.5c0-7.34,6.84-8.08,11.44-8.08,8.52,0,11.19,2.49,11.19,10.95v17c0,1,.06,1.12,1,1.24l3.23.44V47ZM280.9,32.4l-8.15.75c-6,.56-7.59,2.3-7.59,5.78,0,3.73,1.87,5.29,5.1,5.29,4.29,0,8.33-2.8,10.64-5.85Z"/><path class="cls-1" d="M315.17,47v-2.8l3.23-.37c.87-.12,1-.25,1-1.18V27.68c0-6.41-1.74-9.33-6.34-9.33s-9,2.92-10.82,4.67V42.54c0,1,.06,1.12,1,1.24l3.73.44V47H293.84v-2.8l3.23-.37c.87-.12,1-.31,1-1.24V20.28c0-.68-.19-1.12-.81-1.31l-3.61-1.18.5-2.61h7l.5,3.86.19.06c3.11-2.3,7.09-4.54,12.07-4.54,7.28,0,9.64,4.6,9.64,11.82V42.54c0,1,.06,1.12,1,1.24l3.73.44V47Z"/><path class="cls-1" d="M357.59,45.28c-2.18,1.43-6.28,2.43-10.2,2.43-10.39,0-14.74-6.72-14.74-16.3,0-11.88,6.72-16.85,16-16.85a23,23,0,0,1,8.83,1.68v7.65l-3.17-.19-.75-4.1a.83.83,0,0,0-.68-.81,16.64,16.64,0,0,0-4.73-.62c-6.22,0-11.13,3.55-11.13,13.06C337,40.18,341.3,44,348,44a15.22,15.22,0,0,0,8-2.18Z"/><path class="cls-1" d="M386.83,45.09a21.08,21.08,0,0,1-10.7,2.61c-11,0-14.49-7.4-14.49-16.79,0-11.13,6.1-16.36,13.68-16.36,7.34,0,12.5,4,12.5,14.68,0,.87-.06,1.74-.12,2.67H366c.19,7.09,2.92,12,10.45,12a15.88,15.88,0,0,0,8.83-2.3Zm-3.3-16.54c-.12-7.71-3.79-10.32-8.15-10.32-4.73,0-8.71,2.61-9.27,10.32Z"/><path class="cls-1" d="M411.58,23.7l-.75-4.1a.83.83,0,0,0-.68-.81A17.47,17.47,0,0,0,405,18c-5.16,0-7.28,2.36-7.28,5.29,0,3.92,3.79,4.85,7.9,5.91,4.79,1.24,10.08,2.67,10.08,9.21,0,7-6,9.27-12,9.27a29.84,29.84,0,0,1-10.88-2.05V38l3.17.19.75,4.1a.83.83,0,0,0,.68.81,19.88,19.88,0,0,0,6.72,1.12c4.54,0,7.53-1.68,7.53-5.41,0-4-3.61-5-7.59-6-4.91-1.18-10.32-2.36-10.32-9,0-6.84,5.78-9.27,11.88-9.27a25.71,25.71,0,0,1,9.14,1.68v7.65Z"/></svg>