<svg id="Layer_2" data-name="Layer 2" xmlns="http://www.w3.org/2000/svg" viewBox="0 0 467.01 75.79"><defs><style>.cls-1{fill:#fff;}</style></defs><title>Artboard 1</title><path class="cls-1" d="M12.91,6.68l-.55-2.79a1.71,1.71,0,0,0-.19-.62c-.23-.29-1.56-.71-3.5-.71-3.73,0-5.51,1.59-5.51,4.15,0,6.55,12.1,2.76,12.1,11.55,0,4.9-3.86,6.62-8.37,6.62a17.53,17.53,0,0,1-6.59-1.2v-4.9H1.88l.62,2.76c.1.42.13.55.55.71a11.83,11.83,0,0,0,4.12.68c3.6,0,5.77-1.36,5.77-4.51,0-6.94-12.1-3-12.1-11.48C.84,2.43,4.41.58,8.79.58a16.7,16.7,0,0,1,5.77,1.07V6.84Z"/><path class="cls-1" d="M33.16,24.49,29.62,10.83l-4,13.66h-2.6L18.3,10.19c-.13-.39-.29-.45-.68-.55l-1.4-.29.32-1.43h6V9.34l-2.17.26,4.06,12.68,4-13.88h2.5l3.6,13.82L38.41,9.6,36.2,9.34l.32-1.43h5.81V9.34l-1.17.19c-.62.1-.71.23-.84.65-1.49,4.8-3,9.54-4.54,14.31Z"/><path class="cls-1" d="M43.57,24.49V23l2.34-.19c.45-.06.52-.16.52-.65V10.58c0-.36-.1-.58-.42-.68l-1.88-.62.26-1.36H48.6V22.19c0,.52,0,.58.52.65l2.27.23v1.43Zm3.5-20.6a1.58,1.58,0,0,1-1.75-1.72,1.75,1.75,0,0,1,3.5,0A1.58,1.58,0,0,1,47.07,3.89Z"/><path class="cls-1" d="M64,24a11.31,11.31,0,0,1-4.19.91c-2.82,0-4.18-1.43-4.18-4V10.06c0-.19,0-.32-.26-.32H53V8.27c2.4-.32,3-1.17,3.37-4.38h1.46v3.7c0,.19,0,.32.26.32h4.83V9.73H57.84V20c0,2.08.58,2.89,2.47,2.89a9,9,0,0,0,3.11-.65Z"/><path class="cls-1" d="M78.35,23.62A10.73,10.73,0,0,1,73,24.88c-5.42,0-7.69-3.5-7.69-8.5,0-6.2,3.5-8.79,8.34-8.79a12,12,0,0,1,4.61.88v4l-1.65-.1-.39-2.14a.43.43,0,0,0-.36-.42,8.68,8.68,0,0,0-2.47-.32c-3.24,0-5.81,1.85-5.81,6.81,0,4.67,2.24,6.65,5.71,6.65A7.94,7.94,0,0,0,77.5,21.8Z"/><path class="cls-1" d="M91.84,24.49V23l1.69-.19c.45-.06.52-.13.52-.62V14.31c0-3.24-1-4.74-3.31-4.74A9.23,9.23,0,0,0,85.1,12V22.19c0,.52,0,.58.52.65l1.95.23v1.43H80.72V23l1.69-.19c.45-.06.52-.16.52-.65V2.66c0-.36-.1-.58-.42-.68l-2-.62L80.78,0H85.1V9.86a9.69,9.69,0,0,1,6-2.27c3.37,0,5.09,1.75,5.09,6.16v8.43c0,.52,0,.58.52.65l1.95.23v1.43Z"/><path class="cls-1" d="M119.13,24a11.31,11.31,0,0,1-4.19.91c-2.82,0-4.18-1.43-4.18-4V10.06c0-.19,0-.32-.26-.32h-2.4V8.27c2.4-.32,3-1.17,3.37-4.38h1.46v3.7c0,.19,0,.32.26.32H118V9.73h-5.09V20c0,2.08.58,2.89,2.47,2.89a9,9,0,0,0,3.11-.65Z"/><path class="cls-1" d="M120.43,16.16c0-5.06,2.53-8.56,7.92-8.56s7.43,3.5,7.43,8.34c0,5.42-2.4,9-7.75,9S120.43,21.25,120.43,16.16Zm13.11,0c0-4.44-1.69-6.65-5.25-6.65s-5.61,2.24-5.61,6.68,1.85,6.91,5.45,6.91S133.53,20.73,133.53,16.16Z"/><path class="cls-1" d="M157.25,24.49,157,22.32l-.1,0a8.45,8.45,0,0,1-6,2.6c-4.06,0-4.51-2.79-4.51-4.31,0-3.24,2-4.61,5.84-5l4.64-.42V13.37c0-2.73-.55-3.93-3.7-3.93-2.17,0-3.83,0-3.86,2.63l-2.08-.26c0-3.83,3.57-4.22,6-4.22,4.44,0,5.84,1.3,5.84,5.71v8.89c0,.52,0,.58.52.65l1.69.23v1.43Zm-.42-7.59-4.25.39c-3.11.29-4,1.2-4,3s1,2.76,2.66,2.76a7.41,7.41,0,0,0,5.55-3Z"/><path class="cls-1" d="M174.7,24.49V23l1.69-.19c.45-.06.52-.13.52-.62V14.44c0-3.34-.91-4.87-3.31-4.87A9.23,9.23,0,0,0,168,12V22.19c0,.52,0,.58.52.65l1.95.23v1.43h-6.84V23l1.69-.19c.45-.06.52-.16.52-.65V10.58c0-.36-.1-.58-.42-.68l-1.88-.62.26-1.36h3.67l.26,2,.1,0a10.53,10.53,0,0,1,6.29-2.37c3.8,0,5,2.4,5,6.16v8.43c0,.52,0,.58.52.65l1.95.23v1.43Z"/><path class="cls-1" d="M204.58,23.52A11,11,0,0,1,199,24.88c-5.74,0-7.56-3.86-7.56-8.76,0-5.81,3.18-8.53,7.14-8.53s6.52,2.11,6.52,7.66c0,.45,0,.91-.06,1.4H193.71c.1,3.7,1.52,6.26,5.45,6.26a8.28,8.28,0,0,0,4.61-1.2Zm-1.72-8.63c-.06-4-2-5.39-4.25-5.39-2.47,0-4.54,1.36-4.83,5.39Z"/><path class="cls-1" d="M207.47,24.49V23l2.17-.19c.45,0,.52-.16.52-.65V2.66c0-.36-.1-.58-.42-.68l-2-.62L208,0h4.31V22.19c0,.52,0,.58.52.65l2.11.23v1.43Z"/><path class="cls-1" d="M230,23.52a11,11,0,0,1-5.58,1.36c-5.74,0-7.56-3.86-7.56-8.76,0-5.81,3.18-8.53,7.14-8.53s6.52,2.11,6.52,7.66c0,.45,0,.91-.06,1.4H219.18c.1,3.7,1.52,6.26,5.45,6.26a8.28,8.28,0,0,0,4.61-1.2Zm-1.72-8.63c-.06-4-2-5.39-4.25-5.39-2.47,0-4.54,1.36-4.83,5.39Z"/><path class="cls-1" d="M246.33,23.62A10.73,10.73,0,0,1,241,24.88c-5.42,0-7.69-3.5-7.69-8.5,0-6.2,3.5-8.79,8.34-8.79a12,12,0,0,1,4.61.88v4l-1.65-.1-.39-2.14a.43.43,0,0,0-.36-.42,8.68,8.68,0,0,0-2.47-.32c-3.24,0-5.81,1.85-5.81,6.81,0,4.67,2.24,6.65,5.71,6.65a7.94,7.94,0,0,0,4.19-1.14Z"/><path class="cls-1" d="M259.31,24a11.31,11.31,0,0,1-4.19.91c-2.82,0-4.18-1.43-4.18-4V10.06c0-.19,0-.32-.26-.32h-2.4V8.27c2.4-.32,3-1.17,3.37-4.38h1.46v3.7c0,.19,0,.32.26.32h4.83V9.73h-5.09V20c0,2.08.58,2.89,2.47,2.89a9,9,0,0,0,3.11-.65Z"/><path class="cls-1" d="M261.84,24.49V23l1.69-.19c.45-.06.52-.16.52-.65V10.58c0-.36-.1-.58-.42-.68l-1.88-.62L262,7.92h3.7L266,10a7.48,7.48,0,0,1,5-2.4,8.54,8.54,0,0,1,2.14.29v4.51l-1.65-.1-.42-2.47c0-.23-.06-.29-.39-.29-1.72,0-3.63,1.56-4.48,2.4V22.19c0,.52,0,.58.52.65l2.92.23v1.43Z"/><path class="cls-1" d="M274.72,24.49V23l2.34-.19c.45-.06.52-.16.52-.65V10.58c0-.36-.1-.58-.42-.68l-1.88-.62.26-1.36h4.22V22.19c0,.52,0,.58.52.65l2.27.23v1.43Zm3.5-20.6a1.58,1.58,0,0,1-1.75-1.72,1.75,1.75,0,0,1,3.5,0A1.58,1.58,0,0,1,278.23,3.89Z"/><path class="cls-1" d="M297.33,23.62A10.73,10.73,0,0,1,292,24.88c-5.42,0-7.69-3.5-7.69-8.5,0-6.2,3.5-8.79,8.34-8.79a12,12,0,0,1,4.61.88v4l-1.65-.1-.39-2.14a.43.43,0,0,0-.36-.42,8.68,8.68,0,0,0-2.47-.32c-3.24,0-5.81,1.85-5.81,6.81,0,4.67,2.24,6.65,5.71,6.65a7.94,7.94,0,0,0,4.19-1.14Z"/><path class="cls-1" d="M318.45,24.49V23l1.69-.19c.45-.06.52-.13.52-.62V14.31c0-3.24-1-4.74-3.31-4.74A9.23,9.23,0,0,0,311.71,12V22.19c0,.52,0,.58.52.65l1.95.23v1.43h-6.84V23l1.69-.19c.45-.06.52-.16.52-.65V2.66c0-.36-.1-.58-.42-.68l-2-.62L307.39,0h4.31V9.86a9.69,9.69,0,0,1,6-2.27c3.37,0,5.09,1.75,5.09,6.16v8.43c0,.52,0,.58.52.65l1.95.23v1.43Z"/><path class="cls-1" d="M340.71,23.52a11,11,0,0,1-5.58,1.36c-5.74,0-7.56-3.86-7.56-8.76,0-5.81,3.18-8.53,7.14-8.53s6.52,2.11,6.52,7.66c0,.45,0,.91-.06,1.4H329.84c.1,3.7,1.52,6.26,5.45,6.26a8.28,8.28,0,0,0,4.61-1.2ZM339,14.89c-.06-4-2-5.39-4.25-5.39-2.47,0-4.54,1.36-4.83,5.39Z"/><path class="cls-1" d="M354.76,24.49l-.29-2.17-.1,0a8.45,8.45,0,0,1-6,2.6c-4.06,0-4.51-2.79-4.51-4.31,0-3.24,2-4.61,5.84-5l4.64-.42V13.37c0-2.73-.55-3.93-3.7-3.93-2.17,0-3.83,0-3.86,2.63l-2.08-.26c0-3.83,3.57-4.22,6-4.22,4.44,0,5.84,1.3,5.84,5.71v8.89c0,.52,0,.58.52.65l1.69.23v1.43Zm-.42-7.59-4.25.39c-3.11.29-4,1.2-4,3s1,2.76,2.66,2.76a7.41,7.41,0,0,0,5.55-3Z"/><path class="cls-1" d="M371.21,24a11.31,11.31,0,0,1-4.19.91c-2.82,0-4.18-1.43-4.18-4V10.06c0-.19,0-.32-.26-.32h-2.4V8.27c2.4-.32,3-1.17,3.37-4.38H365v3.7c0,.19,0,.32.26.32h4.83V9.73H365V20c0,2.08.58,2.89,2.47,2.89a9,9,0,0,0,3.11-.65Z"/><path class="cls-1" d="M381.52,31.37V29.91l1.36-.19c.45-.06.52-.16.52-.65V10.58c0-.36-.1-.58-.42-.68l-1.88-.62.26-1.36h3.7l.26,1.95.06,0a10.25,10.25,0,0,1,6-2.3c3.67,0,6.07,2.37,6.07,7.95,0,5.94-2.17,8.69-5.52,9.25a8.41,8.41,0,0,1-1.3.1,6.9,6.9,0,0,1-5-1.91l-.06,0v6.07c0,.52,0,.62.52.65l2.92.23v1.43Zm4.06-10.77a7.23,7.23,0,0,0,4.83,2.4c3.6,0,4.87-2.76,4.87-7.2,0-4.87-1.91-6.26-4.28-6.26a9.53,9.53,0,0,0-5.42,2.34Z"/><path class="cls-1" d="M414.13,24.49l-.29-2.37-.06,0a9.33,9.33,0,0,1-6.39,2.79c-3.63,0-4.67-2.27-4.67-6V10.54c0-.52,0-.68-.52-.78l-1.72-.49.23-1.36h4.18V18.33c0,3.18.58,4.7,2.92,4.7,2.5,0,4.61-1.78,5.94-3.34V10.51c0-.52,0-.65-.52-.75l-1.75-.49.23-1.36h4.22V22.16c0,.49.1.65.42.68l1.78.23v1.43Z"/><path class="cls-1" d="M441.41,24.49V23l1.69-.19c.45-.06.52-.13.52-.62V14.44c0-3.21-.58-4.87-3.11-4.87a8.87,8.87,0,0,0-5,1.91,13.82,13.82,0,0,1,.13,2.11v8.6c0,.52,0,.58.52.65l1.69.23v1.43h-6.49V23l1.59-.19c.45-.06.52-.13.52-.62V14.27c0-3.21-.39-4.7-2.79-4.7A8.47,8.47,0,0,0,425.29,12V22.19c0,.52,0,.58.52.65l1.95.23v1.43h-6.84V23l1.69-.19c.45-.06.52-.16.52-.65V10.58c0-.36-.1-.58-.42-.68l-1.88-.62.26-1.36h3.67l.26,2,.1,0a9.86,9.86,0,0,1,6.1-2.37c2.11,0,3.24.75,3.86,2.11A10.15,10.15,0,0,1,441,7.59c3.8,0,4.8,2.4,4.8,6.16v8.43c0,.52,0,.58.52.65l1.95.23v1.43Z"/><path class="cls-1" d="M451.11,31.37V29.91l1.36-.19c.45-.06.52-.16.52-.65V10.58c0-.36-.1-.58-.42-.68l-1.88-.62.26-1.36h3.7l.26,1.95.06,0a10.25,10.25,0,0,1,6-2.3c3.67,0,6.07,2.37,6.07,7.95,0,5.94-2.17,8.69-5.51,9.25a8.41,8.41,0,0,1-1.3.1,6.9,6.9,0,0,1-5-1.91l-.06,0v6.07c0,.52,0,.62.52.65l2.92.23v1.43Zm4.06-10.77A7.23,7.23,0,0,0,460,23c3.6,0,4.87-2.76,4.87-7.2,0-4.87-1.91-6.26-4.28-6.26a9.53,9.53,0,0,0-5.42,2.34Z"/><path class="cls-1" d="M10.9,68.49l-.29-2.17-.1,0a8.45,8.45,0,0,1-6,2.6C.45,68.88,0,66.09,0,64.57c0-3.24,2-4.61,5.84-5l4.64-.42V57.37c0-2.73-.55-3.93-3.7-3.93-2.17,0-3.83,0-3.86,2.63L.84,55.81c0-3.83,3.57-4.22,6-4.22,4.44,0,5.84,1.3,5.84,5.71v8.89c0,.52,0,.58.52.65l1.69.23v1.43Zm-.42-7.59-4.25.39c-3.11.29-4,1.2-4,3s1,2.76,2.66,2.76a7.41,7.41,0,0,0,5.55-3Z"/><path class="cls-1" d="M28.35,68.49V67L30,66.84c.45-.06.52-.13.52-.62V58.44c0-3.34-.91-4.87-3.31-4.87A9.23,9.23,0,0,0,21.61,56V66.19c0,.52,0,.58.52.65l1.95.23v1.43H17.23V67l1.69-.19c.45-.06.52-.16.52-.65V54.58c0-.36-.1-.58-.42-.68l-1.88-.62.26-1.36h3.67l.26,2,.1,0a10.53,10.53,0,0,1,6.29-2.37c3.8,0,5,2.4,5,6.16v8.43c0,.52,0,.58.52.65l1.95.23v1.43Z"/><path class="cls-1" d="M50.12,68.49l-.26-2.21-.1,0a8.1,8.1,0,0,1-5.84,2.63c-3.67,0-6.07-2.37-6.07-8.27,0-6.33,2.73-9,6.75-9a9,9,0,0,1,5.09,1.59V46.63a.61.61,0,0,0-.42-.65l-2-.62L47.56,44h4.31V66.19c0,.52,0,.58.52.65l1.69.23v1.43ZM49.7,55.55a7.71,7.71,0,0,0-5.06-2.08c-3.31,0-4.64,2.82-4.64,7.07C40,65.6,41.88,67,44.22,67s4-1.3,5.48-3Z"/><path class="cls-1" d="M76.82,53.93A5.12,5.12,0,0,1,78,57.37c0,3.93-2.89,6.07-6.68,6.07A7.66,7.66,0,0,1,68.52,63L67,66l5.74.42c4.67.32,6.75.84,6.75,4.28,0,3.08-2.6,5.06-8.24,5.06-5.48,0-7.33-1.52-7.33-4,0-1.65.88-2.76,2.21-4-1-.23-1.52-.62-1.52-1.46a3,3,0,0,1,.65-1.59l1.59-2.5a5.12,5.12,0,0,1-2.27-4.54c0-3.67,2.66-6.1,6.84-6.1a10.8,10.8,0,0,1,2.79.32h5.64V53.7Zm-8.6,14.21c-.88.78-2,1.95-2,3.28,0,1.91,2.14,2.4,5.68,2.4a14.84,14.84,0,0,0,1.78-.13c2.17-.32,3.47-1.27,3.47-2.92s-1.3-2.17-3.6-2.3Zm3.21-14.76c-2.76,0-4.67,1.36-4.67,4.19,0,2.21,1.23,4,4.57,4,2.79,0,4.54-1.69,4.54-4.09C75.88,54.87,74.29,53.38,71.44,53.38Z"/><path class="cls-1" d="M94.7,67.52a11,11,0,0,1-5.58,1.36c-5.74,0-7.56-3.86-7.56-8.76,0-5.81,3.18-8.53,7.14-8.53s6.52,2.11,6.52,7.66c0,.45,0,.91-.06,1.4H83.83c.1,3.7,1.52,6.26,5.45,6.26a8.28,8.28,0,0,0,4.61-1.2ZM93,58.89c-.06-4-2-5.39-4.25-5.39-2.47,0-4.54,1.36-4.83,5.39Z"/><path class="cls-1" d="M108.52,68a11.31,11.31,0,0,1-4.19.91c-2.82,0-4.18-1.43-4.18-4V54.06c0-.19,0-.32-.26-.32h-2.4V52.27c2.4-.32,3-1.17,3.37-4.38h1.46v3.7c0,.19,0,.32.26.32h4.83v1.82h-5.09V64c0,2.08.58,2.89,2.47,2.89a9,9,0,0,0,3.11-.65Z"/><path class="cls-1" d="M132.14,68.49l-.29-2.37-.06,0a9.33,9.33,0,0,1-6.39,2.79c-3.63,0-4.67-2.27-4.67-6V54.54c0-.52,0-.68-.52-.78l-1.72-.49.23-1.36h4.18V62.33c0,3.18.58,4.7,2.92,4.7,2.5,0,4.61-1.78,5.94-3.34V54.51c0-.52,0-.65-.52-.75l-1.75-.49.23-1.36h4.22V66.16c0,.49.1.65.42.68l1.78.23v1.43Z"/><path class="cls-1" d="M139.24,75.37V73.91l1.36-.19c.45-.06.52-.16.52-.65V54.58c0-.36-.1-.58-.42-.68l-1.88-.62.26-1.36h3.7l.26,1.95.06,0a10.25,10.25,0,0,1,6-2.3c3.67,0,6.07,2.37,6.07,7.95,0,5.94-2.17,8.69-5.52,9.25a8.41,8.41,0,0,1-1.3.1,6.9,6.9,0,0,1-5-1.91l-.06,0v6.07c0,.52,0,.62.52.65l2.92.23v1.43ZM143.3,64.6a7.23,7.23,0,0,0,4.83,2.4c3.6,0,4.87-2.76,4.87-7.2,0-4.87-1.91-6.26-4.28-6.26a9.53,9.53,0,0,0-5.42,2.34Z"/><path class="cls-1" d="M176.29,68a11.31,11.31,0,0,1-4.19.91c-2.82,0-4.18-1.43-4.18-4V54.06c0-.19,0-.32-.26-.32h-2.4V52.27c2.4-.32,3-1.17,3.37-4.38h1.46v3.7c0,.19,0,.32.26.32h4.83v1.82h-5.09V64c0,2.08.58,2.89,2.47,2.89a9,9,0,0,0,3.11-.65Z"/><path class="cls-1" d="M177.59,60.16c0-5.06,2.53-8.56,7.92-8.56s7.43,3.5,7.43,8.34c0,5.42-2.4,9-7.75,9S177.59,65.25,177.59,60.16Zm13.11,0c0-4.44-1.69-6.65-5.25-6.65s-5.61,2.24-5.61,6.68,1.85,6.91,5.45,6.91S190.69,64.73,190.69,60.16Z"/><path class="cls-1" d="M214.41,68.49l-.29-2.17-.1,0a8.45,8.45,0,0,1-6,2.6c-4.06,0-4.51-2.79-4.51-4.31,0-3.24,2-4.61,5.84-5l4.64-.42V57.37c0-2.73-.55-3.93-3.7-3.93-2.17,0-3.83,0-3.86,2.63l-2.08-.26c0-3.83,3.57-4.22,6-4.22,4.44,0,5.84,1.3,5.84,5.71v8.89c0,.52,0,.58.52.65l1.69.23v1.43ZM214,60.9l-4.25.39c-3.11.29-4,1.2-4,3s1,2.76,2.66,2.76A7.41,7.41,0,0,0,214,64Z"/></svg>