<svg id="Layer_2" data-name="Layer 2" xmlns="http://www.w3.org/2000/svg" viewBox="0 0 99 23.01"><defs><style>.cls-1{fill:#e92128;}.cls-2{fill:#fff;}</style></defs><title>Artboard 1</title><rect class="cls-1" width="99" height="23.01"/><path class="cls-2" d="M15.36,15.91v-1l.8-.09c.18,0,.2-.06.2-.25V8c0-.19,0-.24-.2-.26l-.8-.09v-1h4.25v1l-1.06.1c-.19,0-.2.06-.2.24v6.53h2.27c.14,0,.18,0,.2-.14l.2-1.28h1.4v2.78Z"/><path class="cls-2" d="M29.12,15.41a6,6,0,0,1-2.62.65c-2.46,0-3.31-1.53-3.31-3.53a3.05,3.05,0,0,1,3.17-3.41c1.69,0,2.81.88,2.81,3.09,0,.15,0,.6,0,.86H25.23c.06.91.46,1.51,1.51,1.51a5.44,5.44,0,0,0,1.9-.43Zm-1.84-3.55c0-1.07-.43-1.35-1-1.35s-1,.31-1.07,1.35Z"/><path class="cls-2" d="M34,15.91l-.13-.69h-.06a2.88,2.88,0,0,1-2.15.86,1.68,1.68,0,0,1-1.86-1.89c0-1.28.79-1.86,2.39-2l1.47-.1v-.7c0-.6-.06-1-.86-1-.61,0-.93.09-.93.86l-1.8-.15c0-1.72,1.57-2,2.75-2,1.94,0,2.72.52,2.72,2.31v3.1c0,.2,0,.23.2.25l.61.1v1Zm-.35-2.75-.87.06c-.75.05-1,.24-1,.75a.64.64,0,0,0,.73.7,2.1,2.1,0,0,0,1.16-.46Z"/><path class="cls-2" d="M36.87,15.91v-1l.57-.08c.18,0,.2-.06.2-.25V10.8c0-.14,0-.23-.17-.27l-.69-.24.14-1h2.25l.15,1h.08a2.14,2.14,0,0,1,1.8-1.15,6,6,0,0,1,1.11.11v2.32l-1.53-.05-.13-.68c0-.12-.06-.14-.17-.14a1.69,1.69,0,0,0-.92.45v3.38c0,.2,0,.24.2.25l1.26.1v1Z"/><path class="cls-2" d="M47.63,15.91V11.78c0-.61,0-1.12-.68-1.12a2.58,2.58,0,0,0-1.33.47v3.42c0,.2,0,.23.2.25l.61.09v1H42.92v-1l.57-.08c.18,0,.2-.06.2-.25V10.8c0-.14,0-.23-.17-.27l-.69-.24.15-1h2.23l.1.66.05,0a3.75,3.75,0,0,1,2.25-.82c1.39,0,1.93.77,1.93,2.17v3.26c0,.2,0,.23.2.25l.64.09v1Z"/><path class="cls-2" d="M61.55,15.91V11.78c0-.5-.05-1.1-.72-1.1a1.89,1.89,0,0,0-1,.34,5,5,0,0,1,0,.63v2.9c0,.22,0,.24.2.27l.51.08v1H57.91V11.72c0-.47,0-1-.68-1a1.77,1.77,0,0,0-1.06.41v3.46c0,.22,0,.22.2.25l.63.09v1H53.47v-1l.57-.09c.18,0,.2-.06.2-.25V10.8c0-.14,0-.23-.17-.27l-.69-.24.14-1h2.25l.1.66h.06a3.14,3.14,0,0,1,2-.8,1.65,1.65,0,0,1,1.56.77,3.42,3.42,0,0,1,2.06-.77c1.37,0,1.88.68,1.88,2.16v3.27c0,.2,0,.24.2.27l.64.08v1Z"/><path class="cls-2" d="M64.84,12.63c0-2.12,1.11-3.5,3.45-3.5s3.28,1.4,3.28,3.36c0,2.17-1.1,3.58-3.45,3.58S64.84,14.63,64.84,12.63Zm4.71-.08c0-1.51-.46-2-1.29-2s-1.4.52-1.4,2.06.5,2.16,1.35,2.16S69.55,14.14,69.55,12.55Z"/><path class="cls-2" d="M72.21,15.91v-1l.57-.08c.18,0,.2-.06.2-.25V10.8c0-.14,0-.23-.17-.27l-.69-.24.14-1h2.25l.15,1h.08a2.14,2.14,0,0,1,1.8-1.15,6,6,0,0,1,1.11.11v2.32l-1.53-.05L76,10.84c0-.12-.06-.14-.17-.14a1.69,1.69,0,0,0-.92.45v3.38c0,.2,0,.24.2.25l1.26.1v1Z"/><path class="cls-2" d="M84.13,15.41a6,6,0,0,1-2.62.65c-2.46,0-3.31-1.53-3.31-3.53a3.05,3.05,0,0,1,3.17-3.41c1.69,0,2.81.88,2.81,3.09,0,.15,0,.6,0,.86H80.24c.06.91.46,1.51,1.51,1.51a5.44,5.44,0,0,0,1.9-.43Zm-1.84-3.55c0-1.07-.43-1.35-1-1.35s-1,.31-1.07,1.35Z"/></svg>