<svg id="Layer_2" data-name="Layer 2" xmlns="http://www.w3.org/2000/svg" viewBox="0 0 60.13 69.41"><defs><style>.cls-1{fill:#007db9;}.cls-2{fill:#b2d235;}.cls-3{fill:#00bcf1;}.cls-4{fill:#ec1c24;}.cls-5{fill:#fff;}</style></defs><title>Artboard 1</title><polygon class="cls-1" points="12.85 30.49 48.05 30.49 48.05 30.48 24.55 24.62 12.85 30.49"/><polygon class="cls-2" points="17.28 22.81 12.85 30.49 24.55 24.62 17.28 22.81"/><polygon class="cls-3" points="24.55 24.62 48.05 30.48 40.15 16.8 24.55 24.62"/><polygon class="cls-4" points="30.45 0 18.21 21.19 39.21 15.17 30.45 0"/><path class="cls-5" d="M10.81,39.06l-.32,2.11a6.76,6.76,0,0,0-4.07-1.45c-2.84,0-4.33,2.15-4.33,5.25s1.53,5.25,4.29,5.25a7.55,7.55,0,0,0,3-.66V46.12H6.3L6,44.25h5.43v6.48A8.39,8.39,0,0,1,6.56,52C2.88,52,0,49.7,0,45c0-4.43,2.62-7.06,6.48-7.06A6.83,6.83,0,0,1,10.81,39.06Zm4.08,8.27c0,1,.4,3,2.68,3A5.34,5.34,0,0,0,21,49l.28,1.71A5.67,5.67,0,0,1,17.36,52c-2.62,0-4.41-1.77-4.41-5s2-5,4.23-5c2.84,0,4.07,2.33,4.07,4.79v.48Zm4.37-1.51c-.12-.64-.38-2.19-2.11-2.19A2.33,2.33,0,0,0,15,45.82ZM26.73,52c-2.46,0-4.43-1.59-4.43-5s2-5,4.43-5,4.41,1.75,4.41,5S29.15,52,26.73,52Zm0-1.65c1.49,0,2.46-1.41,2.46-3.32s-1-3.32-2.46-3.32c-1.67,0-2.46,1.59-2.46,3.32S25.16,50.37,26.73,50.37ZM34.49,44a4.06,4.06,0,0,1,3.3-1.89l.28,1.75a3.79,3.79,0,0,0-3.48,2.09v5.9H32.64V42.26h1.61Zm13-.08-1.73.18a2.56,2.56,0,0,1,.3,1.35,3.38,3.38,0,0,1-3.66,3.32,3.33,3.33,0,0,1-.72-.06c-.1,0-.38.26-.38.48s.34.3.68.36,1.45.3,2.09.4c1.83.28,3.1,1,3.1,2.48,0,1.91-2,3-4.51,3-3.52,0-4.63-1.27-4.63-2.52,0-1.41,1.53-2.21,1.91-2.4a1.22,1.22,0,0,1-.52-1,1.68,1.68,0,0,1,.87-1.25,3.15,3.15,0,0,1-1.65-2.8,3.43,3.43,0,0,1,3.68-3.34,3.84,3.84,0,0,1,2.44.78l2.44-.76Zm-6.08,7.22c-.72.32-1.53.93-1.53,1.61s.81,1.21,2.76,1.21c1.45,0,2.68-.46,2.68-1.33s-1.05-1-1.93-1.11Zm1-7.57a1.81,1.81,0,0,0-1.83,1.89,1.75,1.75,0,0,0,1.83,1.89,1.89,1.89,0,0,0,0-3.78Zm8.74-4.15a1.21,1.21,0,0,1-1.21,1.19,1.2,1.2,0,1,1,0-2.4A1.22,1.22,0,0,1,51.06,39.38Zm-.24,2.88H48.87v9.56h1.95V42.26Zm7.6,9.56-.08-1.17A3.51,3.51,0,0,1,55.49,52c-1.79,0-3.22-.93-3.22-3,0-2.86,3.88-3.26,5.9-3.48v-.3c0-.7-.28-1.53-1.87-1.53a7.7,7.7,0,0,0-3.14.87l-.26-1.71a9,9,0,0,1,3.54-.81c2.84,0,3.68,1.29,3.68,3.38v6.36Zm-.24-4.73c-2.19.22-4,.68-4,2,0,.85.6,1.27,1.47,1.27a3.81,3.81,0,0,0,2.52-1.25ZM16.74,59.79c0,2.72-2,4.29-4.63,4.29H9.5v5.13h-2V55.5h4.65C15.17,55.5,16.74,57.49,16.74,59.79ZM9.5,62.28h2.19c2,0,2.94-1.07,2.94-2.48s-.93-2.48-2.94-2.48H9.5ZM21,69.41c-2.46,0-4.43-1.59-4.43-5s2-5,4.43-5,4.41,1.75,4.41,5S23.47,69.41,21,69.41Zm0-1.65c1.49,0,2.46-1.41,2.46-3.32s-1-3.32-2.46-3.32c-1.67,0-2.46,1.59-2.46,3.32S19.48,67.76,21,67.76Zm17.85-8.11-3,9.56H34.28l-2-6.62-2,6.62H28.69l-3-9.56h2l1.95,6.56,2-6.56h1.61l2,6.56,1.95-6.56Zm2.16,5.07c0,1,.4,3,2.68,3a5.34,5.34,0,0,0,3.38-1.35l.28,1.71a5.67,5.67,0,0,1-3.88,1.31c-2.62,0-4.41-1.77-4.41-5s2-5,4.23-5c2.84,0,4.07,2.33,4.07,4.79v.48Zm4.37-1.51c-.12-.64-.38-2.19-2.11-2.19a2.33,2.33,0,0,0-2.17,2.19ZM51,61.36a4.06,4.06,0,0,1,3.3-1.89l.28,1.75a3.79,3.79,0,0,0-3.48,2.09v5.9H49.13V59.65h1.61Z"/></svg>