<svg id="Layer_2" data-name="Layer 2" xmlns="http://www.w3.org/2000/svg" viewBox="0 0 503.4 48.33"><defs><style>.cls-1{fill:#fff;}</style></defs><title>Artboard 1</title><path class="cls-1" d="M24.91,45.91c-2.17,1.43-6.27,2.42-10.19,2.42C4.35,48.33,0,41.62,0,32.05,0,20.19,6.71,15.22,16,15.22a22.93,22.93,0,0,1,8.82,1.68v7.64l-3.17-.19-.75-4.1a.83.83,0,0,0-.68-.81,16.63,16.63,0,0,0-4.72-.62c-6.21,0-11.12,3.54-11.12,13,0,8.94,4.29,12.73,10.93,12.73a15.2,15.2,0,0,0,8-2.17Z"/><path class="cls-1" d="M50.5,47.58l-.56-4.16-.19-.06c-3.29,3-6.77,5-11.49,5-7.77,0-8.63-5.34-8.63-8.26,0-6.21,3.85-8.82,11.18-9.5l8.88-.81V26.28c0-5.22-1.06-7.52-7.08-7.52-4.16,0-7.33,0-7.39,5l-4-.5c0-7.33,6.83-8.08,11.43-8.08,8.51,0,11.18,2.48,11.18,10.93v17c0,1,.06,1.12,1,1.24l3.23.43v2.73ZM49.7,33l-8.14.75c-6,.56-7.58,2.3-7.58,5.78,0,3.73,1.86,5.28,5.09,5.28,4.29,0,8.32-2.79,10.62-5.84Z"/><path class="cls-1" d="M83.92,47.58v-2.8l3.23-.37c.87-.12,1-.25,1-1.18V28.33c0-6.4-1.74-9.32-6.34-9.32S72.87,21.93,71,23.67V43.17c0,1,.06,1.12,1,1.24l3.73.43v2.73H62.62v-2.8l3.23-.37c.87-.12,1-.31,1-1.24V20.93c0-.68-.19-1.12-.81-1.3l-3.6-1.18.5-2.61h7l.5,3.85.19.06c3.11-2.3,7.08-4.53,12.05-4.53,7.27,0,9.63,4.6,9.63,11.8V43.17c0,1,.06,1.12,1,1.24l3.73.43v2.73Z"/><path class="cls-1" d="M119,47.58a69,69,0,0,0,.68-8.82v-33c0-.68-.19-1.12-.81-1.3L115,3.29l.5-2.61h8.26V19c3-1.8,6.59-3.79,11.06-3.79,7,0,11.62,4.53,11.62,15.22,0,12.8-5.22,17.89-13,17.89a14.06,14.06,0,0,1-9.88-3.73l-.12.06-.31,2.92Zm4.85-7.45c2.3,2.42,5.84,4.6,9.26,4.6,6.9,0,9.32-5.28,9.32-13.79,0-9.32-3.67-12.05-8.2-12.05-4.16,0-8,2.24-10.37,4Z"/><path class="cls-1" d="M177.35,45.72a21.06,21.06,0,0,1-10.68,2.61c-11,0-14.47-7.39-14.47-16.77,0-11.12,6.09-16.34,13.67-16.34,7.33,0,12.49,4,12.49,14.66,0,.87-.06,1.74-.12,2.67H156.54c.19,7.08,2.92,12,10.44,12a15.86,15.86,0,0,0,8.82-2.3ZM174.05,29.2c-.12-7.7-3.79-10.31-8.14-10.31-4.72,0-8.7,2.61-9.26,10.31Z"/><path class="cls-1" d="M196.85,47.58v-2.8l4.47-.37c.87-.12,1-.31,1-1.24V20.93c0-.68-.19-1.12-.81-1.3l-3.6-1.18.5-2.61h8.08V43.17c0,1,.06,1.12,1,1.24l4.35.43v2.73Zm6.71-39.45a3,3,0,0,1-3.35-3.29,3.35,3.35,0,0,1,6.71,0A3,3,0,0,1,203.56,8.14Z"/><path class="cls-1" d="M237.35,47.58v-2.8l3.23-.37c.87-.12,1-.25,1-1.18V28.33c0-6.4-1.74-9.32-6.34-9.32s-8.94,2.92-10.81,4.66V43.17c0,1,.06,1.12,1,1.24l3.73.43v2.73H216v-2.8l3.23-.37c.87-.12,1-.31,1-1.24V20.93c0-.68-.19-1.12-.81-1.3l-3.6-1.18.5-2.61h7l.5,3.85.19.06c3.11-2.3,7.08-4.53,12.05-4.53,7.27,0,9.63,4.6,9.63,11.8V43.17c0,1,.06,1.12,1,1.24l3.73.43v2.73Z"/><path class="cls-1" d="M280,45.72a21.06,21.06,0,0,1-10.68,2.61c-11,0-14.47-7.39-14.47-16.77,0-11.12,6.09-16.34,13.67-16.34,7.33,0,12.49,4,12.49,14.66,0,.87-.06,1.74-.12,2.67H259.15c.19,7.08,2.92,12,10.44,12a15.86,15.86,0,0,0,8.82-2.3ZM276.67,29.2c-.12-7.7-3.79-10.31-8.14-10.31-4.72,0-8.7,2.61-9.26,10.31Z"/><path class="cls-1" d="M286.24,47.58v-2.8l4.16-.37c.87-.06,1-.31,1-1.24V19.94c0-.37,0-.62-.5-.62h-4.6V15.84h5.09V10.56C291.39,3.73,294.62,0,302,0c4.78,0,8.57,1.18,8.57,6.83l-3.91.56c0-3.35-1.68-3.85-4.85-3.85-5.16,0-6.27,2.67-6.27,7.21v4.47c0,.43,0,.62.5.62h10.37v3.48H295.56V43.11c0,1,.06,1.18,1,1.24l7.14.5v2.73Z"/><path class="cls-1" d="M310.71,47.58v-2.8l4.16-.37c.87-.06,1-.31,1-1.24V19.94c0-.37,0-.62-.5-.62h-4.6V15.84h5.09V10.56C315.87,3.73,319.1,0,326.49,0c4.78,0,8.57,1.18,8.57,6.83l-3.91.56c0-3.35-1.68-3.85-4.85-3.85-5.16,0-6.27,2.67-6.27,7.21v4.47c0,.43,0,.62.5.62H330.9v3.48H320V43.11c0,1,.06,1.18,1,1.24l7.14.5v2.73Z"/><path class="cls-1" d="M335.37,47.58v-2.8l4.47-.37c.87-.12,1-.31,1-1.24V20.93c0-.68-.19-1.12-.81-1.3l-3.6-1.18.5-2.61H345V43.17c0,1,.06,1.12,1,1.24l4.35.43v2.73Zm6.71-39.45a3,3,0,0,1-3.35-3.29,3.35,3.35,0,0,1,6.71,0A3,3,0,0,1,342.08,8.14Z"/><path class="cls-1" d="M378.67,45.91c-2.17,1.43-6.27,2.42-10.19,2.42-10.37,0-14.72-6.71-14.72-16.28,0-11.86,6.71-16.83,16-16.83a22.93,22.93,0,0,1,8.82,1.68v7.64l-3.17-.19-.75-4.1a.83.83,0,0,0-.68-.81,16.63,16.63,0,0,0-4.72-.62c-6.21,0-11.12,3.54-11.12,13,0,8.94,4.29,12.73,10.93,12.73a15.2,15.2,0,0,0,8-2.17Z"/><path class="cls-1" d="M382.27,47.58v-2.8l4.47-.37c.87-.12,1-.31,1-1.24V20.93c0-.68-.19-1.12-.81-1.3l-3.6-1.18.5-2.61h8.08V43.17c0,1,.06,1.12,1,1.24l4.35.43v2.73ZM389,8.14a3,3,0,0,1-3.35-3.29,3.35,3.35,0,0,1,6.71,0A3,3,0,0,1,389,8.14Z"/><path class="cls-1" d="M425.82,45.72a21.06,21.06,0,0,1-10.68,2.61c-11,0-14.47-7.39-14.47-16.77,0-11.12,6.09-16.34,13.67-16.34,7.33,0,12.49,4,12.49,14.66,0,.87-.06,1.74-.12,2.67H405c.19,7.08,2.92,12,10.44,12a15.86,15.86,0,0,0,8.82-2.3ZM422.52,29.2c-.12-7.7-3.79-10.31-8.14-10.31-4.72,0-8.7,2.61-9.26,10.31Z"/><path class="cls-1" d="M453.58,47.58v-2.8l3.23-.37c.87-.12,1-.25,1-1.18V28.33c0-6.4-1.74-9.32-6.34-9.32s-8.95,2.92-10.81,4.66V43.17c0,1,.06,1.12,1,1.24l3.73.43v2.73H432.27v-2.8l3.23-.37c.87-.12,1-.31,1-1.24V20.93c0-.68-.19-1.12-.81-1.3l-3.6-1.18.5-2.61h7l.5,3.85.19.06c3.11-2.3,7.08-4.53,12.05-4.53,7.27,0,9.63,4.6,9.63,11.8V43.17c0,1,.06,1.12,1,1.24l3.73.43v2.73Z"/><path class="cls-1" d="M491.23,46.59a21.67,21.67,0,0,1-8,1.74c-5.41,0-8-2.73-8-7.7V19.94c0-.37,0-.62-.5-.62h-4.6v-2.8c4.6-.62,5.65-2.24,6.46-8.39h2.8v7.08c0,.37,0,.62.5.62h9.26v3.48h-9.75V39.07c0,4,1.12,5.53,4.72,5.53a17.32,17.32,0,0,0,6-1.24Z"/><path class="cls-1" d="M499.8,48.33c-2.3,0-3.6-1.18-3.6-3.54s1.3-3.54,3.6-3.54,3.6,1.18,3.6,3.54S502.09,48.33,499.8,48.33Z"/></svg>