<svg id="Layer_2" data-name="Layer 2" xmlns="http://www.w3.org/2000/svg" viewBox="0 0 411.54 22.67"><defs><style>.cls-1{fill:#fff;}</style></defs><title>Artboard 1</title><path class="cls-1" d="M0,9.15C0,4.3,2.74.66,8,.66S15.48,4.3,15.48,8.9c0,5.4-2.61,8.9-7.85,8.9S0,14.2,0,9.15Zm13.31,0c0-4.39-2.08-6.7-5.4-6.7S2.17,4.76,2.17,9.15c0,4.6,2.22,6.88,5.58,6.88S13.31,13.84,13.31,9.13Z"/><path class="cls-1" d="M27,17.52,26.79,16l0,0a6.58,6.58,0,0,1-4.41,1.85c-2.52,0-3.29-1.53-3.29-4.16V7.82c0-.37,0-.46-.37-.53L17.48,7l.18-1.24h3.45v7.39c0,2,.34,3,1.78,3a5.23,5.23,0,0,0,3.68-2V7.8c0-.37,0-.44-.37-.5L25.07,7l.18-1.24h3.41v9.88c0,.34.07.46.32.48l1.21.16v1.24Z"/><path class="cls-1" d="M39.76,17.09a8.65,8.65,0,0,1-3.18.71c-2.2,0-3.18-1-3.18-3.09V7.57c0-.14,0-.23-.18-.23H31.55V6c1.78-.23,2.29-.94,2.58-3.27h1.35V5.54c0,.14,0,.23.18.23H39V7.34H35.48v6.75c0,1.44.34,2,1.65,2a6,6,0,0,0,2.13-.46Z"/><path class="cls-1" d="M49.44,17.52,49.26,16l-.09,0a5.55,5.55,0,0,1-4,1.81c-2.61,0-4.32-1.69-4.32-5.9,0-4.51,2-6.36,4.78-6.36a6.07,6.07,0,0,1,3.5,1.1V2.36a.43.43,0,0,0-.3-.46l-1.37-.43L47.63.25h3.5V15.67c0,.37,0,.41.37.46l1.17.16v1.24Zm-.39-9a5.34,5.34,0,0,0-3.13-1.23c-2.15,0-3,1.88-3,4.6,0,3.18,1.08,4.21,2.68,4.21A5.13,5.13,0,0,0,49,14.16Z"/><path class="cls-1" d="M62,17.52,61.79,16l-.07,0a5.83,5.83,0,0,1-4.14,1.78c-2.86,0-3.23-2-3.23-3.13,0-2.29,1.42-3.36,4.16-3.59l3.09-.25V9.61c0-1.67-.32-2.49-2.31-2.49-1.4,0-2.4,0-2.42,1.76l-2-.21c0-2.81,2.61-3.13,4.41-3.13,3.25,0,4.35.92,4.35,4.07v6.06c0,.37,0,.41.37.46l1.17.16v1.24Zm-.39-5.26L59,12.49c-2,.18-2.52.75-2.52,1.94s.53,1.74,1.6,1.74a6,6,0,0,0,3.5-1.76Z"/><path class="cls-1" d="M74.24,17.09a8.65,8.65,0,0,1-3.18.71c-2.2,0-3.18-1-3.18-3.09V7.57c0-.14,0-.23-.18-.23H66V6c1.78-.23,2.29-.94,2.58-3.27H70V5.54c0,.14,0,.23.18.23h3.36V7.34H70v6.75c0,1.44.34,2,1.65,2a6,6,0,0,0,2.13-.46Z"/><path class="cls-1" d="M84.67,16.77a8.37,8.37,0,0,1-4.16,1c-4.14,0-5.49-2.72-5.49-6.13,0-4.19,2.33-6.13,5.21-6.13S84.95,7,84.95,11c0,.3,0,.75,0,1.14H77.21c.07,2.31,1,3.89,3.5,3.89A6.58,6.58,0,0,0,84,15.21Zm-1.81-6.2c0-2.61-1.23-3.36-2.63-3.36s-2.81.82-3,3.36Z"/><path class="cls-1" d="M95.49,17.52,95.31,16l-.09,0a5.55,5.55,0,0,1-4,1.81c-2.61,0-4.32-1.69-4.32-5.9,0-4.51,2-6.36,4.78-6.36a6.07,6.07,0,0,1,3.5,1.1V2.36a.43.43,0,0,0-.3-.46l-1.37-.43L93.69.25h3.5V15.67c0,.37,0,.41.37.46l1.17.16v1.24Zm-.39-9A5.34,5.34,0,0,0,92,7.25c-2.15,0-3,1.88-3,4.6C89,15,90,16.06,91.65,16.06a5.13,5.13,0,0,0,3.45-1.9Z"/><path class="cls-1" d="M105.13,17.52V16.26l1.42-.14c.32,0,.37-.11.37-.46V2.38c0-.25-.07-.41-.3-.48l-1.37-.43.21-1.21H109V15.67c0,.37,0,.41.37.46l1.37.16v1.24Z"/><path class="cls-1" d="M111.83,17.52V16.26l1.51-.14c.32,0,.37-.11.37-.46V7.89c0-.25-.07-.41-.3-.48L112.1,7l.21-1.21h3.48v9.9c0,.37,0,.41.37.46l1.46.16v1.24Zm2.61-14.3A1.34,1.34,0,0,1,113,1.76,1.34,1.34,0,0,1,114.44.32a1.32,1.32,0,0,1,1.46,1.44A1.33,1.33,0,0,1,114.44,3.23Z"/><path class="cls-1" d="M128,7.39a3.55,3.55,0,0,1,.85,2.38c0,2.7-2.08,4.21-4.76,4.21a5.76,5.76,0,0,1-1.94-.27l-1,2,2.81.16c4.12.23,6,.43,6,3.13,0,2.26-1.94,3.68-5.92,3.68s-5.33-1.08-5.33-2.81a3.59,3.59,0,0,1,1.4-2.58A1.26,1.26,0,0,1,119,16a2.34,2.34,0,0,1,.5-1.26c.37-.53.85-1.1,1.26-1.65a3.54,3.54,0,0,1-1.72-3.25c0-2.56,1.85-4.35,5-4.35a7.93,7.93,0,0,1,2,.23h4.07V7.23Zm-6.29,10.25a3,3,0,0,0-1,1.9c0,1.24,1.28,1.51,3.52,1.53,1.21,0,3.55-.18,3.55-1.92,0-1.08-.89-1.17-2.38-1.3ZM124.09,7.2c-1.67,0-2.86.82-2.86,2.61,0,1.35.78,2.45,2.79,2.45a2.51,2.51,0,0,0,2.79-2.58C126.81,8.12,125.81,7.2,124.09,7.2Z"/><path class="cls-1" d="M138.94,17.52V16.26l1.1-.14c.3,0,.41-.14.41-.46V10.34c0-1.69-.3-3-1.92-3a6.22,6.22,0,0,0-3.61,1.49v6.88c0,.37,0,.41.37.46l1.28.16v1.24h-5.24V16.26l1.14-.14c.32,0,.37-.11.37-.46V2.38c0-.25-.07-.41-.3-.48l-1.37-.43.21-1.21h3.52V7A6.93,6.93,0,0,1,139,5.54c2.45,0,3.52,1.58,3.52,4.16v6c0,.37,0,.41.37.46l1.3.16v1.24Z"/><path class="cls-1" d="M153.45,17.09a8.65,8.65,0,0,1-3.18.71c-2.2,0-3.18-1-3.18-3.09V7.57c0-.14,0-.23-.18-.23h-1.67V6c1.78-.23,2.29-.94,2.58-3.27h1.35V5.54c0,.14,0,.23.18.23h3.36V7.34h-3.55v6.75c0,1.44.34,2,1.65,2a6,6,0,0,0,2.13-.46Z"/><path class="cls-1" d="M161.09,17.52a22.73,22.73,0,0,0,.27-3.27V2.38c0-.25-.07-.41-.3-.48l-1.35-.43.21-1.21h3.52V6.86a7.08,7.08,0,0,1,3.91-1.33c2.56,0,4.32,1.65,4.32,5.67,0,4.71-1.94,6.59-4.83,6.59a5,5,0,0,1-3.54-1.42l-.07,0-.11,1.1Zm2.36-2.93a5,5,0,0,0,3.13,1.49c2.15,0,3-1.78,3-4.69s-1.14-4.12-2.77-4.12a6.09,6.09,0,0,0-3.36,1.28Z"/><path class="cls-1" d="M183,17.52,182.82,16l0,0a6.58,6.58,0,0,1-4.41,1.85c-2.52,0-3.29-1.53-3.29-4.16V7.82c0-.37,0-.46-.37-.53L173.51,7l.18-1.24h3.45v7.39c0,2,.34,3,1.78,3a5.23,5.23,0,0,0,3.68-2V7.8c0-.37,0-.44-.37-.5L181.1,7l.18-1.24h3.41v9.88c0,.34.07.46.32.48l1.21.16v1.24Z"/><path class="cls-1" d="M187.7,17.52V16.26l1.42-.14c.32,0,.37-.11.37-.46V2.38c0-.25-.07-.41-.3-.48l-1.37-.43L188,.25h3.55V15.67c0,.37,0,.41.37.46l1.37.16v1.24Z"/><path class="cls-1" d="M195.73,17.52a22.73,22.73,0,0,0,.27-3.27V2.38c0-.25-.07-.41-.3-.48l-1.35-.43.21-1.21h3.52V6.86A7.08,7.08,0,0,1,202,5.54c2.56,0,4.32,1.65,4.32,5.67,0,4.71-1.94,6.59-4.83,6.59a5,5,0,0,1-3.55-1.42l-.07,0-.11,1.1Zm2.36-2.93a5,5,0,0,0,3.13,1.49c2.15,0,3-1.78,3-4.69s-1.14-4.12-2.77-4.12a6.09,6.09,0,0,0-3.36,1.28Z"/><path class="cls-1" d="M215.22,9l-.27-1.42c0-.16,0-.25-.23-.3a5.93,5.93,0,0,0-1.78-.25c-1.67,0-2.42.73-2.42,1.72,0,1.3,1.37,1.58,2.86,2,1.78.46,3.73,1,3.73,3.48,0,2.65-2.22,3.57-4.64,3.57a11,11,0,0,1-4.14-.78V14l1.53.09.27,1.58a.33.33,0,0,0,.27.32,6.45,6.45,0,0,0,2.24.37c1.53,0,2.52-.57,2.52-1.81s-1.3-1.69-2.77-2c-1.78-.41-3.8-.87-3.8-3.38s2.2-3.57,4.55-3.57a10.56,10.56,0,0,1,3.61.64v3Z"/><path class="cls-1" d="M233.38,16.83a7.7,7.7,0,0,1-3.91,1c-3.91,0-5.58-2.4-5.58-6,0-4.35,2.52-6.24,6-6.24a8.39,8.39,0,0,1,3.48.71v3l-1.53-.07-.27-1.51a.33.33,0,0,0-.27-.32,5.2,5.2,0,0,0-1.56-.21c-2,0-3.66,1.19-3.66,4.46s1.51,4.44,3.73,4.44a6.11,6.11,0,0,0,2.93-.75Z"/><path class="cls-1" d="M242.56,17.52,242.35,16l-.07,0a5.83,5.83,0,0,1-4.14,1.78c-2.86,0-3.23-2-3.23-3.13,0-2.29,1.42-3.36,4.16-3.59l3.09-.25V9.61c0-1.67-.32-2.49-2.31-2.49-1.4,0-2.4,0-2.42,1.76l-2-.21c0-2.81,2.61-3.13,4.41-3.13,3.25,0,4.35.92,4.35,4.07v6.06c0,.37,0,.41.37.46l1.17.16v1.24Zm-.39-5.26-2.58.23c-2,.18-2.52.75-2.52,1.94s.53,1.74,1.6,1.74a6,6,0,0,0,3.5-1.76Z"/><path class="cls-1" d="M254.82,17.52V16.26l1.1-.14c.3,0,.41-.14.41-.46V10.25c0-1.49-.3-2.93-2-2.93a5.77,5.77,0,0,0-3.55,1.46v6.88c0,.37,0,.41.37.46l1.28.16v1.24H247.2V16.26l1.14-.14c.32,0,.37-.11.37-.46V7.89c0-.25-.07-.41-.3-.48L247.11,7l.21-1.21h3l.18,1.35.07,0a7.33,7.33,0,0,1,4.23-1.6c2.63,0,3.61,1.69,3.61,4.19v5.95c0,.37,0,.41.37.46l1.3.16v1.24Z"/><path class="cls-1" d="M267.66,17.52a22.73,22.73,0,0,0,.27-3.27V2.38c0-.25-.07-.41-.3-.48l-1.35-.43.21-1.21H270V6.86a7.08,7.08,0,0,1,3.91-1.33c2.56,0,4.32,1.65,4.32,5.67,0,4.71-1.94,6.59-4.83,6.59a5,5,0,0,1-3.55-1.42l-.07,0-.11,1.1ZM270,14.59a5,5,0,0,0,3.13,1.49c2.15,0,3-1.78,3-4.69S275,7.27,273.37,7.27A6.09,6.09,0,0,0,270,8.55Z"/><path class="cls-1" d="M289.8,16.77a8.37,8.37,0,0,1-4.16,1c-4.14,0-5.49-2.72-5.49-6.13,0-4.19,2.33-6.13,5.21-6.13S290.07,7,290.07,11c0,.3,0,.75,0,1.14h-7.69c.07,2.31,1,3.89,3.5,3.89a6.58,6.58,0,0,0,3.29-.82ZM288,10.57c0-2.61-1.23-3.36-2.63-3.36s-2.81.82-3,3.36Z"/><path class="cls-1" d="M296.6,17.52V16.26l1.51-.14c.32,0,.37-.11.37-.46V7.89c0-.25-.07-.41-.3-.48L296.87,7l.21-1.21h3.48v9.9c0,.37,0,.41.37.46l1.46.16v1.24Zm2.61-14.3a1.34,1.34,0,0,1-1.49-1.46A1.34,1.34,0,0,1,299.2.32a1.32,1.32,0,0,1,1.46,1.44A1.33,1.33,0,0,1,299.2,3.23Z"/><path class="cls-1" d="M311.37,17.52V16.26l1.1-.14c.3,0,.41-.14.41-.46V10.25c0-1.49-.3-2.93-2-2.93a5.77,5.77,0,0,0-3.55,1.46v6.88c0,.37,0,.41.37.46l1.28.16v1.24h-5.24V16.26l1.14-.14c.32,0,.37-.11.37-.46V7.89c0-.25-.07-.41-.3-.48L303.67,7l.21-1.21h3l.18,1.35.07,0a7.33,7.33,0,0,1,4.23-1.6C314,5.54,315,7.23,315,9.72v5.95c0,.37,0,.41.37.46l1.3.16v1.24Z"/><path class="cls-1" d="M327.78,16.77a8.37,8.37,0,0,1-4.16,1c-4.14,0-5.49-2.72-5.49-6.13,0-4.19,2.33-6.13,5.21-6.13S328.05,7,328.05,11c0,.3,0,.75,0,1.14h-7.69c.07,2.31,1,3.89,3.5,3.89a6.58,6.58,0,0,0,3.29-.82ZM326,10.57c0-2.61-1.24-3.36-2.63-3.36s-2.81.82-3,3.36Z"/><path class="cls-1" d="M329.82,17.52V16.26l1.46-.14c.32,0,.37-.11.37-.46V7.57c0-.14,0-.23-.18-.23h-1.65V5.76h1.83V4c0-2.68,1.35-4,4.19-4,1.88,0,3.43.46,3.43,2.72L337.32,3c0-1.21-.53-1.44-1.58-1.44-1.69,0-2,.92-2,2.4V5.54c0,.16,0,.23.18.23h3.75V7.34h-3.93v8.28c0,.37,0,.43.37.46l2.68.21v1.24Z"/><path class="cls-1" d="M339.11,17.52V16.26l1.46-.14c.32,0,.37-.11.37-.46V7.57c0-.14,0-.23-.18-.23h-1.65V5.76h1.83V4c0-2.68,1.35-4,4.19-4,1.88,0,3.43.46,3.43,2.72L346.61,3c0-1.21-.53-1.44-1.58-1.44-1.69,0-2,.92-2,2.4V5.54c0,.16,0,.23.18.23H347V7.34H343v8.28c0,.37,0,.43.37.46l2.68.21v1.24Z"/><path class="cls-1" d="M348.53,17.52V16.26l1.51-.14c.32,0,.37-.11.37-.46V7.89c0-.25-.07-.41-.3-.48L348.8,7,349,5.76h3.48v9.9c0,.37,0,.41.37.46l1.46.16v1.24Zm2.61-14.3a1.34,1.34,0,0,1-1.49-1.46A1.34,1.34,0,0,1,351.14.32a1.32,1.32,0,0,1,1.46,1.44A1.33,1.33,0,0,1,351.14,3.23Z"/><path class="cls-1" d="M364.91,16.83a7.7,7.7,0,0,1-3.91,1c-3.91,0-5.58-2.4-5.58-6,0-4.35,2.52-6.24,6-6.24a8.39,8.39,0,0,1,3.48.71v3l-1.53-.07-.27-1.51a.33.33,0,0,0-.27-.32,5.21,5.21,0,0,0-1.56-.21c-2,0-3.66,1.19-3.66,4.46s1.51,4.44,3.73,4.44a6.11,6.11,0,0,0,2.93-.75Z"/><path class="cls-1" d="M366.22,17.52V16.26l1.51-.14c.32,0,.37-.11.37-.46V7.89c0-.25-.07-.41-.3-.48L366.49,7l.21-1.21h3.48v9.9c0,.37,0,.41.37.46l1.46.16v1.24Zm2.61-14.3a1.34,1.34,0,0,1-1.49-1.46A1.34,1.34,0,0,1,368.82.32a1.32,1.32,0,0,1,1.46,1.44A1.33,1.33,0,0,1,368.82,3.23Z"/><path class="cls-1" d="M382.75,16.77a8.37,8.37,0,0,1-4.16,1c-4.14,0-5.49-2.72-5.49-6.13,0-4.19,2.33-6.13,5.21-6.13S383,7,383,11c0,.3,0,.75,0,1.14H375.3c.07,2.31,1,3.89,3.5,3.89a6.58,6.58,0,0,0,3.29-.82Zm-1.81-6.2c0-2.61-1.24-3.36-2.63-3.36s-2.81.82-3,3.36Z"/><path class="cls-1" d="M392.46,17.52V16.26l1.1-.14c.3,0,.41-.14.41-.46V10.25c0-1.49-.3-2.93-2-2.93a5.77,5.77,0,0,0-3.54,1.46v6.88c0,.37,0,.41.37.46l1.28.16v1.24h-5.24V16.26l1.14-.14c.32,0,.37-.11.37-.46V7.89c0-.25-.07-.41-.3-.48L384.75,7,385,5.76h3l.18,1.35.07,0a7.33,7.33,0,0,1,4.23-1.6c2.63,0,3.61,1.69,3.61,4.19v5.95c0,.37,0,.41.37.46l1.3.16v1.24Z"/><path class="cls-1" d="M407,17.09a8.65,8.65,0,0,1-3.18.71c-2.2,0-3.18-1-3.18-3.09V7.57c0-.14,0-.23-.18-.23h-1.67V6c1.78-.23,2.29-.94,2.58-3.27h1.35V5.54c0,.14,0,.23.18.23h3.36V7.34h-3.54v6.75c0,1.44.34,2,1.65,2a6,6,0,0,0,2.13-.46Z"/><path class="cls-1" d="M410,17.79a1.31,1.31,0,0,1-1.51-1.44,1.51,1.51,0,0,1,3,0A1.31,1.31,0,0,1,410,17.79Z"/></svg>