<svg id="Layer_1" data-name="Layer 1" xmlns="http://www.w3.org/2000/svg" viewBox="0 0 148.73 22.67"><defs><style>.cls-1{fill:#fff;}</style></defs><title>Artboard 1</title><path class="cls-1" d="M4.7,11.29v1.39h-2V11.4A7.56,7.56,0,0,1,0,10.84V8.31H1.72l.2,1.11c.05.22.1.28.3.34a3.84,3.84,0,0,0,1.17.15C4.44,9.91,5,9.51,5,8.79,5,6.75.09,8,.09,4.47a3,3,0,0,1,2.65-3V.27h2V1.43A8.86,8.86,0,0,1,7,1.88v2.7L5.23,4.4,5,3.36c0-.23-.11-.28-.31-.34a3.59,3.59,0,0,0-.9-.08c-.91,0-1.56.31-1.56,1.05,0,1.93,4.89.81,4.89,4.35A2.83,2.83,0,0,1,4.7,11.29Z"/><path class="cls-1" d="M13.08,8.25,12.7,12A6.33,6.33,0,0,1,16.14,11c3.16,0,5.22,1.84,5.22,5.52,0,3.33-2.3,6.11-6.65,6.11a9.14,9.14,0,0,1-6.82-2.49l2.16-2.46a5.78,5.78,0,0,0,4.3,1.84,2.69,2.69,0,0,0,2.92-2.87,2.31,2.31,0,0,0-2.51-2.62,3.58,3.58,0,0,0-2.6,1.16L9.48,14.12l.6-9.28h7.06c.24,0,.3-.13.35-.32L17.84,3l2.41-.16V8.25Z"/><path class="cls-1" d="M23.31,12.58c0-4.9,1.94-8.14,7.3-8.14s6.93,3.22,6.93,7.92c0,5.06-1.84,8.39-7.25,8.39S23.31,17.45,23.31,12.58Zm9.9-.05c0-3.71-.68-5.14-2.68-5.14s-2.87,1.46-2.87,5.24.68,5.23,2.79,5.23S33.21,16.31,33.21,12.53Z"/><path class="cls-1" d="M39.59,12.58c0-4.9,1.95-8.14,7.3-8.14s6.93,3.22,6.93,7.92c0,5.06-1.84,8.39-7.25,8.39S39.59,17.45,39.59,12.58Zm9.9-.05c0-3.71-.68-5.14-2.68-5.14s-2.87,1.46-2.87,5.24.68,5.23,2.79,5.23S49.49,16.31,49.49,12.53Z"/><path class="cls-1" d="M61,20.43v-2.2l1.22-.16c.38-.05.43-.13.43-.54V9.6c0-.29-.08-.48-.35-.56l-1.46-.52.3-2.19h4.76l.32,2.17h.17a4.53,4.53,0,0,1,3.81-2.44,13,13,0,0,1,2.35.24v4.93l-3.24-.11-.27-1.43c-.06-.25-.14-.3-.35-.3a3.55,3.55,0,0,0-2,.94V17.5c0,.44,0,.52.43.55l2.68.21v2.17Z"/><path class="cls-1" d="M86.25,19.37a12.67,12.67,0,0,1-5.54,1.38c-5.23,0-7-3.25-7-7.47,0-4.89,3-7.22,6.71-7.22s6,1.87,6,6.55c0,.32,0,1.27,0,1.81H78c.13,1.92,1,3.19,3.19,3.19a11.46,11.46,0,0,0,4-.92Zm-3.89-7.52c0-2.27-.92-2.87-2-2.87s-2.11.65-2.28,2.87Z"/><path class="cls-1" d="M88.58,20.43a27.81,27.81,0,0,0,.4-3.95V3.27c0-.29-.08-.48-.35-.56l-1.49-.52L87.44,0H93V7.49l.11,0a6.13,6.13,0,0,1,4.09-1.46c2.92,0,5.22,1.89,5.22,6.93,0,5.57-2.36,7.76-5.68,7.76a5.24,5.24,0,0,1-4-1.7l-.14,0-.19,1.36ZM93,16.53a3.85,3.85,0,0,0,2.49,1c1.78,0,2.62-1.67,2.62-4.38,0-2.11-.67-3.95-2.49-3.95A5.13,5.13,0,0,0,93,10.2Z"/><path class="cls-1" d="M112.76,20.43,112.49,19l-.14,0a6.09,6.09,0,0,1-4.54,1.81c-3.41,0-4-2.33-4-4,0-2.71,1.68-3.95,5.06-4.17l3.11-.22V10.88c0-1.28-.14-2.14-1.81-2.14-1.3,0-2,.19-2,1.81l-3.81-.32c0-3.66,3.32-4.17,5.81-4.17,4.11,0,5.77,1.11,5.77,4.9v6.57c0,.43,0,.49.43.54l1.3.22v2.14ZM112,14.61l-1.84.13c-1.6.11-2.17.52-2.17,1.6a1.36,1.36,0,0,0,1.55,1.49,4.44,4.44,0,0,0,2.46-1Z"/><path class="cls-1" d="M128.93,19.67a10.73,10.73,0,0,1-4.41,1.08c-3.21,0-4.43-1.3-4.43-4.36V9.31c0-.17,0-.27-.22-.27H118V6.63c2.38-.27,3.33-1.46,3.62-4.41h2.57V6.06c0,.19,0,.27.22.27h3.81V9h-4V15.5c0,1.6.38,2.22,1.84,2.22a6.51,6.51,0,0,0,2.19-.43Z"/><path class="cls-1" d="M142,19.37a12.64,12.64,0,0,1-5.54,1.38c-5.22,0-7-3.25-7-7.47,0-4.89,3-7.22,6.71-7.22s6,1.87,6,6.55c0,.32,0,1.27-.05,1.81h-8.28c.13,1.92,1,3.19,3.19,3.19a11.42,11.42,0,0,0,4-.92Zm-3.89-7.52c0-2.27-.92-2.87-2-2.87s-2.11.65-2.28,2.87Z"/><path class="cls-1" d="M146.43,20.75c-1.56,0-2.32-.7-2.32-2.11s.76-2.11,2.32-2.11,2.3.73,2.3,2.11S148,20.75,146.43,20.75Z"/></svg>