<svg id="Layer_2" data-name="Layer 2" xmlns="http://www.w3.org/2000/svg" viewBox="0 0 219.84 22.42"><defs><style>.cls-1{fill:#fff;}</style></defs><title>Artboard 1</title><path class="cls-1" d="M1.37,17.27A22.73,22.73,0,0,0,1.65,14V2.13c0-.25-.07-.41-.3-.48L0,1.21.21,0H3.73V6.61A7.08,7.08,0,0,1,7.64,5.28C10.2,5.28,12,6.93,12,11c0,4.71-1.94,6.59-4.83,6.59a5,5,0,0,1-3.55-1.42l-.07,0-.11,1.1Zm2.36-2.93a5,5,0,0,0,3.13,1.49c2.15,0,3-1.78,3-4.69S8.71,7,7.09,7A6.09,6.09,0,0,0,3.73,8.3Z"/><path class="cls-1" d="M13.54,17.27V16l1.51-.14c.32,0,.37-.11.37-.46V7.64c0-.25-.07-.41-.3-.48l-1.3-.43L14,5.51H17.5v9.9c0,.37,0,.41.37.46l1.46.16v1.24ZM16.15,3a1.34,1.34,0,0,1-1.49-1.46A1.34,1.34,0,0,1,16.15.07a1.32,1.32,0,0,1,1.46,1.44A1.33,1.33,0,0,1,16.15,3Z"/><path class="cls-1" d="M29.72,7.14a3.55,3.55,0,0,1,.85,2.38c0,2.7-2.08,4.21-4.76,4.21a5.76,5.76,0,0,1-1.94-.27l-1,2,2.81.16c4.12.23,6,.43,6,3.13,0,2.26-1.94,3.68-5.92,3.68s-5.33-1.08-5.33-2.81A3.59,3.59,0,0,1,21.76,17a1.26,1.26,0,0,1-1-1.23,2.34,2.34,0,0,1,.5-1.26c.37-.53.85-1.1,1.26-1.65A3.54,3.54,0,0,1,20.8,9.63c0-2.56,1.85-4.35,5-4.35a8,8,0,0,1,2,.23h4.07V7ZM23.43,17.38a3,3,0,0,0-1,1.9c0,1.24,1.28,1.51,3.52,1.53,1.21,0,3.55-.18,3.55-1.92,0-1.08-.89-1.17-2.38-1.3ZM25.81,7c-1.67,0-2.86.82-2.86,2.61,0,1.35.78,2.45,2.79,2.45a2.51,2.51,0,0,0,2.79-2.58C28.53,7.87,27.52,7,25.81,7Z"/><path class="cls-1" d="M42.12,7.14A3.55,3.55,0,0,1,43,9.52c0,2.7-2.08,4.21-4.76,4.21a5.76,5.76,0,0,1-1.94-.27l-1,2L38,15.6c4.12.23,6,.43,6,3.13,0,2.26-1.94,3.68-5.92,3.68s-5.33-1.08-5.33-2.81A3.59,3.59,0,0,1,34.16,17a1.26,1.26,0,0,1-1-1.23,2.34,2.34,0,0,1,.5-1.26c.37-.53.85-1.1,1.26-1.65A3.54,3.54,0,0,1,33.2,9.63c0-2.56,1.85-4.35,5-4.35a8,8,0,0,1,2,.23h4.07V7ZM35.83,17.38a3,3,0,0,0-1,1.9c0,1.24,1.28,1.51,3.52,1.53,1.21,0,3.55-.18,3.55-1.92,0-1.08-.89-1.17-2.38-1.3ZM38.21,7c-1.67,0-2.86.82-2.86,2.61,0,1.35.78,2.45,2.79,2.45a2.51,2.51,0,0,0,2.79-2.58C40.93,7.87,39.92,7,38.21,7Z"/><path class="cls-1" d="M55,16.51a8.37,8.37,0,0,1-4.16,1c-4.14,0-5.49-2.72-5.49-6.13,0-4.19,2.33-6.13,5.21-6.13s4.71,1.51,4.71,5.47c0,.3,0,.75,0,1.14H47.52c.07,2.31,1,3.89,3.5,3.89A6.58,6.58,0,0,0,54.31,15Zm-1.81-6.2C53.12,7.71,51.93,7,50.54,7s-2.81.82-3,3.36Z"/><path class="cls-1" d="M63.9,8.78l-.27-1.42c0-.16,0-.25-.23-.3a5.94,5.94,0,0,0-1.78-.25c-1.67,0-2.42.73-2.42,1.72,0,1.3,1.37,1.58,2.86,2,1.78.46,3.73,1,3.73,3.48,0,2.65-2.22,3.57-4.64,3.57A11,11,0,0,1,57,16.77v-3l1.53.09.27,1.58a.33.33,0,0,0,.27.32,6.45,6.45,0,0,0,2.24.37c1.53,0,2.52-.57,2.52-1.81s-1.3-1.69-2.77-2c-1.78-.41-3.8-.87-3.8-3.38s2.2-3.57,4.55-3.57a10.56,10.56,0,0,1,3.61.64v3Z"/><path class="cls-1" d="M75.36,16.83a8.65,8.65,0,0,1-3.18.71c-2.2,0-3.18-1-3.18-3.09V7.32c0-.14,0-.23-.18-.23H67.15V5.76c1.78-.23,2.29-.94,2.58-3.27h1.35V5.28c0,.14,0,.23.18.23h3.36V7.09H71.08v6.75c0,1.44.34,2,1.65,2a6,6,0,0,0,2.13-.46Z"/><path class="cls-1" d="M91.65,16.51a8.37,8.37,0,0,1-4.16,1c-4.14,0-5.49-2.72-5.49-6.13,0-4.19,2.33-6.13,5.21-6.13s4.71,1.51,4.71,5.47c0,.3,0,.75,0,1.14H84.19c.07,2.31,1,3.89,3.5,3.89A6.58,6.58,0,0,0,91,15Zm-1.81-6.2C89.8,7.71,88.61,7,87.21,7s-2.81.82-3,3.36Z"/><path class="cls-1" d="M101.35,17.27V16l1.1-.14c.3,0,.41-.14.41-.46V10c0-1.49-.3-2.93-2-2.93a5.77,5.77,0,0,0-3.55,1.46v6.88c0,.37,0,.41.37.46L99,16v1.24H93.73V16l1.14-.14c.32,0,.37-.11.37-.46V7.64c0-.25-.07-.41-.3-.48l-1.3-.43.21-1.21h3L97,6.86l.07,0a7.34,7.34,0,0,1,4.23-1.6c2.63,0,3.61,1.69,3.61,4.19v5.95c0,.37,0,.41.37.46l1.3.16v1.24Z"/><path class="cls-1" d="M117.75,16.51a8.37,8.37,0,0,1-4.16,1c-4.14,0-5.49-2.72-5.49-6.13,0-4.19,2.33-6.13,5.21-6.13S118,6.79,118,10.75c0,.3,0,.75,0,1.14H110.3c.07,2.31,1,3.89,3.5,3.89a6.58,6.58,0,0,0,3.29-.82Zm-1.81-6.2c0-2.61-1.23-3.36-2.63-3.36s-2.81.82-3,3.36Z"/><path class="cls-1" d="M119.84,17.27V16l1.14-.14c.32,0,.37-.11.37-.46V7.64c0-.25-.07-.41-.3-.48l-1.3-.43L120,5.51h3l.23,1.58.07,0a4.68,4.68,0,0,1,3.43-1.83,7.2,7.2,0,0,1,1.65.21V8.94l-1.62-.07-.27-1.58c0-.18-.07-.23-.27-.23a4.76,4.76,0,0,0-2.72,1.44v6.88c0,.37,0,.43.37.46l2.1.18v1.24Z"/><path class="cls-1" d="M138.64,7.14a3.55,3.55,0,0,1,.85,2.38c0,2.7-2.08,4.21-4.76,4.21a5.76,5.76,0,0,1-1.94-.27l-1,2,2.81.16c4.12.23,6,.43,6,3.13,0,2.26-1.94,3.68-5.92,3.68s-5.33-1.08-5.33-2.81a3.59,3.59,0,0,1,1.4-2.58,1.26,1.26,0,0,1-1-1.23,2.34,2.34,0,0,1,.5-1.26c.37-.53.85-1.1,1.26-1.65a3.54,3.54,0,0,1-1.72-3.25c0-2.56,1.85-4.35,5-4.35a8,8,0,0,1,2,.23h4.07V7Zm-6.29,10.25a3,3,0,0,0-1,1.9c0,1.24,1.28,1.51,3.52,1.53,1.21,0,3.55-.18,3.55-1.92,0-1.08-.89-1.17-2.38-1.3ZM134.73,7c-1.67,0-2.86.82-2.86,2.61,0,1.35.78,2.45,2.79,2.45a2.51,2.51,0,0,0,2.79-2.58C137.45,7.87,136.45,7,134.73,7Z"/><path class="cls-1" d="M143.24,22.12V20.86l1.65-.21c.27,0,.37-.16.5-.48l1.33-3L142.6,7.39c-.11-.27-.21-.32-.48-.39l-.94-.23.27-1.26h4.73V6.77L144.68,7l3,7.68L150.9,7l-1.56-.18.25-1.26h4.53V6.77l-.78.11a.66.66,0,0,0-.57.39l-5.56,13.38,2.22.23v1.23Z"/><path class="cls-1" d="M169.12,17.27l-.18-1.51-.09,0a5.55,5.55,0,0,1-4,1.81c-2.61,0-4.32-1.69-4.32-5.9,0-4.51,2-6.36,4.78-6.36a6.06,6.06,0,0,1,3.5,1.1V2.1a.43.43,0,0,0-.3-.46l-1.37-.43L167.31,0h3.5V15.42c0,.37,0,.41.37.46l1.17.16v1.24Zm-.39-9A5.34,5.34,0,0,0,165.59,7c-2.15,0-3,1.88-3,4.6,0,3.18,1.08,4.21,2.68,4.21a5.13,5.13,0,0,0,3.45-1.9Z"/><path class="cls-1" d="M173.94,17.27V16l1.14-.14c.32,0,.37-.11.37-.46V7.64c0-.25-.07-.41-.3-.48l-1.3-.43.21-1.21h3l.23,1.58.07,0a4.68,4.68,0,0,1,3.43-1.83,7.2,7.2,0,0,1,1.65.21V8.94l-1.62-.07-.27-1.58c0-.18-.07-.23-.27-.23a4.76,4.76,0,0,0-2.72,1.44v6.88c0,.37,0,.43.37.46L180,16v1.24Z"/><path class="cls-1" d="M191,17.27l-.21-1.49-.07,0a5.83,5.83,0,0,1-4.14,1.78c-2.86,0-3.23-2-3.23-3.13,0-2.29,1.42-3.36,4.16-3.59l3.09-.25V9.36c0-1.67-.32-2.49-2.31-2.49-1.4,0-2.4,0-2.42,1.76l-2-.21c0-2.81,2.61-3.13,4.41-3.13,3.25,0,4.35.92,4.35,4.07v6.06c0,.37,0,.41.37.46l1.17.16v1.24ZM190.62,12l-2.58.23c-2,.18-2.52.75-2.52,1.94s.53,1.74,1.6,1.74a6,6,0,0,0,3.5-1.76Z"/><path class="cls-1" d="M195.29,17.27V16l1.51-.14c.32,0,.37-.11.37-.46V7.64c0-.25-.07-.41-.3-.48l-1.3-.43.21-1.21h3.48v9.9c0,.37,0,.41.37.46l1.46.16v1.24ZM197.9,3a1.34,1.34,0,0,1-1.49-1.46A1.34,1.34,0,0,1,197.9.07a1.32,1.32,0,0,1,1.46,1.44A1.33,1.33,0,0,1,197.9,3Z"/><path class="cls-1" d="M210.07,17.27V16l1.1-.14c.3,0,.41-.14.41-.46V10c0-1.49-.3-2.93-2-2.93A5.77,5.77,0,0,0,206,8.53v6.88c0,.37,0,.41.37.46l1.28.16v1.24h-5.24V16l1.14-.14c.32,0,.37-.11.37-.46V7.64c0-.25-.07-.41-.3-.48l-1.3-.43.21-1.21h3l.18,1.35.07,0A7.34,7.34,0,0,1,210,5.28c2.63,0,3.61,1.69,3.61,4.19v5.95c0,.37,0,.41.37.46l1.3.16v1.24Z"/><path class="cls-1" d="M218.33,17.54a1.31,1.31,0,0,1-1.51-1.44,1.51,1.51,0,0,1,3,0A1.31,1.31,0,0,1,218.33,17.54Z"/></svg>