<svg id="Layer_2" data-name="Layer 2" xmlns="http://www.w3.org/2000/svg" viewBox="0 0 349.06 22.37"><defs><style>.cls-1{fill:#fff;}</style></defs><title>Artboard 1</title><path class="cls-1" d="M0,9.15C0,4.3,2.74.66,8,.66S15.48,4.3,15.48,8.9c0,5.4-2.61,8.9-7.85,8.9S0,14.2,0,9.15Zm13.31,0c0-4.39-2.08-6.7-5.4-6.7S2.17,4.76,2.17,9.15c0,4.6,2.22,6.88,5.58,6.88S13.31,13.84,13.31,9.13Z"/><path class="cls-1" d="M17.27,17.52V16.26l1.42-.14c.32,0,.37-.11.37-.46V2.38c0-.25-.07-.41-.3-.48l-1.37-.43L17.59.25h3.55V15.67c0,.37,0,.41.37.46l1.37.16v1.24Z"/><path class="cls-1" d="M33,17.52,32.81,16l-.09,0a5.55,5.55,0,0,1-4,1.81c-2.61,0-4.32-1.69-4.32-5.9,0-4.51,2-6.36,4.78-6.36a6.07,6.07,0,0,1,3.5,1.1V2.36a.43.43,0,0,0-.3-.46L31,1.46,31.18.25h3.5V15.67c0,.37,0,.41.37.46l1.17.16v1.24Zm-.39-9a5.34,5.34,0,0,0-3.13-1.23c-2.15,0-3,1.88-3,4.6,0,3.18,1.08,4.21,2.68,4.21a5.13,5.13,0,0,0,3.45-1.9Z"/><path class="cls-1" d="M50.63,17.52,50.42,16l-.07,0a5.83,5.83,0,0,1-4.14,1.78c-2.86,0-3.23-2-3.23-3.13,0-2.29,1.42-3.36,4.16-3.59l3.09-.25V9.61c0-1.67-.32-2.49-2.31-2.49-1.4,0-2.4,0-2.42,1.76l-2-.21c0-2.81,2.61-3.13,4.41-3.13,3.25,0,4.35.92,4.35,4.07v6.06c0,.37,0,.41.37.46l1.17.16v1.24Zm-.39-5.26-2.58.23c-2,.18-2.52.75-2.52,1.94s.53,1.74,1.6,1.74a6,6,0,0,0,3.5-1.76Z"/><path class="cls-1" d="M55.43,22.37V21.11l.94-.14c.32,0,.39-.11.39-.46V7.89c0-.25-.07-.41-.3-.48L55.16,7l.21-1.21h3l.21,1.33.07,0a6.72,6.72,0,0,1,4.09-1.58c2.56,0,4.3,1.65,4.3,5.67,0,3.43-1.17,6.59-4.76,6.59a4.93,4.93,0,0,1-3.48-1.26v4c0,.37,0,.43.37.46l2.15.18v1.23Zm3.39-7.78A4.78,4.78,0,0,0,62,16.08c2.17,0,3-1.81,3-4.69,0-3.11-1.21-4.09-2.63-4.09a6.11,6.11,0,0,0-3.5,1.42Z"/><path class="cls-1" d="M69.28,22.37V21.11l.94-.14c.32,0,.39-.11.39-.46V7.89c0-.25-.07-.41-.3-.48L69,7l.21-1.21h3l.21,1.33.07,0A6.72,6.72,0,0,1,76.6,5.54c2.56,0,4.3,1.65,4.3,5.67,0,3.43-1.17,6.59-4.76,6.59a4.93,4.93,0,0,1-3.48-1.26v4c0,.37,0,.43.37.46l2.15.18v1.23Zm3.39-7.78a4.78,4.78,0,0,0,3.13,1.49c2.17,0,3-1.81,3-4.69,0-3.11-1.21-4.09-2.63-4.09a6.11,6.11,0,0,0-3.5,1.42Z"/><path class="cls-1" d="M82.68,17.52V16.26l1.42-.14c.32,0,.37-.11.37-.46V2.38c0-.25-.07-.41-.3-.48L82.8,1.46,83,.25h3.55V15.67c0,.37,0,.41.37.46l1.37.16v1.24Z"/><path class="cls-1" d="M89.39,17.52V16.26l1.51-.14c.32,0,.37-.11.37-.46V7.89c0-.25-.07-.41-.3-.48L89.66,7l.21-1.21h3.48v9.9c0,.37,0,.41.37.46l1.46.16v1.24ZM92,3.23a1.34,1.34,0,0,1-1.49-1.46A1.34,1.34,0,0,1,92,.32a1.32,1.32,0,0,1,1.46,1.44A1.33,1.33,0,0,1,92,3.23Z"/><path class="cls-1" d="M104.28,17.52,104.07,16,104,16a5.83,5.83,0,0,1-4.14,1.78c-2.86,0-3.23-2-3.23-3.13,0-2.29,1.42-3.36,4.16-3.59l3.09-.25V9.61c0-1.67-.32-2.49-2.31-2.49-1.4,0-2.4,0-2.42,1.76l-2-.21c0-2.81,2.61-3.13,4.41-3.13,3.25,0,4.35.92,4.35,4.07v6.06c0,.37,0,.41.37.46l1.17.16v1.24Zm-.39-5.26-2.58.23c-2,.18-2.52.75-2.52,1.94s.53,1.74,1.6,1.74a6,6,0,0,0,3.5-1.76Z"/><path class="cls-1" d="M116.54,17.52V16.26l1.1-.14c.3,0,.41-.14.41-.46V10.25c0-1.49-.3-2.93-2-2.93a5.77,5.77,0,0,0-3.55,1.46v6.88c0,.37,0,.41.37.46l1.28.16v1.24h-5.24V16.26l1.14-.14c.32,0,.37-.11.37-.46V7.89c0-.25-.07-.41-.3-.48L108.83,7,109,5.76h3l.18,1.35.07,0a7.33,7.33,0,0,1,4.23-1.6c2.63,0,3.61,1.69,3.61,4.19v5.95c0,.37,0,.41.37.46l1.3.16v1.24Z"/><path class="cls-1" d="M132.79,16.83a7.7,7.7,0,0,1-3.91,1c-3.91,0-5.58-2.4-5.58-6,0-4.35,2.52-6.24,6-6.24a8.39,8.39,0,0,1,3.48.71v3l-1.53-.07L131,7.71a.33.33,0,0,0-.27-.32,5.2,5.2,0,0,0-1.56-.21c-2,0-3.66,1.19-3.66,4.46s1.51,4.44,3.73,4.44a6.11,6.11,0,0,0,2.93-.75Z"/><path class="cls-1" d="M143.81,16.77a8.37,8.37,0,0,1-4.16,1c-4.14,0-5.49-2.72-5.49-6.13,0-4.19,2.33-6.13,5.21-6.13S144.09,7,144.09,11c0,.3,0,.75,0,1.14h-7.69c.07,2.31,1,3.89,3.5,3.89a6.58,6.58,0,0,0,3.29-.82ZM142,10.57c0-2.61-1.23-3.36-2.63-3.36s-2.81.82-3,3.36Z"/><path class="cls-1" d="M152.74,9l-.27-1.42c0-.16,0-.25-.23-.3a5.93,5.93,0,0,0-1.78-.25c-1.67,0-2.42.73-2.42,1.72,0,1.3,1.37,1.58,2.86,2,1.78.46,3.73,1,3.73,3.48,0,2.65-2.22,3.57-4.64,3.57a11,11,0,0,1-4.14-.78V14l1.53.09.27,1.58a.33.33,0,0,0,.27.32,6.45,6.45,0,0,0,2.24.37c1.53,0,2.52-.57,2.52-1.81s-1.3-1.69-2.77-2c-1.78-.41-3.8-.87-3.8-3.38s2.2-3.57,4.55-3.57a10.56,10.56,0,0,1,3.61.64v3Z"/><path class="cls-1" d="M170.9,16.83a7.7,7.7,0,0,1-3.91,1c-3.91,0-5.58-2.4-5.58-6,0-4.35,2.52-6.24,6-6.24a8.39,8.39,0,0,1,3.48.71v3l-1.53-.07-.27-1.51a.33.33,0,0,0-.27-.32,5.2,5.2,0,0,0-1.56-.21c-2,0-3.66,1.19-3.66,4.46s1.51,4.44,3.73,4.44a6.11,6.11,0,0,0,2.93-.75Z"/><path class="cls-1" d="M180.08,17.52,179.87,16l-.07,0a5.83,5.83,0,0,1-4.14,1.78c-2.86,0-3.23-2-3.23-3.13,0-2.29,1.42-3.36,4.16-3.59l3.09-.25V9.61c0-1.67-.32-2.49-2.31-2.49-1.4,0-2.4,0-2.42,1.76l-2-.21c0-2.81,2.61-3.13,4.41-3.13,3.25,0,4.35.92,4.35,4.07v6.06c0,.37,0,.41.37.46l1.17.16v1.24Zm-.39-5.26-2.58.23c-2,.18-2.52.75-2.52,1.94s.53,1.74,1.6,1.74a6,6,0,0,0,3.5-1.76Z"/><path class="cls-1" d="M192.34,17.52V16.26l1.1-.14c.3,0,.41-.14.41-.46V10.25c0-1.49-.3-2.93-2-2.93a5.77,5.77,0,0,0-3.55,1.46v6.88c0,.37,0,.41.37.46l1.28.16v1.24h-5.24V16.26l1.14-.14c.32,0,.37-.11.37-.46V7.89c0-.25-.07-.41-.3-.48L184.63,7l.21-1.21h3L188,7.11l.07,0a7.33,7.33,0,0,1,4.23-1.6c2.63,0,3.61,1.69,3.61,4.19v5.95c0,.37,0,.41.37.46l1.3.16v1.24Z"/><path class="cls-1" d="M205.17,17.52a22.73,22.73,0,0,0,.27-3.27V2.38c0-.25-.07-.41-.3-.48l-1.35-.43L204,.25h3.52V6.86a7.08,7.08,0,0,1,3.91-1.33c2.56,0,4.32,1.65,4.32,5.67,0,4.71-1.94,6.59-4.83,6.59a5,5,0,0,1-3.55-1.42l-.07,0-.11,1.1Zm2.36-2.93a5,5,0,0,0,3.13,1.49c2.15,0,3-1.78,3-4.69s-1.14-4.12-2.77-4.12a6.09,6.09,0,0,0-3.36,1.28Z"/><path class="cls-1" d="M227.32,16.77a8.37,8.37,0,0,1-4.16,1c-4.14,0-5.49-2.72-5.49-6.13,0-4.19,2.33-6.13,5.21-6.13S227.59,7,227.59,11c0,.3,0,.75,0,1.14h-7.69c.07,2.31,1,3.89,3.5,3.89a6.58,6.58,0,0,0,3.29-.82Zm-1.81-6.2c0-2.61-1.23-3.36-2.63-3.36s-2.81.82-3,3.36Z"/><path class="cls-1" d="M234.12,17.52V16.26l1.51-.14c.32,0,.37-.11.37-.46V7.89c0-.25-.07-.41-.3-.48L234.39,7l.21-1.21h3.48v9.9c0,.37,0,.41.37.46l1.46.16v1.24Zm2.61-14.3a1.34,1.34,0,0,1-1.49-1.46A1.34,1.34,0,0,1,236.72.32a1.32,1.32,0,0,1,1.46,1.44A1.33,1.33,0,0,1,236.72,3.23Z"/><path class="cls-1" d="M248.89,17.52V16.26l1.1-.14c.3,0,.41-.14.41-.46V10.25c0-1.49-.3-2.93-2-2.93a5.77,5.77,0,0,0-3.55,1.46v6.88c0,.37,0,.41.37.46l1.28.16v1.24h-5.24V16.26l1.14-.14c.32,0,.37-.11.37-.46V7.89c0-.25-.07-.41-.3-.48L241.19,7l.21-1.21h3l.18,1.35.07,0a7.33,7.33,0,0,1,4.23-1.6c2.63,0,3.61,1.69,3.61,4.19v5.95c0,.37,0,.41.37.46l1.3.16v1.24Z"/><path class="cls-1" d="M265.3,16.77a8.37,8.37,0,0,1-4.16,1c-4.14,0-5.49-2.72-5.49-6.13,0-4.19,2.33-6.13,5.21-6.13S265.57,7,265.57,11c0,.3,0,.75,0,1.14h-7.69c.07,2.31,1,3.89,3.5,3.89a6.58,6.58,0,0,0,3.29-.82Zm-1.81-6.2c0-2.61-1.23-3.36-2.63-3.36s-2.81.82-3,3.36Z"/><path class="cls-1" d="M267.34,17.52V16.26l1.46-.14c.32,0,.37-.11.37-.46V7.57c0-.14,0-.23-.18-.23h-1.65V5.76h1.83V4c0-2.68,1.35-4,4.19-4,1.88,0,3.43.46,3.43,2.72L274.84,3c0-1.21-.53-1.44-1.58-1.44-1.69,0-2,.92-2,2.4V5.54c0,.16,0,.23.18.23h3.75V7.34h-3.93v8.28c0,.37,0,.43.37.46l2.68.21v1.24Z"/><path class="cls-1" d="M276.62,17.52V16.26l1.46-.14c.32,0,.37-.11.37-.46V7.57c0-.14,0-.23-.18-.23h-1.65V5.76h1.83V4c0-2.68,1.35-4,4.19-4,1.88,0,3.43.46,3.43,2.72L284.13,3c0-1.21-.53-1.44-1.58-1.44-1.69,0-2,.92-2,2.4V5.54c0,.16,0,.23.18.23h3.75V7.34h-3.93v8.28c0,.37,0,.43.37.46l2.68.21v1.24Z"/><path class="cls-1" d="M286,17.52V16.26l1.51-.14c.32,0,.37-.11.37-.46V7.89c0-.25-.07-.41-.3-.48L286.32,7l.21-1.21H290v9.9c0,.37,0,.41.37.46l1.46.16v1.24Zm2.61-14.3a1.34,1.34,0,0,1-1.49-1.46A1.34,1.34,0,0,1,288.66.32a1.32,1.32,0,0,1,1.46,1.44A1.33,1.33,0,0,1,288.66,3.23Z"/><path class="cls-1" d="M302.43,16.83a7.7,7.7,0,0,1-3.91,1c-3.91,0-5.58-2.4-5.58-6,0-4.35,2.52-6.24,6-6.24a8.38,8.38,0,0,1,3.48.71v3l-1.53-.07-.27-1.51a.33.33,0,0,0-.27-.32,5.2,5.2,0,0,0-1.56-.21c-2,0-3.66,1.19-3.66,4.46s1.51,4.44,3.73,4.44a6.11,6.11,0,0,0,2.93-.75Z"/><path class="cls-1" d="M303.73,17.52V16.26l1.51-.14c.32,0,.37-.11.37-.46V7.89c0-.25-.07-.41-.3-.48L304,7l.21-1.21h3.48v9.9c0,.37,0,.41.37.46l1.46.16v1.24Zm2.61-14.3a1.34,1.34,0,0,1-1.49-1.46A1.34,1.34,0,0,1,306.34.32a1.32,1.32,0,0,1,1.46,1.44A1.33,1.33,0,0,1,306.34,3.23Z"/><path class="cls-1" d="M320.27,16.77a8.36,8.36,0,0,1-4.16,1c-4.14,0-5.49-2.72-5.49-6.13,0-4.19,2.33-6.13,5.22-6.13S320.55,7,320.55,11c0,.3,0,.75,0,1.14h-7.69c.07,2.31,1,3.89,3.5,3.89a6.58,6.58,0,0,0,3.29-.82Zm-1.81-6.2c0-2.61-1.24-3.36-2.63-3.36s-2.81.82-3,3.36Z"/><path class="cls-1" d="M330,17.52V16.26l1.1-.14c.3,0,.41-.14.41-.46V10.25c0-1.49-.3-2.93-2-2.93a5.77,5.77,0,0,0-3.54,1.46v6.88c0,.37,0,.41.37.46l1.28.16v1.24h-5.24V16.26l1.14-.14c.32,0,.37-.11.37-.46V7.89c0-.25-.07-.41-.3-.48L322.27,7l.21-1.21h3l.18,1.35.07,0A7.33,7.33,0,0,1,330,5.54c2.63,0,3.61,1.69,3.61,4.19v5.95c0,.37,0,.41.37.46l1.3.16v1.24Z"/><path class="cls-1" d="M344.48,17.09a8.65,8.65,0,0,1-3.18.71c-2.2,0-3.18-1-3.18-3.09V7.57c0-.14,0-.23-.18-.23h-1.67V6c1.78-.23,2.29-.94,2.58-3.27h1.35V5.54c0,.14,0,.23.18.23h3.36V7.34H340.2v6.75c0,1.44.34,2,1.65,2a6,6,0,0,0,2.13-.46Z"/><path class="cls-1" d="M347.55,17.79A1.31,1.31,0,0,1,346,16.35a1.51,1.51,0,0,1,3,0A1.31,1.31,0,0,1,347.55,17.79Z"/></svg>