<svg id="Layer_2" data-name="Layer 2" xmlns="http://www.w3.org/2000/svg" viewBox="0 0 386.32 22.67"><defs><style>.cls-1{fill:#fff;}</style></defs><title>Artboard 1</title><path class="cls-1" d="M0,17.52V16.29l1.44-.16c.32,0,.37-.11.37-.46V2.84c0-.34,0-.43-.37-.46L0,2.22V1H6.82c3.91,0,5,1.78,5,4A3.9,3.9,0,0,1,9,8.85v.07c2.61.3,3.87,1.83,3.87,4.12,0,3.39-2.54,4.48-6.13,4.48ZM5.9,8.26c1.81,0,3.8-.53,3.8-3,0-2.1-1.17-2.65-3.45-2.65H3.89V8.26Zm.59,7.59c2.4,0,4.19-.41,4.19-3,0-2.22-1.62-3-3.73-3H3.89v6Z"/><path class="cls-1" d="M23.52,17.52,23.33,16l0,0a6.58,6.58,0,0,1-4.41,1.85c-2.52,0-3.29-1.53-3.29-4.16V7.82c0-.37,0-.46-.37-.53L14,7l.18-1.24h3.45v7.39c0,2,.34,3,1.78,3a5.23,5.23,0,0,0,3.68-2V7.8c0-.37,0-.44-.37-.5L21.62,7l.18-1.24h3.41v9.88c0,.34.07.46.32.48l1.21.16v1.24Z"/><path class="cls-1" d="M36.31,17.09a8.65,8.65,0,0,1-3.18.71c-2.2,0-3.18-1-3.18-3.09V7.57c0-.14,0-.23-.18-.23H28.1V6c1.78-.23,2.29-.94,2.58-3.27H32V5.54c0,.14,0,.23.18.23h3.36V7.34H32v6.75c0,1.44.34,2,1.65,2a6,6,0,0,0,2.13-.46Z"/><path class="cls-1" d="M50.61,17.52V16.26l1.1-.14c.3,0,.41-.14.41-.46V10.25c0-1.49-.3-2.93-2-2.93a5.77,5.77,0,0,0-3.55,1.46v6.88c0,.37,0,.41.37.46l1.28.16v1.24H43V16.26l1.14-.14c.32,0,.37-.11.37-.46V7.89c0-.25-.07-.41-.3-.48L42.9,7l.21-1.21h3l.18,1.35.07,0a7.33,7.33,0,0,1,4.23-1.6c2.63,0,3.61,1.69,3.61,4.19v5.95c0,.37,0,.41.37.46l1.3.16v1.24Z"/><path class="cls-1" d="M65.13,17.52,64.93,16l-.07,0a5.83,5.83,0,0,1-4.14,1.78c-2.86,0-3.23-2-3.23-3.13,0-2.29,1.42-3.36,4.16-3.59l3.09-.25V9.61c0-1.67-.32-2.49-2.31-2.49-1.4,0-2.4,0-2.42,1.76l-2-.21c0-2.81,2.61-3.13,4.41-3.13,3.25,0,4.35.92,4.35,4.07v6.06c0,.37,0,.41.37.46l1.17.16v1.24Zm-.39-5.26-2.58.23c-2,.18-2.52.75-2.52,1.94s.53,1.74,1.6,1.74a6,6,0,0,0,3.5-1.76Z"/><path class="cls-1" d="M77.37,17.09a8.65,8.65,0,0,1-3.18.71c-2.2,0-3.18-1-3.18-3.09V7.57c0-.14,0-.23-.18-.23H69.16V6c1.78-.23,2.29-.94,2.58-3.27H73.1V5.54c0,.14,0,.23.18.23h3.36V7.34H73.1v6.75c0,1.44.34,2,1.65,2a6,6,0,0,0,2.13-.46Z"/><path class="cls-1" d="M87.55,17.52,87.37,16l0,0a6.58,6.58,0,0,1-4.41,1.85c-2.52,0-3.29-1.53-3.29-4.16V7.82c0-.37,0-.46-.37-.53L78.06,7l.18-1.24H81.7v7.39c0,2,.34,3,1.78,3a5.23,5.23,0,0,0,3.68-2V7.8c0-.37,0-.44-.37-.5L85.66,7l.18-1.24h3.41v9.88c0,.34.07.46.32.48l1.21.16v1.24Z"/><path class="cls-1" d="M92.52,17.52V16.26l1.14-.14c.32,0,.37-.11.37-.46V7.89c0-.25-.07-.41-.3-.48L92.43,7l.21-1.21h3l.23,1.58.07,0a4.68,4.68,0,0,1,3.43-1.83,7.21,7.21,0,0,1,1.65.21V9.19l-1.62-.07-.27-1.58c0-.18-.07-.23-.27-.23a4.76,4.76,0,0,0-2.72,1.44v6.88c0,.37,0,.43.37.46l2.1.18v1.24Z"/><path class="cls-1" d="M109.59,17.52,109.38,16l-.07,0a5.83,5.83,0,0,1-4.14,1.78c-2.86,0-3.23-2-3.23-3.13,0-2.29,1.42-3.36,4.16-3.59l3.09-.25V9.61c0-1.67-.32-2.49-2.31-2.49-1.4,0-2.4,0-2.42,1.76l-2-.21c0-2.81,2.61-3.13,4.41-3.13,3.25,0,4.35.92,4.35,4.07v6.06c0,.37,0,.41.37.46l1.17.16v1.24Zm-.39-5.26-2.58.23c-2,.18-2.52.75-2.52,1.94s.53,1.74,1.6,1.74a6,6,0,0,0,3.5-1.76Z"/><path class="cls-1" d="M114,17.52V16.26l1.42-.14c.32,0,.37-.11.37-.46V2.38c0-.25-.07-.41-.3-.48l-1.37-.43.21-1.21h3.55V15.67c0,.37,0,.41.37.46l1.37.16v1.24Z"/><path class="cls-1" d="M135.23,7.39a3.55,3.55,0,0,1,.85,2.38c0,2.7-2.08,4.21-4.76,4.21a5.76,5.76,0,0,1-1.94-.27l-1,2,2.81.16c4.12.23,6,.43,6,3.13,0,2.26-1.94,3.68-5.92,3.68s-5.33-1.08-5.33-2.81a3.59,3.59,0,0,1,1.4-2.58,1.26,1.26,0,0,1-1-1.23,2.34,2.34,0,0,1,.5-1.26c.37-.53.85-1.1,1.26-1.65a3.54,3.54,0,0,1-1.72-3.25c0-2.56,1.85-4.35,5-4.35a7.93,7.93,0,0,1,2,.23h4.07V7.23Zm-6.29,10.25a3,3,0,0,0-1,1.9c0,1.24,1.28,1.51,3.52,1.53,1.21,0,3.55-.18,3.55-1.92,0-1.08-.89-1.17-2.38-1.3ZM131.32,7.2c-1.67,0-2.86.82-2.86,2.61,0,1.35.78,2.45,2.79,2.45A2.51,2.51,0,0,0,134,9.67C134,8.12,133,7.2,131.32,7.2Z"/><path class="cls-1" d="M146,17.52,145.8,16l-.07,0a5.83,5.83,0,0,1-4.14,1.78c-2.86,0-3.23-2-3.23-3.13,0-2.29,1.42-3.36,4.16-3.59l3.09-.25V9.61c0-1.67-.32-2.49-2.31-2.49-1.4,0-2.4,0-2.42,1.76l-2-.21c0-2.81,2.61-3.13,4.41-3.13,3.25,0,4.35.92,4.35,4.07v6.06c0,.37,0,.41.37.46l1.17.16v1.24Zm-.39-5.26-2.58.23c-2,.18-2.52.75-2.52,1.94s.53,1.74,1.6,1.74a6,6,0,0,0,3.5-1.76Z"/><path class="cls-1" d="M157.49,9l-.27-1.42c0-.16,0-.25-.23-.3a5.93,5.93,0,0,0-1.78-.25c-1.67,0-2.42.73-2.42,1.72,0,1.3,1.37,1.58,2.86,2,1.78.46,3.73,1,3.73,3.48,0,2.65-2.22,3.57-4.64,3.57a11,11,0,0,1-4.14-.78V14l1.53.09.27,1.58a.33.33,0,0,0,.27.32,6.45,6.45,0,0,0,2.24.37c1.53,0,2.52-.57,2.52-1.81s-1.3-1.69-2.77-2c-1.78-.41-3.8-.87-3.8-3.38s2.2-3.57,4.55-3.57a10.56,10.56,0,0,1,3.61.64v3Z"/><path class="cls-1" d="M166.17,17.52V16.26l1.46-.14c.32,0,.37-.11.37-.46V7.57c0-.14,0-.23-.18-.23h-1.65V5.76H168V4c0-2.68,1.35-4,4.19-4,1.88,0,3.43.46,3.43,2.72L173.67,3c0-1.21-.53-1.44-1.58-1.44-1.69,0-2,.92-2,2.4V5.54c0,.16,0,.23.18.23H174V7.34h-3.93v8.28c0,.37,0,.43.37.46l2.68.21v1.24Z"/><path class="cls-1" d="M184.88,17.52,184.7,16l0,0a6.58,6.58,0,0,1-4.41,1.85c-2.52,0-3.29-1.53-3.29-4.16V7.82c0-.37,0-.46-.37-.53L175.39,7l.18-1.24H179v7.39c0,2,.34,3,1.78,3a5.23,5.23,0,0,0,3.68-2V7.8c0-.37,0-.44-.37-.5L183,7l.18-1.24h3.41v9.88c0,.34.07.46.32.48l1.21.16v1.24Z"/><path class="cls-1" d="M189.85,17.52V16.26l1.14-.14c.32,0,.37-.11.37-.46V7.89c0-.25-.07-.41-.3-.48L189.75,7,190,5.76h3l.23,1.58.07,0a4.68,4.68,0,0,1,3.43-1.83,7.21,7.21,0,0,1,1.65.21V9.19l-1.62-.07-.27-1.58c0-.18-.07-.23-.27-.23a4.76,4.76,0,0,0-2.72,1.44v6.88c0,.37,0,.43.37.46l2.1.18v1.24Z"/><path class="cls-1" d="M207.37,17.52V16.26l1.1-.14c.3,0,.41-.14.41-.46V10.25c0-1.49-.3-2.93-2-2.93a5.77,5.77,0,0,0-3.55,1.46v6.88c0,.37,0,.41.37.46l1.28.16v1.24h-5.24V16.26l1.14-.14c.32,0,.37-.11.37-.46V7.89c0-.25-.07-.41-.3-.48L199.66,7l.21-1.21h3L203,7.11l.07,0a7.33,7.33,0,0,1,4.23-1.6C210,5.54,211,7.23,211,9.72v5.95c0,.37,0,.41.37.46l1.3.16v1.24Z"/><path class="cls-1" d="M221.9,17.52,221.69,16l-.07,0a5.83,5.83,0,0,1-4.14,1.78c-2.86,0-3.23-2-3.23-3.13,0-2.29,1.42-3.36,4.16-3.59l3.09-.25V9.61c0-1.67-.32-2.49-2.31-2.49-1.4,0-2.4,0-2.42,1.76l-2-.21c0-2.81,2.61-3.13,4.41-3.13,3.25,0,4.35.92,4.35,4.07v6.06c0,.37,0,.41.37.46l1.17.16v1.24Zm-.39-5.26-2.58.23c-2,.18-2.52.75-2.52,1.94s.53,1.74,1.6,1.74a6,6,0,0,0,3.5-1.76Z"/><path class="cls-1" d="M235.94,16.83a7.7,7.7,0,0,1-3.91,1c-3.91,0-5.58-2.4-5.58-6,0-4.35,2.52-6.24,6-6.24a8.38,8.38,0,0,1,3.48.71v3l-1.53-.07-.27-1.51a.33.33,0,0,0-.27-.32,5.2,5.2,0,0,0-1.56-.21c-2,0-3.66,1.19-3.66,4.46s1.51,4.44,3.73,4.44a6.11,6.11,0,0,0,2.93-.75Z"/><path class="cls-1" d="M247,16.77a8.37,8.37,0,0,1-4.16,1c-4.14,0-5.49-2.72-5.49-6.13,0-4.19,2.33-6.13,5.21-6.13S247.25,7,247.25,11c0,.3,0,.75,0,1.14h-7.69c.07,2.31,1,3.89,3.5,3.89a6.58,6.58,0,0,0,3.29-.82Zm-1.81-6.2c0-2.61-1.23-3.36-2.63-3.36s-2.81.82-3,3.36Z"/><path class="cls-1" d="M255.9,9l-.27-1.42c0-.16,0-.25-.23-.3a5.93,5.93,0,0,0-1.78-.25c-1.67,0-2.42.73-2.42,1.72,0,1.3,1.37,1.58,2.86,2,1.78.46,3.73,1,3.73,3.48,0,2.65-2.22,3.57-4.64,3.57A11,11,0,0,1,249,17V14l1.53.09.27,1.58a.33.33,0,0,0,.27.32,6.45,6.45,0,0,0,2.24.37c1.53,0,2.52-.57,2.52-1.81s-1.3-1.69-2.77-2c-1.78-.41-3.8-.87-3.8-3.38s2.2-3.57,4.55-3.57a10.56,10.56,0,0,1,3.61.64v3Z"/><path class="cls-1" d="M274.06,16.83a7.7,7.7,0,0,1-3.91,1c-3.91,0-5.58-2.4-5.58-6,0-4.35,2.52-6.24,6-6.24a8.38,8.38,0,0,1,3.48.71v3l-1.53-.07-.27-1.51a.33.33,0,0,0-.27-.32,5.2,5.2,0,0,0-1.56-.21c-2,0-3.66,1.19-3.66,4.46s1.51,4.44,3.73,4.44a6.11,6.11,0,0,0,2.93-.75Z"/><path class="cls-1" d="M283.23,17.52,283,16,283,16a5.83,5.83,0,0,1-4.14,1.78c-2.86,0-3.23-2-3.23-3.13,0-2.29,1.42-3.36,4.16-3.59l3.09-.25V9.61c0-1.67-.32-2.49-2.31-2.49-1.4,0-2.4,0-2.42,1.76l-2-.21c0-2.81,2.61-3.13,4.41-3.13,3.25,0,4.35.92,4.35,4.07v6.06c0,.37,0,.41.37.46l1.17.16v1.24Zm-.39-5.26-2.58.23c-2,.18-2.52.75-2.52,1.94s.53,1.74,1.6,1.74a6,6,0,0,0,3.5-1.76Z"/><path class="cls-1" d="M295.5,17.52V16.26l1.1-.14c.3,0,.41-.14.41-.46V10.25c0-1.49-.3-2.93-2-2.93a5.77,5.77,0,0,0-3.55,1.46v6.88c0,.37,0,.41.37.46l1.28.16v1.24h-5.24V16.26l1.14-.14c.32,0,.37-.11.37-.46V7.89c0-.25-.07-.41-.3-.48L287.79,7,288,5.76h3l.18,1.35.07,0a7.33,7.33,0,0,1,4.23-1.6c2.63,0,3.61,1.69,3.61,4.19v5.95c0,.37,0,.41.37.46l1.3.16v1.24Z"/><path class="cls-1" d="M308.33,17.52a22.73,22.73,0,0,0,.27-3.27V2.38c0-.25-.07-.41-.3-.48L307,1.46l.21-1.21h3.52V6.86a7.08,7.08,0,0,1,3.91-1.33c2.56,0,4.32,1.65,4.32,5.67,0,4.71-1.94,6.59-4.83,6.59a5,5,0,0,1-3.54-1.42l-.07,0-.11,1.1Zm2.36-2.93a5,5,0,0,0,3.13,1.49c2.15,0,3-1.78,3-4.69s-1.14-4.12-2.77-4.12a6.09,6.09,0,0,0-3.36,1.28Z"/><path class="cls-1" d="M330.48,16.77a8.37,8.37,0,0,1-4.16,1c-4.14,0-5.49-2.72-5.49-6.13,0-4.19,2.33-6.13,5.21-6.13S330.75,7,330.75,11c0,.3,0,.75,0,1.14H323c.07,2.31,1,3.89,3.5,3.89a6.58,6.58,0,0,0,3.29-.82Zm-1.81-6.2c0-2.61-1.24-3.36-2.63-3.36s-2.81.82-3,3.36Z"/><path class="cls-1" d="M338.92,22.37V21.11l1.65-.21c.27,0,.37-.16.5-.48l1.33-3-4.12-9.74c-.12-.27-.21-.32-.48-.39L336.86,7l.27-1.26h4.74V7l-1.51.18,3,7.69,3.18-7.69L345,7l.25-1.26h4.53V7l-.78.11a.66.66,0,0,0-.57.39L342.9,20.91l2.22.23v1.23Z"/><path class="cls-1" d="M350.45,11.6c0-3.59,1.83-6.06,5.74-6.06s5.42,2.49,5.42,5.92c0,3.84-1.74,6.34-5.65,6.34S350.45,15.23,350.45,11.6Zm9,0c0-3-1.1-4.32-3.32-4.32s-3.54,1.33-3.54,4.35,1.17,4.51,3.43,4.51S359.46,14.73,359.46,11.6Z"/><path class="cls-1" d="M372.87,17.52,372.69,16l0,0a6.58,6.58,0,0,1-4.41,1.85c-2.52,0-3.29-1.53-3.29-4.16V7.82c0-.37,0-.46-.37-.53L363.38,7l.18-1.24H367v7.39c0,2,.34,3,1.78,3a5.23,5.23,0,0,0,3.68-2V7.8c0-.37,0-.44-.37-.5L371,7l.18-1.24h3.41v9.88c0,.34.07.46.32.48l1.21.16v1.24Z"/><path class="cls-1" d="M377.84,17.52V16.26l1.14-.14c.32,0,.37-.11.37-.46V7.89c0-.25-.07-.41-.3-.48L377.75,7,378,5.76h3l.23,1.58.07,0a4.68,4.68,0,0,1,3.43-1.83,7.2,7.2,0,0,1,1.65.21V9.19l-1.62-.07-.27-1.58c0-.18-.07-.23-.27-.23a4.77,4.77,0,0,0-2.72,1.44v6.88c0,.37,0,.43.37.46l2.1.18v1.24Z"/></svg>