<svg id="Layer_2" data-name="Layer 2" xmlns="http://www.w3.org/2000/svg" viewBox="0 0 273.85 44.45"><defs><style>.cls-1{fill:#fff;}</style></defs><title>Artboard 1</title><path class="cls-1" d="M7.42,4.09l-.28-1.6c-.06-.26-.11-.34-.21-.4a3.76,3.76,0,0,0-1.79-.32C3.2,1.77,2.26,2.62,2.26,4c0,1.56,1.36,2,2.86,2.49,1.88.58,4,1.21,4,4s-2.3,4-5,4a10.89,10.89,0,0,1-4-.72V10.64H1.45l.36,1.66a.46.46,0,0,0,.38.41A6.57,6.57,0,0,0,4.29,13c1.92,0,3.07-.73,3.07-2.37S6.06,8.51,4.59,8.08C2.69,7.51.49,7,.49,4.18.49,1.49,2.6.34,5.22.34A9.94,9.94,0,0,1,8.72,1V4.2Z"/><path class="cls-1" d="M19.4,14.22,17.59,6.76l-2.07,7.46H13.45L10.79,6.06c-.08-.23-.17-.26-.4-.32l-.81-.17.23-1H13.6v1l-1.21.15,2.11,6.76,2.17-7.66h2l1.83,7.65,2.09-6.74-1.22-.15.21-1H25.1v1l-.68.11c-.32.06-.4.13-.47.38l-2.54,8.15Z"/><path class="cls-1" d="M25.74,14.22v-1L27,13.07c.26,0,.3-.09.3-.38V6.29c0-.21-.06-.34-.25-.4L26,5.54l.17-1H29v8.15c0,.3,0,.34.3.38l1.21.13v1ZM27.89,2.45a1.11,1.11,0,0,1-1.22-1.21A1.1,1.1,0,0,1,27.89.06a1.09,1.09,0,0,1,1.21,1.19A1.09,1.09,0,0,1,27.89,2.45Z"/><path class="cls-1" d="M38.08,13.86a7.12,7.12,0,0,1-2.62.58c-1.81,0-2.62-.85-2.62-2.54V6c0-.11,0-.19-.15-.19H31.32V4.75c1.47-.19,1.88-.77,2.13-2.69h1.11v2.3c0,.11,0,.19.15.19h2.77v1.3H34.55v5.55c0,1.19.28,1.64,1.36,1.64a4.94,4.94,0,0,0,1.75-.38Z"/><path class="cls-1" d="M46.53,13.65a6.35,6.35,0,0,1-3.22.79c-3.22,0-4.59-2-4.59-5,0-3.58,2.07-5.14,4.93-5.14a6.9,6.9,0,0,1,2.86.58v2.5l-1.26-.06L45,6.14a.28.28,0,0,0-.23-.26,4.28,4.28,0,0,0-1.28-.17c-1.68,0-3,1-3,3.67S41.75,13,43.57,13A5,5,0,0,0,46,12.41Z"/><path class="cls-1" d="M54.08,14.22v-1l.9-.11c.24,0,.34-.11.34-.38V8.3c0-1.39-.24-2.5-1.58-2.5a5.12,5.12,0,0,0-3,1.22v5.67c0,.3,0,.34.3.38l1.05.13v1H47.81v-1l.94-.11c.26,0,.3-.09.3-.38V1.75c0-.21-.06-.34-.25-.4L47.68,1l.17-1h2.9V5.59a5.71,5.71,0,0,1,3.39-1.24c2,0,2.9,1.3,2.9,3.43v4.91c0,.3,0,.34.3.38l1.07.13v1Z"/><path class="cls-1" d="M70.29,13.86a7.12,7.12,0,0,1-2.62.58c-1.81,0-2.62-.85-2.62-2.54V6c0-.11,0-.19-.15-.19H63.53V4.75C65,4.56,65.42,4,65.66,2.05h1.11v2.3c0,.11,0,.19.15.19h2.77v1.3H66.77v5.55c0,1.19.28,1.64,1.36,1.64a4.94,4.94,0,0,0,1.75-.38Z"/><path class="cls-1" d="M70.94,9.34c0-3,1.51-5,4.73-5s4.46,2.05,4.46,4.88c0,3.16-1.43,5.22-4.65,5.22S70.94,12.33,70.94,9.34Zm7.42,0c0-2.47-.9-3.56-2.73-3.56s-2.92,1.09-2.92,3.58,1,3.71,2.82,3.71S78.35,11.92,78.35,9.34Z"/><path class="cls-1" d="M92.21,14.22,92,13,92,13a4.8,4.8,0,0,1-3.41,1.47,2.35,2.35,0,0,1-2.65-2.58c0-1.88,1.17-2.77,3.43-3l2.54-.21v-1c0-1.37-.26-2.05-1.9-2.05-1.15,0-2,0-2,1.45l-1.62-.17c0-2.32,2.15-2.58,3.63-2.58,2.67,0,3.58.75,3.58,3.35v5c0,.3,0,.34.3.38l1,.13v1Zm-.32-4.33-2.13.19c-1.62.15-2.07.62-2.07,1.6s.43,1.43,1.32,1.43a4.91,4.91,0,0,0,2.88-1.45Z"/><path class="cls-1" d="M102.31,14.22v-1l.9-.11c.24,0,.34-.11.34-.38V8.23c0-1.22-.24-2.41-1.64-2.41A4.75,4.75,0,0,0,99,7v5.67c0,.3,0,.34.3.38l1.05.13v1H96v-1l.94-.11c.26,0,.3-.09.3-.38V6.29c0-.21-.06-.34-.25-.4L96,5.54l.17-1H98.6l.15,1.11.06,0a6,6,0,0,1,3.48-1.32c2.17,0,3,1.39,3,3.45v4.9c0,.3,0,.34.3.38l1.07.13v1Z"/><path class="cls-1" d="M120,13.59a6.89,6.89,0,0,1-3.43.85c-3.41,0-4.52-2.24-4.52-5,0-3.45,1.92-5,4.29-5s3.88,1.24,3.88,4.5c0,.24,0,.62,0,.94h-6.33c.06,1.9.83,3.2,2.88,3.2a5.42,5.42,0,0,0,2.71-.68Zm-1.49-5.1c0-2.15-1-2.77-2.17-2.77s-2.32.68-2.47,2.77Z"/><path class="cls-1" d="M121.48,14.22v-1l1.17-.11c.26,0,.3-.09.3-.38V1.75c0-.21-.06-.34-.25-.4L121.57,1l.17-1h2.92V12.69c0,.3,0,.34.3.38l1.13.13v1Z"/><path class="cls-1" d="M135.2,13.59a6.89,6.89,0,0,1-3.43.85c-3.41,0-4.52-2.24-4.52-5,0-3.45,1.92-5,4.29-5s3.88,1.24,3.88,4.5c0,.24,0,.62,0,.94h-6.33c.06,1.9.83,3.2,2.88,3.2a5.42,5.42,0,0,0,2.71-.68Zm-1.49-5.1c0-2.15-1-2.77-2.17-2.77s-2.32.68-2.47,2.77Z"/><path class="cls-1" d="M144.67,13.65a6.35,6.35,0,0,1-3.22.79c-3.22,0-4.59-2-4.59-5,0-3.58,2.07-5.14,4.93-5.14a6.9,6.9,0,0,1,2.86.58v2.5l-1.26-.06-.23-1.24a.28.28,0,0,0-.23-.26,4.28,4.28,0,0,0-1.28-.17c-1.68,0-3,1-3,3.67S139.89,13,141.72,13a5,5,0,0,0,2.41-.62Z"/><path class="cls-1" d="M152.49,13.86a7.12,7.12,0,0,1-2.62.58c-1.81,0-2.62-.85-2.62-2.54V6c0-.11,0-.19-.15-.19h-1.37V4.75c1.47-.19,1.88-.77,2.13-2.69H149v2.3c0,.11,0,.19.15.19h2.77v1.3H149v5.55c0,1.19.28,1.64,1.36,1.64a4.94,4.94,0,0,0,1.75-.38Z"/><path class="cls-1" d="M153.81,14.22v-1l.94-.11c.26,0,.3-.09.3-.38V6.29c0-.21-.06-.34-.25-.4l-1.07-.36.17-1h2.47l.19,1.3.06,0a3.86,3.86,0,0,1,2.82-1.51,5.92,5.92,0,0,1,1.36.17V7.36l-1.34-.06L159.23,6c0-.15-.06-.19-.23-.19A3.92,3.92,0,0,0,156.76,7v5.67c0,.3,0,.36.3.38l1.73.15v1Z"/><path class="cls-1" d="M161.66,14.22v-1l1.24-.11c.26,0,.3-.09.3-.38V6.29c0-.21-.06-.34-.25-.4l-1.07-.36.17-1h2.86v8.15c0,.3,0,.34.3.38l1.21.13v1Zm2.15-11.77a1.11,1.11,0,0,1-1.22-1.21A1.1,1.1,0,0,1,163.81.06,1.09,1.09,0,0,1,165,1.24,1.09,1.09,0,0,1,163.81,2.45Z"/><path class="cls-1" d="M175.14,13.65a6.35,6.35,0,0,1-3.22.79c-3.22,0-4.59-2-4.59-5,0-3.58,2.07-5.14,4.93-5.14a6.9,6.9,0,0,1,2.86.58v2.5l-1.26-.06-.23-1.24a.28.28,0,0,0-.23-.26,4.28,4.28,0,0,0-1.28-.17c-1.68,0-3,1-3,3.67S170.36,13,172.19,13a5,5,0,0,0,2.41-.62Z"/><path class="cls-1" d="M187,14.22v-1l.9-.11c.24,0,.34-.11.34-.38V8.3c0-1.39-.24-2.5-1.58-2.5a5.12,5.12,0,0,0-3,1.22v5.67c0,.3,0,.34.3.38l1.05.13v1H180.7v-1l.94-.11c.26,0,.3-.09.3-.38V1.75c0-.21-.06-.34-.25-.4L180.57,1l.17-1h2.9V5.59A5.71,5.71,0,0,1,187,4.35c2,0,2.9,1.3,2.9,3.43v4.91c0,.3,0,.34.3.38l1.07.13v1Z"/><path class="cls-1" d="M200.47,13.59a6.89,6.89,0,0,1-3.43.85c-3.41,0-4.52-2.24-4.52-5,0-3.45,1.92-5,4.29-5s3.88,1.24,3.88,4.5c0,.24,0,.62,0,.94h-6.33c.06,1.9.83,3.2,2.88,3.2a5.42,5.42,0,0,0,2.71-.68ZM199,8.49c0-2.15-1-2.77-2.17-2.77s-2.32.68-2.47,2.77Z"/><path class="cls-1" d="M208.3,14.22,208.13,13l-.06,0a4.8,4.8,0,0,1-3.41,1.47A2.35,2.35,0,0,1,202,11.86c0-1.88,1.17-2.77,3.43-3L208,8.7v-1c0-1.37-.26-2.05-1.9-2.05-1.15,0-2,0-2,1.45l-1.62-.17c0-2.32,2.15-2.58,3.63-2.58,2.67,0,3.58.75,3.58,3.35v5c0,.3,0,.34.3.38l1,.13v1ZM208,9.89l-2.13.19c-1.62.15-2.07.62-2.07,1.6s.43,1.43,1.32,1.43A4.91,4.91,0,0,0,208,11.66Z"/><path class="cls-1" d="M218.38,13.86a7.12,7.12,0,0,1-2.62.58c-1.81,0-2.62-.85-2.62-2.54V6c0-.11,0-.19-.15-.19h-1.37V4.75c1.47-.19,1.88-.77,2.13-2.69h1.11v2.3c0,.11,0,.19.15.19h2.77v1.3h-2.92v5.55c0,1.19.28,1.64,1.36,1.64a4.94,4.94,0,0,0,1.75-.38Z"/><path class="cls-1" d="M224,18.21v-1l.77-.11c.26,0,.32-.09.32-.38V6.29c0-.21-.06-.34-.24-.4l-1.07-.36.17-1h2.49l.17,1.09.06,0A5.53,5.53,0,0,1,230,4.35c2.11,0,3.54,1.36,3.54,4.67,0,2.82-1,5.42-3.92,5.42a4.05,4.05,0,0,1-2.86-1v3.26c0,.3,0,.36.3.38l1.77.15v1Zm2.79-6.4A3.93,3.93,0,0,0,229.37,13c1.79,0,2.47-1.49,2.47-3.86,0-2.56-1-3.37-2.17-3.37A5,5,0,0,0,226.79,7Z"/><path class="cls-1" d="M242.89,14.22l-.15-1.28,0,0a5.42,5.42,0,0,1-3.63,1.53c-2.07,0-2.71-1.26-2.71-3.43V6.23c0-.3,0-.38-.3-.43l-1-.25.15-1h2.84v6.08c0,1.64.28,2.43,1.47,2.43a4.3,4.3,0,0,0,3-1.64V6.21c0-.3,0-.36-.3-.41l-.94-.25.15-1h2.81v8.13c0,.28.06.38.26.4l1,.13v1Z"/><path class="cls-1" d="M258.56,14.22v-1l.9-.11c.24,0,.34-.11.34-.38V8.15c0-1.19-.26-2.32-1.6-2.32a4.42,4.42,0,0,0-2.49.92,10.68,10.68,0,0,1,.06,1.15v4.78c0,.3,0,.34.3.38l.92.13v1h-4.18v-1l.9-.11c.24,0,.34-.11.34-.38V8.13c0-1.07-.08-2.3-1.43-2.3A4.6,4.6,0,0,0,249.94,7v5.69c0,.3,0,.34.3.38l1,.13v1H247v-1l.94-.11c.26,0,.3-.09.3-.38V6.29c0-.21-.06-.34-.25-.4l-1.07-.36.17-1h2.47l.15,1.11.06,0a5.08,5.08,0,0,1,3.33-1.32,2.49,2.49,0,0,1,2.32,1.21,5.64,5.64,0,0,1,3.33-1.21c2.15,0,2.79,1.32,2.79,3.5v4.84c0,.3,0,.34.3.38l1.07.13v1Z"/><path class="cls-1" d="M264.29,18.21v-1l.77-.11c.26,0,.32-.09.32-.38V6.29c0-.21-.06-.34-.24-.4l-1.07-.36.17-1h2.49l.17,1.09.06,0a5.53,5.53,0,0,1,3.37-1.3c2.11,0,3.54,1.36,3.54,4.67,0,2.82-1,5.42-3.92,5.42a4.05,4.05,0,0,1-2.86-1v3.26c0,.3,0,.36.3.38l1.77.15v1Zm2.79-6.4A3.93,3.93,0,0,0,269.65,13c1.79,0,2.47-1.49,2.47-3.86,0-2.56-1-3.37-2.17-3.37A5,5,0,0,0,267.07,7Z"/><path class="cls-1" d="M6.29,40.22,6.12,39l-.06,0a4.8,4.8,0,0,1-3.41,1.47A2.35,2.35,0,0,1,0,37.86c0-1.88,1.17-2.77,3.43-3L6,34.7v-1c0-1.37-.26-2.05-1.9-2.05-1.15,0-2,0-2,1.45L.45,32.93c0-2.32,2.15-2.58,3.63-2.58,2.67,0,3.58.75,3.58,3.35v5c0,.3,0,.34.3.38l1,.13v1ZM6,35.89l-2.13.19c-1.62.15-2.07.62-2.07,1.6s.43,1.43,1.32,1.43A4.91,4.91,0,0,0,6,37.66Z"/><path class="cls-1" d="M16.38,40.22v-1l.9-.11c.24,0,.34-.11.34-.38V34.23c0-1.22-.24-2.41-1.64-2.41A4.75,4.75,0,0,0,13.07,33v5.67c0,.3,0,.34.3.38l1.05.13v1H10.11v-1l.94-.11c.26,0,.3-.09.3-.38v-6.4c0-.21-.06-.34-.25-.4L10,31.54l.17-1h2.47l.15,1.11.06,0a6,6,0,0,1,3.48-1.32c2.17,0,3,1.39,3,3.45v4.9c0,.3,0,.34.3.38l1.07.13v1Z"/><path class="cls-1" d="M29.19,40.22,29,39,29,39a4.57,4.57,0,0,1-3.31,1.49c-2.15,0-3.56-1.39-3.56-4.86,0-3.71,1.68-5.23,3.94-5.23a5,5,0,0,1,2.88.9V27.73a.35.35,0,0,0-.25-.38L27.53,27l.17-1h2.88V38.69c0,.3,0,.34.3.38l1,.13v1Zm-.32-7.44a4.39,4.39,0,0,0-2.58-1c-1.77,0-2.47,1.54-2.47,3.79,0,2.62.88,3.46,2.2,3.46a4.23,4.23,0,0,0,2.84-1.56Z"/><path class="cls-1" d="M44.85,31.88a2.92,2.92,0,0,1,.7,2c0,2.22-1.71,3.46-3.92,3.46a4.73,4.73,0,0,1-1.6-.23l-.85,1.64,2.32.13c3.39.19,4.91.36,4.91,2.58,0,1.86-1.6,3-4.88,3s-4.39-.88-4.39-2.32A3,3,0,0,1,38.3,40a1,1,0,0,1-.83-1,1.93,1.93,0,0,1,.41-1c.3-.43.7-.9,1-1.36a2.91,2.91,0,0,1-1.41-2.67c0-2.11,1.52-3.58,4.09-3.58a6.51,6.51,0,0,1,1.68.19h3.35v1.21Zm-5.18,8.44a2.45,2.45,0,0,0-.83,1.56c0,1,1.05,1.24,2.9,1.26,1,0,2.92-.15,2.92-1.58,0-.88-.73-1-2-1.07Zm2-8.59a2.06,2.06,0,0,0-2.35,2.15c0,1.11.64,2,2.3,2a2.07,2.07,0,0,0,2.3-2.13A2,2,0,0,0,41.63,31.72Z"/><path class="cls-1" d="M55.44,39.59a6.89,6.89,0,0,1-3.43.85c-3.41,0-4.52-2.24-4.52-5,0-3.45,1.92-5,4.29-5s3.88,1.24,3.88,4.5c0,.24,0,.62,0,.94H49.3c.06,1.9.83,3.2,2.88,3.2a5.41,5.41,0,0,0,2.71-.68Zm-1.49-5.1c0-2.15-1-2.77-2.17-2.77s-2.32.68-2.47,2.77Z"/><path class="cls-1" d="M63.57,39.86a7.11,7.11,0,0,1-2.62.58c-1.81,0-2.62-.85-2.62-2.54V32c0-.11,0-.19-.15-.19H56.81V30.75c1.47-.19,1.88-.77,2.13-2.69h1.11v2.3c0,.11,0,.19.15.19H63v1.3H60.05v5.55c0,1.19.28,1.64,1.36,1.64a4.94,4.94,0,0,0,1.75-.38Z"/><path class="cls-1" d="M76.79,40.22l-.15-1.28,0,0A5.42,5.42,0,0,1,73,40.44c-2.07,0-2.71-1.26-2.71-3.43V32.23c0-.3,0-.38-.3-.43l-1-.25.15-1H72v6.08c0,1.64.28,2.43,1.47,2.43a4.3,4.3,0,0,0,3-1.64v-5.2c0-.3,0-.36-.3-.41l-.94-.25.15-1h2.81v8.13c0,.28.06.38.26.4l1,.13v1Z"/><path class="cls-1" d="M81,44.21v-1l.77-.11c.26,0,.32-.09.32-.38V32.29c0-.21-.06-.34-.24-.4l-1.07-.36.17-1h2.49l.17,1.09.06,0A5.53,5.53,0,0,1,87,30.35c2.11,0,3.54,1.36,3.54,4.67,0,2.82-1,5.42-3.92,5.42a4.05,4.05,0,0,1-2.86-1v3.26c0,.3,0,.36.3.38l1.77.15v1Zm2.79-6.4A3.93,3.93,0,0,0,86.38,39c1.79,0,2.47-1.49,2.47-3.86,0-2.56-1-3.37-2.17-3.37A5,5,0,0,0,83.8,33Z"/><path class="cls-1" d="M102.89,39.86a7.11,7.11,0,0,1-2.62.58c-1.81,0-2.62-.85-2.62-2.54V32c0-.11,0-.19-.15-.19H96.13V30.75c1.47-.19,1.88-.77,2.13-2.69h1.11v2.3c0,.11,0,.19.15.19h2.77v1.3H99.37v5.55c0,1.19.28,1.64,1.36,1.64a4.94,4.94,0,0,0,1.75-.38Z"/><path class="cls-1" d="M103.53,35.34c0-3,1.51-5,4.73-5s4.46,2.05,4.46,4.88c0,3.16-1.43,5.22-4.65,5.22S103.53,38.33,103.53,35.34Zm7.42,0c0-2.47-.9-3.56-2.73-3.56s-2.92,1.09-2.92,3.58,1,3.71,2.82,3.71S110.95,37.92,110.95,35.34Z"/><path class="cls-1" d="M124.81,40.22,124.64,39l-.06,0a4.8,4.8,0,0,1-3.41,1.47,2.35,2.35,0,0,1-2.65-2.58c0-1.88,1.17-2.77,3.43-3l2.54-.21v-1c0-1.37-.26-2.05-1.9-2.05-1.15,0-2,0-2,1.45L119,32.93c0-2.32,2.15-2.58,3.63-2.58,2.67,0,3.58.75,3.58,3.35v5c0,.3,0,.34.3.38l1,.13v1Zm-.32-4.33-2.13.19c-1.62.15-2.07.62-2.07,1.6s.43,1.43,1.32,1.43a4.91,4.91,0,0,0,2.88-1.45Z"/></svg>