<svg id="Layer_1" data-name="Layer 1" xmlns="http://www.w3.org/2000/svg" xmlns:xlink="http://www.w3.org/1999/xlink" viewBox="0 0 65.86 53.81"><defs><style>.cls-1,.cls-3,.cls-4,.cls-5,.cls-6{fill:none;}.cls-2{fill:#00a0df;}.cls-3,.cls-4,.cls-5,.cls-6{stroke:#fff;}.cls-3,.cls-6{stroke-linecap:round;}.cls-3{stroke-linejoin:round;}.cls-3,.cls-4,.cls-6{stroke-width:1.71px;}.cls-4,.cls-5,.cls-6{stroke-miterlimit:10;}.cls-5{stroke-width:1.71px;}.cls-7{clip-path:url(#clip-path);}</style><clipPath id="clip-path"><rect class="cls-1" y="1.61" width="64.2" height="53.4"/></clipPath></defs><path class="cls-2" d="M32.91,47.44c17.28,0,31.29-10.26,31.29-22.91S50.19,1.61,32.91,1.61,1.62,11.87,1.62,24.53s14,22.91,31.29,22.91"/><path class="cls-2" d="M18.3,45.68c0,3.77,3.76,6.76,8.39,6.67s8.39-3.21,8.38-7-3.76-6.75-8.39-6.67-8.39,3.21-8.38,7"/><path class="cls-3" d="M45.45,21.53,42.68,13a4,4,0,0,0-3.79-2.67H22.83A4.06,4.06,0,0,0,19,13l-3.42,9.11A5.77,5.77,0,0,0,15.3,24v6.41a1.37,1.37,0,0,0,1.35,1.39H30.22"/><path class="cls-4" d="M15.3,30v3.66a1.41,1.41,0,0,0,1.35,1.46h2A1.41,1.41,0,0,0,20,33.66v-2.2"/><path class="cls-3" d="M16.61,19.6l1,.8a3.42,3.42,0,0,0,2.15.85H41.82"/><path class="cls-5" d="M22.7,27.19H19.6a2.55,2.55,0,0,1-2.33-2.72.85.85,0,0,1,.77-.91h3.11a2.55,2.55,0,0,1,2.33,2.72A.85.85,0,0,1,22.7,27.19Z"/><rect class="cls-1" y="1.61" width="64.2" height="53.4"/><line class="cls-6" x1="30.24" y1="28.78" x2="25.13" y2="28.78"/><g class="cls-7"><path class="cls-4" d="M45.66,19.46H48a1.84,1.84,0,0,0,1.68-2,1.11,1.11,0,0,0-1-1.19h-2a1.11,1.11,0,0,0-1,1.19Zm-29.6,0H13.71a1.85,1.85,0,0,1-1.69-2,1.12,1.12,0,0,1,1-1.19h2a1.11,1.11,0,0,1,1,1.19Z"/><path class="cls-4" d="M41.29,24.57a7.52,7.52,0,1,0,7.45,7.52A7.49,7.49,0,0,0,41.29,24.57Z"/></g><polyline class="cls-3" points="38.3 31.52 41.09 34.43 48.76 26.41"/></svg>