<?xml version="1.0" encoding="UTF-8"?>
<svg id="Layer_1" data-name="Layer 1" xmlns="http://www.w3.org/2000/svg" xmlns:xlink="http://www.w3.org/1999/xlink" version="1.1" viewBox="0 0 123.7 27.9">
  <defs>
    <style>
      .cls-1 {
        clip-path: url(#clippath);
      }

      .cls-2 {
        fill: none;
      }

      .cls-2, .cls-3, .cls-4 {
        stroke-width: 0px;
      }

      .cls-3 {
        fill: #002d72;
      }

      .cls-4 {
        fill: #ffbf3f;
      }
    </style>
    <clipPath id="clippath">
      <rect class="cls-2" width="123.7" height="27.9"/>
    </clipPath>
  </defs>
  <g class="cls-1">
    <path class="cls-4" d="M4.3,0C1.9,0,0,1.9,0,4.2v19.4c0,2.3,1.9,4.2,4.3,4.2h115.2c2.3,0,4.3-1.9,4.3-4.2V4.2c0-2.3-2-4.2-4.3-4.2H4.3Z"/>
  </g>
  <g>
    <path class="cls-3" d="M22.2,8.8c2,0,3.6.8,4.7,2.3l-1.3,1.1c-.8-1.2-2-1.8-3.4-1.8-2.4,0-4,1.8-4,4.2s1.8,4.2,4.2,4.2,2.7-.7,3.4-1.7v-1.2h-3.5v-1.6h5.3v3.2c-1,1.8-3,3-5.3,3-3.3,0-6-2.6-5.9-5.9,0-3.3,2.7-5.9,5.9-5.9h0Z"/>
    <path class="cls-3" d="M30.9,16.7c.2,1.4,1.3,2.2,2.7,2.2s1.7-.3,2.5-1l.8,1.2c-1,.9-2.1,1.4-3.4,1.4-2.5,0-4.5-1.9-4.5-4.4s2-4.4,4.4-4.4,3.9,1.6,3.9,3.8,0,.7-.1,1.1h-6.3ZM35.5,15.2c0-1.3-1-2.1-2.1-2.1s-2.1.8-2.4,2.1h4.6Z"/>
    <path class="cls-3" d="M44.3,20.3c-.6.1-1,.2-1.5.2-2,0-3.1-1-3.1-2.9v-4.1h-1.4v-1.6h1.4v-2.2h1.8v2.2h2.5v1.6h-2.5v4c0,1.1.6,1.4,1.6,1.4s.6,0,1.1,0v1.5h0Z"/>
    <path class="cls-3" d="M51.6,17c.8,1.1,1.6,1.8,2.9,1.8s2-.6,2-1.6-.5-1.2-1.6-1.7l-1.2-.6c-1.6-.8-2.6-1.6-2.6-3.1s1.6-3.1,3.6-3.1,2.9.8,3.6,2l-1.2,1c-.6-.9-1.4-1.4-2.4-1.4s-1.7.5-1.7,1.4c0,.9.5,1,1.6,1.6l1.2.6c1.8.8,2.7,1.8,2.7,3.2s-1.6,3.3-3.8,3.3-3.4-.9-4.2-2.5l1.3-1h-.1Z"/>
    <path class="cls-3" d="M65.4,20.3c-.6.1-1,.2-1.5.2-2,0-3.1-1-3.1-2.9v-4.1h-1.4v-1.6h1.4v-2.2h1.8v2.2h2.5v1.6h-2.5v4c0,1.1.6,1.4,1.6,1.4s.6,0,1.1,0v1.5h0Z"/>
    <path class="cls-3" d="M73.9,20.3h-1.7v-.9c-.6.7-1.6,1.1-2.7,1.1-1.8,0-2.9-1-2.9-2.4s1.2-2.4,3.1-2.4h2.4v-.5c0-1.2-.7-1.8-1.8-1.8s-1.6.4-2.3,1.2l-1-1c.8-1.2,2.1-1.8,3.5-1.8,2.1,0,3.5,1.2,3.5,3.5,0,0,0,5.1,0,5.1ZM72.1,16.9h-2.1c-1,0-1.5.3-1.5,1s.6,1.1,1.5,1.1,2.1-.8,2.1-2h0v-.2Z"/>
    <path class="cls-3" d="M81.3,13.4h-.5c-1.4,0-2.5.8-2.5,2.3v4.5h-1.8v-8.4h1.7v1.1c.6-.8,1.5-1.2,2.5-1.2s.5,0,.7,0v1.6h0Z"/>
    <path class="cls-3" d="M87.8,20.3c-.6.1-1,.2-1.5.2-2,0-3.1-1-3.1-2.9v-4.1h-1.4v-1.6h1.4v-2.2h1.8v2.2h2.5v1.6h-2.5v4c0,1.1.6,1.4,1.6,1.4s.6,0,1.1,0v1.5h0Z"/>
    <path class="cls-3" d="M90.8,16.7c.2,1.4,1.3,2.2,2.7,2.2s1.7-.3,2.5-1l.8,1.2c-1,.9-2.1,1.4-3.4,1.4-2.5,0-4.5-1.9-4.5-4.4s2-4.4,4.4-4.4,3.9,1.6,3.9,3.8,0,.7-.1,1.1h-6.3ZM95.4,15.2c0-1.3-1-2.1-2.1-2.1s-2.1.8-2.4,2.1h4.6Z"/>
    <path class="cls-3" d="M107.4,7.4v12.8h-1.7v-1.2c-.6.8-1.7,1.4-2.9,1.4-2.3,0-4.1-1.9-4.1-4.4s1.8-4.4,4.1-4.4,2.1.5,2.8,1.2v-5.5s1.8,0,1.8,0ZM103.1,13.3c-1.4,0-2.6,1.1-2.6,2.7s1.1,2.7,2.6,2.7,2.5-.9,2.5-2.7-1.2-2.7-2.5-2.7Z"/>
  </g>
</svg>