<?xml version="1.0" encoding="UTF-8"?>
<svg id="Layer_1" data-name="Layer 1" xmlns="http://www.w3.org/2000/svg" version="1.1" viewBox="0 0 104.1 22.9">
  <defs>
    <style>
      .cls-1 {
        fill: #ffbf3f;
        stroke-width: 0px;
      }
    </style>
  </defs>
  <path class="cls-1" d="M11.7,0C15.6,0,18.8,1.7,20.9,4.6l-2.6,2.1c-1.6-2.3-3.9-3.5-6.6-3.5-4.7,0-8,3.5-8,8.2s3.4,8.3,8.2,8.3,5.2-1.2,6.6-3.4v-2.4h-6.8v-3.2h10.4v6.3c-2,3.5-5.9,5.9-10.4,5.9C5.2,23,0,17.8,0,11.5-.1,5.1,5.3,0,11.7,0Z"/>
  <path class="cls-1" d="M40.4,22.6l-6.3-8.6h-4.1v8.6h-3.6V.4h8.1c4.5,0,7.5,2.8,7.5,6.8s-1.6,5.2-4.3,6.3l6.7,9.2h-4.1ZM30,10.8h4.5c2.5,0,3.9-1.5,3.9-3.6s-1.5-3.7-3.9-3.7h-4.5v7.3Z"/>
  <path class="cls-1" d="M57.5,0c6.3-.1,11.8,5.1,11.7,11.5.1,6.4-5.4,11.6-11.7,11.5-6.4.1-11.8-5.1-11.6-11.5C45.7,5.1,51.2,0,57.5,0ZM57.5,3.3c-4.6,0-8,3.5-8,8.2s3.4,8.2,8,8.2,8-3.5,8-8.2-3.4-8.2-8-8.2Z"/>
  <path class="cls-1" d="M104.1.4l-8.6,22.6h-1.2l-6.6-15.7-6.6,15.7h-1.2L71.2.4h3.9l5.6,15L87,0h1.2l6.4,15.4L100.2.4h3.9Z"/>
</svg>