<?xml version="1.0" encoding="UTF-8"?>
<svg id="Layer_1" data-name="Layer 1" xmlns="http://www.w3.org/2000/svg" version="1.1" viewBox="0 0 150.6 17.4">
  <defs>
    <style>
      .cls-1 {
        fill: #ffbf3f;
        stroke-width: 0px;
      }
    </style>
  </defs>
  <path class="cls-1" d="M1.3,13.2c1.1,1.7,2.5,2.6,4.2,2.6s3-1,3-2.5-.8-1.8-2.5-2.7l-1.7-.8c-2.1-1-3.4-2-3.4-4.1S3,1.8,5.5,1.8s3.8,1,4.7,2.6l-1.3,1c-.8-1.2-2.1-1.9-3.5-1.9s-2.7.8-2.7,2.2,0,.8.3,1.1c.4.6.9.9,2.1,1.4l1.7.8c2.4,1.2,3.5,2.3,3.5,4.2s-2.1,4.2-4.9,4.2-4.4-1.2-5.6-3.3l1.3-1Z"/>
  <path class="cls-1" d="M30.1,17.2h-1.8v-6.8c0-1.8-1-3-2.6-3s-2.9,1.3-2.9,2.8v6.9h-1.8v-6.8c0-1.8-1-3-2.7-3s-2.8,1.2-2.8,3v6.8h-1.8V6h1.6v1.2c.8-.9,1.9-1.4,3.3-1.4s2.8.7,3.4,1.9c.8-1.2,2.2-1.9,3.8-1.9,2.6,0,4.1,1.7,4.1,4.4v7Z"/>
  <path class="cls-1" d="M42.2,17.2h-1.7v-1.4c-.8,1.1-2.1,1.7-3.8,1.7s-3.9-1.2-3.9-3.1,1.6-3.1,4-3.1h3.5v-1c0-1.8-1-2.8-2.7-2.8s-2.3.6-3.3,1.8l-1.2-1c1-1.6,2.7-2.5,4.5-2.5,2.6,0,4.4,1.6,4.4,4.5v6.9ZM40.4,12.6h-3.3c-1.6,0-2.4.5-2.4,1.6s1,1.8,2.3,1.8,3.4-1.4,3.4-3.1v-.3Z"/>
  <path class="cls-1" d="M45.9,0h1.8v17.2h-1.8V0Z"/>
  <path class="cls-1" d="M51.6,0h1.8v17.2h-1.8V0Z"/>
  <path class="cls-1" d="M69.5,17.4c-1.7,0-3.4-.8-4.2-2v1.8h-1.6V0h1.8v7.7c.9-1.2,2.4-1.9,4.1-1.9,3.1,0,5.5,2.6,5.5,5.8s-2.4,5.8-5.5,5.8ZM69.2,7.4c-2.1,0-3.9,1.4-3.9,4.2s1.9,4.2,3.9,4.2,4-1.8,4-4.2-1.7-4.2-4-4.2Z"/>
  <path class="cls-1" d="M77.9,6h1.7v6.8c0,1.8,1.2,3,2.9,3s2.8-1.2,2.8-3v-6.8h1.8v6.7c0,2.8-2,4.7-4.6,4.7s-4.6-1.9-4.6-4.7v-6.7Z"/>
  <path class="cls-1" d="M91,14.1c1.1,1.1,1.9,1.7,3.2,1.7s2.1-.6,2.1-1.6-.6-1.2-1.9-1.8l-1.1-.5c-1.9-.8-2.8-1.6-2.8-3.1s1.6-3.1,3.8-3.1,2.8.7,3.7,1.8l-1.1,1.1c-.8-.8-1.7-1.2-2.8-1.2s-1.9.5-1.9,1.4.5,1.1,1.8,1.6l1,.4c2.1.9,3,1.8,3,3.3s-.4,1.9-1.1,2.4-1.7.8-2.8.8c-1.9,0-3.4-.9-4.4-2.2l1.1-1.2Z"/>
  <path class="cls-1" d="M102.2.5c.7,0,1.3.6,1.3,1.3s-.6,1.3-1.3,1.3-1.3-.6-1.3-1.3.6-1.3,1.3-1.3ZM101.3,6h1.8v11.2h-1.8V6Z"/>
  <path class="cls-1" d="M116.2,17.2h-1.8v-6.8c0-1.8-1.1-3-2.8-3s-2.9,1.2-2.9,3v6.8h-1.8V6h1.6v1.2c.8-.9,2-1.4,3.4-1.4,2.6,0,4.1,1.8,4.1,4.4v7Z"/>
  <path class="cls-1" d="M121,12.1c.2,2.2,1.9,3.7,4.1,3.7s2.4-.5,3.4-1.5l1,1.2c-1.2,1.2-2.7,1.9-4.5,1.9-3.3,0-5.9-2.5-5.9-5.8s2.5-5.8,5.7-5.8,5.1,2.1,5.1,5,0,.9-.1,1.3h-8.8ZM128.1,10.6c0-2-1.5-3.2-3.3-3.2s-3.4,1.3-3.8,3.2h7.1Z"/>
  <path class="cls-1" d="M133.1,14.1c1.1,1.1,1.9,1.7,3.2,1.7s2.1-.6,2.1-1.6-.6-1.2-1.9-1.8l-1.1-.5c-1.9-.8-2.8-1.6-2.8-3.1s1.6-3.1,3.8-3.1,2.8.7,3.7,1.8l-1.1,1.1c-.8-.8-1.7-1.2-2.8-1.2s-1.9.5-1.9,1.4.5,1.1,1.8,1.6l1,.4c2.1.9,3,1.8,3,3.3s-.4,1.9-1.1,2.4-1.7.8-2.8.8c-1.9,0-3.4-.9-4.4-2.2l1.1-1.2Z"/>
  <path class="cls-1" d="M143.5,14.1c1.1,1.1,1.9,1.7,3.2,1.7s2.1-.6,2.1-1.6-.6-1.2-1.9-1.8l-1.1-.5c-1.9-.8-2.8-1.6-2.8-3.1s1.6-3.1,3.8-3.1,2.8.7,3.7,1.8l-1.1,1.1c-.8-.8-1.7-1.2-2.8-1.2s-1.9.5-1.9,1.4.5,1.1,1.8,1.6l1,.4c2.1.9,3,1.8,3,3.3s-.4,1.9-1.1,2.4-1.7.8-2.8.8c-1.9,0-3.4-.9-4.4-2.2l1.1-1.2Z"/>
</svg>