<?xml version="1.0" encoding="UTF-8"?>
<svg id="Layer_1" data-name="Layer 1" xmlns="http://www.w3.org/2000/svg" version="1.1" viewBox="0 0 117.8 21.6">
  <defs>
    <style>
      .cls-1 {
        fill: #ffbf3f;
        stroke-width: 0px;
      }
    </style>
  </defs>
  <path class="cls-1" d="M7.5,17.2c-.7.2-1.3.3-1.9.3-2.3,0-3.8-1.2-3.8-3.6v-6.2H0v-1.6h1.9v-3h1.8v3h3.5v1.6h-3.5v6.1c0,1.6.8,2.1,2.4,2.1s.9,0,1.5-.1v1.5Z"/>
  <path class="cls-1" d="M14.9,5.8c3.2,0,5.9,2.6,5.8,5.8,0,3.1-2.7,5.9-5.9,5.8-3.2,0-5.9-2.7-5.8-5.8,0-3.2,2.7-5.9,5.8-5.8ZM14.9,7.4c-2.3,0-4,1.8-4,4.2s1.7,4.2,4,4.2,4.1-1.8,4.1-4.2-1.8-4.2-4-4.2Z"/>
  <path class="cls-1" d="M39.5,17.2h-1.8v-6.8c0-1.8-1.1-3-2.8-3s-2.9,1.3-2.9,3v6.8h-1.8V0h1.8v7.3c.8-.9,1.9-1.5,3.3-1.5,2.6,0,4.1,1.8,4.1,4.4v7Z"/>
  <path class="cls-1" d="M44.3,12.1c.2,2.2,1.9,3.7,4.1,3.7s2.4-.5,3.4-1.5l1,1.2c-1.2,1.2-2.7,1.9-4.5,1.9-3.3,0-5.9-2.5-5.9-5.8s2.5-5.8,5.7-5.8,5.1,2.1,5.1,5,0,.9-.1,1.3h-8.8ZM51.4,10.6c0-2-1.5-3.2-3.3-3.2s-3.4,1.3-3.8,3.2h7.1Z"/>
  <path class="cls-1" d="M56.3,0h1.8v17.2h-1.8V0Z"/>
  <path class="cls-1" d="M67.8,17.4c-1.7,0-3.2-.7-4.1-1.9v5.7h-1.8V6h1.7v1.8c.8-1.3,2.5-2,4.2-2,3.2,0,5.5,2.5,5.5,5.8s-2.4,5.8-5.5,5.8ZM67.6,7.4c-2,0-3.9,1.4-3.9,4.2s1.8,4.2,3.9,4.2,4-1.8,4-4.2-1.7-4.2-4-4.2Z"/>
  <path class="cls-1" d="M92.7,6l-5.5,12.7c-.8,1.9-2.1,2.8-3.8,2.8s-1.1,0-1.7-.2v-1.5c.6,0,1,.1,1.4.1,1.2,0,1.9-.4,2.5-1.8l.6-1.3-4.6-10.8h1.9l3.7,8.9,3.7-8.9h1.9Z"/>
  <path class="cls-1" d="M99.8,5.8c3.2,0,5.9,2.6,5.8,5.8,0,3.1-2.7,5.9-5.9,5.8-3.2,0-5.9-2.7-5.8-5.8,0-3.2,2.7-5.9,5.8-5.8ZM99.8,7.4c-2.3,0-4,1.8-4,4.2s1.7,4.2,4,4.2,4.1-1.8,4.1-4.2-1.8-4.2-4-4.2Z"/>
  <path class="cls-1" d="M108.6,6h1.7v6.8c0,1.8,1.2,3,2.9,3s2.8-1.2,2.8-3v-6.8h1.8v6.7c0,2.8-2,4.7-4.6,4.7s-4.6-1.9-4.6-4.7v-6.7Z"/>
</svg>