<?xml version="1.0" encoding="UTF-8"?>
<svg id="Layer_1" data-name="Layer 1" xmlns="http://www.w3.org/2000/svg" version="1.1" viewBox="0 0 115 20.8">
  <defs>
    <style>
      .cls-1 {
        fill: #ffbf3f;
        stroke-width: 0px;
      }
    </style>
  </defs>
  <path class="cls-1" d="M1.8,11.7c.2,2.2,1.9,3.7,4.1,3.7s2.4-.5,3.4-1.5l1,1.2c-1.2,1.2-2.7,1.9-4.5,1.9-3.3,0-5.9-2.5-5.9-5.8s2.5-5.8,5.7-5.8,5.1,2.1,5.1,5,0,.9-.1,1.3H1.8ZM9,10.1c0-2-1.5-3.2-3.3-3.2s-3.4,1.3-3.8,3.2h7.1Z"/>
  <path class="cls-1" d="M20.6,16.7l-3.2-4.6-3.2,4.6h-2.1l4.1-5.8-3.8-5.3h2l2.8,4.1,2.9-4.1h2l-3.9,5.3,4.2,5.8h-2Z"/>
  <path class="cls-1" d="M30.9,17c-1.7,0-3.2-.7-4.1-1.9v5.7h-1.8V5.5h1.6v1.8c.8-1.3,2.5-2,4.2-2,3.2,0,5.5,2.5,5.5,5.8s-2.4,5.8-5.5,5.8ZM30.7,6.9c-2,0-3.9,1.4-3.9,4.2s1.8,4.2,3.9,4.2,4-1.8,4-4.2-1.7-4.2-4-4.2Z"/>
  <path class="cls-1" d="M40.6,11.7c.2,2.2,1.9,3.7,4.1,3.7s2.4-.5,3.4-1.5l1,1.2c-1.2,1.2-2.7,1.9-4.5,1.9-3.3,0-5.9-2.5-5.9-5.8s2.5-5.8,5.7-5.8,5.1,2.1,5.1,5,0,.9-.1,1.3h-8.8ZM47.7,10.1c0-2-1.5-3.2-3.3-3.2s-3.4,1.3-3.8,3.2h7.1Z"/>
  <path class="cls-1" d="M58.5,7.1h-.7c-1.9,0-3.5,1.2-3.5,3.3v6.3h-1.8V5.5h1.7v1.6c.8-1.1,2.1-1.7,3.5-1.7s.5,0,.8,0v1.6Z"/>
  <path class="cls-1" d="M61.8,0c.7,0,1.3.6,1.3,1.3s-.6,1.3-1.3,1.3-1.3-.6-1.3-1.3.6-1.3,1.3-1.3ZM60.9,5.5h1.8v11.2h-1.8V5.5Z"/>
  <path class="cls-1" d="M67.6,11.7c.2,2.2,1.9,3.7,4.1,3.7s2.4-.5,3.4-1.5l1,1.2c-1.2,1.2-2.7,1.9-4.5,1.9-3.3,0-5.9-2.5-5.9-5.8s2.5-5.8,5.7-5.8,5.1,2.1,5.1,5,0,.9-.1,1.3h-8.8ZM74.7,10.1c0-2-1.5-3.2-3.3-3.2s-3.4,1.3-3.8,3.2h7.1Z"/>
  <path class="cls-1" d="M88.9,16.7h-1.8v-6.8c0-1.8-1.1-3-2.8-3s-2.9,1.2-2.9,3v6.8h-1.8V5.5h1.7v1.2c.8-.9,2-1.4,3.4-1.4,2.6,0,4.1,1.8,4.1,4.4v7Z"/>
  <path class="cls-1" d="M97.6,5.3c1.9,0,3.6.9,4.6,2.4l-1.3,1c-.9-1.2-2-1.8-3.3-1.8-2.3,0-4.1,1.9-4.1,4.2s1.7,4.2,4.1,4.2,2.4-.6,3.3-1.8l1.3,1c-1,1.5-2.6,2.4-4.6,2.4-3.2,0-5.8-2.6-5.8-5.8,0-3.2,2.7-5.9,5.8-5.8Z"/>
  <path class="cls-1" d="M106,11.7c.2,2.2,1.9,3.7,4.1,3.7s2.4-.5,3.4-1.5l1,1.2c-1.2,1.2-2.7,1.9-4.5,1.9-3.3,0-5.9-2.5-5.9-5.8s2.5-5.8,5.7-5.8,5.1,2.1,5.1,5,0,.9-.1,1.3h-8.8ZM113.2,10.1c0-2-1.5-3.2-3.3-3.2s-3.4,1.3-3.8,3.2h7.1Z"/>
</svg>