<?xml version="1.0" encoding="UTF-8"?>
<svg id="Layer_1" data-name="Layer 1" xmlns="http://www.w3.org/2000/svg" version="1.1" viewBox="0 0 236.6 25.8">
  <defs>
    <style>
      .cls-1 {
        fill: #ffbf3f;
        stroke-width: 0px;
      }
    </style>
  </defs>
  <path class="cls-1" d="M7.8,20.6H0V2.3h6.4c3.3,0,5.5,2,5.5,4.9s-.5,2.6-1.5,3.4c2.1.7,3.4,2.4,3.4,4.6s-2.3,5.3-5.9,5.3ZM2.9,4.9v4.9h3.2c1.8,0,2.8-1,2.8-2.5s-1-2.4-2.8-2.4h-3.2ZM7.6,12.3H2.9v5.7h4.7c2,0,3.2-1.1,3.2-2.8s-1.2-2.8-3.2-2.8Z"/>
  <path class="cls-1" d="M16.7,7h2.9v8.1c0,1.9,1.3,3.1,3.1,3.1s3-1.2,3-3.1V7h2.9v7.9c0,3.6-2.6,6-5.9,6s-5.9-2.3-5.9-6v-7.9Z"/>
  <path class="cls-1" d="M33,16.4c1.2,1.2,2.4,1.9,3.8,1.9s2.2-.5,2.2-1.5-.6-1.1-1.9-1.7l-1.4-.6c-2.4-1-3.5-2-3.5-4s2-3.9,4.8-3.9,3.5.7,4.7,2.1l-1.6,1.8c-.9-.9-2-1.4-3.2-1.4s-1.9.4-1.9,1.3.5,1,1.8,1.6l1.3.5c2.6,1.1,3.7,2.2,3.7,4.1s-.5,2.3-1.4,3.1c-1,.7-2.2,1.1-3.6,1.1-2.3,0-4.3-1-5.5-2.6l1.7-1.8Z"/>
  <path class="cls-1" d="M46.7,0c1.1,0,2,.9,2,1.9s-.9,1.9-2,1.9-2-.8-2-1.9.9-1.9,2-1.9ZM45.2,7h2.9v13.6h-2.9V7Z"/>
  <path class="cls-1" d="M64.2,20.6h-2.9v-8.1c0-1.9-1.2-3.2-3-3.2s-3.1,1.3-3.1,3.2v8.1h-2.9V7h2.7v1.3c1-1.1,2.4-1.6,4.1-1.6,3.2,0,5.1,2.2,5.1,5.4v8.5Z"/>
  <path class="cls-1" d="M70.3,14.7c.4,2.2,2.1,3.6,4.4,3.6s2.7-.5,4-1.6l1.4,2c-1.5,1.5-3.3,2.2-5.4,2.2-4.1,0-7.3-3.1-7.3-7.1,0-3.9,3.2-7.2,7-7.1,3.6,0,6.3,2.7,6.3,6.2s0,1.2-.2,1.8h-10.1ZM77.7,12.5c0-2.1-1.6-3.3-3.5-3.3s-3.5,1.3-3.9,3.3h7.4Z"/>
  <path class="cls-1" d="M84.3,16.4c1.2,1.2,2.4,1.9,3.8,1.9s2.2-.5,2.2-1.5-.6-1.1-1.9-1.7l-1.4-.6c-2.4-1-3.5-2-3.5-4s2-3.9,4.8-3.9,3.5.7,4.7,2.1l-1.6,1.8c-.9-.9-2-1.4-3.2-1.4s-1.9.4-1.9,1.3.5,1,1.8,1.6l1.3.5c2.6,1.1,3.7,2.2,3.7,4.1s-.5,2.3-1.4,3.1c-1,.7-2.2,1.1-3.6,1.1-2.3,0-4.3-1-5.5-2.6l1.7-1.8Z"/>
  <path class="cls-1" d="M96.9,16.4c1.2,1.2,2.4,1.9,3.8,1.9s2.2-.5,2.2-1.5-.6-1.1-1.9-1.7l-1.4-.6c-2.4-1-3.5-2-3.5-4s2-3.9,4.8-3.9,3.5.7,4.7,2.1l-1.6,1.8c-.9-.9-2-1.4-3.2-1.4s-1.9.4-1.9,1.3.5,1,1.8,1.6l1.3.5c2.6,1.1,3.7,2.2,3.7,4.1s-.5,2.3-1.4,3.1c-1,.7-2.2,1.1-3.6,1.1-2.3,0-4.3-1-5.5-2.6l1.7-1.8Z"/>
  <path class="cls-1" d="M117,2.3h11.7v2.6h-8.8v5.4h7.2v2.7h-7.2v7.5h-2.9V2.3Z"/>
  <path class="cls-1" d="M132.9,0c1.1,0,2,.9,2,1.9s-.9,1.9-2,1.9-2-.8-2-1.9.9-1.9,2-1.9ZM131.4,7h2.9v13.6h-2.9V7Z"/>
  <path class="cls-1" d="M150.4,20.6h-2.9v-8.1c0-1.9-1.2-3.2-3-3.2s-3.1,1.3-3.1,3.2v8.1h-2.9V7h2.7v1.3c1-1.1,2.4-1.6,4.1-1.6,3.2,0,5.1,2.2,5.1,5.4v8.5Z"/>
  <path class="cls-1" d="M165.2,20.6h-2.7v-1.5c-1,1.2-2.5,1.8-4.3,1.8-2.8,0-4.7-1.6-4.7-3.9s1.9-3.9,5-3.9h3.8v-.9c0-1.9-1.1-2.9-2.9-2.9s-2.6.7-3.8,2l-1.7-1.7c1.4-2,3.4-2.9,5.7-2.9,3.3,0,5.6,2,5.6,5.7v8.2ZM162.2,15.2h-3.5c-1.5,0-2.4.6-2.4,1.7s1,1.8,2.4,1.8,3.5-1.4,3.5-3.2v-.2Z"/>
  <path class="cls-1" d="M181.1,20.6h-2.9v-8.1c0-1.9-1.2-3.2-3-3.2s-3.1,1.3-3.1,3.2v8.1h-2.9V7h2.7v1.3c1-1.1,2.4-1.6,4.1-1.6,3.2,0,5.1,2.2,5.1,5.4v8.5Z"/>
  <path class="cls-1" d="M191.4,6.7c2.5,0,4.5,1.2,5.7,3.2l-2,1.6c-1-1.4-2.2-2.1-3.6-2.1-2.4,0-4.3,1.9-4.3,4.4s1.8,4.4,4.3,4.4,2.7-.7,3.6-2l2,1.6c-1.2,2-3.3,3.2-5.7,3.2-4,0-7.2-3.2-7.2-7.1,0-3.9,3.3-7.1,7.2-7.1Z"/>
  <path class="cls-1" d="M201.8,0c1.1,0,2,.9,2,1.9s-.9,1.9-2,1.9-2-.8-2-1.9.9-1.9,2-1.9ZM200.3,7h2.9v13.6h-2.9V7Z"/>
  <path class="cls-1" d="M219.3,20.6h-2.9v-8.1c0-1.9-1.2-3.2-3-3.2s-3.1,1.3-3.1,3.2v8.1h-2.9V7h2.7v1.3c1-1.1,2.4-1.6,4.1-1.6,3.2,0,5.1,2.2,5.1,5.4v8.5Z"/>
  <path class="cls-1" d="M236.6,7v12.2c0,4.3-2.7,6.7-6.8,6.7s-4.9-1.1-6.5-2.6l1.6-2c1.5,1.2,2.9,1.9,4.8,1.9s4.1-1.3,4.1-3.9v-1c-1,1.2-2.7,1.9-4.6,1.9-3.8,0-6.6-2.8-6.6-6.8s2.8-6.8,6.6-6.8,3.8.8,4.8,2.2v-1.9h2.7ZM229.7,9.3c-1.2,0-2.2.4-3,1.2-.8.8-1.2,1.8-1.2,3s.4,2.3,1.2,3.1c.8.8,1.8,1.2,3,1.2s2.1-.4,2.9-1.1c.8-.7,1.2-1.8,1.2-3.2,0-2.8-1.9-4.2-4.1-4.2Z"/>
</svg>