<?xml version="1.0" encoding="UTF-8"?>
<svg id="Layer_1" data-name="Layer 1" xmlns="http://www.w3.org/2000/svg" version="1.1" viewBox="0 0 216 21">
  <defs>
    <style>
      .cls-1 {
        fill: #ffbf3f;
        stroke-width: 0px;
      }
    </style>
  </defs>
  <path class="cls-1" d="M2.1,15.5c1.2,1.8,2.7,2.9,4.8,2.9s3.1-1,3.1-2.5-.8-1.9-2.7-2.7l-2-.9c-2.7-1.2-4.3-2.6-4.3-5.1S3.6,2.2,6.8,2.2s4.8,1.3,5.9,3.3l-2,1.6c-1-1.4-2.3-2.2-3.8-2.2s-2.8.8-2.8,2.2c.1,1.4.7,1.7,2.5,2.6l2,.9c3,1.4,4.4,2.8,4.4,5.2s-2.6,5.3-6.1,5.3-5.5-1.5-6.9-4l2.1-1.6Z"/>
  <path class="cls-1" d="M22.8,6.9c4,0,7.3,3.2,7.2,7.1,0,3.8-3.3,7.2-7.2,7.1-3.9,0-7.2-3.3-7.2-7.1,0-3.9,3.3-7.1,7.2-7.1ZM22.9,9.5c-2.4,0-4.2,1.9-4.2,4.4s1.8,4.4,4.2,4.4,4.2-1.9,4.2-4.4-1.9-4.4-4.2-4.4Z"/>
  <path class="cls-1" d="M33.2,7.2h2.9v8.1c0,1.9,1.3,3.1,3.1,3.1s3-1.2,3-3.1V7.2h2.9v7.9c0,3.6-2.6,6-5.9,6s-5.9-2.3-5.9-6v-7.9Z"/>
  <path class="cls-1" d="M57.2,20.7c-.9.2-1.7.3-2.4.3-3.1,0-5-1.5-5-4.7v-6.6h-2.2v-2.5h2.2v-3.6h2.9v3.6h4v2.5h-4v6.4c0,1.7.9,2.3,2.7,2.3s1,0,1.8-.1v2.5Z"/>
  <path class="cls-1" d="M72,20.7h-2.9v-8.1c0-1.9-1.2-3.2-3-3.2s-3.1,1.3-3.1,3.2v8.1h-2.9V0h2.9v8.5c.9-1.1,2.3-1.7,3.9-1.7,3.1,0,5,2.2,5,5.4v8.5Z"/>
  <path class="cls-1" d="M77,15.5c1.2,1.8,2.7,2.9,4.8,2.9s3.1-1,3.1-2.5-.8-1.9-2.7-2.7l-2-.9c-2.7-1.2-4.3-2.6-4.3-5.1s2.6-4.9,5.7-4.9,4.8,1.3,5.9,3.3l-2,1.6c-1-1.4-2.3-2.2-3.8-2.2s-2.8.8-2.8,2.2c.1,1.4.7,1.7,2.5,2.6l2,.9c3,1.4,4.4,2.8,4.4,5.2s-2.6,5.3-6.1,5.3-5.5-1.5-6.9-4l2.1-1.6Z"/>
  <path class="cls-1" d="M99.4,20.7c-.9.2-1.7.3-2.4.3-3.1,0-5-1.5-5-4.7v-6.6h-2.2v-2.5h2.2v-3.6h2.9v3.6h4v2.5h-4v6.4c0,1.7.9,2.3,2.7,2.3s1,0,1.8-.1v2.5Z"/>
  <path class="cls-1" d="M113.1,20.7h-2.7v-1.5c-1,1.2-2.5,1.8-4.3,1.8-2.8,0-4.7-1.6-4.7-3.9s1.9-3.9,5-3.9h3.8v-.9c0-1.9-1.1-2.9-2.9-2.9s-2.6.7-3.8,2l-1.7-1.7c1.4-2,3.4-2.9,5.7-2.9,3.3,0,5.6,2,5.6,5.7v8.2ZM110.1,15.3h-3.5c-1.5,0-2.4.6-2.4,1.7s1,1.8,2.4,1.8,3.5-1.4,3.5-3.2v-.2Z"/>
  <path class="cls-1" d="M125.2,20.7c-.9.2-1.7.3-2.4.3-3.1,0-5-1.5-5-4.7v-6.6h-2.2v-2.5h2.2v-3.6h2.9v3.6h4v2.5h-4v6.4c0,1.7.9,2.3,2.7,2.3s1,0,1.8-.1v2.5Z"/>
  <path class="cls-1" d="M129.9,14.9c.4,2.2,2.1,3.6,4.4,3.6s2.7-.5,4-1.6l1.4,2c-1.5,1.5-3.3,2.2-5.4,2.2-4.1,0-7.3-3.1-7.3-7.1,0-3.9,3.2-7.2,7-7.1,3.6,0,6.3,2.7,6.3,6.2s0,1.2-.2,1.8h-10.1ZM137.4,12.6c0-2.1-1.6-3.3-3.5-3.3s-3.5,1.3-3.9,3.3h7.4Z"/>
  <path class="cls-1" d="M152.3,15.5c1.2,1.8,2.7,2.9,4.8,2.9s3.2-1,3.2-2.5-.8-1.9-2.7-2.7l-2-.9c-2.7-1.2-4.3-2.6-4.3-5.1s2.6-4.9,5.7-4.9,4.8,1.3,5.9,3.3l-2,1.6c-1-1.4-2.3-2.2-3.8-2.2s-2.8.8-2.8,2.2c.1,1.4.7,1.7,2.5,2.6l2,.9c3,1.4,4.4,2.8,4.4,5.2s-2.6,5.3-6.1,5.3-5.5-1.5-6.9-4l2.1-1.6Z"/>
  <path class="cls-1" d="M187.1,20.7h-2.9v-8.1c0-1.9-1.1-3.2-2.8-3.2s-3,1.3-3,3v8.2h-2.9v-8.1c0-1.9-1.1-3.2-2.8-3.2s-3,1.3-3,3.2v8.1h-2.9V7.2h2.7v1.3c1-1,2.3-1.6,3.9-1.6s3.3.8,4.1,2.1c1-1.3,2.7-2.1,4.6-2.1,3.1,0,5,2.2,5,5.4v8.5Z"/>
  <path class="cls-1" d="M201.9,20.7h-2.7v-1.5c-1,1.2-2.5,1.8-4.3,1.8-2.8,0-4.7-1.6-4.7-3.9s1.9-3.9,5-3.9h3.8v-.9c0-1.9-1.1-2.9-2.9-2.9s-2.6.7-3.8,2l-1.7-1.7c1.4-2,3.4-2.9,5.7-2.9,3.3,0,5.6,2,5.6,5.7v8.2ZM199,15.3h-3.5c-1.5,0-2.4.6-2.4,1.7s1,1.8,2.4,1.8,3.5-1.4,3.5-3.2v-.2Z"/>
  <path class="cls-1" d="M206,0h2.9v20.7h-2.9V0Z"/>
  <path class="cls-1" d="M213.1,0h2.9v20.7h-2.9V0Z"/>
</svg>