<?xml version="1.0" encoding="UTF-8"?>
<svg id="Layer_1" data-name="Layer 1" xmlns="http://www.w3.org/2000/svg" version="1.1" viewBox="0 0 216.5 58">
  <defs>
    <style>
      .cls-1 {
        fill: #fff;
        stroke-width: 0px;
      }
    </style>
  </defs>
  <path class="cls-1" d="M10.2,1.7c3.5,0,6.5,1.6,8.1,4.2l-1.7,1.4c-1.5-2.2-3.7-3.4-6.4-3.4-4.4,0-7.8,3.4-7.8,8s3.4,8,7.8,8,4.9-1.3,6.4-3.4l1.7,1.4c-1.6,2.6-4.7,4.2-8.1,4.2C4.6,22.1-.1,17.5,0,11.9-.1,6.2,4.6,1.6,10.2,1.7Z"/>
  <path class="cls-1" d="M28.6,6.9c4.1,0,7.7,3.4,7.6,7.6,0,4.1-3.5,7.6-7.6,7.6-4.1,0-7.6-3.5-7.6-7.6,0-4.1,3.4-7.6,7.6-7.6ZM28.6,9c-3,0-5.2,2.3-5.2,5.5s2.3,5.4,5.2,5.4,5.3-2.4,5.3-5.4-2.3-5.5-5.2-5.5Z"/>
  <path class="cls-1" d="M61.3,21.7h-2.3v-8.8c0-2.3-1.3-3.9-3.4-3.9s-3.7,1.6-3.7,3.7v9h-2.3v-8.8c0-2.3-1.3-3.9-3.4-3.9s-3.7,1.6-3.7,3.9v8.8h-2.3V7.2h2.1v1.5c1-1.2,2.5-1.8,4.3-1.8s3.6.9,4.5,2.5c1.1-1.5,2.8-2.5,5-2.5,3.3,0,5.3,2.3,5.3,5.7v9.1Z"/>
  <path class="cls-1" d="M67.5,15.1c.3,2.9,2.5,4.8,5.3,4.8s3.1-.7,4.4-2l1.3,1.5c-1.5,1.6-3.5,2.5-5.8,2.5-4.3,0-7.7-3.3-7.7-7.6s3.3-7.6,7.4-7.6,6.6,2.7,6.6,6.5,0,1.1-.2,1.7h-11.4ZM76.8,13.1c0-2.6-1.9-4.2-4.3-4.2s-4.4,1.7-4.9,4.2h9.2Z"/>
  <path class="cls-1" d="M103.3,7.2l-6.8,14.8h-.8l-6.8-14.8h2.4l4.8,10.9,4.8-10.9h2.4Z"/>
  <path class="cls-1" d="M107.8,0c.9,0,1.7.7,1.7,1.7s-.7,1.7-1.7,1.7-1.7-.7-1.7-1.7.8-1.7,1.7-1.7ZM106.6,7.2h2.3v14.5h-2.3V7.2Z"/>
  <path class="cls-1" d="M114,17.7c1.4,1.4,2.5,2.2,4.2,2.2s2.8-.8,2.8-2.1-.7-1.6-2.5-2.3l-1.4-.6c-2.4-1-3.6-2.1-3.6-4s2.1-4,4.9-4,3.7.9,4.8,2.3l-1.4,1.4c-1-1-2.2-1.6-3.6-1.6s-2.4.7-2.4,1.8.6,1.4,2.3,2.1l1.3.6c2.7,1.2,3.8,2.3,3.8,4.3s-.5,2.4-1.5,3.2c-1,.7-2.2,1.1-3.6,1.1-2.4,0-4.4-1.2-5.7-2.8l1.5-1.5Z"/>
  <path class="cls-1" d="M128.6,0c.9,0,1.7.7,1.7,1.7s-.7,1.7-1.7,1.7-1.7-.7-1.7-1.7.8-1.7,1.7-1.7ZM127.4,7.2h2.3v14.5h-2.3V7.2Z"/>
  <path class="cls-1" d="M142.7,21.7c-.9.2-1.7.3-2.4.3-3,0-4.9-1.5-4.9-4.7v-8.1h-2.4v-2.1h2.4v-4h2.3v4h4.5v2.1h-4.5v7.9c0,2.1,1.1,2.8,3.1,2.8s1.2,0,1.9-.2v1.9Z"/>
  <path class="cls-1" d="M154.2,7.2h2.3v8.9c0,2.3,1.6,3.8,3.7,3.8s3.7-1.5,3.7-3.8V7.2h2.3v8.7c0,3.7-2.6,6.1-6,6.1s-6-2.4-6-6.1V7.2Z"/>
  <path class="cls-1" d="M171.2,17.7c1.4,1.4,2.5,2.2,4.2,2.2s2.8-.8,2.8-2.1-.7-1.6-2.5-2.3l-1.4-.6c-2.4-1-3.6-2.1-3.6-4s2.1-4,4.9-4,3.7.9,4.8,2.3l-1.4,1.4c-1-1-2.2-1.6-3.6-1.6s-2.4.7-2.4,1.8.6,1.4,2.3,2.1l1.3.6c2.7,1.2,3.8,2.3,3.8,4.3s-.5,2.4-1.5,3.2c-1,.7-2.2,1.1-3.6,1.1-2.4,0-4.4-1.2-5.7-2.8l1.5-1.5Z"/>
  <path class="cls-1" d="M203.7,21.7h-2.1v-1.9c-1.1,1.4-2.8,2.2-4.9,2.2s-5.1-1.6-5.1-4.1,2.1-4,5.2-4h4.6v-1.2c0-2.4-1.3-3.7-3.5-3.7s-3,.8-4.2,2.3l-1.5-1.2c1.3-2.1,3.5-3.2,5.9-3.2,3.4,0,5.7,2.1,5.7,5.9v8.9ZM201.5,15.8h-4.3c-2,0-3.1.7-3.1,2.1s1.3,2.3,3,2.3,4.4-1.8,4.4-4v-.4Z"/>
  <path class="cls-1" d="M216.5,21.7c-.9.2-1.7.3-2.4.3-3,0-4.9-1.5-4.9-4.7v-8.1h-2.4v-2.1h2.4v-4h2.3v4h4.5v2.1h-4.5v7.9c0,2.1,1.1,2.8,3.1,2.8s1.2,0,1.9-.2v1.9Z"/>
  <path class="cls-1" d="M8.7,58c-2.3,0-4.4-1-5.5-2.6v2.3H1.1v-22.3h2.3v9.9c1.2-1.5,3.2-2.4,5.3-2.4,4.1,0,7.2,3.3,7.2,7.6s-3.1,7.6-7.1,7.6ZM8.4,45c-2.7,0-5,1.8-5,5.5s2.4,5.4,5,5.4,5.1-2.3,5.1-5.5-2.2-5.4-5.1-5.4Z"/>
  <path class="cls-1" d="M26.4,42.9c4.1,0,7.7,3.4,7.6,7.6,0,4.1-3.5,7.6-7.6,7.6-4.1,0-7.6-3.5-7.6-7.6,0-4.1,3.4-7.6,7.6-7.6ZM26.4,45c-3,0-5.2,2.3-5.2,5.5s2.3,5.4,5.2,5.4,5.3-2.4,5.3-5.4-2.3-5.5-5.2-5.5Z"/>
  <path class="cls-1" d="M44.6,42.9c4.1,0,7.7,3.4,7.6,7.6,0,4.1-3.5,7.6-7.6,7.6-4.1,0-7.6-3.5-7.6-7.6,0-4.1,3.4-7.6,7.6-7.6ZM44.6,45c-3,0-5.2,2.3-5.2,5.5s2.3,5.4,5.2,5.4,5.3-2.4,5.3-5.4-2.3-5.5-5.2-5.5Z"/>
  <path class="cls-1" d="M64.1,57.7c-.9.2-1.7.3-2.4.3-3,0-4.9-1.5-4.9-4.7v-8.1h-2.4v-2.1h2.4v-4h2.3v4h4.5v2.1h-4.5v7.9c0,2.1,1.1,2.8,3.1,2.8s1.2,0,1.9-.2v1.9Z"/>
  <path class="cls-1" d="M79.5,57.7h-2.3v-8.8c0-2.3-1.4-3.9-3.6-3.9s-3.8,1.6-3.8,3.9v8.8h-2.3v-22.3h2.3v9.5c1-1.2,2.5-2,4.3-2,3.3,0,5.4,2.3,5.4,5.7v9.1Z"/>
  <path class="cls-1" d="M104.2,45.2l-.7,5.4h2.9v2h-3.2l-.7,5.1h-1.9l.7-5.1h-5.7l-.7,5.1h-1.9l.7-5.1h-2.6v-2h2.9l.7-5.4h-2.9v-2h3.2l.7-5.1h2l-.7,5.1h5.7l.7-5.1h2l-.7,5.1h2.6v2h-2.9ZM101.5,50.6l.7-5.4h-5.7l-.7,5.4h5.7Z"/>
  <path class="cls-1" d="M115.3,58c-3,0-5.4-1.7-6.7-4.1l1.6-1.2c1.3,1.9,2.8,3.1,5,3.1s4.6-1.8,4.6-4.4-1.8-4-5-4h-1.9v-.7l5.1-6.6h-8.1v-2.1h11.8v.7l-5.2,6.7c3,.3,5.7,2.4,5.7,6s-3.2,6.5-7,6.5Z"/>
  <path class="cls-1" d="M132.1,58c-3.7,0-6.7-2.9-6.7-6.6s.2-1.9.5-2.7c.4-.8,1-1.8,1.8-2.9.2-.2.3-.4.4-.6l4.9-7.1h2.8l-5,7.2c.5-.2,1-.3,1.6-.3,3.5,0,6.4,2.8,6.4,6.4s-3,6.6-6.7,6.6ZM132.1,46.9c-2.5,0-4.4,2-4.4,4.5s1.9,4.5,4.4,4.5,4.4-2,4.4-4.5-1.9-4.5-4.4-4.5Z"/>
</svg>