<?xml version="1.0" encoding="UTF-8"?>
<svg xmlns="http://www.w3.org/2000/svg" version="1.1" viewBox="0 0 277.3 29.9">
  <defs>
    <style>
      .cls-1 {
        fill: #002d72;
      }
    </style>
  </defs>
  <!-- Generator: Adobe Illustrator 28.7.1, SVG Export Plug-In . SVG Version: 1.2.0 Build 142)  -->
  <g>
    <g id="Layer_1">
      <g>
        <path class="cls-1" d="M0,.5h10.8c6,0,10.4,3.8,10.4,9.3s-4.4,9.4-10.4,9.4h-4.9v10.2H0V.5ZM10.8,14c2.8,0,4.4-1.7,4.4-4.2s-1.7-4.1-4.4-4.1h-4.9v8.3h4.9Z"/>
        <path class="cls-1" d="M39.5,25.6h-11.8l-1.6,3.8h-6.3L32.6,0h2l12.9,29.4h-6.3l-1.6-3.8ZM33.6,11l-3.8,9.8h7.7l-3.8-9.8Z"/>
        <path class="cls-1" d="M69.1,29.4l-7.5-10.2h-4.3v10.2h-5.9V.5h10.8c6,0,10.4,3.8,10.4,9.3s-1.9,6.6-5.1,8.2l8.2,11.3h-6.6ZM57.3,14h4.9c2.8,0,4.4-1.7,4.4-4.2s-1.7-4.1-4.4-4.1h-4.9v8.3Z"/>
        <path class="cls-1" d="M84.8,5.9h-9.2V.5h24.4v5.3h-9.3v23.5h-5.9V5.9Z"/>
        <path class="cls-1" d="M128.5.5v29.4h-2l-16.7-17.8v17.3h-5.9V0h1.9l16.7,17.8V.5h5.9Z"/>
        <path class="cls-1" d="M135.1.5h19.4v5.3h-13.5v5.9h9.9v5h-9.9v7.3h14v5.3h-19.9V.5Z"/>
        <path class="cls-1" d="M177.8,29.4l-7.5-10.2h-4.3v10.2h-5.9V.5h10.8c6,0,10.4,3.8,10.4,9.3s-1.9,6.6-5.1,8.2l8.2,11.3h-6.6ZM166,14h4.9c2.8,0,4.4-1.7,4.4-4.2s-1.7-4.1-4.4-4.1h-4.9v8.3Z"/>
        <path class="cls-1" d="M190,20.5c1.9,2.6,3.9,4.2,7.1,4.2s4.1-1.2,4.1-3.2-.9-2.3-3.7-3.6l-3.1-1.4c-4.4-2-7-4.5-7-8.3s4.1-8.2,9.6-8.2,7.7,2.1,9.5,5.5l-4,3.1c-1.5-2.2-3.3-3.3-5.5-3.3s-3.6,1-3.6,2.8.9,2.2,3.4,3.3l3.3,1.4c4.9,2.1,7.1,4.5,7.1,8.4s-4.3,8.7-10.1,8.7-8.9-2.5-11.2-6.4l4.1-3.1Z"/>
        <path class="cls-1" d="M212.3.5h5.9v11.1h12.8V.5h5.9v28.9h-5.9v-12.5h-12.8v12.5h-5.9V.5Z"/>
        <path class="cls-1" d="M243.5.5h5.9v28.9h-5.9V.5Z"/>
        <path class="cls-1" d="M256,.5h10.8c6,0,10.4,3.8,10.4,9.3s-4.4,9.4-10.4,9.4h-4.9v10.2h-5.9V.5ZM266.9,14c2.8,0,4.4-1.7,4.4-4.2s-1.7-4.1-4.4-4.1h-4.9v8.3h4.9Z"/>
      </g>
    </g>
  </g>
</svg>