<?xml version="1.0" encoding="UTF-8"?>
<svg xmlns="http://www.w3.org/2000/svg" version="1.1" viewBox="0 0 229.6 173.6">
  <defs>
    <style>
      .cls-1 {
        fill: #ffbf3f;
      }
    </style>
  </defs>
  <!-- Generator: Adobe Illustrator 28.7.1, SVG Export Plug-In . SVG Version: 1.2.0 Build 142)  -->
  <g>
    <g id="Layer_1">
      <g>
        <path class="cls-1" d="M21.2,8.5H7.8V.8h35.3v7.7h-13.4v34h-8.5V8.5Z"/>
        <path class="cls-1" d="M67.6,0c12-.3,22.5,9.7,22.3,21.6.2,12-10.2,21.9-22.3,21.6-12,.3-22.3-9.7-22.1-21.6C45.3,9.7,55.6-.2,67.6,0ZM67.7,7.9c-7.7,0-13.4,5.7-13.4,13.7s5.7,13.7,13.4,13.7,13.4-5.7,13.4-13.7-5.8-13.7-13.4-13.7Z"/>
        <path class="cls-1" d="M97.1.8h15.7c8.7,0,15.1,5.4,15.1,13.5s-6.3,13.5-15.1,13.5h-7.1v14.7h-8.5V.8ZM112.8,20.3c4,0,6.3-2.5,6.3-6.1s-2.5-5.9-6.3-5.9h-7.1v12h7.1Z"/>
        <path class="cls-1" d="M179.3,35.2v7.3h-30.8c0,0,0-1.8,0-1.8l14.9-16.2c4.1-4.5,5.9-7.4,5.9-10.5s-2.3-6.1-5.8-6.1-5.9,2.6-5.9,6.4.1,1.8.3,3h-8.6c-.3-1.1-.4-2.3-.4-3.5C148.9,6.7,154.7,0,163.7,0s14.5,5.8,14.5,13.3-.8,5.4-2.3,7.9c-1.5,2.4-3.7,5.2-6.7,8.3l-5.4,5.7h15.6Z"/>
        <path class="cls-1" d="M199.5,43.3c-7.1,0-12.6-3.7-15.5-9.5l5.9-4.2c2.5,3.8,5.2,5.8,9.3,5.8s7.5-2.5,7.5-6.5-3-6-8.5-6h-9.7V.8h24.7v7.7h-16.4v7.6c1.6-.3,3.2-.5,4.7-.5,7.2,0,14.1,4.7,14.1,13.2s-7.1,14.5-16,14.5Z"/>
        <path class="cls-1" d="M55.2,94.8c2.7,3.7,5.7,6.1,10.2,6.1s5.9-1.8,5.9-4.6-1.3-3.4-5.3-5.2l-4.5-2c-6.4-2.8-10.1-6.5-10.1-12s5.9-11.8,13.9-11.8,11.2,3.1,13.8,7.9l-5.8,4.5c-2.2-3.2-4.8-4.8-8-4.8s-5.2,1.5-5.2,4,1.3,3.2,4.9,4.8l4.7,2.1c7,3.1,10.3,6.6,10.3,12.2s-6.3,12.5-14.6,12.5-12.9-3.6-16.1-9.2l5.9-4.4Z"/>
        <path class="cls-1" d="M106.2,107.7h-18.6v-41.7h14.8c7.7,0,13.2,4.8,13.2,11.6s-1,5.6-3.1,7.5c4.6,1.7,7.4,5.2,7.4,10.3,0,7.2-5.7,12.3-13.7,12.3ZM95.8,73.3v9.6h5.9c3.5,0,5.4-1.8,5.4-4.8s-2-4.7-5.4-4.7h-5.9ZM105.6,89.8h-9.7v10.5h9.7c3.7,0,5.9-2,5.9-5.2s-2.2-5.2-5.9-5.2Z"/>
        <path class="cls-1" d="M150.9,102.2h-17.1l-2.3,5.4h-9.2l18.7-42.5h2.8l18.6,42.5h-9.2l-2.3-5.4ZM142.3,81.1l-5.6,14.1h11.1l-5.6-14.1Z"/>
        <path class="cls-1" d="M0,131.1h8.5v34h18.3v7.7H0v-41.7Z"/>
        <path class="cls-1" d="M33.1,131.1h28.1v7.7h-19.5v8.5h14.4v7.3h-14.4v10.6h20.3v7.7h-28.8v-41.7Z"/>
        <path class="cls-1" d="M104.9,131.1v42.5h-2.8l-24.2-25.8v25h-8.5v-42.5h2.8l24.2,25.7v-24.9h8.5Z"/>
        <path class="cls-1" d="M114.5,131.1h13.7c13.2-.1,23,8.4,22.8,20.7.2,12.1-9.5,21.2-22.8,21h-13.7v-41.7ZM128.1,165.1c8.4,0,14-5.2,14-13.3s-5.5-13-14-13h-5.1v26.3h5.1Z"/>
        <path class="cls-1" d="M158.1,131.1h28.1v7.7h-19.5v8.5h14.4v7.3h-14.4v10.6h20.3v7.7h-28.8v-41.7Z"/>
        <path class="cls-1" d="M220,172.8l-10.8-14.7h-6.3v14.7h-8.5v-41.7h15.7c8.7,0,15.1,5.4,15.1,13.5s-2.8,9.6-7.3,11.9l11.8,16.4h-9.6ZM202.9,150.6h7.1c4,0,6.3-2.4,6.3-6s-2.5-5.9-6.3-5.9h-7.1v12Z"/>
      </g>
    </g>
  </g>
</svg>