<?xml version="1.0" encoding="UTF-8"?>
<svg xmlns="http://www.w3.org/2000/svg" version="1.1" viewBox="0 0 154.9 68.9">
  <defs>
    <style>
      .cls-1 {
        fill: #ffbf3f;
      }
    </style>
  </defs>
  <!-- Generator: Adobe Illustrator 28.7.1, SVG Export Plug-In . SVG Version: 1.2.0 Build 142)  -->
  <g>
    <g id="Layer_1">
      <g>
        <path class="cls-1" d="M2.1,18.2c1.8,2.7,4.1,4.1,6.7,4.1s4.9-1.6,4.9-4-1.3-2.9-4-4.2l-2.7-1.3c-3.3-1.6-5.5-3.3-5.5-6.5S4.9,0,8.8,0s6,1.6,7.6,4.1l-2.1,1.6c-1.3-1.9-3.3-3-5.5-3s-4.3,1.3-4.3,3.5.1,1.3.5,1.8c.6.9,1.5,1.4,3.4,2.3l2.7,1.3c3.8,1.9,5.6,3.6,5.6,6.7s-3.3,6.7-7.8,6.7-7-2-8.9-5.2l2.1-1.6Z"/>
        <path class="cls-1" d="M22.3.4h15.5v2.6h-12.6v7.4h9.7v2.6h-9.7v9.1h13.1v2.6h-15.9V.4Z"/>
        <path class="cls-1" d="M43,.4h15.5v2.6h-12.6v7.4h9.7v2.6h-9.7v9.1h13.1v2.6h-15.9V.4Z"/>
        <path class="cls-1" d="M106.2.4l-9.2,24.6h-1l-7.7-19.2-7.7,19.2h-1L70.4.4h3.2l6.7,18.4L87.8,0h1l7.5,18.8L103,.4h3.1Z"/>
        <path class="cls-1" d="M111.2.4h2.9v10h13.6V.4h2.9v24.2h-2.9v-11.6h-13.6v11.6h-2.9V.4Z"/>
        <path class="cls-1" d="M146.5,14.6v10h-2.9v-10L135.2.4h3.2l6.6,11.4,6.6-11.4h3.2l-8.4,14.2Z"/>
        <path class="cls-1" d="M47,44.3l-9.2,24.6h-1l-7.7-19.2-7.7,19.2h-1l-9.2-24.6h3.1l6.7,18.4,7.5-18.8h1l7.5,18.8,6.7-18.4h3.1Z"/>
        <path class="cls-1" d="M52,44.3h15.5v2.6h-12.6v7.4h9.7v2.6h-9.7v9.1h13.1v2.6h-15.9v-24.2Z"/>
        <path class="cls-1" d="M73.3,44.3h3.3l-1.6,9.4h-2.2l.5-9.4Z"/>
        <path class="cls-1" d="M98.5,68.5l-7.5-10.1h-5.2v10.1h-2.9v-24.2h8.5c4.7,0,7.7,2.9,7.7,7s-1.9,5.8-5.1,6.7l7.7,10.5h-3.3ZM85.8,55.8h5.5c3.1,0,4.9-1.8,4.9-4.4s-1.8-4.5-4.9-4.5h-5.5v8.9Z"/>
        <path class="cls-1" d="M105.7,44.3h15.5v2.6h-12.6v7.4h9.7v2.6h-9.7v9.1h13.1v2.6h-15.9v-24.2Z"/>
        <path class="cls-1" d="M149.6,63.6h-11.9l-2.1,4.9h-3l10.5-24.6h1.1l10.5,24.6h-3l-2.1-4.9ZM143.7,49.1l-4.8,11.9h9.7l-4.8-11.9Z"/>
      </g>
    </g>
  </g>
</svg>