<?xml version="1.0" encoding="UTF-8"?>
<svg xmlns="http://www.w3.org/2000/svg" version="1.1" viewBox="0 0 178.3 44.1">
  <defs>
    <style>
      .cls-1 {
        fill: #ffbf3f;
      }

      .cls-2 {
        fill: #002d72;
      }
    </style>
  </defs>
  <!-- Generator: Adobe Illustrator 28.7.1, SVG Export Plug-In . SVG Version: 1.2.0 Build 142)  -->
  <g>
    <g id="Layer_1">
      <rect class="cls-1" width="178.3" height="44.1" rx="6.6" ry="6.6"/>
      <g>
        <path class="cls-2" d="M22.9,13.2h2.8v14.9h8v2.5h-10.8V13.2Z"/>
        <path class="cls-2" d="M38.2,25c.3,2.1,2,3.4,4.2,3.4s2.6-.5,3.8-1.5l1.3,1.9c-1.5,1.4-3.2,2.1-5.2,2.1-4,0-7-2.9-7-6.8,0-3.7,3-6.9,6.7-6.8,3.4,0,6,2.6,6,5.9s0,1.1-.2,1.7h-9.7ZM45.3,22.9c0-2-1.5-3.2-3.3-3.2s-3.3,1.2-3.7,3.2h7Z"/>
        <path class="cls-2" d="M61.5,30.6h-2.6v-1.5c-.9,1.1-2.4,1.7-4.1,1.7-2.7,0-4.5-1.5-4.5-3.7s1.8-3.7,4.8-3.7h3.7v-.8c0-1.8-1-2.8-2.8-2.8s-2.5.6-3.6,1.9l-1.6-1.6c1.3-1.9,3.2-2.8,5.5-2.8,3.2,0,5.3,1.9,5.3,5.4v7.8ZM58.7,25.5h-3.3c-1.5,0-2.3.5-2.3,1.6s.9,1.7,2.3,1.7,3.3-1.3,3.3-3.1v-.2Z"/>
        <path class="cls-2" d="M72.7,20.1h-.8c-2.2,0-3.8,1.3-3.8,3.6v6.9h-2.8v-12.9h2.6v1.7c.9-1.2,2.3-1.8,3.8-1.8s.7,0,1.1.1v2.5Z"/>
        <path class="cls-2" d="M86.5,30.6h-2.8v-7.7c0-1.8-1.1-3-2.8-3s-3,1.2-3,3v7.7h-2.8v-12.9h2.6v1.3c1-1,2.3-1.6,3.9-1.6,3,0,4.9,2.1,4.9,5.1v8.1Z"/>
        <path class="cls-2" d="M114.5,12.9v17.7h-2.8v-10.9l-5,6.5h-.9l-5-6.6v10.9h-2.8V12.9h1l7.3,9.7,7.3-9.7h.9Z"/>
        <path class="cls-2" d="M124.5,17.4c3.8,0,7,3.1,6.9,6.8,0,3.7-3.1,6.9-6.9,6.8-3.7,0-6.9-3.1-6.8-6.8,0-3.7,3.1-6.8,6.8-6.8ZM124.6,19.9c-2.3,0-4,1.8-4,4.2s1.7,4.2,4,4.2,4-1.8,4-4.2-1.8-4.2-4-4.2Z"/>
        <path class="cls-2" d="M142,20.1h-.8c-2.2,0-3.8,1.3-3.8,3.6v6.9h-2.8v-12.9h2.6v1.7c.9-1.2,2.3-1.8,3.8-1.8s.7,0,1.1.1v2.5Z"/>
        <path class="cls-2" d="M146.2,25c.3,2.1,2,3.4,4.2,3.4s2.6-.5,3.8-1.5l1.3,1.9c-1.5,1.4-3.2,2.1-5.2,2.1-4,0-7-2.9-7-6.8,0-3.7,3-6.9,6.7-6.8,3.4,0,6,2.6,6,5.9s0,1.1-.2,1.7h-9.7ZM153.3,22.9c0-2-1.5-3.2-3.3-3.2s-3.3,1.2-3.7,3.2h7Z"/>
      </g>
    </g>
  </g>
</svg>