<?xml version="1.0" encoding="UTF-8"?>
<svg xmlns="http://www.w3.org/2000/svg" version="1.1" viewBox="0 0 200 39.2">
  <defs>
    <style>
      .cls-1 {
        fill: #002d72;
      }
    </style>
  </defs>
  <!-- Generator: Adobe Illustrator 28.7.1, SVG Export Plug-In . SVG Version: 1.2.0 Build 142)  -->
  <g>
    <g id="Layer_1">
      <g>
        <path class="cls-1" d="M0,.6h23.7v4H4.5v13h16v4.1H4.5v16.8H0V.6Z"/>
        <path class="cls-1" d="M47,0c10.6-.2,19.9,8.7,19.7,19.6.2,10.9-9.1,19.8-19.7,19.6-10.7.2-19.9-8.8-19.6-19.6C27.1,8.7,36.2-.2,47,0ZM47.1,4.1c-8.6,0-15.1,6.6-15.1,15.4s6.5,15.5,15.1,15.5c8.3.1,15.2-6.8,15-15.5.2-8.6-6.7-15.6-15-15.4Z"/>
        <path class="cls-1" d="M99,38.6l-11.8-15.9h-8.1v15.9h-4.5V.6h13.3c7.4,0,12.1,4.6,12.1,11s-3,9.1-8,10.5l12.1,16.4h-5.2ZM79.2,18.6h8.7c4.9,0,7.6-2.8,7.6-7s-2.8-7-7.6-7h-8.7v14Z"/>
        <path class="cls-1" d="M145.3,0v38.5h-4.5V11.4l-12.1,16.4h-1.6l-12.2-16.5v27.3h-4.5V0h1.6l15.8,21.9L143.7,0h1.6Z"/>
        <path class="cls-1" d="M192.1,30.9h-18.6l-3.2,7.7h-4.7L181.9,0h1.7l16.4,38.5h-4.8l-3.2-7.7ZM182.7,8.2l-7.6,18.7h15.2l-7.6-18.7Z"/>
      </g>
    </g>
  </g>
</svg>