<?xml version="1.0" encoding="UTF-8"?>
<svg xmlns="http://www.w3.org/2000/svg" version="1.1" viewBox="0 0 436.1 47">
  <defs>
    <style>
      .cls-1 {
        fill: #002d72;
      }
    </style>
  </defs>
  <!-- Generator: Adobe Illustrator 28.7.1, SVG Export Plug-In . SVG Version: 1.2.0 Build 142)  -->
  <g>
    <g id="Layer_1">
      <g>
        <path class="cls-1" d="M0,.8h17.1c9.5,0,16.4,5.9,16.4,14.7s-6.9,14.7-16.4,14.7h-7.8v16H0V.8ZM17.1,22.1c4.3,0,6.9-2.7,6.9-6.6s-2.7-6.5-6.9-6.5h-7.8v13.1h7.8Z"/>
        <path class="cls-1" d="M62.1,40.3h-18.6l-2.5,5.9h-10L51.3,0h3.1l20.2,46.2h-10l-2.5-5.9ZM52.8,17.3l-6.1,15.3h12.1l-6.1-15.3Z"/>
        <path class="cls-1" d="M108.7,46.2l-11.8-16h-6.8v16h-9.3V.8h17.1c9.5,0,16.4,5.9,16.4,14.7s-3,10.5-8,12.9l12.9,17.8h-10.5ZM90.1,22h7.8c4.3,0,6.9-2.6,6.9-6.5s-2.7-6.5-6.9-6.5h-7.8v13Z"/>
        <path class="cls-1" d="M133.4,9.2h-14.5V.8h38.4v8.4h-14.6v37h-9.3V9.2Z"/>
        <path class="cls-1" d="M202,.8v46.2h-3.1l-26.3-28.1v27.2h-9.3V0h3l26.3,27.9V.8h9.3Z"/>
        <path class="cls-1" d="M212.4.8h30.5v8.4h-21.3v9.2h15.6v7.9h-15.6v11.5h22.1v8.4h-31.4V.8Z"/>
        <path class="cls-1" d="M279.7,46.2l-11.8-16h-6.8v16h-9.3V.8h17.1c9.5,0,16.4,5.9,16.4,14.7s-3,10.5-8,12.9l12.9,17.8h-10.5ZM261.1,22h7.8c4.3,0,6.9-2.6,6.9-6.5s-2.7-6.5-6.9-6.5h-7.8v13Z"/>
        <path class="cls-1" d="M298.7,32.2c3,4.1,6.2,6.6,11.1,6.6s6.5-1.9,6.5-5-1.4-3.6-5.8-5.6l-4.9-2.2c-6.9-3.1-11-7-11-13.1s6.5-12.9,15.1-12.9,12.2,3.4,15,8.6l-6.3,4.9c-2.3-3.5-5.2-5.2-8.7-5.2s-5.6,1.6-5.6,4.4,1.4,3.5,5.3,5.2l5.2,2.3c7.6,3.4,11.2,7.2,11.2,13.3s-6.8,13.6-15.9,13.6-14-3.9-17.5-10l6.4-4.8Z"/>
        <path class="cls-1" d="M334,.8h9.3v17.4h20.1V.8h9.3v45.4h-9.3v-19.6h-20.1v19.6h-9.3V.8Z"/>
        <path class="cls-1" d="M383,.8h9.3v45.4h-9.3V.8Z"/>
        <path class="cls-1" d="M402.7.8h17.1c9.5,0,16.4,5.9,16.4,14.7s-6.9,14.7-16.4,14.7h-7.8v16h-9.3V.8ZM419.7,22.1c4.3,0,6.9-2.7,6.9-6.6s-2.7-6.5-6.9-6.5h-7.8v13.1h7.8Z"/>
      </g>
    </g>
  </g>
</svg>