<?xml version="1.0" encoding="UTF-8"?>
<svg xmlns="http://www.w3.org/2000/svg" version="1.1" viewBox="0 0 262.4 35.4">
  <defs>
    <style>
      .cls-1 {
        fill: #ffbf3f;
      }
    </style>
  </defs>
  <!-- Generator: Adobe Illustrator 28.7.1, SVG Export Plug-In . SVG Version: 1.2.0 Build 142)  -->
  <g>
    <g id="Layer_1">
      <g>
        <path class="cls-1" d="M12,4.2H0V.6h28.2v3.6h-12.1v30.6h-4V4.2Z"/>
        <path class="cls-1" d="M33.9.6h4v14.1h19.2V.6h4v34.2h-4v-16.5h-19.2v16.5h-4V.6Z"/>
        <path class="cls-1" d="M91.4,27.9h-16.8l-2.9,7h-4.3L82.3,0h1.5l14.8,34.8h-4.3l-2.9-7ZM83,7.4l-6.8,16.9h13.7l-6.8-16.9Z"/>
        <path class="cls-1" d="M109.4,4.2h-12V.6h28.2v3.6h-12.1v30.6h-4V4.2Z"/>
        <path class="cls-1" d="M158.7,0c5.8,0,10.8,2.6,14,7l-3.1,2.4c-2.6-3.6-6.3-5.7-10.9-5.7-7.8-.2-13.7,6.2-13.6,13.9-.2,7.8,5.9,14.3,13.8,14.1,5,0,9.1-2.4,11.4-6.1v-4.6h-11.7v-3.6h15.7v9.1c-1.5,2.7-3.7,4.9-6.5,6.5-2.7,1.6-5.8,2.4-9.2,2.4-9.8.2-17.9-7.9-17.8-17.7C140.8,7.9,148.9-.2,158.7,0Z"/>
        <path class="cls-1" d="M181.9.6h21.9v3.6h-17.9v10.5h13.7v3.6h-13.7v12.9h18.5v3.6h-22.6V.6Z"/>
        <path class="cls-1" d="M219.5,4.2h-12V.6h28.2v3.6h-12.1v30.6h-4V4.2Z"/>
        <path class="cls-1" d="M241.8,25.8c2.5,3.9,5.8,5.9,9.5,5.9s6.9-2.2,6.9-5.7-1.9-4.1-5.7-6l-3.8-1.8c-4.7-2.2-7.7-4.6-7.7-9.2S245.7,0,251.3,0s8.5,2.3,10.7,5.8l-3,2.2c-1.9-2.7-4.7-4.3-7.8-4.3s-6.1,1.8-6.1,5,.2,1.8.7,2.5c.9,1.3,2.1,2,4.8,3.3l3.8,1.8c5.4,2.6,8,5.1,8,9.5s-4.7,9.5-11,9.5-9.9-2.8-12.6-7.4l3-2.2Z"/>
      </g>
    </g>
  </g>
</svg>