<?xml version="1.0" encoding="UTF-8"?>
<svg xmlns="http://www.w3.org/2000/svg" version="1.1" viewBox="0 0 505.8 38.5">
  <defs>
    <style>
      .cls-1 {
        fill: #ffbf3f;
      }
    </style>
  </defs>
  <!-- Generator: Adobe Illustrator 28.7.1, SVG Export Plug-In . SVG Version: 1.2.0 Build 142)  -->
  <g>
    <g id="Layer_1">
      <g>
        <path class="cls-1" d="M36.3,0v37.8h-7.6v-19.8l-9.3,11.7h-2.5l-9.3-11.7v19.8H0V0h2.5l15.7,20.1L33.9,0h2.5Z"/>
        <path class="cls-1" d="M62.4,0c10.7-.2,20,8.6,19.8,19.2.2,10.6-9.1,19.5-19.8,19.2-10.7.2-19.9-8.6-19.7-19.2C42.6,8.6,51.7-.2,62.4,0ZM62.5,7c-6.9,0-11.9,5.1-11.9,12.2s5.1,12.2,11.9,12.2,11.9-5.1,11.9-12.2-5.1-12.2-11.9-12.2Z"/>
        <path class="cls-1" d="M111.4,37.8l-9.6-13.1h-5.6v13.1h-7.6V.7h13.9c7.8,0,13.4,4.8,13.4,12s-2.5,8.5-6.5,10.6l10.5,14.6h-8.5ZM96.2,18h6.4c3.5,0,5.6-2.1,5.6-5.3s-2.2-5.3-5.6-5.3h-6.4v10.6Z"/>
        <path class="cls-1" d="M124.6.7h25v6.9h-17.4v7.5h12.8v6.5h-12.8v9.4h18.1v6.9h-25.6V.7Z"/>
        <path class="cls-1" d="M172.6.7h12.1c11.8-.1,20.4,7.5,20.2,18.4.2,10.7-8.5,18.8-20.2,18.7h-12.1V.7ZM184.7,30.9c7.5,0,12.5-4.7,12.5-11.8s-4.9-11.6-12.5-11.6h-4.5v23.4h4.5Z"/>
        <path class="cls-1" d="M211.4.7h25v6.9h-17.4v7.5h12.8v6.5h-12.8v9.4h18.1v6.9h-25.6V.7Z"/>
        <path class="cls-1" d="M265.5,33h-15.2l-2.1,4.8h-8.2L256.7,0h2.5l16.5,37.8h-8.2l-2.1-4.8ZM257.9,14.2l-4.9,12.5h9.9l-4.9-12.5Z"/>
        <path class="cls-1" d="M280.8.7h7.6v30.3h16.3v6.9h-23.8V.7Z"/>
        <path class="cls-1" d="M312.9,26.3c2.4,3.3,5.1,5.4,9.1,5.4s5.3-1.6,5.3-4.1-1.2-3-4.7-4.6l-4-1.8c-5.7-2.5-9-5.7-9-10.7S314.9,0,321.9,0s10,2.8,12.3,7l-5.2,4c-1.9-2.9-4.3-4.3-7.1-4.3s-4.6,1.3-4.6,3.6,1.2,2.9,4.3,4.3l4.2,1.9c6.2,2.8,9.2,5.8,9.2,10.9s-5.6,11.1-13,11.1-11.5-3.2-14.3-8.2l5.2-3.9Z"/>
        <path class="cls-1" d="M357.5.7h12.1c11.8-.1,20.4,7.5,20.2,18.4.2,10.7-8.5,18.8-20.2,18.7h-12.1V.7ZM369.6,30.9c7.5,0,12.5-4.7,12.5-11.8s-4.9-11.6-12.5-11.6h-4.5v23.4h4.5Z"/>
        <path class="cls-1" d="M413.8,0c10.7-.2,20,8.6,19.8,19.2.2,10.6-9.1,19.5-19.8,19.2-10.7.2-19.9-8.6-19.7-19.2-.2-10.6,9-19.5,19.7-19.2ZM413.9,7c-6.9,0-11.9,5.1-11.9,12.2s5.1,12.2,11.9,12.2,11.9-5.1,11.9-12.2-5.1-12.2-11.9-12.2Z"/>
        <path class="cls-1" d="M471.6.7v37.8h-2.5l-21.5-22.9v22.3h-7.6V0h2.5l21.5,22.8V.7h7.6Z"/>
        <path class="cls-1" d="M480.1.7h25v6.9h-17.4v7.5h12.8v6.5h-12.8v9.4h18.1v6.9h-25.6V.7Z"/>
      </g>
    </g>
  </g>
</svg>