<?xml version="1.0" encoding="UTF-8"?>
<svg xmlns="http://www.w3.org/2000/svg" version="1.1" viewBox="0 0 318.1 96.1">
  <defs>
    <style>
      .cls-1 {
        fill: #ffbf3f;
      }
    </style>
  </defs>
  <!-- Generator: Adobe Illustrator 28.7.1, SVG Export Plug-In . SVG Version: 1.2.0 Build 142)  -->
  <g>
    <g id="Layer_1">
      <g>
        <path class="cls-1" d="M78.2,7.4h-11.7V.7h30.9v6.8h-11.8v29.8h-7.5V7.4Z"/>
        <path class="cls-1" d="M119,0c10.5-.2,19.7,8.5,19.5,19,.2,10.5-9,19.2-19.5,19-10.5.2-19.6-8.5-19.4-19C99.4,8.5,108.5-.2,119,0ZM119,6.9c-6.8,0-11.8,5-11.8,12s5,12,11.8,12,11.8-5,11.8-12-5-12-11.8-12Z"/>
        <path class="cls-1" d="M144.8.7h13.8c7.7,0,13.2,4.8,13.2,11.8s-5.5,11.9-13.2,11.9h-6.3v12.9h-7.5V.7ZM158.6,17.8c3.5,0,5.5-2.2,5.5-5.3s-2.2-5.2-5.5-5.2h-6.3v10.5h6.3Z"/>
        <path class="cls-1" d="M216.9,30.9v6.4h-27c0,0,0-1.6,0-1.6l13.1-14.2c3.6-3.9,5.2-6.5,5.2-9.2s-2-5.4-5.1-5.4-5.2,2.3-5.2,5.6.1,1.6.3,2.7h-7.5c-.3-1-.4-2.1-.4-3.1C190.2,5.9,195.3,0,203.2,0s12.7,5,12.7,11.7-.7,4.8-2,6.9c-1.3,2.1-3.3,4.5-5.9,7.3l-4.7,5h13.6Z"/>
        <path class="cls-1" d="M234.5,37.9c-6.2,0-11.1-3.3-13.6-8.3l5.2-3.7c2.2,3.3,4.6,5,8.2,5s6.5-2.2,6.5-5.7-2.6-5.3-7.5-5.3h-8.5V.7h21.6v6.8h-14.4v6.7c1.4-.3,2.8-.4,4.2-.4,6.3,0,12.4,4.2,12.4,11.6s-6.2,12.7-14,12.7Z"/>
        <path class="cls-1" d="M5.2,84.1c2.4,3.3,5,5.3,9,5.3s5.2-1.6,5.2-4-1.2-2.9-4.7-4.5l-3.9-1.8c-5.6-2.5-8.9-5.7-8.9-10.5s5.2-10.4,12.1-10.4,9.8,2.7,12.1,6.9l-5.1,3.9c-1.9-2.8-4.2-4.2-7-4.2s-4.5,1.3-4.5,3.5,1.2,2.8,4.3,4.2l4.2,1.8c6.2,2.7,9,5.8,9,10.7s-5.5,11-12.8,11-11.3-3.2-14.1-8.1l5.2-3.9Z"/>
        <path class="cls-1" d="M49.8,95.4h-16.3v-36.6h13c6.8,0,11.6,4.2,11.6,10.2s-.9,4.9-2.7,6.6c4,1.5,6.5,4.6,6.5,9,0,6.3-5,10.8-12,10.8ZM40.8,65.3v8.4h5.2c3,0,4.8-1.6,4.8-4.2s-1.7-4.2-4.8-4.2h-5.2ZM49.3,79.8h-8.5v9.2h8.5c3.3,0,5.2-1.7,5.2-4.6s-1.9-4.6-5.2-4.6Z"/>
        <path class="cls-1" d="M89,90.7h-15l-2.1,4.8h-8l16.4-37.3h2.5l16.3,37.3h-8l-2.1-4.8ZM81.5,72.1l-4.9,12.4h9.8l-4.9-12.4Z"/>
        <path class="cls-1" d="M116.8,58.8h7.5v29.8h16v6.8h-23.5v-36.6Z"/>
        <path class="cls-1" d="M145.9,58.8h24.6v6.8h-17.1v7.4h12.6v6.4h-12.6v9.3h17.8v6.8h-25.3v-36.6Z"/>
        <path class="cls-1" d="M208.8,58.8v37.3h-2.5l-21.2-22.6v22h-7.5v-37.3h2.4l21.2,22.5v-21.8h7.5Z"/>
        <path class="cls-1" d="M217.2,58.8h12c11.6-.1,20.1,7.4,20,18.2.2,10.6-8.4,18.6-20,18.4h-12v-36.6ZM229.1,88.7c7.4,0,12.3-4.6,12.3-11.6s-4.8-11.4-12.3-11.4h-4.4v23.1h4.4Z"/>
        <path class="cls-1" d="M255.4,58.8h24.6v6.8h-17.1v7.4h12.6v6.4h-12.6v9.3h17.8v6.8h-25.3v-36.6Z"/>
        <path class="cls-1" d="M309.7,95.4l-9.5-12.9h-5.5v12.9h-7.5v-36.6h13.8c7.7,0,13.2,4.8,13.2,11.8s-2.4,8.4-6.4,10.4l10.4,14.4h-8.4ZM294.7,75.9h6.3c3.5,0,5.5-2.1,5.5-5.3s-2.2-5.2-5.5-5.2h-6.3v10.5Z"/>
      </g>
    </g>
  </g>
</svg>