<?xml version="1.0" encoding="UTF-8"?>
<svg xmlns="http://www.w3.org/2000/svg" version="1.1" viewBox="0 0 274 22.2">
  <defs>
    <style>
      .cls-1 {
        fill: #ffbf3f;
      }
    </style>
  </defs>
  <!-- Generator: Adobe Illustrator 28.7.1, SVG Export Plug-In . SVG Version: 1.2.0 Build 142)  -->
  <g>
    <g id="Layer_1">
      <g>
        <path class="cls-1" d="M1.9,16.2c1.6,2.4,3.6,3.7,6,3.7s4.3-1.4,4.3-3.6-1.2-2.6-3.6-3.8l-2.4-1.1c-3-1.4-4.8-2.9-4.8-5.8S4.3,0,7.8,0s5.3,1.5,6.7,3.6l-1.9,1.4c-1.2-1.7-3-2.7-4.9-2.7s-3.8,1.1-3.8,3.1.1,1.1.4,1.6c.6.8,1.3,1.2,3,2l2.4,1.1c3.4,1.7,5,3.2,5,6s-2.9,6-6.9,6-6.2-1.8-7.9-4.6l1.9-1.4Z"/>
        <path class="cls-1" d="M19.8.4h13.8v2.3h-11.2v6.6h8.6v2.3h-8.6v8.1h11.6v2.3h-14.2V.4Z"/>
        <path class="cls-1" d="M38.2.4h13.8v2.3h-11.2v6.6h8.6v2.3h-8.6v8.1h11.6v2.3h-14.2V.4Z"/>
        <path class="cls-1" d="M94.3.4l-8.1,21.8h-.9l-6.8-17-6.8,17h-.9L62.6.4h2.8l5.9,16.4L78,0h.9l6.7,16.7L91.5.4h2.8Z"/>
        <path class="cls-1" d="M98.8.4h2.5v8.8h12V.4h2.5v21.5h-2.5v-10.3h-12v10.3h-2.5V.4Z"/>
        <path class="cls-1" d="M130.1,12.9v8.9h-2.5v-8.9L120.1.4h2.9l5.9,10.1,5.9-10.1h2.8l-7.4,12.6Z"/>
        <path class="cls-1" d="M178.3.4l-8.1,21.8h-.9l-6.8-17-6.8,17h-.9L146.5.4h2.8l5.9,16.4,6.7-16.7h.9l6.7,16.7L175.5.4h2.8Z"/>
        <path class="cls-1" d="M182.7.4h13.8v2.3h-11.2v6.6h8.6v2.3h-8.6v8.1h11.6v2.3h-14.2V.4Z"/>
        <path class="cls-1" d="M201.7.4h2.9l-1.4,8.4h-2l.5-8.4Z"/>
        <path class="cls-1" d="M224,21.8l-6.7-9h-4.6v9h-2.5V.4h7.5c4.2,0,6.9,2.6,6.9,6.2s-1.7,5.1-4.5,6l6.9,9.3h-3ZM212.8,10.5h4.9c2.8,0,4.3-1.6,4.3-3.9s-1.6-4-4.3-4h-4.9v7.9Z"/>
        <path class="cls-1" d="M230.5.4h13.8v2.3h-11.2v6.6h8.6v2.3h-8.6v8.1h11.6v2.3h-14.2V.4Z"/>
        <path class="cls-1" d="M269.4,17.5h-10.5l-1.8,4.4h-2.7l9.3-21.8h.9l9.3,21.8h-2.7l-1.8-4.4ZM264.2,4.6l-4.3,10.6h8.6l-4.3-10.6Z"/>
      </g>
    </g>
  </g>
</svg>