<?xml version="1.0" encoding="utf-8"?>
<!-- Generator: Adobe Illustrator 19.1.0, SVG Export Plug-In . SVG Version: 6.00 Build 0)  -->
<svg version="1.1" id="Layer_2" xmlns="http://www.w3.org/2000/svg" xmlns:xlink="http://www.w3.org/1999/xlink" x="0px" y="0px"
	 viewBox="0 0 235.246 72.757" enable-background="new 0 0 235.246 72.757" xml:space="preserve">
<g>
	<path fill="#FFFFFF" d="M4.527,33.413V33.28c0-13.182,9.853-24.1,23.567-24.1c7.523,0,12.316,2.463,16.644,6.058
		c0.533,0.466,1.065,1.198,1.065,2.131c0,1.397-1.265,2.596-2.663,2.596c-0.732,0-1.332-0.332-1.731-0.599
		c-3.595-3.195-7.656-5.326-13.381-5.326c-10.319,0-18.042,8.389-18.042,19.107v0.133c0,10.785,7.789,19.24,18.042,19.24
		c5.792,0,9.853-1.998,13.847-5.659c0.399-0.399,0.999-0.732,1.665-0.732c1.332,0,2.53,1.198,2.53,2.53
		c0,0.799-0.399,1.464-0.866,1.863c-4.593,4.194-9.653,6.857-17.309,6.857C14.447,57.38,4.527,46.795,4.527,33.413z"/>
	<path fill="#FFFFFF" d="M55.717,12.31c0-1.465,1.198-2.663,2.596-2.663c1.465,0,2.663,1.198,2.663,2.663v39.411h24.167
		c1.332,0,2.396,1.132,2.396,2.464c0,1.331-1.065,2.396-2.396,2.396h-26.83c-1.398,0-2.596-1.198-2.596-2.663V12.31z"/>
	<path fill="#FFFFFF" d="M96.921,53.918V12.643c0-1.465,1.198-2.663,2.596-2.663h28.96c1.331,0,2.396,1.064,2.396,2.396
		c0,1.331-1.065,2.396-2.396,2.396H102.18v15.911h23.301c1.332,0,2.396,1.132,2.396,2.396c0,1.332-1.064,2.397-2.396,2.397H102.18
		v16.311h26.63c1.331,0,2.396,1.064,2.396,2.396c0,1.331-1.065,2.396-2.396,2.396H99.517C98.119,56.581,96.921,55.383,96.921,53.918
		z"/>
	<path fill="#FFFFFF" d="M138.659,53.119l18.906-41.343c0.666-1.464,1.665-2.33,3.329-2.33h0.267c1.598,0,2.663,0.866,3.262,2.33
		l18.907,41.276c0.199,0.466,0.333,0.932,0.333,1.331c0,1.398-1.132,2.53-2.53,2.53c-1.265,0-2.13-0.865-2.596-1.931l-4.86-10.719
		h-25.564l-4.86,10.852c-0.466,1.132-1.331,1.798-2.529,1.798c-1.331,0-2.396-1.065-2.396-2.396
		C138.326,54.118,138.392,53.651,138.659,53.119z M171.613,39.472l-10.719-23.834l-10.719,23.834H171.613z"/>
	<path fill="#FFFFFF" d="M193.709,12.643c0-1.465,1.198-2.663,2.597-2.663h17.442c5.726,0,10.318,1.73,13.248,4.66
		c2.264,2.264,3.595,5.525,3.595,9.187v0.134c0,7.656-5.192,12.116-12.449,13.515l11.584,14.912c0.532,0.6,0.865,1.198,0.865,1.931
		c0,1.398-1.331,2.597-2.663,2.597c-1.064,0-1.863-0.6-2.463-1.398L212.35,38.473h-13.381v15.778c0,1.465-1.199,2.663-2.663,2.663
		c-1.398,0-2.597-1.198-2.597-2.663V12.643z M213.283,33.746c6.99,0,11.982-3.595,11.982-9.587v-0.133
		c0-5.726-4.394-9.188-11.916-9.188h-14.38v18.907H213.283z"/>
</g>
</svg>
