<?xml version="1.0" encoding="utf-8"?>
<!-- Generator: Adobe Illustrator 19.1.0, SVG Export Plug-In . SVG Version: 6.00 Build 0)  -->
<svg version="1.1" id="Layer_2" xmlns="http://www.w3.org/2000/svg" xmlns:xlink="http://www.w3.org/1999/xlink" x="0px" y="0px"
	 viewBox="0 0 257.588 27.012" enable-background="new 0 0 257.588 27.012" xml:space="preserve">
<g>
	<path fill="#FFFFFF" d="M1.417,12.051v-0.048c0-4.707,3.603-8.694,8.67-8.694c2.521,0,4.203,0.601,5.74,1.705
		c0.288,0.217,0.6,0.625,0.6,1.201c0,0.793-0.648,1.465-1.465,1.465c-0.384,0-0.672-0.168-0.913-0.336
		c-1.081-0.793-2.258-1.321-4.083-1.321c-3.098,0-5.452,2.714-5.452,5.933v0.048c0,3.459,2.282,6.005,5.716,6.005
		c1.585,0,3.026-0.505,4.059-1.273v-3.146h-3.314c-0.721,0-1.321-0.552-1.321-1.272s0.601-1.297,1.321-1.297h4.683
		c0.841,0,1.489,0.648,1.489,1.489v4.491c0,0.84-0.336,1.44-1.033,1.873c-1.441,0.961-3.458,1.825-5.98,1.825
		C4.875,20.697,1.417,16.95,1.417,12.051z"/>
	<path fill="#FFFFFF" d="M20.242,12.051v-0.048c0-4.731,3.651-8.694,8.814-8.694s8.766,3.915,8.766,8.646v0.048
		c0,4.731-3.65,8.694-8.814,8.694C23.844,20.697,20.242,16.782,20.242,12.051z M34.724,12.051v-0.048c0-3.267-2.377-5.98-5.716-5.98
		c-3.338,0-5.668,2.666-5.668,5.933v0.048c0,3.267,2.378,5.956,5.716,5.956S34.724,15.317,34.724,12.051z"/>
	<path fill="#FFFFFF" d="M48.599,5.086c0-0.841,0.648-1.489,1.489-1.489h9.799c0.745,0,1.345,0.601,1.345,1.346
		c0,0.744-0.6,1.345-1.345,1.345h-8.334v4.587h7.253c0.744,0,1.345,0.601,1.345,1.346c0,0.744-0.601,1.345-1.345,1.345h-7.253v5.5
		c0,0.816-0.648,1.465-1.465,1.465c-0.841,0-1.489-0.648-1.489-1.465V5.086z"/>
	<path fill="#FFFFFF" d="M64.35,5.086c0-0.841,0.648-1.489,1.489-1.489h6.004c2.114,0,3.771,0.625,4.852,1.682
		c0.889,0.912,1.393,2.161,1.393,3.627v0.048c0,2.689-1.561,4.323-3.819,5.02l3.218,4.059c0.289,0.36,0.48,0.673,0.48,1.129
		c0,0.816-0.696,1.369-1.417,1.369c-0.672,0-1.105-0.312-1.441-0.769l-4.083-5.212h-3.723v4.516c0,0.816-0.648,1.465-1.465,1.465
		c-0.841,0-1.489-0.648-1.489-1.465V5.086z M71.627,11.931c2.113,0,3.458-1.104,3.458-2.81V9.073c0-1.802-1.297-2.786-3.483-2.786
		h-4.299v5.644H71.627z"/>
	<path fill="#FFFFFF" d="M80.965,12.051v-0.048c0-4.731,3.651-8.694,8.814-8.694s8.766,3.915,8.766,8.646v0.048
		c0,4.731-3.65,8.694-8.814,8.694C84.567,20.697,80.965,16.782,80.965,12.051z M95.447,12.051v-0.048c0-3.267-2.377-5.98-5.716-5.98
		c-3.339,0-5.668,2.666-5.668,5.933v0.048c0,3.267,2.378,5.956,5.716,5.956S95.447,15.317,95.447,12.051z"/>
	<path fill="#FFFFFF" d="M102.119,4.99c0-0.816,0.648-1.489,1.489-1.489h0.312c0.648,0,1.081,0.336,1.369,0.793l5.091,7.974
		l5.116-7.998c0.312-0.504,0.745-0.769,1.345-0.769h0.312c0.841,0,1.489,0.673,1.489,1.489v14.074c0,0.816-0.648,1.465-1.489,1.465
		c-0.792,0-1.465-0.673-1.465-1.465V8.977l-4.107,6.173c-0.312,0.48-0.697,0.769-1.249,0.769c-0.528,0-0.913-0.288-1.225-0.769
		l-4.083-6.124v10.062c0,0.817-0.649,1.441-1.465,1.441s-1.441-0.624-1.441-1.441V4.99z"/>
	<path fill="#FFFFFF" d="M129.419,12.051v-0.048c0-4.707,3.602-8.694,8.669-8.694c2.522,0,4.203,0.601,5.74,1.705
		c0.288,0.217,0.601,0.625,0.601,1.201c0,0.793-0.648,1.465-1.465,1.465c-0.385,0-0.673-0.168-0.913-0.336
		c-1.08-0.793-2.257-1.321-4.083-1.321c-3.098,0-5.451,2.714-5.451,5.933v0.048c0,3.459,2.281,6.005,5.716,6.005
		c1.585,0,3.026-0.505,4.059-1.273v-3.146h-3.314c-0.72,0-1.32-0.552-1.32-1.272s0.601-1.297,1.32-1.297h4.684
		c0.841,0,1.489,0.648,1.489,1.489v4.491c0,0.84-0.336,1.44-1.033,1.873c-1.44,0.961-3.458,1.825-5.979,1.825
		C132.877,20.697,129.419,16.95,129.419,12.051z"/>
	<path fill="#FFFFFF" d="M148.987,5.086c0-0.841,0.648-1.489,1.489-1.489h6.005c2.113,0,3.771,0.625,4.852,1.682
		c0.889,0.912,1.393,2.161,1.393,3.627v0.048c0,2.689-1.562,4.323-3.818,5.02l3.218,4.059c0.288,0.36,0.48,0.673,0.48,1.129
		c0,0.816-0.696,1.369-1.417,1.369c-0.673,0-1.104-0.312-1.441-0.769l-4.082-5.212h-3.724v4.516c0,0.816-0.648,1.465-1.465,1.465
		c-0.841,0-1.489-0.648-1.489-1.465V5.086z M156.264,11.931c2.114,0,3.459-1.104,3.459-2.81V9.073c0-1.802-1.297-2.786-3.482-2.786
		h-4.3v5.644H156.264z"/>
	<path fill="#FFFFFF" d="M166.347,18.92V5.086c0-0.841,0.648-1.489,1.489-1.489h9.775c0.721,0,1.321,0.601,1.321,1.321
		c0,0.744-0.601,1.321-1.321,1.321h-8.311v4.371h7.229c0.721,0,1.321,0.601,1.321,1.345c0,0.721-0.601,1.297-1.321,1.297h-7.229
		v4.516h8.431c0.721,0,1.321,0.601,1.321,1.32c0,0.745-0.601,1.321-1.321,1.321h-9.896C166.996,20.409,166.347,19.761,166.347,18.92
		z"/>
	<path fill="#FFFFFF" d="M182.434,18.92V5.086c0-0.841,0.648-1.489,1.489-1.489h9.775c0.721,0,1.321,0.601,1.321,1.321
		c0,0.744-0.601,1.321-1.321,1.321h-8.311v4.371h7.229c0.721,0,1.321,0.601,1.321,1.345c0,0.721-0.601,1.297-1.321,1.297h-7.229
		v4.516h8.431c0.721,0,1.321,0.601,1.321,1.32c0,0.745-0.601,1.321-1.321,1.321h-9.896C183.083,20.409,182.434,19.761,182.434,18.92
		z"/>
	<path fill="#FFFFFF" d="M198.522,4.99c0-0.816,0.648-1.489,1.489-1.489h0.312c0.721,0,1.129,0.36,1.537,0.864l8.406,10.88V4.918
		c0-0.793,0.648-1.441,1.44-1.441c0.817,0,1.466,0.648,1.466,1.441V19.04c0,0.816-0.625,1.465-1.441,1.465h-0.12
		c-0.696,0-1.129-0.36-1.537-0.889l-8.646-11.191v10.663c0,0.793-0.648,1.441-1.44,1.441c-0.817,0-1.466-0.648-1.466-1.441V4.99z"/>
	<path fill="#FFFFFF" d="M228.825,6.335h-4.083c-0.769,0-1.369-0.624-1.369-1.369c0-0.744,0.601-1.369,1.369-1.369h11.168
		c0.744,0,1.345,0.625,1.345,1.369c0,0.745-0.601,1.369-1.345,1.369h-4.107v12.729c0,0.816-0.672,1.465-1.489,1.465
		c-0.816,0-1.488-0.648-1.488-1.465V6.335z"/>
	<path fill="#FFFFFF" d="M238.596,12.051v-0.048c0-4.731,3.65-8.694,8.814-8.694s8.767,3.915,8.767,8.646v0.048
		c0,4.731-3.651,8.694-8.814,8.694C242.199,20.697,238.596,16.782,238.596,12.051z M253.079,12.051v-0.048
		c0-3.267-2.378-5.98-5.716-5.98c-3.339,0-5.668,2.666-5.668,5.933v0.048c0,3.267,2.377,5.956,5.716,5.956
		C250.749,17.959,253.079,15.317,253.079,12.051z"/>
</g>
</svg>
