<?xml version="1.0" encoding="UTF-8"?>
<svg id="Layer_1" data-name="Layer 1" xmlns="http://www.w3.org/2000/svg" version="1.1" viewBox="0 0 129.8 34.7">
  <defs>
    <style>
      .cls-1 {
        fill: #fff;
        stroke-width: 0px;
      }
    </style>
  </defs>
  <path class="cls-1" d="M16.1,2.7c5.3,0,9.8,2.3,12.6,6.3l-2.8,2.2c-2.4-3.2-5.7-5.1-9.8-5.1-7-.1-12.4,5.6-12.3,12.6-.1,7.1,5.3,12.9,12.5,12.8,4.5,0,8.2-2.2,10.3-5.5v-4.2h-10.6v-3.3h14.2v8.3c-1.4,2.4-3.3,4.4-5.9,5.9-2.5,1.5-5.3,2.2-8.3,2.2C7.2,34.8-.1,27.6,0,18.7-.1,9.8,7.2,2.6,16.1,2.7Z"/>
  <path class="cls-1" d="M53.8,34.2h-3.4v-3c-1.7,2.3-4.4,3.5-7.7,3.5s-8-2.5-8-6.4,3.3-6.4,8.2-6.4h7.2v-2c0-3.8-2.1-5.8-5.5-5.8s-4.8,1.2-6.7,3.7l-2.4-2c2.1-3.4,5.5-5,9.3-5,5.4,0,8.9,3.3,8.9,9.3v14.1ZM50.2,24.9h-6.8c-3.2,0-4.9,1.1-4.9,3.2s2.1,3.6,4.7,3.6,7-2.8,7-6.3v-.6Z"/>
  <path class="cls-1" d="M63.3,0c1.5,0,2.7,1.2,2.7,2.6s-1.2,2.6-2.7,2.6-2.7-1.1-2.7-2.6,1.2-2.6,2.7-2.6ZM61.5,11.3h3.6v22.8h-3.6V11.3Z"/>
  <path class="cls-1" d="M91.9,34.2h-3.6v-13.9c0-3.6-2.2-6.1-5.7-6.1s-6,2.5-6,6.1v13.9h-3.6V11.3h3.4v2.4c1.7-1.9,4.2-3,7-3,5.3,0,8.5,3.6,8.5,9v14.3Z"/>
  <path class="cls-1" d="M129.8,34.2h-3.4v-3c-1.7,2.3-4.4,3.5-7.7,3.5s-8-2.5-8-6.4,3.3-6.4,8.2-6.4h7.2v-2c0-3.8-2.1-5.8-5.5-5.8s-4.8,1.2-6.7,3.7l-2.4-2c2.1-3.4,5.5-5,9.3-5,5.4,0,8.9,3.3,8.9,9.3v14.1ZM126.2,24.9h-6.8c-3.2,0-4.9,1.1-4.9,3.2s2.1,3.6,4.7,3.6,7-2.8,7-6.3v-.6Z"/>
</svg>