<?xml version="1.0" encoding="UTF-8"?>
<svg id="Layer_1" data-name="Layer 1" xmlns="http://www.w3.org/2000/svg" version="1.1" viewBox="0 0 412.9 44.6">
  <defs>
    <style>
      .cls-1 {
        fill: #fff;
        stroke-width: 0px;
      }
    </style>
  </defs>
  <path class="cls-1" d="M6.9,12.8h5.7v3.2h-5.7v19.6h-3.6v-19.6H0v-3.2h3.3v-5.4C3.3,2.4,6.2,0,10.8,0s2,.1,2.9.4v3c-.8,0-1.4-.1-2-.1-3,0-4.8,1.1-4.8,4.4v5.2ZM19.5,1.5c1.5,0,2.7,1.2,2.7,2.6s-1.2,2.6-2.7,2.6-2.7-1.1-2.7-2.6,1.2-2.6,2.7-2.6ZM17.6,12.8h3.6v22.8h-3.6V12.8Z"/>
  <path class="cls-1" d="M48.1,35.7h-3.6v-13.9c0-3.6-2.2-6.1-5.7-6.1s-6,2.5-6,6.1v13.9h-3.6V12.8h3.4v2.4c1.7-1.9,4.2-3,7-3,5.3,0,8.5,3.6,8.5,9v14.3Z"/>
  <path class="cls-1" d="M72.8,35.7h-3.4v-3c-1.7,2.3-4.4,3.5-7.7,3.5s-8-2.5-8-6.4,3.3-6.4,8.2-6.4h7.2v-2c0-3.8-2.1-5.8-5.5-5.8s-4.8,1.2-6.7,3.7l-2.4-2c2.1-3.4,5.5-5,9.3-5,5.4,0,8.9,3.3,8.9,9.3v14.1ZM69.2,26.4h-6.8c-3.2,0-4.9,1.1-4.9,3.2s2.1,3.6,4.7,3.6,7-2.8,7-6.3v-.6Z"/>
  <path class="cls-1" d="M99.3,35.7h-3.6v-13.9c0-3.6-2.2-6.1-5.7-6.1s-6,2.5-6,6.1v13.9h-3.6V12.8h3.4v2.4c1.7-1.9,4.2-3,7-3,5.3,0,8.5,3.6,8.5,9v14.3Z"/>
  <path class="cls-1" d="M117.3,12.3c4,0,7.4,1.9,9.4,5l-2.6,2.1c-1.8-2.5-4.1-3.7-6.8-3.7-4.7,0-8.3,3.8-8.3,8.6s3.6,8.6,8.3,8.6,4.9-1.2,6.8-3.7l2.6,2c-2.1,3-5.4,5-9.4,5-6.6,0-12-5.3-12-12-.1-6.5,5.4-12,12-11.9Z"/>
  <path class="cls-1" d="M134.6,1.5c1.5,0,2.7,1.2,2.7,2.6s-1.2,2.6-2.7,2.6-2.7-1.1-2.7-2.6,1.2-2.6,2.7-2.6ZM132.8,12.8h3.6v22.8h-3.6V12.8Z"/>
  <path class="cls-1" d="M163.2,35.7h-3.6v-13.9c0-3.6-2.2-6.1-5.7-6.1s-6,2.5-6,6.1v13.9h-3.6V12.8h3.4v2.4c1.7-1.9,4.2-3,7-3,5.3,0,8.5,3.6,8.5,9v14.3Z"/>
  <path class="cls-1" d="M192.8,12.8v20.6c0,6.9-4.4,11.2-11.1,11.2s-8.2-1.8-10.7-4.4l2.1-2.5c2.6,2.3,5.1,3.6,8.5,3.6s7.6-2.7,7.6-7.6v-2c-1.8,2.4-5.1,3.8-8.5,3.8-6.4,0-11.2-4.9-11.2-11.5s4.8-11.6,11.2-11.6,6.9,1.5,8.7,4.2v-3.7h3.4ZM181.3,15.8c-4.6,0-8.1,3.4-8.1,8.2s3.5,8.2,8.1,8.2,8-2.7,8-8.2-3.8-8.2-8-8.2Z"/>
  <path class="cls-1" d="M214,29.4c2.2,2.3,4,3.5,6.6,3.5s4.4-1.2,4.4-3.2-1.2-2.5-4-3.7l-2.2-.9c-3.8-1.5-5.7-3.3-5.7-6.3s3.3-6.4,7.7-6.4,5.8,1.4,7.6,3.6l-2.2,2.3c-1.5-1.5-3.5-2.5-5.6-2.5s-3.8,1-3.8,2.9.9,2.2,3.7,3.3l2.1.9c4.3,1.8,6,3.6,6,6.8s-.8,3.8-2.3,5c-1.5,1.2-3.4,1.7-5.7,1.7-3.8,0-6.9-1.8-8.9-4.5l2.3-2.4Z"/>
  <path class="cls-1" d="M245.5,12.3c6.5,0,12.1,5.4,12,11.9.1,6.4-5.5,12.1-12,11.9-6.5.1-12-5.5-11.9-11.9-.1-6.5,5.4-12.1,12-11.9ZM245.5,15.7c-4.7,0-8.3,3.7-8.3,8.6s3.6,8.5,8.2,8.5,8.3-3.8,8.3-8.5-3.6-8.6-8.3-8.6Z"/>
  <path class="cls-1" d="M263.8.5h3.6v35.2h-3.6V.5Z"/>
  <path class="cls-1" d="M275,12.8h3.6v14c0,3.7,2.5,6,5.9,6s5.8-2.4,5.8-6v-14h3.6v13.7c0,5.8-4.1,9.6-9.4,9.6s-9.5-3.8-9.5-9.6v-13.7Z"/>
  <path class="cls-1" d="M314,35.7c-1.5.3-2.7.5-3.8.5-4.7,0-7.7-2.4-7.7-7.4v-12.7h-3.8v-3.2h3.8v-6.2h3.6v6.2h7.1v3.2h-7.1v12.5c0,3.2,1.7,4.4,4.8,4.4s1.9,0,3-.3v3Z"/>
  <path class="cls-1" d="M321.2,1.5c1.5,0,2.7,1.2,2.7,2.6s-1.2,2.6-2.7,2.6-2.7-1.1-2.7-2.6,1.2-2.6,2.7-2.6ZM319.4,12.8h3.6v22.8h-3.6V12.8Z"/>
  <path class="cls-1" d="M341.3,12.3c6.5,0,12.1,5.4,12,11.9.1,6.4-5.5,12.1-12,11.9-6.5.1-12-5.5-11.9-11.9-.1-6.5,5.4-12.1,12-11.9ZM341.3,15.7c-4.7,0-8.3,3.7-8.3,8.6s3.6,8.5,8.2,8.5,8.3-3.8,8.3-8.5-3.6-8.6-8.3-8.6Z"/>
  <path class="cls-1" d="M378.4,35.7h-3.6v-13.9c0-3.6-2.2-6.1-5.7-6.1s-6,2.5-6,6.1v13.9h-3.6V12.8h3.4v2.4c1.7-1.9,4.2-3,7-3,5.3,0,8.5,3.6,8.5,9v14.3Z"/>
  <path class="cls-1" d="M386.2,29.4c2.2,2.3,4,3.5,6.6,3.5s4.4-1.2,4.4-3.2-1.2-2.5-4-3.7l-2.2-.9c-3.8-1.5-5.7-3.3-5.7-6.3s3.3-6.4,7.7-6.4,5.8,1.4,7.6,3.6l-2.2,2.3c-1.5-1.5-3.5-2.5-5.6-2.5s-3.8,1-3.8,2.9.9,2.2,3.7,3.3l2.1.9c4.3,1.8,6,3.6,6,6.8s-.8,3.8-2.3,5c-1.5,1.2-3.4,1.7-5.7,1.7-3.8,0-6.9-1.8-8.9-4.5l2.3-2.4Z"/>
  <path class="cls-1" d="M409.9,30.3c1.6,0,3,1.3,3,3s-1.3,3-3,3-3-1.3-3-3,1.3-3,3-3Z"/>
</svg>