<?xml version="1.0" encoding="UTF-8"?>
<svg id="Layer_1" data-name="Layer 1" xmlns="http://www.w3.org/2000/svg" version="1.1" viewBox="0 0 178.7 35.7">
  <defs>
    <style>
      .cls-1 {
        fill: #fff;
        stroke-width: 0px;
      }
    </style>
  </defs>
  <path class="cls-1" d="M37.4,12.3l-9.6,23.4h-1.3l-7.8-17.3-7.7,17.3h-1.3L0,12.3h3.8l6.6,16.9,7.6-17.4h1.4l7.7,17.3,6.5-16.8s3.8,0,3.8,0Z"/>
  <path class="cls-1" d="M44.5,1c1.5,0,2.7,1.2,2.7,2.6s-1.2,2.6-2.7,2.6-2.7-1.1-2.7-2.6,1.2-2.6,2.7-2.6ZM42.7,12.3h3.6v22.8h-3.6V12.3Z"/>
  <path class="cls-1" d="M66.7,35.2c-1.5.3-2.7.5-3.8.5-4.7,0-7.7-2.4-7.7-7.4v-12.7h-3.8v-3.2h3.8v-6.2h3.6v6.2h7.1v3.2h-7.1v12.5c0,3.2,1.7,4.4,4.8,4.4s1.9,0,3-.3v3h.1Z"/>
  <path class="cls-1" d="M91,35.2h-3.6v-13.9c0-3.7-2.2-6.1-5.7-6.1s-6,2.6-6,6.1v13.9h-3.6V0h3.6v14.9c1.5-1.9,4-3.1,6.8-3.1,5.3,0,8.4,3.6,8.4,9v14.3h0Z"/>
  <path class="cls-1" d="M122,11.8c6.5,0,12.1,5.4,12,11.9.1,6.4-5.5,12.1-12,11.9-6.5,0-12-5.5-11.9-11.9,0-6.5,5.4-12.1,12-11.9h0ZM122,15.1c-4.7,0-8.3,3.7-8.3,8.6s3.6,8.5,8.2,8.5,8.3-3.8,8.3-8.5-3.6-8.6-8.3-8.6h.1Z"/>
  <path class="cls-1" d="M140,12.3h3.6v14c0,3.7,2.5,6,5.9,6s5.8-2.4,5.8-6v-14h3.6v13.7c0,5.8-4.1,9.6-9.4,9.6s-9.5-3.8-9.5-9.6v-13.7h0Z"/>
  <path class="cls-1" d="M178.7,15.5h-1.4c-3.8,0-7.2,2.5-7.2,6.7v12.9h-3.6V12.3h3.4v3.2c1.6-2.2,4.3-3.4,7.1-3.4s1.1,0,1.7.2v3.2Z"/>
</svg>