<?xml version="1.0" encoding="UTF-8"?>
<svg id="Layer_1" data-name="Layer 1" xmlns="http://www.w3.org/2000/svg" version="1.1" viewBox="0 0 482.7 44.5">
  <defs>
    <style>
      .cls-1 {
        fill: #ffbf3f;
        stroke-width: 0px;
      }
    </style>
  </defs>
  <path class="cls-1" d="M3.6,26.9c2.1,3.1,4.6,5,8.3,5s5.5-1.7,5.5-4.4-1.3-3.2-4.6-4.7l-3.5-1.6c-4.6-2.1-7.4-4.5-7.4-8.8S6.3,3.8,11.8,3.8s8.2,2.3,10.2,5.6l-3.5,2.7c-1.7-2.5-4-3.8-6.7-3.8s-4.8,1.3-4.8,3.8c.2,2.5,1.3,2.9,4.4,4.5l3.5,1.6c5.1,2.3,7.6,4.8,7.6,9s-4.5,9.1-10.6,9.1-9.5-2.6-11.9-6.8l3.6-2.7Z"/>
  <path class="cls-1" d="M32.3,25.8c.6,3.8,3.6,6.2,7.7,6.2s4.7-.9,6.8-2.8l2.4,3.4c-2.7,2.5-5.8,3.8-9.4,3.8-7.2,0-12.6-5.3-12.6-12.3-.1-6.8,5.5-12.4,12.2-12.3,6.2,0,10.9,4.6,10.9,10.8s-.1,2.1-.4,3.2h-17.5ZM45.2,21.9c0-3.6-2.7-5.7-6-5.7s-6,2.3-6.8,5.7h12.8Z"/>
  <path class="cls-1" d="M59.6,25.8c.6,3.8,3.6,6.2,7.7,6.2s4.7-.9,6.8-2.8l2.4,3.4c-2.7,2.5-5.8,3.8-9.4,3.8-7.2,0-12.6-5.3-12.6-12.3-.1-6.8,5.5-12.4,12.2-12.3,6.2,0,10.9,4.6,10.9,10.8s-.1,2.1-.4,3.2h-17.5ZM72.5,21.9c0-3.6-2.7-5.7-6-5.7s-6,2.3-6.8,5.7h12.8Z"/>
  <path class="cls-1" d="M117.2,35.9h-5v-14c0-3.3-2-5.5-5.1-5.5s-5.4,2.3-5.4,5.5v14h-5V0h5v14.7c1.6-1.9,4-2.9,6.8-2.9,5.4,0,8.7,3.8,8.7,9.3v14.7Z"/>
  <path class="cls-1" d="M135.1,11.9c6.8-.1,12.6,5.6,12.5,12.3.1,6.7-5.6,12.4-12.5,12.3-6.8.1-12.5-5.7-12.4-12.3-.1-6.8,5.6-12.4,12.4-12.3ZM135.2,16.5c-4.2,0-7.3,3.4-7.3,7.7s3.2,7.6,7.3,7.6,7.3-3.4,7.3-7.6-3.2-7.7-7.3-7.7Z"/>
  <path class="cls-1" d="M188.8,12.4l-10.4,24h-1.7l-7.4-15.7-7.4,15.7h-1.7l-10.4-24h5.4l6.2,15.4,7.1-15.9h1.7l7.2,15.7,6.1-15.2h5.4Z"/>
  <path class="cls-1" d="M241.6,12.4l-10.4,24h-1.7l-7.4-15.7-7.4,15.7h-1.7l-10.4-24h5.4l6.2,15.4,7.1-15.9h1.7l7.2,15.7,6.1-15.2h5.4Z"/>
  <path class="cls-1" d="M248.9,25.8c.6,3.8,3.6,6.2,7.7,6.2s4.7-.9,6.8-2.8l2.4,3.4c-2.7,2.5-5.8,3.8-9.4,3.8-7.2,0-12.6-5.3-12.6-12.3-.1-6.8,5.5-12.4,12.2-12.3,6.2,0,10.9,4.6,10.9,10.8s-.1,2.1-.4,3.2h-17.5ZM261.8,21.9c0-3.6-2.7-5.7-6-5.7s-6,2.3-6.8,5.7h12.8Z"/>
  <path class="cls-1" d="M296.9,11.9c4.4,0,7.9,2.1,9.9,5.5l-3.5,2.8c-1.7-2.4-3.8-3.6-6.3-3.6-4.2,0-7.4,3.4-7.4,7.6s3.2,7.7,7.4,7.7,4.6-1.2,6.3-3.5l3.5,2.7c-2.1,3.4-5.7,5.5-9.9,5.5-6.9,0-12.5-5.5-12.5-12.3-.1-6.8,5.7-12.4,12.5-12.3Z"/>
  <path class="cls-1" d="M331,35.9h-4.7v-2.6c-1.7,2.1-4.3,3.2-7.5,3.2-4.9,0-8.2-2.7-8.2-6.8s3.4-6.7,8.7-6.7h6.7v-1.5c0-3.3-1.8-5-5-5s-4.5,1.1-6.5,3.5l-2.9-3c2.3-3.4,5.8-5,9.9-5,5.8,0,9.6,3.5,9.6,9.8v14.2ZM326,26.6h-6c-2.7,0-4.2,1-4.2,2.9s1.7,3.1,4.1,3.1,6.1-2.3,6.1-5.6v-.4Z"/>
  <path class="cls-1" d="M358.6,35.9h-5v-14c0-3.3-2.1-5.5-5.1-5.5s-5.4,2.2-5.4,5.5v14h-5V12.4h4.7v2.3c1.8-1.9,4.1-2.8,7-2.8,5.5,0,8.8,3.7,8.8,9.3v14.7Z"/>
  <path class="cls-1" d="M399.5,35.9h-5v-14c0-3.3-2-5.5-5.1-5.5s-5.4,2.3-5.4,5.5v14h-5V0h5v14.7c1.6-1.9,4-2.9,6.8-2.9,5.4,0,8.7,3.8,8.7,9.3v14.7Z"/>
  <path class="cls-1" d="M410.2,25.8c.6,3.8,3.6,6.2,7.7,6.2s4.7-.9,6.8-2.8l2.4,3.4c-2.7,2.5-5.8,3.8-9.4,3.8-7.2,0-12.6-5.3-12.6-12.3-.1-6.8,5.5-12.4,12.2-12.3,6.2,0,10.9,4.6,10.9,10.8s-.1,2.1-.4,3.2h-17.5ZM423,21.9c0-3.6-2.7-5.7-6-5.7s-6,2.3-6.8,5.7h12.8Z"/>
  <path class="cls-1" d="M433.8,0h5v35.9h-5V0Z"/>
  <path class="cls-1" d="M459,36.4c-3.2,0-6-1.2-7.9-3.4v11.5h-5V12.4h4.7v3.3c1.7-2.4,4.7-3.8,8.2-3.8,6.7,0,11.5,5.3,11.5,12.3s-4.9,12.3-11.5,12.3ZM458.2,16.5c-3.7,0-7.1,2.5-7.1,7.7s3.4,7.7,7.1,7.7,7.2-3.2,7.2-7.7-3.1-7.7-7.2-7.7Z"/>
  <path class="cls-1" d="M479,29c2.1,0,3.7,1.6,3.7,3.7s-1.6,3.7-3.7,3.7-3.8-1.6-3.8-3.7,1.7-3.7,3.8-3.7Z"/>
</svg>