<?xml version="1.0" encoding="utf-8"?>
<!-- Generator: Adobe Illustrator 21.0.0, SVG Export Plug-In . SVG Version: 6.00 Build 0)  -->
<svg version="1.1" id="Layer_2" xmlns="http://www.w3.org/2000/svg" xmlns:xlink="http://www.w3.org/1999/xlink" x="0px" y="0px"
	 viewBox="0 0 236.9 66.4" style="enable-background:new 0 0 236.9 66.4;" xml:space="preserve">
<g>
	<path style="fill:#FFFFFF;" d="M2.6,6c0-1,0.8-1.8,1.8-1.8H16c0.9,0,1.6,0.7,1.6,1.6S16.9,7.5,16,7.5H6.1v5.5h8.6
		c0.9,0,1.6,0.7,1.6,1.6s-0.7,1.6-1.6,1.6H6.1v6.5c0,1-0.8,1.7-1.7,1.7c-1,0-1.8-0.8-1.8-1.7V6z"/>
	<path style="fill:#FFFFFF;" d="M20.2,14.3L20.2,14.3c0-5.7,4.3-10.4,10.5-10.4s10.4,4.7,10.4,10.3v0.1c0,5.6-4.3,10.3-10.5,10.3
		C24.5,24.6,20.2,20,20.2,14.3z M37.5,14.3L37.5,14.3c0-3.9-2.8-7.2-6.8-7.2c-4,0-6.7,3.2-6.7,7.1v0.1c0,3.9,2.8,7.1,6.8,7.1
		S37.5,18.2,37.5,14.3z"/>
	<path style="fill:#FFFFFF;" d="M45.4,6c0-1,0.8-1.8,1.8-1.8h7.1c2.5,0,4.5,0.7,5.8,2c1.1,1.1,1.7,2.6,1.7,4.3v0.1
		c0,3.2-1.9,5.1-4.5,6l3.8,4.8c0.3,0.4,0.6,0.8,0.6,1.3c0,1-0.8,1.6-1.7,1.6c-0.8,0-1.3-0.4-1.7-0.9l-4.9-6.2h-4.4v5.4
		c0,1-0.8,1.7-1.7,1.7c-1,0-1.8-0.8-1.8-1.7V6z M54.1,14.2c2.5,0,4.1-1.3,4.1-3.3v-0.1c0-2.1-1.5-3.3-4.1-3.3h-5.1v6.7H54.1z"/>
	<path style="fill:#FFFFFF;" d="M79.5,7.5h-4.9c-0.9,0-1.6-0.7-1.6-1.6s0.7-1.6,1.6-1.6H88c0.9,0,1.6,0.7,1.6,1.6S88.8,7.5,88,7.5
		h-4.9v15.1c0,1-0.8,1.7-1.8,1.7c-1,0-1.8-0.8-1.8-1.7V7.5z"/>
	<path style="fill:#FFFFFF;" d="M93.1,5.9c0-1,0.8-1.7,1.8-1.7c1,0,1.7,0.8,1.7,1.7v6.7h9.5V5.9c0-1,0.8-1.7,1.7-1.7
		c1,0,1.8,0.8,1.8,1.7v16.8c0,1-0.8,1.7-1.8,1.7c-1,0-1.7-0.8-1.7-1.7v-6.8h-9.5v6.8c0,1-0.8,1.7-1.7,1.7c-1,0-1.8-0.8-1.8-1.7V5.9z
		"/>
	<path style="fill:#FFFFFF;" d="M114.8,22.5V6c0-1,0.8-1.8,1.8-1.8h11.6c0.9,0,1.6,0.7,1.6,1.6c0,0.9-0.7,1.6-1.6,1.6h-9.9v5.2h8.6
		c0.9,0,1.6,0.7,1.6,1.6c0,0.9-0.7,1.5-1.6,1.5h-8.6v5.4h10c0.9,0,1.6,0.7,1.6,1.6c0,0.9-0.7,1.6-1.6,1.6h-11.8
		C115.6,24.3,114.8,23.5,114.8,22.5z"/>
	<path style="fill:#FFFFFF;" d="M141.3,6.5c-0.1-0.2-0.1-0.5-0.1-0.7c0-1,0.8-1.7,1.8-1.7c0.9,0,1.5,0.5,1.7,1.3l4.6,13.7l4.5-13.7
		c0.3-0.8,0.9-1.4,1.8-1.4h0.3c0.9,0,1.5,0.6,1.8,1.4l4.5,13.7l4.6-13.8c0.3-0.7,0.9-1.3,1.7-1.3c0.9,0,1.7,0.7,1.7,1.7
		c0,0.2-0.1,0.5-0.2,0.7l-5.9,16.6c-0.3,0.9-1,1.5-1.8,1.5h-0.3c-0.9,0-1.5-0.5-1.8-1.5L155.7,10l-4.5,13.1c-0.3,0.9-1,1.5-1.8,1.5
		H149c-0.9,0-1.5-0.5-1.8-1.5L141.3,6.5z"/>
	<path style="fill:#FFFFFF;" d="M170.8,22l7.4-16.6c0.4-0.9,1.1-1.4,2.1-1.4h0.2c1,0,1.7,0.5,2.1,1.4L190,22
		c0.1,0.3,0.2,0.5,0.2,0.7c0,0.9-0.7,1.7-1.7,1.7c-0.8,0-1.4-0.5-1.7-1.2l-1.6-3.7h-9.7l-1.7,3.9c-0.3,0.7-0.9,1.1-1.6,1.1
		c-0.9,0-1.6-0.7-1.6-1.6C170.6,22.5,170.7,22.3,170.8,22z M183.9,16.3l-3.5-8.1l-3.5,8.1H183.9z"/>
	<path style="fill:#FFFFFF;" d="M194,6c0-1,0.8-1.8,1.8-1.8h7.1c2.5,0,4.5,0.7,5.8,2c1.1,1.1,1.7,2.6,1.7,4.3v0.1
		c0,3.2-1.9,5.1-4.5,6l3.8,4.8c0.3,0.4,0.6,0.8,0.6,1.3c0,1-0.8,1.6-1.7,1.6c-0.8,0-1.3-0.4-1.7-0.9l-4.9-6.2h-4.4v5.4
		c0,1-0.8,1.7-1.7,1.7c-1,0-1.8-0.8-1.8-1.7V6z M202.7,14.2c2.5,0,4.1-1.3,4.1-3.3v-0.1c0-2.1-1.5-3.3-4.1-3.3h-5.1v6.7H202.7z"/>
	<path style="fill:#FFFFFF;" d="M214.7,5.9c0-1,0.8-1.8,1.8-1.8h0.4c0.8,0,1.3,0.4,1.6,0.9l6.1,9.5l6.1-9.5c0.4-0.6,0.9-0.9,1.6-0.9
		h0.4c1,0,1.8,0.8,1.8,1.8v16.7c0,1-0.8,1.7-1.8,1.7c-0.9,0-1.7-0.8-1.7-1.7v-12l-4.9,7.3c-0.4,0.6-0.8,0.9-1.5,0.9
		c-0.6,0-1.1-0.3-1.5-0.9l-4.9-7.3v12c0,1-0.8,1.7-1.7,1.7c-1,0-1.7-0.7-1.7-1.7V5.9z"/>
	<path style="fill:#FFFFFF;" d="M19.6,56.3l7.4-16.6c0.4-0.9,1.1-1.4,2.1-1.4h0.2c1,0,1.7,0.5,2.1,1.4l7.4,16.6
		c0.1,0.3,0.2,0.5,0.2,0.7c0,0.9-0.7,1.7-1.7,1.7c-0.8,0-1.4-0.5-1.7-1.2l-1.6-3.7h-9.7l-1.7,3.9c-0.3,0.7-0.9,1.1-1.6,1.1
		c-0.9,0-1.6-0.7-1.6-1.6C19.4,56.8,19.5,56.5,19.6,56.3z M32.7,50.6l-3.5-8.1l-3.5,8.1H32.7z"/>
	<path style="fill:#FFFFFF;" d="M42.9,40.3c0-1,0.8-1.8,1.8-1.8h11.7c0.9,0,1.6,0.7,1.6,1.6s-0.7,1.6-1.6,1.6h-9.9v5.5H55
		c0.9,0,1.6,0.7,1.6,1.6s-0.7,1.6-1.6,1.6h-8.6v6.5c0,1-0.8,1.7-1.7,1.7c-1,0-1.8-0.8-1.8-1.7V40.3z"/>
	<path style="fill:#FFFFFF;" d="M66.5,41.8h-4.9c-0.9,0-1.6-0.7-1.6-1.6s0.7-1.6,1.6-1.6h13.3c0.9,0,1.6,0.7,1.6,1.6
		s-0.7,1.6-1.6,1.6h-4.9v15.1c0,1-0.8,1.7-1.8,1.7c-1,0-1.8-0.8-1.8-1.7V41.8z"/>
	<path style="fill:#FFFFFF;" d="M80.1,56.8V40.3c0-1,0.8-1.8,1.8-1.8h11.6c0.9,0,1.6,0.7,1.6,1.6c0,0.9-0.7,1.6-1.6,1.6h-9.9v5.2
		h8.6c0.9,0,1.6,0.7,1.6,1.6c0,0.9-0.7,1.5-1.6,1.5h-8.6v5.4h10c0.9,0,1.6,0.7,1.6,1.6c0,0.9-0.7,1.6-1.6,1.6H81.9
		C80.9,58.5,80.1,57.8,80.1,56.8z"/>
	<path style="fill:#FFFFFF;" d="M99.2,40.3c0-1,0.8-1.8,1.8-1.8h7.1c2.5,0,4.5,0.7,5.8,2c1.1,1.1,1.7,2.6,1.7,4.3v0.1
		c0,3.2-1.9,5.1-4.5,6l3.8,4.8c0.3,0.4,0.6,0.8,0.6,1.3c0,1-0.8,1.6-1.7,1.6c-0.8,0-1.3-0.4-1.7-0.9l-4.9-6.2h-4.4v5.4
		c0,1-0.8,1.7-1.7,1.7c-1,0-1.8-0.8-1.8-1.7V40.3z M107.9,48.5c2.5,0,4.1-1.3,4.1-3.3v-0.1c0-2.1-1.5-3.3-4.1-3.3h-5.1v6.7H107.9z"
		/>
	<path style="fill:#FFFFFF;" d="M119.9,40.2c0-1,0.8-1.8,1.8-1.8h0.4c0.9,0,1.3,0.4,1.8,1l10,12.9V40.1c0-0.9,0.8-1.7,1.7-1.7
		c1,0,1.7,0.8,1.7,1.7v16.8c0,1-0.7,1.7-1.7,1.7h-0.1c-0.8,0-1.3-0.4-1.8-1.1l-10.3-13.3V57c0,0.9-0.8,1.7-1.7,1.7
		c-1,0-1.7-0.8-1.7-1.7V40.2z"/>
	<path style="fill:#FFFFFF;" d="M141.6,48.6L141.6,48.6c0-5.7,4.3-10.4,10.5-10.4c6.1,0,10.4,4.7,10.4,10.3v0.1
		c0,5.6-4.3,10.3-10.5,10.3S141.6,54.2,141.6,48.6z M158.8,48.6L158.8,48.6c0-3.9-2.8-7.2-6.8-7.2s-6.7,3.2-6.7,7.1v0.1
		c0,3.9,2.8,7.1,6.8,7.1C156,55.6,158.8,52.5,158.8,48.6z"/>
	<path style="fill:#FFFFFF;" d="M165.8,48.6L165.8,48.6c0-5.7,4.3-10.4,10.5-10.4c6.1,0,10.4,4.7,10.4,10.3v0.1
		c0,5.6-4.3,10.3-10.5,10.3S165.8,54.2,165.8,48.6z M183.1,48.6L183.1,48.6c0-3.9-2.8-7.2-6.8-7.2s-6.7,3.2-6.7,7.1v0.1
		c0,3.9,2.8,7.1,6.8,7.1C180.3,55.6,183.1,52.5,183.1,48.6z"/>
	<path style="fill:#FFFFFF;" d="M191,40.2c0-1,0.8-1.8,1.8-1.8h0.4c0.9,0,1.3,0.4,1.8,1l10,12.9V40.1c0-0.9,0.8-1.7,1.7-1.7
		c1,0,1.7,0.8,1.7,1.7v16.8c0,1-0.7,1.7-1.7,1.7h-0.1c-0.8,0-1.3-0.4-1.8-1.1l-10.3-13.3V57c0,0.9-0.8,1.7-1.7,1.7
		c-1,0-1.7-0.8-1.7-1.7V40.2z"/>
	<path style="fill:#FFFFFF;" d="M214.8,54.5c1.1,0,2,0.9,2,2v0.3c0,1.1-0.9,2-2,2c-1.2,0-2-0.9-2-2v-0.3
		C212.8,55.3,213.7,54.5,214.8,54.5z"/>
</g>
</svg>
