<?xml version="1.0" encoding="utf-8"?>
<!-- Generator: Adobe Illustrator 21.0.0, SVG Export Plug-In . SVG Version: 6.00 Build 0)  -->
<svg version="1.1" id="Layer_2" xmlns="http://www.w3.org/2000/svg" xmlns:xlink="http://www.w3.org/1999/xlink" x="0px" y="0px"
	 viewBox="0 0 133.9 35.6" style="enable-background:new 0 0 133.9 35.6;" xml:space="preserve">
<path style="fill:#FFFFFF;" d="M0,22c0-0.7,0.6-1.4,1.3-1.5c0.7-0.1,1.3,0.4,1.3,1.1v12.5c0,0.7-0.6,1.4-1.3,1.5
	C0.6,35.7,0,35.3,0,34.5V22z"/>
<path style="fill:#FFFFFF;" d="M10.3,21.6l-3.6,0.6c-0.7,0.1-1.2-0.4-1.2-1c0-0.7,0.5-1.3,1.2-1.4l9.9-1.6c0.7-0.1,1.2,0.4,1.2,1
	c0,0.7-0.5,1.3-1.2,1.4l-3.6,0.6v11.3c0,0.7-0.6,1.4-1.3,1.5s-1.3-0.4-1.3-1.1V21.6z"/>
<path style="fill:#FFFFFF;" d="M19.7,22.4c1-0.5,1.5-1.2,1.4-2.2c-0.6,0-1.2-0.5-1.2-1.2v-0.2c0-0.8,0.6-1.5,1.4-1.7
	c0.9-0.2,1.5,0.5,1.5,1.6v0.2c0,1.5-0.4,2.5-1,3.3c-0.6,0.7-1.4,1.1-2,1.2c-0.4,0.1-0.7-0.1-0.7-0.5C19.3,22.8,19.5,22.6,19.7,22.4z
	"/>
<path style="fill:#FFFFFF;" d="M25.8,29.9c-0.3-0.2-0.5-0.5-0.5-0.9c0-0.7,0.6-1.3,1.2-1.4c0.4-0.1,0.6,0,0.8,0.1
	c1.2,0.8,2.6,1.1,4.2,0.9c1.6-0.3,2.6-1.2,2.6-2.3v0c0-1.1-0.6-1.5-3.4-1.7c-3.2-0.3-5-0.9-5-3.7v0c0-2.6,2.1-4.7,5.1-5.2
	c1.9-0.3,3.4-0.1,4.7,0.6c0.3,0.1,0.6,0.4,0.6,1c0,0.7-0.6,1.3-1.2,1.4c-0.3,0-0.5,0-0.7-0.1c-1.2-0.6-2.3-0.8-3.4-0.6
	c-1.5,0.2-2.4,1.2-2.4,2.2v0c0,1.2,0.7,1.6,3.6,1.8c3.2,0.3,4.8,1.1,4.8,3.6v0c0,2.8-2.2,4.8-5.3,5.3C29.4,31.2,27.4,30.9,25.8,29.9
	z"/>
<path style="fill:#FFFFFF;" d="M49.9,15.2l-3.6,0.6c-0.7,0.1-1.2-0.4-1.2-1c0-0.7,0.5-1.3,1.2-1.4l9.9-1.6c0.7-0.1,1.2,0.4,1.2,1
	s-0.5,1.3-1.2,1.4l-3.6,0.6V26c0,0.7-0.6,1.4-1.3,1.5c-0.7,0.1-1.3-0.4-1.3-1.1V15.2z"/>
<path style="fill:#FFFFFF;" d="M60.2,12.3c0-0.7,0.6-1.4,1.3-1.5c0.7-0.1,1.3,0.4,1.3,1.1v12.5c0,0.7-0.6,1.4-1.3,1.5
	c-0.7,0.1-1.3-0.4-1.3-1.1V12.3z"/>
<path style="fill:#FFFFFF;" d="M66.8,11.2c0-0.7,0.6-1.4,1.3-1.5l0.3,0c0.6-0.1,1,0.1,1.2,0.5l4.5,6.3l4.5-7.8
	c0.3-0.5,0.7-0.8,1.2-0.9l0.3,0c0.7-0.1,1.3,0.4,1.3,1.1v12.5c0,0.7-0.6,1.4-1.3,1.5c-0.7,0.1-1.3-0.4-1.3-1.1v-9l-3.6,6.1
	c-0.3,0.5-0.6,0.8-1.1,0.9c-0.5,0.1-0.8-0.1-1.1-0.5l-3.6-4.9v8.9c0,0.7-0.6,1.4-1.3,1.5c-0.7,0.1-1.3-0.3-1.3-1.1V11.2z"/>
<path style="fill:#FFFFFF;" d="M85.3,20.6V8.3c0-0.7,0.6-1.4,1.3-1.5l8.7-1.4c0.6-0.1,1.2,0.3,1.2,1c0,0.7-0.5,1.3-1.2,1.4l-7.4,1.2
	v3.9l6.4-1c0.6-0.1,1.2,0.3,1.2,1c0,0.6-0.5,1.2-1.2,1.3l-6.4,1v4l7.5-1.2c0.6-0.1,1.2,0.3,1.2,1c0,0.7-0.5,1.3-1.2,1.4l-8.8,1.4
	C85.9,21.8,85.3,21.3,85.3,20.6z"/>
<path style="fill:#FFFFFF;" d="M109.6,5.5L106,6.1c-0.7,0.1-1.2-0.4-1.2-1c0-0.7,0.5-1.3,1.2-1.4l9.9-1.6c0.7-0.1,1.2,0.4,1.2,1
	c0,0.7-0.5,1.3-1.2,1.4L112.3,5v11.3c0,0.7-0.6,1.4-1.3,1.5s-1.3-0.4-1.3-1.1V5.5z"/>
<path style="fill:#FFFFFF;" d="M118.3,9.1L118.3,9.1c0-4.2,3.2-8.3,7.8-9c4.6-0.7,7.8,2.2,7.8,6.4v0c0,4.2-3.2,8.2-7.8,9
	C121.5,16.3,118.3,13.3,118.3,9.1z M131.2,7.1L131.2,7.1c0-2.9-2.1-5-5.1-4.5c-3,0.5-5,3.2-5,6.1v0c0,2.9,2.1,4.9,5.1,4.5
	C129.1,12.6,131.2,10,131.2,7.1z"/>
</svg>
