<?xml version="1.0" encoding="utf-8"?>
<!-- Generator: Adobe Illustrator 21.0.0, SVG Export Plug-In . SVG Version: 6.00 Build 0)  -->
<svg version="1.1" id="Layer_4" xmlns="http://www.w3.org/2000/svg" xmlns:xlink="http://www.w3.org/1999/xlink" x="0px" y="0px"
	 viewBox="0 0 39.3 31.8" style="enable-background:new 0 0 39.3 31.8;" xml:space="preserve">
<g>
	<path style="fill:#FFFFFF;" d="M2.5,6c0-1,0.8-1.8,1.8-1.8h7.1c2.3,0,4,0.6,5.2,1.8c0.9,0.9,1.3,2,1.3,3.3v0.1
		c0,2.4-1.4,3.6-2.8,4.4c2.3,0.8,3.9,2.1,3.9,4.8v0.1c0,3.5-2.9,5.4-7.3,5.4H4.3c-1,0-1.8-0.8-1.8-1.8V6z M10.7,12.6
		c2.2,0,3.7-0.9,3.7-2.7V9.8c0-1.6-1.2-2.5-3.5-2.5H6v5.3H10.7z M11.7,20.9c2.4,0,3.8-0.9,3.8-2.7v-0.1c0-1.7-1.3-2.7-4.1-2.7H6v5.4
		H11.7z"/>
	<path style="fill:#FFFFFF;" d="M22.9,22.3V6c0-1,0.8-1.8,1.8-1.8h11.5c0.8,0,1.6,0.7,1.6,1.6c0,0.9-0.7,1.6-1.6,1.6h-9.8v5.1h8.5
		c0.8,0,1.6,0.7,1.6,1.6c0,0.8-0.7,1.5-1.6,1.5h-8.5v5.3h9.9c0.8,0,1.6,0.7,1.6,1.6c0,0.9-0.7,1.6-1.6,1.6H24.7
		C23.7,24,22.9,23.3,22.9,22.3z"/>
</g>
</svg>
