<?xml version="1.0" encoding="utf-8"?>
<!-- Generator: Adobe Illustrator 21.0.0, SVG Export Plug-In . SVG Version: 6.00 Build 0)  -->
<svg version="1.1" id="Layer_2" xmlns="http://www.w3.org/2000/svg" xmlns:xlink="http://www.w3.org/1999/xlink" x="0px" y="0px"
	 viewBox="0 0 110.6 31.4" style="enable-background:new 0 0 110.6 31.4;" xml:space="preserve">
<path style="fill:#FFFFFF;" d="M0.5,30.3C0.2,30.1,0,29.8,0,29.4c0-0.7,0.6-1.3,1.2-1.4c0.4-0.1,0.6,0,0.8,0.1
	c1.2,0.8,2.6,1.1,4.2,0.9c1.6-0.3,2.6-1.2,2.6-2.3v0c0-1.1-0.6-1.5-3.4-1.7c-3.2-0.3-5-0.9-5-3.7v0c0-2.6,2.1-4.7,5.1-5.2
	c1.9-0.3,3.4-0.1,4.7,0.6c0.3,0.1,0.6,0.4,0.6,1c0,0.7-0.6,1.3-1.2,1.4c-0.3,0-0.5,0-0.7-0.1c-1.2-0.6-2.3-0.8-3.4-0.6
	c-1.5,0.2-2.4,1.2-2.4,2.2v0c0,1.2,0.7,1.6,3.6,1.8c3.2,0.3,4.8,1.1,4.8,3.6v0c0,2.8-2.2,4.8-5.3,5.3C4.1,31.6,2.2,31.3,0.5,30.3z"
	/>
<path style="fill:#FFFFFF;" d="M17.9,16.6l-3.6,0.6c-0.7,0.1-1.2-0.4-1.2-1c0-0.7,0.5-1.3,1.2-1.4l9.9-1.6c0.7-0.1,1.2,0.4,1.2,1
	c0,0.7-0.5,1.3-1.2,1.4l-3.7,0.6v11.3c0,0.7-0.6,1.4-1.3,1.5c-0.7,0.1-1.3-0.4-1.3-1.1V16.6z"/>
<path style="fill:#FFFFFF;" d="M26.6,20.3L26.6,20.3c0-4.3,3.2-8.3,7.8-9c4.6-0.7,7.8,2.2,7.8,6.4v0c0,4.2-3.2,8.3-7.8,9
	C29.8,27.5,26.6,24.5,26.6,20.3z M39.5,18.2L39.5,18.2c0-2.9-2.1-5-5.1-4.5s-5,3.2-5,6.1v0c0,2.9,2.1,5,5.1,4.5
	C37.4,23.8,39.5,21.1,39.5,18.2z"/>
<path style="fill:#FFFFFF;" d="M44.8,17.4L44.8,17.4c0-4.3,3.2-8.3,7.7-9c2.3-0.4,3.8,0.1,5.1,0.9c0.3,0.2,0.5,0.5,0.5,1
	c0,0.7-0.6,1.4-1.3,1.5c-0.4,0.1-0.6,0-0.8-0.1c-1-0.7-2.1-1-3.6-0.8c-2.8,0.5-4.9,3.1-4.9,6.1v0c0,2.9,2.1,5,4.9,4.5
	c1.6-0.3,2.6-0.9,3.7-2c0.2-0.2,0.5-0.4,0.8-0.4c0.7-0.1,1.2,0.4,1.2,1c0,0.4-0.2,0.8-0.4,1c-1.4,1.5-3,2.5-5.4,2.9
	C48,24.5,44.8,21.7,44.8,17.4z"/>
<path style="fill:#FFFFFF;" d="M61.2,8.4c0-0.7,0.6-1.4,1.3-1.5c0.7-0.1,1.3,0.4,1.3,1.1v6.3L70.9,6c0.3-0.4,0.6-0.6,1.1-0.7
	c0.7-0.1,1.2,0.4,1.2,1c0,0.4-0.2,0.7-0.5,1.1l-4.7,5.2l5,5.4c0.2,0.2,0.4,0.5,0.4,0.9c0,0.7-0.6,1.4-1.3,1.5
	c-0.5,0.1-0.8-0.1-1.1-0.4l-4.8-5.4l-2.4,2.7v3.1c0,0.7-0.6,1.4-1.3,1.5c-0.7,0.1-1.3-0.4-1.3-1.1V8.4z"/>
<path style="fill:#FFFFFF;" d="M82.6,12.3V4.9c0-0.7,0.6-1.4,1.3-1.5c0.7-0.1,1.3,0.4,1.3,1.1v7.3c0,2.8,1.4,4,3.8,3.6
	c2.3-0.4,3.8-2,3.8-4.8V3.3c0-0.7,0.6-1.4,1.3-1.5c0.7-0.1,1.3,0.4,1.3,1.1v7.3c0,4.5-2.5,7.1-6.4,7.7
	C85.1,18.5,82.6,16.7,82.6,12.3z"/>
<path style="fill:#FFFFFF;" d="M99,2.4c0-0.7,0.6-1.4,1.3-1.5l4.6-0.7c3.5-0.6,5.7,1.1,5.7,4.1v0c0,3.4-2.7,5.5-6,6.1l-3,0.5v3.6
	c0,0.7-0.6,1.4-1.3,1.5C99.6,16,99,15.5,99,14.8V2.4z M104.7,7.9c2-0.3,3.2-1.6,3.2-3.2v0c0-1.8-1.3-2.5-3.2-2.1L101.6,3v5.4
	L104.7,7.9z"/>
</svg>
