<?xml version="1.0" encoding="utf-8"?>
<!-- Generator: Adobe Illustrator 21.0.0, SVG Export Plug-In . SVG Version: 6.00 Build 0)  -->
<svg version="1.1" id="Layer_2" xmlns="http://www.w3.org/2000/svg" xmlns:xlink="http://www.w3.org/1999/xlink" x="0px" y="0px"
	 viewBox="0 0 163.6 38.9" style="enable-background:new 0 0 163.6 38.9;" xml:space="preserve">
<path style="fill:#FFFFFF;" d="M0,32.3L0,32.3c0-4.3,3.2-8.3,7.8-9c4.6-0.7,7.8,2.2,7.8,6.4v0c0,4.2-3.2,8.3-7.8,9
	C3.2,39.5,0,36.5,0,32.3z M12.9,30.2L12.9,30.2c0-2.9-2.1-5-5.1-4.5c-3,0.5-5,3.2-5,6.1v0c0,2.9,2.1,5,5.1,4.5
	C10.8,35.8,12.9,33.1,12.9,30.2z"/>
<path style="fill:#FFFFFF;" d="M18.8,23c0-0.7,0.6-1.4,1.3-1.5l0.3,0c0.6-0.1,1,0.2,1.4,0.5l7.5,8.5v-9.2c0-0.7,0.6-1.4,1.3-1.5
	c0.7-0.1,1.3,0.4,1.3,1.1v12.6c0,0.7-0.6,1.4-1.3,1.5l-0.1,0c-0.6,0.1-1-0.2-1.4-0.6l-7.7-8.7v9.5c0,0.7-0.6,1.4-1.3,1.5
	c-0.7,0.1-1.3-0.4-1.3-1.1V23z"/>
<path style="fill:#FFFFFF;" d="M41.7,31.3c-0.3-0.2-0.5-0.5-0.5-0.9c0-0.7,0.6-1.3,1.2-1.4c0.4-0.1,0.6,0,0.8,0.1
	c1.2,0.8,2.6,1.1,4.2,0.9c1.6-0.3,2.6-1.2,2.6-2.3v0c0-1.1-0.6-1.5-3.4-1.7c-3.2-0.3-5-0.9-5-3.7v0c0-2.6,2.1-4.7,5.1-5.2
	c1.9-0.3,3.4-0.1,4.7,0.6c0.3,0.1,0.6,0.4,0.6,1c0,0.7-0.6,1.3-1.2,1.4c-0.3,0-0.5,0-0.7-0.1c-1.2-0.6-2.3-0.8-3.4-0.6
	c-1.5,0.2-2.4,1.2-2.4,2.2v0c0,1.2,0.7,1.6,3.6,1.8c3.2,0.3,4.8,1.1,4.8,3.6v0c0,2.8-2.2,4.8-5.3,5.3C45.3,32.6,43.4,32.3,41.7,31.3
	z"/>
<path style="fill:#FFFFFF;" d="M54.8,29.2l5.6-13.3c0.3-0.7,0.8-1.2,1.6-1.3l0.1,0c0.7-0.1,1.3,0.2,1.6,0.8l5.6,11.5
	c0.1,0.2,0.1,0.4,0.1,0.5c0,0.7-0.5,1.3-1.2,1.5c-0.6,0.1-1-0.2-1.3-0.7l-1.2-2.6l-7.3,1.2L57,29.8c-0.2,0.6-0.7,0.9-1.2,1
	c-0.7,0.1-1.2-0.3-1.2-1C54.6,29.6,54.6,29.4,54.8,29.2z M64.5,23.4l-2.6-5.6l-2.6,6.5L64.5,23.4z"/>
<path style="fill:#FFFFFF;" d="M72.1,14.3c0-0.7,0.6-1.4,1.3-1.5l0.3,0c0.6-0.1,1,0.2,1.4,0.5l7.5,8.5v-9.2c0-0.7,0.6-1.4,1.3-1.5
	c0.7-0.1,1.3,0.4,1.3,1.1v12.6c0,0.7-0.6,1.4-1.3,1.5l-0.1,0c-0.6,0.1-1-0.2-1.4-0.6L74.7,17v9.5c0,0.7-0.6,1.4-1.3,1.5
	c-0.7,0.1-1.3-0.4-1.3-1.1V14.3z"/>
<path style="fill:#FFFFFF;" d="M89.1,11.5c0-0.7,0.6-1.4,1.3-1.5c0.7-0.1,1.3,0.4,1.3,1.1v12.6c0,0.7-0.6,1.4-1.3,1.5
	c-0.7,0.1-1.3-0.4-1.3-1.1V11.5z"/>
<path style="fill:#FFFFFF;" d="M99.4,11.1l-3.6,0.6c-0.7,0.1-1.2-0.4-1.2-1c0-0.7,0.5-1.3,1.2-1.4l9.9-1.6c0.7-0.1,1.2,0.4,1.2,1
	c0,0.7-0.5,1.3-1.2,1.4l-3.7,0.6V22c0,0.7-0.6,1.4-1.3,1.5c-0.7,0.1-1.3-0.4-1.3-1.1V11.1z"/>
<path style="fill:#FFFFFF;" d="M109.8,8.2c0-0.7,0.6-1.4,1.3-1.5c0.7-0.1,1.3,0.4,1.3,1.1v12.6c0,0.7-0.6,1.4-1.3,1.5
	c-0.7,0.1-1.3-0.4-1.3-1.1V8.2z"/>
<path style="fill:#FFFFFF;" d="M115.8,19.8L115.8,19.8c0-0.5,0.2-0.9,0.5-1.4l8.4-11.6l-7.5,1.2c-0.6,0.1-1.2-0.3-1.2-1
	c0-0.6,0.5-1.3,1.2-1.4l9.8-1.6c0.6-0.1,1.2,0.3,1.2,1v0.1c0,0.4-0.2,0.9-0.5,1.3l-8.4,11.6l7.8-1.3c0.6-0.1,1.2,0.3,1.2,1
	c0,0.6-0.5,1.2-1.2,1.3l-10.1,1.6C116.3,20.9,115.8,20.5,115.8,19.8z"/>
<path style="fill:#FFFFFF;" d="M131.4,17.1V4.8c0-0.7,0.6-1.4,1.3-1.5l8.7-1.4c0.6-0.1,1.2,0.3,1.2,1c0,0.7-0.5,1.3-1.2,1.4L134,5.4
	v3.9l6.4-1c0.6-0.1,1.2,0.3,1.2,1c0,0.6-0.5,1.2-1.2,1.3l-6.4,1v4l7.5-1.2c0.6-0.1,1.2,0.3,1.2,1c0,0.7-0.5,1.3-1.2,1.4l-8.8,1.4
	C132,18.4,131.4,17.9,131.4,17.1z"/>
<path style="fill:#FFFFFF;" d="M145.7,2.5c0-0.7,0.6-1.4,1.3-1.5l5.3-0.9c1.9-0.3,3.4,0,4.3,0.8c0.8,0.7,1.2,1.7,1.2,3v0
	c0,2.4-1.4,4.1-3.4,5l2.9,3.1c0.3,0.3,0.4,0.5,0.4,0.9c0,0.7-0.6,1.3-1.3,1.4c-0.6,0.1-1-0.1-1.3-0.5l-3.6-4l-3.3,0.5v4
	c0,0.7-0.6,1.4-1.3,1.5c-0.7,0.1-1.3-0.4-1.3-1.1V2.5z M152.2,7.6c1.9-0.3,3.1-1.5,3.1-3v0c0-1.6-1.2-2.3-3.1-2l-3.8,0.6v5
	L152.2,7.6z"/>
<path style="fill:#FFFFFF;" d="M162.1,10.4c0.9-0.1,1.5,0.4,1.5,1.2v0.2c0,0.8-0.6,1.6-1.5,1.7c-0.9,0.1-1.5-0.4-1.5-1.2v-0.2
	C160.6,11.3,161.2,10.6,162.1,10.4z"/>
</svg>
