<?xml version="1.0" encoding="utf-8"?>
<!-- Generator: Adobe Illustrator 21.0.0, SVG Export Plug-In . SVG Version: 6.00 Build 0)  -->
<svg version="1.1" id="Layer_3" xmlns="http://www.w3.org/2000/svg" xmlns:xlink="http://www.w3.org/1999/xlink" x="0px" y="0px"
	 viewBox="0 0 248.3 76.8" style="enable-background:new 0 0 248.3 76.8;" xml:space="preserve">
<g>
	<path style="fill:#FFFFFF;" d="M4.8,35.3v-0.1c0-13.9,10.4-25.4,24.9-25.4c7.9,0,13,2.6,17.6,6.4c0.6,0.5,1.1,1.3,1.1,2.2
		c0,1.5-1.3,2.7-2.8,2.7c-0.8,0-1.4-0.4-1.8-0.6c-3.8-3.4-8.1-5.6-14.1-5.6c-10.9,0-19,8.9-19,20.2v0.1c0,11.4,8.2,20.3,19,20.3
		c6.1,0,10.4-2.1,14.6-6c0.4-0.4,1.1-0.8,1.8-0.8c1.4,0,2.7,1.3,2.7,2.7c0,0.8-0.4,1.5-0.9,2c-4.8,4.4-10.2,7.2-18.3,7.2
		C15.2,60.6,4.8,49.4,4.8,35.3z"/>
	<path style="fill:#FFFFFF;" d="M58.8,13c0-1.5,1.3-2.8,2.7-2.8c1.5,0,2.8,1.3,2.8,2.8v41.6h25.5c1.4,0,2.5,1.2,2.5,2.6
		s-1.1,2.5-2.5,2.5H61.6c-1.5,0-2.7-1.3-2.7-2.8V13z"/>
	<path style="fill:#FFFFFF;" d="M102.3,56.9V13.4c0-1.5,1.3-2.8,2.7-2.8h30.6c1.4,0,2.5,1.1,2.5,2.5s-1.1,2.5-2.5,2.5h-27.8v16.8
		h24.6c1.4,0,2.5,1.2,2.5,2.5c0,1.4-1.1,2.5-2.5,2.5h-24.6v17.2H136c1.4,0,2.5,1.1,2.5,2.5s-1.1,2.5-2.5,2.5h-30.9
		C103.6,59.7,102.3,58.5,102.3,56.9z"/>
	<path style="fill:#FFFFFF;" d="M146.4,56.1l20-43.6c0.7-1.5,1.8-2.5,3.5-2.5h0.3c1.7,0,2.8,0.9,3.4,2.5l20,43.6
		c0.2,0.5,0.4,1,0.4,1.4c0,1.5-1.2,2.7-2.7,2.7c-1.3,0-2.2-0.9-2.7-2l-5.1-11.3h-27l-5.1,11.5c-0.5,1.2-1.4,1.9-2.7,1.9
		c-1.4,0-2.5-1.1-2.5-2.5C146,57.1,146.1,56.6,146.4,56.1z M181.2,41.7l-11.3-25.2l-11.3,25.2H181.2z"/>
	<path style="fill:#FFFFFF;" d="M204.5,13.4c0-1.5,1.3-2.8,2.7-2.8h18.4c6,0,10.9,1.8,14,4.9c2.4,2.4,3.8,5.8,3.8,9.7v0.1
		c0,8.1-5.5,12.8-13.1,14.3l12.2,15.7c0.6,0.6,0.9,1.3,0.9,2c0,1.5-1.4,2.7-2.8,2.7c-1.1,0-2-0.6-2.6-1.5l-13.8-18H210v16.7
		c0,1.5-1.3,2.8-2.8,2.8c-1.5,0-2.7-1.3-2.7-2.8V13.4z M225.1,35.6c7.4,0,12.6-3.8,12.6-10.1v-0.1c0-6-4.6-9.7-12.6-9.7H210v20
		H225.1z"/>
</g>
</svg>
