<?xml version="1.0" encoding="UTF-8"?>
<svg id="Layer_1" data-name="Layer 1" xmlns="http://www.w3.org/2000/svg" version="1.1" viewBox="0 0 323 34.8">
  <defs>
    <style>
      .cls-1 {
        fill: #ffbf3f;
        stroke-width: 0px;
      }
    </style>
  </defs>
  <path class="cls-1" d="M0,3.7h3.8v24.2H0V3.7ZM19.6,27.9h-4.8L3.9,15,13.8,3.7h4.7l-9.9,11.3,10.9,12.8h0Z"/>
  <path class="cls-1" d="M24.6,20.1c.4,2.9,2.7,4.8,5.7,4.8s3.6-.7,5.2-2.1l1.8,2.6c-2,1.9-4.4,2.9-7,2.9-5.4,0-9.5-4-9.5-9.4,0-5.2,4.1-9.5,9.1-9.4,4.7,0,8.2,3.5,8.2,8.3s0,1.6-.3,2.4h-13.2ZM34.3,17.2c0-2.7-2-4.4-4.6-4.4s-4.5,1.8-5.1,4.4h9.7Z"/>
  <path class="cls-1" d="M45.2,20.1c.4,2.9,2.7,4.8,5.7,4.8s3.6-.7,5.2-2.1l1.8,2.6c-2,1.9-4.4,2.9-7,2.9-5.4,0-9.5-4-9.5-9.4,0-5.2,4.1-9.5,9.1-9.4,4.7,0,8.2,3.5,8.2,8.3s0,1.6-.3,2.4c0,0-13.2,0-13.2,0ZM54.9,17.2c0-2.7-2-4.4-4.6-4.4s-4.5,1.8-5.1,4.4h9.7Z"/>
  <path class="cls-1" d="M72.7,28.2c-2.4,0-4.5-1-5.9-2.6v8.8h-3.8V9.9h3.5v2.6c1.3-1.8,3.6-2.9,6.2-2.9,5,0,8.7,4,8.7,9.4s-3.7,9.4-8.7,9.4h0ZM72.1,13c-2.8,0-5.4,1.9-5.4,5.9s2.6,5.9,5.4,5.9,5.4-2.4,5.4-5.9-2.4-5.9-5.4-5.9Z"/>
  <path class="cls-1" d="M112.1,9.9l-8.6,20.1c-1.5,3.4-3.4,4.9-6.5,4.9s-1.9,0-2.9-.4v-3.3c1.1,0,1.8.2,2.1.2,1.8,0,3-.6,3.9-2.6l.7-1.7-7-17.2h4l5.1,13.1,5.2-13.1h4Z"/>
  <path class="cls-1" d="M123,9.5c5.2,0,9.5,4.3,9.4,9.4,0,5.1-4.2,9.5-9.4,9.4-5.1,0-9.4-4.3-9.3-9.4,0-5.2,4.2-9.4,9.3-9.4ZM123.1,13c-3.2,0-5.5,2.6-5.5,5.9s2.4,5.8,5.5,5.8,5.5-2.6,5.5-5.8-2.4-5.9-5.5-5.9Z"/>
  <path class="cls-1" d="M136.5,9.9h3.8v10.7c0,2.5,1.7,4.1,4,4.1s3.9-1.6,3.9-4.1v-10.7h3.8v10.5c0,4.8-3.3,7.9-7.7,7.9s-7.7-3.1-7.7-7.9v-10.5Z"/>
  <path class="cls-1" d="M167.3,13.3h-1.1c-3,0-5.2,1.8-5.2,5v9.6h-3.8V9.9h3.5v2.4c1.2-1.6,3.2-2.6,5.2-2.6s1,0,1.4.2c0,0,0,3.4,0,3.4Z"/>
  <path class="cls-1" d="M190.6,28.2c-2.4,0-4.5-1-5.9-2.6v8.8h-3.8V9.9h3.5v2.6c1.3-1.8,3.6-2.9,6.2-2.9,5,0,8.7,4,8.7,9.4s-3.7,9.4-8.7,9.4h0ZM189.9,13c-2.8,0-5.4,1.9-5.4,5.9s2.6,5.9,5.4,5.9,5.4-2.4,5.4-5.9-2.4-5.9-5.4-5.9Z"/>
  <path class="cls-1" d="M211.8,9.5c5.2,0,9.5,4.3,9.4,9.4,0,5.1-4.2,9.5-9.4,9.4-5.1,0-9.4-4.3-9.3-9.4,0-5.2,4.2-9.4,9.3-9.4ZM211.8,13c-3.2,0-5.5,2.6-5.5,5.9s2.4,5.8,5.5,5.8,5.5-2.6,5.5-5.8-2.4-5.9-5.5-5.9Z"/>
  <path class="cls-1" d="M235.6,13.3h-1.1c-3,0-5.2,1.8-5.2,5v9.6h-3.8V9.9h3.5v2.4c1.2-1.6,3.2-2.6,5.2-2.6s1,0,1.4.2v3.4h0Z"/>
  <path class="cls-1" d="M249.5,27.9c-1.1.3-2.2.4-3.2.4-4,0-6.5-2-6.5-6.2v-8.8h-2.9v-3.3h2.9v-4.8h3.8v4.8h5.3v3.3h-5.3v8.4c0,2.3,1.2,3.1,3.5,3.1s1.3,0,2.4-.2v3.3Z"/>
  <path class="cls-1" d="M257.8,9.9h4.1v3.3h-4.1v14.7h-3.8v-14.7h-2.6v-3.3h2.6v-3.6c0-4.2,2.4-6.2,6.3-6.2s1.8,0,2.5.4v3.3c-.6,0-1.1,0-1.5,0-2.3,0-3.4.8-3.4,3.1v3.3h0Z"/>
  <path class="cls-1" d="M273.1,9.5c5.2,0,9.5,4.3,9.4,9.4,0,5.1-4.2,9.5-9.4,9.4-5.1,0-9.4-4.3-9.3-9.4,0-5.2,4.2-9.4,9.3-9.4ZM273.2,13c-3.2,0-5.5,2.6-5.5,5.9s2.4,5.8,5.5,5.8,5.5-2.6,5.5-5.8-2.4-5.9-5.5-5.9Z"/>
  <path class="cls-1" d="M286.8.4h3.8v27.4h-3.8V.4Z"/>
  <path class="cls-1" d="M298,.6c1.4,0,2.6,1.1,2.6,2.6s-1.1,2.6-2.6,2.6-2.6-1.1-2.6-2.6,1.1-2.6,2.6-2.6ZM296.1,9.9h3.8v17.9h-3.8V9.9Z"/>
  <path class="cls-1" d="M313.6,9.5c5.2,0,9.5,4.3,9.4,9.4,0,5.1-4.2,9.5-9.4,9.4-5.1,0-9.4-4.3-9.3-9.4,0-5.2,4.2-9.4,9.3-9.4ZM313.6,13c-3.2,0-5.5,2.6-5.5,5.9s2.4,5.8,5.5,5.8,5.5-2.6,5.5-5.8-2.4-5.9-5.5-5.9Z"/>
</svg>