<?xml version="1.0" encoding="UTF-8"?>
<svg id="Layer_1" data-name="Layer 1" xmlns="http://www.w3.org/2000/svg" version="1.1" viewBox="0 0 244.8 26.3">
  <defs>
    <style>
      .cls-1 {
        fill: #002d72;
        stroke-width: 0px;
      }
    </style>
  </defs>
  <path class="cls-1" d="M1.8,16.6c1.2,1.3,2.5,1.9,3.9,1.9s1.8-.4,1.8-1.1-.4-.8-1.4-1.3l-1.5-.6c-2.5-1-3.8-2.2-3.8-4.2s2.1-4.1,5.1-4.1,3.7.7,5,2.1l-1.9,2.3c-.9-.9-2-1.3-3.1-1.3s-1.5.3-1.5,1,.4.8,1.5,1.2l1.3.6c2.7,1.1,3.9,2.2,3.9,4.2s-.5,2.5-1.5,3.2c-1,.8-2.3,1.2-3.9,1.2-2.4,0-4.5-1-5.7-2.7l1.9-2.3h-.1Z"/>
  <path class="cls-1" d="M20.5,7.1c4.1,0,7.5,3.3,7.5,7.2s-3.4,7.3-7.5,7.3-7.5-3.3-7.4-7.3c0-4,3.4-7.3,7.4-7.2ZM20.5,10.5c-2.1,0-3.6,1.6-3.6,3.8s1.5,3.8,3.6,3.8,3.6-1.6,3.6-3.8-1.5-3.8-3.6-3.8Z"/>
  <path class="cls-1" d="M30.9.3h3.8v21h-3.8V.3Z"/>
  <path class="cls-1" d="M38.3,7.4h3.8v8.1c0,1.6,1.1,2.7,2.6,2.7s2.6-1.1,2.6-2.7V7.4h3.8v7.8c0,3.9-2.7,6.4-6.4,6.4s-6.4-2.6-6.4-6.4c0,0,0-7.8,0-7.8Z"/>
  <path class="cls-1" d="M63.6,21.3c-.9.2-1.8.3-2.6.3-3.5,0-5.5-1.7-5.5-5.2v-5.8h-2.2v-3.2h2.2v-3.5h3.8v3.5h3.9v3.2h-3.9v5.5c0,1.6.8,2.2,2.6,2.2s.8,0,1.8-.1v3.2h0Z"/>
  <path class="cls-1" d="M68.3,0c1.3,0,2.4,1,2.4,2.4s-1.1,2.3-2.4,2.3-2.4-1-2.4-2.3S67,0,68.3,0ZM66.4,7.4h3.8v13.9h-3.8V7.4Z"/>
  <path class="cls-1" d="M80.6,7.1c4.1,0,7.5,3.3,7.5,7.2s-3.4,7.3-7.5,7.3-7.5-3.3-7.4-7.3c0-4,3.4-7.3,7.4-7.2ZM80.6,10.5c-2.1,0-3.6,1.6-3.6,3.8s1.5,3.8,3.6,3.8,3.6-1.6,3.6-3.8-1.5-3.8-3.6-3.8Z"/>
  <path class="cls-1" d="M103.7,21.3h-3.8v-8.1c0-1.6-1-2.7-2.6-2.7s-2.6,1.1-2.6,2.7v8.1h-3.8V7.4h3.5v1.3c1-1,2.4-1.6,4.1-1.6,3.2,0,5.2,2.2,5.2,5.6,0,0,0,8.6,0,8.6Z"/>
  <path class="cls-1" d="M108,16.6c1.2,1.3,2.5,1.9,3.9,1.9s1.8-.4,1.8-1.1-.4-.8-1.4-1.3l-1.5-.6c-2.5-1-3.8-2.2-3.8-4.2s2.1-4.1,5.1-4.1,3.7.7,5,2.1l-1.9,2.3c-.9-.9-2-1.3-3.1-1.3s-1.5.3-1.5,1,.4.8,1.5,1.2l1.3.6c2.7,1.1,3.9,2.2,3.9,4.2s-.5,2.5-1.5,3.2c-1,.8-2.3,1.2-3.9,1.2-2.4,0-4.5-1-5.7-2.7l1.9-2.3h-.1Z"/>
  <path class="cls-1" d="M134.6,7.1c2.7,0,4.8,1.3,6,3.4l-2.6,2c-.9-1.3-1.9-2-3.3-2-2.1,0-3.6,1.6-3.6,3.8s1.5,3.8,3.6,3.8,2.4-.7,3.3-2l2.6,2c-1.2,2.1-3.3,3.4-6,3.4-4.1,0-7.5-3.3-7.4-7.3,0-4.1,3.3-7.2,7.4-7.2h0Z"/>
  <path class="cls-1" d="M155,21.3h-3.5v-1.3c-1,1-2.5,1.7-4.2,1.7-2.9,0-4.8-1.7-4.8-4.1s2-4,5.2-4h3.5v-.6c0-1.5-.9-2.4-2.6-2.4s-2.4.6-3.7,1.9l-2-2.3c1.6-1.9,3.6-2.9,6.1-2.9,3.6,0,5.9,2.1,5.9,5.9v8.2h.1ZM151.2,15.9h-3c-1.2,0-1.9.5-1.9,1.4s.8,1.5,2,1.5,2.9-1.1,2.9-2.7c0,0,0-.2,0-.2Z"/>
  <path class="cls-1" d="M171.4,21.3h-3.8v-8.1c0-1.6-1-2.7-2.6-2.7s-2.6,1.1-2.6,2.7v8.1h-3.8V7.4h3.5v1.3c1-1,2.4-1.6,4.1-1.6,3.2,0,5.2,2.2,5.2,5.6v8.6h0Z"/>
  <path class="cls-1" d="M195.6,21.3h-3.8v-8.1c0-1.6-1-2.7-2.6-2.7s-2.6,1.1-2.6,2.7v8.1h-3.8V.3h3.8v8.3c.9-.9,2.3-1.5,3.8-1.5,3.1,0,5.2,2.2,5.2,5.6v8.6h0Z"/>
  <path class="cls-1" d="M202.3,15.6c.4,1.8,1.9,2.7,3.9,2.7s2.7-.5,3.9-1.4l1.6,2.6c-1.7,1.4-3.5,2.1-5.5,2.1-4.3,0-7.7-3.2-7.6-7.3,0-4,3.2-7.3,7.3-7.3s6.5,2.8,6.5,6.4,0,1.4-.3,2.1h-9.8ZM208.6,12.9c0-1.7-1.3-2.8-3-2.8s-2.9,1.1-3.3,2.8h6.3Z"/>
  <path class="cls-1" d="M215.2.3h3.8v21h-3.8V.3Z"/>
  <path class="cls-1" d="M230.7,21.6c-1.7,0-3.1-.6-4.1-1.7v6.4h-3.8V7.4h3.5v1.7c.9-1.3,2.5-2,4.5-2,3.9,0,6.7,3.1,6.7,7.2s-2.9,7.3-6.7,7.3h0ZM230,10.5c-1.9,0-3.5,1.3-3.5,3.8s1.6,3.8,3.5,3.8,3.6-1.5,3.6-3.8-1.5-3.8-3.6-3.8Z"/>
  <path class="cls-1" d="M242.2,16.4c1.5,0,2.6,1.1,2.6,2.6s-1.1,2.6-2.6,2.6-2.6-1.1-2.6-2.6,1.1-2.6,2.6-2.6Z"/>
</svg>