<?xml version="1.0" encoding="UTF-8"?>
<svg id="Layer_1" data-name="Layer 1" xmlns="http://www.w3.org/2000/svg" version="1.1" viewBox="0 0 280.8 21.7">
  <defs>
    <style>
      .cls-1 {
        fill: #002d72;
        stroke-width: 0px;
      }
    </style>
  </defs>
  <path class="cls-1" d="M2.6,15.6c1.2,1.7,2.5,2.7,4.5,2.7s2.6-.8,2.6-2-.6-1.5-2.4-2.3l-2-.9C2.6,11.8,1,10.2,1,7.8S3.6,2.5,7.1,2.5s5,1.4,6.1,3.5l-2.6,2c-1-1.4-2.1-2.1-3.5-2.1s-2.3.6-2.3,1.8.6,1.4,2.2,2.1l2.1.9c3.1,1.4,4.6,2.9,4.6,5.4s-2.8,5.5-6.5,5.5-5.7-1.6-7.1-4.1l2.6-2Z"/>
  <path class="cls-1" d="M19.7,15.7c.4,1.8,1.9,2.7,3.9,2.7s2.7-.5,3.9-1.4l1.6,2.6c-1.7,1.4-3.5,2.1-5.5,2.1-4.3,0-7.7-3.2-7.6-7.3,0-4,3.2-7.3,7.3-7.3,3.8,0,6.5,2.8,6.5,6.4s0,1.4-.3,2.1h-9.7ZM26,13c0-1.7-1.3-2.8-3-2.8s-2.9,1.1-3.3,2.8h6.3Z"/>
  <path class="cls-1" d="M35.7,15.7c.4,1.8,1.9,2.7,3.9,2.7s2.7-.5,3.9-1.4l1.6,2.6c-1.7,1.4-3.5,2.1-5.5,2.1-4.3,0-7.7-3.2-7.6-7.3,0-4,3.2-7.3,7.3-7.3,3.8,0,6.5,2.8,6.5,6.4s0,1.4-.3,2.1h-9.7ZM42,13c0-1.7-1.3-2.8-3-2.8s-2.9,1.1-3.3,2.8h6.3Z"/>
  <path class="cls-1" d="M69.2,21.3h-3.8v-8.1c0-1.6-1-2.7-2.6-2.7s-2.6,1.1-2.6,2.7v8.1h-3.8V.3h3.8v8.3c.9-.9,2.3-1.5,3.8-1.5,3.1,0,5.2,2.2,5.2,5.6v8.6Z"/>
  <path class="cls-1" d="M79.4,7.2c4.1,0,7.5,3.3,7.5,7.2,0,4-3.4,7.3-7.5,7.3-4.1,0-7.5-3.3-7.4-7.3,0-4,3.4-7.3,7.4-7.2ZM79.4,10.6c-2.1,0-3.6,1.6-3.6,3.8s1.5,3.8,3.6,3.8,3.6-1.6,3.6-3.8-1.5-3.8-3.6-3.8Z"/>
  <path class="cls-1" d="M111.1,7.5l-6.4,14.2h-1.2l-4-8.1-4,8.1h-1.2l-6.4-14.2h4l3.3,7.9,3.8-8.2h1.3l3.8,8,3.2-7.7h4Z"/>
  <path class="cls-1" d="M127.8,7.2c4.1,0,7.5,3.3,7.5,7.2,0,4-3.4,7.3-7.5,7.3-4.1,0-7.5-3.3-7.4-7.3,0-4,3.4-7.3,7.4-7.2ZM127.8,10.6c-2.1,0-3.6,1.6-3.6,3.8s1.5,3.8,3.6,3.8,3.6-1.6,3.6-3.8-1.5-3.8-3.6-3.8Z"/>
  <path class="cls-1" d="M138,7.5h3.8v8.1c0,1.6,1.1,2.7,2.6,2.7s2.6-1.1,2.6-2.7V7.5h3.8v7.8c0,3.9-2.7,6.4-6.4,6.4s-6.4-2.6-6.4-6.4v-7.8Z"/>
  <path class="cls-1" d="M162.9,10.8h-1c-2.3,0-3.7,1.2-3.7,3.6v6.9h-3.8V7.5h3.5v1.7c.9-1.1,2.3-1.8,3.8-1.8s.9,0,1.2.2v3.3Z"/>
  <path class="cls-1" d="M177.6,7.5h3.1v3.2h-3.1v10.7h-3.8v-10.7h-2v-3.2h2v-2.3c0-3.5,2-5.2,5.4-5.2s1.4.1,2.1.3v3.2c-.4,0-.8,0-1.1,0-1.7,0-2.5.6-2.5,2.2v1.9ZM185,0c1.3,0,2.4,1,2.4,2.4s-1.1,2.3-2.4,2.3-2.4-1-2.4-2.3,1.1-2.4,2.4-2.4ZM183.1,7.5h3.8v13.9h-3.8V7.5Z"/>
  <path class="cls-1" d="M203.4,21.3h-3.8v-8.1c0-1.6-1-2.7-2.6-2.7s-2.6,1.1-2.6,2.7v8.1h-3.8V7.5h3.5v1.3c1-1,2.4-1.6,4.1-1.6,3.2,0,5.2,2.2,5.2,5.6v8.6Z"/>
  <path class="cls-1" d="M218.7,21.3h-3.5v-1.3c-1,1-2.5,1.7-4.2,1.7-2.9,0-4.8-1.7-4.8-4.1s2-4,5.2-4h3.5v-.6c0-1.5-.9-2.4-2.6-2.4s-2.4.6-3.7,1.9l-2-2.3c1.6-1.9,3.6-2.9,6.1-2.9,3.6,0,5.9,2.1,5.9,5.9v8.2ZM214.9,16h-3c-1.2,0-1.9.5-1.9,1.4s.8,1.5,2,1.5,2.9-1.1,2.9-2.7v-.2Z"/>
  <path class="cls-1" d="M235.1,21.3h-3.8v-8.1c0-1.6-1-2.7-2.6-2.7s-2.6,1.1-2.6,2.7v8.1h-3.8V7.5h3.5v1.3c1-1,2.4-1.6,4.1-1.6,3.2,0,5.2,2.2,5.2,5.6v8.6Z"/>
  <path class="cls-1" d="M245.4,7.2c2.7,0,4.8,1.3,6,3.4l-2.6,2c-.9-1.3-1.9-2-3.3-2-2.1,0-3.6,1.6-3.6,3.8s1.5,3.8,3.6,3.8,2.4-.7,3.3-2l2.6,2c-1.2,2.1-3.3,3.4-6,3.4-4.1,0-7.5-3.3-7.4-7.3,0-4.1,3.3-7.2,7.4-7.2Z"/>
  <path class="cls-1" d="M256.1,0c1.3,0,2.4,1,2.4,2.4s-1.1,2.3-2.4,2.3-2.4-1-2.4-2.3,1.1-2.4,2.4-2.4ZM254.2,7.5h3.8v13.9h-3.8V7.5Z"/>
  <path class="cls-1" d="M273.3,21.3h-3.5v-1.3c-1,1-2.5,1.7-4.2,1.7-2.9,0-4.8-1.7-4.8-4.1s2-4,5.2-4h3.5v-.6c0-1.5-.9-2.4-2.6-2.4s-2.4.6-3.7,1.9l-2-2.3c1.6-1.9,3.6-2.9,6.1-2.9,3.6,0,5.9,2.1,5.9,5.9v8.2ZM269.6,16h-3c-1.2,0-1.9.5-1.9,1.4s.8,1.5,2,1.5,2.9-1.1,2.9-2.7v-.2Z"/>
  <path class="cls-1" d="M277,.3h3.8v21h-3.8V.3Z"/>
</svg>