<svg id="Layer_1" data-name="Layer 1" xmlns="http://www.w3.org/2000/svg" viewBox="0 0 104.62 78.27"><defs><style>.cls-1{fill:#76236c;}.cls-2{fill:none;stroke:#fff;stroke-linecap:round;stroke-linejoin:round;stroke-width:1.95px;}.cls-3{fill:#fff;}.cls-4{fill:#77256c;}</style></defs><path class="cls-1" d="M52.31,78.27C23.42,78.27,0,61.12,0,40S23.42,1.65,52.31,1.65,104.62,18.81,104.62,40,81.2,78.27,52.31,78.27"/><path class="cls-2" d="M88.22,36.73,83.14,41.8,64.35,23l5.07-5.07m-17.7,9.85h8.36a5.08,5.08,0,0,0,3.56-1.46l2.07-2m0,0L78.3,36.88"/><path class="cls-3" d="M84.62,33.14a1.48,1.48,0,1,1-1.48-1.47,1.47,1.47,0,0,1,1.48,1.47"/><path class="cls-2" d="M71.25,45.52l7.8-7.81m-59.93-1,5.07,5.07L43,23l-5.07-5.07m2.93,14.37a6,6,0,0,0,0,8.44m.29,8.11-2.37,2.37a3,3,0,0,1-4.18.13,3,3,0,0,1-.07-4.27L45.67,35.94A4.61,4.61,0,0,1,49,34.59l5.46,0,2.47,2.47a5.94,5.94,0,0,0,6.73,1.17A1.49,1.49,0,0,0,64,35.84l-6.67-6.68a4.68,4.68,0,0,0-3.31-1.37H47.27a5.06,5.06,0,0,1-3.55-1.46l-1.84-1.74m-.18-.29L28.13,37.86m8,7.66-7.81-7.81m38,19.64a3,3,0,0,0,4.19-4.19L65.37,48a3,3,0,0,0-4.2,4.2Zm-5.06,3.33a3,3,0,0,0,4.19-4.19L62,53.08a3,3,0,1,0-4.2,4.2Zm7.41-9.37a3,3,0,1,0,4.19-4.19l-3.4-3.41a3,3,0,1,0-4.2,4.2ZM56.19,64a3,3,0,0,0,4.19-4.19l-1.67-1.68a3,3,0,0,0-4.2,4.2ZM47.76,50.63l-6.7,6.7a3,3,0,0,1-4.19-4.2l6.7-6.7M52,54.82l-5.84,5.83a3,3,0,0,1-4.19-4.19l3.4-3.4m8.52,8.26L51.18,64A3,3,0,0,1,47,59.79l1.67-1.67"/><path class="cls-3" d="M22.72,33.14a1.47,1.47,0,1,0,1.47-1.47,1.47,1.47,0,0,0-1.47,1.47"/><path class="cls-2" d="M71.25,37.08a6,6,0,0,1,0,8.44"/><path class="cls-4" d="M37.32,6.82c-2.17-5.93-9.79-8.48-17-5.69S8.93,11,11.09,16.92s9.79,8.47,17,5.68,11.36-9.85,9.2-15.78"/></svg>