<?xml version="1.0" encoding="utf-8"?>
<!-- Generator: Adobe Illustrator 21.0.0, SVG Export Plug-In . SVG Version: 6.00 Build 0)  -->
<svg version="1.1" xmlns="http://www.w3.org/2000/svg" xmlns:xlink="http://www.w3.org/1999/xlink" x="0px" y="0px"
	 viewBox="0 0 113.9 27.1" style="enable-background:new 0 0 113.9 27.1;" xml:space="preserve">
<g id="Layer_1">
</g>
<g id="Layer_2">
	<g>
		<path style="fill:#FFFFFF;" d="M1.2,18.6l6.3-14c0.3-0.7,0.9-1.2,1.8-1.2h0.1c0.8,0,1.4,0.5,1.8,1.2l6.3,14
			c0.1,0.2,0.2,0.4,0.2,0.6c0,0.8-0.6,1.4-1.4,1.4c-0.7,0-1.2-0.4-1.4-1l-1.4-3.2H5.2l-1.4,3.3c-0.2,0.6-0.7,0.9-1.4,0.9
			C1.6,20.6,1,20,1,19.2C1,19,1.1,18.8,1.2,18.6z M12.2,13.8L9.3,7l-3,6.8H12.2z"/>
		<path style="fill:#FFFFFF;" d="M20.8,5.1c0-0.8,0.7-1.5,1.5-1.5h6c2.1,0,3.8,0.6,4.9,1.7c0.9,0.9,1.4,2.2,1.4,3.6v0
			c0,2.7-1.6,4.3-3.8,5l3.2,4.1c0.3,0.4,0.5,0.7,0.5,1.1c0,0.8-0.7,1.4-1.4,1.4c-0.7,0-1.1-0.3-1.4-0.8l-4.1-5.2h-3.7v4.5
			c0,0.8-0.7,1.5-1.5,1.5c-0.8,0-1.5-0.7-1.5-1.5V5.1z M28.1,12c2.1,0,3.5-1.1,3.5-2.8v0c0-1.8-1.3-2.8-3.5-2.8h-4.3V12H28.1z"/>
		<path style="fill:#FFFFFF;" d="M38.2,19V5.1c0-0.8,0.7-1.5,1.5-1.5h9.8c0.7,0,1.3,0.6,1.3,1.3c0,0.7-0.6,1.3-1.3,1.3h-8.3v4.4h7.3
			c0.7,0,1.3,0.6,1.3,1.3c0,0.7-0.6,1.3-1.3,1.3h-7.3v4.5h8.5c0.7,0,1.3,0.6,1.3,1.3c0,0.7-0.6,1.3-1.3,1.3h-9.9
			C38.9,20.5,38.2,19.8,38.2,19z"/>
		<path style="fill:#FFFFFF;" d="M66.4,13.9l-5.8-8c-0.2-0.3-0.3-0.6-0.3-1c0-0.8,0.7-1.4,1.5-1.4c0.7,0,1.1,0.4,1.4,0.9l4.7,6.8
			l4.8-6.8C73,3.8,73.4,3.5,74,3.5c0.9,0,1.4,0.7,1.4,1.4c0,0.4-0.2,0.8-0.4,1.1l-5.8,7.9v5.3c0,0.8-0.7,1.5-1.5,1.5
			c-0.8,0-1.5-0.7-1.5-1.5V13.9z"/>
		<path style="fill:#FFFFFF;" d="M76.6,12.1L76.6,12.1c0-4.8,3.7-8.8,8.8-8.8s8.8,3.9,8.8,8.7v0c0,4.8-3.7,8.7-8.8,8.7
			C80.2,20.8,76.6,16.8,76.6,12.1z M91.1,12.1L91.1,12.1c0-3.3-2.4-6.1-5.7-6.1c-3.4,0-5.7,2.7-5.7,6v0c0,3.3,2.4,6,5.7,6
			C88.8,18,91.1,15.4,91.1,12.1z"/>
		<path style="fill:#FFFFFF;" d="M97.6,13.3V5c0-0.8,0.7-1.5,1.5-1.5c0.8,0,1.5,0.7,1.5,1.5v8.2c0,3.1,1.6,4.8,4.3,4.8
			c2.6,0,4.2-1.6,4.2-4.7V5c0-0.8,0.7-1.5,1.5-1.5c0.8,0,1.5,0.7,1.5,1.5v8.2c0,5-2.8,7.6-7.3,7.6C100.4,20.8,97.6,18.2,97.6,13.3z"
			/>
	</g>
</g>
<g id="Layer_3">
</g>
<g id="Layer_4">
</g>
</svg>
