<?xml version="1.0" encoding="utf-8"?>
<!-- Generator: Adobe Illustrator 19.1.0, SVG Export Plug-In . SVG Version: 6.00 Build 0)  -->
<svg version="1.1" id="Layer_2" xmlns="http://www.w3.org/2000/svg" xmlns:xlink="http://www.w3.org/1999/xlink" x="0px" y="0px"
	 viewBox="0 0 121.823 77.805" enable-background="new 0 0 121.823 77.805" xml:space="preserve">
<g>
	<path fill="#FFFFFF" d="M16.057,6.334h-4.081c-0.768,0-1.368-0.624-1.368-1.368s0.601-1.368,1.368-1.368h11.161
		c0.744,0,1.345,0.624,1.345,1.368s-0.601,1.368-1.345,1.368h-4.104v12.722c0,0.815-0.672,1.464-1.487,1.464
		c-0.816,0-1.488-0.648-1.488-1.464V6.334z"/>
	<path fill="#FFFFFF" d="M25.824,12.047v-0.048c0-4.729,3.648-8.689,8.809-8.689s8.761,3.913,8.761,8.641v0.049
		c0,4.729-3.648,8.688-8.809,8.688S25.824,16.775,25.824,12.047z M40.297,12.047v-0.048c0-3.265-2.376-5.977-5.712-5.977
		S28.92,8.687,28.92,11.95v0.049c0,3.264,2.377,5.952,5.713,5.952S40.297,15.311,40.297,12.047z"/>
	<path fill="#FFFFFF" d="M54.168,5.086c0-0.84,0.647-1.488,1.488-1.488h4.776c5.28,0,8.929,3.625,8.929,8.353v0.049
		c0,4.729-3.648,8.4-8.929,8.4h-4.776c-0.841,0-1.488-0.648-1.488-1.488V5.086z M60.433,17.711c3.528,0,5.832-2.376,5.832-5.664
		v-0.048c0-3.289-2.304-5.713-5.832-5.713H57.12v11.425H60.433z"/>
	<path fill="#FFFFFF" d="M73.104,4.942c0-0.816,0.648-1.465,1.488-1.465c0.816,0,1.464,0.648,1.464,1.465v14.113
		c0,0.815-0.647,1.464-1.464,1.464c-0.84,0-1.488-0.648-1.488-1.464V4.942z"/>
	<path fill="#FFFFFF" d="M85.415,19.439l-5.88-13.825c-0.097-0.216-0.168-0.433-0.168-0.696c0-0.792,0.647-1.44,1.488-1.44
		c0.768,0,1.271,0.433,1.512,1.057l4.849,12.121l4.92-12.217c0.192-0.505,0.721-0.961,1.416-0.961c0.816,0,1.465,0.624,1.465,1.417
		c0,0.216-0.072,0.456-0.145,0.624l-5.904,13.921c-0.312,0.744-0.864,1.2-1.704,1.2h-0.168
		C86.279,20.64,85.728,20.184,85.415,19.439z"/>
	<path fill="#FFFFFF" d="M98.135,18.911V5.086c0-0.84,0.648-1.488,1.488-1.488h9.769c0.721,0,1.32,0.601,1.32,1.32
		c0,0.744-0.6,1.32-1.32,1.32h-8.305v4.368h7.225c0.72,0,1.32,0.601,1.32,1.344c0,0.721-0.601,1.297-1.32,1.297h-7.225v4.512h8.425
		c0.72,0,1.32,0.601,1.32,1.32c0,0.744-0.601,1.32-1.32,1.32h-9.889C98.783,20.399,98.135,19.751,98.135,18.911z"/>
	<path fill="#FFFFFF" d="M36.396,30.489c0-0.84,0.648-1.488,1.488-1.488h9.793c0.744,0,1.344,0.601,1.344,1.345
		s-0.6,1.344-1.344,1.344h-8.329v4.584h7.249c0.744,0,1.344,0.601,1.344,1.345s-0.6,1.344-1.344,1.344h-7.249v5.497
		c0,0.815-0.647,1.464-1.464,1.464c-0.84,0-1.488-0.648-1.488-1.464V30.489z"/>
	<path fill="#FFFFFF" d="M51.252,37.45v-0.048c0-4.729,3.648-8.689,8.809-8.689c5.161,0,8.761,3.913,8.761,8.642v0.048
		c0,4.729-3.648,8.688-8.809,8.688S51.252,42.179,51.252,37.45z M65.726,37.45v-0.048c0-3.265-2.377-5.977-5.713-5.977
		s-5.665,2.664-5.665,5.929v0.048c0,3.264,2.377,5.952,5.713,5.952C63.397,43.354,65.726,40.714,65.726,37.45z"/>
	<path fill="#FFFFFF" d="M72.396,30.489c0-0.84,0.648-1.488,1.488-1.488h6c2.112,0,3.769,0.624,4.849,1.681
		c0.889,0.912,1.393,2.16,1.393,3.624v0.048c0,2.688-1.561,4.32-3.816,5.017l3.216,4.057c0.288,0.359,0.48,0.672,0.48,1.128
		c0,0.816-0.696,1.368-1.416,1.368c-0.672,0-1.104-0.312-1.44-0.769l-4.08-5.208h-3.721v4.513c0,0.815-0.647,1.464-1.464,1.464
		c-0.84,0-1.488-0.648-1.488-1.464V30.489z M79.668,37.33c2.112,0,3.456-1.104,3.456-2.809v-0.048c0-1.8-1.296-2.784-3.479-2.784
		h-4.297v5.641H79.668z"/>
	<path fill="#FFFFFF" d="M2.16,55.892c0-0.84,0.647-1.488,1.488-1.488h5.136c3.937,0,6.385,2.232,6.385,5.617v0.048
		c0,3.769-3.024,5.736-6.721,5.736H5.112v4.057c0,0.815-0.648,1.464-1.464,1.464c-0.841,0-1.488-0.648-1.488-1.464V55.892z
		 M8.545,63.141c2.231,0,3.624-1.248,3.624-3.001v-0.048c0-1.968-1.416-3-3.624-3H5.112v6.049H8.545z"/>
	<path fill="#FFFFFF" d="M18.192,69.717V55.892c0-0.84,0.647-1.488,1.488-1.488h9.769c0.72,0,1.32,0.601,1.32,1.32
		c0,0.744-0.601,1.32-1.32,1.32h-8.305v4.368h7.225c0.72,0,1.32,0.601,1.32,1.345c0,0.72-0.601,1.296-1.32,1.296h-7.225v4.512h8.425
		c0.72,0,1.32,0.601,1.32,1.32c0,0.744-0.601,1.32-1.32,1.32h-9.889C18.84,71.205,18.192,70.557,18.192,69.717z"/>
	<path fill="#FFFFFF" d="M34.271,55.796c0-0.816,0.648-1.488,1.488-1.488h0.312c0.72,0,1.128,0.36,1.536,0.864l8.4,10.873V55.724
		c0-0.792,0.648-1.44,1.44-1.44c0.815,0,1.464,0.648,1.464,1.44v14.113c0,0.816-0.624,1.464-1.44,1.464h-0.12
		c-0.695,0-1.128-0.359-1.536-0.888l-8.641-11.185v10.656c0,0.792-0.647,1.44-1.439,1.44c-0.816,0-1.465-0.648-1.465-1.44V55.796z"
		/>
	<path fill="#FFFFFF" d="M53.231,55.796c0-0.816,0.648-1.488,1.488-1.488h0.312c0.72,0,1.128,0.36,1.536,0.864l8.4,10.873V55.724
		c0-0.792,0.648-1.44,1.44-1.44c0.816,0,1.464,0.648,1.464,1.44v14.113c0,0.816-0.624,1.464-1.439,1.464h-0.12
		c-0.696,0-1.129-0.359-1.536-0.888l-8.642-11.185v10.656c0,0.792-0.647,1.44-1.439,1.44c-0.816,0-1.465-0.648-1.465-1.44V55.796z"
		/>
	<path fill="#FFFFFF" d="M72.359,55.748c0-0.816,0.648-1.465,1.488-1.465c0.816,0,1.464,0.648,1.464,1.465v14.113
		c0,0.815-0.647,1.464-1.464,1.464c-0.84,0-1.488-0.648-1.488-1.464V55.748z"/>
	<path fill="#FFFFFF" d="M79.8,69.717V55.892c0-0.84,0.648-1.488,1.488-1.488h9.769c0.721,0,1.32,0.601,1.32,1.32
		c0,0.744-0.6,1.32-1.32,1.32h-8.305v4.368h7.225c0.721,0,1.32,0.601,1.32,1.345c0,0.72-0.6,1.296-1.32,1.296h-7.225v4.512h8.425
		c0.72,0,1.32,0.601,1.32,1.32c0,0.744-0.601,1.32-1.32,1.32h-9.889C80.448,71.205,79.8,70.557,79.8,69.717z"/>
	<path fill="#FFFFFF" d="M95.447,69.333c-0.336-0.24-0.576-0.648-0.576-1.128c0-0.769,0.624-1.368,1.392-1.368
		c0.408,0,0.672,0.12,0.864,0.264c1.393,1.104,2.88,1.729,4.704,1.729s2.977-0.864,2.977-2.112v-0.048
		c0-1.2-0.672-1.849-3.792-2.568c-3.576-0.864-5.593-1.92-5.593-5.017v-0.048c0-2.88,2.4-4.872,5.736-4.872
		c2.112,0,3.816,0.552,5.329,1.56c0.336,0.192,0.647,0.601,0.647,1.176c0,0.769-0.624,1.368-1.392,1.368
		c-0.288,0-0.528-0.071-0.769-0.216c-1.296-0.84-2.544-1.271-3.864-1.271c-1.729,0-2.736,0.888-2.736,1.992v0.048
		c0,1.296,0.769,1.872,4.009,2.64c3.552,0.864,5.376,2.137,5.376,4.921v0.048c0,3.145-2.472,5.017-6,5.017
		C99.479,71.445,97.319,70.725,95.447,69.333z"/>
	<path fill="#FFFFFF" d="M114.721,66.021c-0.553,0-0.96-0.408-1.032-0.96l-0.24-2.064c-0.096-0.647,0.288-1.128,0.937-1.2
		c2.256-0.216,3.504-1.08,3.504-2.592v-0.048c0-1.345-1.032-2.28-2.761-2.28c-1.271,0-2.304,0.456-3.264,1.32
		c-0.24,0.191-0.552,0.336-0.889,0.336c-0.743,0-1.344-0.601-1.344-1.32c0-0.36,0.145-0.744,0.48-1.032
		c1.271-1.2,2.88-1.992,5.088-1.992c3.36,0,5.641,1.872,5.641,4.872v0.049c0,3.023-2.185,4.392-4.849,4.848l-0.096,1.104
		c-0.096,0.528-0.48,0.96-1.032,0.96H114.721z M114.721,67.772c0.983,0,1.704,0.721,1.704,1.656v0.24
		c0,0.937-0.721,1.656-1.704,1.656c-0.984,0-1.704-0.72-1.704-1.656v-0.24C113.017,68.493,113.736,67.772,114.721,67.772z"/>
</g>
</svg>
