<?xml version="1.0" encoding="UTF-8"?>
<svg id="Layer_1" data-name="Layer 1" xmlns="http://www.w3.org/2000/svg" xmlns:xlink="http://www.w3.org/1999/xlink" version="1.1" viewBox="0 0 206.4 46.5">
  <defs>
    <style>
      .cls-1 {
        clip-path: url(#clippath);
      }

      .cls-2 {
        fill: none;
      }

      .cls-2, .cls-3, .cls-4 {
        stroke-width: 0px;
      }

      .cls-3 {
        fill: #002d72;
      }

      .cls-4 {
        fill: #ffbf3f;
      }
    </style>
    <clipPath id="clippath">
      <rect class="cls-2" width="206.4" height="46.5"/>
    </clipPath>
  </defs>
  <g class="cls-1">
    <path class="cls-4" d="M7.2,0C3.2,0,0,3.2,0,7v32.4c0,3.9,3.2,7,7.2,7h192.2c3.9,0,7.2-3.2,7.2-7V7c-.1-3.9-3.3-7-7.2-7H7.2Z"/>
  </g>
  <g>
    <path class="cls-3" d="M31.9,14.6h3.1v16.1h8.6v2.7h-11.6s0-18.8,0-18.8Z"/>
    <path class="cls-3" d="M48.5,27.4c.4,2.2,2.1,3.6,4.6,3.6s2.8-.6,4.1-1.6l1.4,2c-1.6,1.5-3.4,2.2-5.6,2.2-4.2,0-7.5-3.2-7.5-7.3s3.3-7.4,7.3-7.3c3.8,0,6.5,2.8,6.5,6.5s0,1.2-.2,1.9c0,0-10.5,0-10.5,0ZM56.1,25c0-2.1-1.6-3.4-3.6-3.4s-3.5,1.3-4,3.4h7.6Z"/>
    <path class="cls-3" d="M73.6,33.3h-2.8v-1.5c-1.1,1.2-2.6,1.9-4.5,1.9-2.9,0-4.9-1.6-4.9-4s2-4,5.2-4h4v-.9c0-2-1.1-2.9-2.9-2.9s-2.7.7-3.9,2.1l-1.8-1.8c1.4-2,3.5-2.9,5.9-2.9,3.4,0,5.8,2.1,5.8,5.9v8.5-.2ZM70.7,27.8h-3.6c-1.6,0-2.5.6-2.5,1.8s.9,1.9,2.5,1.9,3.6-1.4,3.6-3.3v-.2h0Z"/>
    <path class="cls-3" d="M85.8,22h-.9c-2.3,0-4.1,1.4-4.1,3.9v7.5h-2.9v-14h2.8v1.9c.9-1.3,2.5-2,4.1-2s.8,0,1.2.1v2.7h-.1Z"/>
    <path class="cls-3" d="M100.7,33.3h-2.9v-8.3c0-1.9-1.2-3.3-3.1-3.3s-3.2,1.3-3.2,3.3v8.3h-2.9v-14h2.8v1.4c1.1-1.1,2.5-1.6,4.2-1.6,3.3,0,5.3,2.2,5.3,5.5v8.8h-.2Z"/>
    <path class="cls-3" d="M131,14.2v19.1h-3.1v-11.9l-5.4,7h-1.1l-5.4-7v11.9h-3.1V14.2h1.1l7.9,10.6,7.9-10.6h1.2Z"/>
    <path class="cls-3" d="M141.8,19c4.1,0,7.5,3.3,7.4,7.3,0,4-3.4,7.4-7.4,7.3-4,0-7.5-3.4-7.4-7.3,0-4,3.4-7.4,7.4-7.3ZM142,21.7c-2.5,0-4.3,2-4.3,4.6s1.9,4.6,4.3,4.6,4.3-2,4.3-4.6-1.9-4.6-4.3-4.6Z"/>
    <path class="cls-3" d="M160.7,22h-.9c-2.3,0-4.1,1.4-4.1,3.9v7.5h-2.9v-14h2.8v1.9c.9-1.3,2.5-2,4.1-2s.8,0,1.2.1v2.7h-.1Z"/>
    <path class="cls-3" d="M165.3,27.4c.4,2.2,2.1,3.6,4.6,3.6s2.8-.6,4.1-1.6l1.4,2c-1.6,1.5-3.4,2.2-5.6,2.2-4.2,0-7.5-3.2-7.5-7.3s3.3-7.4,7.3-7.3c3.8,0,6.5,2.8,6.5,6.5s0,1.2-.2,1.9c0,0-10.5,0-10.5,0ZM173,25c0-2.1-1.6-3.4-3.6-3.4s-3.5,1.3-4,3.4h7.6Z"/>
  </g>
</svg>