<?xml version="1.0" encoding="UTF-8"?>
<svg id="Layer_1" data-name="Layer 1" xmlns="http://www.w3.org/2000/svg" version="1.1" viewBox="0 0 100.8 27">
  <defs>
    <style>
      .cls-1 {
        fill: #fff;
        stroke-width: 0px;
      }
    </style>
  </defs>
  <path class="cls-1" d="M12.5,2.1c4.1,0,7.6,1.8,9.8,4.9l-2.1,1.7c-1.9-2.5-4.4-4-7.6-4-5.5-.1-9.7,4.3-9.5,9.8-.1,5.5,4.2,10,9.7,9.9,3.5,0,6.4-1.7,8-4.3v-3.2h-8.2v-2.5h11v6.4c-1.1,1.9-2.6,3.4-4.6,4.6-1.9,1.1-4.1,1.7-6.4,1.7C5.6,27.1-.1,21.4,0,14.5-.1,7.6,5.6,2,12.5,2.1Z"/>
  <path class="cls-1" d="M41.8,26.6h-2.6v-2.3c-1.3,1.7-3.4,2.7-6,2.7s-6.2-1.9-6.2-5,2.5-5,6.4-5h5.6v-1.5c0-2.9-1.6-4.5-4.3-4.5s-3.7.9-5.2,2.8l-1.9-1.5c1.6-2.6,4.3-3.9,7.2-3.9,4.2,0,6.9,2.5,6.9,7.2v10.9ZM39,19.3h-5.3c-2.5,0-3.8.9-3.8,2.5s1.6,2.8,3.7,2.8,5.4-2.1,5.4-4.9v-.4Z"/>
  <path class="cls-1" d="M49.2,0c1.1,0,2.1.9,2.1,2s-.9,2-2.1,2-2.1-.9-2.1-2,.9-2,2.1-2ZM47.8,8.8h2.8v17.7h-2.8V8.8Z"/>
  <path class="cls-1" d="M71.4,26.6h-2.8v-10.8c0-2.8-1.7-4.7-4.4-4.7s-4.7,2-4.7,4.7v10.8h-2.8V8.8h2.6v1.9c1.3-1.5,3.2-2.3,5.5-2.3,4.1,0,6.6,2.8,6.6,7v11.1Z"/>
  <path class="cls-1" d="M100.8,26.6h-2.6v-2.3c-1.3,1.7-3.4,2.7-6,2.7s-6.2-1.9-6.2-5,2.5-5,6.4-5h5.6v-1.5c0-2.9-1.6-4.5-4.3-4.5s-3.7.9-5.2,2.8l-1.9-1.5c1.6-2.6,4.3-3.9,7.2-3.9,4.2,0,6.9,2.5,6.9,7.2v10.9ZM98,19.3h-5.3c-2.5,0-3.8.9-3.8,2.5s1.6,2.8,3.7,2.8,5.4-2.1,5.4-4.9v-.4Z"/>
</svg>