<?xml version="1.0" encoding="UTF-8"?>
<svg id="Layer_1" data-name="Layer 1" xmlns="http://www.w3.org/2000/svg" version="1.1" viewBox="0 0 156.3 72.1">
  <defs>
    <style>
      .cls-1 {
        fill: #fff;
        stroke-width: 0px;
      }
    </style>
  </defs>
  <path class="cls-1" d="M8.2,10h4.4v2.5h-4.4v15.2h-2.8v-15.2h-2.5v-2.5h2.5v-4.2C5.4,1.9,7.7,0,11.3,0s1.5.1,2.2.3v2.4c-.6,0-1.1-.1-1.6-.1-2.4,0-3.7.9-3.7,3.4v4ZM18,1.2c1.1,0,2.1.9,2.1,2s-.9,2-2.1,2-2.1-.9-2.1-2,.9-2,2.1-2ZM16.6,10h2.8v17.7h-2.8V10Z"/>
  <path class="cls-1" d="M40.2,27.7h-2.8v-10.8c0-2.8-1.7-4.7-4.4-4.7s-4.7,2-4.7,4.7v10.8h-2.8V10h2.6v1.9c1.3-1.5,3.2-2.3,5.5-2.3,4.1,0,6.6,2.8,6.6,7v11.1Z"/>
  <path class="cls-1" d="M59.5,27.7h-2.6v-2.3c-1.3,1.7-3.4,2.7-6,2.7s-6.2-1.9-6.2-5,2.5-5,6.4-5h5.6v-1.5c0-2.9-1.6-4.5-4.3-4.5s-3.7.9-5.2,2.8l-1.9-1.5c1.6-2.6,4.3-3.9,7.2-3.9,4.2,0,6.9,2.5,6.9,7.2v10.9ZM56.7,20.5h-5.3c-2.5,0-3.8.9-3.8,2.5s1.6,2.8,3.7,2.8,5.4-2.1,5.4-4.9v-.4Z"/>
  <path class="cls-1" d="M80.1,27.7h-2.8v-10.8c0-2.8-1.7-4.7-4.4-4.7s-4.7,2-4.7,4.7v10.8h-2.8V10h2.6v1.9c1.3-1.5,3.2-2.3,5.5-2.3,4.1,0,6.6,2.8,6.6,7v11.1Z"/>
  <path class="cls-1" d="M94,9.6c3.1,0,5.7,1.5,7.3,3.9l-2,1.6c-1.4-1.9-3.2-2.9-5.3-2.9-3.7,0-6.4,3-6.4,6.7s2.8,6.7,6.4,6.7,3.8-.9,5.2-2.8l2,1.6c-1.6,2.4-4.2,3.9-7.3,3.9-5.1,0-9.3-4.2-9.3-9.3-.1-5.1,4.2-9.3,9.3-9.3Z"/>
  <path class="cls-1" d="M107.5,1.2c1.1,0,2.1.9,2.1,2s-.9,2-2.1,2-2.1-.9-2.1-2,.9-2,2.1-2ZM106.1,10h2.8v17.7h-2.8V10Z"/>
  <path class="cls-1" d="M129.7,27.7h-2.8v-10.8c0-2.8-1.7-4.7-4.4-4.7s-4.7,2-4.7,4.7v10.8h-2.8V10h2.6v1.9c1.3-1.5,3.2-2.3,5.5-2.3,4.1,0,6.6,2.8,6.6,7v11.1Z"/>
  <path class="cls-1" d="M152.7,10v16c0,5.4-3.4,8.7-8.6,8.7s-6.3-1.4-8.3-3.4l1.6-2c2,1.7,4,2.8,6.6,2.8s5.9-2.1,5.9-5.9v-1.6c-1.4,1.9-3.9,3-6.6,3-5,0-8.7-3.8-8.7-9s3.7-9,8.7-9,5.4,1.2,6.7,3.2v-2.8h2.7ZM143.7,12.2c-3.6,0-6.3,2.7-6.3,6.4s2.7,6.3,6.3,6.3,6.2-2.1,6.2-6.4-3-6.3-6.2-6.3Z"/>
  <path class="cls-1" d="M1.8,66.8c1.7,1.7,3.1,2.7,5.1,2.7s3.4-.9,3.4-2.5-.9-2-3.1-2.8l-1.7-.7c-3-1.2-4.4-2.5-4.4-4.9s2.6-5,6-5,4.5,1.1,5.9,2.8l-1.7,1.7c-1.2-1.2-2.7-2-4.4-2s-3,.8-3,2.2.7,1.7,2.9,2.6l1.6.7c3.3,1.4,4.7,2.8,4.7,5.2s-.6,3-1.8,3.9c-1.2.9-2.7,1.3-4.4,1.3-3,0-5.4-1.4-6.9-3.5l1.8-1.9Z"/>
  <path class="cls-1" d="M26.2,53.6c5.1,0,9.4,4.2,9.3,9.3.1,5-4.3,9.4-9.3,9.3-5.1.1-9.3-4.3-9.3-9.3-.1-5.1,4.2-9.4,9.3-9.3ZM26.2,56.2c-3.6,0-6.4,2.9-6.4,6.7s2.8,6.6,6.4,6.6,6.4-2.9,6.4-6.6-2.8-6.7-6.4-6.7Z"/>
  <path class="cls-1" d="M40.4,44.4h2.8v27.3h-2.8v-27.3Z"/>
  <path class="cls-1" d="M49.2,54h2.8v10.9c0,2.9,2,4.7,4.6,4.7s4.5-1.9,4.5-4.7v-10.9h2.8v10.7c0,4.5-3.2,7.5-7.3,7.5s-7.4-3-7.4-7.5v-10.7Z"/>
  <path class="cls-1" d="M79.5,71.7c-1.1.3-2.1.4-3,.4-3.7,0-6-1.9-6-5.8v-9.9h-3v-2.5h3v-4.8h2.8v4.8h5.5v2.5h-5.5v9.7c0,2.5,1.3,3.4,3.8,3.4s1.5,0,2.4-.2v2.4Z"/>
  <path class="cls-1" d="M85.1,45.2c1.1,0,2.1.9,2.1,2s-.9,2-2.1,2-2.1-.9-2.1-2,.9-2,2.1-2ZM83.7,54h2.8v17.7h-2.8v-17.7Z"/>
  <path class="cls-1" d="M100.6,53.6c5.1,0,9.4,4.2,9.3,9.3.1,5-4.3,9.4-9.3,9.3-5.1.1-9.3-4.3-9.3-9.3-.1-5.1,4.2-9.4,9.3-9.3ZM100.6,56.2c-3.6,0-6.4,2.9-6.4,6.7s2.8,6.6,6.4,6.6,6.4-2.9,6.4-6.6-2.8-6.7-6.4-6.7Z"/>
  <path class="cls-1" d="M129.5,71.7h-2.8v-10.8c0-2.8-1.7-4.7-4.4-4.7s-4.7,2-4.7,4.7v10.8h-2.8v-17.7h2.6v1.9c1.3-1.5,3.2-2.3,5.5-2.3,4.1,0,6.6,2.8,6.6,7v11.1Z"/>
  <path class="cls-1" d="M135.6,66.8c1.7,1.7,3.1,2.7,5.1,2.7s3.4-.9,3.4-2.5-.9-2-3.1-2.8l-1.7-.7c-3-1.2-4.4-2.5-4.4-4.9s2.6-5,6-5,4.5,1.1,5.9,2.8l-1.7,1.7c-1.2-1.2-2.7-2-4.4-2s-3,.8-3,2.2.7,1.7,2.9,2.6l1.6.7c3.3,1.4,4.7,2.8,4.7,5.2s-.6,3-1.8,3.9c-1.2.9-2.7,1.3-4.4,1.3-3,0-5.4-1.4-6.9-3.5l1.8-1.9Z"/>
  <path class="cls-1" d="M154,67.5c1.3,0,2.3,1,2.3,2.3s-1,2.3-2.3,2.3-2.3-1-2.3-2.3,1-2.3,2.3-2.3Z"/>
</svg>