<?xml version="1.0" encoding="UTF-8"?>
<svg id="Layer_1" data-name="Layer 1" xmlns="http://www.w3.org/2000/svg" version="1.1" viewBox="0 0 138.8 27.7">
  <defs>
    <style>
      .cls-1 {
        fill: #fff;
        stroke-width: 0px;
      }
    </style>
  </defs>
  <path class="cls-1" d="M29.1,9.6l-7.5,18.1h-1l-6-13.4-6,13.4h-1L0,9.6h3l5.1,13.1,5.9-13.5h1.1l6,13.4,5-13h3Z"/>
  <path class="cls-1" d="M34.6.8c1.1,0,2.1.9,2.1,2s-.9,2-2.1,2-2.1-.9-2.1-2,.9-2,2.1-2ZM33.1,9.6h2.8v17.7h-2.8V9.6Z"/>
  <path class="cls-1" d="M51.8,27.3c-1.1.3-2.1.4-3,.4-3.7,0-6-1.9-6-5.8v-9.9h-3v-2.5h3v-4.8h2.8v4.8h5.5v2.5h-5.5v9.7c0,2.5,1.3,3.4,3.8,3.4s1.5,0,2.4-.2v2.4Z"/>
  <path class="cls-1" d="M70.7,27.3h-2.8v-10.8c0-2.9-1.7-4.8-4.4-4.8s-4.7,2-4.7,4.8v10.8h-2.8V0h2.8v11.6c1.2-1.5,3.1-2.4,5.3-2.4,4.1,0,6.6,2.8,6.6,7v11.1Z"/>
  <path class="cls-1" d="M94.8,9.2c5.1,0,9.4,4.2,9.3,9.3.1,5-4.3,9.4-9.3,9.3-5.1.1-9.3-4.3-9.3-9.3-.1-5.1,4.2-9.4,9.3-9.3ZM94.8,11.8c-3.6,0-6.4,2.9-6.4,6.7s2.8,6.6,6.4,6.6,6.4-2.9,6.4-6.6-2.8-6.7-6.4-6.7Z"/>
  <path class="cls-1" d="M108.8,9.6h2.8v10.9c0,2.9,2,4.7,4.6,4.7s4.5-1.9,4.5-4.7v-10.9h2.8v10.7c0,4.5-3.2,7.5-7.3,7.5s-7.4-3-7.4-7.5v-10.7Z"/>
  <path class="cls-1" d="M138.8,12.1h-1.1c-3,0-5.6,1.9-5.6,5.2v10.1h-2.8V9.6h2.6v2.5c1.3-1.7,3.4-2.7,5.5-2.7s.8,0,1.3.1v2.5Z"/>
</svg>