<?xml version="1.0" encoding="UTF-8"?>
<svg id="Layer_1" data-name="Layer 1" xmlns="http://www.w3.org/2000/svg" version="1.1" viewBox="0 0 170.1 36.4">
  <defs>
    <style>
      .cls-1 {
        fill: #ffbf3f;
        stroke-width: 0px;
      }
    </style>
  </defs>
  <path class="cls-1" d="M20.5,35.9h-5v-14c0-3.3-2-5.5-5.1-5.5s-5.4,2.2-5.4,5.5v14H0V0h5v14.7c1.6-1.9,4-2.9,6.8-2.9,5.4,0,8.7,3.8,8.7,9.3v14.7Z"/>
  <path class="cls-1" d="M38.5,11.9c6.8-.1,12.6,5.6,12.5,12.3.1,6.7-5.6,12.4-12.5,12.3-6.8.1-12.5-5.7-12.4-12.3-.1-6.8,5.6-12.4,12.4-12.3ZM38.5,16.5c-4.2,0-7.3,3.4-7.3,7.7s3.2,7.6,7.3,7.6,7.3-3.4,7.3-7.6-3.2-7.7-7.3-7.7Z"/>
  <path class="cls-1" d="M92.1,12.4l-10.4,24h-1.7l-7.4-15.7-7.4,15.7h-1.7l-10.4-24h5.4l6.2,15.4,7.1-15.9h1.7l7.2,15.7,6.1-15.2h5.4Z"/>
  <path class="cls-1" d="M145,12.4l-10.4,24h-1.7l-7.4-15.7-7.4,15.7h-1.7l-10.4-24h5.4l6.2,15.4,7.1-15.9h1.7l7.2,15.7,6.1-15.2h5.4Z"/>
  <path class="cls-1" d="M152.2,25.8c.6,3.8,3.6,6.2,7.7,6.2s4.7-.9,6.8-2.8l2.4,3.4c-2.7,2.5-5.8,3.8-9.4,3.8-7.2,0-12.6-5.3-12.6-12.3-.1-6.8,5.5-12.5,12.2-12.3,6.2,0,10.9,4.6,10.9,10.8s-.1,2.1-.4,3.2h-17.5ZM165.1,21.9c0-3.6-2.7-5.7-6-5.7s-6,2.3-6.8,5.7h12.8Z"/>
</svg>