<?xml version="1.0" encoding="UTF-8"?>
<svg id="Layer_1" data-name="Layer 1" xmlns="http://www.w3.org/2000/svg" version="1.1" viewBox="0 0 198.2 44.5">
  <defs>
    <style>
      .cls-1 {
        fill: #ffbf3f;
        stroke-width: 0px;
      }
    </style>
  </defs>
  <path class="cls-1" d="M12.5,11.9c4.4,0,7.9,2.1,9.9,5.5l-3.5,2.8c-1.7-2.4-3.8-3.6-6.3-3.6-4.2,0-7.4,3.4-7.4,7.6s3.2,7.7,7.4,7.7,4.6-1.2,6.3-3.5l3.5,2.7c-2.1,3.4-5.6,5.5-9.9,5.5C5.5,36.4,0,31,0,24.1c-.1-6.8,5.7-12.4,12.4-12.3Z"/>
  <path class="cls-1" d="M46.6,35.9h-4.7v-2.6c-1.7,2.1-4.3,3.2-7.5,3.2-4.9,0-8.2-2.7-8.2-6.8s3.4-6.7,8.7-6.7h6.7v-1.5c0-3.3-1.8-5-5-5s-4.5,1.1-6.5,3.5l-2.9-3c2.3-3.4,5.8-5,9.9-5,5.8,0,9.6,3.5,9.6,9.8v14.2ZM41.5,26.6h-6c-2.7,0-4.2,1-4.2,2.9s1.7,3.1,4.1,3.1,6.1-2.3,6.1-5.6v-.4Z"/>
  <path class="cls-1" d="M74.1,35.9h-5v-14c0-3.3-2.1-5.5-5.1-5.5s-5.4,2.2-5.4,5.5v14h-5V12.4h4.7v2.3c1.8-1.9,4.1-2.8,7-2.8,5.5,0,8.8,3.7,8.8,9.3v14.7Z"/>
  <path class="cls-1" d="M115.1,35.9h-5v-14c0-3.3-2-5.5-5.1-5.5s-5.4,2.2-5.4,5.5v14h-5V0h5v14.7c1.6-1.9,4-2.9,6.8-2.9,5.4,0,8.7,3.8,8.7,9.3v14.7Z"/>
  <path class="cls-1" d="M125.7,25.8c.6,3.8,3.6,6.2,7.7,6.2s4.7-.9,6.8-2.8l2.4,3.4c-2.7,2.5-5.8,3.8-9.4,3.8-7.2,0-12.6-5.3-12.6-12.3-.1-6.8,5.5-12.5,12.2-12.3,6.2,0,10.9,4.6,10.9,10.8s-.1,2.1-.4,3.2h-17.5ZM138.6,21.9c0-3.6-2.7-5.7-6-5.7s-6,2.3-6.8,5.7h12.8Z"/>
  <path class="cls-1" d="M149.4,0h5v35.9h-5V0Z"/>
  <path class="cls-1" d="M174.6,36.4c-3.2,0-6-1.2-7.9-3.4v11.5h-5V12.4h4.7v3.3c1.7-2.4,4.7-3.8,8.2-3.8,6.7,0,11.5,5.3,11.5,12.3s-4.9,12.3-11.5,12.3ZM173.7,16.5c-3.7,0-7.1,2.5-7.1,7.7s3.4,7.7,7.1,7.7,7.2-3.2,7.2-7.7-3.1-7.7-7.2-7.7Z"/>
  <path class="cls-1" d="M194.5,29c2.1,0,3.7,1.6,3.7,3.7s-1.6,3.7-3.7,3.7-3.8-1.6-3.8-3.7,1.7-3.7,3.8-3.7Z"/>
</svg>