<?xml version="1.0" encoding="UTF-8"?>
<svg id="Layer_1" data-name="Layer 1" xmlns="http://www.w3.org/2000/svg" version="1.1" viewBox="0 0 77.5 32.7">
  <defs>
    <style>
      .cls-1 {
        fill: #ffbf3f;
        stroke-width: 0px;
      }
    </style>
  </defs>
  <path class="cls-1" d="M3.6,23.1c2.1,3.1,4.6,5,8.3,5s5.5-1.7,5.5-4.4-1.3-3.2-4.6-4.7l-3.5-1.6C4.6,15.2,1.8,12.8,1.8,8.6S6.3,0,11.8,0s8.2,2.3,10.2,5.7l-3.5,2.7c-1.7-2.5-4-3.8-6.7-3.8s-4.8,1.3-4.8,3.8c.2,2.5,1.3,2.9,4.4,4.5l3.5,1.6c5.1,2.3,7.6,4.8,7.6,9s-4.5,9.1-10.6,9.1S2.4,30.1,0,25.8l3.6-2.7Z"/>
  <path class="cls-1" d="M32.3,22c.6,3.8,3.6,6.2,7.7,6.2s4.7-.9,6.8-2.8l2.4,3.4c-2.7,2.5-5.8,3.8-9.4,3.8-7.2,0-12.6-5.3-12.6-12.3-.1-6.8,5.5-12.5,12.2-12.3,6.2,0,10.9,4.6,10.9,10.8s-.1,2.1-.4,3.2h-17.5ZM45.2,18.1c0-3.6-2.7-5.7-6-5.7s-6,2.3-6.8,5.7h12.8Z"/>
  <path class="cls-1" d="M59.6,22c.6,3.8,3.6,6.2,7.7,6.2s4.7-.9,6.8-2.8l2.4,3.4c-2.7,2.5-5.8,3.8-9.4,3.8-7.2,0-12.6-5.3-12.6-12.3-.1-6.8,5.5-12.5,12.2-12.3,6.2,0,10.9,4.6,10.9,10.8s-.1,2.1-.4,3.2h-17.5ZM72.5,18.1c0-3.6-2.7-5.7-6-5.7s-6,2.3-6.8,5.7h12.8Z"/>
</svg>