<?xml version="1.0" encoding="UTF-8"?>
<svg id="Layer_1" data-name="Layer 1" xmlns="http://www.w3.org/2000/svg" xmlns:xlink="http://www.w3.org/1999/xlink" version="1.1" viewBox="0 0 175.8 39.6">
  <defs>
    <style>
      .cls-1 {
        clip-path: url(#clippath);
      }

      .cls-2 {
        fill: none;
      }

      .cls-2, .cls-3, .cls-4 {
        stroke-width: 0px;
      }

      .cls-3 {
        fill: #0960b5;
      }

      .cls-4 {
        fill: #fff;
      }
    </style>
    <clipPath id="clippath">
      <rect class="cls-2" width="175.8" height="39.6"/>
    </clipPath>
  </defs>
  <g class="cls-1">
    <path class="cls-3" d="M6.1,0C2.7,0,0,2.7,0,6v27.6C0,36.9,2.7,39.6,6.1,39.6h163.7c3.3,0,6.1-2.7,6.1-6V6C175.8,2.7,173.1,0,169.8,0H6.1Z"/>
  </g>
  <g>
    <path class="cls-4" d="M27,10.9h2.6v13.7h7.3v2.3h-9.9V10.9Z"/>
    <path class="cls-4" d="M41.1,21.8c.3,1.9,1.8,3.1,3.9,3.1s2.4-.5,3.5-1.4l1.2,1.7c-1.4,1.3-2.9,1.9-4.8,1.9-3.6,0-6.4-2.7-6.4-6.2,0-3.4,2.8-6.3,6.2-6.2,3.2,0,5.5,2.4,5.5,5.5s0,1-.2,1.6h-8.9ZM47.7,19.8c0-1.8-1.4-2.9-3.1-2.9s-3,1.1-3.4,2.9h6.5Z"/>
    <path class="cls-4" d="M62.6,26.9h-2.4v-1.3c-.9,1-2.2,1.6-3.8,1.6-2.5,0-4.2-1.4-4.2-3.4s1.7-3.4,4.4-3.4h3.4v-.8c0-1.7-.9-2.5-2.5-2.5s-2.3.6-3.3,1.8l-1.5-1.5c1.2-1.7,3-2.5,5-2.5,2.9,0,4.9,1.8,4.9,5v7.2ZM60,22.2h-3.1c-1.4,0-2.1.5-2.1,1.5s.8,1.6,2.1,1.6,3.1-1.2,3.1-2.8v-.2Z"/>
    <path class="cls-4" d="M73,17.3h-.8c-2,0-3.5,1.2-3.5,3.3v6.4h-2.5v-11.9h2.4v1.6c.8-1.1,2.1-1.7,3.5-1.7s.7,0,1,.1v2.3Z"/>
    <path class="cls-4" d="M85.7,26.9h-2.5v-7.1c0-1.7-1-2.8-2.6-2.8s-2.7,1.1-2.7,2.8v7.1h-2.5v-11.9h2.4v1.2c.9-.9,2.1-1.4,3.6-1.4,2.8,0,4.5,1.9,4.5,4.7v7.5Z"/>
    <path class="cls-4" d="M111.4,10.6v16.3h-2.6v-10.1l-4.6,6h-.9l-4.6-6v10.1h-2.6V10.6h.9l6.7,9,6.7-9h.9Z"/>
    <path class="cls-4" d="M120.7,14.7c3.5,0,6.4,2.8,6.3,6.2,0,3.4-2.9,6.3-6.3,6.2-3.4,0-6.4-2.9-6.3-6.2,0-3.4,2.9-6.3,6.3-6.2ZM120.7,17.1c-2.1,0-3.7,1.7-3.7,3.9s1.6,3.9,3.7,3.9,3.7-1.7,3.7-3.9-1.6-3.9-3.7-3.9Z"/>
    <path class="cls-4" d="M136.8,17.3h-.8c-2,0-3.5,1.2-3.5,3.3v6.4h-2.5v-11.9h2.4v1.6c.8-1.1,2.1-1.7,3.5-1.7s.7,0,1,.1v2.3Z"/>
    <path class="cls-4" d="M140.6,21.8c.3,1.9,1.8,3.1,3.9,3.1s2.4-.5,3.5-1.4l1.2,1.7c-1.4,1.3-2.9,1.9-4.8,1.9-3.6,0-6.4-2.7-6.4-6.2,0-3.4,2.8-6.3,6.2-6.2,3.2,0,5.5,2.4,5.5,5.5s0,1-.2,1.6h-8.9ZM147.2,19.8c0-1.8-1.4-2.9-3.1-2.9s-3,1.1-3.4,2.9h6.5Z"/>
  </g>
</svg>