<?xml version="1.0" encoding="UTF-8"?>
<svg id="Layer_1" data-name="Layer 1" xmlns="http://www.w3.org/2000/svg" version="1.1" viewBox="0 0 372.3 44.7">
  <defs>
    <style>
      .cls-1 {
        fill: #ffbf3f;
        stroke-width: 0px;
      }
    </style>
  </defs>
  <path class="cls-1" d="M3.4,7.1h4.3v27.5H3.4V7.1ZM25.7,34.6h-5.4l-12.5-14.6,11.3-12.9h5.3l-11.2,12.9,12.4,14.6Z"/>
  <path class="cls-1" d="M31.4,25.8c.5,3.3,3.1,5.4,6.5,5.4s4.1-.8,5.9-2.4l2,3c-2.3,2.2-5,3.3-8,3.3-6.1,0-10.8-4.6-10.8-10.7-.1-5.9,4.7-10.8,10.4-10.7,5.3,0,9.3,4,9.3,9.4s-.1,1.8-.3,2.7h-15ZM42.4,22.4c0-3.1-2.3-5-5.2-5s-5.1,2-5.8,5h10.9Z"/>
  <path class="cls-1" d="M54.8,25.8c.5,3.3,3.1,5.4,6.5,5.4s4.1-.8,5.9-2.4l2,3c-2.3,2.2-5,3.3-8,3.3-6.1,0-10.8-4.6-10.8-10.7-.1-5.9,4.7-10.8,10.4-10.7,5.3,0,9.3,4,9.3,9.4s-.1,1.8-.3,2.7h-15ZM65.8,22.4c0-3.1-2.3-5-5.2-5s-5.1,2-5.8,5h10.9Z"/>
  <path class="cls-1" d="M86,35c-2.7,0-5.1-1.1-6.7-3v10h-4.3V14.1h4v2.9c1.5-2.1,4.1-3.3,7-3.3,5.7,0,9.9,4.6,9.9,10.7s-4.2,10.7-9.9,10.7ZM85.3,17.7c-3.2,0-6.1,2.2-6.1,6.7s2.9,6.7,6.1,6.7,6.1-2.7,6.1-6.7-2.7-6.7-6.1-6.7Z"/>
  <path class="cls-1" d="M130.8,14.1l-9.8,22.8c-1.7,3.9-3.9,5.6-7.4,5.6s-2.2-.1-3.3-.4v-3.7c1.3.1,2,.2,2.4.2,2,0,3.4-.7,4.4-3l.8-1.9-8-19.5h4.6l5.8,14.9,5.9-14.9h4.6Z"/>
  <path class="cls-1" d="M143.2,13.7c5.9-.1,10.8,4.9,10.7,10.7.1,5.8-4.8,10.8-10.7,10.7-5.8.1-10.7-4.9-10.6-10.7-.1-5.9,4.8-10.7,10.6-10.7ZM143.3,17.7c-3.6,0-6.3,2.9-6.3,6.7s2.7,6.6,6.2,6.6,6.3-2.9,6.3-6.6-2.7-6.7-6.2-6.7Z"/>
  <path class="cls-1" d="M158.6,14.1h4.3v12.2c0,2.8,1.9,4.7,4.5,4.7s4.4-1.8,4.4-4.7v-12.2h4.3v11.9c0,5.5-3.8,9-8.7,9s-8.8-3.5-8.8-9v-11.9Z"/>
  <path class="cls-1" d="M193.6,18h-1.3c-3.4,0-5.9,2-5.9,5.7v10.9h-4.3V14.1h4v2.7c1.4-1.8,3.6-2.9,5.9-2.9s1.1,0,1.6.2v3.9Z"/>
  <path class="cls-1" d="M220,35c-2.7,0-5.1-1.1-6.7-3v10h-4.3V14.1h4v2.9c1.5-2.1,4.1-3.3,7-3.3,5.7,0,9.9,4.6,9.9,10.7s-4.2,10.7-9.9,10.7ZM219.3,17.7c-3.2,0-6.1,2.2-6.1,6.7s2.9,6.7,6.1,6.7,6.1-2.7,6.1-6.7-2.7-6.7-6.1-6.7Z"/>
  <path class="cls-1" d="M244.1,13.7c5.9-.1,10.8,4.9,10.7,10.7.1,5.8-4.8,10.8-10.7,10.7-5.8.1-10.7-4.9-10.6-10.7-.1-5.9,4.8-10.7,10.6-10.7ZM244.1,17.7c-3.6,0-6.3,2.9-6.3,6.7s2.7,6.6,6.2,6.6,6.3-2.9,6.3-6.6-2.7-6.7-6.2-6.7Z"/>
  <path class="cls-1" d="M271.2,18h-1.3c-3.4,0-5.9,2-5.9,5.7v10.9h-4.3V14.1h4v2.7c1.4-1.8,3.6-2.9,5.9-2.9s1.1,0,1.6.2v3.9Z"/>
  <path class="cls-1" d="M287,34.6c-1.3.3-2.5.5-3.6.5-4.6,0-7.4-2.3-7.4-7.1v-10h-3.3v-3.8h3.3v-5.4h4.3v5.4h6v3.8h-6v9.6c0,2.6,1.4,3.5,4,3.5s1.5,0,2.7-.2v3.7Z"/>
  <path class="cls-1" d="M296.4,14.1h4.7v3.8h-4.7v16.7h-4.3v-16.7h-2.9v-3.8h2.9v-4.1c0-4.8,2.7-7.1,7.2-7.1s2,.1,2.8.4v3.7c-.7,0-1.2-.1-1.7-.1-2.6,0-3.9.9-3.9,3.5v3.7Z"/>
  <path class="cls-1" d="M313.8,13.7c5.9-.1,10.8,4.9,10.7,10.7.1,5.8-4.8,10.8-10.7,10.7-5.8.1-10.7-4.9-10.6-10.7-.1-5.9,4.8-10.7,10.6-10.7ZM313.9,17.7c-3.6,0-6.3,2.9-6.3,6.7s2.7,6.6,6.2,6.6,6.3-2.9,6.3-6.6-2.7-6.7-6.2-6.7Z"/>
  <path class="cls-1" d="M329.4,3.3h4.3v31.2h-4.3V3.3Z"/>
  <path class="cls-1" d="M342.1,3.6c1.6,0,2.9,1.3,2.9,2.9s-1.3,2.9-2.9,2.9-2.9-1.2-2.9-2.9,1.3-2.9,2.9-2.9ZM340,14.1h4.3v20.4h-4.3V14.1Z"/>
  <path class="cls-1" d="M359.8,13.7c5.9-.1,10.8,4.9,10.7,10.7.1,5.8-4.8,10.8-10.7,10.7-5.8.1-10.7-4.9-10.6-10.7-.1-5.9,4.8-10.7,10.6-10.7ZM359.8,17.7c-3.6,0-6.3,2.9-6.3,6.7s2.7,6.6,6.2,6.6,6.3-2.9,6.3-6.6-2.7-6.7-6.2-6.7Z"/>
</svg>