<?xml version="1.0" encoding="UTF-8"?>
<svg xmlns="http://www.w3.org/2000/svg" version="1.1" viewBox="0 0 178 44.1">
  <defs>
    <style>
      .cls-1 {
        fill: #ffbf3f;
      }

      .cls-2 {
        fill: #002d72;
      }
    </style>
  </defs>
  <!-- Generator: Adobe Illustrator 28.7.1, SVG Export Plug-In . SVG Version: 1.2.0 Build 142)  -->
  <g>
    <g id="Layer_1">
      <rect class="cls-1" width="178" height="44.1" rx="5.2" ry="5.2"/>
      <g>
        <path class="cls-2" d="M22.7,13.4h2.8v14.8h7.9v2.5h-10.7V13.4Z"/>
        <path class="cls-2" d="M37.9,25.2c.3,2.1,2,3.4,4.2,3.4s2.6-.5,3.8-1.5l1.3,1.9c-1.5,1.4-3.2,2.1-5.1,2.1-3.9,0-6.9-2.9-6.9-6.7,0-3.7,3-6.8,6.7-6.7,3.4,0,6,2.5,6,5.9s0,1.1-.2,1.7h-9.6ZM45,23c0-2-1.5-3.2-3.3-3.2s-3.3,1.2-3.7,3.2h7Z"/>
        <path class="cls-2" d="M61.1,30.7h-2.6v-1.4c-.9,1.1-2.4,1.7-4.1,1.7-2.7,0-4.5-1.5-4.5-3.7s1.8-3.7,4.8-3.7h3.7v-.8c0-1.8-1-2.8-2.8-2.8s-2.5.6-3.6,1.9l-1.6-1.6c1.3-1.9,3.2-2.8,5.4-2.8,3.2,0,5.3,1.9,5.3,5.4v7.8ZM58.4,25.6h-3.3c-1.5,0-2.3.5-2.3,1.6s.9,1.7,2.3,1.7,3.3-1.3,3.3-3v-.2Z"/>
        <path class="cls-2" d="M72.3,20.3h-.8c-2.2,0-3.8,1.3-3.8,3.6v6.9h-2.8v-12.9h2.6v1.7c.9-1.2,2.3-1.8,3.8-1.8s.7,0,1.1.1v2.4Z"/>
        <path class="cls-2" d="M86.1,30.7h-2.8v-7.7c0-1.8-1.1-3-2.8-3s-2.9,1.2-2.9,3v7.7h-2.8v-12.9h2.6v1.3c1-1,2.3-1.5,3.9-1.5,3,0,4.8,2,4.8,5.1v8.1Z"/>
        <path class="cls-2" d="M113.9,13.1v17.6h-2.8v-10.9l-5,6.5h-.9l-5-6.5v10.9h-2.8V13.1h1l7.3,9.7,7.3-9.7h.9Z"/>
        <path class="cls-2" d="M124,17.5c3.8,0,6.9,3.1,6.9,6.7,0,3.7-3.1,6.8-6.9,6.7-3.7,0-6.9-3.1-6.8-6.7,0-3.7,3.1-6.8,6.8-6.7ZM124,20c-2.3,0-4,1.8-4,4.2s1.7,4.2,4,4.2,4-1.8,4-4.2-1.8-4.2-4-4.2Z"/>
        <path class="cls-2" d="M141.3,20.3h-.8c-2.2,0-3.8,1.3-3.8,3.6v6.9h-2.8v-12.9h2.6v1.7c.9-1.2,2.3-1.8,3.8-1.8s.7,0,1,.1v2.4Z"/>
        <path class="cls-2" d="M145.5,25.2c.3,2.1,2,3.4,4.2,3.4s2.6-.5,3.8-1.5l1.3,1.9c-1.5,1.4-3.2,2.1-5.1,2.1-3.9,0-6.9-2.9-6.9-6.7,0-3.7,3-6.8,6.7-6.7,3.4,0,6,2.5,6,5.9s0,1.1-.2,1.7h-9.6ZM152.6,23c0-2-1.5-3.2-3.3-3.2s-3.3,1.2-3.7,3.2h7Z"/>
      </g>
    </g>
  </g>
</svg>