<?xml version="1.0" encoding="UTF-8"?>
<svg xmlns="http://www.w3.org/2000/svg" version="1.1" viewBox="0 0 278.8 1965.2">
  <defs>
    <style>
      .cls-1 {
        fill: none;
      }

      .cls-2 {
        fill: #fdbb3a;
      }

      .cls-3 {
        fill: #fdbc3e;
      }
    </style>
  </defs>
  <!-- Generator: Adobe Illustrator 28.7.1, SVG Export Plug-In . SVG Version: 1.2.0 Build 142)  -->
  <g>
    <g id="Layer_1">
      <g>
        <path class="cls-1" d="M165.3,289.4v5.2c0,1.7,1.4,3.1,3.1,3.1h7.3v-5.2c0-1.7-1.4-3.1-3.1-3.1h-7.3Z"/>
        <path class="cls-1" d="M224.5,262.9h-18v7c0,3.8-3.1,6.9-6.9,6.9h-34.2v8.7h7.3c3.8,0,6.9,3.1,6.9,6.9v5.2h45v-34.8Z"/>
        <path class="cls-1" d="M179.5,316.1c0,1.7,1.4,3.1,3.1,3.1h38.7c1.7,0,3.1-1.4,3.1-3.1v-14.6h-45v14.6Z"/>
        <path class="cls-1" d="M165.3,273.1h34.2c1.7,0,3.1-1.4,3.1-3.1v-7h-17.9c-3.8,0-6.9-3.1-6.9-6.9v-22.8h-12.6v39.9Z"/>
        <path class="cls-1" d="M202.7,259.2v-22.8c0-1.7-1.4-3.1-3.1-3.1h-17.9v22.8c0,1.7,1.4,3.1,3.1,3.1h17.9Z"/>
        <path class="cls-1" d="M177.9,220.1h-9.5c-1.7,0-3.1,1.4-3.1,3.1v6.2h12.6v-9.3Z"/>
        <path class="cls-1" d="M145.2,142.7v-22.4h-18.6c-1.7,0-3.1,1.4-3.1,3.1v22.4h18.6c1.7,0,3.1-1.4,3.1-3.1Z"/>
        <path class="cls-1" d="M224.5,223.3c0-1.7-1.4-3.1-3.1-3.1h-39.7v9.3h17.9c3.8,0,6.9,3.1,6.9,6.9v22.8h18v-35.9Z"/>
        <path class="cls-1" d="M87.3,172.1v7.4h29.3c1.7,0,3.1-1.4,3.1-3.1v-7.4h-29.3c-1.7,0-3.1,1.4-3.1,3.1Z"/>
        <path class="cls-1" d="M119.7,165.2v-15.6h-59.2c-3.8,0-6.9-3.1-6.9-6.9v-29.2h-9.9c-1.7,0-3.1,1.4-3.1,3.1v59.8c0,1.7,1.4,3.1,3.1,3.1h39.9v-7.4c0-3.8,3.1-6.9,6.9-6.9h29.3Z"/>
        <path class="cls-1" d="M142.1,169h-18.6v7.4c0,3.8-3.1,6.9-6.9,6.9h-29.3v8.7c0,1.7,1.4,3.1,3.1,3.1h54.7v-23c0-1.7-1.4-3.1-3.1-3.1Z"/>
        <path class="cls-1" d="M149,195.1h28.9v-24.9c0-3.8,3.1-6.9,6.9-6.9h11.6c3.8,0,6.9,3.1,6.9,6.9v21.7c0,3.8-3.1,6.9-6.9,6.9h-14.7v17.4h39.7c3.8,0,6.9,3.1,6.9,6.9v35.9h13c1.7,0,3.1-1.4,3.1-3.1v-56.4c0-1.7-1.4-3.1-3.1-3.1h-15.5c-3.8,0-6.9-3.1-6.9-6.9v-36.1h-45.5c-3.8,0-6.9-3.1-6.9-6.9v-26.1h-17.5v22.4c0,3.8-3.1,6.9-6.9,6.9h-18.6v15.6h18.6c3.8,0,6.9,3.1,6.9,6.9v23Z"/>
        <path class="cls-1" d="M140.6,299.3h-6.8c0,3.8-3.1,6.9-6.9,6.9h-15.2v11.2c0,3.8-3.1,6.9-6.9,6.9h-33.6c-1.7,0-3.1,1.4-3.1,3.1v3.7c0,1.7,1.4,3.1,3.1,3.1h72.6v-31.7c0-1.7-1.4-3.1-3.1-3.1Z"/>
        <path class="cls-1" d="M228.3,301.5v14.6c0,3.8-3.1,6.9-6.9,6.9h-38.7c-3.8,0-6.9-3.1-6.9-6.9v-14.6h-7.3c-3.8,0-6.9-3.1-6.9-6.9v-5.2h-27.8v6.1h6.8c3.8,0,6.9,3.1,6.9,6.9v31.7h107.7c.8,0,1.6-.3,2.2-.9.6-.6.9-1.6.9-2.2l-.3-29.5h-29.8Z"/>
        <path class="cls-1" d="M271.9,179.6h-8c-.9,0-1.6.3-2.2.9-.6.6-.9,1.4-.9,2.2h0s1.1,115,1.1,115h10c1.7,0,3.1-1.4,3.1-3.1v-111.8c0-1.7-1.4-3.1-3.1-3.1Z"/>
        <path class="cls-1" d="M199.6,192v-21.7c0-1.7-1.4-3.1-3.1-3.1h-11.6c-1.7,0-3.1,1.4-3.1,3.1v24.9h14.7c1.7,0,3.1-1.4,3.1-3.1Z"/>
        <path class="cls-1" d="M111.7,302.4h15.2c1.7,0,3.1-1.4,3.1-3.1h-15.2c-1.7,0-3.1,1.4-3.1,3.1Z"/>
        <rect class="cls-1" x="133.8" y="276.9" width="27.8" height="8.7"/>
        <path class="cls-1" d="M114.8,295.6h15.2v-6.1H61.8c-1.7,0-3.1,1.4-3.1,3.1v6.7c0,1.7,1.4,3.1,3.1,3.1h46.1c0-3.8,3.1-6.9,6.9-6.9Z"/>
        <path class="cls-1" d="M161.5,223.3c0-3.8,3.1-6.9,6.9-6.9h9.5v-17.4h-28.9v27.4c0,1.7,1.4,3.1,3.1,3.1h9.4v-6.2Z"/>
        <path class="cls-1" d="M130,263.8c0-1.7-1.4-3.1-3.1-3.1h-17v9.3c0,1.7,1.4,3.1,3.1,3.1h17v-9.3Z"/>
        <path class="cls-1" d="M240.7,146.5v-38.6c0-1.7-1.4-3.1-3.1-3.1h-11.8c-1.7,0-3.1,1.4-3.1,3.1v41.7h14.9c1.7,0,3.1-1.4,3.1-3.1Z"/>
        <path class="cls-1" d="M185.2,113.4v-22.4c0-1.7-1.4-3.1-3.1-3.1h-8.6c-1.7,0-3.1,1.4-3.1,3.1v25.5h11.8c1.7,0,3.1-1.4,3.1-3.1Z"/>
        <path class="cls-1" d="M3.8,263.8v19.2c0,1.7,1.4,3.1,3.1,3.1h12.4c1.7,0,3.1-1.4,3.1-3.1v-22.4H6.9c-1.7,0-3.1,1.4-3.1,3.1Z"/>
        <path class="cls-1" d="M86.7,217.6v-7.4c0-1.7-1.4-3.1-3.1-3.1h-19.2c-1.7,0-3.1,1.4-3.1,3.1v10.5h22.4c1.7,0,3.1-1.4,3.1-3.1Z"/>
        <path class="cls-1" d="M67.4,357.1v5.1c0,1.7,1.4,3.1,3.1,3.1h70.1c1.7,0,3.1-1.4,3.1-3.1v-8.3h-73.2c-1.7,0-3.1,1.4-3.1,3.1Z"/>
        <path class="cls-1" d="M57.4,238.8v-14.3h-31.1v32.4h79.8v-11.2h-41.7c-3.8,0-6.9-3.1-6.9-6.9Z"/>
        <path class="cls-1" d="M19.3,152.1H6.9c-1.7,0-3.1,1.4-3.1,3.1v62.3c0,1.7,1.4,3.1,3.1,3.1h15.5v-65.4c0-1.7-1.4-3.1-3.1-3.1Z"/>
        <path class="cls-1" d="M119.1,90.3v-8.6c0-1.7-1.4-3.1-3.1-3.1h-18c-1.7,0-3.1,1.4-3.1,3.1v11.8h21.1c1.7,0,3.1-1.4,3.1-3.1Z"/>
        <path class="cls-1" d="M91.1,106.6v-9.3h-30.5c-1.7,0-3.1,1.4-3.1,3.1v9.3h30.5c1.7,0,3.1-1.4,3.1-3.1Z"/>
        <path class="cls-1" d="M126.6,238.8v-16.1c0-1.7-1.4-3.1-3.1-3.1h-10.5c-1.7,0-3.1,1.4-3.1,3.1v19.3h13.7c1.7,0,3.1-1.4,3.1-3.1Z"/>
        <path class="cls-2" d="M147,718.8c0-29.4.1-204,.2-237.4h-3.5v237.4h0"/>
        <path class="cls-2" d="M271.9,175.9h-8c-1.9,0-3.6.7-4.9,2.1-1.3,1.3-2,3.3-2,4.9l1.1,114.9h-29.8v-34.8h13c3.8,0,6.9-3.1,6.9-6.9v-56.4c0-3.8-3.1-6.9-6.9-6.9h-15.5c-1.7,0-3.1-1.4-3.1-3.1v-36.1h14.9c3.8,0,6.9-3.1,6.9-6.9v-38.6c0-3.8-3.1-6.9-6.9-6.9h-11.8c-3.8,0-6.9,3.1-6.9,6.9v41.7h-45.5c-1.7,0-3.1-1.4-3.1-3.1v-26.1h11.8c3.8,0,6.9-3.1,6.9-6.9v-22.4c0-3.8-3.1-6.9-6.9-6.9h-8.6c-3.8,0-6.9,3.1-6.9,6.9v25.5h-17.5V23.2h4.9c2.7,0,5-2.2,5-5V5c0-2.7-2.2-5-5-5h-13.3c-2.7,0-5,2.2-5,5v13.3c0,2.7,2.2,5,5,5h4.7v93.3h-18.6c-3.8,0-6.9,3.1-6.9,6.9v22.4h-59.2c-1.7,0-3.1-1.4-3.1-3.1v-29.2h30.5c3.8,0,6.9-3.1,6.9-6.9v-9.3h21.1c3.8,0,6.9-3.1,6.9-6.9v-8.6c0-3.8-3.1-6.9-6.9-6.9h-18c-3.8,0-6.9,3.1-6.9,6.9v11.8h-30.5c-3.8,0-6.9,3.1-6.9,6.9v9.3h-9.9c-3.8,0-6.9,3.1-6.9,6.9v59.8c0,3.8,3.1,6.9,6.9,6.9h39.9v8.7c0,3.8,3.1,6.9,6.9,6.9h54.7v27.4c0,3.8,3.1,6.9,6.9,6.9h9.4v39.9h-27.8v-9.3c0-3.8-3.1-6.9-6.9-6.9h-17v-11.2h13.7c3.8,0,6.9-3.1,6.9-6.9v-16.1c0-3.8-3.1-6.9-6.9-6.9h-10.5c-3.8,0-6.9,3.1-6.9,6.9v19.3h-41.7c-1.7,0-3.1-1.4-3.1-3.1v-14.3h22.4c3.8,0,6.9-3.1,6.9-6.9v-7.4c0-3.8-3.1-6.9-6.9-6.9h-19.2c-3.8,0-6.9,3.1-6.9,6.9v10.5h-31.1v-65.4c0-3.8-3.1-6.9-6.9-6.9H6.9c-3.8,0-6.9,3.1-6.9,6.9v62.3c0,3.8,3.1,6.9,6.9,6.9h15.5v32.4H6.9c-3.8,0-6.9,3.1-6.9,6.9v19.2c0,3.8,3.1,6.9,6.9,6.9h12.4c3.8,0,6.9-3.1,6.9-6.9v-22.4h79.8v9.3c0,3.8,3.1,6.9,6.9,6.9h17v8.7H61.8c-3.8,0-6.9,3.1-6.9,6.9v6.7c0,3.8,3.1,6.9,6.9,6.9h46.1v11.2c0,1.7-1.4,3.1-3.1,3.1h-33.6c-3.8,0-6.9,3.1-6.9,6.9v3.7c0,3.8,3.1,6.9,6.9,6.9h72.6v12.2h-73.2c-3.8,0-6.9,3.1-6.9,6.9v5.1c0,3.8,3.1,6.9,6.9,6.9h70.1c3.8,0,6.9-3.1,6.9-6.9v-8.3h42.7c1.7,0,3.1,1.4,3.1,3.1v5.1c0,1.7-1.4,3.1-3.1,3.1h-39.5c-3.8,0-6.9,3.1-6.9,6.9v108.5h3.5c0,.2,0,.3,0,.5h0v-55.9h.1v-4.6h0c0-27.5,0-48.5,0-48.5,0-1.7,1.4-3.1,3.1-3.1h39.5c3.8,0,6.9-3.1,6.9-6.9v-5.1c0-3.8-3.1-6.9-6.9-6.9h-42.7v-12.2h107.7c1.9,0,3.6-.7,4.9-2.1,1.3-1.3,2-3.1,2-4.9l-.3-29.5h10c3.8,0,6.9-3.1,6.9-6.9v-111.8c0-3.8-3.1-6.9-6.9-6.9ZM222.7,107.9c0-1.7,1.4-3.1,3.1-3.1h11.8c1.7,0,3.1,1.4,3.1,3.1v38.6c0,1.7-1.4,3.1-3.1,3.1h-14.9v-41.7ZM170.3,91.1c0-1.7,1.4-3.1,3.1-3.1h8.6c1.7,0,3.1,1.4,3.1,3.1v22.4c0,1.7-1.4,3.1-3.1,3.1h-11.8v-25.5ZM94.8,81.7c0-1.7,1.4-3.1,3.1-3.1h18c1.7,0,3.1,1.4,3.1,3.1v8.6c0,1.7-1.4,3.1-3.1,3.1h-21.1v-11.8ZM57.4,100.4c0-1.7,1.4-3.1,3.1-3.1h30.5v9.3c0,1.7-1.4,3.1-3.1,3.1h-30.5v-9.3ZM109.8,222.6c0-1.7,1.4-3.1,3.1-3.1h10.5c1.7,0,3.1,1.4,3.1,3.1v16.1c0,1.7-1.4,3.1-3.1,3.1h-13.7v-19.3ZM61.2,210.2c0-1.7,1.4-3.1,3.1-3.1h19.2c1.7,0,3.1,1.4,3.1,3.1v7.4c0,1.7-1.4,3.1-3.1,3.1h-22.4v-10.5ZM22.5,283.1c0,1.7-1.4,3.1-3.1,3.1H6.9c-1.7,0-3.1-1.4-3.1-3.1v-19.2c0-1.7,1.4-3.1,3.1-3.1h15.5v22.4ZM22.5,220.7H6.9c-1.7,0-3.1-1.4-3.1-3.1v-62.3c0-1.7,1.4-3.1,3.1-3.1h12.4c1.7,0,3.1,1.4,3.1,3.1v65.4ZM106,256.9H26.2v-32.4h31.1v14.3c0,3.8,3.1,6.9,6.9,6.9h41.7v11.2ZM143.7,362.3c0,1.7-1.4,3.1-3.1,3.1h-70.1c-1.7,0-3.1-1.4-3.1-3.1v-5.1c0-1.7,1.4-3.1,3.1-3.1h73.2v8.3ZM123.5,123.5c0-1.7,1.4-3.1,3.1-3.1h18.6v22.4c0,1.7-1.4,3.1-3.1,3.1h-18.6v-22.4ZM83.6,172.1v7.4h-39.9c-1.7,0-3.1-1.4-3.1-3.1v-59.8c0-1.7,1.4-3.1,3.1-3.1h9.9v29.2c0,3.8,3.1,6.9,6.9,6.9h59.2v15.6h-29.3c-3.8,0-6.9,3.1-6.9,6.9ZM119.7,169v7.4c0,1.7-1.4,3.1-3.1,3.1h-29.3v-7.4c0-1.7,1.4-3.1,3.1-3.1h29.3ZM145.2,195.1h-54.7c-1.7,0-3.1-1.4-3.1-3.1v-8.7h29.3c3.8,0,6.9-3.1,6.9-6.9v-7.4h18.6c1.7,0,3.1,1.4,3.1,3.1v23ZM142.1,165.2h-18.6v-15.6h18.6c3.8,0,6.9-3.1,6.9-6.9v-22.4h17.5v26.1c0,3.8,3.1,6.9,6.9,6.9h45.5v36.1c0,3.8,3.1,6.9,6.9,6.9h15.5c1.7,0,3.1,1.4,3.1,3.1v56.4c0,1.7-1.4,3.1-3.1,3.1h-13v-35.9c0-3.8-3.1-6.9-6.9-6.9h-39.7v-17.4h14.7c3.8,0,6.9-3.1,6.9-6.9v-21.7c0-3.8-3.1-6.9-6.9-6.9h-11.6c-3.8,0-6.9,3.1-6.9,6.9v24.9h-28.9v-23c0-3.8-3.1-6.9-6.9-6.9ZM179.5,297.8v-5.2c0-3.8-3.1-6.9-6.9-6.9h-7.3v-8.7h34.2c3.8,0,6.9-3.1,6.9-6.9v-7h18v34.8h-45ZM224.5,301.5v14.6c0,1.7-1.4,3.1-3.1,3.1h-38.7c-1.7,0-3.1-1.4-3.1-3.1v-14.6h45ZM175.7,292.6v5.2h-7.3c-1.7,0-3.1-1.4-3.1-3.1v-5.2h7.3c1.7,0,3.1,1.4,3.1,3.1ZM177.9,233.2v22.8c0,3.8,3.1,6.9,6.9,6.9h17.9v7c0,1.7-1.4,3.1-3.1,3.1h-34.2v-39.9h12.6ZM165.3,229.4v-6.2c0-1.7,1.4-3.1,3.1-3.1h9.5v9.3h-12.6ZM181.7,256v-22.8h17.9c1.7,0,3.1,1.4,3.1,3.1v22.8h-17.9c-1.7,0-3.1-1.4-3.1-3.1ZM206.5,259.2v-22.8c0-3.8-3.1-6.9-6.9-6.9h-17.9v-9.3h39.7c1.7,0,3.1,1.4,3.1,3.1v35.9h-18ZM181.7,195.1v-24.9c0-1.7,1.4-3.1,3.1-3.1h11.6c1.7,0,3.1,1.4,3.1,3.1v21.7c0,1.7-1.4,3.1-3.1,3.1h-14.7ZM152.2,229.4c-1.7,0-3.1-1.4-3.1-3.1v-27.4h28.9v17.4h-9.5c-3.8,0-6.9,3.1-6.9,6.9v6.2h-9.4ZM133.8,276.9h27.8v8.7h-27.8v-8.7ZM112.9,273.1c-1.7,0-3.1-1.4-3.1-3.1v-9.3h17c1.7,0,3.1,1.4,3.1,3.1v9.3h-17ZM61.8,302.4c-1.7,0-3.1-1.4-3.1-3.1v-6.7c0-1.7,1.4-3.1,3.1-3.1h68.2v6.1h-15.2c-3.8,0-6.9,3.1-6.9,6.9h-46.1ZM130,299.3c0,1.7-1.4,3.1-3.1,3.1h-15.2c0-1.7,1.4-3.1,3.1-3.1h15.2ZM143.7,334.2h-72.6c-1.7,0-3.1-1.4-3.1-3.1v-3.7c0-1.7,1.4-3.1,3.1-3.1h33.6c3.8,0,6.9-3.1,6.9-6.9v-11.2h15.2c3.8,0,6.9-3.1,6.9-6.9h6.8c1.7,0,3.1,1.4,3.1,3.1v31.7ZM257.5,333.3c-.6.6-1.4.9-2.2.9h-107.7v-31.7c0-3.8-3.1-6.9-6.9-6.9h-6.8v-6.1h27.8v5.2c0,3.8,3.1,6.9,6.9,6.9h7.3v14.6c0,3.8,3.1,6.9,6.9,6.9h38.7c3.8,0,6.9-3.1,6.9-6.9v-14.6h29.8l.3,29.5c0,.6-.3,1.6-.9,2.2ZM275,294.6c0,1.7-1.4,3.1-3.1,3.1h-10l-1.1-114.9h0c0-.9.3-1.6.9-2.2.6-.6,1.4-.9,2.2-.9h8c1.7,0,3.1,1.4,3.1,3.1v111.8Z"/>
        <path class="cls-2" d="M143.7,480.9v.5h3.5c0-.2,0-.3,0-.5h-3.5Z"/>
      </g>
      <g>
        <path class="cls-1" d="M216.7,1216.4c0-1.8-1.5-3.3-3.3-3.3h-43.8c-1.8,0-3.3,1.5-3.3,3.3v42.2c0,1.8,1.5,3.3,3.3,3.3h47.1v-45.4Z"/>
        <path class="cls-1" d="M257.5,1305.7v-37.1c0-1.8-1.5-3.3-3.3-3.3h-34.1v18.5c0,3.7-3,6.8-6.8,6.8h-55.7v18.3h96.6c1.8,0,3.3-1.5,3.3-3.3Z"/>
        <path class="cls-1" d="M107.2,1181.8c0-1.8-1.5-3.3-3.3-3.3h-30.4c-1.8,0-3.3,1.5-3.3,3.3v38.4c0,1.8,1.5,3.3,3.3,3.3h33.7v-41.6Z"/>
        <path class="cls-1" d="M110.8,1283.8c0,1.8,1.5,3.3,3.3,3.3h40.1v-29.1c0-1.8-1.5-3.3-3.3-3.3h-40.1v29.1Z"/>
        <path class="cls-1" d="M107.2,1283.8v-29.1H36.8c-1.8,0-3.3,1.5-3.3,3.3v47.7c0,1.8,1.5,3.3,3.3,3.3h117.4v-18.3h-40.1c-3.7,0-6.8-3-6.8-6.8Z"/>
        <path class="cls-1" d="M139.6,1338.5h-38.4c-1.8,0-3.3,1.5-3.3,3.3v20c0,1.8,1.5,3.3,3.3,3.3h41.7v-23.3c0-1.8-1.5-3.3-3.3-3.3Z"/>
        <path class="cls-2" d="M142.5,952.1v137.3h0v130.8c0,1.8-1.5,3.3-3.3,3.3h-28.4v-41.6c0-3.7-3-6.8-6.8-6.8h-30.4c-3.7,0-6.8,3-6.8,6.8v38.4c0,3.7,3,6.8,6.8,6.8h33.7v24.2H36.8c-3.7,0-6.8,3-6.8,6.8v47.7c0,3.7,3,6.8,6.8,6.8h117.4v19.2c0,3.7,3,6.8,6.8,6.8h59.8c1.8,0,3.3,1.5,3.3,3.3v20c0,1.8-1.5,3.3-3.3,3.3h-74.4v-23.3c0-3.7-3-6.8-6.8-6.8h-38.4c-3.7,0-6.8,3-6.8,6.8v20c0,3.7,3,6.8,6.8,6.8h41.7v149.8h0v90c0,1.8,3.5,1.4,3.5,1.4h0v-91.4h0v-149.8h74.4c3.7,0,6.8-3,6.8-6.8v-20c0-3.7-3-6.8-6.8-6.8h-59.8c-1.8,0-3.3-1.5-3.3-3.3v-19.2h96.6c3.7,0,6.8-3,6.8-6.8v-37.1c0-3.7-3-6.8-6.8-6.8h-34.1v-45.4c0-3.7-3-6.8-6.8-6.8h-43.8c-3.7,0-6.8,3-6.8,6.8v42.2c0,3.7,3,6.8,6.8,6.8h47.1v18.5c0,1.8-1.5,3.3-3.3,3.3h-55.7v-29.1c0-3.7-3-6.8-6.8-6.8h-40.1v-24.2h28.4c3.7,0,6.8-3,6.8-6.8v-130.8h-.2v-137.3M142.8,1365.1h-41.7c-1.8,0-3.3-1.5-3.3-3.3v-20c0-1.8,1.5-3.3,3.3-3.3h38.4c1.8,0,3.3,1.5,3.3,3.3v23.3ZM169.6,1261.8c-1.8,0-3.3-1.5-3.3-3.3v-42.2c0-1.8,1.5-3.3,3.3-3.3h43.8c1.8,0,3.3,1.5,3.3,3.3v45.4h-47.1ZM157.7,1290.6h55.7c3.7,0,6.8-3,6.8-6.8v-18.5h34.1c1.8,0,3.3,1.5,3.3,3.3v37.1c0,1.8-1.5,3.3-3.3,3.3h-96.6v-18.3ZM73.5,1223.5c-1.8,0-3.3-1.5-3.3-3.3v-38.4c0-1.8,1.5-3.3,3.3-3.3h30.4c1.8,0,3.3,1.5,3.3,3.3v41.6h-33.7ZM154.2,1309H36.8c-1.8,0-3.3-1.5-3.3-3.3v-47.7c0-1.8,1.5-3.3,3.3-3.3h70.4v29.1c0,3.7,3,6.8,6.8,6.8h40.1v18.3ZM150.9,1254.7c1.8,0,3.3,1.5,3.3,3.3v29.1h-40.1c-1.8,0-3.3-1.5-3.3-3.3v-29.1h40.1Z"/>
      </g>
      <path class="cls-2" d="M145.2,716.3h-9.5c-1.4,0-2.7.8-3.4,2-.7,1.3-.6,2.8.2,4l9.5,14.4c.7,1.1,1.9,1.7,3.2,1.7s2.5-.6,3.2-1.7l9.5-14.4c.4-.6.6-1.4.6-2.1s-.2-1.3-.5-1.8c-.7-1.3-2-2-3.4-2h-9.5Z"/>
      <path class="cls-2" d="M144.2,1596.6h-9.5c-1.4,0-2.7.8-3.4,2-.7,1.3-.6,2.8.2,4l9.5,14.4c.7,1.1,1.9,1.7,3.2,1.7s2.5-.6,3.2-1.7l9.5-14.4c.4-.6.6-1.4.6-2.1s-.2-1.3-.5-1.8c-.7-1.3-2-2-3.4-2h-9.5Z"/>
      <path class="cls-2" d="M144.2,1943.1h-9.5c-1.4,0-2.7.8-3.4,2-.7,1.3-.6,2.8.2,4l9.5,14.4c.7,1.1,1.9,1.7,3.2,1.7s2.5-.6,3.2-1.7l9.5-14.4c.4-.6.6-1.4.6-2.1s-.2-1.3-.5-1.8c-.7-1.3-2-2-3.4-2h-9.5Z"/>
      <rect class="cls-3" x="142.8" y="1753.1" width="3.5" height="193.1"/>
    </g>
  </g>
</svg>