<?xml version="1.0" encoding="UTF-8"?>
<svg xmlns="http://www.w3.org/2000/svg" version="1.1" viewBox="0 0 443.9 40.7">
  <defs>
    <style>
      .cls-1 {
        fill: #ffbf3f;
      }
    </style>
  </defs>
  <!-- Generator: Adobe Illustrator 28.7.1, SVG Export Plug-In . SVG Version: 1.2.0 Build 142)  -->
  <g>
    <g id="Layer_1">
      <g>
        <path class="cls-1" d="M24.1,39.9l-10.2-13.8h-5.9v13.8H0V.7h14.7c8.2,0,14.1,5.1,14.1,12.7s-2.6,9-6.9,11.2l11.1,15.4h-9ZM8,19h6.7c3.7,0,5.9-2.3,5.9-5.6s-2.3-5.6-5.9-5.6h-6.7v11.2Z"/>
        <path class="cls-1" d="M36.5.7h8v23.6c0,5.7,3.6,8.9,8.6,8.9s8.6-3.2,8.6-8.9V.7h8v23c0,10.4-7.1,16.9-16.6,16.9s-16.6-6.5-16.6-16.9V.7Z"/>
        <path class="cls-1" d="M111.8.7v39.9h-2.7l-22.7-24.2v23.5h-8V0h2.6l22.8,24.1V.7h8Z"/>
        <path class="cls-1" d="M140.2,27.8c2.6,3.5,5.3,5.7,9.6,5.7s5.6-1.7,5.6-4.3-1.2-3.1-5-4.9l-4.2-1.9c-6-2.7-9.5-6.1-9.5-11.3S142.3,0,149.7,0s10.5,2.9,13,7.4l-5.5,4.2c-2-3-4.5-4.5-7.5-4.5s-4.9,1.4-4.9,3.8,1.2,3,4.6,4.5l4.5,2c6.6,2.9,9.7,6.2,9.7,11.5s-5.9,11.8-13.7,11.8-12.1-3.4-15.2-8.7l5.5-4.2Z"/>
        <path class="cls-1" d="M209,0v39.9h-8v-20.9l-9.9,12.4h-2.6l-9.9-12.4v20.9h-8V0h2.6l16.6,21.2L206.4,0h2.6Z"/>
        <path class="cls-1" d="M236.6,0c11.3-.2,21.1,9.1,20.9,20.3.2,11.2-9.6,20.6-20.9,20.3-11.3.2-21-9.1-20.8-20.3C215.6,9.1,225.3-.2,236.6,0ZM236.6,7.4c-7.2,0-12.6,5.3-12.6,12.9s5.3,12.9,12.6,12.9,12.6-5.3,12.6-12.9-5.4-12.9-12.6-12.9Z"/>
        <path class="cls-1" d="M282.8,0c11.3-.2,21.1,9.1,20.9,20.3.2,11.2-9.6,20.6-20.9,20.3-11.3.2-21-9.1-20.8-20.3-.2-11.2,9.5-20.6,20.8-20.3ZM282.9,7.4c-7.2,0-12.6,5.3-12.6,12.9s5.3,12.9,12.6,12.9,12.6-5.3,12.6-12.9-5.4-12.9-12.6-12.9Z"/>
        <path class="cls-1" d="M318.6,8h-12.5V.7h33.2v7.2h-12.6v32h-8V8Z"/>
        <path class="cls-1" d="M344.5.7h8v15h17.3V.7h8v39.2h-8v-16.9h-17.3v16.9h-8V.7Z"/>
        <path class="cls-1" d="M386.8.7h8v32h17.2v7.2h-25.2V.7Z"/>
        <path class="cls-1" d="M430.4,24.5v15.4h-8v-15.4l-13.5-23.8h8.9l8.7,15.6,8.6-15.6h8.9l-13.5,23.8Z"/>
      </g>
    </g>
  </g>
</svg>