<?xml version="1.0" encoding="UTF-8"?>
<svg xmlns="http://www.w3.org/2000/svg" version="1.1" viewBox="0 0 343.9 38.1">
  <defs>
    <style>
      .cls-1 {
        fill: #ffbf3f;
      }
    </style>
  </defs>
  <!-- Generator: Adobe Illustrator 28.7.1, SVG Export Plug-In . SVG Version: 1.2.0 Build 142)  -->
  <g>
    <g id="Layer_1">
      <g>
        <path class="cls-1" d="M19.6,0C26.5,0,32.5,3.4,35.8,9.1l-5.7,4c-2.6-4.1-6.1-6.2-10.5-6.2-6.8,0-11.8,5.1-11.8,12.1s5,12,11.8,12,7.9-2.1,10.5-6.2l5.7,4c-3.2,5.7-9.2,9.1-16.2,9.1C8.8,38.3-.2,29.5,0,19-.2,8.5,8.9-.2,19.6,0Z"/>
        <path class="cls-1" d="M41.8.7h7.5v22.1c0,5.3,3.3,8.3,8.1,8.3s8.1-3,8.1-8.3V.7h7.5v21.5c0,9.7-6.7,15.9-15.6,15.9s-15.6-6.1-15.6-15.9V.7Z"/>
        <path class="cls-1" d="M83.4,26c2.4,3.3,5,5.3,9,5.3s5.2-1.6,5.2-4.1-1.2-2.9-4.7-4.6l-3.9-1.8c-5.6-2.5-8.9-5.7-8.9-10.6S85.4,0,92.3,0s9.8,2.7,12.1,7l-5.1,3.9c-1.9-2.8-4.2-4.2-7-4.2s-4.6,1.3-4.6,3.6,1.2,2.8,4.3,4.2l4.2,1.8c6.2,2.7,9.1,5.8,9.1,10.7s-5.5,11-12.8,11-11.3-3.2-14.2-8.1l5.2-3.9Z"/>
        <path class="cls-1" d="M120.2,7.5h-11.7V.7h31v6.8h-11.8v29.9h-7.5V7.5Z"/>
        <path class="cls-1" d="M161.1,0c10.6-.2,19.7,8.5,19.6,19,.2,10.5-9,19.2-19.6,19-10.6.2-19.6-8.5-19.5-19C141.4,8.5,150.5-.2,161.1,0ZM161.1,7c-6.8,0-11.8,5-11.8,12.1s5,12.1,11.8,12.1,11.8-5,11.8-12.1-5.1-12.1-11.8-12.1Z"/>
        <path class="cls-1" d="M222.9,0v37.4h-7.5v-19.6l-9.2,11.6h-2.4l-9.2-11.6v19.6h-7.5V0h2.4l15.5,19.9L220.5,0h2.4Z"/>
        <path class="cls-1" d="M231.4.7h7.5v36.7h-7.5V.7Z"/>
        <path class="cls-1" d="M274.2,30.6v6.8h-30v-2l18.4-27.9h-16V.7h27.6v2l-18.4,27.9h18.5Z"/>
        <path class="cls-1" d="M280,.7h24.7v6.8h-17.2v7.5h12.6v6.4h-12.6v9.3h17.9v6.8h-25.4V.7Z"/>
        <path class="cls-1" d="M311.9.7h12c11.6-.1,20.2,7.4,20,18.2.2,10.6-8.4,18.6-20,18.5h-12V.7ZM323.8,30.6c7.4,0,12.3-4.6,12.3-11.7s-4.8-11.5-12.3-11.5h-4.4v23.1h4.4Z"/>
      </g>
    </g>
  </g>
</svg>