<?xml version="1.0" encoding="UTF-8"?>
<svg xmlns="http://www.w3.org/2000/svg" version="1.1" viewBox="0 0 317 26.2">
  <defs>
    <style>
      .cls-1 {
        fill: #ffbf3f;
      }
    </style>
  </defs>
  <!-- Generator: Adobe Illustrator 28.7.1, SVG Export Plug-In . SVG Version: 1.2.0 Build 142)  -->
  <g>
    <g id="Layer_1">
      <g>
        <path class="cls-1" d="M2.2,19.1c1.9,2.9,4.3,4.3,7.1,4.3s5.1-1.7,5.1-4.2-1.4-3.1-4.2-4.5l-2.8-1.3c-3.5-1.7-5.7-3.4-5.7-6.8S5.1,0,9.2,0s6.3,1.7,7.9,4.3l-2.2,1.7c-1.4-2-3.5-3.2-5.8-3.2s-4.5,1.3-4.5,3.7.2,1.3.5,1.8c.7,1,1.6,1.5,3.6,2.4l2.8,1.3c4,2,5.9,3.8,5.9,7.1s-3.5,7.1-8.2,7.1S2,24.1,0,20.7l2.2-1.6Z"/>
        <path class="cls-1" d="M34.8,0c7.1-.1,13.3,5.8,13.2,13.1.2,7.3-6.1,13.2-13.2,13.1-7.2.2-13.3-5.9-13.1-13.1C21.5,5.8,27.6-.1,34.8,0ZM34.8,2.8c-5.7,0-10.1,4.4-10.1,10.3s4.3,10.4,10.1,10.4c5.6,0,10.1-4.6,10-10.4.1-5.7-4.5-10.4-10-10.3Z"/>
        <path class="cls-1" d="M53,.4h3v15.5c0,4.9,2.9,7.5,7.1,7.5s7-2.6,7-7.5V.4h3v15.3c0,6.6-4.2,10.5-10,10.5s-10.1-3.8-10.1-10.5V.4Z"/>
        <path class="cls-1" d="M85.9,3.1h-8.9V.4h20.8v2.7h-8.9v22.6h-3V3.1Z"/>
        <path class="cls-1" d="M102,.4h3v10.4h14.2V.4h3v25.3h-3v-12.2h-14.2v12.2h-3V.4Z"/>
        <path class="cls-1" d="M129.5,19.1c1.9,2.9,4.3,4.3,7.1,4.3s5.1-1.7,5.1-4.2-1.4-3.1-4.2-4.5l-2.8-1.3c-3.5-1.7-5.7-3.4-5.7-6.8S132.4,0,136.5,0s6.3,1.7,7.9,4.3l-2.2,1.7c-1.4-2-3.5-3.2-5.8-3.2s-4.5,1.3-4.5,3.7.2,1.3.5,1.8c.7,1,1.6,1.5,3.6,2.4l2.8,1.3c4,2,5.9,3.8,5.9,7.1s-3.5,7.1-8.2,7.1-7.3-2.1-9.3-5.4l2.2-1.6Z"/>
        <path class="cls-1" d="M156.8,3.1h-8.9V.4h20.8v2.7h-8.9v22.6h-3V3.1Z"/>
        <path class="cls-1" d="M185.5,20.6h-12.4l-2.1,5.1h-3.1L178.7,0h1.1l11,25.8h-3.2l-2.1-5.1ZM179.2,5.5l-5.1,12.5h10.1l-5.1-12.5Z"/>
        <path class="cls-1" d="M198.7,3.1h-8.9V.4h20.8v2.7h-8.9v22.6h-3V3.1Z"/>
        <path class="cls-1" d="M214.9.4h16.2v2.7h-13.2v7.8h10.1v2.7h-10.1v9.5h13.7v2.7h-16.7V.4Z"/>
        <path class="cls-1" d="M247.4.4h15.8v2.7h-12.9v8.7h10.7v2.7h-10.7v11.2h-3V.4Z"/>
        <path class="cls-1" d="M278.8,0c7.1-.1,13.3,5.8,13.2,13.1.2,7.3-6.1,13.2-13.2,13.1-7.2.2-13.3-5.9-13.1-13.1-.2-7.3,5.9-13.2,13.1-13.1ZM278.8,2.8c-5.7,0-10.1,4.4-10.1,10.3s4.3,10.4,10.1,10.4c5.6,0,10.1-4.6,10-10.4.1-5.7-4.5-10.4-10-10.3Z"/>
        <path class="cls-1" d="M313.5,25.8l-7.9-10.6h-5.4v10.6h-3V.4h8.9c4.9,0,8.1,3.1,8.1,7.3s-2,6.1-5.3,7l8.1,11h-3.5ZM300.2,12.4h5.8c3.3,0,5.1-1.8,5.1-4.6s-1.9-4.7-5.1-4.7h-5.8v9.3Z"/>
      </g>
    </g>
  </g>
</svg>