<?xml version="1.0" encoding="UTF-8"?>
<svg xmlns="http://www.w3.org/2000/svg" version="1.1" viewBox="0 0 238.3 38">
  <defs>
    <style>
      .cls-1 {
        fill: #ffbf3f;
      }
    </style>
  </defs>
  <!-- Generator: Adobe Illustrator 28.7.1, SVG Export Plug-In . SVG Version: 1.2.0 Build 142)  -->
  <g>
    <g id="Layer_1">
      <g>
        <path class="cls-1" d="M16.4,37.4H0V.7h13c6.8,0,11.6,4.2,11.6,10.2s-.9,4.9-2.7,6.6c4.1,1.5,6.5,4.6,6.5,9.1,0,6.3-5,10.8-12.1,10.8ZM7.2,7.1v8.4h5.2c3.1,0,4.8-1.6,4.8-4.2s-1.7-4.2-4.8-4.2h-5.2ZM15.8,21.7H7.2v9.2h8.6c3.3,0,5.2-1.7,5.2-4.6s-1.9-4.6-5.2-4.6Z"/>
        <path class="cls-1" d="M55.6,32.6h-15l-2.1,4.8h-8.1L46.9,0h2.5l16.4,37.4h-8.1l-2.1-4.8ZM48.1,14l-4.9,12.4h9.8l-4.9-12.4Z"/>
        <path class="cls-1" d="M102,.7v37.4h-2.5l-21.2-22.7v22h-7.5V0h2.4l21.3,22.6V.7h7.5Z"/>
        <path class="cls-1" d="M133.7,37.4l-15.7-19.1v19.1h-7.5V.7h7.5v17L131.9.7h9l-14.1,17.3,15.9,19.4h-9.1Z"/>
        <path class="cls-1" d="M147.7.7h7.5v36.7h-7.5V.7Z"/>
        <path class="cls-1" d="M194.8.7v37.4h-2.5l-21.2-22.7v22h-7.5V0h2.4l21.3,22.6V.7h7.5Z"/>
        <path class="cls-1" d="M220.8,0c6.5,0,11.9,2.9,15.5,8l-5.3,4.4c-2.6-3.6-6-5.4-10.2-5.4-7,0-11.8,5.1-11.8,12.1s5,12.3,12.2,12.3,7.6-1.7,9.7-4.6v-3h-10.1v-6.5h17.6v10.8c-1.7,2.9-4.1,5.4-7.2,7.2-3.1,1.8-6.5,2.7-10.3,2.7-10.8.2-19.8-8.5-19.6-19C200.9,8.5,209.9-.2,220.8,0Z"/>
      </g>
    </g>
  </g>
</svg>