<?xml version="1.0" encoding="UTF-8"?>
<svg xmlns="http://www.w3.org/2000/svg" version="1.1" viewBox="0 0 264.5 26.2">
  <defs>
    <style>
      .cls-1 {
        fill: #ffbf3f;
      }
    </style>
  </defs>
  <!-- Generator: Adobe Illustrator 28.7.1, SVG Export Plug-In . SVG Version: 1.2.0 Build 142)  -->
  <g>
    <g id="Layer_1">
      <g>
        <path class="cls-1" d="M0,.4h8.9c4.9,0,8.1,3.1,8.1,7.3s-3.2,7.4-8.1,7.4H3v10.6H0V.4ZM8.8,12.5c3.2,0,5.1-1.9,5.1-4.7s-1.8-4.7-5.1-4.7H3v9.4h5.8Z"/>
        <path class="cls-1" d="M34.3,20.6h-12.4l-2.1,5.1h-3.1L27.6,0h1.1l11,25.8h-3.2l-2.1-5.1ZM28.1,5.4l-5.1,12.5h10.1l-5.1-12.5Z"/>
        <path class="cls-1" d="M60.6,25.8l-7.9-10.6h-5.4v10.6h-3V.4h8.9c4.9,0,8.1,3.1,8.1,7.3s-2,6.1-5.3,7l8.1,11h-3.5ZM47.4,12.4h5.8c3.3,0,5.1-1.8,5.1-4.6s-1.9-4.7-5.1-4.7h-5.8v9.3Z"/>
        <path class="cls-1" d="M73.4,3.1h-8.9V.4h20.8v2.7h-8.9v22.6h-3V3.1Z"/>
        <path class="cls-1" d="M109.8.4v25.8h-1.1l-16.1-19.4v19h-3V0h1.1l16.1,19.5V.4h3Z"/>
        <path class="cls-1" d="M116.7.4h16.2v2.7h-13.2v7.8h10.1v2.7h-10.1v9.5h13.7v2.7h-16.7V.4Z"/>
        <path class="cls-1" d="M154.7,25.8l-7.9-10.6h-5.4v10.6h-3V.4h8.9c4.9,0,8.1,3.1,8.1,7.3s-2,6.1-5.3,7l8.1,11h-3.5ZM141.4,12.4h5.8c3.3,0,5.1-1.8,5.1-4.6s-1.9-4.7-5.1-4.7h-5.8v9.3Z"/>
        <path class="cls-1" d="M206.8.4l-9.6,25.8h-1.1l-8-20.1-8,20.1h-1.1L169.4.4h3.3l7,19.3,7.9-19.7h1.1l7.9,19.7L203.5.4h3.3Z"/>
        <path class="cls-1" d="M212.1.4h3v25.3h-3V.4Z"/>
        <path class="cls-1" d="M228.1,3.1h-8.9V.4h20.8v2.7h-8.9v22.6h-3V3.1Z"/>
        <path class="cls-1" d="M244.3.4h3v10.4h14.2V.4h3v25.3h-3v-12.2h-14.2v12.2h-3V.4Z"/>
      </g>
    </g>
  </g>
</svg>