<?xml version="1.0" encoding="UTF-8"?>
<svg xmlns="http://www.w3.org/2000/svg" version="1.1" viewBox="0 0 443.5 26.6">
  <defs>
    <style>
      .cls-1 {
        fill: #fff;
      }
    </style>
  </defs>
  <!-- Generator: Adobe Illustrator 28.7.1, SVG Export Plug-In . SVG Version: 1.2.0 Build 142)  -->
  <g>
    <g id="Layer_1">
      <g>
        <path class="cls-1" d="M12,2.8c4.1,0,7.6,1.9,9.6,5l-2,1.6c-1.8-2.6-4.3-4.1-7.5-4.1-5.2,0-9.2,4.1-9.2,9.4s4,9.4,9.2,9.4,5.7-1.5,7.5-4.1l2,1.6c-1.9,3-5.5,5-9.6,5C5.5,26.7-.1,21.3,0,14.7-.1,8.1,5.5,2.7,12,2.8Z"/>
        <path class="cls-1" d="M33.6,8.8c4.9,0,9,4,8.9,8.9.1,4.8-4.1,9-8.9,8.9-4.9.1-8.9-4.1-8.9-8.9-.1-4.9,4.1-9,8.9-8.9ZM33.6,11.3c-3.5,0-6.1,2.8-6.1,6.4s2.7,6.4,6.1,6.4,6.2-2.8,6.2-6.4-2.7-6.4-6.1-6.4Z"/>
        <path class="cls-1" d="M72.1,26.2h-2.7v-10.3c0-2.8-1.5-4.6-4-4.6s-4.4,1.9-4.4,4.3v10.6h-2.7v-10.3c0-2.8-1.6-4.6-4.1-4.6s-4.3,1.9-4.3,4.6v10.3h-2.7V9.2h2.5v1.8c1.2-1.4,3-2.2,5.1-2.2s4.3,1.1,5.2,2.9c1.3-1.8,3.3-2.9,5.8-2.9,3.9,0,6.2,2.7,6.2,6.7v10.7Z"/>
        <path class="cls-1" d="M79.4,18.5c.3,3.4,2.9,5.6,6.3,5.6s3.7-.8,5.2-2.3l1.6,1.8c-1.8,1.9-4.1,3-6.8,3-5.1,0-9-3.9-9-8.9s3.8-8.9,8.7-8.9,7.8,3.2,7.8,7.7,0,1.3-.2,2h-13.5ZM90.3,16.1c0-3-2.2-4.9-5.1-4.9s-5.1,2-5.7,4.9h10.8Z"/>
        <path class="cls-1" d="M121.4,9.2l-8,17.4h-1l-8-17.4h2.9l5.7,12.8,5.6-12.8h2.9Z"/>
        <path class="cls-1" d="M126.7.7c1.1,0,2,.9,2,2s-.9,2-2,2-2-.8-2-2,.9-2,2-2ZM125.3,9.2h2.7v17h-2.7V9.2Z"/>
        <path class="cls-1" d="M134,21.5c1.6,1.7,3,2.6,4.9,2.6s3.2-.9,3.2-2.4-.9-1.9-3-2.7l-1.6-.7c-2.8-1.2-4.2-2.4-4.2-4.7s2.5-4.8,5.7-4.8,4.3,1,5.7,2.7l-1.6,1.7c-1.2-1.2-2.6-1.9-4.2-1.9s-2.8.8-2.8,2.1.7,1.6,2.8,2.5l1.6.7c3.2,1.4,4.5,2.7,4.5,5s-.6,2.8-1.7,3.7c-1.2.9-2.6,1.3-4.2,1.3-2.8,0-5.1-1.4-6.6-3.3l1.7-1.8Z"/>
        <path class="cls-1" d="M151.2.7c1.1,0,2,.9,2,2s-.9,2-2,2-2-.8-2-2,.9-2,2-2ZM149.8,9.2h2.7v17h-2.7V9.2Z"/>
        <path class="cls-1" d="M167.7,26.2c-1.1.2-2,.4-2.8.4-3.5,0-5.7-1.8-5.7-5.5v-9.5h-2.9v-2.4h2.9v-4.6h2.7v4.6h5.3v2.4h-5.3v9.3c0,2.4,1.3,3.2,3.6,3.2s1.4,0,2.3-.2v2.3Z"/>
        <path class="cls-1" d="M181.3,9.2h2.7v10.4c0,2.8,1.9,4.5,4.4,4.5s4.3-1.8,4.3-4.5v-10.4h2.7v10.2c0,4.3-3.1,7.2-7,7.2s-7.1-2.9-7.1-7.2v-10.2Z"/>
        <path class="cls-1" d="M201.2,21.5c1.6,1.7,3,2.6,4.9,2.6s3.2-.9,3.2-2.4-.9-1.9-3-2.7l-1.6-.7c-2.8-1.2-4.2-2.4-4.2-4.7s2.5-4.8,5.7-4.8,4.3,1,5.7,2.7l-1.6,1.7c-1.2-1.2-2.6-1.9-4.2-1.9s-2.8.8-2.8,2.1.7,1.6,2.8,2.5l1.6.7c3.2,1.4,4.5,2.7,4.5,5s-.6,2.8-1.7,3.7c-1.2.9-2.6,1.3-4.2,1.3-2.8,0-5.1-1.4-6.6-3.3l1.7-1.8Z"/>
        <path class="cls-1" d="M239.5,26.2h-2.5v-2.2c-1.3,1.7-3.2,2.6-5.7,2.6s-5.9-1.9-5.9-4.8,2.4-4.8,6.1-4.8h5.4v-1.5c0-2.8-1.6-4.3-4.1-4.3s-3.6.9-5,2.7l-1.8-1.5c1.5-2.5,4.1-3.7,6.9-3.7,4,0,6.6,2.4,6.6,6.9v10.5ZM236.8,19.3h-5.1c-2.4,0-3.7.8-3.7,2.4s1.5,2.7,3.5,2.7,5.2-2.1,5.2-4.7v-.4Z"/>
        <path class="cls-1" d="M254.5,26.2c-1.1.2-2,.4-2.8.4-3.5,0-5.7-1.8-5.7-5.5v-9.5h-2.9v-2.4h2.9v-4.6h2.7v4.6h5.3v2.4h-5.3v9.3c0,2.4,1.3,3.2,3.6,3.2s1.4,0,2.3-.2v2.3Z"/>
        <path class="cls-1" d="M277.3,26.6c-2.7,0-5.2-1.2-6.5-3.1v2.7h-2.5V0h2.7v11.7c1.4-1.8,3.7-2.9,6.3-2.9,4.8,0,8.4,3.9,8.4,8.9s-3.6,8.9-8.4,8.9ZM276.8,11.3c-3.1,0-5.9,2.1-5.9,6.4s2.9,6.4,5.9,6.4,6-2.8,6-6.4-2.6-6.4-6-6.4Z"/>
        <path class="cls-1" d="M298,8.8c4.9,0,9,4,8.9,8.9.1,4.8-4.1,9-8.9,8.9-4.9.1-8.9-4.1-8.9-8.9-.1-4.9,4.1-9,8.9-8.9ZM298,11.3c-3.5,0-6.1,2.8-6.1,6.4s2.7,6.4,6.1,6.4,6.2-2.8,6.2-6.4-2.7-6.4-6.2-6.4Z"/>
        <path class="cls-1" d="M319.4,8.8c4.9,0,9,4,8.9,8.9.1,4.8-4.1,9-8.9,8.9-4.9.1-8.9-4.1-8.9-8.9-.1-4.9,4.1-9,8.9-8.9ZM319.4,11.3c-3.5,0-6.1,2.8-6.1,6.4s2.7,6.4,6.1,6.4,6.2-2.8,6.2-6.4-2.7-6.4-6.2-6.4Z"/>
        <path class="cls-1" d="M342.3,26.2c-1.1.2-2,.4-2.8.4-3.5,0-5.7-1.8-5.7-5.5v-9.5h-2.9v-2.4h2.9v-4.6h2.7v4.6h5.3v2.4h-5.3v9.3c0,2.4,1.3,3.2,3.6,3.2s1.4,0,2.3-.2v2.3Z"/>
        <path class="cls-1" d="M360.4,26.2h-2.7v-10.3c0-2.8-1.6-4.6-4.2-4.6s-4.5,1.9-4.5,4.6v10.3h-2.7V0h2.7v11.1c1.2-1.4,3-2.3,5.1-2.3,3.9,0,6.3,2.7,6.3,6.7v10.7Z"/>
        <path class="cls-1" d="M389.4,11.5l-.8,6.4h3.4v2.3h-3.7l-.8,6h-2.3l.8-6h-6.7l-.8,6h-2.3l.8-6h-3.1v-2.3h3.4l.8-6.4h-3.4v-2.3h3.7l.8-6h2.3l-.8,6h6.7l.8-6h2.3l-.8,6h3.1v2.3h-3.4ZM386.3,17.9l.8-6.4h-6.7l-.8,6.4h6.7Z"/>
        <path class="cls-1" d="M411.5,23.8v2.4h-16v-.7l8.2-8.7c2.8-2.9,4.1-4.7,4.1-6.9s-1.7-4.6-4.4-4.6-2.5.5-3.4,1.4c-.8.9-1.3,2.1-1.3,3.4s0,1.3.2,1.9h-2.8c-.2-.6-.2-1.3-.2-2,0-3.7,2.9-7.2,7.4-7.2s7.3,3.1,7.3,7-.2,2.1-.7,3.1c-.9,2-2.1,3.4-4.2,5.6l-5.1,5.4h10.9Z"/>
        <path class="cls-1" d="M422.8,3.1v23.1h-2.7V6.4l-5,1.6-.7-2.3,7.4-2.4h1Z"/>
        <path class="cls-1" d="M435.3,26.6c-3.5,0-6.3-2-7.8-4.8l1.9-1.4c1.5,2.2,3.2,3.6,5.9,3.6s5.4-2.1,5.4-5.1-2.1-4.8-5.8-4.8h-2.3v-.8l6-7.7h-9.5v-2.5h13.8v.8l-6.1,7.9c3.5.3,6.7,2.8,6.7,7.1s-3.8,7.7-8.2,7.7Z"/>
      </g>
    </g>
  </g>
</svg>