<?xml version="1.0" encoding="UTF-8"?>
<svg xmlns="http://www.w3.org/2000/svg" version="1.1" viewBox="0 0 122.4 30.3">
  <defs>
    <style>
      .cls-1 {
        fill: #ffbf3f;
      }

      .cls-2 {
        fill: #002d72;
      }
    </style>
  </defs>
  <!-- Generator: Adobe Illustrator 28.7.1, SVG Export Plug-In . SVG Version: 1.2.0 Build 142)  -->
  <g>
    <g id="Layer_1">
      <rect class="cls-1" width="122.4" height="30.3" rx="5.2" ry="5.2"/>
      <g>
        <path class="cls-2" d="M16,8.5h1.9v10.2h5.5v1.7h-7.4v-11.9Z"/>
        <path class="cls-2" d="M26.4,16.6c.2,1.4,1.4,2.3,2.9,2.3s1.8-.3,2.6-1l.9,1.3c-1,1-2.2,1.4-3.5,1.4-2.7,0-4.8-2-4.8-4.6,0-2.5,2.1-4.7,4.6-4.6,2.3,0,4.1,1.8,4.1,4.1s0,.8-.1,1.2h-6.6ZM31.3,15.2c0-1.4-1-2.2-2.3-2.2s-2.3.8-2.5,2.2h4.8Z"/>
        <path class="cls-2" d="M42.4,20.5h-1.8v-1c-.6.8-1.6,1.2-2.8,1.2-1.9,0-3.1-1-3.1-2.6s1.3-2.5,3.3-2.5h2.5v-.6c0-1.2-.7-1.9-1.9-1.9s-1.7.4-2.5,1.3l-1.1-1.1c.9-1.3,2.2-1.9,3.7-1.9,2.2,0,3.6,1.3,3.6,3.7v5.4ZM40.5,16.9h-2.3c-1,0-1.6.4-1.6,1.1s.6,1.2,1.6,1.2,2.3-.9,2.3-2.1v-.2Z"/>
        <path class="cls-2" d="M50.1,13.3h-.6c-1.5,0-2.6.9-2.6,2.5v4.7h-1.9v-8.9h1.8v1.2c.6-.8,1.6-1.2,2.6-1.2s.5,0,.7,0v1.7Z"/>
        <path class="cls-2" d="M59.5,20.5h-1.9v-5.3c0-1.2-.8-2.1-1.9-2.1s-2,.8-2,2.1v5.3h-1.9v-8.9h1.8v.9c.7-.7,1.6-1.1,2.7-1.1,2.1,0,3.3,1.4,3.3,3.5v5.5Z"/>
        <path class="cls-2" d="M78.7,8.3v12.1h-1.9v-7.5l-3.4,4.5h-.6l-3.4-4.5v7.5h-1.9v-12.1h.7l5,6.7,5-6.7h.7Z"/>
        <path class="cls-2" d="M85.6,11.4c2.6,0,4.8,2.1,4.7,4.6,0,2.5-2.1,4.7-4.7,4.6-2.5,0-4.7-2.1-4.7-4.6,0-2.5,2.1-4.7,4.7-4.6ZM85.6,13.1c-1.6,0-2.8,1.3-2.8,2.9s1.2,2.9,2.7,2.9,2.8-1.3,2.8-2.9-1.2-2.9-2.7-2.9Z"/>
        <path class="cls-2" d="M97.5,13.3h-.6c-1.5,0-2.6.9-2.6,2.5v4.7h-1.9v-8.9h1.8v1.2c.6-.8,1.6-1.2,2.6-1.2s.5,0,.7,0v1.7Z"/>
        <path class="cls-2" d="M100.4,16.6c.2,1.4,1.4,2.3,2.9,2.3s1.8-.3,2.6-1l.9,1.3c-1,1-2.2,1.4-3.5,1.4-2.7,0-4.8-2-4.8-4.6,0-2.5,2.1-4.7,4.6-4.6,2.3,0,4.1,1.8,4.1,4.1s0,.8-.1,1.2h-6.6ZM105.3,15.2c0-1.4-1-2.2-2.3-2.2s-2.3.8-2.5,2.2h4.8Z"/>
      </g>
    </g>
  </g>
</svg>