<?xml version="1.0" encoding="UTF-8"?>
<svg xmlns="http://www.w3.org/2000/svg" version="1.1" viewBox="0 0 862.5 43.7">
  <defs>
    <style>
      .cls-1 {
        fill: #ffbf3f;
      }
    </style>
  </defs>
  <!-- Generator: Adobe Illustrator 28.7.1, SVG Export Plug-In . SVG Version: 1.2.0 Build 142)  -->
  <g>
    <g id="Layer_1">
      <g>
        <path class="cls-1" d="M10.8,7.4H0v-3.3h25.2v3.3h-10.8v27.4h-3.6V7.4Z"/>
        <path class="cls-1" d="M48.8,34.9h-3.6v-13.8c0-3.7-2.1-6.1-5.6-6.1s-5.9,2.6-5.9,6.1v13.8h-3.6V0h3.6v14.8c1.5-1.9,4-3.1,6.8-3.1,5.2,0,8.4,3.6,8.4,8.9v14.2Z"/>
        <path class="cls-1" d="M58.5,24.6c.4,4.5,3.9,7.4,8.3,7.4s4.9-1,6.9-3.1l2.1,2.4c-2.4,2.5-5.5,4-9.1,4-6.7,0-12-5.2-12-11.8s5.1-11.9,11.6-11.9,10.3,4.2,10.3,10.2,0,1.8-.3,2.7h-17.9ZM73,21.5c0-4-3-6.5-6.7-6.5s-6.8,2.6-7.6,6.5h14.4Z"/>
        <path class="cls-1" d="M107.8,35.4c-3.3,0-6.5-1.4-8.3-3.8v11.6h-3.6V12.2h3.3v3.6c1.7-2.6,5-4.1,8.6-4.1,6.5,0,11.2,5.2,11.2,11.8s-4.8,11.9-11.2,11.9ZM107.3,15c-4,0-7.9,2.8-7.9,8.5s3.7,8.6,7.9,8.6,8-3.6,8-8.5-3.4-8.6-8-8.6Z"/>
        <path class="cls-1" d="M142.3,34.9h-3.3v-2.9c-1.7,2.2-4.3,3.4-7.6,3.4s-7.9-2.5-7.9-6.4,3.3-6.3,8.1-6.3h7.2v-2c0-3.7-2.1-5.7-5.5-5.7s-4.7,1.2-6.6,3.6l-2.4-2c2-3.3,5.4-5,9.2-5,5.3,0,8.8,3.3,8.8,9.2v13.9ZM138.7,25.6h-6.7c-3.2,0-4.9,1.1-4.9,3.2s2,3.6,4.7,3.6,6.9-2.7,6.9-6.2v-.6Z"/>
        <path class="cls-1" d="M169.8,12.2l-11.2,25.8c-1.7,4-4.2,5.7-7.7,5.7s-2.3-.1-3.5-.5v-3c1.2.1,2.1.2,2.7.2,2.4,0,4-.9,5.1-3.6l1.2-2.7-9.4-21.9h3.9l7.5,18,7.5-18h3.8Z"/>
        <path class="cls-1" d="M187,15.4h-1.3c-3.8,0-7.1,2.5-7.1,6.6v12.8h-3.6V12.2h3.3v3.2c1.6-2.2,4.3-3.4,7-3.4s1.1,0,1.7.2v3.2Z"/>
        <path class="cls-1" d="M201.5,11.7c6.5,0,12,5.3,11.9,11.8.1,6.4-5.4,11.9-11.9,11.8-6.5.1-11.9-5.4-11.8-11.8-.1-6.5,5.4-11.9,11.9-11.8ZM201.5,15c-4.6,0-8.2,3.7-8.2,8.6s3.5,8.5,8.1,8.5,8.2-3.7,8.2-8.5-3.6-8.6-8.2-8.6Z"/>
        <path class="cls-1" d="M219.6,0h3.6v34.9h-3.6V0Z"/>
        <path class="cls-1" d="M231.1,0h3.6v34.9h-3.6V0Z"/>
        <path class="cls-1" d="M257.6,24.6c.4,4.5,3.9,7.4,8.3,7.4s4.9-1,6.9-3.1l2.1,2.4c-2.4,2.5-5.5,4-9.1,4-6.7,0-12-5.2-12-11.8s5.1-11.9,11.6-11.9,10.3,4.2,10.3,10.2,0,1.8-.3,2.7h-17.9ZM272.1,21.5c0-4-3-6.5-6.7-6.5s-6.8,2.6-7.6,6.5h14.4Z"/>
        <path class="cls-1" d="M295.6,34.9l-6.5-9.3-6.4,9.3h-4.2l8.4-11.8-7.7-10.8h4.1l5.8,8.3,5.8-8.3h4.1l-7.9,10.8,8.5,11.8h-4.1Z"/>
        <path class="cls-1" d="M316.6,35.4c-3.3,0-6.5-1.4-8.3-3.8v11.6h-3.6V12.2h3.3v3.6c1.7-2.6,5-4.1,8.6-4.1,6.5,0,11.2,5.2,11.2,11.8s-4.8,11.9-11.2,11.9ZM316.1,15c-4,0-7.9,2.8-7.9,8.5s3.7,8.6,7.9,8.6,8-3.6,8-8.5-3.4-8.6-8-8.6Z"/>
        <path class="cls-1" d="M336.2,24.6c.4,4.5,3.9,7.4,8.3,7.4s4.9-1,6.9-3.1l2.1,2.4c-2.4,2.5-5.5,4-9.1,4-6.7,0-12-5.2-12-11.8s5.1-11.9,11.6-11.9,10.3,4.2,10.3,10.2,0,1.8-.3,2.7h-17.9ZM350.7,21.5c0-4-3-6.5-6.7-6.5s-6.8,2.6-7.6,6.5h14.4Z"/>
        <path class="cls-1" d="M372.7,15.4h-1.3c-3.8,0-7.1,2.5-7.1,6.6v12.8h-3.6V12.2h3.3v3.2c1.6-2.2,4.3-3.4,7-3.4s1.1,0,1.7.2v3.2Z"/>
        <path class="cls-1" d="M379.3,1c1.4,0,2.6,1.2,2.6,2.6s-1.2,2.6-2.6,2.6-2.7-1.1-2.7-2.6,1.2-2.6,2.7-2.6ZM377.5,12.2h3.6v22.6h-3.6V12.2Z"/>
        <path class="cls-1" d="M391,24.6c.4,4.5,3.9,7.4,8.3,7.4s4.9-1,6.9-3.1l2.1,2.4c-2.4,2.5-5.5,4-9.1,4-6.7,0-12-5.2-12-11.8s5.1-11.9,11.6-11.9,10.3,4.2,10.3,10.2,0,1.8-.3,2.7h-17.9ZM405.5,21.5c0-4-3-6.5-6.7-6.5s-6.8,2.6-7.6,6.5h14.4Z"/>
        <path class="cls-1" d="M434.2,34.9h-3.6v-13.8c0-3.6-2.1-6-5.6-6s-5.9,2.5-5.9,6v13.8h-3.6V12.2h3.3v2.4c1.7-1.9,4.1-2.9,7-2.9,5.3,0,8.4,3.6,8.4,8.9v14.2Z"/>
        <path class="cls-1" d="M452,11.7c4,0,7.3,1.9,9.3,4.9l-2.6,2c-1.8-2.5-4.1-3.7-6.7-3.7-4.7,0-8.2,3.8-8.2,8.5s3.5,8.6,8.2,8.6,4.9-1.2,6.7-3.6l2.6,2c-2,3-5.3,4.9-9.3,4.9-6.6,0-11.9-5.3-11.9-11.9-.1-6.5,5.4-11.9,11.9-11.8Z"/>
        <path class="cls-1" d="M469,24.6c.4,4.5,3.9,7.4,8.3,7.4s4.9-1,6.9-3.1l2.1,2.4c-2.4,2.5-5.5,4-9.1,4-6.7,0-12-5.2-12-11.8s5.1-11.9,11.6-11.9,10.3,4.2,10.3,10.2,0,1.8-.3,2.7h-17.9ZM483.5,21.5c0-4-3-6.5-6.7-6.5s-6.8,2.6-7.6,6.5h14.4Z"/>
        <path class="cls-1" d="M518.8,34.9c-1.4.3-2.7.5-3.8.5-4.7,0-7.6-2.4-7.6-7.3v-12.6h-3.8v-3.2h3.8v-6.2h3.6v6.2h7.1v3.2h-7.1v12.4c0,3.2,1.7,4.3,4.8,4.3s1.9,0,3-.3v3Z"/>
        <path class="cls-1" d="M533.9,11.7c6.5,0,12,5.3,11.9,11.8.1,6.4-5.4,11.9-11.9,11.8-6.5.1-11.9-5.4-11.8-11.8-.1-6.5,5.4-11.9,11.9-11.8ZM533.9,15c-4.6,0-8.2,3.7-8.2,8.6s3.5,8.5,8.1,8.5,8.2-3.7,8.2-8.5-3.6-8.6-8.2-8.6Z"/>
        <path class="cls-1" d="M583.8,34.9h-3.6v-13.8c0-3.7-2.1-6.1-5.6-6.1s-5.9,2.6-5.9,6.1v13.8h-3.6V0h3.6v14.8c1.5-1.9,4-3.1,6.8-3.1,5.2,0,8.4,3.6,8.4,8.9v14.2Z"/>
        <path class="cls-1" d="M593.5,24.6c.4,4.5,3.9,7.4,8.3,7.4s4.9-1,6.9-3.1l2.1,2.4c-2.4,2.5-5.5,4-9.1,4-6.7,0-12-5.2-12-11.8s5.1-11.9,11.6-11.9,10.3,4.2,10.3,10.2,0,1.8-.3,2.7h-17.9ZM608,21.5c0-4-3-6.5-6.7-6.5s-6.8,2.6-7.6,6.5h14.4Z"/>
        <path class="cls-1" d="M617.9,0h3.6v34.9h-3.6V0Z"/>
        <path class="cls-1" d="M641.3,35.4c-3.3,0-6.5-1.4-8.3-3.8v11.6h-3.6V12.2h3.3v3.6c1.7-2.6,5-4.1,8.6-4.1,6.5,0,11.2,5.2,11.2,11.8s-4.8,11.9-11.2,11.9ZM640.8,15c-4,0-7.9,2.8-7.9,8.5s3.7,8.6,7.9,8.6,8-3.6,8-8.5-3.4-8.6-8-8.6Z"/>
        <path class="cls-1" d="M691.7,12.2l-11.2,25.8c-1.7,4-4.2,5.7-7.7,5.7s-2.3-.1-3.5-.5v-3c1.2.1,2.1.2,2.7.2,2.4,0,4-.9,5.1-3.6l1.2-2.7-9.4-21.9h3.9l7.5,18,7.5-18h3.8Z"/>
        <path class="cls-1" d="M706.1,11.7c6.5,0,12,5.3,11.9,11.8.1,6.4-5.4,11.9-11.9,11.8-6.5.1-11.9-5.4-11.8-11.8-.1-6.5,5.4-11.9,11.9-11.8ZM706.1,15c-4.6,0-8.2,3.7-8.2,8.6s3.5,8.5,8.1,8.5,8.2-3.7,8.2-8.5-3.6-8.6-8.2-8.6Z"/>
        <path class="cls-1" d="M724,12.2h3.5v13.9c0,3.7,2.5,6,5.9,6s5.8-2.4,5.8-6v-13.9h3.6v13.6c0,5.7-4.1,9.5-9.3,9.5s-9.4-3.8-9.4-9.5v-13.6Z"/>
        <path class="cls-1" d="M762.3,15.4h-1.3c-3.8,0-7.1,2.5-7.1,6.6v12.8h-3.6V12.2h3.3v3.2c1.6-2.2,4.3-3.4,7-3.4s1.1,0,1.7.2v3.2Z"/>
        <path class="cls-1" d="M780.4,4.2h10.8c5.9,0,9.8,3.7,9.8,8.9s-3.9,9-9.8,9h-7.2v12.8h-3.6V4.2ZM791.1,18.8c3.9,0,6.1-2.3,6.1-5.7s-2.2-5.7-6.1-5.7h-7.1v11.3h7.1Z"/>
        <path class="cls-1" d="M807,4.2h19.7v3.3h-16v9.4h12.3v3.3h-12.3v11.5h16.6v3.3h-20.2V4.2Z"/>
        <path class="cls-1" d="M846.5,3.7c8.6-.1,16.1,7.1,15.9,15.8.2,8.8-7.3,16-15.9,15.9-8.7.2-16.1-7.2-15.9-15.9-.2-8.8,7.2-16,15.9-15.8ZM846.6,7c-6.9,0-12.2,5.3-12.2,12.5s5.3,12.5,12.2,12.5c6.7,0,12.3-5.5,12.1-12.5.1-6.9-5.4-12.6-12.1-12.5Z"/>
      </g>
    </g>
  </g>
</svg>