<?xml version="1.0" encoding="UTF-8"?>
<svg xmlns="http://www.w3.org/2000/svg" version="1.1" viewBox="0 0 309.4 40.7">
  <defs>
    <style>
      .cls-1 {
        fill: #ffbf3f;
      }
    </style>
  </defs>
  <!-- Generator: Adobe Illustrator 28.7.1, SVG Export Plug-In . SVG Version: 1.2.0 Build 142)  -->
  <g>
    <g id="Layer_1">
      <g>
        <path class="cls-1" d="M5.5,27.8c2.6,3.5,5.4,5.7,9.6,5.7s5.6-1.7,5.6-4.3-1.2-3.2-5-4.9l-4.2-1.9c-6-2.7-9.5-6.1-9.5-11.3S7.6,0,15,0s10.5,2.9,13,7.4l-5.5,4.2c-2-3-4.5-4.5-7.5-4.5s-4.9,1.4-4.9,3.8,1.2,3,4.6,4.5l4.5,2c6.6,2.9,9.7,6.2,9.7,11.5s-5.9,11.8-13.7,11.8S3,37.3,0,32l5.5-4.2Z"/>
        <path class="cls-1" d="M74.4,0v40h-8v-20.9l-9.9,12.4h-2.6l-9.9-12.4v20.9h-8V0h2.6l16.6,21.2L71.8,0h2.6Z"/>
        <path class="cls-1" d="M102,0c11.3-.2,21.1,9.1,20.9,20.3.2,11.2-9.6,20.6-20.9,20.3-11.3.2-21-9.1-20.8-20.3C81,9.1,90.7-.2,102,0ZM102,7.4c-7.3,0-12.6,5.4-12.6,12.9s5.4,12.9,12.6,12.9,12.6-5.4,12.6-12.9-5.4-12.9-12.6-12.9Z"/>
        <path class="cls-1" d="M148.2,0c11.3-.2,21.1,9.1,20.9,20.3.2,11.2-9.6,20.6-20.9,20.3-11.3.2-21-9.1-20.8-20.3C127.2,9.1,136.9-.2,148.2,0ZM148.3,7.4c-7.3,0-12.6,5.4-12.6,12.9s5.4,12.9,12.6,12.9,12.6-5.4,12.6-12.9-5.4-12.9-12.6-12.9Z"/>
        <path class="cls-1" d="M184,8h-12.5V.7h33.2v7.3h-12.6v32h-8V8Z"/>
        <path class="cls-1" d="M209.9.7h8v15h17.4V.7h8v39.2h-8v-16.9h-17.4v16.9h-8V.7Z"/>
        <path class="cls-1" d="M252.3.7h8v32h17.2v7.3h-25.2V.7Z"/>
        <path class="cls-1" d="M295.9,24.5v15.5h-8v-15.4l-13.6-23.8h8.9l8.7,15.6,8.6-15.6h8.9l-13.5,23.8Z"/>
      </g>
    </g>
  </g>
</svg>