<?xml version="1.0" encoding="UTF-8"?>
<svg xmlns="http://www.w3.org/2000/svg" version="1.1" viewBox="0 0 525.3 23">
  <defs>
    <style>
      .cls-1 {
        fill: #ffbf3f;
      }
    </style>
  </defs>
  <!-- Generator: Adobe Illustrator 28.7.1, SVG Export Plug-In . SVG Version: 1.2.0 Build 142)  -->
  <g>
    <g id="Layer_1">
      <g>
        <path class="cls-1" d="M0,.4h7.8c4.3,0,7.1,2.7,7.1,6.4s-2.8,6.5-7.1,6.5H2.6v9.3H0V.4ZM7.8,11c2.8,0,4.5-1.7,4.5-4.1s-1.6-4.1-4.5-4.1H2.6v8.2h5.1Z"/>
        <path class="cls-1" d="M30.2,18.1h-10.9l-1.9,4.5h-2.8L24.3,0h1l9.7,22.6h-2.8l-1.9-4.5ZM24.7,4.8l-4.5,11h8.9l-4.5-11Z"/>
        <path class="cls-1" d="M53.3,22.6l-6.9-9.4h-4.8v9.4h-2.6V.4h7.8c4.3,0,7.1,2.7,7.1,6.4s-1.8,5.3-4.7,6.2l7.1,9.7h-3.1ZM41.6,10.9h5.1c2.9,0,4.5-1.6,4.5-4.1s-1.7-4.1-4.5-4.1h-5.1v8.2Z"/>
        <path class="cls-1" d="M64.6,2.7h-7.8V.4h18.3v2.4h-7.9v19.9h-2.6V2.7Z"/>
        <path class="cls-1" d="M96.5.4v22.6h-.9l-14.2-17.1v16.7h-2.6V0h.9l14.2,17.1V.4h2.6Z"/>
        <path class="cls-1" d="M102.7.4h14.3v2.4h-11.6v6.8h8.9v2.4h-8.9v8.4h12v2.4h-14.7V.4Z"/>
        <path class="cls-1" d="M136.1,22.6l-6.9-9.4h-4.8v9.4h-2.6V.4h7.8c4.3,0,7.1,2.7,7.1,6.4s-1.8,5.3-4.7,6.2l7.1,9.7h-3.1ZM124.4,10.9h5.1c2.9,0,4.5-1.6,4.5-4.1s-1.7-4.1-4.5-4.1h-5.1v8.2Z"/>
        <path class="cls-1" d="M181.9.4l-8.4,22.6h-.9l-7.1-17.7-7.1,17.7h-.9L149,.4h2.9l6.1,17L165,0h.9l7,17.3L179,.4h2.9Z"/>
        <path class="cls-1" d="M186.5.4h2.6v22.3h-2.6V.4Z"/>
        <path class="cls-1" d="M200.6,2.7h-7.8V.4h18.3v2.4h-7.9v19.9h-2.6V2.7Z"/>
        <path class="cls-1" d="M214.8.4h2.6v9.2h12.5V.4h2.6v22.3h-2.6v-10.7h-12.5v10.7h-2.6V.4Z"/>
        <path class="cls-1" d="M248.4,16.8c1.7,2.5,3.7,3.8,6.2,3.8s4.5-1.5,4.5-3.7-1.2-2.7-3.7-3.9l-2.5-1.2c-3.1-1.5-5-3-5-6S251,0,254.6,0s5.5,1.5,7,3.8l-1.9,1.5c-1.2-1.8-3.1-2.8-5.1-2.8s-3.9,1.2-3.9,3.2.1,1.2.4,1.6c.6.8,1.4,1.3,3.1,2.1l2.5,1.2c3.5,1.7,5.2,3.3,5.2,6.2s-3,6.2-7.2,6.2-6.4-1.8-8.2-4.8l2-1.5Z"/>
        <path class="cls-1" d="M277.1,0c6.2-.1,11.7,5.1,11.6,11.5.1,6.4-5.3,11.6-11.6,11.5-6.3.1-11.7-5.2-11.5-11.5-.1-6.4,5.2-11.6,11.5-11.5ZM277.1,2.4c-5,0-8.8,3.9-8.8,9s3.8,9.1,8.8,9.1c4.9,0,8.9-4,8.8-9.1.1-5-3.9-9.1-8.8-9Z"/>
        <path class="cls-1" d="M293.1.4h2.6v13.6c0,4.3,2.6,6.6,6.2,6.6s6.2-2.3,6.2-6.6V.4h2.6v13.4c0,5.8-3.7,9.2-8.8,9.2s-8.9-3.4-8.9-9.2V.4Z"/>
        <path class="cls-1" d="M322,2.7h-7.8V.4h18.3v2.4h-7.9v19.9h-2.6V2.7Z"/>
        <path class="cls-1" d="M336.2.4h2.6v9.2h12.5V.4h2.6v22.3h-2.6v-10.7h-12.5v10.7h-2.6V.4Z"/>
        <path class="cls-1" d="M360.4,16.8c1.7,2.5,3.7,3.8,6.2,3.8s4.5-1.5,4.5-3.7-1.2-2.7-3.7-3.9l-2.5-1.2c-3.1-1.5-5-3-5-6S362.9,0,366.6,0s5.5,1.5,7,3.8l-1.9,1.5c-1.2-1.8-3.1-2.8-5.1-2.8s-3.9,1.2-3.9,3.2.1,1.2.4,1.6c.6.8,1.4,1.3,3.1,2.1l2.5,1.2c3.5,1.7,5.2,3.3,5.2,6.2s-3,6.2-7.2,6.2-6.4-1.8-8.2-4.8l2-1.5Z"/>
        <path class="cls-1" d="M384.3,2.7h-7.8V.4h18.3v2.4h-7.9v19.9h-2.6V2.7Z"/>
        <path class="cls-1" d="M409.6,18.1h-10.9l-1.9,4.5h-2.8L403.6,0h1l9.7,22.6h-2.8l-1.9-4.5ZM404.1,4.8l-4.5,11h8.9l-4.5-11Z"/>
        <path class="cls-1" d="M421.3,2.7h-7.8V.4h18.3v2.4h-7.9v19.9h-2.6V2.7Z"/>
        <path class="cls-1" d="M435.5.4h14.3v2.4h-11.6v6.8h8.9v2.4h-8.9v8.4h12v2.4h-14.7V.4Z"/>
        <path class="cls-1" d="M464,.4h13.9v2.4h-11.3v7.7h9.4v2.4h-9.4v9.9h-2.6V.4Z"/>
        <path class="cls-1" d="M491.6,0c6.2-.1,11.7,5.1,11.6,11.5.1,6.4-5.3,11.6-11.6,11.5-6.3.1-11.7-5.2-11.5-11.5-.1-6.4,5.2-11.6,11.5-11.5ZM491.7,2.4c-5,0-8.8,3.9-8.8,9s3.8,9.1,8.8,9.1c4.9,0,8.9-4,8.8-9.1.1-5-3.9-9.1-8.8-9Z"/>
        <path class="cls-1" d="M522.2,22.6l-6.9-9.4h-4.8v9.4h-2.6V.4h7.8c4.3,0,7.1,2.7,7.1,6.4s-1.8,5.3-4.7,6.2l7.1,9.7h-3.1ZM510.5,10.9h5.1c2.9,0,4.5-1.6,4.5-4.1s-1.7-4.1-4.5-4.1h-5.1v8.2Z"/>
      </g>
    </g>
  </g>
</svg>