<?xml version="1.0" encoding="UTF-8"?>
<svg xmlns="http://www.w3.org/2000/svg" version="1.1" viewBox="0 0 377.4 23.8">
  <defs>
    <style>
      .cls-1 {
        fill: #ffbf3f;
      }
    </style>
  </defs>
  <!-- Generator: Adobe Illustrator 28.7.1, SVG Export Plug-In . SVG Version: 1.2.0 Build 142)  -->
  <g>
    <g id="Layer_1">
      <g>
        <path class="cls-1" d="M12.2,0C16.6,0,20.3,2.1,22.3,5.7l-3.5,2.5c-1.6-2.6-3.8-3.9-6.6-3.9-4.3,0-7.4,3.2-7.4,7.6s3.1,7.5,7.4,7.5,4.9-1.3,6.6-3.9l3.5,2.5c-2,3.6-5.7,5.7-10.1,5.7C5.5,23.9-.1,18.5,0,11.9-.1,5.3,5.6-.1,12.2,0Z"/>
        <path class="cls-1" d="M26.1.4h4.7v13.8c0,3.3,2.1,5.2,5,5.2s5-1.9,5-5.2V.4h4.7v13.4c0,6.1-4.2,9.9-9.7,9.9s-9.7-3.8-9.7-9.9V.4Z"/>
        <path class="cls-1" d="M52.1,16.3c1.5,2,3.1,3.3,5.6,3.3s3.3-1,3.3-2.5-.7-1.8-2.9-2.8l-2.5-1.1c-3.5-1.6-5.6-3.5-5.6-6.6S53.3,0,57.7,0s6.1,1.7,7.6,4.3l-3.2,2.5c-1.2-1.8-2.6-2.6-4.4-2.6s-2.8.8-2.8,2.2.7,1.8,2.7,2.6l2.6,1.1c3.9,1.7,5.7,3.6,5.7,6.7s-3.4,6.9-8,6.9-7.1-2-8.9-5.1l3.2-2.4Z"/>
        <path class="cls-1" d="M75.1,4.7h-7.3V.4h19.4v4.2h-7.4v18.7h-4.7V4.7Z"/>
        <path class="cls-1" d="M100.6,0c6.6-.1,12.3,5.3,12.2,11.9.1,6.6-5.6,12-12.2,11.9-6.6.1-12.3-5.3-12.2-11.9C88.4,5.3,94-.1,100.6,0ZM100.7,4.3c-4.2,0-7.4,3.1-7.4,7.5s3.1,7.5,7.4,7.5,7.4-3.1,7.4-7.5-3.2-7.5-7.4-7.5Z"/>
        <path class="cls-1" d="M139.3,0v23.3h-4.7v-12.2l-5.8,7.2h-1.5l-5.8-7.2v12.2h-4.7V0h1.5l9.7,12.4L137.7,0h1.5Z"/>
        <path class="cls-1" d="M144.5.4h4.7v22.9h-4.7V.4Z"/>
        <path class="cls-1" d="M171.3,19.1v4.2h-18.8v-1.3l11.5-17.4h-10V.4h17.2v1.3l-11.5,17.4h11.5Z"/>
        <path class="cls-1" d="M174.9.4h15.4v4.2h-10.7v4.7h7.9v4h-7.9v5.8h11.2v4.2h-15.8V.4Z"/>
        <path class="cls-1" d="M194.8.4h7.5c7.3,0,12.6,4.6,12.5,11.4.1,6.6-5.2,11.6-12.5,11.5h-7.5V.4ZM202.3,19.1c4.6,0,7.7-2.9,7.7-7.3s-3-7.2-7.7-7.2h-2.8v14.5h2.8Z"/>
        <path class="cls-1" d="M238.7,23.4h-10.2V.4h8.1c4.2,0,7.3,2.6,7.3,6.4s-.6,3.1-1.7,4.1c2.5.9,4.1,2.9,4.1,5.7,0,4-3.1,6.7-7.5,6.7ZM233,4.4v5.2h3.2c1.9,0,3-1,3-2.6s-1.1-2.6-3-2.6h-3.2ZM238.4,13.6h-5.4v5.8h5.4c2,0,3.3-1.1,3.3-2.9s-1.2-2.9-3.3-2.9Z"/>
        <path class="cls-1" d="M263.3,20.4h-9.4l-1.3,3h-5L257.8,0h1.6l10.2,23.3h-5l-1.3-3ZM258.6,8.8l-3.1,7.7h6.1l-3.1-7.7Z"/>
        <path class="cls-1" d="M292.2.4v23.3h-1.6l-13.3-14.2v13.8h-4.7V0h1.5l13.3,14.1V.4h4.7Z"/>
        <path class="cls-1" d="M312,23.4l-9.8-12v12h-4.7V.4h4.7v10.6l8.8-10.6h5.6l-8.8,10.8,9.9,12.1h-5.7Z"/>
        <path class="cls-1" d="M320.8.4h4.7v22.9h-4.7V.4Z"/>
        <path class="cls-1" d="M350.2.4v23.3h-1.6l-13.3-14.2v13.8h-4.7V0h1.5l13.3,14.1V.4h4.7Z"/>
        <path class="cls-1" d="M366.4,0c4,0,7.4,1.8,9.7,5l-3.3,2.7c-1.6-2.3-3.8-3.4-6.4-3.4-4.4,0-7.4,3.2-7.4,7.5s3.1,7.7,7.6,7.7,4.8-1.1,6-2.8v-1.9h-6.3v-4.1h11v6.8c-1,1.8-2.5,3.4-4.5,4.5-1.9,1.1-4.1,1.7-6.5,1.7-6.7.1-12.4-5.3-12.3-11.9-.1-6.6,5.5-12,12.3-11.9Z"/>
      </g>
    </g>
  </g>
</svg>