<?xml version="1.0" encoding="UTF-8"?>
<svg xmlns="http://www.w3.org/2000/svg" version="1.1" viewBox="0 0 217.6 58">
  <defs>
    <style>
      .cls-1 {
        fill: #fff;
      }
    </style>
  </defs>
  <!-- Generator: Adobe Illustrator 28.7.1, SVG Export Plug-In . SVG Version: 1.2.0 Build 142)  -->
  <g>
    <g id="Layer_1">
      <g>
        <path class="cls-1" d="M10.2,1.7c3.5,0,6.5,1.6,8.2,4.2l-1.7,1.4c-1.5-2.2-3.7-3.5-6.4-3.5-4.5,0-7.9,3.5-7.9,8s3.4,8,7.9,8,4.9-1.3,6.4-3.5l1.7,1.4c-1.6,2.6-4.7,4.2-8.2,4.2C4.7,22.2-.1,17.6,0,11.9-.1,6.3,4.7,1.6,10.2,1.7Z"/>
        <path class="cls-1" d="M28.7,6.9c4.2,0,7.7,3.4,7.6,7.6,0,4.1-3.5,7.7-7.6,7.6-4.2,0-7.6-3.5-7.6-7.6,0-4.2,3.5-7.7,7.6-7.6ZM28.7,9c-3,0-5.3,2.4-5.3,5.5s2.3,5.4,5.2,5.4,5.3-2.4,5.3-5.4-2.3-5.5-5.3-5.5Z"/>
        <path class="cls-1" d="M61.6,21.8h-2.3v-8.8c0-2.4-1.3-3.9-3.4-3.9s-3.7,1.6-3.7,3.7v9.1h-2.3v-8.8c0-2.4-1.3-3.9-3.5-3.9s-3.7,1.6-3.7,3.9v8.8h-2.3V7.2h2.2v1.5c1-1.2,2.5-1.9,4.3-1.9s3.6.9,4.5,2.5c1.1-1.5,2.8-2.5,5-2.5,3.3,0,5.3,2.3,5.3,5.7v9.1Z"/>
        <path class="cls-1" d="M67.9,15.2c.3,2.9,2.5,4.8,5.3,4.8s3.1-.7,4.5-2l1.3,1.6c-1.5,1.6-3.5,2.5-5.8,2.5-4.3,0-7.7-3.3-7.7-7.6s3.3-7.6,7.4-7.6,6.6,2.7,6.6,6.6,0,1.1-.2,1.7h-11.5ZM77.2,13.2c0-2.6-1.9-4.2-4.3-4.2s-4.4,1.7-4.9,4.2h9.2Z"/>
        <path class="cls-1" d="M103.8,7.2l-6.8,14.9h-.8l-6.9-14.9h2.4l4.8,11,4.8-11h2.4Z"/>
        <path class="cls-1" d="M108.3,0c.9,0,1.7.7,1.7,1.7s-.7,1.7-1.7,1.7-1.7-.7-1.7-1.7.8-1.7,1.7-1.7ZM107.2,7.2h2.3v14.5h-2.3V7.2Z"/>
        <path class="cls-1" d="M114.6,17.7c1.4,1.4,2.5,2.2,4.2,2.2s2.8-.8,2.8-2.1-.7-1.6-2.5-2.3l-1.4-.6c-2.4-1-3.6-2.1-3.6-4s2.1-4.1,4.9-4.1,3.7.9,4.9,2.3l-1.4,1.4c-1-1-2.2-1.6-3.6-1.6s-2.4.7-2.4,1.8.6,1.4,2.4,2.1l1.3.6c2.7,1.2,3.9,2.3,3.9,4.3s-.5,2.4-1.5,3.2c-1,.7-2.2,1.1-3.6,1.1-2.4,0-4.4-1.2-5.7-2.8l1.5-1.5Z"/>
        <path class="cls-1" d="M129.2,0c.9,0,1.7.7,1.7,1.7s-.7,1.7-1.7,1.7-1.7-.7-1.7-1.7.8-1.7,1.7-1.7ZM128.1,7.2h2.3v14.5h-2.3V7.2Z"/>
        <path class="cls-1" d="M143.4,21.8c-.9.2-1.7.3-2.4.3-3,0-4.9-1.5-4.9-4.7v-8.1h-2.5v-2.1h2.5v-4h2.3v4h4.5v2.1h-4.5v7.9c0,2.1,1.1,2.8,3.1,2.8s1.2,0,1.9-.2v1.9Z"/>
        <path class="cls-1" d="M155,7.2h2.3v8.9c0,2.4,1.6,3.9,3.8,3.9s3.7-1.6,3.7-3.9V7.2h2.3v8.8c0,3.7-2.6,6.1-6,6.1s-6-2.4-6-6.1V7.2Z"/>
        <path class="cls-1" d="M172,17.7c1.4,1.4,2.5,2.2,4.2,2.2s2.8-.8,2.8-2.1-.7-1.6-2.5-2.3l-1.4-.6c-2.4-1-3.6-2.1-3.6-4s2.1-4.1,4.9-4.1,3.7.9,4.9,2.3l-1.4,1.4c-1-1-2.2-1.6-3.6-1.6s-2.4.7-2.4,1.8.6,1.4,2.4,2.1l1.3.6c2.7,1.2,3.9,2.3,3.9,4.3s-.5,2.4-1.5,3.2-2.2,1.1-3.6,1.1c-2.4,0-4.4-1.2-5.7-2.8l1.5-1.5Z"/>
        <path class="cls-1" d="M204.7,21.8h-2.2v-1.9c-1.1,1.4-2.8,2.2-4.9,2.2s-5.1-1.6-5.1-4.1,2.1-4.1,5.2-4.1h4.6v-1.3c0-2.4-1.3-3.7-3.5-3.7s-3,.8-4.2,2.3l-1.5-1.3c1.3-2.2,3.5-3.2,5.9-3.2,3.4,0,5.7,2.1,5.7,5.9v9ZM202.4,15.8h-4.3c-2,0-3.1.7-3.1,2.1s1.3,2.3,3,2.3,4.5-1.8,4.5-4v-.4Z"/>
        <path class="cls-1" d="M217.6,21.8c-.9.2-1.7.3-2.4.3-3,0-4.9-1.5-4.9-4.7v-8.1h-2.5v-2.1h2.5v-4h2.3v4h4.5v2.1h-4.5v7.9c0,2.1,1.1,2.8,3.1,2.8s1.2,0,1.9-.2v1.9Z"/>
        <path class="cls-1" d="M8.8,58c-2.3,0-4.4-1-5.5-2.6v2.3H1.1v-22.4h2.3v10c1.2-1.5,3.2-2.5,5.3-2.5,4.1,0,7.2,3.3,7.2,7.6s-3.1,7.6-7.2,7.6ZM8.4,44.9c-2.7,0-5,1.8-5,5.5s2.5,5.5,5,5.5,5.2-2.4,5.2-5.5-2.2-5.5-5.2-5.5Z"/>
        <path class="cls-1" d="M26.6,42.8c4.2,0,7.7,3.4,7.6,7.6,0,4.1-3.5,7.7-7.6,7.6-4.2,0-7.6-3.5-7.6-7.6,0-4.2,3.5-7.7,7.6-7.6ZM26.6,44.9c-3,0-5.3,2.4-5.3,5.5s2.3,5.4,5.2,5.4,5.3-2.4,5.3-5.4-2.3-5.5-5.3-5.5Z"/>
        <path class="cls-1" d="M44.8,42.8c4.2,0,7.7,3.4,7.6,7.6,0,4.1-3.5,7.7-7.6,7.6-4.2,0-7.6-3.5-7.6-7.6,0-4.2,3.5-7.7,7.6-7.6ZM44.8,44.9c-3,0-5.3,2.4-5.3,5.5s2.3,5.4,5.2,5.4,5.3-2.4,5.3-5.4-2.3-5.5-5.3-5.5Z"/>
        <path class="cls-1" d="M64.4,57.6c-.9.2-1.7.3-2.4.3-3,0-4.9-1.5-4.9-4.7v-8.1h-2.4v-2.1h2.4v-4h2.3v4h4.5v2.1h-4.5v7.9c0,2.1,1.1,2.8,3.1,2.8s1.2,0,1.9-.2v1.9Z"/>
        <path class="cls-1" d="M79.9,57.6h-2.3v-8.8c0-2.4-1.4-3.9-3.6-3.9s-3.8,1.6-3.8,3.9v8.8h-2.3v-22.4h2.3v9.5c1-1.2,2.5-2,4.4-2,3.3,0,5.4,2.3,5.4,5.7v9.1Z"/>
        <path class="cls-1" d="M104.7,45.1l-.7,5.4h2.9v2h-3.2l-.7,5.2h-1.9l.7-5.2h-5.7l-.7,5.2h-1.9l.7-5.2h-2.6v-2h2.9l.7-5.4h-2.9v-2h3.2l.7-5.2h2l-.7,5.2h5.7l.7-5.2h2l-.7,5.2h2.6v2h-2.9ZM102,50.5l.7-5.4h-5.7l-.7,5.4h5.7Z"/>
        <path class="cls-1" d="M123.5,55.5v2.1h-13.7v-.6l7-7.5c2.4-2.5,3.5-4,3.5-5.9s-1.5-3.9-3.8-3.9-2.2.4-2.9,1.2-1.1,1.8-1.1,2.9,0,1.1.2,1.6h-2.4c-.1-.5-.2-1.1-.2-1.7,0-3.1,2.5-6.1,6.4-6.1s6.2,2.6,6.2,6-.2,1.8-.6,2.6c-.7,1.7-1.8,2.9-3.6,4.8l-4.4,4.6h9.3Z"/>
        <path class="cls-1" d="M133.2,37.9v19.7h-2.3v-17l-4.3,1.3-.6-2,6.3-2.1h.9Z"/>
        <path class="cls-1" d="M143.9,58c-3,0-5.4-1.7-6.7-4.1l1.6-1.2c1.3,1.9,2.8,3.1,5,3.1s4.6-1.8,4.6-4.4-1.8-4.1-5-4.1h-1.9v-.7l5.2-6.6h-8.2v-2.2h11.8v.7l-5.2,6.7c3,.3,5.7,2.4,5.7,6.1s-3.3,6.6-7,6.6Z"/>
      </g>
    </g>
  </g>
</svg>