<svg id="Layer_1" data-name="Layer 1" xmlns="http://www.w3.org/2000/svg" viewBox="0 0 62.19 50.4"><defs><style>.cls-1{fill:#76236c;}.cls-2{fill:none;stroke:#fff;stroke-linecap:round;stroke-linejoin:round;stroke-width:1.11px;}.cls-3{fill:#fff;}.cls-4{fill:#77256c;}</style></defs><path class="cls-1" d="M31.09,50.4C13.92,50.4,0,40.21,0,27.63S13.92,4.86,31.09,4.86s31.1,10.2,31.1,22.77S48.27,50.4,31.09,50.4"/><path class="cls-2" d="M52.43,25.71l-3,3L38.25,17.55l3-3M30.74,20.4h5a3.07,3.07,0,0,0,2.12-.87l1.23-1.21m0,0,7.48,7.48"/><path class="cls-3" d="M50.29,23.58a.87.87,0,1,1-.87-.88.87.87,0,0,1,.87.88"/><path class="cls-2" d="M42.35,30.93,47,26.29m-35.62-.58,3,3L25.55,17.55l-3-3m1.74,8.55a3.54,3.54,0,0,0,0,5m.17,4.82L23,34.33a1.79,1.79,0,0,1-2.48.08,1.76,1.76,0,0,1,0-2.54l6.62-6.63a2.73,2.73,0,0,1,2-.8h3.25l1.46,1.47a3.53,3.53,0,0,0,4,.69.88.88,0,0,0,.25-1.43l-4-4a2.78,2.78,0,0,0-2-.81h-4A3,3,0,0,1,26,19.53l-1.1-1m-.11-.17-8.06,8.06m4.73,4.55-4.64-4.64M39.41,38a1.76,1.76,0,1,0,2.49-2.5l-3-3a1.76,1.76,0,0,0-2.49,2.5Zm-3,2a1.77,1.77,0,0,0,2.5-2.5l-2-2a1.76,1.76,0,1,0-2.49,2.49Zm4.41-5.57a1.76,1.76,0,1,0,2.49-2.49l-2-2a1.76,1.76,0,1,0-2.49,2.5ZM33.4,41.93a1.76,1.76,0,0,0,2.49-2.5l-1-1a1.76,1.76,0,0,0-2.49,2.49Zm-5-8-4,4a1.76,1.76,0,0,1-2.5-2.49l4-4m5,5-3.46,3.47a1.76,1.76,0,1,1-2.5-2.49l2-2M32,40.33l-1.59,1.58a1.76,1.76,0,0,1-2.49-2.49l1-1"/><path class="cls-3" d="M13.51,23.58a.87.87,0,1,0,.87-.88.87.87,0,0,0-.87.88"/><path class="cls-2" d="M42.35,25.92a3.55,3.55,0,0,1,0,5"/><path class="cls-4" d="M45.31,6.6C45.3,2.87,41.59-.08,37,0s-8.29,3.18-8.29,6.91,3.72,6.67,8.3,6.59,8.3-3.18,8.3-6.9"/></svg>