<?xml version="1.0" encoding="UTF-8"?>
<svg xmlns="http://www.w3.org/2000/svg" version="1.1" viewBox="0 0 203.9 50.4">
  <defs>
    <style>
      .cls-1 {
        fill: #ffbf3f;
      }

      .cls-2 {
        fill: #002d72;
      }
    </style>
  </defs>
  <!-- Generator: Adobe Illustrator 28.7.1, SVG Export Plug-In . SVG Version: 1.2.0 Build 142)  -->
  <g>
    <g id="Layer_1">
      <rect class="cls-1" width="203.9" height="50.4" rx="6.6" ry="6.6"/>
      <g>
        <path class="cls-2" d="M26.4,15.1h3.2v17h9.1v2.9h-12.3V15.1Z"/>
        <path class="cls-2" d="M43.9,28.6c.4,2.4,2.3,3.9,4.8,3.9s3-.6,4.3-1.7l1.5,2.2c-1.7,1.6-3.6,2.4-5.9,2.4-4.5,0-8-3.3-8-7.7,0-4.3,3.5-7.8,7.7-7.7,3.9,0,6.8,2.9,6.8,6.8s0,1.3-.2,2h-11ZM52,26.2c0-2.3-1.7-3.6-3.8-3.6s-3.8,1.4-4.3,3.6h8Z"/>
        <path class="cls-2" d="M70.5,35h-3v-1.7c-1.1,1.3-2.7,2-4.7,2-3.1,0-5.2-1.7-5.2-4.3s2.1-4.2,5.5-4.2h4.2v-1c0-2.1-1.1-3.2-3.2-3.2s-2.9.7-4.1,2.2l-1.8-1.9c1.5-2.1,3.7-3.2,6.2-3.2,3.6,0,6.1,2.2,6.1,6.2v9ZM67.3,29.1h-3.8c-1.7,0-2.6.6-2.6,1.8s1.1,2,2.6,2,3.8-1.5,3.8-3.5v-.3Z"/>
        <path class="cls-2" d="M83.4,23h-1c-2.5,0-4.3,1.5-4.3,4.1v7.9h-3.2v-14.8h3v1.9c1.1-1.3,2.6-2.1,4.3-2.1s.8,0,1.2.2v2.8Z"/>
        <path class="cls-2" d="M99.2,35h-3.2v-8.8c0-2.1-1.3-3.4-3.2-3.4s-3.4,1.4-3.4,3.4v8.8h-3.2v-14.8h3v1.4c1.1-1.2,2.6-1.8,4.4-1.8,3.5,0,5.5,2.4,5.5,5.9v9.3Z"/>
        <path class="cls-2" d="M131.1,14.8v20.2h-3.2v-12.5l-5.7,7.5h-1.1l-5.7-7.5v12.5h-3.2V14.8h1.1l8.4,11.1,8.4-11.1h1.1Z"/>
        <path class="cls-2" d="M142.7,19.9c4.3,0,8,3.5,7.9,7.7,0,4.2-3.6,7.8-7.9,7.7-4.3,0-7.9-3.6-7.8-7.7,0-4.3,3.6-7.8,7.8-7.7ZM142.7,22.7c-2.6,0-4.6,2.1-4.6,4.9s2,4.8,4.6,4.8,4.6-2.1,4.6-4.8-2-4.9-4.6-4.9Z"/>
        <path class="cls-2" d="M162.6,23h-1c-2.5,0-4.3,1.5-4.3,4.1v7.9h-3.2v-14.8h3v1.9c1.1-1.3,2.6-2.1,4.3-2.1s.8,0,1.2.2v2.8Z"/>
        <path class="cls-2" d="M167.4,28.6c.4,2.4,2.3,3.9,4.8,3.9s3-.6,4.3-1.7l1.5,2.2c-1.7,1.6-3.6,2.4-5.9,2.4-4.5,0-8-3.3-8-7.7,0-4.3,3.5-7.8,7.7-7.7,3.9,0,6.8,2.9,6.8,6.8s0,1.3-.2,2h-11ZM175.5,26.2c0-2.3-1.7-3.6-3.8-3.6s-3.8,1.4-4.3,3.6h8Z"/>
      </g>
    </g>
  </g>
</svg>