<?xml version="1.0" encoding="UTF-8"?>
<svg xmlns="http://www.w3.org/2000/svg" version="1.1" viewBox="0 0 129.4 25.4">
  <defs>
    <style>
      .cls-1 {
        fill: #002d72;
      }
    </style>
  </defs>
  <!-- Generator: Adobe Illustrator 28.7.1, SVG Export Plug-In . SVG Version: 1.2.0 Build 142)  -->
  <g>
    <g id="Layer_1">
      <g>
        <path class="cls-1" d="M0,.4h15.4v2.6H2.9v8.4h10.3v2.6H2.9v10.9H0V.4Z"/>
        <path class="cls-1" d="M30.4,0c6.9-.1,12.9,5.6,12.7,12.7.1,7-5.9,12.8-12.7,12.7-7,.1-12.9-5.7-12.7-12.7C17.5,5.7,23.5-.1,30.4,0ZM30.4,2.7c-5.5,0-9.7,4.3-9.7,10s4.2,10,9.7,10c5.4,0,9.8-4.4,9.7-10,.1-5.5-4.3-10.1-9.7-10Z"/>
        <path class="cls-1" d="M64.1,24.9l-7.6-10.3h-5.2v10.3h-2.9V.4h8.6c4.8,0,7.8,3,7.8,7.1s-1.9,5.9-5.2,6.8l7.8,10.6h-3.4ZM51.2,12h5.6c3.2,0,4.9-1.8,4.9-4.5s-1.8-4.5-4.9-4.5h-5.6v9Z"/>
        <path class="cls-1" d="M94,0v24.9h-2.9V7.4l-7.8,10.6h-1l-7.9-10.7v17.7h-2.9V0h1l10.2,14.2L93,0h1Z"/>
        <path class="cls-1" d="M124.3,20h-12l-2.1,5h-3L117.7,0h1.1l10.6,24.9h-3.1l-2.1-5ZM118.2,5.3l-4.9,12.1h9.8l-4.9-12.1Z"/>
      </g>
    </g>
  </g>
</svg>