<?xml version="1.0" encoding="UTF-8"?>
<svg xmlns="http://www.w3.org/2000/svg" version="1.1" viewBox="0 0 185.7 25">
  <defs>
    <style>
      .cls-1 {
        fill: #ffbf3f;
      }
    </style>
  </defs>
  <!-- Generator: Adobe Illustrator 28.7.1, SVG Export Plug-In . SVG Version: 1.2.0 Build 142)  -->
  <g>
    <g id="Layer_1">
      <g>
        <path class="cls-1" d="M8.5,3H0V.4h19.9v2.6h-8.6v21.7h-2.9V3Z"/>
        <path class="cls-1" d="M24,.4h2.9v10h13.6V.4h2.9v24.2h-2.9v-11.7h-13.6v11.7h-2.9V.4Z"/>
        <path class="cls-1" d="M64.7,19.7h-11.9l-2.1,4.9h-3L58.3,0h1.1l10.5,24.6h-3l-2.1-4.9ZM58.8,5.2l-4.8,11.9h9.7l-4.8-11.9Z"/>
        <path class="cls-1" d="M77.4,3h-8.5V.4h19.9v2.6h-8.6v21.7h-2.9V3Z"/>
        <path class="cls-1" d="M112.3,0c4.1,0,7.6,1.8,9.9,5l-2.2,1.7c-1.9-2.5-4.5-4-7.7-4-5.5-.1-9.7,4.4-9.6,9.8-.1,5.5,4.2,10.1,9.8,10,3.5,0,6.4-1.7,8.1-4.3v-3.3h-8.3v-2.6h11.1v6.5c-1.1,1.9-2.6,3.5-4.6,4.6-1.9,1.1-4.1,1.7-6.5,1.7-6.9.1-12.7-5.6-12.6-12.5C99.6,5.6,105.4-.1,112.3,0Z"/>
        <path class="cls-1" d="M128.7.4h15.5v2.6h-12.7v7.4h9.7v2.6h-9.7v9.1h13.1v2.6h-16V.4Z"/>
        <path class="cls-1" d="M155.4,3h-8.5V.4h19.9v2.6h-8.6v21.7h-2.9V3Z"/>
        <path class="cls-1" d="M171.1,18.2c1.8,2.8,4.1,4.1,6.8,4.1s4.9-1.6,4.9-4-1.3-2.9-4-4.3l-2.7-1.3c-3.3-1.6-5.5-3.3-5.5-6.5S173.9,0,177.8,0s6,1.7,7.6,4.1l-2.1,1.6c-1.3-1.9-3.3-3-5.5-3s-4.3,1.3-4.3,3.5.1,1.3.5,1.8c.6.9,1.5,1.4,3.4,2.3l2.7,1.3c3.8,1.9,5.7,3.6,5.7,6.8s-3.3,6.8-7.8,6.8-7-2-8.9-5.2l2.1-1.6Z"/>
      </g>
    </g>
  </g>
</svg>