<?xml version="1.0" encoding="UTF-8"?>
<svg xmlns="http://www.w3.org/2000/svg" version="1.1" viewBox="0 0 177.4 198">
  <defs>
    <style>
      .cls-1 {
        fill: #ffbf3f;
      }
    </style>
  </defs>
  <!-- Generator: Adobe Illustrator 28.7.1, SVG Export Plug-In . SVG Version: 1.2.0 Build 142)  -->
  <g>
    <g id="Layer_1">
      <g>
        <path class="cls-1" d="M46.4,0v41.3h-8.3v-21.6l-10.2,12.8h-2.7l-10.2-12.8v21.6H6.7V0h2.7l17.1,21.9L43.7,0h2.7Z"/>
        <path class="cls-1" d="M74.9,0c11.7-.2,21.8,9.4,21.6,21,.2,11.6-10,21.3-21.6,21-11.7.2-21.7-9.4-21.5-21C53.2,9.4,63.2-.2,74.9,0ZM74.9,7.7c-7.5,0-13,5.5-13,13.3s5.5,13.3,13,13.3,13-5.5,13-13.3-5.6-13.3-13-13.3Z"/>
        <path class="cls-1" d="M128.4,41.3l-10.5-14.3h-6.1v14.3h-8.3V.7h15.2c8.5,0,14.6,5.3,14.6,13.1s-2.7,9.3-7.1,11.5l11.5,15.9h-9.3ZM111.8,19.7h6.9c3.9,0,6.1-2.3,6.1-5.8s-2.4-5.8-6.1-5.8h-6.9v11.6Z"/>
        <path class="cls-1" d="M142.8.7h27.3v7.5h-19v8.2h13.9v7.1h-13.9v10.3h19.7v7.5h-28V.7Z"/>
        <path class="cls-1" d="M0,78.7h13.3c12.8-.1,22.3,8.2,22.1,20.1.2,11.7-9.3,20.6-22.1,20.4H0v-40.5ZM13.2,111.8c8.2,0,13.6-5.1,13.6-12.9s-5.3-12.7-13.6-12.7h-4.9v25.6h4.9Z"/>
        <path class="cls-1" d="M42.4,78.7h27.3v7.5h-19v8.2h13.9v7.1h-13.9v10.3h19.7v7.5h-28v-40.5Z"/>
        <path class="cls-1" d="M101.5,114h-16.6l-2.3,5.3h-8.9l18.1-41.3h2.8l18.1,41.3h-8.9l-2.3-5.3ZM93.2,93.5l-5.4,13.7h10.8l-5.4-13.7Z"/>
        <path class="cls-1" d="M118.2,78.7h8.3v33h17.8v7.5h-26v-40.5Z"/>
        <path class="cls-1" d="M153.3,106.8c2.6,3.6,5.5,5.9,10,5.9s5.8-1.7,5.8-4.5-1.3-3.3-5.2-5l-4.4-2c-6.2-2.8-9.8-6.3-9.8-11.7s5.8-11.5,13.5-11.5,10.9,3,13.4,7.7l-5.7,4.4c-2.1-3.1-4.7-4.7-7.7-4.7s-5,1.4-5,3.9,1.3,3.1,4.7,4.7l4.6,2c6.8,3,10,6.4,10,11.9s-6.1,12.2-14.2,12.2-12.5-3.5-15.7-9l5.7-4.3Z"/>
        <path class="cls-1" d="M7.8,156.7h13.3c12.8-.1,22.3,8.2,22.1,20.1.2,11.7-9.3,20.6-22.1,20.4H7.8v-40.5ZM21,189.8c8.2,0,13.6-5.1,13.6-12.9s-5.3-12.7-13.6-12.7h-4.9v25.6h4.9Z"/>
        <path class="cls-1" d="M69.3,156c11.7-.2,21.8,9.4,21.6,21,.2,11.6-10,21.3-21.6,21-11.7.2-21.7-9.4-21.5-21-.2-11.6,9.8-21.3,21.5-21ZM69.4,163.7c-7.5,0-13,5.5-13,13.3s5.5,13.3,13,13.3,13-5.5,13-13.3-5.6-13.3-13-13.3Z"/>
        <path class="cls-1" d="M132.5,156.7v41.3h-2.8l-23.5-25.1v24.3h-8.3v-41.3h2.7l23.5,24.9v-24.2h8.3Z"/>
        <path class="cls-1" d="M141.7,156.7h27.3v7.5h-19v8.2h13.9v7.1h-13.9v10.3h19.7v7.5h-28v-40.5Z"/>
      </g>
    </g>
  </g>
</svg>