<?xml version="1.0" encoding="utf-8"?>
<!-- Generator: Adobe Illustrator 25.0.1, SVG Export Plug-In . SVG Version: 6.00 Build 0)  -->
<svg version="1.1" id="Layer_1" xmlns="http://www.w3.org/2000/svg" xmlns:xlink="http://www.w3.org/1999/xlink" x="0px" y="0px"
	 viewBox="0 0 34.3 28" style="enable-background:new 0 0 34.3 28;" xml:space="preserve">
<style type="text/css">
	.st0{fill:#76236C;}
	.st1{fill:none;stroke:#FFFFFF;stroke-width:0.59;stroke-linecap:round;stroke-linejoin:round;}
	.st2{fill:#FFFFFF;}
	.st3{fill:#77256C;}
</style>
<path class="st0" d="M17.2,27.3c-9.1,0-16.4-5.4-16.4-12s7.4-12,16.4-12s16.4,5.4,16.4,12S26.2,27.3,17.2,27.3"/>
<path class="st1" d="M28.4,14.3l-1.6,1.6L20.9,10l1.6-1.6 M17,11.5h2.6c0.4,0,0.8-0.2,1.1-0.5l0.6-0.6 M21.4,10.4l4,4"/>
<path class="st2" d="M27.3,13.1c0,0.3-0.2,0.5-0.5,0.5c-0.2,0-0.5-0.2-0.5-0.4c0,0,0,0,0,0c0-0.3,0.2-0.5,0.5-0.5
	C27.1,12.7,27.3,12.9,27.3,13.1"/>
<path class="st1" d="M23.1,17l2.5-2.4 M6.7,14.3l1.6,1.6l5.9-5.9l-1.6-1.6 M13.6,12.9c-0.7,0.7-0.7,1.9,0,2.6c0,0,0,0,0,0
	 M13.6,18.1l-0.7,0.7c-0.4,0.4-0.9,0.4-1.3,0s-0.4-0.9,0-1.3l3.5-3.5c0.3-0.3,0.6-0.4,1-0.4h1.8l0.8,0.8c0.6,0.6,1.4,0.7,2.1,0.4
	c0.2-0.1,0.3-0.4,0.2-0.6c0-0.1-0.1-0.1-0.1-0.1l-2.1-2.1c-0.3-0.3-0.6-0.4-1-0.4h-2.1c-0.4,0-0.8-0.2-1.1-0.5l-0.6-0.6 M13.8,10.4
	l-4.3,4.3 M12.1,17l-2.4-2.5 M21.6,20.8c0.4,0.4,1,0.4,1.3,0s0.4-1,0-1.3l-1.6-1.6c-0.4-0.3-1-0.3-1.3,0.1c-0.3,0.3-0.3,0.8,0,1.2
	L21.6,20.8z M20,21.8c0.4,0.4,1,0.3,1.3,0c0.3-0.4,0.4-0.9,0-1.3l-1.1-1.1c-0.4-0.4-0.9-0.4-1.3,0c-0.4,0.4-0.4,0.9,0,1.3
	c0,0,0,0,0,0L20,21.8z M22.3,18.8c0.4,0.4,1,0.4,1.3,0s0.4-1,0-1.3l-1.1-1.1c-0.4-0.4-1-0.4-1.3,0s-0.4,1,0,1.3L22.3,18.8z
	 M18.4,22.8c0.4,0.4,0.9,0.4,1.3,0s0.4-0.9,0-1.3L19.2,21c-0.4-0.4-1-0.3-1.3,0c-0.3,0.4-0.4,0.9,0,1.3L18.4,22.8z M15.7,18.7
	l-2.1,2.1c-0.4,0.4-1,0.4-1.3,0s-0.4-1,0-1.3l2.1-2.1 M17,20l-1.8,1.8c-0.4,0.4-1,0.3-1.3,0c-0.3-0.4-0.4-0.9,0-1.3l1.1-1.1
	 M17.6,22l-0.8,0.8c-0.4,0.4-1,0.4-1.3,0s-0.4-1,0-1.3l0,0L16,21"/>
<path class="st2" d="M7.9,13.1c0,0.3,0.2,0.5,0.5,0.5l0,0c0.2,0,0.5-0.2,0.5-0.4c0,0,0,0,0,0c0-0.3-0.2-0.5-0.5-0.5
	C8.1,12.7,7.9,12.9,7.9,13.1"/>
<path class="st1" d="M23.1,14.4c0.7,0.7,0.7,1.9,0,2.6c0,0,0,0,0,0"/>
<path class="st3" d="M24.7,4.2c0-2-2-3.5-4.4-3.5s-4.4,1.7-4.4,3.7s2,3.5,4.4,3.5S24.7,6.1,24.7,4.2"/>
</svg>
