<?xml version="1.0" encoding="UTF-8"?>
<svg id="Layer_1" data-name="Layer 1" xmlns="http://www.w3.org/2000/svg" version="1.1" viewBox="0 0 127.2 34.6">
  <defs>
    <style>
      .cls-1 {
        fill: #fff;
        stroke-width: 0px;
      }
    </style>
  </defs>
  <path class="cls-1" d="M15.8,2.7c5.1,0,9.6,2.3,12.4,6.3l-2.7,2.2c-2.3-3.2-5.6-5.1-9.7-5.1-6.9-.1-12.2,5.6-12,12.5-.1,7.1,5.2,12.9,12.2,12.7,4.4,0,8-2.2,10.1-5.5v-4.2h-10.3v-3.3h13.9v8.2c-1.3,2.4-3.3,4.4-5.7,5.8-2.4,1.4-5.1,2.2-8.1,2.2C7.1,34.7-.1,27.5,0,18.7-.1,9.8,7.1,2.6,15.8,2.7Z"/>
  <path class="cls-1" d="M52.8,34.1h-3.3v-2.9c-1.7,2.2-4.3,3.5-7.5,3.5s-7.8-2.5-7.8-6.4,3.2-6.4,8-6.4h7.1v-2c0-3.7-2.1-5.8-5.4-5.8s-4.7,1.2-6.5,3.6l-2.3-2c2-3.4,5.4-5,9.1-5,5.3,0,8.7,3.3,8.7,9.3v14ZM49.2,24.8h-6.7c-3.1,0-4.8,1.1-4.8,3.2s2,3.6,4.6,3.6,6.9-2.8,6.9-6.3v-.6Z"/>
  <path class="cls-1" d="M62.1,0c1.4,0,2.6,1.2,2.6,2.6s-1.1,2.6-2.6,2.6-2.7-1.1-2.7-2.6,1.2-2.6,2.7-2.6ZM60.3,11.3h3.5v22.8h-3.5V11.3Z"/>
  <path class="cls-1" d="M90.1,34.1h-3.5v-13.9c0-3.6-2.1-6.1-5.6-6.1s-5.9,2.5-5.9,6.1v13.9h-3.5V11.3h3.3v2.4c1.7-1.9,4.1-2.9,6.9-2.9,5.2,0,8.3,3.6,8.3,9v14.3Z"/>
  <path class="cls-1" d="M127.2,34.1h-3.3v-2.9c-1.7,2.2-4.3,3.5-7.5,3.5s-7.8-2.5-7.8-6.4,3.2-6.4,8-6.4h7.1v-2c0-3.7-2.1-5.8-5.4-5.8s-4.7,1.2-6.5,3.6l-2.3-2c2-3.4,5.4-5,9.1-5,5.3,0,8.7,3.3,8.7,9.3v14ZM123.7,24.8h-6.7c-3.1,0-4.8,1.1-4.8,3.2s2,3.6,4.6,3.6,6.8-2.8,6.8-6.3v-.6Z"/>
</svg>