<?xml version="1.0" encoding="UTF-8"?>
<svg id="Layer_1" data-name="Layer 1" xmlns="http://www.w3.org/2000/svg" version="1.1" viewBox="0 0 404.8 44.5">
  <defs>
    <style>
      .cls-1 {
        fill: #fff;
        stroke-width: 0px;
      }
    </style>
  </defs>
  <path class="cls-1" d="M6.8,12.8h5.6v3.2h-5.6v19.5h-3.5v-19.5H0v-3.2h3.2v-5.4C3.2,2.4,6.1,0,10.6,0s1.9.1,2.8.4v3c-.7,0-1.4-.1-2-.1-3,0-4.7,1.1-4.7,4.3v5.2ZM19.1,1.5c1.4,0,2.6,1.2,2.6,2.6s-1.1,2.6-2.6,2.6-2.7-1.1-2.7-2.6,1.2-2.6,2.7-2.6ZM17.3,12.8h3.5v22.8h-3.5V12.8Z"/>
  <path class="cls-1" d="M47.1,35.6h-3.5v-13.9c0-3.6-2.1-6.1-5.6-6.1s-5.9,2.5-5.9,6.1v13.9h-3.5V12.8h3.3v2.4c1.7-1.9,4.1-2.9,6.9-2.9,5.2,0,8.3,3.6,8.3,9v14.3Z"/>
  <path class="cls-1" d="M71.4,35.6h-3.3v-2.9c-1.7,2.2-4.3,3.5-7.5,3.5s-7.8-2.5-7.8-6.4,3.2-6.4,8-6.4h7.1v-2c0-3.7-2.1-5.8-5.4-5.8s-4.7,1.2-6.5,3.6l-2.3-2c2-3.4,5.4-5,9.1-5,5.3,0,8.7,3.3,8.7,9.3v14ZM67.9,26.3h-6.7c-3.1,0-4.8,1.1-4.8,3.2s2,3.6,4.6,3.6,6.9-2.8,6.9-6.3v-.6Z"/>
  <path class="cls-1" d="M97.4,35.6h-3.5v-13.9c0-3.6-2.1-6.1-5.6-6.1s-5.9,2.5-5.9,6.1v13.9h-3.5V12.8h3.3v2.4c1.7-1.9,4.1-2.9,6.9-2.9,5.2,0,8.3,3.6,8.3,9v14.3Z"/>
  <path class="cls-1" d="M115,12.3c3.9,0,7.2,1.9,9.2,5l-2.5,2.1c-1.8-2.5-4-3.7-6.7-3.7-4.6,0-8.1,3.8-8.1,8.6s3.5,8.6,8.1,8.6,4.8-1.2,6.6-3.6l2.5,2c-2,3-5.3,5-9.2,5-6.5,0-11.7-5.3-11.7-11.9-.1-6.5,5.3-12,11.7-11.9Z"/>
  <path class="cls-1" d="M132,1.5c1.4,0,2.6,1.2,2.6,2.6s-1.1,2.6-2.6,2.6-2.7-1.1-2.7-2.6,1.2-2.6,2.7-2.6ZM130.2,12.8h3.5v22.8h-3.5V12.8Z"/>
  <path class="cls-1" d="M160.1,35.6h-3.5v-13.9c0-3.6-2.1-6.1-5.6-6.1s-5.9,2.5-5.9,6.1v13.9h-3.5V12.8h3.3v2.4c1.7-1.9,4.1-2.9,6.9-2.9,5.2,0,8.3,3.6,8.3,9v14.3Z"/>
  <path class="cls-1" d="M189.1,12.8v20.6c0,6.9-4.3,11.1-10.9,11.1s-8-1.8-10.5-4.4l2.1-2.5c2.5,2.2,5,3.6,8.4,3.6s7.4-2.7,7.4-7.6v-2c-1.8,2.4-5,3.8-8.3,3.8-6.3,0-11-4.9-11-11.5s4.7-11.6,11-11.6,6.8,1.5,8.5,4.2v-3.6h3.4ZM177.8,15.7c-4.6,0-8,3.4-8,8.2s3.4,8.1,8,8.1,7.8-2.7,7.8-8.2-3.8-8.1-7.8-8.1Z"/>
  <path class="cls-1" d="M209.8,29.3c2.2,2.2,3.9,3.5,6.4,3.5s4.3-1.2,4.3-3.2-1.1-2.5-3.9-3.6l-2.2-.9c-3.7-1.5-5.6-3.3-5.6-6.3s3.3-6.4,7.5-6.4,5.7,1.4,7.5,3.6l-2.2,2.2c-1.5-1.5-3.4-2.5-5.5-2.5s-3.7,1-3.7,2.9.9,2.2,3.6,3.3l2.1.9c4.2,1.8,5.9,3.6,5.9,6.7s-.8,3.8-2.3,5c-1.5,1.2-3.4,1.7-5.6,1.7-3.7,0-6.8-1.8-8.7-4.4l2.3-2.4Z"/>
  <path class="cls-1" d="M240.7,12.3c6.4,0,11.9,5.4,11.7,11.9.1,6.4-5.4,12-11.8,11.9-6.4.1-11.8-5.5-11.7-11.9-.1-6.5,5.3-12,11.7-11.9ZM240.7,15.6c-4.6,0-8.1,3.7-8.1,8.6s3.5,8.5,8,8.5,8.1-3.7,8.1-8.5-3.5-8.6-8.1-8.6Z"/>
  <path class="cls-1" d="M258.6.5h3.5v35.1h-3.5V.5Z"/>
  <path class="cls-1" d="M269.7,12.8h3.5v13.9c0,3.7,2.5,6,5.8,6s5.7-2.4,5.7-6v-13.9h3.5v13.7c0,5.8-4,9.6-9.2,9.6s-9.3-3.8-9.3-9.6v-13.7Z"/>
  <path class="cls-1" d="M307.9,35.6c-1.4.3-2.7.5-3.7.5-4.6,0-7.5-2.4-7.5-7.4v-12.7h-3.8v-3.2h3.8v-6.2h3.5v6.2h7v3.2h-7v12.4c0,3.2,1.7,4.3,4.7,4.3s1.8,0,3-.3v3Z"/>
  <path class="cls-1" d="M315,1.5c1.4,0,2.6,1.2,2.6,2.6s-1.1,2.6-2.6,2.6-2.7-1.1-2.7-2.6,1.2-2.6,2.7-2.6ZM313.2,12.8h3.5v22.8h-3.5V12.8Z"/>
  <path class="cls-1" d="M334.6,12.3c6.4,0,11.9,5.4,11.7,11.9.1,6.4-5.4,12-11.8,11.9-6.4.1-11.8-5.5-11.7-11.9-.1-6.5,5.3-12,11.7-11.9ZM334.6,15.6c-4.6,0-8.1,3.7-8.1,8.6s3.5,8.5,8,8.5,8.1-3.7,8.1-8.5-3.5-8.6-8.1-8.6Z"/>
  <path class="cls-1" d="M371.1,35.6h-3.5v-13.9c0-3.6-2.1-6.1-5.6-6.1s-5.9,2.5-5.9,6.1v13.9h-3.5V12.8h3.3v2.4c1.7-1.9,4.1-2.9,6.9-2.9,5.2,0,8.3,3.6,8.3,9v14.3Z"/>
  <path class="cls-1" d="M378.7,29.3c2.2,2.2,3.9,3.5,6.4,3.5s4.3-1.2,4.3-3.2-1.1-2.5-3.9-3.6l-2.2-.9c-3.7-1.5-5.6-3.3-5.6-6.3s3.3-6.4,7.5-6.4,5.7,1.4,7.5,3.6l-2.2,2.2c-1.5-1.5-3.4-2.5-5.5-2.5s-3.7,1-3.7,2.9.9,2.2,3.6,3.3l2.1.9c4.2,1.8,5.9,3.6,5.9,6.7s-.8,3.8-2.3,5c-1.5,1.2-3.4,1.7-5.6,1.7-3.7,0-6.8-1.8-8.7-4.4l2.3-2.4Z"/>
  <path class="cls-1" d="M402,30.2c1.6,0,2.9,1.3,2.9,2.9s-1.3,2.9-2.9,2.9-2.9-1.3-2.9-2.9,1.3-2.9,2.9-2.9Z"/>
</svg>