<?xml version="1.0" encoding="UTF-8"?>
<svg id="Layer_1" data-name="Layer 1" xmlns="http://www.w3.org/2000/svg" version="1.1" viewBox="0 0 175.2 35.6">
  <defs>
    <style>
      .cls-1 {
        fill: #fff;
        stroke-width: 0px;
      }
    </style>
  </defs>
  <path class="cls-1" d="M36.7,12.3l-9.4,23.3h-1.3l-7.6-17.2-7.6,17.2h-1.2L0,12.3h3.8l6.5,16.9,7.4-17.4h1.3l7.5,17.3,6.3-16.7h3.8Z"/>
  <path class="cls-1" d="M43.6,1c1.4,0,2.6,1.2,2.6,2.6s-1.1,2.6-2.6,2.6-2.7-1.1-2.7-2.6,1.2-2.6,2.7-2.6ZM41.8,12.3h3.5v22.8h-3.5V12.3Z"/>
  <path class="cls-1" d="M65.4,35.1c-1.4.3-2.7.5-3.7.5-4.6,0-7.5-2.4-7.5-7.4v-12.7h-3.8v-3.2h3.8v-6.2h3.5v6.2h7v3.2h-7v12.4c0,3.2,1.7,4.3,4.7,4.3s1.8,0,3-.3v3Z"/>
  <path class="cls-1" d="M89.2,35.1h-3.5v-13.8c0-3.7-2.1-6.1-5.6-6.1s-5.9,2.6-5.9,6.1v13.8h-3.5V0h3.5v14.9c1.5-1.9,3.9-3.1,6.7-3.1,5.1,0,8.3,3.6,8.3,9v14.3Z"/>
  <path class="cls-1" d="M119.7,11.8c6.4,0,11.9,5.4,11.7,11.9.1,6.4-5.4,12-11.8,11.9-6.4.1-11.8-5.5-11.7-11.9-.1-6.5,5.3-12,11.7-11.9ZM119.7,15.1c-4.6,0-8.1,3.7-8.1,8.6s3.5,8.5,8,8.5,8.1-3.7,8.1-8.5-3.5-8.6-8.1-8.6Z"/>
  <path class="cls-1" d="M137.3,12.3h3.5v13.9c0,3.7,2.5,6,5.8,6s5.7-2.4,5.7-6v-13.9h3.5v13.7c0,5.8-4,9.6-9.2,9.6s-9.3-3.8-9.3-9.6v-13.7Z"/>
  <path class="cls-1" d="M175.2,15.5h-1.3c-3.8,0-7,2.5-7,6.7v12.9h-3.5V12.3h3.3v3.2c1.6-2.2,4.2-3.4,6.9-3.4s1.1,0,1.7.2v3.2Z"/>
</svg>