<?xml version="1.0" encoding="UTF-8"?>
<svg id="Layer_1" data-name="Layer 1" xmlns="http://www.w3.org/2000/svg" version="1.1" viewBox="0 0 482.3 45.3">
  <defs>
    <style>
      .cls-1 {
        fill: #ffbf3f;
        stroke-width: 0px;
      }
    </style>
  </defs>
  <path class="cls-1" d="M3.6,27.3c2.1,3.1,4.6,5.1,8.3,5.1s5.5-1.8,5.5-4.5-1.3-3.3-4.6-4.8l-3.5-1.7c-4.6-2.1-7.4-4.6-7.4-8.9S6.3,3.8,11.8,3.8s8.2,2.3,10.2,5.7l-3.5,2.8c-1.7-2.5-4-3.9-6.7-3.9s-4.8,1.4-4.8,3.9c.2,2.5,1.3,3,4.4,4.6l3.5,1.7c5.1,2.4,7.6,4.9,7.6,9.2s-4.5,9.3-10.6,9.3-9.5-2.6-11.9-7l3.6-2.8Z"/>
  <path class="cls-1" d="M32.3,26.2c.6,3.9,3.6,6.3,7.7,6.3s4.7-.9,6.8-2.8l2.4,3.5c-2.7,2.6-5.8,3.8-9.4,3.8-7.2,0-12.6-5.4-12.6-12.5-.1-6.9,5.5-12.7,12.2-12.5,6.2,0,10.9,4.7,10.9,11s-.1,2.1-.4,3.2h-17.5ZM45.2,22.2c0-3.7-2.7-5.8-6-5.8s-6,2.3-6.7,5.8h12.8Z"/>
  <path class="cls-1" d="M59.6,26.2c.6,3.9,3.6,6.3,7.7,6.3s4.7-.9,6.8-2.8l2.4,3.5c-2.7,2.6-5.8,3.8-9.4,3.8-7.2,0-12.6-5.4-12.6-12.5-.1-6.9,5.5-12.7,12.2-12.5,6.2,0,10.9,4.7,10.9,11s-.1,2.1-.4,3.2h-17.5ZM72.4,22.2c0-3.7-2.7-5.8-6-5.8s-6,2.3-6.7,5.8h12.8Z"/>
  <path class="cls-1" d="M117.1,36.5h-5v-14.2c0-3.3-2-5.5-5.1-5.5s-5.4,2.3-5.4,5.5v14.2h-5V0h5v15c1.6-1.9,4-2.9,6.8-2.9,5.4,0,8.7,3.8,8.7,9.5v14.9Z"/>
  <path class="cls-1" d="M135,12.1c6.8-.1,12.6,5.7,12.5,12.5.1,6.8-5.6,12.7-12.5,12.5-6.7.1-12.5-5.7-12.4-12.5-.1-6.9,5.6-12.6,12.4-12.5ZM135.1,16.7c-4.2,0-7.3,3.4-7.3,7.8s3.2,7.7,7.3,7.7,7.3-3.4,7.3-7.7-3.2-7.8-7.3-7.8Z"/>
  <path class="cls-1" d="M188.6,12.6l-10.4,24.4h-1.7l-7.4-15.9-7.4,15.9h-1.7l-10.4-24.4h5.4l6.2,15.6,7.1-16.2h1.7l7.2,16,6.1-15.4h5.4Z"/>
  <path class="cls-1" d="M241.5,12.6l-10.4,24.4h-1.7l-7.4-15.9-7.4,15.9h-1.7l-10.4-24.4h5.4l6.2,15.6,7.1-16.2h1.7l7.2,16,6.1-15.4h5.4Z"/>
  <path class="cls-1" d="M248.7,26.2c.6,3.9,3.6,6.3,7.7,6.3s4.7-.9,6.8-2.8l2.4,3.5c-2.7,2.6-5.8,3.8-9.4,3.8-7.2,0-12.6-5.4-12.6-12.5-.1-6.9,5.5-12.7,12.2-12.5,6.2,0,10.9,4.7,10.9,11s-.1,2.1-.4,3.2h-17.5ZM261.5,22.2c0-3.7-2.7-5.8-6-5.8s-6,2.3-6.7,5.8h12.8Z"/>
  <path class="cls-1" d="M296.7,12.1c4.4,0,7.8,2.1,9.9,5.5l-3.5,2.8c-1.7-2.4-3.8-3.7-6.3-3.7-4.2,0-7.4,3.4-7.4,7.7s3.2,7.8,7.4,7.8,4.6-1.2,6.3-3.6l3.5,2.8c-2.1,3.5-5.6,5.5-9.9,5.5-6.9,0-12.4-5.5-12.4-12.5-.1-6.9,5.7-12.6,12.4-12.5Z"/>
  <path class="cls-1" d="M330.8,36.5h-4.7v-2.7c-1.7,2.1-4.3,3.2-7.5,3.2-4.9,0-8.2-2.8-8.2-6.9s3.3-6.8,8.7-6.8h6.7v-1.6c0-3.3-1.8-5.1-5-5.1s-4.5,1.2-6.5,3.6l-2.9-3c2.3-3.5,5.8-5.1,9.9-5.1,5.8,0,9.6,3.6,9.6,10v14.5ZM325.7,27h-6c-2.7,0-4.2,1-4.2,2.9s1.7,3.2,4.1,3.2,6.1-2.4,6.1-5.6v-.4Z"/>
  <path class="cls-1" d="M358.3,36.5h-5v-14.3c0-3.3-2.1-5.5-5.1-5.5s-5.4,2.3-5.4,5.5v14.3h-5V12.6h4.7v2.3c1.8-1.9,4.1-2.9,7-2.9,5.5,0,8.8,3.8,8.8,9.5v14.9Z"/>
  <path class="cls-1" d="M399.2,36.5h-5v-14.2c0-3.3-2-5.5-5.1-5.5s-5.4,2.3-5.4,5.5v14.2h-5V0h5v15c1.6-1.9,4-2.9,6.8-2.9,5.4,0,8.7,3.8,8.7,9.5v14.9Z"/>
  <path class="cls-1" d="M409.8,26.2c.6,3.9,3.6,6.3,7.7,6.3s4.7-.9,6.8-2.8l2.4,3.5c-2.7,2.6-5.8,3.8-9.4,3.8-7.2,0-12.6-5.4-12.6-12.5-.1-6.9,5.5-12.7,12.2-12.5,6.2,0,10.9,4.7,10.9,11s-.1,2.1-.4,3.2h-17.5ZM422.7,22.2c0-3.7-2.7-5.8-6-5.8s-6,2.3-6.7,5.8h12.8Z"/>
  <path class="cls-1" d="M433.5,0h5v36.5h-5V0Z"/>
  <path class="cls-1" d="M458.6,37c-3.2,0-6-1.3-7.8-3.5v11.7h-5V12.6h4.7v3.4c1.7-2.5,4.7-3.9,8.2-3.9,6.7,0,11.5,5.4,11.5,12.5s-4.9,12.5-11.5,12.5ZM457.8,16.7c-3.7,0-7.1,2.6-7.1,7.8s3.4,7.8,7.1,7.8,7.2-3.2,7.2-7.8-3.1-7.8-7.2-7.8Z"/>
  <path class="cls-1" d="M478.6,29.5c2.1,0,3.7,1.6,3.7,3.8s-1.6,3.7-3.7,3.7-3.8-1.6-3.8-3.7,1.7-3.8,3.8-3.8Z"/>
</svg>