<svg id="Layer_1" data-name="Layer 1" xmlns="http://www.w3.org/2000/svg" xmlns:xlink="http://www.w3.org/1999/xlink" viewBox="0 0 110.77 90.63"><defs><style>.cls-1,.cls-3,.cls-4,.cls-5,.cls-6{fill:none;}.cls-2{fill:#00a0df;}.cls-3,.cls-4,.cls-5,.cls-6{stroke:#fff;}.cls-3,.cls-6{stroke-linecap:round;}.cls-3{stroke-linejoin:round;}.cls-3,.cls-4,.cls-6{stroke-width:2.86px;}.cls-4,.cls-5,.cls-6{stroke-miterlimit:10;}.cls-5{stroke-width:2.85px;}.cls-7{clip-path:url(#clip-path);}</style><clipPath id="clip-path"><rect class="cls-1" y="3.44" width="107.34" height="89.28"/></clipPath></defs><path class="cls-2" d="M55,80.06c28.89,0,52.31-17.15,52.31-38.31S83.92,3.44,55,3.44,2.71,20.59,2.71,41.75,26.13,80.06,55,80.06"/><path class="cls-2" d="M30.59,77.12c0,6.3,6.29,11.29,14,11.14s14-5.36,14-11.66-6.29-11.3-14-11.15-14,5.37-14,11.67"/><path class="cls-3" d="M76,36.73,71.36,22.51A6.79,6.79,0,0,0,65,18.05H38.16a6.77,6.77,0,0,0-6.33,4.46L26.12,37.74a9.41,9.41,0,0,0-.54,3.16V51.62a2.28,2.28,0,0,0,2.26,2.31H50.53"/><path class="cls-4" d="M25.58,50.9V57a2.36,2.36,0,0,0,2.25,2.45h3.38A2.36,2.36,0,0,0,33.46,57V53.34"/><path class="cls-3" d="M27.77,33.51l1.66,1.34A5.67,5.67,0,0,0,33,36.27H69.91"/><path class="cls-5" d="M38,46.2H32.76c-2.15,0-3.89-2-3.89-4.55a1.42,1.42,0,0,1,1.3-1.52h5.19c2.15,0,3.89,2,3.89,4.56A1.42,1.42,0,0,1,38,46.2Z"/><rect class="cls-1" y="3.44" width="107.34" height="89.28"/><line class="cls-6" x1="50.56" y1="48.85" x2="42.02" y2="48.85"/><g class="cls-7"><path class="cls-4" d="M76.33,33.28h3.94A3.09,3.09,0,0,0,83.08,30a1.84,1.84,0,0,0-1.69-2H78a1.85,1.85,0,0,0-1.69,2Zm-49.48,0H22.91A3.09,3.09,0,0,1,20.1,30a1.85,1.85,0,0,1,1.69-2h3.37a1.85,1.85,0,0,1,1.69,2Z"/><path class="cls-4" d="M69,41.82A12.57,12.57,0,1,0,81.49,54.39,12.53,12.53,0,0,0,69,41.82Z"/></g><polyline class="cls-3" points="64.03 53.44 68.69 58.31 81.51 44.91"/></svg>