<?xml version="1.0" encoding="utf-8"?>
<!-- Generator: Adobe Illustrator 21.0.0, SVG Export Plug-In . SVG Version: 6.00 Build 0)  -->
<svg version="1.1" xmlns="http://www.w3.org/2000/svg" xmlns:xlink="http://www.w3.org/1999/xlink" x="0px" y="0px"
	 viewBox="0 0 68.4 68.4" style="enable-background:new 0 0 68.4 68.4;" xml:space="preserve">
<g id="Layer_4">
</g>
<g id="LM_-_Gotham">
</g>
<g id="Arrow">
	<g>
		<polygon style="fill:#FFFFFF;" points="28.8,26.7 34.2,30.6 21.9,32.6 22.9,38.8 35.2,36.7 31.4,42.1 36.8,46 47,31.6 32.7,21.3 
					"/>
		<path style="fill:#FFFFFF;" d="M67.8,27.6C64.1,9.1,46.1-3,27.6,0.7C9.1,4.3-3,22.3,0.7,40.8c3.7,18.5,21.6,30.6,40.2,26.9
			C59.4,64.1,71.4,46.1,67.8,27.6z M38,56.1c-12.4,2.1-24.1-6.3-26.2-18.6C9.7,25.1,18,13.3,30.4,11.2s24.1,6.3,26.2,18.6
			C58.8,42.3,50.4,54,38,56.1z"/>
	</g>
</g>
</svg>
