<?xml version="1.0" encoding="utf-8"?>
<!-- Generator: Adobe Illustrator 21.0.0, SVG Export Plug-In . SVG Version: 6.00 Build 0)  -->
<svg version="1.1" id="Layer_2" xmlns="http://www.w3.org/2000/svg" xmlns:xlink="http://www.w3.org/1999/xlink" x="0px" y="0px"
	 viewBox="0 0 82.5 21.9" style="enable-background:new 0 0 82.5 21.9;" xml:space="preserve">
<path style="fill:#FFFFFF;" d="M0,13.5c0-0.4,0.4-0.9,0.8-0.9c0.4-0.1,0.8,0.2,0.8,0.7V21c0,0.4-0.4,0.9-0.8,0.9
	C0.4,22,0,21.7,0,21.3V13.5z"/>
<path style="fill:#FFFFFF;" d="M6.3,13.3l-2.2,0.4c-0.4,0.1-0.7-0.2-0.7-0.6c0-0.4,0.3-0.8,0.7-0.9l6.1-1c0.4-0.1,0.7,0.2,0.7,0.6
	c0,0.4-0.3,0.8-0.7,0.9L8,13v7c0,0.4-0.4,0.9-0.8,0.9c-0.4,0.1-0.8-0.2-0.8-0.7V13.3z"/>
<path style="fill:#FFFFFF;" d="M12.2,13.8c0.6-0.3,0.9-0.7,0.9-1.3c-0.4,0-0.7-0.3-0.7-0.8v-0.1c0-0.5,0.4-0.9,0.9-1
	c0.6-0.1,0.9,0.3,0.9,1v0.1c0,0.9-0.2,1.5-0.6,2c-0.4,0.4-0.9,0.7-1.2,0.8c-0.3,0-0.4-0.1-0.4-0.3C11.9,14,12,13.9,12.2,13.8z"/>
<path style="fill:#FFFFFF;" d="M15.9,18.4c-0.2-0.1-0.3-0.3-0.3-0.6c0-0.4,0.3-0.8,0.8-0.9c0.2,0,0.4,0,0.5,0.1
	c0.8,0.5,1.6,0.7,2.6,0.5c1-0.2,1.6-0.7,1.6-1.4v0c0-0.7-0.4-1-2.1-1.1c-2-0.2-3.1-0.6-3.1-2.2v0c0-1.6,1.3-2.9,3.1-3.2
	c1.2-0.2,2.1,0,2.9,0.4c0.2,0.1,0.4,0.3,0.4,0.6c0,0.4-0.3,0.8-0.8,0.9c-0.2,0-0.3,0-0.4-0.1C20.4,11,19.7,10.9,19,11
	c-0.9,0.2-1.5,0.7-1.5,1.3v0c0,0.7,0.4,1,2.2,1.1c1.9,0.2,2.9,0.7,2.9,2.2v0c0,1.7-1.4,3-3.3,3.3C18.1,19.2,16.9,19,15.9,18.4z"/>
<path style="fill:#FFFFFF;" d="M30.7,9.3l-2.2,0.4c-0.4,0.1-0.7-0.2-0.7-0.6c0-0.4,0.3-0.8,0.7-0.9l6.1-1c0.4-0.1,0.7,0.2,0.7,0.6
	c0,0.4-0.3,0.8-0.7,0.9l-2.2,0.4v7c0,0.4-0.4,0.9-0.8,0.9c-0.4,0.1-0.8-0.2-0.8-0.7V9.3z"/>
<path style="fill:#FFFFFF;" d="M37.1,7.5c0-0.4,0.4-0.9,0.8-0.9c0.4-0.1,0.8,0.2,0.8,0.7V15c0,0.4-0.4,0.9-0.8,0.9
	c-0.5,0.1-0.8-0.2-0.8-0.7V7.5z"/>
<path style="fill:#FFFFFF;" d="M41.1,6.9c0-0.4,0.4-0.9,0.8-0.9l0.2,0c0.4-0.1,0.6,0.1,0.7,0.3l2.8,3.9l2.8-4.8
	c0.2-0.3,0.4-0.5,0.7-0.5l0.2,0c0.5-0.1,0.8,0.2,0.8,0.7v7.7c0,0.4-0.4,0.9-0.8,0.9c-0.4,0.1-0.8-0.2-0.8-0.7V7.9l-2.2,3.7
	c-0.2,0.3-0.4,0.5-0.7,0.5c-0.3,0-0.5-0.1-0.7-0.3l-2.2-3v5.5c0,0.4-0.4,0.8-0.8,0.9c-0.4,0.1-0.8-0.2-0.8-0.7V6.9z"/>
<path style="fill:#FFFFFF;" d="M52.5,12.7V5.1c0-0.5,0.4-0.9,0.8-0.9l5.3-0.9c0.4-0.1,0.7,0.2,0.7,0.6c0,0.4-0.3,0.8-0.7,0.8
	l-4.5,0.7v2.4l4-0.6c0.4-0.1,0.7,0.2,0.7,0.6c0,0.4-0.3,0.8-0.7,0.8l-4,0.6v2.5l4.6-0.7c0.4-0.1,0.7,0.2,0.7,0.6
	c0,0.4-0.3,0.8-0.7,0.8l-5.4,0.9C52.9,13.4,52.5,13.1,52.5,12.7z"/>
<path style="fill:#FFFFFF;" d="M67.5,3.4l-2.2,0.4c-0.4,0.1-0.7-0.2-0.7-0.6c0-0.4,0.3-0.8,0.7-0.9l6.1-1c0.4-0.1,0.7,0.2,0.7,0.6
	c0,0.4-0.3,0.8-0.7,0.9l-2.2,0.4v7c0,0.4-0.4,0.9-0.8,0.9c-0.4,0.1-0.8-0.2-0.8-0.7V3.4z"/>
<path style="fill:#FFFFFF;" d="M72.9,5.6L72.9,5.6c0-2.6,2-5.1,4.8-5.6c2.8-0.5,4.8,1.4,4.8,4v0c0,2.6-2,5.1-4.8,5.5
	C74.8,10,72.9,8.2,72.9,5.6z M80.8,4.3L80.8,4.3c0-1.8-1.3-3.1-3.1-2.8c-1.8,0.3-3.1,2-3.1,3.7v0c0,1.8,1.3,3,3.1,2.7
	C79.5,7.8,80.8,6.1,80.8,4.3z"/>
</svg>
