<?xml version="1.0" encoding="utf-8"?>
<!-- Generator: Adobe Illustrator 21.0.0, SVG Export Plug-In . SVG Version: 6.00 Build 0)  -->
<svg version="1.1" id="Layer_2" xmlns="http://www.w3.org/2000/svg" xmlns:xlink="http://www.w3.org/1999/xlink" x="0px" y="0px"
	 viewBox="0 0 99.8 23.7" style="enable-background:new 0 0 99.8 23.7;" xml:space="preserve">
<path style="fill:#FFFFFF;" d="M0,19.7L0,19.7c0-2.6,2-5.1,4.8-5.5c2.8-0.5,4.8,1.4,4.8,3.9v0c0,2.6-2,5-4.8,5.5
	C2,24.1,0,22.3,0,19.7z M7.9,18.4L7.9,18.4c0-1.8-1.3-3.1-3.1-2.8c-1.8,0.3-3.1,1.9-3.1,3.7v0c0,1.8,1.3,3,3.1,2.7
	C6.6,21.8,7.9,20.2,7.9,18.4z"/>
<path style="fill:#FFFFFF;" d="M11.5,14c0-0.4,0.4-0.9,0.8-0.9l0.2,0c0.4-0.1,0.6,0.1,0.8,0.3l4.6,5.2v-5.6c0-0.4,0.4-0.8,0.8-0.9
	c0.4-0.1,0.8,0.2,0.8,0.7v7.7c0,0.4-0.3,0.8-0.8,0.9l-0.1,0c-0.4,0.1-0.6-0.1-0.8-0.3l-4.7-5.3v5.8c0,0.4-0.4,0.8-0.8,0.9
	c-0.4,0.1-0.8-0.2-0.8-0.7V14z"/>
<path style="fill:#FFFFFF;" d="M25.4,19.1c-0.2-0.1-0.3-0.3-0.3-0.6c0-0.4,0.3-0.8,0.8-0.9c0.2,0,0.4,0,0.5,0.1
	c0.8,0.5,1.6,0.7,2.6,0.5c1-0.2,1.6-0.7,1.6-1.4v0c0-0.7-0.4-0.9-2.1-1.1c-1.9-0.2-3-0.6-3-2.2v0c0-1.6,1.3-2.9,3.1-3.1
	c1.1-0.2,2.1,0,2.9,0.4c0.2,0.1,0.4,0.3,0.4,0.6c0,0.4-0.3,0.8-0.8,0.9c-0.2,0-0.3,0-0.4-0.1c-0.7-0.3-1.4-0.5-2.1-0.4
	c-0.9,0.2-1.5,0.7-1.5,1.3v0c0,0.7,0.4,0.9,2.2,1.1c1.9,0.2,2.9,0.7,2.9,2.2v0c0,1.7-1.3,2.9-3.3,3.2C27.6,19.9,26.5,19.7,25.4,19.1
	z"/>
<path style="fill:#FFFFFF;" d="M33.4,17.8l3.4-8.1c0.2-0.4,0.5-0.7,1-0.8l0.1,0c0.5-0.1,0.8,0.1,1,0.5l3.4,7
	c0.1,0.1,0.1,0.2,0.1,0.3c0,0.4-0.3,0.8-0.8,0.9c-0.4,0.1-0.6-0.1-0.8-0.4L40,15.6l-4.4,0.7l-0.8,1.9c-0.1,0.3-0.4,0.6-0.7,0.6
	c-0.4,0.1-0.7-0.2-0.7-0.6C33.3,18.1,33.3,17.9,33.4,17.8z M39.4,14.2l-1.6-3.4l-1.6,3.9L39.4,14.2z"/>
<path style="fill:#FFFFFF;" d="M44,8.8c0-0.4,0.4-0.9,0.8-0.9l0.2,0c0.4-0.1,0.6,0.1,0.8,0.3l4.6,5.2V7.7c0-0.4,0.4-0.8,0.8-0.9
	c0.4-0.1,0.8,0.2,0.8,0.7v7.7c0,0.4-0.3,0.8-0.8,0.9l-0.1,0c-0.4,0.1-0.6-0.1-0.8-0.3l-4.7-5.3v5.8c0,0.4-0.4,0.8-0.8,0.9
	c-0.4,0.1-0.8-0.2-0.8-0.7V8.8z"/>
<path style="fill:#FFFFFF;" d="M54.4,7c0-0.4,0.4-0.9,0.8-0.9C55.6,6,56,6.3,56,6.8v7.7c0,0.4-0.4,0.9-0.8,0.9
	c-0.5,0.1-0.8-0.2-0.8-0.7V7z"/>
<path style="fill:#FFFFFF;" d="M60.6,6.8l-2.2,0.4c-0.4,0.1-0.7-0.2-0.7-0.6c0-0.4,0.3-0.8,0.7-0.9l6.1-1c0.4-0.1,0.7,0.2,0.7,0.6
	c0,0.4-0.3,0.8-0.7,0.9l-2.2,0.4v6.9c0,0.4-0.4,0.9-0.8,0.9c-0.4,0.1-0.8-0.2-0.8-0.7V6.8z"/>
<path style="fill:#FFFFFF;" d="M66.9,5c0-0.4,0.4-0.9,0.8-0.9c0.4-0.1,0.8,0.2,0.8,0.7v7.7c0,0.4-0.4,0.9-0.8,0.9
	c-0.5,0.1-0.8-0.2-0.8-0.7V5z"/>
<path style="fill:#FFFFFF;" d="M70.6,12.1L70.6,12.1c0-0.3,0.1-0.6,0.3-0.8l5.1-7L71.4,5c-0.4,0.1-0.7-0.2-0.7-0.6
	c0-0.4,0.3-0.8,0.7-0.8l6-1c0.4-0.1,0.7,0.2,0.7,0.6v0c0,0.3-0.1,0.5-0.3,0.8l-5.1,7l4.7-0.8c0.4-0.1,0.7,0.2,0.7,0.6
	s-0.3,0.8-0.7,0.8l-6.2,1C70.9,12.7,70.6,12.5,70.6,12.1z"/>
<path style="fill:#FFFFFF;" d="M80.1,10.5V2.9c0-0.5,0.4-0.9,0.8-0.9l5.3-0.9c0.4-0.1,0.7,0.2,0.7,0.6c0,0.4-0.3,0.8-0.7,0.8
	l-4.5,0.7v2.4l3.9-0.6C86,5,86.3,5.3,86.3,5.7c0,0.4-0.3,0.8-0.7,0.8l-3.9,0.6v2.4l4.6-0.7C86.7,8.8,87,9,87,9.4
	c0,0.4-0.3,0.8-0.7,0.8l-5.4,0.9C80.5,11.2,80.1,10.9,80.1,10.5z"/>
<path style="fill:#FFFFFF;" d="M88.8,1.5c0-0.5,0.4-0.9,0.8-0.9l3.3-0.5c1.1-0.2,2,0,2.6,0.5c0.5,0.4,0.8,1,0.8,1.8v0
	c0,1.5-0.8,2.5-2.1,3.1L96,7.4c0.2,0.2,0.3,0.3,0.3,0.6c0,0.4-0.4,0.8-0.8,0.9c-0.4,0.1-0.6-0.1-0.8-0.3l-2.2-2.5l-2,0.3v2.4
	c0,0.4-0.4,0.9-0.8,0.9c-0.5,0.1-0.8-0.2-0.8-0.7V1.5z M92.8,4.6c1.1-0.2,1.9-0.9,1.9-1.8v0c0-1-0.7-1.4-1.9-1.2l-2.3,0.4V5
	L92.8,4.6z"/>
<path style="fill:#FFFFFF;" d="M98.8,6.4c0.5-0.1,0.9,0.2,0.9,0.8v0.1c0,0.5-0.4,1-0.9,1c-0.5,0.1-0.9-0.2-0.9-0.7V7.4
	C97.9,6.9,98.3,6.4,98.8,6.4z"/>
</svg>
