<?xml version="1.0" encoding="utf-8"?>
<!-- Generator: Adobe Illustrator 21.0.0, SVG Export Plug-In . SVG Version: 6.00 Build 0)  -->
<svg version="1.1" id="Layer_4" xmlns="http://www.w3.org/2000/svg" xmlns:xlink="http://www.w3.org/1999/xlink" x="0px" y="0px"
	 viewBox="0 0 132.6 79.1" style="enable-background:new 0 0 132.6 79.1;" xml:space="preserve">
<g>
	<path style="fill:#FFFFFF;" d="M2.2,5.1c0-0.8,0.7-1.5,1.5-1.5h4.8c5.3,0,9,3.6,9,8.4v0c0,4.8-3.7,8.4-9,8.4H3.7
		c-0.8,0-1.5-0.7-1.5-1.5V5.1z M8.5,17.8c3.5,0,5.9-2.4,5.9-5.7v0c0-3.3-2.3-5.7-5.9-5.7H5.1v11.5H8.5z"/>
	<path style="fill:#FFFFFF;" d="M20.3,12.1L20.3,12.1c0-4.8,3.7-8.8,8.8-8.8s8.8,3.9,8.8,8.7v0c0,4.8-3.7,8.7-8.8,8.7
		S20.3,16.8,20.3,12.1z M34.8,12.1L34.8,12.1c0-3.3-2.4-6.1-5.7-6.1c-3.4,0-5.7,2.7-5.7,6v0c0,3.3,2.4,6,5.7,6
		C32.5,18,34.8,15.4,34.8,12.1z"/>
	<path style="fill:#FFFFFF;" d="M39.9,5.5c-0.1-0.2-0.1-0.4-0.1-0.6c0-0.8,0.7-1.4,1.5-1.4c0.7,0,1.3,0.5,1.5,1.1l3.9,11.6l3.8-11.5
		c0.2-0.7,0.7-1.2,1.5-1.2h0.2c0.7,0,1.3,0.5,1.5,1.2l3.8,11.5l3.9-11.6c0.2-0.6,0.7-1.1,1.4-1.1c0.8,0,1.5,0.6,1.5,1.4
		c0,0.2-0.1,0.4-0.1,0.6l-5,14c-0.3,0.7-0.8,1.2-1.5,1.2h-0.3c-0.7,0-1.3-0.5-1.5-1.2L52,8.5l-3.8,11c-0.3,0.8-0.8,1.2-1.5,1.2h-0.3
		c-0.7,0-1.3-0.5-1.5-1.2L39.9,5.5z"/>
	<path style="fill:#FFFFFF;" d="M67.4,5c0-0.8,0.7-1.5,1.5-1.5h0.3c0.7,0,1.1,0.4,1.5,0.9l8.4,10.9V4.9c0-0.8,0.7-1.4,1.4-1.4
		c0.8,0,1.5,0.7,1.5,1.4v14.2c0,0.8-0.6,1.5-1.4,1.5h-0.1c-0.7,0-1.1-0.4-1.5-0.9L70.3,8.5v10.7c0,0.8-0.7,1.4-1.4,1.4
		c-0.8,0-1.5-0.7-1.5-1.4V5z"/>
	<path style="fill:#FFFFFF;" d="M97.8,6.4h-4.1c-0.8,0-1.4-0.6-1.4-1.4s0.6-1.4,1.4-1.4h11.2c0.7,0,1.4,0.6,1.4,1.4
		s-0.6,1.4-1.4,1.4h-4.1v12.8c0,0.8-0.7,1.5-1.5,1.5s-1.5-0.7-1.5-1.5V6.4z"/>
	<path style="fill:#FFFFFF;" d="M107.6,12.1L107.6,12.1c0-4.8,3.7-8.8,8.8-8.8s8.8,3.9,8.8,8.7v0c0,4.8-3.7,8.7-8.8,8.7
		C111.2,20.8,107.6,16.8,107.6,12.1z M122.2,12.1L122.2,12.1c0-3.3-2.4-6.1-5.7-6.1c-3.4,0-5.7,2.7-5.7,6v0c0,3.3,2.4,6,5.7,6
		C119.8,18,122.2,15.4,122.2,12.1z"/>
	<path style="fill:#FFFFFF;" d="M7.1,32.4H3c-0.8,0-1.4-0.6-1.4-1.4s0.6-1.4,1.4-1.4h11.2c0.7,0,1.3,0.6,1.3,1.4s-0.6,1.4-1.3,1.4
		h-4.1v12.8c0,0.8-0.7,1.5-1.5,1.5c-0.8,0-1.5-0.7-1.5-1.5V32.4z"/>
	<path style="fill:#FFFFFF;" d="M18.6,31c0-0.8,0.7-1.5,1.5-1.5c0.8,0,1.5,0.7,1.5,1.5v5.7h8.1V31c0-0.8,0.7-1.5,1.5-1.5
		c0.8,0,1.5,0.7,1.5,1.5v14.2c0,0.8-0.7,1.5-1.5,1.5c-0.8,0-1.5-0.7-1.5-1.5v-5.8h-8.1v5.8c0,0.8-0.7,1.5-1.5,1.5
		c-0.8,0-1.5-0.7-1.5-1.5V31z"/>
	<path style="fill:#FFFFFF;" d="M36.9,45V31.1c0-0.8,0.7-1.5,1.5-1.5h9.8c0.7,0,1.3,0.6,1.3,1.3c0,0.7-0.6,1.3-1.3,1.3h-8.3v4.4h7.3
		c0.7,0,1.3,0.6,1.3,1.3c0,0.7-0.6,1.3-1.3,1.3h-7.3v4.5h8.5c0.7,0,1.3,0.6,1.3,1.3c0,0.7-0.6,1.3-1.3,1.3h-9.9
		C37.6,46.5,36.9,45.8,36.9,45z"/>
	<path style="fill:#FFFFFF;" d="M60.3,31.1c0-0.8,0.7-1.5,1.5-1.5h4.8c5.3,0,9,3.6,9,8.4v0c0,4.8-3.7,8.4-9,8.4h-4.8
		c-0.8,0-1.5-0.7-1.5-1.5V31.1z M66.6,43.8c3.5,0,5.9-2.4,5.9-5.7v0c0-3.3-2.3-5.7-5.9-5.7h-3.3v11.5H66.6z"/>
	<path style="fill:#FFFFFF;" d="M79.2,45V31.1c0-0.8,0.7-1.5,1.5-1.5h9.8c0.7,0,1.3,0.6,1.3,1.3c0,0.7-0.6,1.3-1.3,1.3h-8.3v4.4h7.3
		c0.7,0,1.3,0.6,1.3,1.3c0,0.7-0.6,1.3-1.3,1.3h-7.3v4.5h8.5c0.7,0,1.3,0.6,1.3,1.3c0,0.7-0.6,1.3-1.3,1.3h-9.9
		C79.8,46.5,79.2,45.8,79.2,45z"/>
	<path style="fill:#FFFFFF;" d="M95.3,45V31.1c0-0.8,0.7-1.5,1.5-1.5h9.8c0.7,0,1.3,0.6,1.3,1.3c0,0.7-0.6,1.3-1.3,1.3h-8.3v4.4h7.3
		c0.7,0,1.3,0.6,1.3,1.3c0,0.7-0.6,1.3-1.3,1.3h-7.3v4.5h8.5c0.7,0,1.3,0.6,1.3,1.3c0,0.7-0.6,1.3-1.3,1.3h-9.9
		C96,46.5,95.3,45.8,95.3,45z"/>
	<path style="fill:#FFFFFF;" d="M111.5,31.1c0-0.8,0.7-1.5,1.5-1.5h5.2c4,0,6.4,2.2,6.4,5.6v0c0,3.8-3,5.8-6.8,5.8h-3.4v4.1
		c0,0.8-0.7,1.5-1.5,1.5c-0.8,0-1.5-0.7-1.5-1.5V31.1z M117.9,38.4c2.2,0,3.6-1.3,3.6-3v0c0-2-1.4-3-3.6-3h-3.4v6.1H117.9z"/>
	<path style="fill:#FFFFFF;" d="M35.6,71V57.1c0-0.8,0.7-1.5,1.5-1.5h9.8c0.7,0,1.3,0.6,1.3,1.3c0,0.7-0.6,1.3-1.3,1.3h-8.3v4.4h7.3
		c0.7,0,1.3,0.6,1.3,1.3c0,0.7-0.6,1.3-1.3,1.3h-7.3v4.5H47c0.7,0,1.3,0.6,1.3,1.3c0,0.7-0.6,1.3-1.3,1.3h-9.9
		C36.2,72.5,35.6,71.8,35.6,71z"/>
	<path style="fill:#FFFFFF;" d="M51.7,57c0-0.8,0.7-1.5,1.5-1.5h0.3c0.7,0,1.1,0.4,1.5,0.9l8.4,10.9V56.9c0-0.8,0.7-1.4,1.4-1.4
		c0.8,0,1.5,0.7,1.5,1.4v14.2c0,0.8-0.6,1.5-1.4,1.5h-0.1c-0.7,0-1.1-0.4-1.5-0.9l-8.7-11.2v10.7c0,0.8-0.7,1.4-1.4,1.4
		c-0.8,0-1.5-0.7-1.5-1.4V57z"/>
	<path style="fill:#FFFFFF;" d="M70.8,57.1c0-0.8,0.7-1.5,1.5-1.5h4.8c5.3,0,9,3.6,9,8.4v0c0,4.8-3.7,8.4-9,8.4h-4.8
		c-0.8,0-1.5-0.7-1.5-1.5V57.1z M77.1,69.8c3.5,0,5.9-2.4,5.9-5.7v0c0-3.3-2.3-5.7-5.9-5.7h-3.3v11.5H77.1z"/>
	<path style="fill:#FFFFFF;" d="M92.9,67.3c-0.6,0-1-0.4-1-1l-0.2-2.1c-0.1-0.7,0.3-1.1,0.9-1.2c2.3-0.2,3.5-1.1,3.5-2.6v0
		c0-1.4-1-2.3-2.8-2.3c-1.3,0-2.3,0.5-3.3,1.3c-0.2,0.2-0.6,0.3-0.9,0.3c-0.7,0-1.4-0.6-1.4-1.3c0-0.4,0.1-0.7,0.5-1
		c1.3-1.2,2.9-2,5.1-2c3.4,0,5.7,1.9,5.7,4.9v0c0,3-2.2,4.4-4.9,4.9l-0.1,1.1c-0.1,0.5-0.5,1-1,1H92.9z M92.9,69
		c1,0,1.7,0.7,1.7,1.7v0.2c0,0.9-0.7,1.7-1.7,1.7s-1.7-0.7-1.7-1.7v-0.2C91.2,69.8,91.9,69,92.9,69z"/>
</g>
</svg>
