<?xml version="1.0" encoding="utf-8"?>
<!-- Generator: Adobe Illustrator 21.0.0, SVG Export Plug-In . SVG Version: 6.00 Build 0)  -->
<svg version="1.1" id="Layer_3" xmlns="http://www.w3.org/2000/svg" xmlns:xlink="http://www.w3.org/1999/xlink" x="0px" y="0px"
	 viewBox="0 0 157.4 48.7" style="enable-background:new 0 0 157.4 48.7;" xml:space="preserve">
<g>
	<path style="fill:#FFFFFF;" d="M3,22.4L3,22.4C3,13.4,9.6,6.1,18.8,6.1c5,0,8.2,1.6,11.1,4.1c0.4,0.3,0.7,0.8,0.7,1.4
		c0,0.9-0.8,1.7-1.8,1.7c-0.5,0-0.9-0.2-1.2-0.4c-2.4-2.1-5.1-3.6-9-3.6C11.9,9.4,6.7,15,6.7,22.2v0.1c0,7.2,5.2,12.9,12.1,12.9
		c3.9,0,6.6-1.3,9.3-3.8c0.3-0.3,0.7-0.5,1.1-0.5c0.9,0,1.7,0.8,1.7,1.7c0,0.5-0.3,1-0.6,1.2c-3.1,2.8-6.5,4.6-11.6,4.6
		C9.7,38.4,3,31.3,3,22.4z"/>
	<path style="fill:#FFFFFF;" d="M37.3,8.2c0-1,0.8-1.8,1.7-1.8c1,0,1.8,0.8,1.8,1.8v26.4H57c0.9,0,1.6,0.8,1.6,1.6
		c0,0.9-0.7,1.6-1.6,1.6H39c-0.9,0-1.7-0.8-1.7-1.8V8.2z"/>
	<path style="fill:#FFFFFF;" d="M64.9,36.1V8.5c0-1,0.8-1.8,1.7-1.8H86c0.9,0,1.6,0.7,1.6,1.6S86.9,9.9,86,9.9H68.4v10.6H84
		c0.9,0,1.6,0.8,1.6,1.6c0,0.9-0.7,1.6-1.6,1.6H68.4v10.9h17.8c0.9,0,1.6,0.7,1.6,1.6c0,0.9-0.7,1.6-1.6,1.6H66.6
		C65.7,37.9,64.9,37.1,64.9,36.1z"/>
	<path style="fill:#FFFFFF;" d="M92.8,35.5l12.7-27.7c0.4-1,1.1-1.6,2.2-1.6h0.2c1.1,0,1.8,0.6,2.2,1.6l12.7,27.6
		c0.1,0.3,0.2,0.6,0.2,0.9c0,0.9-0.8,1.7-1.7,1.7c-0.8,0-1.4-0.6-1.7-1.3l-3.3-7.2H99.1l-3.3,7.3c-0.3,0.8-0.9,1.2-1.7,1.2
		c-0.9,0-1.6-0.7-1.6-1.6C92.6,36.2,92.6,35.9,92.8,35.5z M114.8,26.4l-7.2-16l-7.2,16H114.8z"/>
	<path style="fill:#FFFFFF;" d="M129.6,8.5c0-1,0.8-1.8,1.7-1.8H143c3.8,0,6.9,1.2,8.9,3.1c1.5,1.5,2.4,3.7,2.4,6.1V16
		c0,5.1-3.5,8.1-8.3,9l7.8,10c0.4,0.4,0.6,0.8,0.6,1.3c0,0.9-0.9,1.7-1.8,1.7c-0.7,0-1.2-0.4-1.6-0.9l-8.8-11.4h-9v10.6
		c0,1-0.8,1.8-1.8,1.8c-0.9,0-1.7-0.8-1.7-1.8V8.5z M142.7,22.6c4.7,0,8-2.4,8-6.4v-0.1c0-3.8-2.9-6.1-8-6.1h-9.6v12.7H142.7z"/>
</g>
</svg>
