<?xml version="1.0" encoding="utf-8"?>
<!-- Generator: Adobe Illustrator 21.0.0, SVG Export Plug-In . SVG Version: 6.00 Build 0)  -->
<svg version="1.1" id="Layer_2" xmlns="http://www.w3.org/2000/svg" xmlns:xlink="http://www.w3.org/1999/xlink" x="0px" y="0px"
	 viewBox="0 0 67.4 19.1" style="enable-background:new 0 0 67.4 19.1;" xml:space="preserve">
<path style="fill:#FFFFFF;" d="M0.3,18.5C0.1,18.4,0,18.2,0,17.9c0-0.4,0.3-0.8,0.8-0.9c0.2,0,0.4,0,0.5,0.1
	c0.8,0.5,1.6,0.7,2.6,0.5c1-0.2,1.6-0.7,1.6-1.4v0c0-0.7-0.4-0.9-2.1-1.1c-1.9-0.2-3-0.6-3-2.2v0c0-1.6,1.3-2.9,3.1-3.1
	c1.1-0.2,2.1,0,2.9,0.4c0.2,0.1,0.4,0.3,0.4,0.6c0,0.4-0.3,0.8-0.8,0.9c-0.2,0-0.3,0-0.4-0.1c-0.7-0.3-1.4-0.5-2.1-0.4
	c-0.9,0.2-1.5,0.7-1.5,1.3v0c0,0.7,0.4,0.9,2.2,1.1C6,13.8,7,14.3,7,15.8v0c0,1.7-1.3,2.9-3.3,3.2C2.5,19.3,1.3,19.1,0.3,18.5z"/>
<path style="fill:#FFFFFF;" d="M10.9,10.1l-2.2,0.4C8.3,10.6,8,10.3,8,9.9C8,9.5,8.3,9.1,8.7,9l6.1-1c0.4-0.1,0.7,0.2,0.7,0.6
	c0,0.4-0.3,0.8-0.7,0.9l-2.2,0.4v6.9c0,0.4-0.4,0.9-0.8,0.9c-0.4,0.1-0.8-0.2-0.8-0.7V10.1z"/>
<path style="fill:#FFFFFF;" d="M16.2,12.4L16.2,12.4c0-2.6,2-5.1,4.8-5.5c2.8-0.5,4.8,1.4,4.8,3.9v0c0,2.6-2,5-4.8,5.5
	C18.2,16.8,16.2,15,16.2,12.4z M24.1,11.1L24.1,11.1c0-1.8-1.3-3.1-3.1-2.8c-1.8,0.3-3.1,1.9-3.1,3.7v0c0,1.8,1.3,3,3.1,2.7
	C22.8,14.5,24.1,12.9,24.1,11.1z"/>
<path style="fill:#FFFFFF;" d="M27.3,10.6L27.3,10.6c0-2.6,1.9-5.1,4.7-5.5c1.4-0.2,2.3,0,3.1,0.5c0.2,0.1,0.3,0.3,0.3,0.6
	c0,0.4-0.4,0.8-0.8,0.9c-0.2,0-0.4,0-0.5-0.1c-0.6-0.4-1.3-0.6-2.2-0.5c-1.7,0.3-3,1.9-3,3.7v0c0,1.8,1.3,3,3,2.7
	c1-0.2,1.6-0.6,2.3-1.2c0.1-0.1,0.3-0.2,0.5-0.3c0.4-0.1,0.8,0.2,0.8,0.6c0,0.2-0.1,0.5-0.3,0.6c-0.9,0.9-1.8,1.5-3.3,1.8
	C29.3,15,27.3,13.2,27.3,10.6z"/>
<path style="fill:#FFFFFF;" d="M37.3,5.1c0-0.4,0.4-0.9,0.8-0.9c0.4-0.1,0.8,0.2,0.8,0.7v3.9l4.3-5.1c0.2-0.2,0.4-0.4,0.7-0.4
	c0.4-0.1,0.7,0.2,0.7,0.6c0,0.2-0.1,0.4-0.3,0.6l-2.8,3.2l3.1,3.3c0.1,0.1,0.2,0.3,0.2,0.5c0,0.4-0.4,0.8-0.8,0.9
	c-0.3,0.1-0.5-0.1-0.7-0.3L40.4,9l-1.5,1.7v1.9c0,0.4-0.4,0.9-0.8,0.9c-0.5,0.1-0.8-0.2-0.8-0.7V5.1z"/>
<path style="fill:#FFFFFF;" d="M50.4,7.5V3c0-0.4,0.4-0.9,0.8-0.9C51.6,2,52,2.3,52,2.7v4.5c0,1.7,0.9,2.5,2.3,2.2
	c1.4-0.2,2.3-1.2,2.3-2.9V2c0-0.4,0.4-0.9,0.8-0.9c0.4-0.1,0.8,0.2,0.8,0.7v4.4c0,2.7-1.5,4.3-3.9,4.7C51.9,11.3,50.4,10.2,50.4,7.5
	z"/>
<path style="fill:#FFFFFF;" d="M60.4,1.5c0-0.5,0.4-0.9,0.8-0.9L64,0.1c2.1-0.3,3.5,0.7,3.5,2.5v0c0,2-1.6,3.4-3.6,3.7L62,6.6v2.2
	c0,0.4-0.4,0.9-0.8,0.9c-0.5,0.1-0.8-0.2-0.8-0.7V1.5z M63.8,4.8c1.2-0.2,2-1,2-1.9v0c0-1.1-0.8-1.5-2-1.3L62,1.8v3.3L63.8,4.8z"/>
</svg>
