<?xml version="1.0" encoding="utf-8"?>
<!-- Generator: Adobe Illustrator 19.1.0, SVG Export Plug-In . SVG Version: 6.00 Build 0)  -->
<svg version="1.1" id="Layer_2" xmlns="http://www.w3.org/2000/svg" xmlns:xlink="http://www.w3.org/1999/xlink" x="0px" y="0px"
	 viewBox="0 0 235.196 72.741" enable-background="new 0 0 235.196 72.741" xml:space="preserve">
<g>
	<path fill="#FFFFFF" d="M4.526,33.407v-0.134c0-13.179,9.851-24.094,23.562-24.094c7.521,0,12.313,2.463,16.64,6.057
		c0.532,0.466,1.065,1.198,1.065,2.13c0,1.397-1.265,2.596-2.663,2.596c-0.732,0-1.331-0.333-1.73-0.599
		c-3.594-3.195-7.654-5.325-13.378-5.325c-10.317,0-18.038,8.387-18.038,19.103v0.133c0,10.783,7.787,19.235,18.038,19.235
		c5.791,0,9.851-1.996,13.844-5.657c0.399-0.399,0.998-0.732,1.664-0.732c1.332,0,2.529,1.198,2.529,2.529
		c0,0.799-0.399,1.465-0.865,1.864c-4.592,4.193-9.651,6.855-17.305,6.855C14.443,57.368,4.526,46.785,4.526,33.407z"/>
	<path fill="#FFFFFF" d="M55.705,12.308c0-1.464,1.198-2.662,2.596-2.662c1.464,0,2.663,1.198,2.663,2.662v39.403h24.161
		c1.331,0,2.396,1.131,2.396,2.462s-1.065,2.396-2.396,2.396H58.301c-1.397,0-2.596-1.198-2.596-2.662V12.308z"/>
	<path fill="#FFFFFF" d="M96.9,53.907V12.641c0-1.465,1.198-2.662,2.596-2.662h28.954c1.33,0,2.396,1.064,2.396,2.396
		s-1.066,2.396-2.396,2.396h-26.291v15.907h23.295c1.332,0,2.396,1.132,2.396,2.396c0,1.331-1.064,2.396-2.396,2.396h-23.295v16.308
		h26.623c1.332,0,2.396,1.064,2.396,2.396s-1.064,2.396-2.396,2.396H99.496C98.099,56.569,96.9,55.371,96.9,53.907z"/>
	<path fill="#FFFFFF" d="M138.629,53.108l18.902-41.333c0.666-1.465,1.664-2.33,3.328-2.33h0.266c1.598,0,2.662,0.865,3.262,2.33
		l18.902,41.267c0.199,0.466,0.332,0.932,0.332,1.331c0,1.397-1.131,2.529-2.529,2.529c-1.264,0-2.129-0.865-2.596-1.931
		l-4.857-10.716h-25.559l-4.859,10.85c-0.467,1.131-1.332,1.797-2.529,1.797c-1.332,0-2.396-1.065-2.396-2.396
		C138.295,54.106,138.362,53.641,138.629,53.108z M171.575,39.464L160.86,15.636l-10.717,23.828H171.575z"/>
	<path fill="#FFFFFF" d="M193.668,12.641c0-1.465,1.197-2.662,2.596-2.662h17.439c5.723,0,10.316,1.73,13.244,4.659
		c2.264,2.263,3.594,5.524,3.594,9.185v0.133c0,7.654-5.191,12.114-12.445,13.512l11.58,14.909c0.533,0.6,0.865,1.198,0.865,1.931
		c0,1.397-1.33,2.596-2.662,2.596c-1.064,0-1.863-0.6-2.463-1.398l-13.111-17.039h-13.379V54.24c0,1.464-1.197,2.662-2.662,2.662
		c-1.398,0-2.596-1.198-2.596-2.662V12.641z M213.237,33.739c6.988,0,11.98-3.594,11.98-9.584v-0.133
		c0-5.725-4.393-9.186-11.914-9.186h-14.377v18.902H213.237z"/>
</g>
</svg>
