<?xml version="1.0" encoding="utf-8"?>
<!-- Generator: Adobe Illustrator 19.1.0, SVG Export Plug-In . SVG Version: 6.00 Build 0)  -->
<svg version="1.1" id="Layer_2" xmlns="http://www.w3.org/2000/svg" xmlns:xlink="http://www.w3.org/1999/xlink" x="0px" y="0px"
	 viewBox="0 0 161.5 52.778" enable-background="new 0 0 161.5 52.778" xml:space="preserve">
<g>
	<path fill="#FFFFFF" d="M6.236,6.283H2.19c-0.762,0-1.357-0.618-1.357-1.356S1.428,3.569,2.19,3.569h11.069
		c0.738,0,1.333,0.619,1.333,1.357s-0.595,1.356-1.333,1.356h-4.07v12.616c0,0.81-0.667,1.452-1.476,1.452s-1.476-0.643-1.476-1.452
		V6.283z"/>
	<path fill="#FFFFFF" d="M15.924,11.948v-0.047c0-4.689,3.618-8.617,8.736-8.617c5.118,0,8.688,3.88,8.688,8.569v0.048
		c0,4.689-3.618,8.617-8.736,8.617S15.924,16.638,15.924,11.948z M30.277,11.948v-0.047c0-3.237-2.356-5.928-5.665-5.928
		s-5.618,2.643-5.618,5.88v0.048c0,3.237,2.356,5.903,5.666,5.903C27.969,17.805,30.277,15.187,30.277,11.948z"/>
	<path fill="#FFFFFF" d="M44.035,5.046c0-0.833,0.643-1.477,1.476-1.477h4.737c5.237,0,8.855,3.595,8.855,8.284v0.048
		c0,4.689-3.618,8.331-8.855,8.331h-4.737c-0.833,0-1.476-0.643-1.476-1.476V5.046z M50.248,17.566c3.5,0,5.785-2.356,5.785-5.618
		v-0.047c0-3.262-2.285-5.666-5.785-5.666h-3.285v11.331H50.248z"/>
	<path fill="#FFFFFF" d="M62.815,4.903c0-0.81,0.643-1.452,1.476-1.452c0.81,0,1.452,0.643,1.452,1.452v13.996
		c0,0.81-0.643,1.452-1.452,1.452c-0.833,0-1.476-0.643-1.476-1.452V4.903z"/>
	<path fill="#FFFFFF" d="M75.026,19.28L69.194,5.569c-0.095-0.214-0.167-0.429-0.167-0.69c0-0.785,0.643-1.428,1.476-1.428
		c0.762,0,1.262,0.428,1.5,1.047l4.808,12.021l4.88-12.115c0.19-0.5,0.714-0.952,1.404-0.952c0.81,0,1.452,0.618,1.452,1.404
		c0,0.214-0.071,0.452-0.143,0.618L78.549,19.28c-0.31,0.738-0.857,1.19-1.69,1.19h-0.167C75.883,20.471,75.335,20.019,75.026,19.28
		z"/>
	<path fill="#FFFFFF" d="M87.641,18.757V5.046c0-0.833,0.643-1.477,1.476-1.477h9.688c0.714,0,1.309,0.596,1.309,1.31
		c0,0.738-0.595,1.31-1.309,1.31h-8.236v4.332h7.165c0.714,0,1.309,0.595,1.309,1.333c0,0.714-0.595,1.285-1.309,1.285h-7.165v4.476
		h8.354c0.715,0,1.31,0.595,1.31,1.309c0,0.738-0.595,1.31-1.31,1.31h-9.807C88.283,20.232,87.641,19.59,87.641,18.757z"/>
	<path fill="#FFFFFF" d="M110.729,5.046c0-0.833,0.643-1.477,1.476-1.477h9.712c0.738,0,1.333,0.596,1.333,1.334
		c0,0.737-0.595,1.332-1.333,1.332h-8.26v4.547h7.188c0.738,0,1.333,0.596,1.333,1.333c0,0.738-0.595,1.333-1.333,1.333h-7.188
		v5.451c0,0.81-0.643,1.452-1.452,1.452c-0.833,0-1.476-0.643-1.476-1.452V5.046z"/>
	<path fill="#FFFFFF" d="M125.463,11.948v-0.047c0-4.689,3.618-8.617,8.736-8.617c5.117,0,8.688,3.88,8.688,8.569v0.048
		c0,4.689-3.618,8.617-8.736,8.617S125.463,16.638,125.463,11.948z M139.816,11.948v-0.047c0-3.237-2.356-5.928-5.665-5.928
		s-5.617,2.643-5.617,5.88v0.048c0,3.237,2.356,5.903,5.665,5.903S139.816,15.187,139.816,11.948z"/>
	<path fill="#FFFFFF" d="M146.434,5.046c0-0.833,0.643-1.477,1.476-1.477h5.951c2.095,0,3.737,0.619,4.809,1.667
		c0.88,0.904,1.38,2.142,1.38,3.594v0.048c0,2.666-1.547,4.285-3.784,4.975l3.189,4.023c0.285,0.357,0.476,0.666,0.476,1.119
		c0,0.809-0.69,1.356-1.404,1.356c-0.666,0-1.095-0.31-1.428-0.762l-4.047-5.165h-3.689v4.475c0,0.81-0.643,1.452-1.452,1.452
		c-0.833,0-1.476-0.643-1.476-1.452V5.046z M153.646,11.83c2.095,0,3.428-1.096,3.428-2.785V8.997c0-1.785-1.285-2.762-3.451-2.762
		h-4.261v5.595H153.646z"/>
	<path fill="#FFFFFF" d="M22.481,31.046c0-0.833,0.643-1.477,1.476-1.477h5.094c3.904,0,6.332,2.214,6.332,5.57v0.048
		c0,3.737-2.999,5.689-6.665,5.689h-3.309v4.022c0,0.81-0.643,1.452-1.452,1.452c-0.833,0-1.476-0.643-1.476-1.452V31.046z
		 M28.813,38.234c2.214,0,3.594-1.237,3.594-2.976v-0.048c0-1.951-1.404-2.976-3.594-2.976h-3.404v5.999H28.813z"/>
	<path fill="#FFFFFF" d="M38.382,44.757V31.046c0-0.833,0.643-1.477,1.476-1.477h9.688c0.714,0,1.309,0.596,1.309,1.31
		c0,0.738-0.595,1.31-1.309,1.31H41.31v4.332h7.165c0.714,0,1.309,0.595,1.309,1.333c0,0.714-0.595,1.285-1.309,1.285H41.31v4.476
		h8.355c0.714,0,1.309,0.595,1.309,1.309c0,0.738-0.595,1.31-1.309,1.31h-9.807C39.024,46.232,38.382,45.59,38.382,44.757z"/>
	<path fill="#FFFFFF" d="M54.329,30.95c0-0.809,0.643-1.476,1.476-1.476h0.31c0.714,0,1.119,0.357,1.523,0.856l8.331,10.783V30.879
		c0-0.785,0.643-1.428,1.428-1.428c0.81,0,1.452,0.643,1.452,1.428v13.997c0,0.809-0.619,1.451-1.428,1.451h-0.119
		c-0.69,0-1.119-0.356-1.523-0.88l-8.569-11.093v10.568c0,0.786-0.643,1.429-1.428,1.429c-0.809,0-1.452-0.643-1.452-1.429V30.95z"
		/>
	<path fill="#FFFFFF" d="M73.134,30.95c0-0.809,0.643-1.476,1.476-1.476h0.31c0.714,0,1.119,0.357,1.523,0.856l8.331,10.783V30.879
		c0-0.785,0.643-1.428,1.429-1.428c0.809,0,1.451,0.643,1.451,1.428v13.997c0,0.809-0.618,1.451-1.428,1.451h-0.119
		c-0.69,0-1.119-0.356-1.523-0.88l-8.569-11.093v10.568c0,0.786-0.643,1.429-1.428,1.429c-0.809,0-1.452-0.643-1.452-1.429V30.95z"
		/>
	<path fill="#FFFFFF" d="M92.104,30.903c0-0.81,0.644-1.452,1.477-1.452c0.809,0,1.452,0.643,1.452,1.452v13.996
		c0,0.81-0.644,1.452-1.452,1.452c-0.833,0-1.477-0.643-1.477-1.452V30.903z"/>
	<path fill="#FFFFFF" d="M99.482,44.757V31.046c0-0.833,0.643-1.477,1.476-1.477h9.688c0.714,0,1.309,0.596,1.309,1.31
		c0,0.738-0.595,1.31-1.309,1.31h-8.236v4.332h7.165c0.714,0,1.309,0.595,1.309,1.333c0,0.714-0.595,1.285-1.309,1.285h-7.165v4.476
		h8.354c0.715,0,1.31,0.595,1.31,1.309c0,0.738-0.595,1.31-1.31,1.31h-9.807C100.125,46.232,99.482,45.59,99.482,44.757z"/>
	<path fill="#FFFFFF" d="M115.002,44.376c-0.333-0.238-0.571-0.643-0.571-1.119c0-0.762,0.619-1.356,1.381-1.356
		c0.404,0,0.666,0.119,0.856,0.262c1.381,1.095,2.856,1.714,4.666,1.714c1.809,0,2.951-0.857,2.951-2.095v-0.048
		c0-1.19-0.666-1.833-3.761-2.547c-3.547-0.857-5.546-1.904-5.546-4.975v-0.048c0-2.856,2.38-4.832,5.688-4.832
		c2.095,0,3.785,0.547,5.285,1.547c0.333,0.19,0.643,0.595,0.643,1.167c0,0.762-0.619,1.356-1.381,1.356
		c-0.286,0-0.523-0.071-0.762-0.214c-1.285-0.834-2.523-1.262-3.832-1.262c-1.715,0-2.714,0.881-2.714,1.976v0.048
		c0,1.285,0.762,1.856,3.975,2.618c3.523,0.856,5.332,2.118,5.332,4.88v0.047c0,3.119-2.451,4.976-5.95,4.976
		C119.001,46.471,116.858,45.757,115.002,44.376z"/>
	<path fill="#FFFFFF" d="M134.116,41.091c-0.548,0-0.952-0.404-1.023-0.952l-0.238-2.047c-0.096-0.643,0.285-1.119,0.929-1.19
		c2.237-0.214,3.475-1.071,3.475-2.57v-0.048c0-1.333-1.023-2.262-2.737-2.262c-1.262,0-2.285,0.452-3.237,1.31
		c-0.237,0.19-0.547,0.333-0.881,0.333c-0.737,0-1.333-0.595-1.333-1.31c0-0.356,0.144-0.737,0.477-1.023
		c1.262-1.189,2.856-1.976,5.046-1.976c3.333,0,5.595,1.856,5.595,4.832v0.048c0,2.999-2.167,4.356-4.809,4.809l-0.096,1.095
		c-0.095,0.523-0.476,0.952-1.023,0.952H134.116z M134.116,42.828c0.976,0,1.689,0.715,1.689,1.643v0.238
		c0,0.929-0.714,1.643-1.689,1.643c-0.977,0-1.69-0.714-1.69-1.643v-0.238C132.426,43.543,133.14,42.828,134.116,42.828z"/>
</g>
</svg>
