<?xml version="1.0" encoding="UTF-8"?>
<svg xmlns="http://www.w3.org/2000/svg" version="1.1" viewBox="0 0 509.4 55">
  <defs>
    <style>
      .cls-1 {
        fill: #002d72;
      }
    </style>
  </defs>
  <!-- Generator: Adobe Illustrator 28.7.1, SVG Export Plug-In . SVG Version: 1.2.0 Build 142)  -->
  <g>
    <g id="Layer_1">
      <g>
        <path class="cls-1" d="M0,1h19.9c11.1,0,19.1,6.9,19.1,17.1s-8,17.2-19.1,17.2h-9.1v18.7H0V1ZM19.9,25.8c5.1,0,8-3.1,8-7.7s-3.1-7.6-8-7.6h-9.1v15.3h9.1Z"/>
        <path class="cls-1" d="M72.6,47.1h-21.7l-3,6.9h-11.7L59.9,0h3.6l23.6,54h-11.7l-3-6.9ZM61.7,20.2l-7.1,17.9h14.1l-7.1-17.9Z"/>
        <path class="cls-1" d="M127,54l-13.7-18.7h-8v18.7h-10.8V1h19.9c11.1,0,19.1,6.9,19.1,17.1s-3.5,12.2-9.3,15.1l15,20.8h-12.2ZM105.3,25.7h9.1c5.1,0,8-3.1,8-7.6s-3.1-7.6-8-7.6h-9.1v15.2Z"/>
        <path class="cls-1" d="M155.8,10.8h-17V1h44.8v9.8h-17v43.2h-10.8V10.8Z"/>
        <path class="cls-1" d="M236,1v54h-3.6l-30.7-32.8v31.8h-10.8V0h3.5l30.8,32.6V1h10.8Z"/>
        <path class="cls-1" d="M248.1,1h35.7v9.8h-24.8v10.8h18.2v9.2h-18.2v13.4h25.8v9.8h-36.6V1Z"/>
        <path class="cls-1" d="M326.7,54l-13.7-18.7h-8v18.7h-10.8V1h19.9c11.1,0,19.1,6.9,19.1,17.1s-3.5,12.2-9.3,15.1l15,20.8h-12.2ZM305,25.7h9.1c5.1,0,8-3.1,8-7.6s-3.1-7.6-8-7.6h-9.1v15.2Z"/>
        <path class="cls-1" d="M349,37.6c3.5,4.7,7.2,7.7,13,7.7s7.6-2.2,7.6-5.9-1.7-4.3-6.7-6.6l-5.7-2.6c-8.1-3.6-12.9-8.2-12.9-15.3s7.6-15,17.6-15,14.2,3.9,17.5,10l-7.4,5.7c-2.7-4.1-6.1-6.1-10.1-6.1s-6.6,1.8-6.6,5.1,1.7,4.1,6.2,6.1l6,2.7c8.9,3.9,13.1,8.4,13.1,15.5s-8,15.9-18.6,15.9-16.4-4.6-20.5-11.7l7.5-5.6Z"/>
        <path class="cls-1" d="M390.1,1h10.8v20.3h23.5V1h10.8v53h-10.8v-22.9h-23.5v22.9h-10.8V1Z"/>
        <path class="cls-1" d="M447.4,1h10.8v53h-10.8V1Z"/>
        <path class="cls-1" d="M470.4,1h19.9c11.1,0,19.1,6.9,19.1,17.1s-8,17.2-19.1,17.2h-9.1v18.7h-10.8V1ZM490.3,25.8c5.1,0,8-3.1,8-7.7s-3.1-7.6-8-7.6h-9.1v15.3h9.1Z"/>
      </g>
    </g>
  </g>
</svg>