<?xml version="1.0" encoding="UTF-8"?>
<svg xmlns="http://www.w3.org/2000/svg" version="1.1" viewBox="0 0 278.7 54.6">
  <defs>
    <style>
      .cls-1 {
        fill: #002d72;
      }
    </style>
  </defs>
  <!-- Generator: Adobe Illustrator 28.7.1, SVG Export Plug-In . SVG Version: 1.2.0 Build 142)  -->
  <g>
    <g id="Layer_1">
      <g>
        <path class="cls-1" d="M0,.9h33.1v5.6H6.2v18.2h22.3v5.7H6.2v23.4H0V.9Z"/>
        <path class="cls-1" d="M65.5,0c14.8-.2,27.8,12.2,27.5,27.3.3,15.1-12.6,27.5-27.5,27.3-15,.3-27.7-12.3-27.4-27.3C37.8,12.2,50.5-.2,65.5,0ZM65.6,5.8c-11.9,0-21,9.2-21,21.5s9,21.6,21,21.6c11.6.2,21.1-9.5,20.9-21.6.2-11.9-9.3-21.7-20.9-21.5Z"/>
        <path class="cls-1" d="M138,53.7l-16.4-22.2h-11.3v22.2h-6.2V.9h18.6c10.2,0,16.9,6.4,16.9,15.3s-4.2,12.6-11.1,14.6l16.9,22.9h-7.3ZM110.3,25.9h12.1c6.8,0,10.6-3.8,10.6-9.7s-3.9-9.8-10.6-9.8h-12.1v19.5Z"/>
        <path class="cls-1" d="M202.4,0v53.7h-6.2V15.9l-16.9,22.9h-2.2l-17-23.1v38h-6.2V0h2.2l22,30.5L200.3,0h2.2Z"/>
        <path class="cls-1" d="M267.6,43h-25.9l-4.5,10.7h-6.6L253.5,0h2.3l22.9,53.7h-6.6l-4.5-10.7ZM254.6,11.4l-10.6,26h21.1l-10.6-26Z"/>
      </g>
    </g>
  </g>
</svg>