<?xml version="1.0" encoding="UTF-8"?>
<svg xmlns="http://www.w3.org/2000/svg" version="1.1" viewBox="0 0 348.6 47">
  <defs>
    <style>
      .cls-1 {
        fill: #ffbf3f;
      }
    </style>
  </defs>
  <!-- Generator: Adobe Illustrator 28.7.1, SVG Export Plug-In . SVG Version: 1.2.0 Build 142)  -->
  <g>
    <g id="Layer_1">
      <g>
        <path class="cls-1" d="M16,5.6H0V.8h37.4v4.8h-16.1v40.6h-5.4V5.6Z"/>
        <path class="cls-1" d="M45,.8h5.4v18.7h25.5V.8h5.4v45.5h-5.4v-21.9h-25.5v21.9h-5.4V.8Z"/>
        <path class="cls-1" d="M121.5,37h-22.3l-3.9,9.2h-5.6L109.3,0h2l19.7,46.2h-5.7l-3.9-9.2ZM110.3,9.8l-9.1,22.4h18.2l-9.1-22.4Z"/>
        <path class="cls-1" d="M145.3,5.6h-16V.8h37.4v4.8h-16.1v40.6h-5.4V5.6Z"/>
        <path class="cls-1" d="M210.8,0c7.7,0,14.3,3.4,18.5,9.3l-4.1,3.2c-3.5-4.8-8.4-7.5-14.5-7.5-10.3-.2-18.3,8.2-18,18.5-.2,10.4,7.9,18.9,18.3,18.7,6.6,0,12.1-3.2,15.2-8.1v-6.1h-15.5v-4.8h20.9v12.1c-2,3.6-4.9,6.5-8.6,8.6-3.7,2.1-7.7,3.2-12.2,3.2-13,.2-23.8-10.5-23.6-23.5C187,10.5,197.8-.2,210.8,0Z"/>
        <path class="cls-1" d="M241.6.8h29.1v4.8h-23.8v13.9h18.2v4.8h-18.2v17.1h24.6v4.8h-30V.8Z"/>
        <path class="cls-1" d="M291.6,5.6h-16V.8h37.4v4.8h-16.1v40.6h-5.4V5.6Z"/>
        <path class="cls-1" d="M321.1,34.2c3.4,5.2,7.6,7.8,12.7,7.8s9.2-3,9.2-7.6-2.5-5.5-7.6-8l-5.1-2.4c-6.3-3-10.3-6.1-10.3-12.2S326.3,0,333.7,0s11.3,3.1,14.3,7.7l-3.9,3c-2.5-3.7-6.3-5.7-10.4-5.7s-8.1,2.4-8.1,6.6.3,2.4.9,3.3c1.2,1.7,2.8,2.6,6.4,4.3l5,2.4c7.2,3.5,10.6,6.8,10.6,12.7s-6.2,12.7-14.7,12.7-13.2-3.7-16.7-9.8l4-3Z"/>
      </g>
    </g>
  </g>
</svg>