<?xml version="1.0" encoding="UTF-8"?>
<svg xmlns="http://www.w3.org/2000/svg" version="1.1" viewBox="0 0 617.5 47">
  <defs>
    <style>
      .cls-1 {
        fill: #ffbf3f;
      }
    </style>
  </defs>
  <!-- Generator: Adobe Illustrator 28.7.1, SVG Export Plug-In . SVG Version: 1.2.0 Build 142)  -->
  <g>
    <g id="Layer_1">
      <g>
        <path class="cls-1" d="M44.4,0v46.1h-9.3v-24.2l-11.4,14.3h-3l-11.4-14.3v24.2H0V0h3l19.2,24.5L41.3,0h3Z"/>
        <path class="cls-1" d="M76.2,0c13-.3,24.4,10.5,24.2,23.5.2,13-11.1,23.8-24.2,23.5-13,.3-24.2-10.5-24-23.5C52,10.5,63.2-.3,76.2,0ZM76.3,8.6c-8.4,0-14.6,6.2-14.6,14.9s6.2,14.9,14.6,14.9,14.6-6.2,14.6-14.9-6.2-14.9-14.6-14.9Z"/>
        <path class="cls-1" d="M136,46.1l-11.7-16h-6.8v16h-9.3V.8h17c9.5,0,16.3,5.9,16.3,14.6s-3,10.4-8,12.9l12.8,17.8h-10.4ZM117.5,22h7.8c4.3,0,6.9-2.6,6.9-6.5s-2.7-6.5-6.9-6.5h-7.8v13Z"/>
        <path class="cls-1" d="M152.2.8h30.5v8.4h-21.2v9.2h15.6v7.9h-15.6v11.5h22v8.4h-31.3V.8Z"/>
        <path class="cls-1" d="M210.7.8h14.8c14.4-.1,24.9,9.1,24.7,22.5.2,13.1-10.4,23-24.7,22.8h-14.8V.8ZM225.5,37.8c9.1,0,15.2-5.7,15.2-14.4s-6-14.1-15.2-14.1h-5.5v28.6h5.5Z"/>
        <path class="cls-1" d="M258.1.8h30.5v8.4h-21.2v9.2h15.6v7.9h-15.6v11.5h22v8.4h-31.3V.8Z"/>
        <path class="cls-1" d="M324.2,40.2h-18.5l-2.5,5.9h-10L313.4,0h3.1l20.2,46.1h-10l-2.5-5.9ZM314.9,17.3l-6,15.3h12.1l-6-15.3Z"/>
        <path class="cls-1" d="M342.9.8h9.3v36.9h19.8v8.4h-29.1V.8Z"/>
        <path class="cls-1" d="M382.1,32.1c3,4.1,6.2,6.6,11.1,6.6s6.5-1.9,6.5-5-1.4-3.6-5.8-5.6l-4.9-2.2c-6.9-3.1-11-7-11-13S384.5,0,393.1,0s12.2,3.4,15,8.6l-6.3,4.9c-2.3-3.5-5.2-5.2-8.7-5.2s-5.6,1.6-5.6,4.4,1.4,3.5,5.3,5.2l5.1,2.3c7.6,3.4,11.2,7.1,11.2,13.3s-6.8,13.6-15.9,13.6-14-3.9-17.5-10l6.4-4.8Z"/>
        <path class="cls-1" d="M436.4.8h14.8c14.4-.1,24.9,9.1,24.7,22.5.2,13.1-10.4,23-24.7,22.8h-14.8V.8ZM451.2,37.8c9.1,0,15.2-5.7,15.2-14.4s-6-14.1-15.2-14.1h-5.5v28.6h5.5Z"/>
        <path class="cls-1" d="M505.3,0c13-.3,24.4,10.5,24.2,23.5.2,13-11.1,23.8-24.2,23.5-13,.3-24.2-10.5-24-23.5-.2-13,11-23.8,24-23.5ZM505.3,8.6c-8.4,0-14.6,6.2-14.6,14.9s6.2,14.9,14.6,14.9,14.6-6.2,14.6-14.9-6.2-14.9-14.6-14.9Z"/>
        <path class="cls-1" d="M575.8.8v46.1h-3.1l-26.2-28v27.2h-9.3V0h3l26.3,27.9V.8h9.3Z"/>
        <path class="cls-1" d="M586.2.8h30.5v8.4h-21.2v9.2h15.6v7.9h-15.6v11.5h22v8.4h-31.3V.8Z"/>
      </g>
    </g>
  </g>
</svg>