<svg id="Layer_1" data-name="Layer 1" xmlns="http://www.w3.org/2000/svg" viewBox="0 0 116.25 94.55"><defs><style>.cls-1{fill:#008996;}.cls-2,.cls-3{fill:none;}.cls-2{stroke:#fff;stroke-linecap:round;stroke-linejoin:round;stroke-width:3.64px;}</style></defs><path class="cls-1" d="M58,11c30,0,54.38,17.82,54.38,39.82S88.05,90.65,58,90.65,3.64,72.82,3.64,50.83,28,11,58,11"/><path class="cls-1" d="M32.62,14.06c0-6.55,6.54-11.73,14.59-11.58S61.78,8.06,61.78,14.61,55.24,26.34,47.19,26.19,32.61,20.61,32.62,14.06"/><path class="cls-2" d="M69.38,23.8V21.25h6.38V28.9m-16.6-7.65,21.7,16.57M59.16,21.25,37.46,37.82M42.57,49.3V33.92M75.76,48V33.92M28.53,63.32l3.83-3.82L49,76.07,45.12,79.9M51.5,60.77H63.73a3.83,3.83,0,0,0,0-7.65H46.4a7.71,7.71,0,0,0-5.11,2.55l-6.38,6.38m15.32-1.28H65.65a4.39,4.39,0,0,0,2.68-.9l10-8a3.76,3.76,0,0,1,6.38,2.55c0,1.65-1.38,2.79-2.55,3.82L70.65,67.15a5.2,5.2,0,0,1-3.83,1.27H51.5A4,4,0,0,0,49,69.7l-3.19,3.19"/><rect class="cls-3" x="0.82" y="-2.16" width="111.58" height="92.81"/></svg>