<svg id="Layer_2" data-name="Layer 2" xmlns="http://www.w3.org/2000/svg" viewBox="0 0 61.93 15.01"><defs><style>.cls-1{fill:#e92128;}.cls-2{fill:#fff;}</style></defs><title>Artboard 1</title><rect class="cls-1" width="61.93" height="15.01"/><path class="cls-2" d="M8.44,10.07V9.4L9,9.35c.12,0,.14,0,.14-.17V4.86c0-.13,0-.16-.14-.17l-.53-.06V4h2.81v.67l-.7.07c-.13,0-.13,0-.13.16V9.17h1.5c.09,0,.12,0,.13-.09l.14-.84h.93v1.84Z"/><path class="cls-2" d="M17.53,9.74a3.94,3.94,0,0,1-1.73.43c-1.63,0-2.19-1-2.19-2.33a2,2,0,0,1,2.09-2.25c1.11,0,1.86.58,1.86,2,0,.1,0,.4,0,.57H15c0,.6.3,1,1,1a3.59,3.59,0,0,0,1.26-.29ZM16.32,7.4c0-.71-.29-.89-.63-.89S15,6.7,15,7.4Z"/><path class="cls-2" d="M20.79,10.07l-.08-.46h0a1.91,1.91,0,0,1-1.42.57A1.11,1.11,0,0,1,18,8.92c0-.84.52-1.23,1.58-1.3l1-.07V7.09c0-.4,0-.67-.57-.67s-.62.06-.62.57l-1.19-.1c0-1.14,1-1.3,1.81-1.3,1.28,0,1.8.35,1.8,1.53v2c0,.14,0,.15.13.17l.41.07v.67Zm-.23-1.81L20,8.3c-.5,0-.67.16-.67.5a.42.42,0,0,0,.48.46,1.39,1.39,0,0,0,.77-.3Z"/><path class="cls-2" d="M22.66,10.07V9.39L23,9.34c.12,0,.13,0,.13-.17V6.7c0-.09,0-.15-.11-.18l-.46-.16.09-.68h1.48l.1.67h.05a1.41,1.41,0,0,1,1.19-.76,3.86,3.86,0,0,1,.73.08V7.2l-1,0-.08-.45c0-.08,0-.09-.11-.09a1.12,1.12,0,0,0-.61.29V9.16c0,.13,0,.16.13.17l.84.07v.67Z"/><path class="cls-2" d="M29.76,10.07V7.35c0-.41,0-.74-.45-.74a1.7,1.7,0,0,0-.88.31V9.18c0,.13,0,.15.13.17L29,9.4v.67H26.65V9.4L27,9.35c.12,0,.13,0,.13-.17V6.7c0-.09,0-.15-.11-.18l-.46-.16.1-.68h1.48l.07.44,0,0a2.47,2.47,0,0,1,1.48-.54C30.68,5.59,31,6.1,31,7V9.18c0,.13,0,.15.13.17l.42.06v.67Z"/><path class="cls-2" d="M39,10.07V7.35c0-.33,0-.73-.47-.73a1.25,1.25,0,0,0-.68.23,3.37,3.37,0,0,1,0,.41V9.18c0,.14,0,.16.13.18l.34,0v.67H36.55V7.3c0-.31,0-.68-.45-.68a1.18,1.18,0,0,0-.7.27V9.18c0,.14,0,.14.13.17L36,9.4v.67H33.62V9.4L34,9.35c.12,0,.13,0,.13-.17V6.7c0-.09,0-.15-.11-.18l-.46-.16.09-.68h1.48l.07.44h0a2.07,2.07,0,0,1,1.35-.53,1.09,1.09,0,0,1,1,.51A2.26,2.26,0,0,1,39,5.59c.9,0,1.24.45,1.24,1.43V9.18c0,.13,0,.16.13.18l.42,0v.67Z"/><path class="cls-2" d="M41.13,7.9a2.08,2.08,0,0,1,2.28-2.31,2,2,0,0,1,2.17,2.22,2.1,2.1,0,0,1-2.28,2.36A2,2,0,0,1,41.13,7.9Zm3.11,0c0-1-.3-1.35-.85-1.35s-.93.35-.93,1.36.33,1.43.89,1.43S44.24,8.91,44.24,7.85Z"/><path class="cls-2" d="M46,10.07V9.39l.38-.05c.12,0,.13,0,.13-.17V6.7c0-.09,0-.15-.11-.18l-.46-.16L46,5.67h1.48l.1.67h.05a1.41,1.41,0,0,1,1.19-.76,3.86,3.86,0,0,1,.73.08V7.2l-1,0-.08-.45c0-.08,0-.09-.11-.09a1.12,1.12,0,0,0-.61.29V9.16c0,.13,0,.16.13.17l.84.07v.67Z"/><path class="cls-2" d="M53.87,9.74a3.94,3.94,0,0,1-1.73.43c-1.63,0-2.19-1-2.19-2.33A2,2,0,0,1,52,5.59c1.11,0,1.86.58,1.86,2,0,.1,0,.4,0,.57H51.31c0,.6.3,1,1,1a3.59,3.59,0,0,0,1.26-.29ZM52.66,7.4c0-.71-.29-.89-.63-.89s-.66.2-.71.89Z"/></svg>