<svg id="Layer_2" data-name="Layer 2" xmlns="http://www.w3.org/2000/svg" viewBox="0 0 80.68 12.3"><defs><style>.cls-1{fill:#fff;}</style></defs><title>Artboard 1</title><path class="cls-1" d="M2.55,6.13v.75H1.49V6.19A4.27,4.27,0,0,1,0,5.88V4.51H.93l.11.6a.21.21,0,0,0,.17.19,2.27,2.27,0,0,0,.63.07c.57,0,.87-.21.87-.6C2.71,3.66.05,4.36.05,2.42A1.6,1.6,0,0,1,1.49.81V.14H2.56V.77A4.61,4.61,0,0,1,3.78,1V2.48l-.94-.09-.1-.57c0-.13-.06-.15-.17-.19a2.49,2.49,0,0,0-.49,0c-.5,0-.85.17-.85.57,0,1,2.66.44,2.66,2.37A1.54,1.54,0,0,1,2.55,6.13Z"/><path class="cls-1" d="M7.1,4.48l-.21,2A3.4,3.4,0,0,1,8.75,6a2.65,2.65,0,0,1,2.84,3A3.27,3.27,0,0,1,8,12.3,5,5,0,0,1,4.28,11L5.45,9.61a3.11,3.11,0,0,0,2.34,1A1.46,1.46,0,0,0,9.37,9.06,1.26,1.26,0,0,0,8,7.63a1.94,1.94,0,0,0-1.41.63l-1.46-.6.33-5H9.3c.13,0,.16-.08.19-.18l.19-.81L11,1.56V4.48Z"/><path class="cls-1" d="M12.64,6.83c0-2.66,1.06-4.42,4-4.42s3.76,1.74,3.76,4.3c0,2.74-1,4.55-3.93,4.55S12.64,9.47,12.64,6.83ZM18,6.8c0-2-.36-2.79-1.45-2.79S15,4.8,15,6.85s.37,2.84,1.52,2.84S18,8.85,18,6.8Z"/><path class="cls-1" d="M21.47,6.83c0-2.66,1.06-4.42,4-4.42s3.76,1.74,3.76,4.3c0,2.74-1,4.55-3.94,4.55S21.47,9.47,21.47,6.83Zm5.38,0c0-2-.37-2.79-1.46-2.79s-1.55.79-1.55,2.84.37,2.84,1.51,2.84S26.85,8.85,26.85,6.8Z"/><path class="cls-1" d="M33.1,11.08V9.89l.66-.08c.2,0,.23-.08.23-.3V5.21c0-.16,0-.26-.19-.31L33,4.62l.16-1.19h2.58l.18,1.18H36a2.45,2.45,0,0,1,2.07-1.32,7.08,7.08,0,0,1,1.27.13V6.09L37.6,6l-.15-.78c0-.13-.07-.16-.19-.16a1.94,1.94,0,0,0-1,.52V9.5c0,.23,0,.28.23.29l1.46.12v1.17Z"/><path class="cls-1" d="M46.79,10.51a6.87,6.87,0,0,1-3,.75c-2.83,0-3.8-1.76-3.8-4,0-2.66,1.63-3.92,3.64-3.92s3.23,1,3.23,3.55c0,.18,0,.69,0,1H42.33c.07,1,.52,1.74,1.73,1.74a6.36,6.36,0,0,0,2.18-.5ZM44.67,6.43c0-1.23-.49-1.56-1.1-1.56s-1.14.36-1.23,1.56Z"/><path class="cls-1" d="M48.05,11.08a14.62,14.62,0,0,0,.22-2.14V1.78c0-.17-.05-.27-.19-.31l-.81-.28L47.43,0h3V4.07h.06a3.35,3.35,0,0,1,2.22-.79c1.58,0,2.83,1,2.83,3.76,0,3-1.27,4.21-3.08,4.21a2.82,2.82,0,0,1-2.16-.93l-.07,0-.1.73ZM50.47,9a2.1,2.1,0,0,0,1.35.57c1,0,1.42-.91,1.42-2.38C53.24,6,52.88,5,51.89,5a2.78,2.78,0,0,0-1.42.51Z"/><path class="cls-1" d="M61.17,11.08,61,10.29H61a3.34,3.34,0,0,1-2.47,1,1.92,1.92,0,0,1-2.14-2.17c0-1.47.91-2.15,2.74-2.26l1.69-.12V5.9c0-.69-.07-1.16-1-1.16-.71,0-1.08.1-1.08,1l-2.06-.17c0-2,1.8-2.26,3.15-2.26,2.23,0,3.13.6,3.13,2.65V9.51c0,.24,0,.27.23.3l.71.11v1.16Zm-.4-3.15-1,.07c-.86.06-1.17.28-1.17.87a.73.73,0,0,0,.83.8,2.5,2.5,0,0,0,1.34-.52Z"/><path class="cls-1" d="M69.94,10.67a5.85,5.85,0,0,1-2.39.59c-1.75,0-2.41-.71-2.41-2.36V5.05c0-.09,0-.15-.12-.15H64V3.6c1.29-.15,1.8-.8,2-2.4h1.4V3.29c0,.1,0,.14.11.14h2.07V4.9H67.36V8.41c0,.87.2,1.2,1,1.2a3.49,3.49,0,0,0,1.18-.23Z"/><path class="cls-1" d="M77,10.51a6.83,6.83,0,0,1-3,.75c-2.83,0-3.8-1.76-3.8-4,0-2.66,1.63-3.92,3.64-3.92s3.23,1,3.23,3.55c0,.18,0,.69,0,1H72.55c.07,1,.53,1.74,1.73,1.74a6.41,6.41,0,0,0,2.19-.5ZM74.9,6.43c0-1.23-.5-1.56-1.1-1.56s-1.15.36-1.23,1.56Z"/><path class="cls-1" d="M79.43,11.26c-.85,0-1.26-.38-1.26-1.15S78.58,9,79.43,9s1.25.4,1.25,1.14S80.27,11.26,79.43,11.26Z"/></svg>