<svg id="Layer_2" data-name="Layer 2" xmlns="http://www.w3.org/2000/svg" viewBox="0 0 126.38 11.99"><defs><style>.cls-1{fill:#fff;}</style></defs><title>Artboard 1</title><path class="cls-1" d="M6.4,11.34A5.2,5.2,0,0,1,3.76,12C1.13,12,0,10.37,0,7.94,0,5,1.69,3.73,4,3.73a5.64,5.64,0,0,1,2.34.48v2l-1,0-.19-1A.22.22,0,0,0,5,5a3.5,3.5,0,0,0-1-.14c-1.37,0-2.47.8-2.47,3s1,3,2.51,3a4.12,4.12,0,0,0,2-.51Z"/><path class="cls-1" d="M12.57,11.8l-.14-1,0,0A3.92,3.92,0,0,1,9.6,12,1.92,1.92,0,0,1,7.43,9.88c0-1.54,1-2.27,2.8-2.42l2.08-.17V6.47c0-1.12-.22-1.68-1.56-1.68-.94,0-1.62,0-1.63,1.19L7.8,5.84c0-1.9,1.76-2.11,3-2.11,2.19,0,2.93.62,2.93,2.74v4.08c0,.25,0,.28.25.31l.79.11v.83Zm-.26-3.54-1.74.15c-1.33.12-1.7.51-1.7,1.31S9.23,10.9,10,10.9a4,4,0,0,0,2.36-1.19Z"/><path class="cls-1" d="M20.83,11.8V11l.74-.09c.2,0,.28-.09.28-.31V6.9c0-1-.2-2-1.34-2a3.88,3.88,0,0,0-2.39,1v4.64c0,.25,0,.28.25.31l.86.11v.83H15.7V11l.77-.09c.22,0,.25-.08.25-.31V5.32c0-.17,0-.28-.2-.32l-.88-.29.14-.82h2l.12.91h0a4.94,4.94,0,0,1,2.85-1.08c1.77,0,2.44,1.14,2.44,2.82v4c0,.25,0,.28.25.31l.88.11v.83Z"/><path class="cls-1" d="M29.48,11.8a15.26,15.26,0,0,0,.19-2.2v-8c0-.17,0-.28-.2-.32L28.55,1l.14-.82h2.37V4.62a4.78,4.78,0,0,1,2.64-.89c1.73,0,2.91,1.11,2.91,3.82,0,3.17-1.31,4.44-3.25,4.44A3.35,3.35,0,0,1,31,11l0,0-.08.74Zm1.59-2a3.34,3.34,0,0,0,2.11,1c1.45,0,2-1.2,2-3.16S34.42,4.9,33.33,4.9a4.1,4.1,0,0,0-2.27.86Z"/><path class="cls-1" d="M44.39,11.3a5.64,5.64,0,0,1-2.81.69c-2.79,0-3.7-1.83-3.7-4.13,0-2.82,1.57-4.13,3.51-4.13s3.17,1,3.17,3.68c0,.2,0,.51,0,.77H39.37c0,1.56.68,2.62,2.36,2.62a4.44,4.44,0,0,0,2.22-.55ZM43.18,7.12c0-1.76-.83-2.27-1.77-2.27s-1.9.55-2,2.27Z"/><path class="cls-1" d="M49,11.8V11l1-.09c.22,0,.25-.08.25-.31V5.32c0-.17,0-.28-.2-.32l-.88-.29.14-.82h2.34v6.67c0,.25,0,.28.25.31l1,.11v.83Zm1.76-9.63a.9.9,0,0,1-1-1,.9.9,0,0,1,1-1,.89.89,0,0,1,1,1A.89.89,0,0,1,50.73,2.17Z"/><path class="cls-1" d="M58.92,11.8V11l.74-.09c.2,0,.28-.09.28-.31V6.9c0-1-.2-2-1.34-2a3.88,3.88,0,0,0-2.39,1v4.64c0,.25,0,.28.25.31l.86.11v.83H53.79V11l.77-.09c.22,0,.25-.08.25-.31V5.32c0-.17,0-.28-.2-.32l-.88-.29.14-.82h2l.12.91h0a4.94,4.94,0,0,1,2.85-1.08c1.77,0,2.44,1.14,2.44,2.82v4c0,.25,0,.28.25.31l.88.11v.83Z"/><path class="cls-1" d="M70,11.3a5.64,5.64,0,0,1-2.8.69c-2.79,0-3.7-1.83-3.7-4.13C63.47,5,65,3.73,67,3.73s3.17,1,3.17,3.68c0,.2,0,.51,0,.77H64.95c0,1.56.68,2.62,2.36,2.62a4.44,4.44,0,0,0,2.22-.55ZM68.75,7.12c0-1.76-.83-2.27-1.77-2.27s-1.9.55-2,2.27Z"/><path class="cls-1" d="M71.34,11.8V11l1-.09c.22,0,.25-.08.25-.31V5.1c0-.09,0-.15-.12-.15H71.34V3.88h1.23V2.71C72.58.91,73.49,0,75.4,0c1.26,0,2.31.31,2.31,1.83L76.4,2c0-.82-.35-1-1.06-1C74.19,1,74,1.66,74,2.67V3.73c0,.11,0,.15.12.15h2.53V4.95H74v5.58c0,.25,0,.29.25.31L76,11v.83Z"/><path class="cls-1" d="M77.6,11.8V11l1-.09c.22,0,.25-.08.25-.31V5.1c0-.09,0-.15-.12-.15H77.6V3.88h1.23V2.71c0-1.8.91-2.71,2.82-2.71C82.92,0,84,.31,84,1.83L82.65,2c0-.82-.35-1-1.06-1-1.14,0-1.36.62-1.36,1.62V3.73c0,.11,0,.15.12.15h2.53V4.95H80.23v5.58c0,.25,0,.29.25.31l1.8.14v.83Z"/><path class="cls-1" d="M83.95,11.8V11l1-.09c.22,0,.25-.08.25-.31V5.32c0-.17,0-.28-.2-.32l-.88-.29.14-.82h2.34v6.67c0,.25,0,.28.25.31l1,.11v.83ZM85.7,2.17a.9.9,0,0,1-1-1,.9.9,0,0,1,1-1,.89.89,0,0,1,1,1A.89.89,0,0,1,85.7,2.17Z"/><path class="cls-1" d="M95,11.34a5.2,5.2,0,0,1-2.64.65c-2.64,0-3.76-1.62-3.76-4.05,0-2.93,1.7-4.21,4-4.21A5.64,5.64,0,0,1,95,4.21v2l-1,0-.19-1A.22.22,0,0,0,93.56,5a3.5,3.5,0,0,0-1-.14c-1.37,0-2.47.8-2.47,3s1,3,2.51,3a4.12,4.12,0,0,0,2-.51Z"/><path class="cls-1" d="M95.86,11.8V11l1-.09c.22,0,.25-.08.25-.31V5.32c0-.17,0-.28-.2-.32L96,4.7l.14-.82h2.34v6.67c0,.25,0,.28.25.31l1,.11v.83Zm1.76-9.63a.9.9,0,0,1-1-1,.9.9,0,0,1,1-1,.89.89,0,0,1,1,1A.89.89,0,0,1,97.62,2.17Z"/><path class="cls-1" d="M107,11.3a5.64,5.64,0,0,1-2.8.69c-2.79,0-3.7-1.83-3.7-4.13,0-2.82,1.57-4.13,3.51-4.13s3.17,1,3.17,3.68c0,.2,0,.51,0,.77H102c0,1.56.68,2.62,2.36,2.62a4.44,4.44,0,0,0,2.22-.55Zm-1.22-4.18c0-1.76-.83-2.27-1.77-2.27s-1.9.55-2,2.27Z"/><path class="cls-1" d="M113.53,11.8V11l.74-.09c.2,0,.28-.09.28-.31V6.9c0-1-.2-2-1.34-2a3.88,3.88,0,0,0-2.39,1v4.64c0,.25,0,.28.25.31l.86.11v.83H108.4V11l.77-.09c.22,0,.25-.08.25-.31V5.32c0-.17,0-.28-.2-.32l-.88-.29.14-.82h2l.12.91h0a4.94,4.94,0,0,1,2.85-1.08c1.77,0,2.44,1.14,2.44,2.82v4c0,.25,0,.28.25.31l.88.11v.83Z"/><path class="cls-1" d="M123.3,11.51a5.82,5.82,0,0,1-2.14.48c-1.48,0-2.14-.69-2.14-2.08V5.1c0-.09,0-.15-.12-.15h-1.12V4.05c1.2-.15,1.54-.63,1.74-2.2h.91V3.73c0,.09,0,.15.12.15h2.27V4.95h-2.39V9.49c0,1,.23,1.34,1.11,1.34a4,4,0,0,0,1.43-.31Z"/><path class="cls-1" d="M125.37,12a.89.89,0,0,1-1-1,1,1,0,0,1,2,0A.89.89,0,0,1,125.37,12Z"/></svg>