<svg id="Layer_2" data-name="Layer 2" xmlns="http://www.w3.org/2000/svg" viewBox="0 0 184.11 13.52"><defs><style>.cls-1{fill:#fff;}</style></defs><title>Artboard 1</title><path class="cls-1" d="M.83,10.41a13.74,13.74,0,0,0,.17-2V1.28C1,1.13,1,1,.81,1L0,.73.12,0H2.25V4a4.27,4.27,0,0,1,2.36-.8c1.54,0,2.61,1,2.61,3.42,0,2.84-1.17,4-2.91,4a3,3,0,0,1-2.14-.86l0,0-.07.66ZM2.25,8.65a3,3,0,0,0,1.89.9c1.3,0,1.81-1.08,1.81-2.83S5.26,4.23,4.28,4.23a3.68,3.68,0,0,0-2,.77Z"/><path class="cls-1" d="M14.18,10a5.05,5.05,0,0,1-2.51.62c-2.5,0-3.31-1.64-3.31-3.7,0-2.52,1.41-3.7,3.15-3.7s2.84.91,2.84,3.3c0,.18,0,.46,0,.69H9.69c0,1.39.61,2.34,2.11,2.34a4,4,0,0,0,2-.5ZM13.09,6.22c0-1.57-.75-2-1.59-2s-1.7.5-1.81,2Z"/><path class="cls-1" d="M19.27,13.34v-.76l1-.12c.17,0,.22-.1.3-.29l.8-1.83L18.89,4.46c-.07-.17-.12-.19-.29-.23L18,4.08l.17-.76h2.86v.76l-.91.11L22,8.83,23.9,4.19,23,4.08l.15-.76h2.73v.76l-.47.07a.4.4,0,0,0-.34.23l-3.35,8.07,1.34.14v.74Z"/><path class="cls-1" d="M26.23,6.84c0-2.17,1.1-3.66,3.46-3.66S33,4.69,33,6.76c0,2.32-1,3.82-3.41,3.82S26.23,9,26.23,6.84Zm5.43,0c0-1.81-.66-2.61-2-2.61s-2.14.8-2.14,2.62.7,2.72,2.07,2.72S31.66,8.73,31.66,6.84Z"/><path class="cls-1" d="M39.75,10.41l-.11-.94h0a4,4,0,0,1-2.66,1.12c-1.52,0-2-.92-2-2.51V4.57c0-.22,0-.28-.22-.32L34,4.07l.11-.74h2.08V7.78c0,1.2.21,1.78,1.08,1.78a3.15,3.15,0,0,0,2.22-1.2V4.55c0-.22,0-.26-.22-.3l-.69-.18.11-.74h2.06v6c0,.21,0,.28.19.29l.73.1v.75Z"/><path class="cls-1" d="M42.74,10.41V9.66l.69-.08c.19,0,.22-.07.22-.28V4.61c0-.15,0-.25-.18-.29l-.79-.26.12-.73h1.81l.14,1h0a2.82,2.82,0,0,1,2.07-1.1,4.32,4.32,0,0,1,1,.13V5.39l-1,0-.17-1c0-.11,0-.14-.17-.14a2.87,2.87,0,0,0-1.64.87V9.28c0,.22,0,.26.22.28l1.27.11v.75Z"/><path class="cls-1" d="M52.36,10.41a13.67,13.67,0,0,0,.17-2V1.28c0-.15,0-.25-.18-.29L51.53.73,51.66,0h2.12V4a4.27,4.27,0,0,1,2.36-.8c1.54,0,2.61,1,2.61,3.42,0,2.84-1.17,4-2.91,4a3,3,0,0,1-2.14-.86l0,0-.07.66Zm1.42-1.77a3,3,0,0,0,1.89.9c1.3,0,1.81-1.08,1.81-2.83s-.69-2.48-1.67-2.48a3.67,3.67,0,0,0-2,.77Z"/><path class="cls-1" d="M59.7,10.41V9.66l.91-.08c.19,0,.22-.07.22-.28V4.61c0-.15,0-.25-.18-.29l-.79-.26L60,3.32h2.1v6c0,.22,0,.25.22.28l.88.1v.75Zm1.57-8.62a.81.81,0,0,1-.9-.88.81.81,0,0,1,.9-.87.8.8,0,0,1,.88.87A.8.8,0,0,1,61.27,1.79Z"/><path class="cls-1" d="M69.45,4.3A2.14,2.14,0,0,1,70,5.74,2.57,2.57,0,0,1,67.1,8.28a3.47,3.47,0,0,1-1.17-.17l-.62,1.2,1.7.1c2.48.14,3.6.26,3.6,1.89,0,1.37-1.17,2.22-3.57,2.22s-3.21-.65-3.21-1.7a2.17,2.17,0,0,1,.84-1.56A.76.76,0,0,1,64,9.52a1.41,1.41,0,0,1,.3-.76c.22-.32.51-.66.76-1a2.13,2.13,0,0,1-1-2c0-1.54,1.12-2.62,3-2.62a4.76,4.76,0,0,1,1.23.14h2.46v.88Zm-3.79,6.18a1.79,1.79,0,0,0-.61,1.14c0,.75.77.91,2.12.92.73,0,2.14-.11,2.14-1.16,0-.65-.54-.7-1.43-.79ZM67.1,4.19c-1,0-1.72.5-1.72,1.57,0,.81.47,1.48,1.68,1.48a1.51,1.51,0,0,0,1.68-1.56A1.44,1.44,0,0,0,67.1,4.19Z"/><path class="cls-1" d="M76.93,4.3a2.14,2.14,0,0,1,.51,1.43,2.57,2.57,0,0,1-2.87,2.54,3.47,3.47,0,0,1-1.17-.17l-.62,1.2,1.7.1c2.48.14,3.6.26,3.6,1.89,0,1.37-1.17,2.22-3.57,2.22s-3.21-.65-3.21-1.7a2.17,2.17,0,0,1,.84-1.56.76.76,0,0,1-.61-.75,1.41,1.41,0,0,1,.3-.76c.22-.32.51-.66.76-1a2.14,2.14,0,0,1-1-2c0-1.54,1.12-2.62,3-2.62a4.76,4.76,0,0,1,1.23.14h2.46v.88Zm-3.79,6.18a1.79,1.79,0,0,0-.61,1.14c0,.75.77.91,2.12.92.73,0,2.14-.11,2.14-1.16,0-.65-.54-.7-1.43-.79Zm1.43-6.29c-1,0-1.72.5-1.72,1.57,0,.81.47,1.48,1.68,1.48a1.51,1.51,0,0,0,1.68-1.56A1.44,1.44,0,0,0,74.57,4.19Z"/><path class="cls-1" d="M84.69,10a5,5,0,0,1-2.51.62c-2.5,0-3.31-1.64-3.31-3.7,0-2.52,1.41-3.7,3.15-3.7s2.84.91,2.84,3.3c0,.18,0,.46,0,.69H80.19c0,1.39.61,2.34,2.11,2.34a4,4,0,0,0,2-.5ZM83.6,6.22c0-1.57-.75-2-1.59-2s-1.7.5-1.81,2Z"/><path class="cls-1" d="M90.07,5.3l-.17-.86c0-.1,0-.15-.14-.18a3.6,3.6,0,0,0-1.08-.15c-1,0-1.46.44-1.46,1,0,.79.83,1,1.72,1.19,1.08.28,2.25.61,2.25,2.1s-1.34,2.15-2.8,2.15a6.59,6.59,0,0,1-2.5-.47V8.28l.92.05.17,1a.2.2,0,0,0,.17.19,3.9,3.9,0,0,0,1.35.22c.92,0,1.52-.35,1.52-1.09s-.79-1-1.67-1.23c-1.08-.25-2.29-.52-2.29-2s1.32-2.15,2.75-2.15A6.38,6.38,0,0,1,91,3.57V5.35Z"/><path class="cls-1" d="M97,10.15a5.22,5.22,0,0,1-1.92.43c-1.32,0-1.92-.62-1.92-1.86V4.41c0-.08,0-.14-.11-.14H92v-.8c1.08-.14,1.38-.57,1.56-2h.81V3.19c0,.08,0,.14.11.14h2v1H94.4V8.34c0,.87.21,1.2,1,1.2a3.63,3.63,0,0,0,1.28-.28Z"/><path class="cls-1" d="M106.8,10a5.05,5.05,0,0,1-2.51.62c-2.5,0-3.31-1.64-3.31-3.7,0-2.52,1.41-3.7,3.15-3.7S107,4.1,107,6.48c0,.18,0,.46,0,.69h-4.63c0,1.39.61,2.34,2.11,2.34a4,4,0,0,0,2-.5Zm-1.09-3.74c0-1.57-.75-2-1.59-2s-1.7.5-1.81,2Z"/><path class="cls-1" d="M112.65,10.41V9.66l.66-.08c.18,0,.25-.08.25-.28V6c0-.9-.18-1.77-1.2-1.77a3.48,3.48,0,0,0-2.14.88V9.3c0,.22,0,.25.22.28l.77.1v.75h-3.16V9.66l.69-.08c.19,0,.22-.07.22-.28V4.61c0-.15,0-.25-.18-.29L108,4.05l.12-.73h1.81l.11.81h0a4.43,4.43,0,0,1,2.55-1c1.59,0,2.18,1,2.18,2.52V9.3c0,.22,0,.25.22.28l.79.1v.75Z"/><path class="cls-1" d="M122.55,10a5.05,5.05,0,0,1-2.51.62c-2.5,0-3.31-1.64-3.31-3.7,0-2.52,1.41-3.7,3.15-3.7s2.84.91,2.84,3.3c0,.18,0,.46,0,.69H118c0,1.39.61,2.34,2.11,2.34a4,4,0,0,0,2-.5Zm-1.09-3.74c0-1.57-.75-2-1.59-2s-1.7.5-1.81,2Z"/><path class="cls-1" d="M123.8,10.41V9.66l.69-.08c.19,0,.22-.07.22-.28V4.61c0-.15,0-.25-.18-.29l-.79-.26.12-.73h1.81l.14,1h0a2.82,2.82,0,0,1,2.07-1.1,4.32,4.32,0,0,1,1,.13V5.39l-1,0-.17-1c0-.11,0-.14-.17-.14a2.87,2.87,0,0,0-1.64.87V9.28c0,.22,0,.26.22.28l1.27.11v.75Z"/><path class="cls-1" d="M135.14,4.3a2.14,2.14,0,0,1,.51,1.43,2.57,2.57,0,0,1-2.87,2.54,3.47,3.47,0,0,1-1.17-.17L131,9.31l1.7.1c2.48.14,3.6.26,3.6,1.89,0,1.37-1.17,2.22-3.57,2.22s-3.21-.65-3.21-1.7a2.17,2.17,0,0,1,.84-1.56.76.76,0,0,1-.61-.75,1.41,1.41,0,0,1,.3-.76c.22-.32.51-.66.76-1a2.13,2.13,0,0,1-1-2c0-1.54,1.12-2.62,3-2.62a4.76,4.76,0,0,1,1.23.14h2.46v.88Zm-3.79,6.18a1.79,1.79,0,0,0-.61,1.14c0,.75.77.91,2.12.92.73,0,2.14-.11,2.14-1.16,0-.65-.54-.7-1.43-.79Zm1.43-6.29c-1,0-1.72.5-1.72,1.57,0,.81.47,1.48,1.68,1.48a1.51,1.51,0,0,0,1.68-1.56A1.44,1.44,0,0,0,132.78,4.19Z"/><path class="cls-1" d="M137.92,13.34v-.76l1-.12c.17,0,.22-.1.3-.29l.8-1.83-2.48-5.88c-.07-.17-.12-.19-.29-.23l-.57-.14.17-.76h2.86v.76l-.91.11,1.83,4.63,1.92-4.63-.94-.11.15-.76h2.73v.76l-.47.07a.4.4,0,0,0-.35.23l-3.35,8.07,1.34.14v.74Z"/><path class="cls-1" d="M153.52,10.41l-.11-.91h-.05a3.35,3.35,0,0,1-2.43,1.09c-1.57,0-2.61-1-2.61-3.56,0-2.72,1.23-3.83,2.88-3.83a3.66,3.66,0,0,1,2.11.66V1.27a.26.26,0,0,0-.18-.28l-.83-.26.12-.73h2.11V9.3c0,.22,0,.25.22.28l.7.1v.75ZM153.29,5a3.22,3.22,0,0,0-1.89-.75c-1.3,0-1.81,1.13-1.81,2.77,0,1.92.65,2.54,1.61,2.54a3.1,3.1,0,0,0,2.08-1.14Z"/><path class="cls-1" d="M156.43,10.41V9.66l.69-.08c.19,0,.22-.07.22-.28V4.61c0-.15,0-.25-.18-.29l-.79-.26.12-.73h1.81l.14,1h0a2.83,2.83,0,0,1,2.07-1.1,4.33,4.33,0,0,1,1,.13V5.39l-1,0-.17-1c0-.11,0-.14-.17-.14a2.87,2.87,0,0,0-1.64.87V9.28c0,.22,0,.26.22.28l1.27.11v.75Z"/><path class="cls-1" d="M166.73,10.41l-.12-.9h0a3.52,3.52,0,0,1-2.5,1.08,1.72,1.72,0,0,1-1.94-1.89c0-1.38.86-2,2.51-2.17l1.86-.15V5.64c0-1-.19-1.5-1.39-1.5-.84,0-1.45,0-1.46,1.06l-1.19-.12c0-1.7,1.57-1.89,2.66-1.89,2,0,2.62.55,2.62,2.46V9.3c0,.22,0,.25.22.28l.7.1v.75Zm-.24-3.17-1.56.14c-1.19.11-1.52.46-1.52,1.17s.32,1,1,1a3.59,3.59,0,0,0,2.11-1.06Z"/><path class="cls-1" d="M169.31,10.41V9.66l.91-.08c.19,0,.22-.07.22-.28V4.61c0-.15,0-.25-.18-.29l-.79-.26.12-.73h2.1v6c0,.22,0,.25.22.28l.88.1v.75Zm1.57-8.62a.81.81,0,0,1-.9-.88.81.81,0,0,1,.9-.87.8.8,0,0,1,.88.87A.8.8,0,0,1,170.88,1.79Z"/><path class="cls-1" d="M178.22,10.41V9.66l.66-.08c.18,0,.25-.08.25-.28V6c0-.9-.18-1.77-1.2-1.77a3.48,3.48,0,0,0-2.14.88V9.3c0,.22,0,.25.22.28l.77.1v.75h-3.16V9.66l.69-.08c.19,0,.22-.07.22-.28V4.61c0-.15,0-.25-.18-.29l-.79-.26.12-.73h1.81l.11.81h0a4.42,4.42,0,0,1,2.55-1c1.59,0,2.18,1,2.18,2.52V9.3c0,.22,0,.25.22.28l.79.1v.75Z"/><path class="cls-1" d="M183.2,10.58a.79.79,0,0,1-.91-.87.91.91,0,0,1,1.82,0A.79.79,0,0,1,183.2,10.58Z"/></svg>