<svg id="Layer_2" data-name="Layer 2" xmlns="http://www.w3.org/2000/svg" viewBox="0 0 149.28 24.06"><defs><style>.cls-1{fill:#fff;}</style></defs><title>Artboard 1</title><path class="cls-1" d="M4,2.23l-.15-.87c0-.14-.06-.19-.11-.22A2,2,0,0,0,2.8,1c-1.06,0-1.57.46-1.57,1.19S2,3.26,2.79,3.51c1,.32,2.19.66,2.19,2.2S3.73,7.88,2.26,7.88A5.93,5.93,0,0,1,.1,7.49V5.8H.79l.19.9a.25.25,0,0,0,.21.23,3.57,3.57,0,0,0,1.15.17c1,0,1.67-.4,1.67-1.29S3.31,4.64,2.51,4.41C1.47,4.1.27,3.83.27,2.28S1.42.19,2.84.19A5.43,5.43,0,0,1,4.75.54V2.29Z"/><path class="cls-1" d="M10.58,7.75l-1-4.07L8.46,7.75H7.33L5.88,3.31c0-.12-.09-.14-.22-.17L5.23,3l.12-.56H7.41V3l-.66.08L7.91,6.81,9.09,2.63h1.08l1,4.17L12.3,3.12,11.63,3l.11-.56h1.94V3l-.37.06c-.17,0-.22.07-.26.21L11.67,7.75Z"/><path class="cls-1" d="M14,7.75V7.19l.68-.06c.14,0,.16-.05.16-.21V3.43c0-.11,0-.19-.13-.22L14.16,3l.09-.54h1.56V6.92c0,.16,0,.19.16.21l.66.07v.55ZM15.2,1.33a.6.6,0,0,1-.67-.66A.6.6,0,0,1,15.2,0a.59.59,0,0,1,.66.65A.59.59,0,0,1,15.2,1.33Z"/><path class="cls-1" d="M20.76,7.56a3.88,3.88,0,0,1-1.43.32c-1,0-1.43-.46-1.43-1.39V3.29c0-.06,0-.1-.08-.1h-.75v-.6c.8-.1,1-.42,1.16-1.47h.61V2.37c0,.06,0,.1.08.1h1.51v.71H18.84v3c0,.65.15.89.74.89a2.69,2.69,0,0,0,1-.21Z"/><path class="cls-1" d="M25.37,7.45a3.46,3.46,0,0,1-1.76.43c-1.76,0-2.51-1.08-2.51-2.7a2.49,2.49,0,0,1,2.69-2.8,3.76,3.76,0,0,1,1.56.32V4.06l-.69,0-.12-.68a.15.15,0,0,0-.12-.14,2.34,2.34,0,0,0-.7-.09c-.91,0-1.64.53-1.64,2s.68,2,1.67,2a2.74,2.74,0,0,0,1.31-.34Z"/><path class="cls-1" d="M29.48,7.75V7.19L30,7.13c.13,0,.19-.06.19-.21V4.53c0-.76-.13-1.37-.86-1.37a2.79,2.79,0,0,0-1.62.67V6.92c0,.16,0,.19.16.21l.57.07v.55H26.06V7.19l.51-.06c.14,0,.16-.05.16-.21V1c0-.11,0-.18-.13-.22L26,.54,26.08,0h1.58V3.05a3.11,3.11,0,0,1,1.85-.68c1.1,0,1.58.71,1.58,1.87V6.92c0,.16,0,.19.16.21l.59.07v.55Z"/><path class="cls-1" d="M38.32,7.56a3.88,3.88,0,0,1-1.43.32c-1,0-1.43-.46-1.43-1.39V3.29c0-.06,0-.1-.08-.1h-.75v-.6c.8-.1,1-.42,1.16-1.47h.61V2.37c0,.06,0,.1.08.1H38v.71H36.4v3c0,.65.15.89.74.89a2.69,2.69,0,0,0,1-.21Z"/><path class="cls-1" d="M38.67,5.09a2.41,2.41,0,0,1,2.58-2.72C43,2.37,43.68,3.49,43.68,5c0,1.73-.78,2.84-2.54,2.84S38.67,6.73,38.67,5.09Zm4,0c0-1.35-.49-1.94-1.49-1.94s-1.59.6-1.59,2,.52,2,1.54,2S42.71,6.5,42.71,5.09Z"/><path class="cls-1" d="M50.27,7.75l-.09-.67h0a2.62,2.62,0,0,1-1.86.8,1.28,1.28,0,0,1-1.45-1.41c0-1,.64-1.51,1.87-1.61l1.39-.11V4.2c0-.75-.14-1.12-1-1.12-.63,0-1.08,0-1.09.79l-.88-.09c0-1.26,1.17-1.41,2-1.41,1.46,0,2,.41,2,1.83V6.92c0,.16,0,.19.16.21l.52.07v.55Zm-.17-2.36-1.16.1c-.88.08-1.13.34-1.13.87s.24.78.72.78a2.68,2.68,0,0,0,1.57-.79Z"/><path class="cls-1" d="M55.77,7.75V7.19l.49-.06c.13,0,.19-.06.19-.21V4.49c0-.67-.13-1.31-.89-1.31A2.59,2.59,0,0,0,54,3.83V6.92c0,.16,0,.19.16.21l.57.07v.55H52.35V7.19l.51-.06c.14,0,.16-.05.16-.21V3.43c0-.11,0-.19-.13-.22L52.31,3l.09-.54h1.35l.08.61h0a3.29,3.29,0,0,1,1.9-.72c1.18,0,1.62.76,1.62,1.88V6.92c0,.16,0,.19.16.21l.59.07v.55Z"/><path class="cls-1" d="M65.41,7.41a3.75,3.75,0,0,1-1.87.46c-1.86,0-2.46-1.22-2.46-2.75,0-1.88,1-2.75,2.34-2.75s2.12.68,2.12,2.45c0,.13,0,.34,0,.51H62.06c0,1,.45,1.75,1.57,1.75a3,3,0,0,0,1.48-.37ZM64.6,4.63c0-1.17-.55-1.51-1.18-1.51s-1.26.37-1.35,1.51Z"/><path class="cls-1" d="M66.22,7.75V7.19l.64-.06c.14,0,.16-.05.16-.21V1c0-.11,0-.18-.13-.22l-.62-.2L66.36,0H68V6.92c0,.16,0,.19.16.21l.62.07v.55Z"/><path class="cls-1" d="M73.7,7.41a3.75,3.75,0,0,1-1.87.46c-1.86,0-2.46-1.22-2.46-2.75,0-1.88,1-2.75,2.34-2.75s2.12.68,2.12,2.45c0,.13,0,.34,0,.51H70.35c0,1,.45,1.75,1.57,1.75a3,3,0,0,0,1.48-.37Zm-.81-2.78c0-1.17-.55-1.51-1.18-1.51s-1.26.37-1.35,1.51Z"/><path class="cls-1" d="M78.87,7.45a3.46,3.46,0,0,1-1.76.43c-1.76,0-2.51-1.08-2.51-2.7a2.49,2.49,0,0,1,2.69-2.8,3.76,3.76,0,0,1,1.56.32V4.06l-.69,0L78,3.35a.15.15,0,0,0-.12-.14,2.34,2.34,0,0,0-.7-.09c-.91,0-1.64.53-1.64,2s.68,2,1.67,2a2.74,2.74,0,0,0,1.31-.34Z"/><path class="cls-1" d="M83.13,7.56a3.88,3.88,0,0,1-1.43.32c-1,0-1.43-.46-1.43-1.39V3.29c0-.06,0-.1-.08-.1h-.75v-.6c.8-.1,1-.42,1.16-1.47h.61V2.37c0,.06,0,.1.08.1H82.8v.71H81.21v3c0,.65.15.89.74.89a2.69,2.69,0,0,0,1-.21Z"/><path class="cls-1" d="M83.84,7.75V7.19l.51-.06c.14,0,.16-.05.16-.21V3.43c0-.11,0-.19-.13-.22L83.8,3l.09-.54h1.35l.1.71h0a2.1,2.1,0,0,1,1.54-.82,3.24,3.24,0,0,1,.74.09V4l-.73,0-.12-.71c0-.08,0-.1-.12-.1a2.14,2.14,0,0,0-1.22.65V6.91c0,.16,0,.2.16.21l.94.08v.55Z"/><path class="cls-1" d="M88.12,7.75V7.19l.68-.06c.14,0,.16-.05.16-.21V3.43c0-.11,0-.19-.13-.22L88.25,3l.09-.54H89.9V6.92c0,.16,0,.19.16.21l.66.07v.55Zm1.17-6.42a.6.6,0,0,1-.67-.66A.6.6,0,0,1,89.29,0,.59.59,0,0,1,90,.68.59.59,0,0,1,89.29,1.33Z"/><path class="cls-1" d="M95.47,7.45a3.46,3.46,0,0,1-1.76.43c-1.76,0-2.51-1.08-2.51-2.7a2.49,2.49,0,0,1,2.69-2.8,3.76,3.76,0,0,1,1.56.32V4.06l-.69,0-.12-.68a.15.15,0,0,0-.12-.14,2.34,2.34,0,0,0-.7-.09c-.91,0-1.64.53-1.64,2s.68,2,1.67,2a2.74,2.74,0,0,0,1.31-.34Z"/><path class="cls-1" d="M101.92,7.75V7.19l.49-.06c.13,0,.19-.06.19-.21V4.53c0-.76-.13-1.37-.86-1.37a2.79,2.79,0,0,0-1.62.67V6.92c0,.16,0,.19.16.21l.57.07v.55H98.5V7.19L99,7.13c.14,0,.16-.05.16-.21V1c0-.11,0-.18-.13-.22l-.62-.2L98.52,0h1.58V3.05A3.11,3.11,0,0,1,102,2.37c1.1,0,1.58.71,1.58,1.87V6.92c0,.16,0,.19.16.21l.59.07v.55Z"/><path class="cls-1" d="M109.28,7.41a3.75,3.75,0,0,1-1.87.46c-1.86,0-2.46-1.22-2.46-2.75,0-1.88,1-2.75,2.34-2.75s2.12.68,2.12,2.45c0,.13,0,.34,0,.51h-3.45c0,1,.45,1.75,1.57,1.75A3,3,0,0,0,109,6.72Zm-.81-2.78c0-1.17-.55-1.51-1.18-1.51s-1.26.37-1.35,1.51Z"/><path class="cls-1" d="M113.55,7.75l-.09-.67h0a2.62,2.62,0,0,1-1.86.8,1.28,1.28,0,0,1-1.45-1.41c0-1,.64-1.51,1.87-1.61l1.39-.11V4.2c0-.75-.14-1.12-1-1.12-.63,0-1.08,0-1.09.79l-.88-.09c0-1.26,1.17-1.41,2-1.41,1.46,0,2,.41,2,1.83V6.92c0,.16,0,.19.16.21l.52.07v.55Zm-.17-2.36-1.16.1c-.88.08-1.13.34-1.13.87s.24.78.72.78a2.68,2.68,0,0,0,1.57-.79Z"/><path class="cls-1" d="M119,7.56a3.88,3.88,0,0,1-1.43.32c-1,0-1.43-.46-1.43-1.39V3.29c0-.06,0-.1-.08-.1h-.75v-.6c.8-.1,1-.42,1.16-1.47h.61V2.37c0,.06,0,.1.08.1h1.51v.71h-1.59v3c0,.65.15.89.74.89a2.69,2.69,0,0,0,1-.21Z"/><path class="cls-1" d="M122.11,9.93V9.37l.42-.06c.14,0,.17-.05.17-.21V3.43c0-.11,0-.19-.13-.22L122,3l.09-.54h1.36l.09.6h0a3,3,0,0,1,1.84-.71c1.15,0,1.93.74,1.93,2.55,0,1.54-.52,3-2.14,3a2.21,2.21,0,0,1-1.56-.56V9.09c0,.16,0,.2.16.21l1,.08v.55Zm1.52-3.49a2.15,2.15,0,0,0,1.41.67c1,0,1.35-.81,1.35-2.1s-.54-1.84-1.18-1.84a2.74,2.74,0,0,0-1.57.64Z"/><path class="cls-1" d="M132.41,7.75l-.08-.7h0a3,3,0,0,1-2,.83c-1.13,0-1.48-.69-1.48-1.87V3.4c0-.16,0-.21-.16-.24L128.15,3l.08-.55h1.55V5.79c0,.89.15,1.32.8,1.32a2.35,2.35,0,0,0,1.65-.89V3.39c0-.16,0-.2-.16-.23L131.56,3l.08-.55h1.53V6.91c0,.15,0,.21.14.22l.54.07v.55Z"/><path class="cls-1" d="M140.95,7.75V7.19l.49-.06c.13,0,.19-.06.19-.21V4.45c0-.65-.14-1.26-.87-1.26a2.41,2.41,0,0,0-1.36.5,5.81,5.81,0,0,1,0,.63V6.92c0,.16,0,.19.16.21l.5.07v.55h-2.28V7.19l.49-.06c.13,0,.18-.06.18-.21V4.44c0-.59,0-1.25-.78-1.25a2.51,2.51,0,0,0-1.47.64v3.1c0,.16,0,.19.16.21l.55.07v.55h-2.33V7.19l.51-.06c.14,0,.16-.05.16-.21V3.43c0-.11,0-.19-.13-.22L134.59,3l.09-.54H136l.08.61h0A2.77,2.77,0,0,1,138,2.37a1.36,1.36,0,0,1,1.26.66A3.08,3.08,0,0,1,141,2.37c1.17,0,1.52.72,1.52,1.91V6.92c0,.16,0,.19.16.21l.59.07v.55Z"/><path class="cls-1" d="M144.07,9.93V9.37l.42-.06c.14,0,.17-.05.17-.21V3.43c0-.11,0-.19-.13-.22L143.94,3l.09-.54h1.36l.09.6h0a3,3,0,0,1,1.84-.71c1.15,0,1.93.74,1.93,2.55,0,1.54-.52,3-2.14,3a2.21,2.21,0,0,1-1.56-.56V9.09c0,.16,0,.2.16.21l1,.08v.55Zm1.52-3.49a2.15,2.15,0,0,0,1.41.67c1,0,1.34-.81,1.34-2.1s-.54-1.84-1.18-1.84a2.74,2.74,0,0,0-1.57.64Z"/><path class="cls-1" d="M3.43,21.75l-.09-.67h0a2.62,2.62,0,0,1-1.86.8A1.28,1.28,0,0,1,0,20.47c0-1,.64-1.51,1.87-1.61l1.39-.11V18.2c0-.75-.14-1.12-1-1.12-.63,0-1.08,0-1.09.79l-.88-.09c0-1.26,1.17-1.41,2-1.41,1.46,0,2,.41,2,1.83v2.72c0,.16,0,.19.16.21l.52.07v.55Zm-.17-2.36-1.16.1c-.88.08-1.13.34-1.13.87s.24.78.72.78a2.68,2.68,0,0,0,1.57-.79Z"/><path class="cls-1" d="M8.93,21.75v-.56l.49-.06c.13,0,.19-.06.19-.21V18.49c0-.67-.13-1.31-.89-1.31a2.59,2.59,0,0,0-1.59.66v3.09c0,.16,0,.19.16.21l.57.07v.55H5.51v-.56L6,21.13c.14,0,.16-.05.16-.21V17.43c0-.11,0-.19-.13-.22L5.47,17l.09-.54H6.91l.08.61H7a3.29,3.29,0,0,1,1.9-.72c1.18,0,1.62.76,1.62,1.88v2.67c0,.16,0,.19.16.21l.59.07v.55Z"/><path class="cls-1" d="M15.91,21.75l-.08-.68h0a2.49,2.49,0,0,1-1.81.81c-1.17,0-1.94-.76-1.94-2.65s.91-2.85,2.15-2.85a2.72,2.72,0,0,1,1.57.49V14.94a.19.19,0,0,0-.13-.21l-.62-.2L15.1,14h1.57v6.92c0,.16,0,.19.16.21l.52.07v.55Zm-.17-4.06a2.39,2.39,0,0,0-1.41-.55c-1,0-1.35.84-1.35,2.06,0,1.43.48,1.89,1.2,1.89a2.31,2.31,0,0,0,1.55-.85Z"/><path class="cls-1" d="M24.45,17.2a1.6,1.6,0,0,1,.38,1.07,1.91,1.91,0,0,1-2.14,1.89,2.58,2.58,0,0,1-.87-.12l-.46.89,1.26.07c1.85.1,2.68.19,2.68,1.41,0,1-.87,1.65-2.66,1.65s-2.39-.48-2.39-1.26a1.61,1.61,0,0,1,.63-1.16.57.57,0,0,1-.45-.55,1.05,1.05,0,0,1,.23-.56c.16-.24.38-.49.56-.74a1.59,1.59,0,0,1-.77-1.46,2,2,0,0,1,2.23-2,3.56,3.56,0,0,1,.91.1h1.83v.66Zm-2.82,4.6a1.34,1.34,0,0,0-.45.85c0,.55.58.68,1.58.69.54,0,1.59-.08,1.59-.86,0-.48-.4-.52-1.07-.59Zm1.07-4.68a1.12,1.12,0,0,0-1.28,1.17c0,.61.35,1.1,1.25,1.1a1.13,1.13,0,0,0,1.25-1.16A1.07,1.07,0,0,0,22.7,17.12Z"/><path class="cls-1" d="M30.22,21.41a3.75,3.75,0,0,1-1.87.46c-1.86,0-2.46-1.22-2.46-2.75,0-1.88,1-2.75,2.34-2.75s2.12.68,2.12,2.45c0,.13,0,.34,0,.51H26.87c0,1,.45,1.75,1.57,1.75a3,3,0,0,0,1.48-.37Zm-.81-2.78c0-1.17-.55-1.51-1.18-1.51s-1.26.37-1.35,1.51Z"/><path class="cls-1" d="M34.66,21.56a3.88,3.88,0,0,1-1.43.32c-1,0-1.43-.46-1.43-1.39v-3.2c0-.06,0-.1-.08-.1H31v-.6c.8-.1,1-.42,1.16-1.47h.61v1.25c0,.06,0,.1.08.1h1.51v.71H32.74v3c0,.65.15.89.74.89a2.69,2.69,0,0,0,1-.21Z"/><path class="cls-1" d="M41.86,21.75l-.08-.7h0a3,3,0,0,1-2,.83c-1.13,0-1.48-.69-1.48-1.87V17.4c0-.16,0-.21-.16-.24L37.6,17l.08-.55h1.55v3.32c0,.89.15,1.32.8,1.32a2.35,2.35,0,0,0,1.65-.89V17.39c0-.16,0-.2-.16-.23L41,17l.08-.55h1.53v4.44c0,.15,0,.21.14.22l.54.07v.55Z"/><path class="cls-1" d="M44.16,23.93v-.57l.42-.06c.14,0,.17-.05.17-.21V17.43c0-.11,0-.19-.13-.22L44,17l.09-.54h1.36l.09.6h0a3,3,0,0,1,1.84-.71c1.15,0,1.93.74,1.93,2.55,0,1.54-.52,3-2.14,3a2.21,2.21,0,0,1-1.56-.56v1.78c0,.16,0,.19.16.21l1,.08v.55Zm1.52-3.49a2.15,2.15,0,0,0,1.41.67c1,0,1.35-.81,1.35-2.1s-.54-1.84-1.18-1.84a2.74,2.74,0,0,0-1.57.64Z"/><path class="cls-1" d="M56.09,21.56a3.88,3.88,0,0,1-1.43.32c-1,0-1.43-.46-1.43-1.39v-3.2c0-.06,0-.1-.08-.1H52.4v-.6c.8-.1,1-.42,1.16-1.47h.61v1.25c0,.06,0,.1.08.1h1.51v.71H54.17v3c0,.65.15.89.74.89a2.69,2.69,0,0,0,1-.21Z"/><path class="cls-1" d="M56.44,19.09A2.41,2.41,0,0,1,59,16.37c1.76,0,2.43,1.12,2.43,2.66,0,1.73-.78,2.84-2.54,2.84S56.44,20.73,56.44,19.09Zm4,0c0-1.35-.49-1.94-1.49-1.94s-1.59.6-1.59,2,.52,2,1.54,2S60.48,20.5,60.48,19.09Z"/><path class="cls-1" d="M68,21.75l-.09-.67h0a2.62,2.62,0,0,1-1.86.8,1.28,1.28,0,0,1-1.45-1.41c0-1,.64-1.51,1.87-1.61l1.39-.11V18.2c0-.75-.14-1.12-1-1.12-.63,0-1.08,0-1.09.79l-.88-.09c0-1.26,1.17-1.41,2-1.41,1.46,0,2,.41,2,1.83v2.72c0,.16,0,.19.16.21l.52.07v.55Zm-.17-2.36-1.16.1c-.88.08-1.13.34-1.13.87s.24.78.72.78a2.68,2.68,0,0,0,1.57-.79Z"/></svg>