<svg id="Layer_2" data-name="Layer 2" xmlns="http://www.w3.org/2000/svg" viewBox="0 0 181.38 13.67"><defs><style>.cls-1{fill:#fff;}</style></defs><title>Artboard 1</title><path class="cls-1" d="M0,10.57V9.82l.87-.1c.19,0,.22-.07.22-.28V1.71c0-.21,0-.26-.22-.28L0,1.34V.58H4.11c2.36,0,3,1.08,3,2.44A2.35,2.35,0,0,1,5.44,5.34v0A2.33,2.33,0,0,1,7.77,7.86c0,2-1.53,2.7-3.7,2.7ZM3.56,5c1.09,0,2.29-.32,2.29-1.79,0-1.27-.7-1.6-2.08-1.6H2.35V5Zm.36,4.58c1.45,0,2.52-.25,2.52-1.78,0-1.34-1-1.83-2.25-1.83H2.35V9.56Z"/><path class="cls-1" d="M14.18,10.57l-.11-.94h0a4,4,0,0,1-2.66,1.12c-1.52,0-2-.92-2-2.51V4.72c0-.22,0-.28-.22-.32l-.72-.18.11-.74h2.08V7.93c0,1.2.21,1.78,1.08,1.78a3.15,3.15,0,0,0,2.22-1.2V4.7c0-.22,0-.26-.22-.3L13,4.22l.11-.74H15.2v6c0,.21,0,.28.19.29l.73.1v.75Z"/><path class="cls-1" d="M21.9,10.3a5.22,5.22,0,0,1-1.92.43c-1.32,0-1.92-.62-1.92-1.86V4.57c0-.08,0-.14-.11-.14h-1v-.8c1.08-.14,1.38-.57,1.56-2h.81V3.34c0,.08,0,.14.11.14h2v1H19.32V8.5c0,.87.21,1.2,1,1.2a3.62,3.62,0,0,0,1.28-.28Z"/><path class="cls-1" d="M30.52,10.57V9.81l.66-.08c.18,0,.25-.08.25-.28V6.18c0-.9-.18-1.77-1.2-1.77a3.48,3.48,0,0,0-2.14.88V9.45c0,.22,0,.25.22.28l.77.1v.75H25.93V9.81l.69-.08c.19,0,.22-.07.22-.28V4.76c0-.15,0-.25-.18-.29l-.79-.26L26,3.48H27.8l.11.81h0a4.42,4.42,0,0,1,2.55-1c1.59,0,2.18,1,2.18,2.52V9.45c0,.22,0,.25.22.28l.79.1v.75Z"/><path class="cls-1" d="M39.28,10.57l-.12-.9h0a3.52,3.52,0,0,1-2.5,1.08,1.72,1.72,0,0,1-1.95-1.89c0-1.38.86-2,2.51-2.17L39,6.52V5.79c0-1-.19-1.5-1.39-1.5-.84,0-1.45,0-1.46,1.06L35,5.23c0-1.7,1.57-1.89,2.66-1.89,2,0,2.62.55,2.62,2.46V9.45c0,.22,0,.25.22.28l.7.1v.75ZM39,7.39l-1.56.14C36.3,7.64,36,8,36,8.7s.32,1,1,1A3.6,3.6,0,0,0,39,8.69Z"/><path class="cls-1" d="M46.66,10.3a5.22,5.22,0,0,1-1.92.43c-1.32,0-1.92-.62-1.92-1.86V4.57c0-.08,0-.14-.11-.14h-1v-.8c1.08-.14,1.38-.57,1.56-2h.81V3.34c0,.08,0,.14.11.14h2v1H44.08V8.5c0,.87.21,1.2,1,1.2a3.62,3.62,0,0,0,1.28-.28Z"/><path class="cls-1" d="M52.8,10.57l-.11-.94h0A4,4,0,0,1,50,10.73c-1.52,0-2-.92-2-2.51V4.72c0-.22,0-.28-.22-.32l-.72-.18.11-.74h2.08V7.93c0,1.2.21,1.78,1.08,1.78a3.15,3.15,0,0,0,2.22-1.2V4.7c0-.22,0-.26-.22-.3l-.69-.18.11-.74h2.06v6c0,.21,0,.28.19.29l.73.1v.75Z"/><path class="cls-1" d="M55.8,10.57V9.81l.69-.08c.19,0,.22-.07.22-.28V4.76c0-.15,0-.25-.18-.29l-.79-.26.12-.73h1.81l.14,1h0a2.82,2.82,0,0,1,2.07-1.1,4.35,4.35,0,0,1,1,.12V5.55l-1,0-.17-1c0-.11,0-.14-.17-.14A2.87,2.87,0,0,0,58,5.28V9.44c0,.22,0,.26.22.28l1.27.11v.75Z"/><path class="cls-1" d="M66.09,10.57,66,9.67h0a3.52,3.52,0,0,1-2.5,1.08,1.72,1.72,0,0,1-1.95-1.89c0-1.38.86-2,2.51-2.17l1.86-.15V5.79c0-1-.19-1.5-1.39-1.5-.84,0-1.45,0-1.46,1.06l-1.19-.12c0-1.7,1.57-1.89,2.66-1.89,2,0,2.62.55,2.62,2.46V9.45c0,.22,0,.25.22.28l.7.1v.75Zm-.23-3.17-1.56.14c-1.19.11-1.52.46-1.52,1.17s.32,1,1,1a3.6,3.6,0,0,0,2.11-1.06Z"/><path class="cls-1" d="M68.73,10.57V9.81l.85-.08c.19,0,.22-.07.22-.28v-8c0-.15,0-.25-.18-.29L68.79.88l.12-.73h2.14v9.3c0,.22,0,.25.22.28l.83.1v.75Z"/><path class="cls-1" d="M81.55,4.46a2.15,2.15,0,0,1,.51,1.43A2.57,2.57,0,0,1,79.2,8.43,3.47,3.47,0,0,1,78,8.26l-.62,1.2,1.7.1c2.48.14,3.6.26,3.6,1.89,0,1.37-1.17,2.22-3.57,2.22S75.91,13,75.91,12a2.17,2.17,0,0,1,.84-1.56.76.76,0,0,1-.61-.74,1.41,1.41,0,0,1,.3-.76c.22-.32.51-.66.76-1a2.14,2.14,0,0,1-1-2c0-1.54,1.12-2.62,3-2.62a4.77,4.77,0,0,1,1.23.14h2.46v.88Zm-3.79,6.18a1.79,1.79,0,0,0-.61,1.15c0,.75.77.91,2.12.92.73,0,2.14-.11,2.14-1.16,0-.65-.54-.7-1.43-.79ZM79.2,4.35a1.51,1.51,0,0,0-1.72,1.57c0,.81.47,1.48,1.68,1.48a1.51,1.51,0,0,0,1.68-1.56A1.44,1.44,0,0,0,79.2,4.35Z"/><path class="cls-1" d="M88.05,10.57l-.12-.9h0a3.52,3.52,0,0,1-2.5,1.08,1.72,1.72,0,0,1-1.95-1.89c0-1.38.86-2,2.51-2.17l1.86-.15V5.79c0-1-.19-1.5-1.39-1.5-.84,0-1.45,0-1.46,1.06l-1.19-.12c0-1.7,1.57-1.89,2.66-1.89,2,0,2.62.55,2.62,2.46V9.45c0,.22,0,.25.22.28l.7.1v.75Zm-.23-3.17-1.56.14c-1.19.11-1.52.46-1.52,1.17s.32,1,1,1a3.6,3.6,0,0,0,2.11-1.06Z"/><path class="cls-1" d="M95,5.45l-.17-.85c0-.1,0-.15-.14-.18a3.59,3.59,0,0,0-1.08-.15c-1,0-1.46.44-1.46,1,0,.79.83,1,1.72,1.19,1.08.28,2.25.61,2.25,2.1s-1.34,2.15-2.8,2.15a6.6,6.6,0,0,1-2.5-.47V8.43l.92.06.17,1a.2.2,0,0,0,.17.19,3.89,3.89,0,0,0,1.35.22c.92,0,1.52-.34,1.52-1.09s-.79-1-1.67-1.23C92.19,7.28,91,7,91,5.49s1.32-2.15,2.75-2.15a6.37,6.37,0,0,1,2.18.39V5.5Z"/><path class="cls-1" d="M100.21,10.57V9.81l.88-.08c.19,0,.22-.07.22-.28V4.57c0-.08,0-.14-.11-.14h-1v-1h1.1v-1c0-1.61.81-2.43,2.52-2.43,1.13,0,2.07.28,2.07,1.64l-1.17.17c0-.73-.32-.87-1-.87-1,0-1.21.55-1.21,1.45v1c0,.1,0,.14.11.14h2.26v1h-2.37v5c0,.22,0,.26.22.28l1.61.12v.75Z"/><path class="cls-1" d="M111.49,10.57l-.11-.94h0a4,4,0,0,1-2.66,1.12c-1.52,0-2-.92-2-2.51V4.72c0-.22,0-.28-.22-.32l-.72-.18.11-.74H108V7.93c0,1.2.21,1.78,1.08,1.78a3.15,3.15,0,0,0,2.22-1.2V4.7c0-.22,0-.26-.22-.3l-.69-.18.11-.74h2.06v6c0,.21,0,.28.19.29l.73.1v.75Z"/><path class="cls-1" d="M114.49,10.57V9.81l.69-.08c.19,0,.22-.07.22-.28V4.76c0-.15,0-.25-.18-.29l-.79-.26.12-.73h1.81l.14,1h0a2.82,2.82,0,0,1,2.07-1.1,4.35,4.35,0,0,1,1,.12V5.55l-1,0-.17-1c0-.11,0-.14-.17-.14a2.87,2.87,0,0,0-1.64.87V9.44c0,.22,0,.26.22.28l1.27.11v.75Z"/><path class="cls-1" d="M125.06,10.57V9.81l.66-.08c.18,0,.25-.08.25-.28V6.18c0-.9-.18-1.77-1.2-1.77a3.48,3.48,0,0,0-2.14.88V9.45c0,.22,0,.25.22.28l.77.1v.75h-3.16V9.81l.69-.08c.19,0,.22-.07.22-.28V4.76c0-.15,0-.25-.18-.29l-.79-.26.12-.73h1.81l.11.81h0a4.42,4.42,0,0,1,2.55-1c1.59,0,2.18,1,2.18,2.52V9.45c0,.22,0,.25.22.28l.79.1v.75Z"/><path class="cls-1" d="M133.82,10.57l-.12-.9h0a3.51,3.51,0,0,1-2.5,1.08,1.72,1.72,0,0,1-1.95-1.89c0-1.38.86-2,2.51-2.17l1.86-.15V5.79c0-1-.19-1.5-1.39-1.5-.84,0-1.45,0-1.46,1.06l-1.19-.12c0-1.7,1.57-1.89,2.66-1.89,2,0,2.62.55,2.62,2.46V9.45c0,.22,0,.25.22.28l.7.1v.75Zm-.23-3.17L132,7.53c-1.19.11-1.52.46-1.52,1.17s.32,1,1,1a3.6,3.6,0,0,0,2.11-1.06Z"/><path class="cls-1" d="M142.29,10.15a4.64,4.64,0,0,1-2.36.58c-2.36,0-3.37-1.45-3.37-3.63,0-2.62,1.52-3.77,3.61-3.77a5.05,5.05,0,0,1,2.1.43V5.6l-.92,0-.17-.91a.2.2,0,0,0-.17-.19,3.14,3.14,0,0,0-.94-.12c-1.23,0-2.21.72-2.21,2.69s.91,2.68,2.25,2.68a3.68,3.68,0,0,0,1.77-.46Z"/><path class="cls-1" d="M148.94,10.11a5,5,0,0,1-2.51.62c-2.5,0-3.31-1.64-3.31-3.7,0-2.52,1.41-3.7,3.14-3.7s2.84.91,2.84,3.3c0,.18,0,.46,0,.69h-4.63c0,1.39.61,2.35,2.11,2.35a4,4,0,0,0,2-.5Zm-1.09-3.74c0-1.57-.75-2-1.59-2s-1.7.5-1.81,2Z"/><path class="cls-1" d="M154.32,5.45l-.17-.85c0-.1,0-.15-.14-.18a3.59,3.59,0,0,0-1.08-.15c-1,0-1.46.44-1.46,1,0,.79.83,1,1.72,1.19,1.08.28,2.25.61,2.25,2.1s-1.34,2.15-2.8,2.15a6.6,6.6,0,0,1-2.5-.47V8.43l.92.06.17,1a.2.2,0,0,0,.17.19,3.9,3.9,0,0,0,1.35.22c.92,0,1.52-.34,1.52-1.09s-.79-1-1.67-1.23c-1.08-.25-2.29-.52-2.29-2s1.32-2.15,2.75-2.15a6.37,6.37,0,0,1,2.18.39V5.5Z"/><path class="cls-1" d="M165.28,10.15a4.64,4.64,0,0,1-2.36.58c-2.36,0-3.37-1.45-3.37-3.63,0-2.62,1.52-3.77,3.61-3.77a5.05,5.05,0,0,1,2.1.43V5.6l-.92,0-.17-.91a.2.2,0,0,0-.17-.19,3.14,3.14,0,0,0-.94-.12c-1.23,0-2.21.72-2.21,2.69s.91,2.68,2.25,2.68a3.68,3.68,0,0,0,1.77-.46Z"/><path class="cls-1" d="M170.81,10.57l-.12-.9h0a3.52,3.52,0,0,1-2.5,1.08,1.72,1.72,0,0,1-1.94-1.89c0-1.38.85-2,2.51-2.17l1.86-.15V5.79c0-1-.19-1.5-1.39-1.5-.84,0-1.45,0-1.46,1.06l-1.19-.12c0-1.7,1.57-1.89,2.66-1.89,2,0,2.62.55,2.62,2.46V9.45c0,.22,0,.25.22.28l.7.1v.75Zm-.23-3.17L169,7.53c-1.19.11-1.52.46-1.52,1.17s.32,1,1,1a3.59,3.59,0,0,0,2.11-1.06Z"/><path class="cls-1" d="M178.2,10.57V9.81l.66-.08c.18,0,.25-.08.25-.28V6.18c0-.9-.18-1.77-1.2-1.77a3.48,3.48,0,0,0-2.14.88V9.45c0,.22,0,.25.22.28l.77.1v.75h-3.16V9.81l.69-.08c.19,0,.22-.07.22-.28V4.76c0-.15,0-.25-.18-.29l-.79-.26.12-.73h1.81l.11.81h0a4.42,4.42,0,0,1,2.55-1c1.59,0,2.18,1,2.18,2.52V9.45c0,.22,0,.25.22.28l.79.1v.75Z"/></svg>