<svg id="Layer_2" data-name="Layer 2" xmlns="http://www.w3.org/2000/svg" viewBox="0 0 104.14 14.9"><defs><style>.cls-1{fill:#fff;}</style></defs><title>Artboard 1</title><path class="cls-1" d="M0,6C0,2.73,1.85.28,5.36.28s5.07,2.45,5.07,5.55c0,3.64-1.76,6-5.29,6S0,9.4,0,6ZM9,6c0-3-1.4-4.52-3.64-4.52S1.46,3,1.46,6,3,10.63,5.22,10.63,9,9.15,9,6Z"/><path class="cls-1" d="M11.63,11.64v-.85l1-.09c.22,0,.25-.08.25-.31v-9c0-.17,0-.28-.2-.32L11.71.82,11.85,0h2.39V10.39c0,.25,0,.28.25.31l.92.11v.83Z"/><path class="cls-1" d="M22.22,11.64l-.12-1-.06,0a3.74,3.74,0,0,1-2.71,1.22c-1.76,0-2.91-1.14-2.91-4,0-3,1.37-4.28,3.22-4.28A4.09,4.09,0,0,1,22,4.3V1.42a.29.29,0,0,0-.2-.31L20.87.82,21,0h2.36V10.39c0,.25,0,.28.25.31l.79.11v.83ZM22,5.55a3.6,3.6,0,0,0-2.11-.83c-1.45,0-2,1.26-2,3.1,0,2.14.72,2.84,1.8,2.84A3.46,3.46,0,0,0,22,9.37Z"/><path class="cls-1" d="M34.1,11.64l-.14-1,0,0a3.93,3.93,0,0,1-2.79,1.2A1.92,1.92,0,0,1,29,9.71c0-1.54,1-2.27,2.8-2.42l2.08-.17V6.3c0-1.12-.22-1.68-1.56-1.68-.94,0-1.62,0-1.63,1.19l-1.33-.14c0-1.9,1.76-2.11,3-2.11,2.19,0,2.93.62,2.93,2.74v4.08c0,.25,0,.28.25.31l.79.11v.83Zm-.26-3.54-1.74.15c-1.33.12-1.7.51-1.7,1.31s.35,1.17,1.08,1.17a4,4,0,0,0,2.36-1.19Z"/><path class="cls-1" d="M37.34,14.9v-.85L38,14c.22,0,.26-.08.26-.31V5.15c0-.17,0-.28-.2-.32l-.88-.29.14-.82h2l.14.89,0,0a4.53,4.53,0,0,1,2.76-1.06c1.73,0,2.9,1.11,2.9,3.82,0,2.31-.79,4.44-3.21,4.44A3.32,3.32,0,0,1,39.62,11v2.67c0,.25,0,.29.25.31l1.45.12v.83Zm2.28-5.24a3.22,3.22,0,0,0,2.11,1c1.46,0,2-1.22,2-3.16,0-2.1-.82-2.76-1.77-2.76a4.12,4.12,0,0,0-2.36,1Z"/><path class="cls-1" d="M46.66,14.9v-.85l.63-.09c.22,0,.26-.08.26-.31V5.15c0-.17,0-.28-.2-.32l-.88-.29.14-.82h2l.14.89,0,0a4.53,4.53,0,0,1,2.76-1.06c1.73,0,2.9,1.11,2.9,3.82,0,2.31-.79,4.44-3.21,4.44A3.32,3.32,0,0,1,48.94,11v2.67c0,.25,0,.29.25.31l1.45.12v.83Zm2.28-5.24a3.22,3.22,0,0,0,2.11,1c1.46,0,2-1.22,2-3.16,0-2.1-.82-2.76-1.77-2.76a4.12,4.12,0,0,0-2.36,1Z"/><path class="cls-1" d="M55.69,11.64v-.85l1-.09c.22,0,.25-.08.25-.31v-9c0-.17,0-.28-.2-.32L55.77.82,55.9,0h2.39V10.39c0,.25,0,.28.25.31l.92.11v.83Z"/><path class="cls-1" d="M60.2,11.64v-.85l1-.09c.22,0,.25-.08.25-.31V5.15c0-.17,0-.28-.2-.32l-.88-.29.14-.82h2.34v6.67c0,.25,0,.28.25.31l1,.11v.83ZM62,2a.9.9,0,0,1-1-1,.9.9,0,0,1,1-1,.89.89,0,0,1,1,1A.89.89,0,0,1,62,2Z"/><path class="cls-1" d="M70.24,11.64l-.14-1,0,0a3.93,3.93,0,0,1-2.79,1.2,1.92,1.92,0,0,1-2.17-2.11c0-1.54,1-2.27,2.8-2.42L70,7.12V6.3c0-1.12-.22-1.68-1.56-1.68-.94,0-1.62,0-1.63,1.19l-1.33-.14c0-1.9,1.76-2.11,3-2.11,2.19,0,2.93.62,2.93,2.74v4.08c0,.25,0,.28.25.31l.79.11v.83ZM70,8.09l-1.74.15c-1.33.12-1.7.51-1.7,1.31s.35,1.17,1.08,1.17A4,4,0,0,0,70,9.54Z"/><path class="cls-1" d="M78.49,11.64v-.85l.74-.09c.2,0,.28-.09.28-.31V6.73c0-1-.2-2-1.34-2a3.89,3.89,0,0,0-2.39,1v4.64c0,.25,0,.28.25.31l.86.11v.83H73.36v-.85l.77-.09c.22,0,.25-.08.25-.31V5.15c0-.17,0-.28-.2-.32l-.88-.29.14-.82h2l.12.91,0,0a4.94,4.94,0,0,1,2.85-1.08c1.77,0,2.44,1.14,2.44,2.82v4c0,.25,0,.28.25.31l.88.11v.83Z"/><path class="cls-1" d="M89.44,11.17a5.19,5.19,0,0,1-2.64.65C84.16,11.82,83,10.2,83,7.77c0-2.93,1.69-4.21,4-4.21A5.64,5.64,0,0,1,89.42,4v2l-1,0L88.2,5A.23.23,0,0,0,88,4.81a3.5,3.5,0,0,0-1-.14c-1.37,0-2.47.8-2.47,3s1,3,2.51,3a4.11,4.11,0,0,0,2-.51Z"/><path class="cls-1" d="M96.86,11.13a5.64,5.64,0,0,1-2.81.69c-2.79,0-3.7-1.83-3.7-4.13,0-2.82,1.57-4.13,3.51-4.13S97,4.58,97,7.24c0,.2,0,.51,0,.77H91.84c0,1.56.68,2.62,2.36,2.62a4.43,4.43,0,0,0,2.22-.55ZM95.64,7c0-1.76-.83-2.27-1.77-2.27s-1.9.56-2,2.27Z"/><path class="cls-1" d="M102.87,5.92l-.19-1c0-.11,0-.17-.15-.2a4,4,0,0,0-1.2-.17c-1.12,0-1.63.49-1.63,1.16,0,.88.92,1.06,1.93,1.33,1.2.31,2.51.68,2.51,2.34s-1.5,2.4-3.13,2.4a7.38,7.38,0,0,1-2.79-.52v-2l1,.06.19,1.06a.22.22,0,0,0,.18.22,4.35,4.35,0,0,0,1.51.25c1,0,1.7-.39,1.7-1.22s-.88-1.14-1.86-1.37C99.76,8,98.4,7.66,98.4,6s1.48-2.4,3.07-2.4A7.12,7.12,0,0,1,103.9,4V6Z"/></svg>