<svg id="Layer_2" data-name="Layer 2" xmlns="http://www.w3.org/2000/svg" viewBox="0 0 146.22 15.1"><defs><style>.cls-1{fill:#fff;}</style></defs><title>Artboard 1</title><path class="cls-1" d="M0,6C0,2.73,1.85.28,5.36.28s5.07,2.45,5.07,5.55c0,3.64-1.76,6-5.29,6S0,9.4,0,6ZM9,6c0-3-1.4-4.52-3.64-4.52S1.46,3,1.46,6,3,10.63,5.22,10.63,9,9.15,9,6Z"/><path class="cls-1" d="M18.17,11.64l-.12-1,0,0a4.43,4.43,0,0,1-3,1.25c-1.7,0-2.22-1-2.22-2.81V5.1c0-.25,0-.31-.25-.35l-.8-.2.12-.83h2.33v5c0,1.34.23,2,1.2,2a3.52,3.52,0,0,0,2.48-1.34V5.09c0-.25,0-.29-.25-.34l-.77-.2L17,3.71h2.3v6.66c0,.23,0,.31.22.32l.82.11v.83Z"/><path class="cls-1" d="M26.78,11.34a5.83,5.83,0,0,1-2.14.48c-1.48,0-2.14-.69-2.14-2.08V4.93c0-.09,0-.15-.12-.15H21.25V3.88c1.2-.15,1.54-.63,1.74-2.2h.91V3.56c0,.09,0,.15.12.15h2.27V4.78H23.9V9.32c0,1,.23,1.34,1.11,1.34a4,4,0,0,0,1.43-.31Z"/><path class="cls-1" d="M33.3,11.64l-.12-1-.06,0a3.74,3.74,0,0,1-2.71,1.22c-1.76,0-2.91-1.14-2.91-4,0-3,1.37-4.28,3.22-4.28a4.09,4.09,0,0,1,2.36.74V1.42a.29.29,0,0,0-.2-.31L31.94.82,32.08,0h2.36V10.39c0,.25,0,.28.25.31l.79.11v.83ZM33,5.55a3.59,3.59,0,0,0-2.11-.83c-1.45,0-2,1.26-2,3.1,0,2.14.72,2.84,1.8,2.84A3.46,3.46,0,0,0,33,9.37Z"/><path class="cls-1" d="M41.76,11.64l-.14-1,0,0a3.93,3.93,0,0,1-2.79,1.2,1.92,1.92,0,0,1-2.17-2.11c0-1.54,1-2.27,2.8-2.42l2.08-.17V6.3c0-1.12-.22-1.68-1.56-1.68-.94,0-1.62,0-1.63,1.19L37,5.67c0-1.9,1.76-2.11,3-2.11,2.19,0,2.93.62,2.93,2.74v4.08c0,.25,0,.28.25.31l.79.11v.83ZM41.5,8.09l-1.74.15c-1.33.12-1.7.51-1.7,1.31s.35,1.17,1.08,1.17A4,4,0,0,0,41.5,9.54Z"/><path class="cls-1" d="M50,11.34a5.83,5.83,0,0,1-2.14.48c-1.48,0-2.14-.69-2.14-2.08V4.93c0-.09,0-.15-.12-.15H44.47V3.88c1.2-.15,1.54-.63,1.74-2.2h.91V3.56c0,.09,0,.15.12.15h2.27V4.78H47.12V9.32c0,1,.23,1.34,1.11,1.34a4,4,0,0,0,1.43-.31Z"/><path class="cls-1" d="M57,11.13a5.64,5.64,0,0,1-2.8.69c-2.79,0-3.7-1.83-3.7-4.13,0-2.82,1.57-4.13,3.51-4.13s3.17,1,3.17,3.68c0,.2,0,.51,0,.77H52c0,1.56.68,2.62,2.36,2.62a4.43,4.43,0,0,0,2.22-.55ZM55.81,7c0-1.76-.83-2.27-1.77-2.27s-1.9.56-2,2.27Z"/><path class="cls-1" d="M64.32,11.64l-.12-1-.06,0a3.74,3.74,0,0,1-2.71,1.22c-1.76,0-2.91-1.14-2.91-4,0-3,1.37-4.28,3.22-4.28a4.09,4.09,0,0,1,2.36.74V1.42a.29.29,0,0,0-.2-.31L63,.82,63.1,0h2.36V10.39c0,.25,0,.28.25.31l.79.11v.83Zm-.26-6.09a3.59,3.59,0,0,0-2.11-.83c-1.45,0-2,1.26-2,3.1,0,2.14.72,2.84,1.8,2.84a3.46,3.46,0,0,0,2.33-1.28Z"/><path class="cls-1" d="M70.8,11.64v-.85l1-.09c.22,0,.25-.08.25-.31v-9c0-.17,0-.28-.2-.32L70.88.82,71,0h2.39V10.39c0,.25,0,.28.25.31l.92.11v.83Z"/><path class="cls-1" d="M75.32,11.64v-.85l1-.09c.22,0,.25-.08.25-.31V5.15c0-.17,0-.28-.2-.32l-.88-.29.14-.82H78v6.67c0,.25,0,.28.25.31l1,.11v.83ZM77.08,2a.9.9,0,0,1-1-1,.9.9,0,0,1,1-1,.89.89,0,0,1,1,1A.89.89,0,0,1,77.08,2Z"/><path class="cls-1" d="M86.21,4.81a2.39,2.39,0,0,1,.57,1.6c0,1.82-1.4,2.84-3.21,2.84a3.87,3.87,0,0,1-1.31-.19l-.69,1.34,1.9.11c2.77.15,4,.29,4,2.11,0,1.53-1.31,2.48-4,2.48s-3.59-.72-3.59-1.9a2.42,2.42,0,0,1,.94-1.74.85.85,0,0,1-.68-.83,1.58,1.58,0,0,1,.34-.85c.25-.35.57-.74.85-1.11A2.39,2.39,0,0,1,80.2,6.49c0-1.73,1.25-2.93,3.34-2.93a5.35,5.35,0,0,1,1.37.15h2.74v1ZM82,11.71A2,2,0,0,0,81.3,13c0,.83.86,1,2.37,1,.82,0,2.39-.12,2.39-1.29,0-.72-.6-.79-1.6-.88Zm1.6-7a1.69,1.69,0,0,0-1.93,1.76c0,.91.52,1.65,1.88,1.65a1.69,1.69,0,0,0,1.88-1.74A1.61,1.61,0,0,0,83.58,4.69Z"/><path class="cls-1" d="M93.58,11.64v-.85l.74-.09c.2,0,.28-.09.28-.31V6.8c0-1.14-.2-2-1.29-2a4.19,4.19,0,0,0-2.44,1v4.64c0,.25,0,.28.25.31l.86.11v.83H88.45v-.85l.77-.09c.22,0,.25-.08.25-.31v-9c0-.17,0-.28-.2-.32L88.34.82,88.48,0h2.37V4.58a4.67,4.67,0,0,1,2.77-1C95.28,3.56,96,4.62,96,6.37v4c0,.25,0,.28.25.31l.88.11v.83Z"/><path class="cls-1" d="M103.35,11.34a5.83,5.83,0,0,1-2.14.48c-1.48,0-2.14-.69-2.14-2.08V4.93c0-.09,0-.15-.12-.15H97.82V3.88c1.2-.15,1.54-.63,1.74-2.2h.91V3.56c0,.09,0,.15.12.15h2.27V4.78h-2.39V9.32c0,1,.23,1.34,1.11,1.34a4,4,0,0,0,1.43-.31Z"/><path class="cls-1" d="M108.49,11.64a15.26,15.26,0,0,0,.19-2.2v-8c0-.17,0-.28-.2-.32l-.91-.29.14-.82h2.37V4.45a4.77,4.77,0,0,1,2.64-.89c1.73,0,2.91,1.11,2.91,3.82,0,3.17-1.31,4.44-3.25,4.44a3.35,3.35,0,0,1-2.39-1l0,0-.08.74Zm1.59-2a3.34,3.34,0,0,0,2.11,1c1.45,0,2-1.2,2-3.16s-.77-2.77-1.86-2.77a4.1,4.1,0,0,0-2.27.86Z"/><path class="cls-1" d="M123.26,11.64l-.12-1,0,0a4.43,4.43,0,0,1-3,1.25c-1.7,0-2.22-1-2.22-2.81V5.1c0-.25,0-.31-.25-.35l-.8-.2.12-.83h2.33v5c0,1.34.23,2,1.2,2A3.52,3.52,0,0,0,123,9.34V5.09c0-.25,0-.29-.25-.34l-.77-.2.12-.83h2.3v6.66c0,.23,0,.31.22.32l.82.11v.83Z"/><path class="cls-1" d="M126.42,11.64v-.85l1-.09c.22,0,.25-.08.25-.31v-9c0-.17,0-.28-.2-.32l-.92-.29.14-.82H129V10.39c0,.25,0,.28.25.31l.92.11v.83Z"/><path class="cls-1" d="M131.82,11.64a15.26,15.26,0,0,0,.19-2.2v-8c0-.17,0-.28-.2-.32L130.9.82,131,0h2.37V4.45A4.77,4.77,0,0,1,136,3.56c1.73,0,2.91,1.11,2.91,3.82,0,3.17-1.31,4.44-3.25,4.44a3.35,3.35,0,0,1-2.39-1l0,0-.08.74Zm1.59-2a3.34,3.34,0,0,0,2.11,1c1.45,0,2-1.2,2-3.16s-.77-2.77-1.86-2.77a4.1,4.1,0,0,0-2.27.86Z"/><path class="cls-1" d="M145,5.92l-.18-1c0-.11,0-.17-.15-.2a4,4,0,0,0-1.2-.17c-1.12,0-1.63.49-1.63,1.16,0,.88.92,1.06,1.93,1.33,1.2.31,2.51.68,2.51,2.34s-1.5,2.4-3.13,2.4a7.38,7.38,0,0,1-2.79-.52v-2l1,.06.19,1.06a.23.23,0,0,0,.18.22,4.35,4.35,0,0,0,1.51.25c1,0,1.7-.39,1.7-1.22S144,8.48,143,8.25c-1.2-.28-2.56-.59-2.56-2.28s1.48-2.4,3.07-2.4A7.12,7.12,0,0,1,146,4V6Z"/></svg>