<?xml version="1.0" encoding="UTF-8"?>
<svg xmlns="http://www.w3.org/2000/svg" version="1.1" viewBox="0 0 246.6 61.1">
  <defs>
    <style>
      .cls-1 {
        fill: #ffbf3f;
      }

      .cls-2 {
        fill: #002d72;
      }
    </style>
  </defs>
  <!-- Generator: Adobe Illustrator 28.7.1, SVG Export Plug-In . SVG Version: 1.2.0 Build 142)  -->
  <g>
    <g id="Layer_1">
      <rect class="cls-1" width="246.6" height="61.1" rx="5.2" ry="5.2"/>
      <g>
        <path class="cls-2" d="M32.1,17.2h3.9v20.5h11v3.5h-14.8v-24Z"/>
        <path class="cls-2" d="M53.2,33.5c.5,2.9,2.8,4.7,5.8,4.7s3.6-.7,5.2-2.1l1.8,2.6c-2,1.9-4.4,2.9-7.1,2.9-5.5,0-9.6-4-9.6-9.3-.1-5.1,4.2-9.5,9.2-9.3,4.7,0,8.3,3.5,8.3,8.2s-.1,1.6-.3,2.4h-13.3ZM63,30.5c0-2.7-2.1-4.4-4.6-4.4s-4.5,1.7-5.1,4.4h9.7Z"/>
        <path class="cls-2" d="M85.4,41.2h-3.6v-2c-1.3,1.6-3.3,2.4-5.7,2.4-3.7,0-6.2-2.1-6.2-5.2s2.5-5.1,6.6-5.1h5.1v-1.2c0-2.5-1.4-3.8-3.8-3.8s-3.5.9-4.9,2.7l-2.2-2.3c1.8-2.6,4.4-3.8,7.5-3.8,4.4,0,7.3,2.7,7.3,7.5v10.8ZM81.5,34.1h-4.6c-2,0-3.2.7-3.2,2.2s1.3,2.4,3.1,2.4,4.6-1.8,4.6-4.2v-.3Z"/>
        <path class="cls-2" d="M100.9,26.7h-1.2c-3,0-5.2,1.8-5.2,4.9v9.5h-3.8v-17.9h3.6v2.3c1.3-1.6,3.2-2.5,5.2-2.5s1,0,1.5.2v3.4Z"/>
        <path class="cls-2" d="M119.9,41.2h-3.8v-10.7c0-2.5-1.6-4.1-3.9-4.1s-4.1,1.7-4.1,4.1v10.7h-3.8v-17.9h3.6v1.7c1.3-1.4,3.1-2.1,5.3-2.1,4.2,0,6.7,2.8,6.7,7.1v11.2Z"/>
        <path class="cls-2" d="M158.5,16.8v24.4h-3.9v-15.1l-6.9,9h-1.3l-6.9-9.1v15.1h-3.9v-24.4h1.3l10.1,13.4,10.1-13.4h1.3Z"/>
        <path class="cls-2" d="M172.3,22.9c5.2-.1,9.6,4.3,9.5,9.3.1,5.1-4.3,9.5-9.5,9.3-5.1.1-9.5-4.3-9.4-9.3-.1-5.1,4.3-9.4,9.4-9.3ZM172.4,26.4c-3.2,0-5.6,2.5-5.6,5.9s2.4,5.8,5.5,5.8,5.6-2.5,5.6-5.8-2.4-5.9-5.5-5.9Z"/>
        <path class="cls-2" d="M196.4,26.7h-1.2c-3,0-5.2,1.8-5.2,4.9v9.5h-3.8v-17.9h3.6v2.3c1.3-1.6,3.2-2.5,5.2-2.5s1,0,1.5.2v3.4Z"/>
        <path class="cls-2" d="M202.2,33.5c.5,2.9,2.8,4.7,5.8,4.7s3.6-.7,5.2-2.1l1.8,2.6c-2,1.9-4.4,2.9-7.1,2.9-5.5,0-9.6-4-9.6-9.3-.1-5.1,4.2-9.5,9.2-9.3,4.7,0,8.3,3.5,8.3,8.2s-.1,1.6-.3,2.4h-13.3ZM212,30.5c0-2.7-2.1-4.4-4.6-4.4s-4.5,1.7-5.1,4.4h9.7Z"/>
      </g>
    </g>
  </g>
</svg>