<?xml version="1.0" encoding="UTF-8"?>
<svg xmlns="http://www.w3.org/2000/svg" version="1.1" viewBox="0 0 277.9 1958.8">
  <defs>
    <style>
      .cls-1 {
        fill: none;
      }

      .cls-2 {
        fill: #fdbb3a;
      }

      .cls-3 {
        fill: #fdbc3e;
      }
    </style>
  </defs>
  <!-- Generator: Adobe Illustrator 28.7.1, SVG Export Plug-In . SVG Version: 1.2.0 Build 142)  -->
  <g>
    <g id="Layer_1">
      <g>
        <path class="cls-1" d="M164.8,288.5v5.2c0,1.7,1.4,3.1,3.1,3.1h7.2v-5.2c0-1.7-1.4-3.1-3.1-3.1h-7.2Z"/>
        <path class="cls-1" d="M223.8,262.1h-18v7c0,3.8-3.1,6.9-6.9,6.9h-34.1v8.7h7.2c3.8,0,6.9,3.1,6.9,6.9v5.2h44.9v-34.7Z"/>
        <path class="cls-1" d="M178.9,315.1c0,1.7,1.4,3.1,3.1,3.1h38.6c1.7,0,3.1-1.4,3.1-3.1v-14.5h-44.9v14.5Z"/>
        <path class="cls-1" d="M164.8,272.2h34.1c1.7,0,3.1-1.4,3.1-3.1v-7h-17.8c-3.8,0-6.9-3.1-6.9-6.9v-22.7h-12.6v39.7Z"/>
        <path class="cls-1" d="M202,258.3v-22.7c0-1.7-1.4-3.1-3.1-3.1h-17.8v22.7c0,1.7,1.4,3.1,3.1,3.1h17.8Z"/>
        <path class="cls-1" d="M177.3,219.4h-9.4c-1.7,0-3.1,1.4-3.1,3.1v6.2h12.6v-9.3Z"/>
        <path class="cls-1" d="M144.8,142.3v-22.3h-18.5c-1.7,0-3.1,1.4-3.1,3.1v22.3h18.5c1.7,0,3.1-1.4,3.1-3.1Z"/>
        <path class="cls-1" d="M223.8,222.5c0-1.7-1.4-3.1-3.1-3.1h-39.5v9.3h17.8c3.8,0,6.9,3.1,6.9,6.9v22.7h18v-35.8Z"/>
        <path class="cls-1" d="M87.1,171.6v7.4h29.2c1.7,0,3.1-1.4,3.1-3.1v-7.4h-29.2c-1.7,0-3.1,1.4-3.1,3.1Z"/>
        <path class="cls-1" d="M119.3,164.7v-15.5h-59c-3.8,0-6.9-3.1-6.9-6.9v-29.2h-9.9c-1.7,0-3.1,1.4-3.1,3.1v59.6c0,1.7,1.4,3.1,3.1,3.1h39.7v-7.4c0-3.8,3.1-6.9,6.9-6.9h29.2Z"/>
        <path class="cls-1" d="M141.6,168.4h-18.5v7.4c0,3.8-3.1,6.9-6.9,6.9h-29.2v8.6c0,1.7,1.4,3.1,3.1,3.1h54.6v-22.9c0-1.7-1.4-3.1-3.1-3.1Z"/>
        <path class="cls-1" d="M148.5,194.5h28.8v-24.8c0-3.8,3.1-6.9,6.9-6.9h11.5c3.8,0,6.9,3.1,6.9,6.9v21.7c0,3.8-3.1,6.9-6.9,6.9h-14.7v17.4h39.5c3.8,0,6.9,3.1,6.9,6.9v35.8h13c1.7,0,3.1-1.4,3.1-3.1v-56.2c0-1.7-1.4-3.1-3.1-3.1h-15.5c-3.8,0-6.9-3.1-6.9-6.9v-36h-45.3c-3.8,0-6.9-3.1-6.9-6.9v-26h-17.4v22.3c0,3.8-3.1,6.9-6.9,6.9h-18.5v15.5h18.5c3.8,0,6.9,3.1,6.9,6.9v22.9Z"/>
        <path class="cls-1" d="M140.1,298.3h-6.8c0,3.8-3.1,6.8-6.9,6.8h-15.1v11.1c0,3.8-3.1,6.9-6.9,6.9h-33.5c-1.7,0-3.1,1.4-3.1,3.1v3.6c0,1.7,1.4,3.1,3.1,3.1h72.4v-31.6c0-1.7-1.4-3.1-3.1-3.1Z"/>
        <path class="cls-1" d="M227.5,300.5v14.5c0,3.8-3.1,6.9-6.9,6.9h-38.6c-3.8,0-6.9-3.1-6.9-6.9v-14.5h-7.2c-3.8,0-6.9-3.1-6.9-6.9v-5.2h-27.7v6.1h6.8c3.8,0,6.9,3.1,6.9,6.9v31.6h107.4c.8,0,1.6-.3,2.2-.9.6-.6.9-1.6.9-2.2l-.3-29.4h-29.7Z"/>
        <path class="cls-1" d="M271,179.1h-7.9c-.8,0-1.6.3-2.2.9-.6.6-.9,1.4-.9,2.2h0s1.1,114.6,1.1,114.6h10c1.7,0,3.1-1.4,3.1-3.1v-111.5c0-1.7-1.4-3.1-3.1-3.1Z"/>
        <path class="cls-1" d="M198.9,191.4v-21.7c0-1.7-1.4-3.1-3.1-3.1h-11.5c-1.7,0-3.1,1.4-3.1,3.1v24.8h14.7c1.7,0,3.1-1.4,3.1-3.1Z"/>
        <path class="cls-1" d="M111.3,301.4h15.1c1.7,0,3.1-1.4,3.1-3.1h-15.1c-1.7,0-3.1,1.4-3.1,3.1Z"/>
        <rect class="cls-1" x="133.3" y="276" width="27.7" height="8.7"/>
        <path class="cls-1" d="M114.4,294.6h15.1v-6.1H61.6c-1.7,0-3.1,1.4-3.1,3.1v6.7c0,1.7,1.4,3.1,3.1,3.1h45.9c0-3.8,3.1-6.8,6.9-6.8Z"/>
        <path class="cls-1" d="M161,222.5c0-3.8,3.1-6.9,6.9-6.9h9.4v-17.4h-28.8v27.3c0,1.7,1.4,3.1,3.1,3.1h9.3v-6.2Z"/>
        <path class="cls-1" d="M129.6,262.9c0-1.7-1.4-3.1-3.1-3.1h-17v9.3c0,1.7,1.4,3.1,3.1,3.1h17v-9.3Z"/>
        <path class="cls-1" d="M239.9,146v-38.5c0-1.7-1.4-3.1-3.1-3.1h-11.7c-1.7,0-3.1,1.4-3.1,3.1v41.6h14.9c1.7,0,3.1-1.4,3.1-3.1Z"/>
        <path class="cls-1" d="M184.6,113.1v-22.3c0-1.7-1.4-3.1-3.1-3.1h-8.6c-1.7,0-3.1,1.4-3.1,3.1v25.4h11.7c1.7,0,3.1-1.4,3.1-3.1Z"/>
        <path class="cls-1" d="M3.8,262.9v19.2c0,1.7,1.4,3.1,3.1,3.1h12.3c1.7,0,3.1-1.4,3.1-3.1v-22.3H6.9c-1.7,0-3.1,1.4-3.1,3.1Z"/>
        <path class="cls-1" d="M86.4,216.9v-7.4c0-1.7-1.4-3.1-3.1-3.1h-19.2c-1.7,0-3.1,1.4-3.1,3.1v10.5h22.3c1.7,0,3.1-1.4,3.1-3.1Z"/>
        <path class="cls-1" d="M67.2,356v5.1c0,1.7,1.4,3.1,3.1,3.1h69.8c1.7,0,3.1-1.4,3.1-3.1v-8.2h-73c-1.7,0-3.1,1.4-3.1,3.1Z"/>
        <path class="cls-1" d="M57.2,238v-14.2h-31v32.3h79.5v-11.2h-41.6c-3.8,0-6.9-3.1-6.9-6.9Z"/>
        <path class="cls-1" d="M19.2,151.7H6.9c-1.7,0-3.1,1.4-3.1,3.1v62.1c0,1.7,1.4,3.1,3.1,3.1h15.5v-65.2c0-1.7-1.4-3.1-3.1-3.1Z"/>
        <path class="cls-1" d="M118.7,90.1v-8.6c0-1.7-1.4-3.1-3.1-3.1h-17.9c-1.7,0-3.1,1.4-3.1,3.1v11.7h21.1c1.7,0,3.1-1.4,3.1-3.1Z"/>
        <path class="cls-1" d="M90.8,106.2v-9.3h-30.4c-1.7,0-3.1,1.4-3.1,3.1v9.3h30.4c1.7,0,3.1-1.4,3.1-3.1Z"/>
        <path class="cls-1" d="M126.2,238v-16.1c0-1.7-1.4-3.1-3.1-3.1h-10.5c-1.7,0-3.1,1.4-3.1,3.1v19.2h13.6c1.7,0,3.1-1.4,3.1-3.1Z"/>
        <path class="cls-2" d="M146.6,716.4c0-29.3.1-203.3.2-236.6h-3.5v236.6h0"/>
        <path class="cls-2" d="M271,175.3h-7.9c-1.9,0-3.6.7-4.9,2-1.3,1.3-2,3.3-2,4.9l1.1,114.5h-29.7v-34.7h13c3.8,0,6.9-3.1,6.9-6.9v-56.2c0-3.8-3.1-6.9-6.9-6.9h-15.5c-1.7,0-3.1-1.4-3.1-3.1v-36h14.9c3.8,0,6.9-3.1,6.9-6.9v-38.5c0-3.8-3.1-6.9-6.9-6.9h-11.7c-3.8,0-6.9,3.1-6.9,6.9v41.6h-45.3c-1.7,0-3.1-1.4-3.1-3.1v-26h11.7c3.8,0,6.9-3.1,6.9-6.9v-22.3c0-3.8-3.1-6.9-6.9-6.9h-8.6c-3.8,0-6.9,3.1-6.9,6.9v25.4h-17.4V23.2h4.8c2.7,0,5-2.2,5-5V5c0-2.7-2.2-5-5-5h-13.2c-2.7,0-5,2.2-5,5v13.2c0,2.7,2.2,5,5,5h4.6v93h-18.5c-3.8,0-6.9,3.1-6.9,6.9v22.3h-59c-1.7,0-3.1-1.4-3.1-3.1v-29.2h30.4c3.8,0,6.9-3.1,6.9-6.9v-9.3h21.1c3.8,0,6.9-3.1,6.9-6.9v-8.6c0-3.8-3.1-6.9-6.9-6.9h-17.9c-3.8,0-6.9,3.1-6.9,6.9v11.7h-30.4c-3.8,0-6.9,3.1-6.9,6.9v9.3h-9.9c-3.8,0-6.9,3.1-6.9,6.9v59.6c0,3.8,3.1,6.9,6.9,6.9h39.7v8.6c0,3.8,3.1,6.9,6.9,6.9h54.6v27.3c0,3.8,3.1,6.9,6.9,6.9h9.3v39.7h-27.7v-9.3c0-3.8-3.1-6.9-6.9-6.9h-17v-11.2h13.6c3.8,0,6.9-3.1,6.9-6.9v-16.1c0-3.8-3.1-6.9-6.9-6.9h-10.5c-3.8,0-6.9,3.1-6.9,6.9v19.2h-41.6c-1.7,0-3.1-1.4-3.1-3.1v-14.2h22.3c3.8,0,6.9-3.1,6.9-6.9v-7.4c0-3.8-3.1-6.9-6.9-6.9h-19.2c-3.8,0-6.9,3.1-6.9,6.9v10.5h-31v-65.2c0-3.8-3.1-6.9-6.9-6.9H6.9c-3.8,0-6.9,3.1-6.9,6.9v62.1c0,3.8,3.1,6.9,6.9,6.9h15.5v32.3H6.9c-3.8,0-6.9,3.1-6.9,6.9v19.2c0,3.8,3.1,6.9,6.9,6.9h12.3c3.8,0,6.9-3.1,6.9-6.9v-22.3h79.5v9.3c0,3.8,3.1,6.9,6.9,6.9h17v8.7H61.6c-3.8,0-6.9,3.1-6.9,6.9v6.7c0,3.8,3.1,6.9,6.9,6.9h45.9v11.1c0,1.7-1.4,3.1-3.1,3.1h-33.5c-3.8,0-6.9,3.1-6.9,6.9v3.6c0,3.8,3.1,6.9,6.9,6.9h72.4v12.2h-73c-3.8,0-6.9,3.1-6.9,6.9v5.1c0,3.8,3.1,6.9,6.9,6.9h69.8c3.8,0,6.9-3.1,6.9-6.9v-8.2h42.5c1.7,0,3.1,1.4,3.1,3.1v5.1c0,1.7-1.4,3.1-3.1,3.1h-39.4c-3.8,0-6.9,3.1-6.9,6.9v108.2h3.5c0,.2,0,.3,0,.5h0v-55.7h.1v-4.6h0c0-27.4,0-48.3,0-48.3,0-1.7,1.4-3.1,3.1-3.1h39.4c3.8,0,6.9-3.1,6.9-6.9v-5.1c0-3.8-3.1-6.9-6.9-6.9h-42.5v-12.2h107.4c1.9,0,3.6-.7,4.9-2,1.3-1.3,2-3.1,2-4.9l-.3-29.4h10c3.8,0,6.9-3.1,6.9-6.9v-111.5c0-3.8-3.1-6.9-6.9-6.9ZM221.9,107.5c0-1.7,1.4-3.1,3.1-3.1h11.7c1.7,0,3.1,1.4,3.1,3.1v38.5c0,1.7-1.4,3.1-3.1,3.1h-14.9v-41.6ZM169.7,90.8c0-1.7,1.4-3.1,3.1-3.1h8.6c1.7,0,3.1,1.4,3.1,3.1v22.3c0,1.7-1.4,3.1-3.1,3.1h-11.7v-25.4ZM94.5,81.4c0-1.7,1.4-3.1,3.1-3.1h17.9c1.7,0,3.1,1.4,3.1,3.1v8.6c0,1.7-1.4,3.1-3.1,3.1h-21.1v-11.7ZM57.2,100.1c0-1.7,1.4-3.1,3.1-3.1h30.4v9.3c0,1.7-1.4,3.1-3.1,3.1h-30.4v-9.3ZM109.4,221.9c0-1.7,1.4-3.1,3.1-3.1h10.5c1.7,0,3.1,1.4,3.1,3.1v16.1c0,1.7-1.4,3.1-3.1,3.1h-13.6v-19.2ZM60.9,209.5c0-1.7,1.4-3.1,3.1-3.1h19.2c1.7,0,3.1,1.4,3.1,3.1v7.4c0,1.7-1.4,3.1-3.1,3.1h-22.3v-10.5ZM22.4,282.1c0,1.7-1.4,3.1-3.1,3.1H6.9c-1.7,0-3.1-1.4-3.1-3.1v-19.2c0-1.7,1.4-3.1,3.1-3.1h15.5v22.3ZM22.4,220H6.9c-1.7,0-3.1-1.4-3.1-3.1v-62.1c0-1.7,1.4-3.1,3.1-3.1h12.3c1.7,0,3.1,1.4,3.1,3.1v65.2ZM105.7,256H26.1v-32.3h31v14.2c0,3.8,3.1,6.9,6.9,6.9h41.6v11.2ZM143.3,361.1c0,1.7-1.4,3.1-3.1,3.1h-69.8c-1.7,0-3.1-1.4-3.1-3.1v-5.1c0-1.7,1.4-3.1,3.1-3.1h73v8.2ZM123.1,123.1c0-1.7,1.4-3.1,3.1-3.1h18.5v22.3c0,1.7-1.4,3.1-3.1,3.1h-18.5v-22.3ZM83.3,171.6v7.4h-39.7c-1.7,0-3.1-1.4-3.1-3.1v-59.6c0-1.7,1.4-3.1,3.1-3.1h9.9v29.2c0,3.8,3.1,6.9,6.9,6.9h59v15.5h-29.2c-3.8,0-6.9,3.1-6.9,6.9ZM119.3,168.4v7.4c0,1.7-1.4,3.1-3.1,3.1h-29.2v-7.4c0-1.7,1.4-3.1,3.1-3.1h29.2ZM144.8,194.5h-54.6c-1.7,0-3.1-1.4-3.1-3.1v-8.6h29.2c3.8,0,6.9-3.1,6.9-6.9v-7.4h18.5c1.7,0,3.1,1.4,3.1,3.1v22.9ZM141.6,164.7h-18.5v-15.5h18.5c3.8,0,6.9-3.1,6.9-6.9v-22.3h17.4v26c0,3.8,3.1,6.9,6.9,6.9h45.3v36c0,3.8,3.1,6.9,6.9,6.9h15.5c1.7,0,3.1,1.4,3.1,3.1v56.2c0,1.7-1.4,3.1-3.1,3.1h-13v-35.8c0-3.8-3.1-6.9-6.9-6.9h-39.5v-17.4h14.7c3.8,0,6.9-3.1,6.9-6.9v-21.7c0-3.8-3.1-6.9-6.9-6.9h-11.5c-3.8,0-6.9,3.1-6.9,6.9v24.8h-28.8v-22.9c0-3.8-3.1-6.9-6.9-6.9ZM178.9,296.8v-5.2c0-3.8-3.1-6.9-6.9-6.9h-7.2v-8.7h34.1c3.8,0,6.9-3.1,6.9-6.9v-7h18v34.7h-44.9ZM223.8,300.5v14.5c0,1.7-1.4,3.1-3.1,3.1h-38.6c-1.7,0-3.1-1.4-3.1-3.1v-14.5h44.9ZM175.1,291.6v5.2h-7.2c-1.7,0-3.1-1.4-3.1-3.1v-5.2h7.2c1.7,0,3.1,1.4,3.1,3.1ZM177.3,232.5v22.7c0,3.8,3.1,6.9,6.9,6.9h17.8v7c0,1.7-1.4,3.1-3.1,3.1h-34.1v-39.7h12.6ZM164.8,228.7v-6.2c0-1.7,1.4-3.1,3.1-3.1h9.4v9.3h-12.6ZM181.1,255.2v-22.7h17.8c1.7,0,3.1,1.4,3.1,3.1v22.7h-17.8c-1.7,0-3.1-1.4-3.1-3.1ZM205.8,258.3v-22.7c0-3.8-3.1-6.9-6.9-6.9h-17.8v-9.3h39.5c1.7,0,3.1,1.4,3.1,3.1v35.8h-18ZM181.1,194.5v-24.8c0-1.7,1.4-3.1,3.1-3.1h11.5c1.7,0,3.1,1.4,3.1,3.1v21.7c0,1.7-1.4,3.1-3.1,3.1h-14.7ZM151.7,228.7c-1.7,0-3.1-1.4-3.1-3.1v-27.3h28.8v17.4h-9.4c-3.8,0-6.9,3.1-6.9,6.9v6.2h-9.3ZM133.3,276h27.7v8.7h-27.7v-8.7ZM112.6,272.2c-1.7,0-3.1-1.4-3.1-3.1v-9.3h17c1.7,0,3.1,1.4,3.1,3.1v9.3h-17ZM61.6,301.4c-1.7,0-3.1-1.4-3.1-3.1v-6.7c0-1.7,1.4-3.1,3.1-3.1h68v6.1h-15.1c-3.8,0-6.9,3.1-6.9,6.8h-45.9ZM129.6,298.3c0,1.7-1.4,3.1-3.1,3.1h-15.1c0-1.7,1.4-3.1,3.1-3.1h15.1ZM143.3,333.1h-72.4c-1.7,0-3.1-1.4-3.1-3.1v-3.6c0-1.7,1.4-3.1,3.1-3.1h33.5c3.8,0,6.9-3.1,6.9-6.9v-11.1h15.1c3.8,0,6.9-3.1,6.9-6.8h6.8c1.7,0,3.1,1.4,3.1,3.1v31.6ZM256.6,332.2c-.6.6-1.4.9-2.2.9h-107.4v-31.6c0-3.8-3.1-6.9-6.9-6.9h-6.8v-6.1h27.7v5.2c0,3.8,3.1,6.9,6.9,6.9h7.2v14.5c0,3.8,3.1,6.9,6.9,6.9h38.6c3.8,0,6.9-3.1,6.9-6.9v-14.5h29.7l.3,29.4c0,.6-.3,1.6-.9,2.2ZM274.1,293.6c0,1.7-1.4,3.1-3.1,3.1h-10l-1.1-114.6h0c0-.9.3-1.6.9-2.2.6-.6,1.4-.9,2.2-.9h7.9c1.7,0,3.1,1.4,3.1,3.1v111.5Z"/>
        <path class="cls-2" d="M143.3,479.3v.5h3.5c0-.2,0-.3,0-.5h-3.5Z"/>
      </g>
      <g>
        <path class="cls-1" d="M215.9,1212.4c0-1.8-1.5-3.3-3.3-3.3h-43.6c-1.8,0-3.3,1.5-3.3,3.3v42c0,1.8,1.5,3.3,3.3,3.3h46.9v-45.3Z"/>
        <path class="cls-1" d="M256.7,1301.4v-36.9c0-1.8-1.5-3.3-3.3-3.3h-34v18.4c0,3.7-3,6.8-6.8,6.8h-55.5v18.3h96.3c1.8,0,3.3-1.5,3.3-3.3Z"/>
        <path class="cls-1" d="M106.9,1177.9c0-1.8-1.5-3.3-3.3-3.3h-30.3c-1.8,0-3.3,1.5-3.3,3.3v38.2c0,1.8,1.5,3.3,3.3,3.3h33.6v-41.5Z"/>
        <path class="cls-1" d="M110.4,1279.6c0,1.8,1.5,3.3,3.3,3.3h40v-29c0-1.8-1.5-3.3-3.3-3.3h-40v29Z"/>
        <path class="cls-1" d="M106.9,1279.6v-29H36.7c-1.8,0-3.3,1.5-3.3,3.3v47.5c0,1.8,1.5,3.3,3.3,3.3h117v-18.3h-40c-3.7,0-6.8-3-6.8-6.8Z"/>
        <path class="cls-1" d="M139.1,1334.1h-38.3c-1.8,0-3.3,1.5-3.3,3.3v20c0,1.8,1.5,3.3,3.3,3.3h41.5v-23.2c0-1.8-1.5-3.3-3.3-3.3Z"/>
        <path class="cls-2" d="M142,949v136.8h0v130.4c0,1.8-1.5,3.3-3.3,3.3h-28.3v-41.5c0-3.7-3-6.8-6.8-6.8h-30.3c-3.7,0-6.8,3-6.8,6.8v38.2c0,3.7,3,6.8,6.8,6.8h33.6v24.1H36.7c-3.7,0-6.8,3-6.8,6.8v47.5c0,3.7,3,6.8,6.8,6.8h117v19.2c0,3.7,3,6.8,6.8,6.8h59.6c1.8,0,3.3,1.5,3.3,3.3v20c0,1.8-1.5,3.3-3.3,3.3h-74.1v-23.2c0-3.7-3-6.8-6.8-6.8h-38.3c-3.7,0-6.8,3-6.8,6.8v20c0,3.7,3,6.8,6.8,6.8h41.5v149.3h0v89.7c0,1.8,3.5,1.4,3.5,1.4h0v-91.1h0v-149.3h74.1c3.7,0,6.8-3,6.8-6.8v-20c0-3.7-3-6.8-6.8-6.8h-59.6c-1.8,0-3.3-1.5-3.3-3.3v-19.2h96.3c3.7,0,6.8-3,6.8-6.8v-36.9c0-3.7-3-6.8-6.8-6.8h-34v-45.3c0-3.7-3-6.8-6.8-6.8h-43.6c-3.7,0-6.8,3-6.8,6.8v42c0,3.7,3,6.8,6.8,6.8h46.9v18.4c0,1.8-1.5,3.3-3.3,3.3h-55.5v-29c0-3.7-3-6.8-6.8-6.8h-40v-24.1h28.3c3.7,0,6.8-3,6.8-6.8v-130.4h-.2v-136.8M142.4,1360.6h-41.5c-1.8,0-3.3-1.5-3.3-3.3v-20c0-1.8,1.5-3.3,3.3-3.3h38.3c1.8,0,3.3,1.5,3.3,3.3v23.2ZM169,1257.7c-1.8,0-3.3-1.5-3.3-3.3v-42c0-1.8,1.5-3.3,3.3-3.3h43.6c1.8,0,3.3,1.5,3.3,3.3v45.3h-46.9ZM157.2,1286.4h55.5c3.7,0,6.8-3,6.8-6.8v-18.4h34c1.8,0,3.3,1.5,3.3,3.3v36.9c0,1.8-1.5,3.3-3.3,3.3h-96.3v-18.3ZM73.3,1219.4c-1.8,0-3.3-1.5-3.3-3.3v-38.2c0-1.8,1.5-3.3,3.3-3.3h30.3c1.8,0,3.3,1.5,3.3,3.3v41.5h-33.6ZM153.7,1304.7H36.7c-1.8,0-3.3-1.5-3.3-3.3v-47.5c0-1.8,1.5-3.3,3.3-3.3h70.2v29c0,3.7,3,6.8,6.8,6.8h40v18.3ZM150.4,1250.6c1.8,0,3.3,1.5,3.3,3.3v29h-40c-1.8,0-3.3-1.5-3.3-3.3v-29h40Z"/>
      </g>
      <path class="cls-2" d="M144.7,714h-9.5c-1.4,0-2.7.8-3.4,2-.7,1.3-.6,2.8.2,4l9.5,14.3c.7,1.1,1.9,1.7,3.2,1.7s2.5-.6,3.2-1.7l9.5-14.3c.4-.6.6-1.4.6-2.1s-.2-1.3-.5-1.8c-.7-1.3-2-2-3.4-2h-9.5Z"/>
      <path class="cls-2" d="M143.7,1591.4h-9.5c-1.4,0-2.7.8-3.4,2-.7,1.3-.6,2.8.2,4l9.5,14.3c.7,1.1,1.9,1.7,3.2,1.7s2.5-.6,3.2-1.7l9.5-14.3c.4-.6.6-1.4.6-2.1s-.2-1.3-.5-1.8c-.7-1.3-2-2-3.4-2h-9.5Z"/>
      <path class="cls-2" d="M143.7,1936.7h-9.5c-1.4,0-2.7.8-3.4,2-.7,1.3-.6,2.8.2,4l9.5,14.3c.7,1.1,1.9,1.7,3.2,1.7s2.5-.6,3.2-1.7l9.5-14.3c.4-.6.6-1.4.6-2.1s-.2-1.3-.5-1.8c-.7-1.3-2-2-3.4-2h-9.5Z"/>
      <rect class="cls-3" x="142.4" y="1747.3" width="3.5" height="192.4"/>
    </g>
  </g>
</svg>