<?xml version="1.0" encoding="UTF-8"?>
<svg xmlns="http://www.w3.org/2000/svg" version="1.1" viewBox="0 0 360.6 44">
  <defs>
    <style>
      .cls-1 {
        fill: #ffbf3f;
      }
    </style>
  </defs>
  <!-- Generator: Adobe Illustrator 28.7.1, SVG Export Plug-In . SVG Version: 1.2.0 Build 142)  -->
  <g>
    <g id="Layer_1">
      <g>
        <path class="cls-1" d="M15.3,35c-1.4.3-2.7.5-3.8.5-4.7,0-7.7-2.4-7.7-7.4v-12.7H0v-3.2h3.8v-6.2h3.6v6.2h7.1v3.2h-7.1v12.4c0,3.2,1.7,4.3,4.8,4.3s1.9,0,3-.3v3Z"/>
        <path class="cls-1" d="M30.5,11.8c6.5,0,12.1,5.4,11.9,11.9.1,6.4-5.5,12-12,11.9-6.5.1-12-5.5-11.9-11.9-.1-6.5,5.4-12,11.9-11.9ZM30.5,15.1c-4.7,0-8.2,3.7-8.2,8.6s3.5,8.5,8.2,8.5,8.3-3.7,8.3-8.5-3.6-8.6-8.2-8.6Z"/>
        <path class="cls-1" d="M80.6,35h-3.6v-13.8c0-3.7-2.1-6.1-5.7-6.1s-6,2.6-6,6.1v13.8h-3.6V0h3.6v14.9c1.5-1.9,4-3.1,6.8-3.1,5.2,0,8.4,3.6,8.4,9v14.3Z"/>
        <path class="cls-1" d="M90.3,24.8c.4,4.5,3.9,7.5,8.4,7.5s4.9-1,7-3.1l2.1,2.4c-2.4,2.5-5.5,4-9.1,4-6.8,0-12.1-5.2-12.1-11.9s5.1-11.9,11.6-11.9,10.4,4.3,10.4,10.3,0,1.8-.3,2.7h-18ZM104.9,21.6c0-4.1-3-6.5-6.8-6.5s-6.9,2.6-7.7,6.5h14.4Z"/>
        <path class="cls-1" d="M114.9,0h3.6v35h-3.6V0Z"/>
        <path class="cls-1" d="M138.3,35.5c-3.4,0-6.5-1.4-8.4-3.8v11.7h-3.6V12.3h3.4v3.6c1.7-2.6,5-4.2,8.6-4.2,6.5,0,11.3,5.2,11.3,11.9s-4.9,11.9-11.3,11.9ZM137.8,15.1c-4.1,0-7.9,2.8-7.9,8.5s3.7,8.6,7.9,8.6,8.1-3.6,8.1-8.5-3.5-8.6-8.1-8.6Z"/>
        <path class="cls-1" d="M189,12.3l-11.2,25.9c-1.7,4-4.2,5.7-7.7,5.7s-2.3-.1-3.5-.5v-3c1.2.1,2.1.2,2.8.2,2.4,0,4-.9,5.1-3.6l1.2-2.7-9.4-22h3.9l7.5,18.1,7.5-18.1h3.8Z"/>
        <path class="cls-1" d="M203.5,11.8c6.5,0,12,5.4,11.9,11.9.1,6.4-5.5,12-12,11.9-6.5.1-12-5.5-11.9-11.9-.1-6.5,5.4-12,11.9-11.9ZM203.5,15.1c-4.7,0-8.2,3.7-8.2,8.6s3.5,8.5,8.2,8.5,8.3-3.7,8.3-8.5-3.6-8.6-8.2-8.6Z"/>
        <path class="cls-1" d="M221.4,12.3h3.5v13.9c0,3.7,2.5,6,5.9,6s5.8-2.4,5.8-6v-13.9h3.6v13.7c0,5.7-4.1,9.6-9.4,9.6s-9.4-3.8-9.4-9.6v-13.7Z"/>
        <path class="cls-1" d="M260,15.5h-1.4c-3.8,0-7.1,2.5-7.1,6.7v12.9h-3.6V12.3h3.4v3.2c1.6-2.2,4.3-3.4,7.1-3.4s1.1,0,1.7.2v3.2Z"/>
        <path class="cls-1" d="M278.1,4.2h10.8c6,0,9.9,3.7,9.9,8.9s-3.9,9-9.9,9h-7.2v12.9h-3.6V4.2ZM288.9,18.9c3.9,0,6.2-2.3,6.2-5.7s-2.2-5.7-6.2-5.7h-7.1v11.4h7.1Z"/>
        <path class="cls-1" d="M304.9,4.2h19.8v3.3h-16.1v9.4h12.3v3.3h-12.3v11.6h16.7v3.3h-20.3V4.2Z"/>
        <path class="cls-1" d="M344.6,3.7c8.6-.1,16.2,7.1,16,15.9.2,8.8-7.4,16.1-16,15.9-8.7.2-16.2-7.2-16-15.9-.2-8.8,7.2-16.1,16-15.9ZM344.6,7.1c-7,0-12.2,5.4-12.2,12.5s5.3,12.6,12.2,12.6c6.8,0,12.3-5.6,12.2-12.6.1-7-5.4-12.7-12.2-12.5Z"/>
      </g>
    </g>
  </g>
</svg>