<?xml version="1.0" encoding="UTF-8"?>
<svg xmlns="http://www.w3.org/2000/svg" version="1.1" viewBox="0 0 489.6 44">
  <defs>
    <style>
      .cls-1 {
        fill: #ffbf3f;
      }
    </style>
  </defs>
  <!-- Generator: Adobe Illustrator 28.7.1, SVG Export Plug-In . SVG Version: 1.2.0 Build 142)  -->
  <g>
    <g id="Layer_1">
      <g>
        <path class="cls-1" d="M10.8,7.5H0v-3.3h25.4v3.3h-10.9v27.6h-3.6V7.5Z"/>
        <path class="cls-1" d="M49,35h-3.6v-13.8c0-3.7-2.1-6.1-5.7-6.1s-6,2.6-6,6.1v13.8h-3.6V0h3.6v14.9c1.5-1.9,4-3.1,6.8-3.1,5.2,0,8.4,3.6,8.4,9v14.3Z"/>
        <path class="cls-1" d="M58.8,24.8c.4,4.5,3.9,7.5,8.4,7.5s4.9-1,7-3.1l2.1,2.4c-2.4,2.5-5.5,4-9.1,4-6.8,0-12.1-5.2-12.1-11.9s5.1-11.9,11.6-11.9,10.4,4.3,10.4,10.3,0,1.8-.3,2.7h-18ZM73.3,21.6c0-4.1-3-6.5-6.8-6.5s-6.9,2.6-7.7,6.5h14.4Z"/>
        <path class="cls-1" d="M108.4,35.5c-3.4,0-6.5-1.4-8.4-3.8v11.7h-3.6V12.3h3.4v3.6c1.7-2.6,5-4.2,8.6-4.2,6.5,0,11.3,5.2,11.3,11.9s-4.9,11.9-11.3,11.9ZM107.9,15.1c-4.1,0-7.9,2.8-7.9,8.5s3.7,8.6,7.9,8.6,8.1-3.6,8.1-8.5-3.5-8.6-8.1-8.6Z"/>
        <path class="cls-1" d="M143,35h-3.4v-2.9c-1.7,2.2-4.3,3.5-7.7,3.5s-7.9-2.5-7.9-6.4,3.3-6.4,8.2-6.4h7.2v-2c0-3.7-2.1-5.7-5.5-5.7s-4.8,1.2-6.6,3.6l-2.4-2c2.1-3.4,5.5-5,9.2-5,5.4,0,8.9,3.3,8.9,9.2v14ZM139.4,25.7h-6.8c-3.2,0-4.9,1.1-4.9,3.2s2.1,3.6,4.7,3.6,7-2.8,7-6.3v-.6Z"/>
        <path class="cls-1" d="M170.6,12.3l-11.2,25.9c-1.7,4-4.2,5.7-7.7,5.7s-2.3-.1-3.5-.5v-3c1.2.1,2.1.2,2.8.2,2.4,0,4-.9,5.1-3.6l1.2-2.7-9.4-22h3.9l7.5,18.1,7.5-18.1h3.8Z"/>
        <path class="cls-1" d="M187.9,15.5h-1.4c-3.8,0-7.1,2.5-7.1,6.7v12.9h-3.6V12.3h3.4v3.2c1.6-2.2,4.3-3.4,7.1-3.4s1.1,0,1.7.2v3.2Z"/>
        <path class="cls-1" d="M202.5,11.8c6.5,0,12.1,5.4,11.9,11.9.1,6.4-5.5,12-12,11.9-6.5.1-12-5.5-11.9-11.9-.1-6.5,5.4-12,11.9-11.9ZM202.5,15.1c-4.7,0-8.2,3.7-8.2,8.6s3.5,8.5,8.2,8.5,8.3-3.7,8.3-8.5-3.6-8.6-8.2-8.6Z"/>
        <path class="cls-1" d="M220.7,0h3.6v35h-3.6V0Z"/>
        <path class="cls-1" d="M232.2,0h3.6v35h-3.6V0Z"/>
        <path class="cls-1" d="M258.9,24.8c.4,4.5,3.9,7.5,8.4,7.5s4.9-1,7-3.1l2.1,2.4c-2.4,2.5-5.5,4-9.1,4-6.8,0-12.1-5.2-12.1-11.9s5.1-11.9,11.6-11.9,10.4,4.3,10.4,10.3,0,1.8-.3,2.7h-18ZM273.5,21.6c0-4.1-3-6.5-6.8-6.5s-6.9,2.6-7.7,6.5h14.4Z"/>
        <path class="cls-1" d="M297.1,35l-6.5-9.3-6.4,9.3h-4.2l8.5-11.9-7.8-10.9h4.2l5.8,8.4,5.8-8.4h4.2l-7.9,10.9,8.5,11.9h-4.2Z"/>
        <path class="cls-1" d="M318.2,35.5c-3.4,0-6.5-1.4-8.4-3.8v11.7h-3.6V12.3h3.4v3.6c1.7-2.6,5-4.2,8.6-4.2,6.5,0,11.3,5.2,11.3,11.9s-4.9,11.9-11.3,11.9ZM317.6,15.1c-4.1,0-7.9,2.8-7.9,8.5s3.7,8.6,7.9,8.6,8.1-3.6,8.1-8.5-3.5-8.6-8.1-8.6Z"/>
        <path class="cls-1" d="M337.8,24.8c.4,4.5,3.9,7.5,8.4,7.5s4.9-1,7-3.1l2.1,2.4c-2.4,2.5-5.5,4-9.1,4-6.8,0-12.1-5.2-12.1-11.9s5.1-11.9,11.6-11.9,10.4,4.3,10.4,10.3,0,1.8-.3,2.7h-18ZM352.4,21.6c0-4.1-3-6.5-6.8-6.5s-6.9,2.6-7.7,6.5h14.4Z"/>
        <path class="cls-1" d="M374.5,15.5h-1.4c-3.8,0-7.1,2.5-7.1,6.7v12.9h-3.6V12.3h3.4v3.2c1.6-2.2,4.3-3.4,7.1-3.4s1.1,0,1.7.2v3.2Z"/>
        <path class="cls-1" d="M381.1,1c1.4,0,2.7,1.2,2.7,2.6s-1.2,2.6-2.7,2.6-2.7-1.1-2.7-2.6,1.2-2.6,2.7-2.6ZM379.3,12.3h3.6v22.7h-3.6V12.3Z"/>
        <path class="cls-1" d="M392.9,24.8c.4,4.5,3.9,7.5,8.4,7.5s4.9-1,7-3.1l2.1,2.4c-2.4,2.5-5.5,4-9.1,4-6.8,0-12.1-5.2-12.1-11.9s5.1-11.9,11.6-11.9,10.4,4.3,10.4,10.3,0,1.8-.3,2.7h-18ZM407.5,21.6c0-4.1-3-6.5-6.8-6.5s-6.9,2.6-7.7,6.5h14.4Z"/>
        <path class="cls-1" d="M436.3,35h-3.6v-13.9c0-3.6-2.1-6.1-5.7-6.1s-6,2.5-6,6.1v13.9h-3.6V12.3h3.4v2.4c1.7-1.9,4.2-2.9,7-2.9,5.3,0,8.5,3.6,8.5,9v14.3Z"/>
        <path class="cls-1" d="M454.2,11.8c4,0,7.3,1.9,9.4,5l-2.6,2.1c-1.8-2.5-4.1-3.7-6.8-3.7-4.7,0-8.3,3.8-8.3,8.5s3.5,8.6,8.3,8.6,4.9-1.2,6.7-3.6l2.6,2c-2.1,3-5.4,5-9.3,5-6.6,0-11.9-5.3-11.9-11.9-.1-6.5,5.4-12,11.9-11.9Z"/>
        <path class="cls-1" d="M471.3,24.8c.4,4.5,3.9,7.5,8.4,7.5s4.9-1,7-3.1l2.1,2.4c-2.4,2.5-5.5,4-9.1,4-6.8,0-12.1-5.2-12.1-11.9s5.1-11.9,11.6-11.9,10.4,4.3,10.4,10.3,0,1.8-.3,2.7h-18ZM485.9,21.6c0-4.1-3-6.5-6.8-6.5s-6.9,2.6-7.7,6.5h14.4Z"/>
      </g>
    </g>
  </g>
</svg>