<?xml version="1.0" encoding="UTF-8"?>
<svg xmlns="http://www.w3.org/2000/svg" version="1.1" viewBox="0 0 340.1 33.7">
  <defs>
    <style>
      .cls-1 {
        fill: #ffbf3f;
      }
    </style>
  </defs>
  <!-- Generator: Adobe Illustrator 28.7.1, SVG Export Plug-In . SVG Version: 1.2.0 Build 142)  -->
  <g>
    <g id="Layer_1">
      <g>
        <path class="cls-1" d="M0,.5h11.4c6.3,0,10.4,3.9,10.4,9.4s-4.1,9.5-10.4,9.5H3.8v13.6H0V.5ZM11.3,16c4.1,0,6.5-2.4,6.5-6s-2.4-6-6.5-6H3.8v12h7.5Z"/>
        <path class="cls-1" d="M44.2,26.5h-16l-2.8,6.6h-4L35.5,0h1.4l14.1,33.1h-4.1l-2.8-6.6ZM36.2,7l-6.5,16h13l-6.5-16Z"/>
        <path class="cls-1" d="M78,33.1l-10.1-13.7h-7v13.7h-3.8V.5h11.4c6.3,0,10.4,3.9,10.4,9.4s-2.6,7.8-6.9,9l10.4,14.1h-4.5ZM60.9,16h7.5c4.2,0,6.6-2.4,6.6-6s-2.4-6-6.6-6h-7.5v12Z"/>
        <path class="cls-1" d="M94.4,4h-11.4V.5h26.8v3.5h-11.5v29.1h-3.8V4Z"/>
        <path class="cls-1" d="M141.1.5v33.1h-1.4l-20.7-25v24.4h-3.8V0h1.4l20.7,25V.5h3.8Z"/>
        <path class="cls-1" d="M150.1.5h20.9v3.5h-17v10h13v3.5h-13v12.2h17.6v3.5h-21.5V.5Z"/>
        <path class="cls-1" d="M199,33.1l-10.1-13.7h-7v13.7h-3.8V.5h11.4c6.3,0,10.4,3.9,10.4,9.4s-2.6,7.8-6.9,9l10.4,14.1h-4.5ZM181.9,16h7.5c4.2,0,6.6-2.4,6.6-6s-2.4-6-6.6-6h-7.5v12Z"/>
        <path class="cls-1" d="M265.9.5l-12.3,33.1h-1.4l-10.3-25.9-10.3,25.9h-1.4L217.8.5h4.2l9,24.8L241.2,0h1.4l10.2,25.3,9-24.8h4.2Z"/>
        <path class="cls-1" d="M272.7.5h3.8v32.6h-3.8V.5Z"/>
        <path class="cls-1" d="M293.4,4h-11.4V.5h26.8v3.5h-11.5v29.1h-3.8V4Z"/>
        <path class="cls-1" d="M314.2.5h3.8v13.4h18.3V.5h3.8v32.6h-3.8v-15.7h-18.3v15.7h-3.8V.5Z"/>
      </g>
    </g>
  </g>
</svg>