<?xml version="1.0" encoding="UTF-8"?>
<svg xmlns="http://www.w3.org/2000/svg" version="1.1" viewBox="0 0 407.7 33.7">
  <defs>
    <style>
      .cls-1 {
        fill: #ffbf3f;
      }
    </style>
  </defs>
  <!-- Generator: Adobe Illustrator 28.7.1, SVG Export Plug-In . SVG Version: 1.2.0 Build 142)  -->
  <g>
    <g id="Layer_1">
      <g>
        <path class="cls-1" d="M2.9,24.5c2.4,3.7,5.5,5.6,9.1,5.6s6.6-2.1,6.6-5.4-1.8-3.9-5.4-5.7l-3.7-1.7c-4.5-2.1-7.4-4.4-7.4-8.7S6.6,0,11.9,0s8.1,2.2,10.2,5.5l-2.8,2.1c-1.8-2.6-4.5-4.1-7.5-4.1s-5.8,1.7-5.8,4.7.2,1.7.6,2.4c.8,1.2,2,1.9,4.6,3.1l3.6,1.7c5.1,2.5,7.6,4.9,7.6,9.1s-4.4,9.1-10.5,9.1S2.6,31,0,26.6l2.9-2.1Z"/>
        <path class="cls-1" d="M44.8,0c9.1-.1,17.1,7.5,16.9,16.8.2,9.3-7.8,17-16.9,16.8-9.2.2-17.1-7.6-16.9-16.8C27.7,7.5,35.5-.1,44.8,0ZM44.8,3.6c-7.4,0-12.9,5.7-12.9,13.2s5.6,13.3,12.9,13.3c7.2,0,13-5.9,12.9-13.3.1-7.4-5.7-13.4-12.9-13.2Z"/>
        <path class="cls-1" d="M68.1.5h3.8v19.9c0,6.3,3.8,9.7,9.1,9.7s9-3.4,9-9.7V.5h3.8v19.6c0,8.5-5.4,13.5-12.9,13.5s-13-4.9-13-13.5V.5Z"/>
        <path class="cls-1" d="M110.4,4h-11.4V.5h26.8v3.5h-11.5v29.1h-3.8V4Z"/>
        <path class="cls-1" d="M131.2.5h3.8v13.4h18.3V.5h3.8v32.6h-3.8v-15.7h-18.3v15.7h-3.8V.5Z"/>
        <path class="cls-1" d="M166.5,24.5c2.4,3.7,5.5,5.6,9.1,5.6s6.6-2.1,6.6-5.4-1.8-3.9-5.4-5.7l-3.7-1.7c-4.5-2.1-7.4-4.4-7.4-8.7S170.3,0,175.6,0s8.1,2.2,10.2,5.5l-2.8,2.1c-1.8-2.6-4.5-4.1-7.5-4.1s-5.8,1.7-5.8,4.7.2,1.7.6,2.4c.8,1.2,2,1.9,4.6,3.1l3.6,1.7c5.1,2.5,7.6,4.9,7.6,9.1s-4.4,9.1-10.5,9.1-9.4-2.7-12-7l2.9-2.1Z"/>
        <path class="cls-1" d="M201.6,4h-11.4V.5h26.8v3.5h-11.5v29.1h-3.8V4Z"/>
        <path class="cls-1" d="M238.5,26.5h-16l-2.8,6.6h-4L229.8,0h1.4l14.1,33.1h-4.1l-2.8-6.6ZM230.5,7l-6.5,16h13l-6.5-16Z"/>
        <path class="cls-1" d="M255.6,4h-11.4V.5h26.8v3.5h-11.5v29.1h-3.8V4Z"/>
        <path class="cls-1" d="M276.3.5h20.9v3.5h-17v10h13v3.5h-13v12.2h17.6v3.5h-21.5V.5Z"/>
        <path class="cls-1" d="M318.1.5h20.4v3.5h-16.5v11.2h13.7v3.5h-13.7v14.4h-3.8V.5Z"/>
        <path class="cls-1" d="M358.5,0c9.1-.1,17.1,7.5,16.9,16.8.2,9.3-7.8,17-16.9,16.8-9.2.2-17.1-7.6-16.9-16.8-.2-9.3,7.6-17,16.9-16.8ZM358.5,3.6c-7.4,0-12.9,5.7-12.9,13.2s5.6,13.3,12.9,13.3c7.2,0,13-5.9,12.9-13.3.1-7.4-5.7-13.4-12.9-13.2Z"/>
        <path class="cls-1" d="M403.2,33.1l-10.1-13.7h-7v13.7h-3.8V.5h11.4c6.3,0,10.4,3.9,10.4,9.4s-2.6,7.8-6.9,9l10.4,14.1h-4.5ZM386.1,16h7.5c4.2,0,6.6-2.4,6.6-6s-2.4-6-6.6-6h-7.5v12Z"/>
      </g>
    </g>
  </g>
</svg>