<?xml version="1.0" encoding="UTF-8"?>
<svg xmlns="http://www.w3.org/2000/svg" version="1.1" viewBox="0 0 307.9 49.2">
  <defs>
    <style>
      .cls-1 {
        fill: #ffbf3f;
      }
    </style>
  </defs>
  <!-- Generator: Adobe Illustrator 28.7.1, SVG Export Plug-In . SVG Version: 1.2.0 Build 142)  -->
  <g>
    <g id="Layer_1">
      <g>
        <path class="cls-1" d="M21.1,48.3H0V.9h16.8c8.8,0,15,5.5,15,13.2s-1.2,6.3-3.5,8.6c5.2,1.9,8.4,6,8.4,11.7,0,8.2-6.5,13.9-15.6,13.9ZM9.3,9.2v10.9h6.7c4,0,6.2-2.1,6.2-5.5s-2.2-5.4-6.2-5.4h-6.7ZM20.4,28h-11.1v11.9h11.1c4.2,0,6.8-2.2,6.8-6s-2.5-6-6.8-6Z"/>
        <path class="cls-1" d="M71.9,42.1h-19.4l-2.7,6.2h-10.4L60.6,0h3.2l21.1,48.3h-10.4l-2.7-6.2ZM62.2,18.1l-6.3,16h12.7l-6.3-16Z"/>
        <path class="cls-1" d="M131.8.9v48.3h-3.2l-27.5-29.3v28.5h-9.7V0h3.2l27.5,29.2V.9h9.7Z"/>
        <path class="cls-1" d="M172.7,48.3l-20.3-24.7v24.7h-9.7V.9h9.7v22L170.5.9h11.6l-18.2,22.4,20.6,25.1h-11.7Z"/>
        <path class="cls-1" d="M190.8.9h9.7v47.4h-9.7V.9Z"/>
        <path class="cls-1" d="M251.8.9v48.3h-3.2l-27.5-29.3v28.5h-9.7V0h3.2l27.5,29.2V.9h9.7Z"/>
        <path class="cls-1" d="M285.3,0c8.3,0,15.4,3.7,20,10.3l-6.9,5.7c-3.4-4.7-7.8-7-13.2-7-9.1,0-15.2,6.5-15.2,15.6s6.4,15.9,15.8,15.9,9.8-2.2,12.5-5.9v-3.9h-13.1v-8.4h22.8v14c-2.2,3.8-5.2,7-9.3,9.3-4,2.4-8.4,3.5-13.4,3.5-13.9.3-25.6-11-25.4-24.6C259.6,10.9,271.3-.2,285.3,0Z"/>
      </g>
    </g>
  </g>
</svg>