<svg id="Layer_1" data-name="Layer 1" xmlns="http://www.w3.org/2000/svg" xmlns:xlink="http://www.w3.org/1999/xlink" viewBox="0 0 99.06 80.64"><defs><style>.cls-1,.cls-3,.cls-4,.cls-5,.cls-6{fill:none;}.cls-2{fill:#00a0df;}.cls-3,.cls-4,.cls-5,.cls-6{stroke:#fff;}.cls-3,.cls-6{stroke-linecap:round;}.cls-3{stroke-linejoin:round;}.cls-3,.cls-4,.cls-6{stroke-width:2.54px;}.cls-4,.cls-5,.cls-6{stroke-miterlimit:10;}.cls-5{stroke-width:2.53px;}.cls-7{clip-path:url(#clip-path);}</style><clipPath id="clip-path"><rect class="cls-1" x="0.52" y="2.76" width="95.23" height="79.21"/></clipPath></defs><path class="cls-2" d="M49.34,70.74c25.63,0,46.41-15.22,46.41-34S75,2.76,49.34,2.76,2.93,18,2.93,36.75s20.78,34,46.41,34"/><path class="cls-2" d="M27.66,68.13c0,5.59,5.58,10,12.45,9.89s12.44-4.76,12.43-10.35-5.58-10-12.45-9.89S27.65,62.54,27.66,68.13"/><path class="cls-3" d="M67.93,32.3l-4.1-12.62a6,6,0,0,0-5.62-4H34.38a6,6,0,0,0-5.62,4L23.69,33.2A8.52,8.52,0,0,0,23.21,36v9.52a2,2,0,0,0,2,2.05H45.35"/><path class="cls-4" d="M23.21,44.87v5.42a2.09,2.09,0,0,0,2,2.17h3a2.09,2.09,0,0,0,2-2.17V47"/><path class="cls-3" d="M25.16,29.44l1.47,1.19a5,5,0,0,0,3.18,1.26H62.54"/><path class="cls-5" d="M34.19,40.7h-4.6a3.79,3.79,0,0,1-3.46-4,1.26,1.26,0,0,1,1.15-1.34h4.61a3.77,3.77,0,0,1,3.45,4A1.25,1.25,0,0,1,34.19,40.7Z"/><rect class="cls-1" x="0.52" y="2.76" width="95.23" height="79.21"/><line class="cls-6" x1="45.37" y1="43.05" x2="37.8" y2="43.05"/><g class="cls-7"><path class="cls-4" d="M68.24,29.24h3.49a2.75,2.75,0,0,0,2.5-2.94,1.65,1.65,0,0,0-1.5-1.76h-3a1.65,1.65,0,0,0-1.5,1.76Zm-43.9,0H20.85a2.75,2.75,0,0,1-2.5-2.94,1.65,1.65,0,0,1,1.5-1.76h3a1.65,1.65,0,0,1,1.5,1.76Z"/><path class="cls-4" d="M61.77,36.81A11.16,11.16,0,1,0,72.82,48,11.12,11.12,0,0,0,61.77,36.81Z"/></g><polyline class="cls-3" points="57.32 47.12 61.46 51.44 72.84 39.55"/></svg>