<?xml version="1.0" encoding="UTF-8"?>
<svg xmlns="http://www.w3.org/2000/svg" version="1.1" viewBox="0 0 172.8 42.8">
  <defs>
    <style>
      .cls-1 {
        fill: #ffbf3f;
      }

      .cls-2 {
        fill: #002d72;
      }
    </style>
  </defs>
  <!-- Generator: Adobe Illustrator 28.7.1, SVG Export Plug-In . SVG Version: 1.2.0 Build 142)  -->
  <g>
    <g id="Layer_1">
      <rect class="cls-1" width="172.8" height="42.8" rx="5.2" ry="5.2"/>
      <g>
        <path class="cls-2" d="M22.5,12.1h2.7v14.4h7.7v2.4h-10.4V12.1Z"/>
        <path class="cls-2" d="M37.3,23.5c.3,2,1.9,3.3,4.1,3.3s2.5-.5,3.6-1.5l1.3,1.8c-1.4,1.4-3.1,2-5,2-3.8,0-6.7-2.8-6.7-6.5,0-3.6,2.9-6.6,6.5-6.6,3.3,0,5.8,2.5,5.8,5.7s0,1.1-.2,1.7h-9.3ZM44.2,21.4c0-1.9-1.5-3.1-3.2-3.1s-3.2,1.2-3.6,3.1h6.8Z"/>
        <path class="cls-2" d="M59.8,28.9h-2.5v-1.4c-.9,1.1-2.3,1.7-4,1.7-2.6,0-4.4-1.5-4.4-3.6s1.8-3.6,4.6-3.6h3.5v-.8c0-1.7-1-2.7-2.7-2.7s-2.4.6-3.5,1.9l-1.6-1.6c1.2-1.8,3.1-2.7,5.3-2.7,3.1,0,5.1,1.9,5.1,5.2v7.6ZM57.1,23.9h-3.2c-1.4,0-2.2.5-2.2,1.5s.9,1.7,2.2,1.7,3.2-1.2,3.2-3v-.2Z"/>
        <path class="cls-2" d="M70.7,18.7h-.8c-2.1,0-3.7,1.2-3.7,3.5v6.7h-2.7v-12.5h2.5v1.6c.9-1.1,2.2-1.8,3.6-1.8s.7,0,1,.1v2.4Z"/>
        <path class="cls-2" d="M84.1,28.9h-2.7v-7.5c0-1.7-1.1-2.9-2.7-2.9s-2.9,1.2-2.9,2.9v7.5h-2.7v-12.5h2.5v1.2c.9-1,2.2-1.5,3.7-1.5,2.9,0,4.7,2,4.7,5v7.8Z"/>
        <path class="cls-2" d="M111.1,11.8v17.1h-2.7v-10.6l-4.8,6.3h-.9l-4.8-6.3v10.6h-2.7V11.8h.9l7.1,9.4,7.1-9.4h.9Z"/>
        <path class="cls-2" d="M120.8,16.1c3.6,0,6.7,3,6.7,6.5,0,3.5-3,6.6-6.7,6.6-3.6,0-6.7-3-6.6-6.6,0-3.6,3-6.6,6.6-6.5ZM120.8,18.5c-2.2,0-3.9,1.8-3.9,4.1s1.7,4.1,3.9,4.1,3.9-1.8,3.9-4.1-1.7-4.1-3.9-4.1Z"/>
        <path class="cls-2" d="M137.7,18.7h-.8c-2.1,0-3.7,1.2-3.7,3.5v6.7h-2.7v-12.5h2.5v1.6c.9-1.1,2.2-1.8,3.6-1.8s.7,0,1,.1v2.4Z"/>
        <path class="cls-2" d="M141.8,23.5c.3,2,1.9,3.3,4.1,3.3s2.5-.5,3.6-1.5l1.3,1.8c-1.4,1.4-3.1,2-5,2-3.8,0-6.7-2.8-6.7-6.5,0-3.6,2.9-6.6,6.5-6.6,3.3,0,5.8,2.5,5.8,5.7s0,1.1-.2,1.7h-9.3ZM148.6,21.4c0-1.9-1.5-3.1-3.2-3.1s-3.2,1.2-3.6,3.1h6.8Z"/>
      </g>
    </g>
  </g>
</svg>