<?xml version="1.0" encoding="UTF-8"?>
<svg xmlns="http://www.w3.org/2000/svg" version="1.1" viewBox="0 0 1752.5 119.2">
  <defs>
    <style>
      .cls-1 {
        fill: #fdbb3a;
        stroke: #fdbb3a;
        stroke-miterlimit: 10;
        stroke-width: .6px;
      }
    </style>
  </defs>
  <!-- Generator: Adobe Illustrator 28.7.1, SVG Export Plug-In . SVG Version: 1.2.0 Build 142)  -->
  <g>
    <g id="Layer_1">
      <g>
        <path class="cls-1" d="M155.4,58.2c-1.7,0-3.2,1.4-3.2,3.2v38.2c0,.9-.7,1.6-1.6,1.6h-11.7c-.9,0-1.6-.7-1.6-1.6v-14.4h8.2c1.7,0,3.2-1.4,3.2-3.2v-27.2c0-1.7-1.4-3.2-3.2-3.2h-8.2v-14.9c0-.9.7-1.6,1.6-1.6h9.9c1.7,0,3.2-1.4,3.2-3.2V11.9c0-1.7-1.4-3.2-3.2-3.2h-18.5c-1.7,0-3.2,1.4-3.2,3.2v39.8h-9.7v-8.4c0-1.7-1.4-3.2-3.2-3.2h-20.7c-1.7,0-3.2,1.4-3.2,3.2v22h-4.3c-1.7,0-3.2,1.4-3.2,3.2v40.7c0,.4-.2.8-.5,1.2-.3.3-.7.5-1.1.5h-21.6c-.9,0-1.6-.8-1.6-1.7v-25h8.8c1.7,0,3.2-1.4,3.2-3.2V16.7h15.8c.9,0,1.6.7,1.6,1.6v11.6h-9.1c-1.7,0-3.2,1.4-3.2,3.2v6.5c0,1.7,1.4,3.2,3.2,3.2h7.5c1.7,0,3.2-1.4,3.2-3.2v-8.1h15.4c1.7,0,3.2-1.4,3.2-3.2V3.5c0-1.7-1.4-3.2-3.2-3.2h-32.7c-1.7,0-3.2,1.4-3.2,3.2v11.7h-17.2c-.8,0-1.6.3-2.2.9-.6.6-.9,1.4-.9,2.2v13.3c0,1.7,1.5,3.1,3.2,3.1h6.3c.9,0,1.6.7,1.6,1.6v20.1c0,.9-.7,1.6-1.6,1.6H11.3v-1.7c0-1.3-1.1-2.4-2.4-2.4H2.7c-1.3,0-2.4,1.1-2.4,2.4v6.3c0,1.3,1.1,2.4,2.4,2.4h6.3c1.3,0,2.4-1.1,2.4-2.4v-3h46.3c1.7,0,3.2-1.4,3.2-3.2v-20.1c0-1.7-1.4-3.2-3.2-3.2h-6.3c-.9,0-1.6-.7-1.6-1.6v-13.3c0-.4.1-.8.4-1.2.3-.3.7-.5,1.2-.5h17.2v64.1c0,.9-.7,1.6-1.6,1.6h-8.8v-9.8c0-1.7-1.4-3.2-3.2-3.2h-8.1c-1.7,0-3.2,1.4-3.2,3.2v8.2c0,1.7,1.4,3.2,3.2,3.2h9.7v25c0,1.7,1.4,3.2,3.1,3.2h21.6c0,0,0,0,0,0,.8,0,1.6-.3,2.2-.9.6-.6.9-1.4.9-2.2v-40.7c0-.9.7-1.6,1.6-1.6h4.3v49c0,1.7,1.4,3.2,3.2,3.2h15.6c1.7,0,3.2-1.4,3.2-3.2v-10.8c0-.9-.3-1.7-1-2.3-.6-.6-1.4-.9-2.3-.9l-5,.2c-.4,0-.9-.1-1.2-.5-.3-.3-.5-.7-.5-1.2v-31.9c0-1.7-1.4-3.2-3.2-3.2h-7.3v-22c0-.9.7-1.6,1.6-1.6h20.7c.9,0,1.6.7,1.6,1.6v8.4h-4.9c-1.7,0-3.2,1.4-3.2,3.2v25.2c0,1.7,1.4,3.2,3.2,3.2h3.3c1.7,0,3.2-1.4,3.2-3.2v-26.8h9.7v28.8c0,1.7,1.4,3.2,3.2,3.2h5.4v14.4c0,1.7,1.4,3.2,3.2,3.2h11.7c1.7,0,3.2-1.4,3.2-3.2v-38.2c0-.9.7-1.6,1.6-1.6M87.5,39.6c0,.9-.7,1.6-1.6,1.6h-7.5c-.9,0-1.6-.7-1.6-1.6v-6.5c0-.9.7-1.6,1.6-1.6h9.1v8.1ZM70.1,3.5c0-.9.7-1.6,1.6-1.6h32.7c.9,0,1.6.7,1.6,1.6v24.9c0,.9-.7,1.6-1.6,1.6h-15.4v-11.6c0-1.7-1.4-3.2-3.2-3.2h-15.8V3.5ZM56.6,82.5h-9.7c-.9,0-1.6-.7-1.6-1.6v-8.2c0-.9.7-1.6,1.6-1.6h8.1c.9,0,1.6.7,1.6,1.6v9.8ZM99.3,66.8c.9,0,1.6.7,1.6,1.6v31.9c0,.9.3,1.7,1,2.3.6.6,1.4.9,2.3.9l5-.2c.4,0,.9.2,1.2.5.3.3.5.7.5,1.2v10.8c0,.9-.7,1.6-1.6,1.6h-15.6c-.9,0-1.6-.7-1.6-1.6v-49h7.3ZM116,80c0,.9-.7,1.6-1.6,1.6h-3.3c-.9,0-1.6-.7-1.6-1.6v-25.2c0-.9.7-1.6,1.6-1.6h4.9v26.8ZM145.6,53.2c.9,0,1.6.7,1.6,1.6v27.2c0,.9-.7,1.6-1.6,1.6h-8.2v-30.4h8.2ZM135.8,83.6h-5.4c-.9,0-1.6-.7-1.6-1.6v-28.8h7.1v30.4ZM135.8,36.8v14.9h-7.1V11.9c0-.9.7-1.6,1.6-1.6h18.5c.9,0,1.6.7,1.6,1.6v20.1c0,.9-.7,1.6-1.6,1.6h-9.9c-1.7,0-3.2,1.4-3.2,3.2Z"/>
        <path class="cls-1" d="M250.1,58.8v4.4c0,.7.4,1.3,1,1.6.3.1.6.2.9.2s.7-.1,1-.3l6.8-4.5c.5-.3.8-.9.8-1.5s-.3-1.2-.8-1.5l-6.8-4.5c-.6-.4-1.3-.4-1.9,0-.6.3-1,.9-1,1.6v4.6Z"/>
        <rect class="cls-1" x="155.6" y="58" width="96.5" height="1.5"/>
        <path class="cls-1" d="M1741.7,58.8v4.4c0,.7.4,1.3,1,1.6.3.1.6.2.9.2s.7-.1,1-.3l6.8-4.5c.5-.3.8-.9.8-1.5s-.3-1.2-.8-1.5l-6.8-4.5c-.6-.4-1.3-.4-1.9,0-.6.3-1,.9-1,1.6v4.6Z"/>
        <rect class="cls-1" x="1555.9" y="58" width="187.8" height="1.5"/>
        <path class="cls-1" d="M1207.9,57.1h-76.8v-19.4c0-1.7-1.4-3.2-3.2-3.2h-9.3c-1.7,0-3.2,1.4-3.2,3.2v17.9c0,1.7,1.4,3.2,3.2,3.2h10.9v34.7c0,.8-.7,1.5-1.5,1.5h-9.3c-.8,0-1.5-.7-1.5-1.5v-27.9c0-1.7-1.4-3.2-3.2-3.2h-9V7.7c0-1.7-1.4-3.2-3.2-3.2h-22.2c-1.7,0-3.2,1.4-3.2,3.2v32.8h-11.3v-15.7c0-1.7-1.4-3.2-3.2-3.2h-17.9c-1.7,0-3.2,1.4-3.2,3.2v14.2c0,1.7,1.4,3.2,3.2,3.2h19.4v14.2c0,.8-.7,1.5-1.5,1.5h-86.1v1.6h86.1c1.7,0,3.2-1.4,3.2-3.2v-14.2h11.3v18.7c0,1.7,1.4,3.2,3.2,3.2h13.6v26c0,.8-.7,1.5-1.5,1.5h-8.6v-21.9c0-1.7-1.4-3.2-3.2-3.2h-19.7c-1.7,0-3.2,1.4-3.2,3.2v20.4c0,1.7,1.4,3.2,3.2,3.2h21.2v15.9c0,1.7,1.4,3.2,3.2,3.2h17.3c1.7,0,3.2-1.4,3.2-3.2v-45h9c.8,0,1.5.7,1.5,1.5v27.9c0,1.7,1.4,3.2,3.2,3.2h9.3c1.7,0,3.2-1.4,3.2-3.2v-34.7h76.8v-1.6ZM1063.5,40.5h-19.4c-.8,0-1.5-.7-1.5-1.5v-14.2c0-.8.7-1.5,1.5-1.5h17.9c.8,0,1.5.7,1.5,1.5v15.7ZM1081.4,91.5h-21.2c-.8,0-1.5-.7-1.5-1.5v-20.4c0-.8.7-1.5,1.5-1.5h19.7c.8,0,1.5.7,1.5,1.5v21.9ZM1079.6,62.4c-.8,0-1.5-.7-1.5-1.5v-18.7h13.6c.8,0,1.5.7,1.5,1.5v18.7h-13.6ZM1103.3,109c0,.8-.7,1.5-1.5,1.5h-17.3c-.8,0-1.5-.7-1.5-1.5v-15.9h8.6c1.7,0,3.2-1.4,3.2-3.2v-26h8.5v45ZM1103.3,62.4h-8.5v-18.7c0-1.7-1.4-3.2-3.2-3.2h-13.6V7.7c0-.8.7-1.5,1.5-1.5h22.2c.8,0,1.5.7,1.5,1.5v54.7ZM1129.5,57.1h-10.9c-.8,0-1.5-.7-1.5-1.5v-17.9c0-.8.7-1.5,1.5-1.5h9.3c.8,0,1.5.7,1.5,1.5v19.4Z"/>
        <path class="cls-1" d="M1207.1,57.6v4.4c0,.7.4,1.3,1,1.6.3.1.6.2.9.2s.7-.1,1-.3l6.8-4.5c.5-.3.8-.9.8-1.5s-.3-1.2-.8-1.5l-6.8-4.5c-.6-.4-1.3-.4-1.9,0-.6.3-1,.9-1,1.6v4.6Z"/>
      </g>
    </g>
  </g>
</svg>