<?xml version="1.0" encoding="UTF-8"?>
<svg xmlns="http://www.w3.org/2000/svg" version="1.1" viewBox="0 0 656.6 33.3">
  <defs>
    <style>
      .cls-1 {
        fill: #ffbf3f;
      }
    </style>
  </defs>
  <!-- Generator: Adobe Illustrator 28.7.1, SVG Export Plug-In . SVG Version: 1.2.0 Build 142)  -->
  <g>
    <g id="Layer_1">
      <g>
        <path class="cls-1" d="M8.2,5.7H0v-2.5h19.2v2.5h-8.2v20.9h-2.8V5.7Z"/>
        <path class="cls-1" d="M37.2,26.5h-2.7v-10.5c0-2.8-1.6-4.6-4.3-4.6s-4.5,1.9-4.5,4.6v10.5h-2.7V0h2.7v11.3c1.2-1.5,3-2.3,5.2-2.3,4,0,6.4,2.7,6.4,6.8v10.8Z"/>
        <path class="cls-1" d="M44.5,18.8c.3,3.4,2.9,5.7,6.3,5.7s3.7-.8,5.3-2.3l1.6,1.8c-1.8,1.9-4.2,3-6.9,3-5.1,0-9.1-3.9-9.1-9s3.9-9,8.8-9,7.9,3.2,7.9,7.8,0,1.3-.2,2.1h-13.6ZM55.6,16.3c0-3.1-2.3-5-5.1-5s-5.2,2-5.8,5h10.9Z"/>
        <path class="cls-1" d="M82.1,26.9c-2.5,0-4.9-1.1-6.3-2.9v8.8h-2.7V9.3h2.5v2.8c1.3-2,3.8-3.1,6.5-3.1,4.9,0,8.5,3.9,8.5,9s-3.7,9-8.5,9ZM81.7,11.4c-3.1,0-6,2.1-6,6.5s2.8,6.5,6,6.5,6.1-2.8,6.1-6.5-2.6-6.5-6.1-6.5Z"/>
        <path class="cls-1" d="M108.3,26.5h-2.5v-2.2c-1.3,1.7-3.3,2.6-5.8,2.6s-6-1.9-6-4.8,2.5-4.8,6.2-4.8h5.4v-1.5c0-2.8-1.6-4.4-4.2-4.4s-3.6.9-5,2.8l-1.8-1.5c1.6-2.5,4.1-3.8,7-3.8,4.1,0,6.7,2.5,6.7,7v10.6ZM105.6,19.5h-5.1c-2.4,0-3.7.8-3.7,2.4s1.6,2.7,3.6,2.7,5.3-2.1,5.3-4.7v-.4Z"/>
        <path class="cls-1" d="M129.2,9.3l-8.5,19.6c-1.3,3-3.2,4.4-5.8,4.4s-1.8-.1-2.7-.4v-2.3c.9.1,1.6.2,2.1.2,1.8,0,3-.7,3.9-2.8l.9-2.1-7.1-16.7h2.9l5.7,13.7,5.7-13.7h2.9Z"/>
        <path class="cls-1" d="M142.3,11.7h-1c-2.9,0-5.4,1.9-5.4,5.1v9.8h-2.7V9.3h2.5v2.4c1.2-1.7,3.3-2.6,5.3-2.6s.8,0,1.3.1v2.4Z"/>
        <path class="cls-1" d="M153.4,8.9c4.9,0,9.1,4.1,9,9,.1,4.8-4.1,9.1-9.1,9-4.9.1-9.1-4.1-9-9-.1-4.9,4.1-9.1,9-9ZM153.4,11.4c-3.5,0-6.2,2.8-6.2,6.5s2.7,6.4,6.2,6.4,6.3-2.8,6.3-6.4-2.7-6.5-6.2-6.5Z"/>
        <path class="cls-1" d="M167.2,0h2.7v26.5h-2.7V0Z"/>
        <path class="cls-1" d="M175.9,0h2.7v26.5h-2.7V0Z"/>
        <path class="cls-1" d="M196.1,18.8c.3,3.4,2.9,5.7,6.3,5.7s3.7-.8,5.3-2.3l1.6,1.8c-1.8,1.9-4.2,3-6.9,3-5.1,0-9.1-3.9-9.1-9s3.9-9,8.8-9,7.9,3.2,7.9,7.8,0,1.3-.2,2.1h-13.6ZM207.2,16.3c0-3.1-2.3-5-5.1-5s-5.2,2-5.8,5h10.9Z"/>
        <path class="cls-1" d="M225.1,26.5l-4.9-7.1-4.9,7.1h-3.2l6.4-9-5.9-8.2h3.1l4.4,6.3,4.4-6.3h3.1l-6,8.2,6.5,9h-3.1Z"/>
        <path class="cls-1" d="M241,26.9c-2.5,0-4.9-1.1-6.3-2.9v8.8h-2.7V9.3h2.5v2.8c1.3-2,3.8-3.1,6.5-3.1,4.9,0,8.5,3.9,8.5,9s-3.7,9-8.5,9ZM240.7,11.4c-3.1,0-6,2.1-6,6.5s2.8,6.5,6,6.5,6.1-2.8,6.1-6.5-2.6-6.5-6.1-6.5Z"/>
        <path class="cls-1" d="M255.9,18.8c.3,3.4,2.9,5.7,6.3,5.7s3.7-.8,5.3-2.3l1.6,1.8c-1.8,1.9-4.2,3-6.9,3-5.1,0-9.1-3.9-9.1-9s3.9-9,8.8-9,7.9,3.2,7.9,7.8,0,1.3-.2,2.1h-13.6ZM267,16.3c0-3.1-2.3-5-5.1-5s-5.2,2-5.8,5h10.9Z"/>
        <path class="cls-1" d="M283.7,11.7h-1c-2.9,0-5.4,1.9-5.4,5.1v9.8h-2.7V9.3h2.5v2.4c1.2-1.7,3.3-2.6,5.3-2.6s.8,0,1.3.1v2.4Z"/>
        <path class="cls-1" d="M288.8.7c1.1,0,2,.9,2,2s-.9,2-2,2-2.1-.8-2.1-2,.9-2,2.1-2ZM287.4,9.3h2.7v17.2h-2.7V9.3Z"/>
        <path class="cls-1" d="M297.7,18.8c.3,3.4,2.9,5.7,6.3,5.7s3.7-.8,5.3-2.3l1.6,1.8c-1.8,1.9-4.2,3-6.9,3-5.1,0-9.1-3.9-9.1-9s3.9-9,8.8-9,7.9,3.2,7.9,7.8,0,1.3-.2,2.1h-13.6ZM308.7,16.3c0-3.1-2.3-5-5.1-5s-5.2,2-5.8,5h10.9Z"/>
        <path class="cls-1" d="M330.5,26.5h-2.7v-10.5c0-2.7-1.6-4.6-4.3-4.6s-4.5,1.9-4.5,4.6v10.5h-2.7V9.3h2.5v1.8c1.3-1.4,3.1-2.2,5.3-2.2,4,0,6.4,2.7,6.4,6.8v10.8Z"/>
        <path class="cls-1" d="M344.1,8.9c3,0,5.6,1.5,7.1,3.8l-1.9,1.6c-1.4-1.9-3.1-2.8-5.1-2.8-3.6,0-6.3,2.9-6.3,6.5s2.7,6.5,6.3,6.5,3.7-.9,5.1-2.8l1.9,1.5c-1.6,2.3-4.1,3.8-7.1,3.8-5,0-9-4-9-9-.1-4.9,4.1-9.1,9-9Z"/>
        <path class="cls-1" d="M357.1,18.8c.3,3.4,2.9,5.7,6.3,5.7s3.7-.8,5.3-2.3l1.6,1.8c-1.8,1.9-4.2,3-6.9,3-5.1,0-9.1-3.9-9.1-9s3.9-9,8.8-9,7.9,3.2,7.9,7.8,0,1.3-.2,2.1h-13.6ZM368.1,16.3c0-3.1-2.3-5-5.1-5s-5.2,2-5.8,5h10.9Z"/>
        <path class="cls-1" d="M395,26.5c-1.1.2-2.1.4-2.9.4-3.6,0-5.8-1.8-5.8-5.6v-9.6h-2.9v-2.4h2.9v-4.7h2.7v4.7h5.4v2.4h-5.4v9.4c0,2.4,1.3,3.3,3.6,3.3s1.4,0,2.3-.2v2.3Z"/>
        <path class="cls-1" d="M406.5,8.9c4.9,0,9.1,4.1,9,9,.1,4.8-4.1,9.1-9.1,9-4.9.1-9.1-4.1-9-9-.1-4.9,4.1-9.1,9-9ZM406.5,11.4c-3.5,0-6.2,2.8-6.2,6.5s2.7,6.4,6.2,6.4,6.3-2.8,6.3-6.4-2.7-6.5-6.2-6.5Z"/>
        <path class="cls-1" d="M444.5,26.5h-2.7v-10.5c0-2.8-1.6-4.6-4.3-4.6s-4.5,1.9-4.5,4.6v10.5h-2.7V0h2.7v11.3c1.2-1.5,3-2.3,5.2-2.3,4,0,6.4,2.7,6.4,6.8v10.8Z"/>
        <path class="cls-1" d="M451.8,18.8c.3,3.4,2.9,5.7,6.3,5.7s3.7-.8,5.3-2.3l1.6,1.8c-1.8,1.9-4.2,3-6.9,3-5.1,0-9.1-3.9-9.1-9s3.9-9,8.8-9,7.9,3.2,7.9,7.8,0,1.3-.2,2.1h-13.6ZM462.9,16.3c0-3.1-2.3-5-5.1-5s-5.2,2-5.8,5h10.9Z"/>
        <path class="cls-1" d="M470.5,0h2.7v26.5h-2.7V0Z"/>
        <path class="cls-1" d="M488.2,26.9c-2.5,0-4.9-1.1-6.3-2.9v8.8h-2.7V9.3h2.5v2.8c1.3-2,3.8-3.1,6.5-3.1,4.9,0,8.5,3.9,8.5,9s-3.7,9-8.5,9ZM487.8,11.4c-3.1,0-6,2.1-6,6.5s2.8,6.5,6,6.5,6.1-2.8,6.1-6.5-2.6-6.5-6.1-6.5Z"/>
        <path class="cls-1" d="M526.6,9.3l-8.5,19.6c-1.3,3-3.2,4.4-5.8,4.4s-1.8-.1-2.7-.4v-2.3c.9.1,1.6.2,2.1.2,1.8,0,3-.7,3.9-2.8l.9-2.1-7.1-16.7h2.9l5.7,13.7,5.7-13.7h2.9Z"/>
        <path class="cls-1" d="M537.6,8.9c4.9,0,9.1,4.1,9,9,.1,4.8-4.1,9.1-9.1,9-4.9.1-9.1-4.1-9-9-.1-4.9,4.1-9.1,9-9ZM537.6,11.4c-3.5,0-6.2,2.8-6.2,6.5s2.7,6.4,6.2,6.4,6.3-2.8,6.3-6.4-2.7-6.5-6.2-6.5Z"/>
        <path class="cls-1" d="M551.2,9.3h2.7v10.5c0,2.8,1.9,4.6,4.5,4.6s4.4-1.8,4.4-4.6v-10.5h2.7v10.4c0,4.4-3.1,7.3-7.1,7.3s-7.1-2.9-7.1-7.3v-10.4Z"/>
        <path class="cls-1" d="M580.4,11.7h-1c-2.9,0-5.4,1.9-5.4,5.1v9.8h-2.7V9.3h2.5v2.4c1.2-1.7,3.3-2.6,5.3-2.6s.8,0,1.3.1v2.4Z"/>
        <path class="cls-1" d="M594.1,3.2h8.2c4.5,0,7.5,2.8,7.5,6.8s-2.9,6.8-7.5,6.8h-5.4v9.8h-2.8V3.2ZM602.3,14.3c3,0,4.7-1.7,4.7-4.3s-1.7-4.3-4.7-4.3h-5.4v8.6h5.4Z"/>
        <path class="cls-1" d="M614.4,3.2h15v2.5h-12.2v7.1h9.3v2.5h-9.3v8.8h12.6v2.5h-15.4V3.2Z"/>
        <path class="cls-1" d="M644.5,2.8c6.5-.1,12.3,5.4,12.1,12.1.1,6.7-5.6,12.2-12.1,12.1-6.6.1-12.2-5.5-12.1-12.1-.1-6.7,5.5-12.2,12.1-12.1ZM644.5,5.3c-5.3,0-9.3,4.1-9.3,9.5s4,9.6,9.3,9.6c5.1,0,9.3-4.2,9.2-9.6.1-5.3-4.1-9.6-9.2-9.5Z"/>
      </g>
    </g>
  </g>
</svg>