<?xml version="1.0" encoding="UTF-8"?>
<svg xmlns="http://www.w3.org/2000/svg" version="1.1" viewBox="0 0 278.8 25.5">
  <defs>
    <style>
      .cls-1 {
        fill: #ffbf3f;
      }
    </style>
  </defs>
  <!-- Generator: Adobe Illustrator 28.7.1, SVG Export Plug-In . SVG Version: 1.2.0 Build 142)  -->
  <g>
    <g id="Layer_1">
      <g>
        <path class="cls-1" d="M15.1,25.1l-6.4-8.7h-3.7v8.7H0V.5h9.3c5.2,0,8.9,3.2,8.9,7.9s-1.6,5.7-4.3,7l7,9.7h-5.7ZM5,11.9h4.2c2.4,0,3.7-1.4,3.7-3.5s-1.5-3.5-3.7-3.5h-4.2v7.1Z"/>
        <path class="cls-1" d="M22.9.5h5v14.8c0,3.6,2.2,5.6,5.4,5.6s5.4-2,5.4-5.6V.5h5v14.4c0,6.5-4.5,10.6-10.5,10.6s-10.5-4.1-10.5-10.6V.5Z"/>
        <path class="cls-1" d="M70.2.5v25.1h-1.7l-14.3-15.2v14.8h-5V0h1.6l14.3,15.2V.5h5Z"/>
        <path class="cls-1" d="M88.1,17.5c1.6,2.2,3.4,3.6,6,3.6s3.5-1,3.5-2.7-.8-2-3.1-3.1l-2.7-1.2c-3.8-1.7-6-3.8-6-7.1S89.4,0,94.1,0s6.6,1.8,8.1,4.7l-3.4,2.6c-1.3-1.9-2.8-2.8-4.7-2.8s-3.1.9-3.1,2.4.8,1.9,2.9,2.8l2.8,1.2c4.1,1.8,6.1,3.9,6.1,7.2s-3.7,7.4-8.6,7.4-7.6-2.1-9.5-5.4l3.5-2.6Z"/>
        <path class="cls-1" d="M131.3,0v25.1h-5v-13.1l-6.2,7.8h-1.6l-6.2-7.8v13.1h-5V0h1.6l10.4,13.3L129.7,0h1.6Z"/>
        <path class="cls-1" d="M148.6,0c7.1-.1,13.2,5.7,13.1,12.8.1,7.1-6,12.9-13.1,12.8-7.1.1-13.2-5.7-13.1-12.8-.1-7.1,6-12.9,13.1-12.8ZM148.7,4.7c-4.6,0-7.9,3.4-7.9,8.1s3.4,8.1,7.9,8.1,7.9-3.4,7.9-8.1-3.4-8.1-7.9-8.1Z"/>
        <path class="cls-1" d="M177.7,0c7.1-.1,13.2,5.7,13.1,12.8.1,7.1-6,12.9-13.1,12.8-7.1.1-13.2-5.7-13.1-12.8-.1-7.1,6-12.9,13.1-12.8ZM177.7,4.7c-4.6,0-7.9,3.4-7.9,8.1s3.4,8.1,7.9,8.1,7.9-3.4,7.9-8.1-3.4-8.1-7.9-8.1Z"/>
        <path class="cls-1" d="M200.1,5h-7.9V.5h20.8v4.6h-7.9v20.1h-5V5Z"/>
        <path class="cls-1" d="M216.4.5h5v9.4h10.9V.5h5v24.6h-5v-10.6h-10.9v10.6h-5V.5Z"/>
        <path class="cls-1" d="M243,.5h5v20.1h10.8v4.6h-15.8V.5Z"/>
        <path class="cls-1" d="M270.4,15.4v9.7h-5v-9.7l-8.5-15h5.6l5.4,9.8,5.4-9.8h5.6l-8.5,14.9Z"/>
      </g>
    </g>
  </g>
</svg>