<?xml version="1.0" encoding="UTF-8"?>
<svg xmlns="http://www.w3.org/2000/svg" version="1.1" viewBox="0 0 442.2 27.9">
  <defs>
    <style>
      .cls-1 {
        fill: #ffbf3f;
      }
    </style>
  </defs>
  <!-- Generator: Adobe Illustrator 28.7.1, SVG Export Plug-In . SVG Version: 1.2.0 Build 142)  -->
  <g>
    <g id="Layer_1">
      <g>
        <path class="cls-1" d="M14.3,0C19.4,0,23.8,2.5,26.2,6.7l-4.2,2.9c-1.9-3-4.5-4.5-7.7-4.5-5,0-8.7,3.7-8.7,8.9s3.7,8.8,8.7,8.8,5.8-1.5,7.7-4.5l4.2,2.9c-2.3,4.2-6.7,6.7-11.9,6.7C6.4,28-.2,21.6,0,13.9-.1,6.2,6.5-.2,14.3,0Z"/>
        <path class="cls-1" d="M30.6.5h5.5v16.2c0,3.9,2.4,6.1,5.9,6.1s5.9-2.2,5.9-6.1V.5h5.5v15.8c0,7.1-4.9,11.6-11.4,11.6s-11.4-4.5-11.4-11.6V.5Z"/>
        <path class="cls-1" d="M61.1,19.1c1.8,2.4,3.7,3.9,6.6,3.9s3.8-1.1,3.8-3-.9-2.2-3.4-3.3l-2.9-1.3c-4.1-1.8-6.5-4.2-6.5-7.7S62.5,0,67.6,0s7.2,2,8.9,5.1l-3.7,2.9c-1.4-2.1-3.1-3.1-5.1-3.1s-3.3.9-3.3,2.6.9,2.1,3.1,3.1l3.1,1.3c4.5,2,6.6,4.2,6.6,7.9s-4,8.1-9.4,8.1-8.3-2.3-10.4-5.9l3.8-2.8Z"/>
        <path class="cls-1" d="M88,5.5h-8.6V.5h22.7v5h-8.6v21.9h-5.5V5.5Z"/>
        <path class="cls-1" d="M117.9,0c7.7-.2,14.5,6.2,14.3,13.9.1,7.7-6.6,14.1-14.3,13.9-7.7.2-14.4-6.2-14.2-13.9C103.5,6.2,110.2-.2,117.9,0ZM117.9,5.1c-5,0-8.6,3.7-8.6,8.8s3.7,8.8,8.6,8.8,8.6-3.7,8.6-8.8-3.7-8.8-8.6-8.8Z"/>
        <path class="cls-1" d="M163.2,0v27.4h-5.5v-14.3l-6.8,8.5h-1.8l-6.8-8.5v14.3h-5.5V0h1.8l11.4,14.5L161.4,0h1.8Z"/>
        <path class="cls-1" d="M169.4.5h5.5v26.9h-5.5V.5Z"/>
        <path class="cls-1" d="M200.7,22.4v5h-22v-1.5l13.5-20.4h-11.7V.5h20.2v1.5l-13.5,20.4h13.5Z"/>
        <path class="cls-1" d="M204.9.5h18.1v5h-12.6v5.5h9.2v4.7h-9.2v6.8h13.1v5h-18.6V.5Z"/>
        <path class="cls-1" d="M228.3.5h8.8c8.5,0,14.8,5.4,14.7,13.4.1,7.8-6.1,13.6-14.7,13.5h-8.8V.5ZM237,22.4c5.4,0,9-3.4,9-8.5s-3.5-8.4-9-8.4h-3.3v16.9h3.3Z"/>
        <path class="cls-1" d="M279.7,27.4h-12V.5h9.5c5,0,8.5,3.1,8.5,7.5s-.7,3.6-2,4.8c3,1.1,4.8,3.4,4.8,6.6,0,4.6-3.7,7.9-8.8,7.9ZM273.1,5.2v6.1h3.8c2.2,0,3.5-1.2,3.5-3.1s-1.3-3.1-3.5-3.1h-3.8ZM279.3,15.9h-6.3v6.8h6.3c2.4,0,3.8-1.3,3.8-3.4s-1.4-3.4-3.8-3.4Z"/>
        <path class="cls-1" d="M308.5,23.9h-11l-1.5,3.5h-5.9L302.1,0h1.8l12,27.4h-5.9l-1.5-3.5ZM303,10.3l-3.6,9.1h7.2l-3.6-9.1Z"/>
        <path class="cls-1" d="M342.4.5v27.4h-1.8l-15.6-16.6v16.1h-5.5V0h1.8l15.6,16.5V.5h5.5Z"/>
        <path class="cls-1" d="M365.6,27.4l-11.5-14v14h-5.5V.5h5.5v12.5l10.3-12.5h6.6l-10.3,12.7,11.6,14.2h-6.6Z"/>
        <path class="cls-1" d="M375.9.5h5.5v26.9h-5.5V.5Z"/>
        <path class="cls-1" d="M410.4.5v27.4h-1.8l-15.6-16.6v16.1h-5.5V0h1.8l15.6,16.5V.5h5.5Z"/>
        <path class="cls-1" d="M429.3,0c4.7,0,8.7,2.1,11.3,5.8l-3.9,3.2c-1.9-2.6-4.4-3.9-7.5-3.9-5.1,0-8.6,3.7-8.6,8.8s3.6,9,9,9,5.6-1.3,7.1-3.3v-2.2h-7.4v-4.8h12.9v7.9c-1.2,2.2-3,3.9-5.3,5.3-2.2,1.3-4.8,2-7.6,2-7.9.2-14.5-6.2-14.4-13.9-.2-7.7,6.4-14,14.4-13.9Z"/>
      </g>
    </g>
  </g>
</svg>