<?xml version="1.0" encoding="UTF-8"?>
<svg xmlns="http://www.w3.org/2000/svg" version="1.1" viewBox="0 0 633.7 27.8">
  <defs>
    <style>
      .cls-1 {
        fill: #ffbf3f;
      }
    </style>
  </defs>
  <!-- Generator: Adobe Illustrator 28.7.1, SVG Export Plug-In . SVG Version: 1.2.0 Build 142)  -->
  <g>
    <g id="Layer_1">
      <g>
        <path class="cls-1" d="M0,.4h9.4c5.2,0,8.6,3.3,8.6,7.8s-3.4,7.9-8.6,7.9H3.2v11.2H0V.4ZM9.4,13.2c3.4,0,5.4-2,5.4-5s-2-5-5.4-5H3.2v9.9h6.2Z"/>
        <path class="cls-1" d="M36.4,21.9h-13.2l-2.3,5.5h-3.3L29.3,0h1.2l11.6,27.3h-3.4l-2.3-5.5ZM29.8,5.8l-5.4,13.2h10.7l-5.4-13.2Z"/>
        <path class="cls-1" d="M64.3,27.3l-8.3-11.3h-5.7v11.3h-3.2V.4h9.4c5.2,0,8.6,3.3,8.6,7.8s-2.1,6.4-5.7,7.5l8.6,11.6h-3.7ZM50.2,13.2h6.1c3.5,0,5.4-2,5.4-4.9s-2-5-5.4-5h-6.1v9.9Z"/>
        <path class="cls-1" d="M77.9,3.3h-9.4V.4h22.1v2.9h-9.5v24h-3.2V3.3Z"/>
        <path class="cls-1" d="M116.4.4v27.3h-1.1l-17.1-20.6v20.2h-3.2V0h1.1l17.1,20.6V.4h3.2Z"/>
        <path class="cls-1" d="M123.8.4h17.2v2.9h-14v8.2h10.7v2.9h-10.7v10.1h14.5v2.8h-17.7V.4Z"/>
        <path class="cls-1" d="M164.1,27.3l-8.3-11.3h-5.7v11.3h-3.2V.4h9.4c5.2,0,8.6,3.3,8.6,7.8s-2.1,6.4-5.7,7.5l8.6,11.6h-3.7ZM150.1,13.2h6.1c3.5,0,5.4-2,5.4-4.9s-2-5-5.4-5h-6.1v9.9Z"/>
        <path class="cls-1" d="M219.4.4l-10.2,27.3h-1.1l-8.5-21.3-8.5,21.3h-1.1L179.7.4h3.5l7.4,20.5L199,0h1.1l8.4,20.9L215.9.4h3.5Z"/>
        <path class="cls-1" d="M225,.4h3.2v26.9h-3.2V.4Z"/>
        <path class="cls-1" d="M242,3.3h-9.4V.4h22.1v2.9h-9.5v24h-3.2V3.3Z"/>
        <path class="cls-1" d="M259.2.4h3.2v11.1h15.1V.4h3.2v26.9h-3.2v-12.9h-15.1v12.9h-3.2V.4Z"/>
        <path class="cls-1" d="M299.7,20.2c2,3.1,4.5,4.6,7.5,4.6s5.4-1.8,5.4-4.5-1.5-3.3-4.5-4.7l-3-1.4c-3.7-1.8-6.1-3.6-6.1-7.2S302.8,0,307.2,0s6.7,1.8,8.4,4.6l-2.3,1.8c-1.5-2.2-3.7-3.4-6.1-3.4s-4.8,1.4-4.8,3.9.2,1.4.5,2c.7,1,1.7,1.5,3.8,2.6l3,1.4c4.2,2.1,6.3,4,6.3,7.5s-3.7,7.5-8.7,7.5-7.8-2.2-9.9-5.8l2.4-1.8Z"/>
        <path class="cls-1" d="M334.3,0c7.5-.1,14.1,6.2,14,13.9.2,7.7-6.4,14-14,13.9-7.6.2-14.1-6.3-13.9-13.9-.2-7.7,6.3-14,13.9-13.9ZM334.3,2.9c-6.1,0-10.7,4.7-10.7,10.9s4.6,11,10.7,11c5.9,0,10.7-4.8,10.6-11,.1-6.1-4.7-11-10.6-10.9Z"/>
        <path class="cls-1" d="M353.5.4h3.2v16.4c0,5.2,3.1,8,7.5,8s7.5-2.8,7.5-8V.4h3.2v16.2c0,7-4.5,11.1-10.6,11.1s-10.7-4.1-10.7-11.1V.4Z"/>
        <path class="cls-1" d="M388.5,3.3h-9.4V.4h22.1v2.9h-9.5v24h-3.2V3.3Z"/>
        <path class="cls-1" d="M405.6.4h3.2v11.1h15.1V.4h3.2v26.9h-3.2v-12.9h-15.1v12.9h-3.2V.4Z"/>
        <path class="cls-1" d="M434.8,20.2c2,3.1,4.5,4.6,7.5,4.6s5.4-1.8,5.4-4.5-1.5-3.3-4.5-4.7l-3-1.4c-3.7-1.8-6.1-3.6-6.1-7.2S437.8,0,442.2,0s6.7,1.8,8.4,4.6l-2.3,1.8c-1.5-2.2-3.7-3.4-6.1-3.4s-4.8,1.4-4.8,3.9.2,1.4.5,2c.7,1,1.7,1.5,3.8,2.6l3,1.4c4.2,2.1,6.3,4,6.3,7.5s-3.7,7.5-8.7,7.5-7.8-2.2-9.9-5.8l2.4-1.8Z"/>
        <path class="cls-1" d="M463.7,3.3h-9.4V.4h22.1v2.9h-9.5v24h-3.2V3.3Z"/>
        <path class="cls-1" d="M494.1,21.9h-13.2l-2.3,5.5h-3.3L487,0h1.2l11.6,27.3h-3.4l-2.3-5.5ZM487.5,5.8l-5.4,13.2h10.7l-5.4-13.2Z"/>
        <path class="cls-1" d="M508.2,3.3h-9.4V.4h22.1v2.9h-9.5v24h-3.2V3.3Z"/>
        <path class="cls-1" d="M525.3.4h17.2v2.9h-14v8.2h10.7v2.9h-10.7v10.1h14.5v2.8h-17.7V.4Z"/>
        <path class="cls-1" d="M559.8.4h16.8v2.9h-13.6v9.2h11.3v2.9h-11.3v11.9h-3.2V.4Z"/>
        <path class="cls-1" d="M593.1,0c7.5-.1,14.1,6.2,14,13.9.2,7.7-6.4,14-14,13.9-7.6.2-14.1-6.3-13.9-13.9-.2-7.7,6.3-14,13.9-13.9ZM593.1,2.9c-6.1,0-10.7,4.7-10.7,10.9s4.6,11,10.7,11c5.9,0,10.7-4.8,10.6-11,.1-6.1-4.7-11-10.6-10.9Z"/>
        <path class="cls-1" d="M630,27.3l-8.3-11.3h-5.7v11.3h-3.2V.4h9.4c5.2,0,8.6,3.3,8.6,7.8s-2.1,6.4-5.7,7.5l8.6,11.6h-3.7ZM615.9,13.2h6.1c3.5,0,5.4-2,5.4-4.9s-2-5-5.4-5h-6.1v9.9Z"/>
      </g>
    </g>
  </g>
</svg>