<?xml version="1.0" encoding="UTF-8"?>
<svg xmlns="http://www.w3.org/2000/svg" version="1.1" viewBox="0 0 504.6 30.3">
  <defs>
    <style>
      .cls-1 {
        fill: #fff;
      }
    </style>
  </defs>
  <!-- Generator: Adobe Illustrator 28.7.1, SVG Export Plug-In . SVG Version: 1.2.0 Build 142)  -->
  <g>
    <g id="Layer_1">
      <g>
        <path class="cls-1" d="M13.6,3.1c4.7,0,8.7,2.2,10.9,5.6l-2.3,1.8c-2-2.9-4.9-4.6-8.5-4.6-5.9,0-10.5,4.6-10.5,10.7s4.5,10.7,10.5,10.7,6.5-1.7,8.5-4.6l2.3,1.8c-2.2,3.5-6.2,5.6-10.9,5.6C6.2,30.4-.2,24.2,0,16.7-.2,9.2,6.2,3,13.6,3.1Z"/>
        <path class="cls-1" d="M38.3,10c5.5,0,10.3,4.6,10.1,10.1.1,5.4-4.7,10.2-10.2,10.1-5.5.1-10.2-4.7-10.1-10.1-.1-5.5,4.6-10.2,10.1-10.1ZM38.3,12.8c-4,0-7,3.1-7,7.3s3,7.2,7,7.2,7-3.2,7-7.2-3.1-7.3-7-7.3Z"/>
        <path class="cls-1" d="M82,29.8h-3.1v-11.8c0-3.1-1.7-5.2-4.6-5.2s-5,2.2-5,4.9v12h-3.1v-11.8c0-3.1-1.8-5.2-4.6-5.2s-4.9,2.1-4.9,5.2v11.8h-3.1V10.5h2.9v2c1.4-1.6,3.4-2.5,5.8-2.5s4.9,1.2,6,3.3c1.4-2,3.8-3.3,6.6-3.3,4.5,0,7,3,7,7.6v12.2Z"/>
        <path class="cls-1" d="M90.3,21.1c.4,3.8,3.3,6.4,7.1,6.4s4.2-.9,5.9-2.6l1.8,2.1c-2,2.1-4.7,3.4-7.8,3.4-5.8,0-10.3-4.4-10.3-10.1s4.4-10.1,9.9-10.1,8.8,3.6,8.8,8.7,0,1.5-.2,2.3h-15.3ZM102.7,18.4c0-3.5-2.5-5.6-5.8-5.6s-5.8,2.2-6.5,5.6h12.3Z"/>
        <path class="cls-1" d="M138.2,10.5l-9.1,19.8h-1.1l-9.1-19.8h3.3l6.4,14.6,6.4-14.6h3.3Z"/>
        <path class="cls-1" d="M144.1.8c1.2,0,2.3,1,2.3,2.2s-1,2.2-2.3,2.2-2.3-1-2.3-2.2,1-2.2,2.3-2.2ZM142.6,10.5h3.1v19.4h-3.1V10.5Z"/>
        <path class="cls-1" d="M152.5,24.5c1.9,1.9,3.4,3,5.6,3s3.7-1,3.7-2.7-1-2.1-3.4-3.1l-1.9-.8c-3.2-1.3-4.8-2.8-4.8-5.4s2.8-5.4,6.5-5.4,4.9,1.2,6.5,3.1l-1.9,1.9c-1.3-1.3-3-2.1-4.8-2.1s-3.2.9-3.2,2.4.8,1.8,3.1,2.8l1.8.8c3.6,1.6,5.1,3.1,5.1,5.7s-.7,3.2-2,4.2c-1.3,1-2.9,1.5-4.8,1.5-3.2,0-5.8-1.6-7.6-3.8l1.9-2Z"/>
        <path class="cls-1" d="M172,.8c1.2,0,2.3,1,2.3,2.2s-1,2.2-2.3,2.2-2.3-1-2.3-2.2,1-2.2,2.3-2.2ZM170.4,10.5h3.1v19.4h-3.1V10.5Z"/>
        <path class="cls-1" d="M190.8,29.8c-1.2.3-2.3.4-3.2.4-4,0-6.5-2-6.5-6.3v-10.8h-3.3v-2.7h3.3v-5.3h3.1v5.3h6v2.7h-6v10.6c0,2.7,1.4,3.7,4.1,3.7s1.6,0,2.6-.2v2.6Z"/>
        <path class="cls-1" d="M206.3,10.5h3v11.8c0,3.1,2.1,5.1,5,5.1s4.9-2.1,4.9-5.1v-11.8h3.1v11.7c0,4.9-3.5,8.2-8,8.2s-8-3.3-8-8.2v-11.7Z"/>
        <path class="cls-1" d="M228.9,24.5c1.9,1.9,3.4,3,5.6,3s3.7-1,3.7-2.7-1-2.1-3.4-3.1l-1.9-.8c-3.2-1.3-4.8-2.8-4.8-5.4s2.8-5.4,6.5-5.4,4.9,1.2,6.5,3.1l-1.9,1.9c-1.3-1.3-3-2.1-4.8-2.1s-3.2.9-3.2,2.4.8,1.8,3.1,2.8l1.8.8c3.6,1.6,5.1,3.1,5.1,5.7s-.7,3.2-2,4.2c-1.3,1-2.9,1.5-4.8,1.5-3.2,0-5.8-1.6-7.6-3.8l1.9-2Z"/>
        <path class="cls-1" d="M272.5,29.8h-2.9v-2.5c-1.4,1.9-3.7,2.9-6.5,2.9s-6.8-2.1-6.8-5.4,2.8-5.4,7-5.4h6.1v-1.7c0-3.2-1.8-4.9-4.7-4.9s-4.1,1-5.6,3.1l-2-1.7c1.7-2.9,4.7-4.3,7.9-4.3,4.6,0,7.6,2.8,7.6,7.9v11.9ZM269.4,21.9h-5.8c-2.7,0-4.2,1-4.2,2.7s1.7,3.1,4,3.1,5.9-2.3,5.9-5.3v-.5Z"/>
        <path class="cls-1" d="M289.5,29.8c-1.2.3-2.3.4-3.2.4-4,0-6.5-2-6.5-6.3v-10.8h-3.3v-2.7h3.3v-5.3h3.1v5.3h6v2.7h-6v10.6c0,2.7,1.4,3.7,4.1,3.7s1.6,0,2.6-.2v2.6Z"/>
        <path class="cls-1" d="M315.4,30.3c-3,0-5.9-1.3-7.4-3.5v3.1h-2.9V0h3.1v13.3c1.6-2,4.2-3.3,7.1-3.3,5.4,0,9.6,4.5,9.6,10.1s-4.1,10.1-9.5,10.1ZM315,12.8c-3.6,0-6.7,2.4-6.7,7.3s3.3,7.3,6.7,7.3,6.9-3.1,6.9-7.3-2.9-7.3-6.9-7.3Z"/>
        <path class="cls-1" d="M339.1,10c5.5,0,10.3,4.6,10.1,10.1.1,5.4-4.7,10.2-10.2,10.1-5.5.1-10.2-4.7-10.1-10.1-.1-5.5,4.6-10.2,10.1-10.1ZM339.1,12.8c-4,0-7,3.1-7,7.3s3,7.2,7,7.2,7-3.2,7-7.2-3.1-7.3-7-7.3Z"/>
        <path class="cls-1" d="M363.4,10c5.5,0,10.3,4.6,10.1,10.1.1,5.4-4.7,10.2-10.2,10.1-5.5.1-10.2-4.7-10.1-10.1-.1-5.5,4.6-10.2,10.1-10.1ZM363.4,12.8c-4,0-7,3.1-7,7.3s3,7.2,7,7.2,7-3.2,7-7.2-3.1-7.3-7-7.3Z"/>
        <path class="cls-1" d="M389.4,29.8c-1.2.3-2.3.4-3.2.4-4,0-6.5-2-6.5-6.3v-10.8h-3.3v-2.7h3.3v-5.3h3.1v5.3h6v2.7h-6v10.6c0,2.7,1.4,3.7,4.1,3.7s1.6,0,2.6-.2v2.6Z"/>
        <path class="cls-1" d="M410,29.8h-3.1v-11.8c0-3.1-1.8-5.2-4.8-5.2s-5.1,2.2-5.1,5.2v11.8h-3.1V0h3.1v12.6c1.3-1.6,3.4-2.6,5.8-2.6,4.5,0,7.2,3.1,7.2,7.6v12.2Z"/>
        <path class="cls-1" d="M443,13.1l-1,7.2h3.9v2.6h-4.3l-1,6.9h-2.6l.9-6.9h-7.6l-1,6.9h-2.6l.9-6.9h-3.5v-2.6h3.9l1-7.2h-3.9v-2.6h4.2l.9-6.9h2.7l-1,6.9h7.6l.9-6.9h2.7l-1,6.9h3.5v2.6h-3.9ZM439.5,20.3l1-7.2h-7.6l-1,7.2h7.6Z"/>
        <path class="cls-1" d="M468.1,27v2.8h-18.3v-.8l9.3-9.9c3.2-3.3,4.6-5.3,4.6-7.8s-2-5.2-5-5.2-2.9.5-3.8,1.6c-1,1.1-1.4,2.3-1.4,3.8s0,1.5.2,2.2h-3.2c-.2-.7-.3-1.5-.3-2.3,0-4.2,3.3-8.2,8.5-8.2s8.3,3.5,8.3,8-.2,2.4-.8,3.5c-1,2.2-2.3,3.8-4.7,6.3l-5.8,6.1h12.4Z"/>
        <path class="cls-1" d="M481.1,3.6v26.2h-3.1V7.2l-5.7,1.8-.8-2.7,8.4-2.8h1.2Z"/>
        <path class="cls-1" d="M495.3,30.3c-4,0-7.2-2.3-8.9-5.4l2.2-1.6c1.7,2.5,3.7,4.1,6.7,4.1s6.1-2.3,6.1-5.8-2.4-5.4-6.6-5.4h-2.6v-.9l6.9-8.8h-10.9v-2.9h15.7v.9l-7,8.9c4,.4,7.6,3.2,7.6,8.1s-4.3,8.7-9.3,8.7Z"/>
      </g>
    </g>
  </g>
</svg>