<?xml version="1.0" encoding="UTF-8"?>
<svg id="Layer_1" data-name="Layer 1" xmlns="http://www.w3.org/2000/svg" xmlns:xlink="http://www.w3.org/1999/xlink" version="1.1" viewBox="0 0 190 42.8">
  <defs>
    <style>
      .cls-1 {
        clip-path: url(#clippath);
      }

      .cls-2 {
        fill: none;
      }

      .cls-2, .cls-3, .cls-4 {
        stroke-width: 0px;
      }

      .cls-3 {
        fill: #002d72;
      }

      .cls-4 {
        fill: #ffbf3f;
      }
    </style>
    <clipPath id="clippath">
      <rect class="cls-2" width="190" height="42.8"/>
    </clipPath>
  </defs>
  <g class="cls-1">
    <path class="cls-4" d="M6.6,0C2.9,0,0,2.9,0,6.5v29.8c0,3.6,2.9,6.5,6.6,6.5h176.9c3.6,0,6.6-2.9,6.6-6.5V6.5c-.1-3.6-3-6.5-6.6-6.5H6.6Z"/>
  </g>
  <g>
    <path class="cls-3" d="M34.1,13.5c3,0,5.5,1.3,7.2,3.6l-2,1.7c-1.3-1.8-3-2.7-5.2-2.7-3.7,0-6.2,2.7-6.2,6.4s2.7,6.5,6.4,6.5,4.1-1,5.2-2.6v-1.9h-5.3v-2.5h8.1v4.9c-1.5,2.8-4.6,4.6-8.1,4.6-5.1,0-9.2-4-9.1-9-.1-5,4.1-9,9.1-9Z"/>
    <path class="cls-3" d="M47.5,25.6c.3,2.1,2,3.4,4.2,3.4s2.6-.5,3.8-1.5l1.3,1.9c-1.5,1.4-3.2,2.1-5.2,2.1-3.9,0-6.9-2.9-6.9-6.7,0-3.7,3-6.8,6.7-6.8,3.4,0,6,2.5,6,5.9s0,1.1-.2,1.7h-9.6ZM54.5,23.4c0-2-1.5-3.2-3.3-3.2s-3.3,1.2-3.7,3.2h7Z"/>
    <path class="cls-3" d="M68.1,31.1c-.9.2-1.6.3-2.3.3-3,0-4.8-1.5-4.8-4.5v-6.3h-2.1v-2.4h2.1v-3.4h2.8v3.4h3.8v2.4h-3.8v6.1c0,1.7.9,2.2,2.5,2.2s.9,0,1.7-.1v2.3Z"/>
    <path class="cls-3" d="M79.2,26.1c1.2,1.7,2.5,2.8,4.5,2.8s3-.9,3-2.4-.7-1.8-2.5-2.6l-1.9-.9c-2.5-1.2-4-2.5-4-4.8s2.5-4.7,5.5-4.7,4.5,1.2,5.6,3.1l-1.9,1.5c-.9-1.4-2.2-2.1-3.7-2.1s-2.6.7-2.6,2.1c.1,1.4.7,1.6,2.4,2.5l1.9.9c2.8,1.3,4.2,2.7,4.2,4.9s-2.5,5-5.8,5-5.2-1.4-6.5-3.8l2-1.5Z"/>
    <path class="cls-3" d="M100.5,31.1c-.9.2-1.6.3-2.3.3-3,0-4.8-1.5-4.8-4.5v-6.3h-2.1v-2.4h2.1v-3.4h2.8v3.4h3.8v2.4h-3.8v6.1c0,1.7.9,2.2,2.5,2.2s.9,0,1.7-.1v2.3Z"/>
    <path class="cls-3" d="M113.5,31.1h-2.6v-1.4c-.9,1.1-2.4,1.7-4.1,1.7-2.7,0-4.5-1.5-4.5-3.7s1.8-3.7,4.8-3.7h3.7v-.8c0-1.8-1-2.8-2.8-2.8s-2.5.6-3.6,1.9l-1.6-1.6c1.3-1.9,3.2-2.8,5.4-2.8,3.2,0,5.3,1.9,5.3,5.4v7.8ZM110.8,26h-3.3c-1.5,0-2.3.5-2.3,1.6s.9,1.7,2.3,1.7,3.3-1.3,3.3-3v-.2Z"/>
    <path class="cls-3" d="M124.8,20.6h-.8c-2.2,0-3.8,1.3-3.8,3.6v6.9h-2.8v-12.9h2.6v1.7c.9-1.2,2.3-1.8,3.8-1.8s.7,0,1.1.1v2.4Z"/>
    <path class="cls-3" d="M134.9,31.1c-.9.2-1.6.3-2.3.3-3,0-4.8-1.5-4.8-4.5v-6.3h-2.1v-2.4h2.1v-3.4h2.8v3.4h3.8v2.4h-3.8v6.1c0,1.7.9,2.2,2.5,2.2s.9,0,1.7-.1v2.3Z"/>
    <path class="cls-3" d="M139.4,25.6c.3,2.1,2,3.4,4.2,3.4s2.6-.5,3.8-1.5l1.3,1.9c-1.5,1.4-3.2,2.1-5.2,2.1-3.9,0-6.9-2.9-6.9-6.7,0-3.7,3-6.8,6.7-6.8,3.4,0,6,2.5,6,5.9s0,1.1-.2,1.7h-9.6ZM146.5,23.4c0-2-1.5-3.2-3.3-3.2s-3.3,1.2-3.7,3.2h7Z"/>
    <path class="cls-3" d="M165,11.4v19.7h-2.6v-1.8c-.9,1.3-2.6,2.1-4.5,2.1-3.6,0-6.3-2.9-6.3-6.7,0-3.8,2.7-6.8,6.3-6.8,1.8,0,3.3.7,4.3,1.9v-8.4h2.8ZM158.4,20.4c-2.2,0-4,1.7-4,4.2s1.7,4.2,4,4.2,3.9-1.4,3.9-4.2-1.9-4.2-3.9-4.2Z"/>
  </g>
</svg>