<?xml version="1.0" encoding="UTF-8"?>
<svg id="Layer_1" data-name="Layer 1" xmlns="http://www.w3.org/2000/svg" version="1.1" viewBox="0 0 145.7 46.8">
  <defs>
    <style>
      .cls-1 {
        fill: #ffbf3f;
        stroke-width: 0px;
      }
    </style>
  </defs>
  <path class="cls-1" d="M22.6,46c-2,.5-3.9.7-5.7.7-7.7,0-12.2-3.8-12.2-11.4v-12.7H0v-7h4.8v-7.7h8.3v7.7h8.6v7h-8.6v12c0,3.4,1.7,4.7,5.6,4.7s1.8,0,3.9-.2v6.9Z"/>
  <path class="cls-1" d="M54.1,46h-7.6v-2.9c-2.2,2.3-5.4,3.7-9.3,3.7-6.4,0-10.5-3.7-10.5-9.1s4.4-8.8,11.5-8.8h7.6v-1.4c0-3.4-2-5.3-5.6-5.3s-5.3,1.3-8,4.2l-4.3-5.1c3.5-4.2,7.9-6.3,13.3-6.3,7.9,0,13,4.6,13,13v18ZM45.8,34.3h-6.5c-2.7,0-4.2,1-4.2,3.1s1.7,3.3,4.4,3.3,6.4-2.5,6.4-6v-.4Z"/>
  <path class="cls-1" d="M79.5,46.8c-4.2,0-7.6-1.6-9.8-4.5v3.7h-7.6V0h8.3v18.6c2.2-2.4,5.2-3.6,9.1-3.6,8.5,0,14.7,6.8,14.7,15.9s-6.3,15.9-14.7,15.9ZM77.9,22.5c-4.2,0-7.7,3-7.7,8.4s3.5,8.3,7.7,8.3,7.9-3.3,7.9-8.4-3.4-8.3-7.9-8.3Z"/>
  <path class="cls-1" d="M100.7,0h8.3v46h-8.3V0Z"/>
  <path class="cls-1" d="M123.8,33.6c1,3.9,4.1,6,8.5,6s5.8-1,8.5-3.1l3.4,5.6c-3.6,3-7.7,4.5-12.2,4.5-9.4.2-16.8-7.1-16.6-15.9-.2-8.8,7.1-16.1,15.9-15.9,8.4,0,14.3,6.2,14.3,14.1s-.2,3-.6,4.5h-21.3ZM137.6,27.8c0-3.7-2.9-6.1-6.6-6.1s-6.3,2.4-7.2,6.1h13.8Z"/>
</svg>