<?xml version="1.0" encoding="UTF-8"?>
<svg id="Layer_1" data-name="Layer 1" xmlns="http://www.w3.org/2000/svg" version="1.1" viewBox="0 0 172.4 46.8">
  <defs>
    <style>
      .cls-1 {
        fill: #ffbf3f;
        stroke-width: 0px;
      }
    </style>
  </defs>
  <path class="cls-1" d="M22.6,46c-2,.5-3.9.7-5.7.7-7.7,0-12.2-3.8-12.2-11.4v-12.7H0v-7h4.8v-7.7h8.3v7.7h8.6v7h-8.6v12c0,3.4,1.7,4.7,5.6,4.7s1.8,0,3.9-.2v6.9Z"/>
  <path class="cls-1" d="M42.6,15c8.9-.1,16.5,7.2,16.3,15.8.2,8.7-7.5,16.1-16.4,15.9-8.9.2-16.4-7.2-16.2-15.9-.2-8.7,7.4-16,16.3-15.8ZM42.6,22.5c-4.6,0-7.9,3.5-7.9,8.3s3.3,8.2,7.9,8.2,7.9-3.5,7.9-8.2-3.4-8.3-7.9-8.3Z"/>
  <path class="cls-1" d="M102.1,46c-2,.5-3.9.7-5.7.7-7.7,0-12.2-3.8-12.2-11.4v-12.7h-4.8v-7h4.8v-7.7h8.3v7.7h8.6v7h-8.6v12c0,3.4,1.7,4.7,5.6,4.7s1.8,0,3.9-.2v6.9Z"/>
  <path class="cls-1" d="M136,46h-8.2v-17.7c0-3.5-2.3-5.9-5.6-5.9s-5.8,2.4-5.8,5.9v17.7h-8.3V0h8.3v18.2c2-2,5-3.3,8.3-3.3,6.9,0,11.3,4.8,11.3,12.2v18.8Z"/>
  <path class="cls-1" d="M150.6,33.6c1,3.9,4.1,6,8.5,6s5.8-1,8.5-3.1l3.4,5.6c-3.6,3-7.7,4.5-12.2,4.5-9.4.2-16.8-7.1-16.6-15.9-.2-8.8,7.1-16.1,15.9-15.9,8.4,0,14.3,6.2,14.3,14.1s-.2,3-.6,4.5h-21.3ZM164.4,27.8c0-3.7-2.9-6.1-6.6-6.1s-6.3,2.4-7.2,6.1h13.8Z"/>
</svg>