<?xml version="1.0" encoding="UTF-8"?>
<svg id="Layer_1" data-name="Layer 1" xmlns="http://www.w3.org/2000/svg" version="1.1" viewBox="0 0 144.3 58.4">
  <defs>
    <style>
      .cls-1 {
        fill: #ffbf3f;
        stroke-width: 0px;
      }
    </style>
  </defs>
  <path class="cls-1" d="M18,46.6H0V6.1h14.4c7.5,0,12.8,4.7,12.8,11.3s-1,5.4-3,7.3c4.5,1.7,7.2,5.1,7.2,10,0,7-5.5,11.9-13.3,11.9ZM8,13.2v9.3h5.7c3.4,0,5.3-1.8,5.3-4.7s-1.9-4.6-5.3-4.6h-5.7ZM17.4,29.3H8v10.2h9.5c3.6,0,5.8-1.9,5.8-5.1s-2.1-5.1-5.8-5.1Z"/>
  <path class="cls-1" d="M56.2,23.5h-2.2c-5,0-8.2,2.7-8.2,7.9v15.2h-8.3v-30.4h7.6v3.6c2-2.5,5-4,8.3-4s1.9.1,2.7.4v7.3Z"/>
  <path class="cls-1" d="M65.5,0c2.9,0,5.3,2.2,5.3,5.2s-2.4,5.1-5.3,5.1-5.3-2.2-5.3-5.1,2.3-5.2,5.3-5.2ZM61.4,16.2h8.3v30.4h-8.3v-30.4Z"/>
  <path class="cls-1" d="M105.8,46.6h-8.2v-17.7c0-3.5-2.3-5.9-5.6-5.9s-5.8,2.4-5.8,5.9v17.7h-8.3v-30.4h7.6v2.8c2.1-2.1,5.3-3.4,8.9-3.4,7.1,0,11.4,4.8,11.4,12.2v18.8Z"/>
  <path class="cls-1" d="M144.3,16.2v27c0,9.9-6.2,15.2-15.7,15.2s-10.7-1.9-14.9-5.6l4.4-5.8c3.4,2.5,6.2,3.9,9.9,3.9s8.1-2.5,8.1-7.2v-1.7c-2.2,2.4-5.4,3.6-9.3,3.6-8.4,0-14.5-6.2-14.5-15.1s6.3-15,14.5-15,7.8,1.6,9.9,4.5v-3.8h7.6ZM128.4,22.6c-4.5,0-7.9,3-7.9,7.9s3.4,8.2,7.9,8.2,7.7-3,7.7-8.2-3.4-7.9-7.7-7.9Z"/>
</svg>