<?xml version="1.0" encoding="UTF-8"?>
<svg id="Layer_1" data-name="Layer 1" xmlns="http://www.w3.org/2000/svg" version="1.1" viewBox="0 0 143.7 31.8">
  <defs>
    <style>
      .cls-1 {
        fill: #ffbf3f;
        stroke-width: 0px;
      }
    </style>
  </defs>
  <path class="cls-1" d="M46.8,31.1h-8.3V13.4c0-3.6-2.1-5.9-5.4-5.9s-5.6,2.3-5.6,5.7v17.9h-8.3V13.4c0-3.6-2.1-5.9-5.4-5.9s-5.6,2.3-5.6,5.9v17.7H0V.7h7.6v2.7C9.6,1.2,12.7,0,16.2,0s7,1.5,9,4.4C27.6,1.7,31.2,0,35.3,0,42.5,0,46.8,4.9,46.8,12.2v18.8Z"/>
  <path class="cls-1" d="M69.3,0c8.9-.1,16.5,7.2,16.3,15.8.2,8.7-7.5,16.1-16.4,15.9-8.9.2-16.4-7.2-16.2-15.9C52.8,7.2,60.4-.2,69.3,0ZM69.3,7.6c-4.6,0-7.9,3.5-7.9,8.3s3.3,8.2,7.9,8.2,7.9-3.5,7.9-8.2-3.4-8.3-7.9-8.3Z"/>
  <path class="cls-1" d="M110.7,8h-2.2c-5,0-8.2,2.7-8.2,7.9v15.2h-8.3V.7h7.6v3.6c2-2.5,5-4,8.3-4s1.9.1,2.7.4v7.3Z"/>
  <path class="cls-1" d="M121.9,18.7c1,3.9,4.1,6,8.5,6s5.8-1,8.5-3.1l3.4,5.6c-3.6,3-7.7,4.5-12.2,4.5-9.4.2-16.8-7.1-16.6-15.9C113.3,7.1,120.6-.2,129.4,0c8.4,0,14.3,6.2,14.3,14.1s-.2,3-.6,4.5h-21.3ZM135.7,12.8c0-3.7-2.9-6.1-6.6-6.1s-6.3,2.4-7.2,6.1h13.8Z"/>
</svg>