<?xml version="1.0" encoding="UTF-8"?>
<svg id="Layer_1" data-name="Layer 1" xmlns="http://www.w3.org/2000/svg" version="1.1" viewBox="0 0 65.5 25.7">
  <defs>
    <style>
      .cls-1 {
        fill: #ffbf3f;
        stroke-width: 0px;
      }
    </style>
  </defs>
  <path class="cls-1" d="M27,8.9l-6.9,16.8h-.9l-5.6-12.4-5.6,12.4h-.9L0,8.9h2.8l4.8,12.2,5.5-12.6h1l5.5,12.5,4.7-12.1h2.8Z"/>
  <path class="cls-1" d="M32.1.7c1,0,1.9.8,1.9,1.9s-.8,1.9-1.9,1.9-2-.8-2-1.9.9-1.9,2-1.9ZM30.7,8.9h2.6v16.5h-2.6V8.9Z"/>
  <path class="cls-1" d="M48,25.3c-1,.2-2,.4-2.7.4-3.4,0-5.5-1.7-5.5-5.3v-9.2h-2.8v-2.3h2.8v-4.5h2.6v4.5h5.1v2.3h-5.1v9c0,2.3,1.2,3.1,3.5,3.1s1.4,0,2.2-.2v2.2Z"/>
  <path class="cls-1" d="M65.5,25.3h-2.6v-10c0-2.7-1.6-4.4-4.1-4.4s-4.3,1.9-4.3,4.4v10h-2.6V0h2.6v10.7c1.1-1.4,2.9-2.2,4.9-2.2,3.8,0,6.1,2.6,6.1,6.5v10.3Z"/>
</svg>