<?xml version="1.0" encoding="UTF-8"?>
<svg id="Layer_1" data-name="Layer 1" xmlns="http://www.w3.org/2000/svg" version="1.1" viewBox="0 0 193.3 41.7">
  <defs>
    <style>
      .cls-1 {
        fill: #ffbf3f;
        stroke-width: 0px;
      }
    </style>
  </defs>
  <path class="cls-1" d="M0,3.7h18.9v4.2H4.7v8.8h11.7v4.3H4.7v12.1H0V3.7Z"/>
  <path class="cls-1" d="M25.7,0c1.7,0,3.2,1.4,3.2,3.1s-1.4,3.1-3.2,3.1-3.2-1.3-3.2-3.1,1.4-3.1,3.2-3.1ZM23.3,11.3h4.7v21.9h-4.7V11.3Z"/>
  <path class="cls-1" d="M53.9,33.2h-4.7v-13.1c0-3-1.9-5.1-4.8-5.1s-5,2.1-5,5.1v13.1h-4.7V11.3h4.4v2.1c1.7-1.7,3.8-2.6,6.6-2.6,5.1,0,8.2,3.5,8.2,8.7v13.7Z"/>
  <path class="cls-1" d="M77.8,33.2h-4.4v-2.5c-1.6,1.9-4,2.9-7,2.9-4.6,0-7.6-2.5-7.6-6.3s3.1-6.2,8.1-6.2h6.2v-1.4c0-3-1.7-4.7-4.7-4.7s-4.2,1.1-6.1,3.3l-2.7-2.8c2.2-3.2,5.4-4.7,9.2-4.7,5.4,0,9,3.3,9,9.1v13.3ZM73.1,24.5h-5.6c-2.5,0-3.9.9-3.9,2.7s1.6,2.9,3.8,2.9,5.7-2.2,5.7-5.2v-.4Z"/>
  <path class="cls-1" d="M103.5,33.2h-4.7v-13.1c0-3-1.9-5.1-4.8-5.1s-5,2.1-5,5.1v13.1h-4.7V11.3h4.4v2.1c1.7-1.7,3.8-2.6,6.6-2.6,5.1,0,8.2,3.5,8.2,8.7v13.7Z"/>
  <path class="cls-1" d="M120.2,10.8c4.1,0,7.3,1.9,9.2,5.1l-3.3,2.6c-1.6-2.2-3.5-3.3-5.9-3.3-3.9,0-6.9,3.1-6.9,7.1s2.9,7.1,6.9,7.1,4.3-1.1,5.9-3.3l3.3,2.5c-2,3.2-5.3,5.1-9.2,5.1-6.5,0-11.6-5.1-11.6-11.5-.1-6.3,5.3-11.5,11.6-11.4Z"/>
  <path class="cls-1" d="M137,0c1.7,0,3.2,1.4,3.2,3.1s-1.4,3.1-3.2,3.1-3.2-1.3-3.2-3.1,1.4-3.1,3.2-3.1ZM134.7,11.3h4.7v21.9h-4.7V11.3Z"/>
  <path class="cls-1" d="M165.3,33.2h-4.7v-13.1c0-3-1.9-5.1-4.8-5.1s-5,2.1-5,5.1v13.1h-4.7V11.3h4.4v2.1c1.7-1.7,3.8-2.6,6.6-2.6,5.1,0,8.2,3.5,8.2,8.7v13.7Z"/>
  <path class="cls-1" d="M193.3,11.3v19.6c0,6.9-4.3,10.8-11,10.8s-7.9-1.7-10.5-4.2l2.6-3.3c2.5,2,4.7,3.1,7.7,3.1s6.6-2.1,6.6-6.2v-1.6c-1.7,2-4.4,3.1-7.4,3.1-6.1,0-10.7-4.6-10.7-11s4.6-11,10.7-11,6.2,1.3,7.8,3.6v-3.1h4.3ZM182.1,15c-1.9,0-3.5.6-4.8,1.9-1.3,1.2-1.9,2.9-1.9,4.9s.6,3.7,1.9,5c1.3,1.2,2.9,1.9,4.8,1.9s3.3-.6,4.6-1.8c1.3-1.2,2-2.9,2-5.1,0-4.5-3-6.7-6.6-6.7Z"/>
</svg>