<?xml version="1.0" encoding="UTF-8"?>
<svg id="Layer_1" data-name="Layer 1" xmlns="http://www.w3.org/2000/svg" version="1.1" viewBox="0 0 338.5 34">
  <defs>
    <style>
      .cls-1 {
        fill: #ffbf3f;
        stroke-width: 0px;
      }
    </style>
  </defs>
  <path class="cls-1" d="M15.5,3.5c5.4,0,10.1,2.6,12.6,6.8l-3.6,2.6c-2.1-3.3-5.1-5.1-9-5.1-6,0-10.6,4.6-10.6,10.9s4.6,10.9,10.6,10.9,6.9-1.8,9-5.1l3.6,2.6c-2.5,4.2-7.1,6.8-12.6,6.8C7.1,34.1-.2,27.2,0,18.7-.2,10.3,7.1,3.4,15.5,3.5Z"/>
  <path class="cls-1" d="M33.3,11.6h4.6v13.1c0,3,2.1,5,5,5s4.8-2,4.8-5v-13.1h4.7v12.7c0,5.9-4.2,9.7-9.5,9.7s-9.6-3.8-9.6-9.7v-12.7Z"/>
  <path class="cls-1" d="M59.5,26.8c1.9,2,3.8,3.1,6.2,3.1s3.5-.8,3.5-2.5-.9-1.8-3.1-2.7l-2.2-.9c-3.9-1.6-5.7-3.3-5.7-6.4s3.3-6.3,7.7-6.3,5.7,1.1,7.6,3.4l-2.5,2.9c-1.4-1.4-3.2-2.2-5.1-2.2s-3,.7-3,2.1.8,1.7,2.9,2.6l2.1.8c4.2,1.7,6,3.5,6,6.6s-.8,3.7-2.3,5c-1.6,1.2-3.5,1.7-5.8,1.7-3.7,0-6.9-1.7-8.8-4.2l2.7-2.9Z"/>
  <path class="cls-1" d="M92.3,33.5c-1.5.3-2.8.5-3.9.5-5,0-8.1-2.5-8.1-7.6v-10.7h-3.6v-4.1h3.6v-5.8h4.7v5.8h6.5v4.1h-6.5v10.3c0,2.8,1.5,3.8,4.3,3.8s1.6,0,2.9-.2v4Z"/>
  <path class="cls-1" d="M106.7,11.1c6.4-.1,11.8,5.2,11.6,11.4.1,6.2-5.3,11.6-11.6,11.5-6.3.1-11.7-5.3-11.6-11.5-.1-6.3,5.3-11.5,11.6-11.4ZM106.8,15.4c-3.9,0-6.8,3.1-6.8,7.2s2.9,7.1,6.8,7.1,6.8-3.1,6.8-7.1-3-7.2-6.8-7.2Z"/>
  <path class="cls-1" d="M156.6,33.5h-4.7v-13c0-3.1-1.7-5.1-4.6-5.1s-4.8,2.1-4.8,4.9v13.3h-4.7v-13c0-3-1.8-5.1-4.6-5.1s-4.8,2.1-4.8,5.1v13h-4.7V11.6h4.4v2.1c1.6-1.6,3.7-2.5,6.3-2.5s5.4,1.3,6.7,3.4c1.6-2.1,4.3-3.4,7.4-3.4,5,0,8.1,3.5,8.1,8.7v13.7Z"/>
  <path class="cls-1" d="M165.5.3c1.7,0,3.2,1.4,3.2,3.1s-1.4,3.1-3.2,3.1-3.2-1.3-3.2-3.1,1.4-3.1,3.2-3.1ZM163.1,11.6h4.7v21.9h-4.7V11.6Z"/>
  <path class="cls-1" d="M190.8,29.4v4.1h-18.6v-1.3l11.5-16.6h-10.4v-4.1h17.5v1.3l-11.5,16.5h11.6Z"/>
  <path class="cls-1" d="M198.6,24.1c.6,3.6,3.4,5.8,7.1,5.8s4.4-.8,6.4-2.6l2.2,3.2c-2.5,2.4-5.4,3.5-8.7,3.5-6.7,0-11.8-5-11.8-11.4-.1-6.3,5.1-11.6,11.3-11.5,5.8,0,10.1,4.3,10.1,10s-.1,1.9-.4,2.9h-16.3ZM210.6,20.4c0-3.3-2.5-5.4-5.6-5.4s-5.6,2.1-6.3,5.4h11.9Z"/>
  <path class="cls-1" d="M242,0v33.5h-4.4v-3.1c-1.6,2.3-4.4,3.6-7.7,3.6-6.2,0-10.7-5-10.7-11.4-.1-6.4,4.6-11.6,10.7-11.5,3,0,5.7,1.2,7.3,3.2V0h4.7ZM230.8,15.4c-3.7,0-6.7,2.9-6.7,7.1s2.9,7.2,6.7,7.2,6.6-2.4,6.6-7.1-3.2-7.2-6.6-7.2Z"/>
  <path class="cls-1" d="M262.8,25c2,2.9,4.3,4.7,7.7,4.7s5.1-1.6,5.1-4.1-1.2-3-4.3-4.4l-3.3-1.5c-4.3-2-6.9-4.2-6.9-8.2s4.2-8,9.3-8,7.7,2.1,9.5,5.3l-3.3,2.5c-1.6-2.3-3.7-3.6-6.2-3.6s-4.5,1.2-4.5,3.6c.2,2.3,1.2,2.7,4.1,4.2l3.3,1.5c4.8,2.2,7.1,4.5,7.1,8.4s-4.2,8.5-9.9,8.5-8.8-2.4-11.1-6.4l3.3-2.5Z"/>
  <path class="cls-1" d="M299.2,33.5h-12.6V4h10.3c5.3,0,8.8,3.3,8.8,7.9s-.8,4.2-2.5,5.5c3.4,1.1,5.5,3.9,5.5,7.5s-3.8,8.6-9.6,8.6ZM291.2,8.2v7.9h5.2c2.9,0,4.6-1.6,4.6-4s-1.7-3.9-4.6-3.9h-5.2ZM298.8,20.2h-7.6v9.2h7.6c3.3,0,5.2-1.7,5.2-4.6s-1.9-4.6-5.2-4.6Z"/>
  <path class="cls-1" d="M331.4,28.6h-13.3l-2.1,4.9h-5l13-29.9h1.6l13,29.9h-5.1l-2.1-4.9ZM324.7,12.3l-5,12.2h9.9l-4.9-12.2Z"/>
</svg>