<?xml version="1.0" encoding="UTF-8"?>
<svg xmlns="http://www.w3.org/2000/svg" version="1.1" viewBox="0 0 114.9 28.4">
  <defs>
    <style>
      .cls-1 {
        fill: #ffbf3f;
      }

      .cls-2 {
        fill: #002d72;
      }
    </style>
  </defs>
  <!-- Generator: Adobe Illustrator 28.7.1, SVG Export Plug-In . SVG Version: 1.2.0 Build 142)  -->
  <g>
    <g id="Layer_1">
      <rect class="cls-1" width="114.9" height="28.4" rx="6.6" ry="6.6"/>
      <g>
        <path class="cls-2" d="M14.5,8.5h1.8v9.6h5.1v1.6h-6.9v-11.2Z"/>
        <path class="cls-2" d="M24.4,16.1c.2,1.4,1.3,2.2,2.7,2.2s1.7-.3,2.4-1l.8,1.2c-1,.9-2.1,1.3-3.3,1.3-2.5,0-4.5-1.9-4.5-4.3,0-2.4,2-4.4,4.3-4.4,2.2,0,3.9,1.6,3.9,3.8s0,.7-.1,1.1h-6.2ZM29,14.7c0-1.3-1-2-2.1-2s-2.1.8-2.4,2h4.5Z"/>
        <path class="cls-2" d="M39.4,19.7h-1.7v-.9c-.6.7-1.5,1.1-2.7,1.1-1.8,0-2.9-1-2.9-2.4s1.2-2.4,3.1-2.4h2.4v-.5c0-1.2-.6-1.8-1.8-1.8s-1.6.4-2.3,1.2l-1-1.1c.8-1.2,2.1-1.8,3.5-1.8,2.1,0,3.4,1.2,3.4,3.5v5ZM37.6,16.4h-2.1c-1,0-1.5.3-1.5,1s.6,1.1,1.5,1.1,2.2-.8,2.2-2v-.2Z"/>
        <path class="cls-2" d="M46.7,13h-.5c-1.4,0-2.4.8-2.4,2.3v4.5h-1.8v-8.3h1.7v1.1c.6-.7,1.5-1.2,2.4-1.2s.5,0,.7,0v1.6Z"/>
        <path class="cls-2" d="M55.5,19.7h-1.8v-5c0-1.2-.7-1.9-1.8-1.9s-1.9.8-1.9,1.9v5h-1.8v-8.3h1.7v.8c.6-.7,1.5-1,2.5-1,2,0,3.1,1.3,3.1,3.3v5.2Z"/>
        <path class="cls-2" d="M73.6,8.3v11.4h-1.8v-7l-3.2,4.2h-.6l-3.2-4.2v7h-1.8v-11.4h.6l4.7,6.3,4.7-6.3h.6Z"/>
        <path class="cls-2" d="M80,11.2c2.4,0,4.5,2,4.4,4.3,0,2.4-2,4.4-4.4,4.4-2.4,0-4.5-2-4.4-4.4,0-2.4,2-4.4,4.4-4.3ZM80.1,12.8c-1.5,0-2.6,1.2-2.6,2.7s1.1,2.7,2.6,2.7,2.6-1.2,2.6-2.7-1.1-2.7-2.6-2.7Z"/>
        <path class="cls-2" d="M91.3,13h-.5c-1.4,0-2.4.8-2.4,2.3v4.5h-1.8v-8.3h1.7v1.1c.6-.7,1.5-1.2,2.4-1.2s.5,0,.7,0v1.6Z"/>
        <path class="cls-2" d="M94,16.1c.2,1.4,1.3,2.2,2.7,2.2s1.7-.3,2.4-1l.8,1.2c-1,.9-2.1,1.3-3.3,1.3-2.5,0-4.5-1.9-4.5-4.3,0-2.4,2-4.4,4.3-4.4,2.2,0,3.9,1.6,3.9,3.8s0,.7-.1,1.1h-6.2ZM98.6,14.7c0-1.3-1-2-2.1-2s-2.1.8-2.4,2h4.5Z"/>
      </g>
    </g>
  </g>
</svg>