<?xml version="1.0" encoding="UTF-8"?>
<svg xmlns="http://www.w3.org/2000/svg" version="1.1" viewBox="0 0 249.6 26.9">
  <defs>
    <style>
      .cls-1 {
        fill: #ffbf3f;
      }
    </style>
  </defs>
  <!-- Generator: Adobe Illustrator 28.7.1, SVG Export Plug-In . SVG Version: 1.2.0 Build 142)  -->
  <g>
    <g id="Layer_1">
      <g>
        <path class="cls-1" d="M0,.5h9.8c5.4,0,9.4,3.4,9.4,8.4s-3.9,8.4-9.4,8.4h-4.4v9.2H0V.5ZM9.8,12.6c2.5,0,3.9-1.5,3.9-3.8s-1.5-3.7-3.9-3.7h-4.4v7.5h4.4Z"/>
        <path class="cls-1" d="M35.6,23.1h-10.6l-1.5,3.4h-5.7L29.4,0h1.8l11.6,26.5h-5.7l-1.5-3.4ZM30.2,9.9l-3.5,8.8h6.9l-3.5-8.8Z"/>
        <path class="cls-1" d="M62.2,26.5l-6.7-9.2h-3.9v9.2h-5.3V.5h9.8c5.4,0,9.4,3.4,9.4,8.4s-1.7,6-4.6,7.4l7.4,10.2h-6ZM51.6,12.6h4.4c2.5,0,3.9-1.5,3.9-3.7s-1.5-3.7-3.9-3.7h-4.4v7.4Z"/>
        <path class="cls-1" d="M76.3,5.3h-8.3V.5h22v4.8h-8.3v21.2h-5.3V5.3Z"/>
        <path class="cls-1" d="M115.6.5v26.5h-1.8l-15-16.1v15.6h-5.3V0h1.7l15.1,16V.5h5.3Z"/>
        <path class="cls-1" d="M121.6.5h17.5v4.8h-12.2v5.3h8.9v4.5h-8.9v6.6h12.6v4.8h-18V.5Z"/>
        <path class="cls-1" d="M160.1,26.5l-6.7-9.2h-3.9v9.2h-5.3V.5h9.8c5.4,0,9.4,3.4,9.4,8.4s-1.7,6-4.6,7.4l7.4,10.2h-6ZM149.5,12.6h4.4c2.5,0,3.9-1.5,3.9-3.7s-1.5-3.7-3.9-3.7h-4.4v7.4Z"/>
        <path class="cls-1" d="M171,18.4c1.7,2.3,3.5,3.8,6.4,3.8s3.7-1.1,3.7-2.9-.8-2.1-3.3-3.2l-2.8-1.3c-4-1.8-6.3-4-6.3-7.5s3.7-7.4,8.6-7.4,7,1.9,8.6,4.9l-3.6,2.8c-1.3-2-3-3-5-3s-3.2.9-3.2,2.5.8,2,3,3l3,1.3c4.4,1.9,6.4,4.1,6.4,7.6s-3.9,7.8-9.1,7.8-8-2.2-10-5.7l3.7-2.8Z"/>
        <path class="cls-1" d="M191.1.5h5.3v10h11.5V.5h5.3v26h-5.3v-11.2h-11.5v11.2h-5.3V.5Z"/>
        <path class="cls-1" d="M219.2.5h5.3v26h-5.3V.5Z"/>
        <path class="cls-1" d="M230.5.5h9.8c5.4,0,9.4,3.4,9.4,8.4s-3.9,8.4-9.4,8.4h-4.4v9.2h-5.3V.5ZM240.2,12.6c2.5,0,3.9-1.5,3.9-3.8s-1.5-3.7-3.9-3.7h-4.4v7.5h4.4Z"/>
      </g>
    </g>
  </g>
</svg>