<?xml version="1.0" encoding="UTF-8"?>
<svg xmlns="http://www.w3.org/2000/svg" version="1.1" viewBox="0 0 136.4 26.7">
  <defs>
    <style>
      .cls-1 {
        fill: #ffbf3f;
      }
    </style>
  </defs>
  <!-- Generator: Adobe Illustrator 28.7.1, SVG Export Plug-In . SVG Version: 1.2.0 Build 142)  -->
  <g>
    <g id="Layer_1">
      <g>
        <path class="cls-1" d="M0,.4h16.2v2.7H3.1v8.9h10.9v2.8H3.1v11.4H0V.4Z"/>
        <path class="cls-1" d="M32,0c7.2-.1,13.6,6,13.4,13.4.2,7.4-6.2,13.5-13.4,13.4-7.3.2-13.6-6-13.4-13.4C18.5,6,24.7-.1,32,0ZM32.1,2.8c-5.8,0-10.3,4.5-10.3,10.5s4.4,10.6,10.3,10.6c5.7,0,10.3-4.7,10.2-10.6.1-5.8-4.5-10.6-10.2-10.5Z"/>
        <path class="cls-1" d="M67.5,26.3l-8-10.8h-5.5v10.8h-3.1V.4h9.1c5,0,8.3,3.1,8.3,7.5s-2,6.2-5.4,7.2l8.3,11.2h-3.6ZM54,12.7h5.9c3.3,0,5.2-1.9,5.2-4.7s-1.9-4.8-5.2-4.8h-5.9v9.5Z"/>
        <path class="cls-1" d="M99.1,0v26.3h-3.1V7.8l-8.3,11.2h-1.1l-8.3-11.3v18.6h-3.1V0h1.1l10.8,14.9L98,0h1.1Z"/>
        <path class="cls-1" d="M130.9,21h-12.7l-2.2,5.2h-3.2L124.1,0h1.1l11.2,26.3h-3.3l-2.2-5.2ZM124.6,5.6l-5.2,12.7h10.3l-5.2-12.7Z"/>
      </g>
    </g>
  </g>
</svg>