<?xml version="1.0" encoding="UTF-8"?>
<svg xmlns="http://www.w3.org/2000/svg" version="1.1" viewBox="0 0 354.7 27">
  <defs>
    <style>
      .cls-1 {
        fill: #002d72;
      }
    </style>
  </defs>
  <!-- Generator: Adobe Illustrator 28.7.1, SVG Export Plug-In . SVG Version: 1.2.0 Build 142)  -->
  <g>
    <g id="Layer_1">
      <g>
        <path class="cls-1" d="M25.5,0v26.5h-5.3v-13.9l-6.5,8.2h-1.7l-6.5-8.2v13.9H0V0h1.7l11,14.1L23.7,0h1.7Z"/>
        <path class="cls-1" d="M43.8,0c7.5-.2,14,6,13.9,13.5.1,7.5-6.4,13.6-13.9,13.5-7.5.2-13.9-6-13.8-13.5C29.9,6,36.3-.2,43.8,0ZM43.8,4.9c-4.8,0-8.4,3.5-8.4,8.6s3.6,8.6,8.4,8.6,8.4-3.5,8.4-8.6-3.6-8.6-8.4-8.6Z"/>
        <path class="cls-1" d="M78.1,26.5l-6.7-9.2h-3.9v9.2h-5.3V.5h9.8c5.4,0,9.4,3.4,9.4,8.4s-1.7,6-4.6,7.4l7.4,10.2h-6ZM67.5,12.6h4.5c2.5,0,3.9-1.5,3.9-3.7s-1.5-3.7-3.9-3.7h-4.5v7.5Z"/>
        <path class="cls-1" d="M87.4.5h17.5v4.8h-12.2v5.3h9v4.5h-9v6.6h12.7v4.8h-18V.5Z"/>
        <path class="cls-1" d="M121.1.5h8.5c8.2,0,14.3,5.2,14.2,12.9.1,7.5-6,13.2-14.2,13.1h-8.5V.5ZM129.5,21.7c5.2,0,8.8-3.3,8.8-8.3s-3.4-8.1-8.8-8.1h-3.2v16.4h3.2Z"/>
        <path class="cls-1" d="M148.3.5h17.5v4.8h-12.2v5.3h9v4.5h-9v6.6h12.7v4.8h-18V.5Z"/>
        <path class="cls-1" d="M186.2,23.1h-10.6l-1.5,3.4h-5.7L180,0h1.8l11.6,26.5h-5.7l-1.5-3.4ZM180.9,9.9l-3.5,8.8h6.9l-3.5-8.8Z"/>
        <path class="cls-1" d="M197,.5h5.3v21.2h11.4v4.8h-16.7V.5Z"/>
        <path class="cls-1" d="M219.5,18.5c1.7,2.3,3.5,3.8,6.4,3.8s3.7-1.1,3.7-2.9-.8-2.1-3.3-3.2l-2.8-1.3c-4-1.8-6.3-4-6.3-7.5S220.9,0,225.8,0s7,1.9,8.6,4.9l-3.6,2.8c-1.3-2-3-3-5-3s-3.2.9-3.2,2.5.8,2,3,3l3,1.3c4.4,1.9,6.4,4.1,6.4,7.6s-3.9,7.8-9.1,7.8-8-2.2-10.1-5.8l3.7-2.8Z"/>
        <path class="cls-1" d="M250.7.5h8.5c8.2,0,14.3,5.2,14.2,12.9.1,7.5-6,13.2-14.2,13.1h-8.5V.5ZM259.2,21.7c5.2,0,8.8-3.3,8.8-8.3s-3.4-8.1-8.8-8.1h-3.2v16.4h3.2Z"/>
        <path class="cls-1" d="M290.2,0c7.5-.2,14,6,13.9,13.5.1,7.5-6.4,13.6-13.9,13.5-7.5.2-13.9-6-13.8-13.5-.1-7.5,6.3-13.6,13.8-13.5ZM290.3,4.9c-4.8,0-8.4,3.5-8.4,8.6s3.5,8.6,8.4,8.6,8.4-3.5,8.4-8.6-3.6-8.6-8.4-8.6Z"/>
        <path class="cls-1" d="M330.8.5v26.5h-1.8l-15.1-16.1v15.6h-5.3V0h1.7l15.1,16V.5h5.3Z"/>
        <path class="cls-1" d="M336.8.5h17.5v4.8h-12.2v5.3h9v4.5h-9v6.6h12.7v4.8h-18V.5Z"/>
      </g>
    </g>
  </g>
</svg>