<?xml version="1.0" encoding="UTF-8"?>
<svg xmlns="http://www.w3.org/2000/svg" version="1.1" viewBox="0 0 200.1 27">
  <defs>
    <style>
      .cls-1 {
        fill: #002d72;
      }
    </style>
  </defs>
  <!-- Generator: Adobe Illustrator 28.7.1, SVG Export Plug-In . SVG Version: 1.2.0 Build 142)  -->
  <g>
    <g id="Layer_1">
      <g>
        <path class="cls-1" d="M9.2,3.2H0V.4h21.5v2.8h-9.2v23.3h-3.1V3.2Z"/>
        <path class="cls-1" d="M25.8.4h3.1v10.8h14.6V.4h3.1v26.1h-3.1v-12.6h-14.6v12.6h-3.1V.4Z"/>
        <path class="cls-1" d="M69.7,21.2h-12.8l-2.2,5.3h-3.2L62.8,0h1.1l11.3,26.5h-3.3l-2.2-5.3ZM63.3,5.6l-5.2,12.9h10.4l-5.2-12.9Z"/>
        <path class="cls-1" d="M83.4,3.2h-9.2V.4h21.5v2.8h-9.2v23.3h-3.1V3.2Z"/>
        <path class="cls-1" d="M121,0c4.4,0,8.2,2,10.6,5.3l-2.3,1.8c-2-2.7-4.8-4.3-8.3-4.3-5.9-.1-10.5,4.7-10.4,10.6-.1,6,4.5,10.9,10.5,10.8,3.8,0,6.9-1.8,8.7-4.7v-3.5h-8.9v-2.8h12v7c-1.1,2.1-2.8,3.7-4.9,4.9-2.1,1.2-4.4,1.8-7,1.8-7.5.1-13.7-6-13.6-13.5C107.4,6,113.6-.1,121,0Z"/>
        <path class="cls-1" d="M138.7.4h16.7v2.8h-13.6v8h10.4v2.8h-10.4v9.8h14.1v2.8h-17.2V.4Z"/>
        <path class="cls-1" d="M167.4,3.2h-9.2V.4h21.5v2.8h-9.2v23.3h-3.1V3.2Z"/>
        <path class="cls-1" d="M184.4,19.7c1.9,3,4.4,4.5,7.3,4.5s5.3-1.7,5.3-4.3-1.4-3.2-4.4-4.6l-2.9-1.4c-3.6-1.7-5.9-3.5-5.9-7S187.3,0,191.6,0s6.5,1.8,8.2,4.4l-2.3,1.7c-1.4-2.1-3.6-3.3-6-3.3s-4.6,1.4-4.6,3.8.2,1.4.5,1.9c.7,1,1.6,1.5,3.7,2.5l2.9,1.4c4.1,2,6.1,3.9,6.1,7.3s-3.6,7.3-8.4,7.3-7.6-2.1-9.6-5.6l2.3-1.7Z"/>
      </g>
    </g>
  </g>
</svg>