<?xml version="1.0" encoding="UTF-8"?>
<svg xmlns="http://www.w3.org/2000/svg" version="1.1" viewBox="0 0 234.5 19">
  <defs>
    <style>
      .cls-1 {
        fill: #ffbf3f;
      }
    </style>
  </defs>
  <!-- Generator: Adobe Illustrator 28.7.1, SVG Export Plug-In . SVG Version: 1.2.0 Build 142)  -->
  <g>
    <g id="Layer_1">
      <g>
        <path class="cls-1" d="M1.6,13.8c1.4,2.1,3.1,3.1,5.1,3.1s3.7-1.2,3.7-3.1-1-2.2-3.1-3.2l-2.1-1c-2.5-1.2-4.1-2.5-4.1-4.9S3.7,0,6.7,0s4.6,1.3,5.8,3.1l-1.6,1.2c-1-1.5-2.5-2.3-4.2-2.3s-3.3,1-3.3,2.7.1,1,.4,1.3c.5.7,1.1,1.1,2.6,1.8l2,1c2.9,1.4,4.3,2.8,4.3,5.1s-2.5,5.1-5.9,5.1-5.3-1.5-6.8-4l1.6-1.2Z"/>
        <path class="cls-1" d="M16.9.3h11.8v1.9h-9.6v5.6h7.4v1.9h-7.4v6.9h9.9v1.9h-12.1V.3Z"/>
        <path class="cls-1" d="M32.7.3h11.8v1.9h-9.6v5.6h7.4v1.9h-7.4v6.9h9.9v1.9h-12.1V.3Z"/>
        <path class="cls-1" d="M80.7.3l-7,18.7h-.8l-5.8-14.6-5.8,14.6h-.8L53.6.3h2.4l5.1,14,5.7-14.3h.8l5.7,14.3L78.4.3h2.4Z"/>
        <path class="cls-1" d="M84.5.3h2.2v7.6h10.3V.3h2.2v18.4h-2.2v-8.9h-10.3v8.9h-2.2V.3Z"/>
        <path class="cls-1" d="M111.4,11.1v7.6h-2.2v-7.6L102.8.3h2.5l5,8.6L115.3.3h2.4l-6.4,10.8Z"/>
        <path class="cls-1" d="M152.6.3l-7,18.7h-.8l-5.8-14.6-5.8,14.6h-.8L125.4.3h2.4l5.1,14,5.7-14.3h.8l5.7,14.3,5.1-14h2.4Z"/>
        <path class="cls-1" d="M156.4.3h11.8v1.9h-9.6v5.6h7.4v1.9h-7.4v6.9h9.9v1.9h-12.1V.3Z"/>
        <path class="cls-1" d="M172.6.3h2.5l-1.2,7.2h-1.7l.4-7.2Z"/>
        <path class="cls-1" d="M191.8,18.7l-5.7-7.7h-3.9v7.7h-2.2V.3h6.5c3.6,0,5.9,2.2,5.9,5.3s-1.4,4.4-3.9,5.1l5.9,8h-2.5ZM182.1,9h4.2c2.4,0,3.7-1.3,3.7-3.4s-1.4-3.4-3.7-3.4h-4.2v6.8Z"/>
        <path class="cls-1" d="M197.3.3h11.8v1.9h-9.6v5.6h7.4v1.9h-7.4v6.9h9.9v1.9h-12.1V.3Z"/>
        <path class="cls-1" d="M230.6,15h-9l-1.6,3.7h-2.3l8-18.7h.8l8,18.7h-2.3l-1.6-3.7ZM226.1,4l-3.7,9.1h7.4l-3.7-9.1Z"/>
      </g>
    </g>
  </g>
</svg>