<?xml version="1.0" encoding="UTF-8"?>
<svg xmlns="http://www.w3.org/2000/svg" version="1.1" viewBox="0 0 300.1 21.9">
  <defs>
    <style>
      .cls-1 {
        fill: #ffbf3f;
      }
    </style>
  </defs>
  <!-- Generator: Adobe Illustrator 28.7.1, SVG Export Plug-In . SVG Version: 1.2.0 Build 142)  -->
  <g>
    <g id="Layer_1">
      <g>
        <path class="cls-1" d="M6.8,4.3H0V.4h17.9v3.9h-6.8v17.2h-4.3V4.3Z"/>
        <path class="cls-1" d="M30.3,0c6.1-.1,11.4,4.9,11.3,10.9,0,6.1-5.2,11.1-11.3,10.9-6.1.1-11.3-4.9-11.2-10.9C19,4.9,24.2-.1,30.3,0ZM30.3,4c-3.9,0-6.8,2.9-6.8,6.9s2.9,6.9,6.8,6.9,6.8-2.9,6.8-6.9-2.9-6.9-6.8-6.9Z"/>
        <path class="cls-1" d="M45.2.4h7.9c4.4,0,7.6,2.8,7.6,6.8s-3.2,6.9-7.6,6.9h-3.6v7.5h-4.3V.4ZM53.1,10.3c2,0,3.2-1.2,3.2-3.1s-1.2-3-3.2-3h-3.6v6.1h3.6Z"/>
        <path class="cls-1" d="M86.8,17.8v3.7h-15.6s0-.9,0-.9l7.6-8.2c2.1-2.3,3-3.7,3-5.3s-1.2-3.1-2.9-3.1-3,1.3-3,3.2,0,.9.2,1.5h-4.4c-.2-.6-.2-1.2-.2-1.8C71.4,3.4,74.4,0,78.9,0s7.3,2.9,7.3,6.8-.4,2.8-1.2,4c-.8,1.2-1.9,2.6-3.4,4.2l-2.7,2.9h7.9Z"/>
        <path class="cls-1" d="M97,21.9c-3.6,0-6.4-1.9-7.8-4.8l3-2.1c1.2,1.9,2.7,2.9,4.7,2.9s3.8-1.2,3.8-3.3-1.5-3-4.3-3h-4.9V.4h12.5v3.9h-8.3v3.8c.8-.2,1.6-.3,2.4-.3,3.6,0,7.1,2.4,7.1,6.7s-3.6,7.3-8.1,7.3Z"/>
        <path class="cls-1" d="M119.5,15c1.4,1.9,2.9,3.1,5.2,3.1s3-.9,3-2.3-.7-1.7-2.7-2.6l-2.3-1c-3.2-1.4-5.1-3.3-5.1-6.1S120.6,0,124.6,0s5.7,1.6,7,4l-2.9,2.3c-1.1-1.6-2.4-2.4-4-2.4s-2.6.7-2.6,2,.7,1.6,2.5,2.4l2.4,1.1c3.6,1.6,5.2,3.3,5.2,6.2s-3.2,6.3-7.4,6.3-6.5-1.8-8.2-4.7l3-2.2Z"/>
        <path class="cls-1" d="M145.3,21.5h-9.4V.4h7.5c3.9,0,6.7,2.4,6.7,5.9s-.5,2.8-1.6,3.8c2.3.9,3.7,2.7,3.7,5.2,0,3.6-2.9,6.2-6.9,6.2ZM140,4.1v4.8h3c1.8,0,2.8-.9,2.8-2.4s-1-2.4-2.8-2.4h-3ZM144.9,12.5h-4.9v5.3h4.9c1.9,0,3-1,3-2.7s-1.1-2.7-3-2.7Z"/>
        <path class="cls-1" d="M167.9,18.8h-8.6l-1.2,2.8h-4.6L162.8,0h1.4l9.4,21.5h-4.6l-1.2-2.8ZM163.5,8.1l-2.8,7.1h5.6l-2.8-7.1Z"/>
        <path class="cls-1" d="M183.9.4h4.3v17.2h9.3v3.9h-13.6V.4Z"/>
        <path class="cls-1" d="M200.7.4h14.2v3.9h-9.9v4.3h7.3v3.7h-7.3v5.3h10.3v3.9h-14.6V.4Z"/>
        <path class="cls-1" d="M237,.4v21.5h-1.4l-12.2-13.1v12.7h-4.3V0h1.4l12.3,13V.4h4.3Z"/>
        <path class="cls-1" d="M241.9.4h6.9c6.7,0,11.6,4.3,11.5,10.5,0,6.1-4.8,10.7-11.5,10.6h-6.9V.4ZM248.8,17.6c4.3,0,7.1-2.7,7.1-6.7s-2.8-6.6-7.1-6.6h-2.6v13.3h2.6Z"/>
        <path class="cls-1" d="M264,.4h14.2v3.9h-9.9v4.3h7.3v3.7h-7.3v5.3h10.3v3.9h-14.6V.4Z"/>
        <path class="cls-1" d="M295.3,21.5l-5.5-7.5h-3.2v7.5h-4.3V.4h7.9c4.4,0,7.6,2.8,7.6,6.8s-1.4,4.9-3.7,6l6,8.3h-4.9ZM286.6,10.2h3.6c2,0,3.2-1.2,3.2-3s-1.2-3-3.2-3h-3.6v6.1Z"/>
      </g>
    </g>
  </g>
</svg>