<?xml version="1.0" encoding="UTF-8"?>
<svg id="Layer_1" data-name="Layer 1" xmlns="http://www.w3.org/2000/svg" version="1.1" viewBox="0 0 300 55">
  <defs>
    <style>
      .cls-1 {
        fill: #ffbf3f;
        stroke-width: 0px;
      }
    </style>
  </defs>
  <path class="cls-1" d="M25.2,54.2c-2.4.5-4.5.8-6.3.8-8.2,0-13.1-4-13.1-12.4v-17.3H0v-6.6h5.8v-9.3h7.7v9.3h10.6v6.6h-10.6v16.7c0,4.6,2.4,6.1,7,6.1s2.6-.1,4.7-.4v6.4Z"/>
  <path class="cls-1" d="M63.8,54.2h-7.6v-21.1c0-4.9-3-8.2-7.7-8.2s-8.1,3.4-8.1,8.2v21.1h-7.6V0h7.6v22.3c2.4-2.8,6-4.3,10.3-4.3,8.1,0,13.2,5.7,13.2,14.1v22.2Z"/>
  <path class="cls-1" d="M79.9,39c.9,5.8,5.5,9.3,11.6,9.3s7.2-1.4,10.3-4.2l3.6,5.2c-4,3.8-8.7,5.7-14.2,5.7-10.8,0-19.1-8-19.1-18.5-.2-10.2,8.3-18.8,18.4-18.6,9.4,0,16.4,7,16.4,16.3s-.2,3.1-.6,4.8h-26.5ZM99.3,33c0-5.4-4.1-8.7-9.1-8.7s-9,3.4-10.2,8.7h19.3Z"/>
  <path class="cls-1" d="M156.9,54.2c-2.4.5-4.5.8-6.3.8-8.2,0-13.1-4-13.1-12.4v-17.3h-5.8v-6.6h5.8v-9.3h7.7v9.3h10.6v6.6h-10.6v16.7c0,4.6,2.4,6.1,7,6.1s2.6-.1,4.7-.4v6.4Z"/>
  <path class="cls-1" d="M192.8,54.2h-7.1v-4c-2.6,3.1-6.5,4.8-11.3,4.8-7.4,0-12.4-4.1-12.4-10.3s5.1-10.1,13.1-10.1h10v-2.3c0-4.9-2.7-7.6-7.6-7.6s-6.9,1.7-9.8,5.3l-4.4-4.5c3.5-5.1,8.8-7.6,15-7.6,8.7,0,14.5,5.3,14.5,14.8v21.5ZM185.1,40.1h-9.1c-4,0-6.3,1.4-6.3,4.3s2.5,4.7,6.2,4.7,9.2-3.5,9.2-8.4v-.7Z"/>
  <path class="cls-1" d="M222.8,55c-5.2,0-9.8-2-12.4-5.7v4.9h-7.1V0h7.6v23.1c2.7-3.3,6.9-5.1,11.9-5.1,10,0,17.4,8,17.4,18.6s-7.4,18.5-17.3,18.5ZM221.5,24.9c-5.6,0-10.7,3.8-10.7,11.6s5.1,11.6,10.7,11.6,10.8-4.8,10.8-11.6-4.8-11.6-10.8-11.6Z"/>
  <path class="cls-1" d="M248.9,0h7.6v54.2h-7.6V0Z"/>
  <path class="cls-1" d="M273,39c.9,5.8,5.5,9.3,11.6,9.3s7.2-1.4,10.3-4.2l3.6,5.2c-4,3.8-8.7,5.7-14.2,5.7-10.8,0-19.1-8-19.1-18.5-.2-10.2,8.3-18.8,18.4-18.6,9.4,0,16.4,7,16.4,16.3s-.2,3.1-.6,4.8h-26.5ZM292.4,33c0-5.4-4.1-8.7-9.1-8.7s-9,3.4-10.2,8.7h19.3Z"/>
</svg>