<?xml version="1.0" encoding="UTF-8"?>
<svg id="Layer_1" data-name="Layer 1" xmlns="http://www.w3.org/2000/svg" version="1.1" viewBox="0 0 67.4 45.6">
  <defs>
    <style>
      .cls-1 {
        fill: #ffbf3f;
        stroke-width: 0px;
      }
    </style>
  </defs>
  <path class="cls-1" d="M25.2,44.8c-2.4.5-4.5.8-6.3.8-8.2,0-13.1-4-13.1-12.4V15.9H0v-6.6h5.8V0h7.7v9.3h10.6v6.6h-10.6v16.7c0,4.6,2.4,6.1,7,6.1s2.6-.1,4.7-.4v6.4Z"/>
  <path class="cls-1" d="M48.6,8.5c10.3-.2,19.1,8.5,18.9,18.5.2,10-8.5,18.8-18.9,18.6-10.2.2-18.9-8.5-18.7-18.6-.2-10.2,8.5-18.6,18.7-18.5ZM48.6,15.5c-6.3,0-11.1,5.1-11.1,11.6s4.8,11.5,11,11.5,11.1-5.1,11.1-11.5-4.8-11.6-11-11.6Z"/>
</svg>