<?xml version="1.0" encoding="UTF-8"?>
<svg id="Layer_1" data-name="Layer 1" xmlns="http://www.w3.org/2000/svg" version="1.1" viewBox="0 0 364.2 67.6">
  <defs>
    <style>
      .cls-1 {
        fill: #ffbf3f;
        stroke-width: 0px;
      }
    </style>
  </defs>
  <path class="cls-1" d="M20.5,53.8H0V6.1h16.7c8.6,0,14.3,5.3,14.3,12.7s-1.4,6.7-4,9c5.6,1.8,8.9,6.3,8.9,12.1s-6.1,13.9-15.5,13.9ZM7.5,12.8v12.9h8.5c4.7,0,7.4-2.5,7.4-6.5s-2.7-6.4-7.4-6.4H7.5ZM19.8,32.2H7.5v14.8h12.3c5.3,0,8.4-2.8,8.4-7.4s-3.1-7.4-8.4-7.4Z"/>
  <path class="cls-1" d="M64.5,25h-2.3c-6,0-10.4,3.5-10.4,9.8v18.9h-7.6V18.3h7.1v4.6c2.5-3.2,6.3-5,10.3-5s2,.1,2.9.4v6.7Z"/>
  <path class="cls-1" d="M75.1,0c2.8,0,5.1,2.2,5.1,5.1s-2.3,5-5.1,5-5.2-2.2-5.2-5,2.3-5.1,5.2-5.1ZM71.3,18.3h7.6v35.5h-7.6V18.3Z"/>
  <path class="cls-1" d="M120.8,53.8h-7.6v-21.2c0-4.9-3.1-8.2-7.7-8.2s-8.1,3.4-8.1,8.2v21.2h-7.6V18.3h7.1v3.5c2.7-2.8,6.2-4.3,10.6-4.3,8.3,0,13.3,5.6,13.3,14.1v22.2Z"/>
  <path class="cls-1" d="M166.2,18.3v31.8c0,11.2-7,17.5-17.8,17.5s-12.8-2.7-17.1-6.7l4.2-5.3c4,3.2,7.6,5.1,12.4,5.1s10.6-3.5,10.6-10.1v-2.5c-2.7,3.3-7.1,5.1-12,5.1-9.9,0-17.3-7.4-17.3-17.8s7.4-17.8,17.3-17.8,10,2.2,12.6,5.9v-5.1h7ZM148,24.3c-3.1,0-5.6,1-7.7,3-2.1,2-3.1,4.7-3.1,8s1,6,3.1,8.1c2.1,2,4.6,3,7.7,3s5.4-.9,7.5-2.9c2.1-2,3.2-4.7,3.2-8.3,0-7.2-4.8-10.9-10.7-10.9Z"/>
  <path class="cls-1" d="M250.7,53.8h-7.7v-21.1c0-5-2.8-8.2-7.4-8.2s-7.8,3.3-7.8,7.9v21.5h-7.6v-21.1c0-4.9-2.9-8.2-7.4-8.2s-7.8,3.3-7.8,8.2v21.1h-7.6V18.3h7.1v3.3c2.5-2.6,6-4.1,10.3-4.1s8.7,2.1,10.8,5.6c2.6-3.4,7-5.6,12-5.6,8.2,0,13.2,5.6,13.2,14.1v22.2Z"/>
  <path class="cls-1" d="M277.8,17.5c10.3-.2,19.1,8.5,18.9,18.5.2,10-8.5,18.8-18.9,18.6-10.2.2-18.9-8.5-18.7-18.6-.2-10.2,8.5-18.6,18.7-18.5ZM277.8,24.4c-6.3,0-11.1,5.1-11.1,11.6s4.8,11.5,11,11.5,11.1-5.1,11.1-11.5-4.8-11.6-11-11.6Z"/>
  <path class="cls-1" d="M325.6,25h-2.3c-6,0-10.4,3.5-10.4,9.8v18.9h-7.6V18.3h7.1v4.6c2.5-3.2,6.3-5,10.3-5s2,.1,2.9.4v6.7Z"/>
  <path class="cls-1" d="M337.2,38.5c.9,5.8,5.5,9.3,11.6,9.3s7.2-1.4,10.3-4.2l3.6,5.2c-4,3.8-8.7,5.7-14.2,5.7-10.8,0-19.1-8-19.1-18.5-.2-10.2,8.3-18.8,18.4-18.6,9.4,0,16.4,7,16.4,16.3s-.2,3.1-.6,4.8h-26.5ZM356.6,32.6c0-5.4-4.1-8.7-9.1-8.7s-9,3.4-10.2,8.7h19.3Z"/>
</svg>