<?xml version="1.0" encoding="UTF-8"?>
<svg id="Layer_1" data-name="Layer 1" xmlns="http://www.w3.org/2000/svg" version="1.1" viewBox="0 0 310.8 45.1">
  <defs>
    <style>
      .cls-1 {
        fill: #ffbf3f;
        stroke-width: 0px;
      }
    </style>
  </defs>
  <path class="cls-1" d="M3.6,26.8c2.1,3.1,4.7,5.1,8.4,5.1s5.5-1.7,5.5-4.4-1.4-3.2-4.7-4.8l-3.5-1.6c-4.6-2.1-7.4-4.6-7.4-8.8S6.4,3.5,11.9,3.5s8.3,2.3,10.3,5.7l-3.6,2.8c-1.7-2.5-4-3.9-6.7-3.9s-4.8,1.4-4.8,3.9c.2,2.5,1.3,2.9,4.4,4.5l3.6,1.6c5.2,2.4,7.6,4.9,7.6,9.1s-4.5,9.2-10.7,9.2-9.6-2.6-12-6.9l3.6-2.8Z"/>
  <path class="cls-1" d="M42.9,35.9h-13.7V4.1h11.2c5.7,0,9.6,3.6,9.6,8.5s-.9,4.5-2.7,6c3.7,1.2,5.9,4.2,5.9,8.1s-4.1,9.3-10.3,9.3ZM34.3,8.5v8.6h5.6c3.1,0,4.9-1.7,4.9-4.3s-1.8-4.2-4.9-4.2h-5.6ZM42.5,21.5h-8.2v9.9h8.2c3.5,0,5.6-1.9,5.6-4.9s-2.1-5-5.6-5Z"/>
  <path class="cls-1" d="M77.7,30.6h-14.3l-2.3,5.3h-5.5L69.7,3.5h1.7l14,32.4h-5.5l-2.3-5.3ZM70.6,13l-5.4,13.2h10.7l-5.3-13.2Z"/>
  <path class="cls-1" d="M101.7,4.1h20.5v4.6h-15.4v9.5h12.6v4.6h-12.6v13.1h-5.1V4.1Z"/>
  <path class="cls-1" d="M129.5,0c1.9,0,3.4,1.5,3.4,3.4s-1.5,3.3-3.4,3.3-3.5-1.4-3.5-3.3,1.5-3.4,3.5-3.4ZM126.9,12.2h5.1v23.7h-5.1V12.2Z"/>
  <path class="cls-1" d="M160,35.9h-5.1v-14.1c0-3.3-2.1-5.5-5.2-5.5s-5.4,2.3-5.4,5.5v14.1h-5.1V12.2h4.7v2.3c1.8-1.9,4.2-2.8,7.1-2.8,5.6,0,8.9,3.8,8.9,9.4v14.8Z"/>
  <path class="cls-1" d="M185.9,35.9h-4.7v-2.7c-1.7,2.1-4.3,3.2-7.6,3.2-5,0-8.3-2.8-8.3-6.9s3.4-6.8,8.7-6.8h6.7v-1.5c0-3.3-1.8-5.1-5.1-5.1s-4.6,1.2-6.6,3.5l-2.9-3c2.4-3.4,5.9-5.1,10-5.1,5.8,0,9.7,3.5,9.7,9.9v14.3ZM180.8,26.5h-6.1c-2.7,0-4.2,1-4.2,2.9s1.7,3.1,4.2,3.1,6.1-2.4,6.1-5.6v-.4Z"/>
  <path class="cls-1" d="M213.7,35.9h-5.1v-14.1c0-3.3-2.1-5.5-5.2-5.5s-5.4,2.3-5.4,5.5v14.1h-5.1V12.2h4.7v2.3c1.8-1.9,4.2-2.8,7.1-2.8,5.6,0,8.9,3.8,8.9,9.4v14.8Z"/>
  <path class="cls-1" d="M231.8,11.7c4.4,0,7.9,2.1,10,5.5l-3.6,2.8c-1.7-2.4-3.8-3.6-6.4-3.6-4.2,0-7.4,3.4-7.4,7.7s3.2,7.7,7.4,7.7,4.6-1.2,6.4-3.6l3.6,2.8c-2.1,3.4-5.7,5.5-10,5.5-7,0-12.6-5.5-12.6-12.4-.1-6.8,5.7-12.5,12.6-12.4Z"/>
  <path class="cls-1" d="M249.9,0c1.9,0,3.4,1.5,3.4,3.4s-1.5,3.3-3.4,3.3-3.5-1.4-3.5-3.3,1.5-3.4,3.5-3.4ZM247.4,12.2h5.1v23.7h-5.1V12.2Z"/>
  <path class="cls-1" d="M280.5,35.9h-5.1v-14.1c0-3.3-2.1-5.5-5.2-5.5s-5.4,2.3-5.4,5.5v14.1h-5.1V12.2h4.7v2.3c1.8-1.9,4.2-2.8,7.1-2.8,5.6,0,8.9,3.8,8.9,9.4v14.8Z"/>
  <path class="cls-1" d="M310.8,12.2v21.2c0,7.5-4.7,11.7-11.9,11.7s-8.5-1.8-11.4-4.5l2.8-3.5c2.7,2.1,5.1,3.4,8.3,3.4s7.1-2.3,7.1-6.8v-1.7c-1.8,2.2-4.7,3.4-8,3.4-6.6,0-11.5-5-11.5-11.9s5-11.9,11.5-11.9,6.7,1.4,8.4,3.9v-3.4h4.7ZM298.6,16.2c-2.1,0-3.8.7-5.2,2-1.4,1.4-2.1,3.1-2.1,5.3s.7,4,2.1,5.4c1.4,1.4,3.1,2,5.2,2s3.6-.6,5-1.9c1.4-1.3,2.1-3.1,2.1-5.6,0-4.8-3.2-7.3-7.1-7.3Z"/>
</svg>