<?xml version="1.0" encoding="UTF-8"?>
<svg id="Layer_1" data-name="Layer 1" xmlns="http://www.w3.org/2000/svg" version="1.1" viewBox="0 0 279.7 36.7">
  <defs>
    <style>
      .cls-1 {
        fill: #ffbf3f;
        stroke-width: 0px;
      }
    </style>
  </defs>
  <path class="cls-1" d="M3.6,27.1c2.1,3.1,4.7,5.1,8.4,5.1s5.5-1.7,5.5-4.4-1.4-3.2-4.7-4.8l-3.5-1.6c-4.6-2.1-7.4-4.6-7.4-8.8S6.4,3.8,11.9,3.8s8.3,2.3,10.3,5.7l-3.6,2.8c-1.7-2.5-4-3.9-6.7-3.9s-4.8,1.4-4.8,3.9c.2,2.5,1.3,2.9,4.4,4.5l3.6,1.6c5.2,2.4,7.6,4.9,7.6,9.1s-4.5,9.2-10.7,9.2-9.6-2.6-12-6.9l3.6-2.8Z"/>
  <path class="cls-1" d="M39.9,12c6.9-.1,12.7,5.6,12.6,12.4.1,6.7-5.7,12.6-12.6,12.4-6.8.1-12.6-5.7-12.5-12.4-.1-6.8,5.7-12.5,12.5-12.4ZM40,16.6c-4.2,0-7.4,3.4-7.4,7.8s3.2,7.7,7.3,7.7,7.4-3.4,7.4-7.7-3.2-7.8-7.3-7.8Z"/>
  <path class="cls-1" d="M58.1,12.5h5v14.1c0,3.3,2.3,5.4,5.4,5.4s5.2-2.1,5.2-5.4v-14.1h5.1v13.8c0,6.4-4.5,10.5-10.3,10.5s-10.4-4.1-10.4-10.5v-13.8Z"/>
  <path class="cls-1" d="M99.9,36.2c-1.6.3-3,.5-4.2.5-5.5,0-8.7-2.7-8.7-8.3v-11.6h-3.9v-4.4h3.9v-6.2h5.1v6.2h7v4.4h-7v11.2c0,3,1.6,4.1,4.7,4.1s1.7,0,3.1-.2v4.3Z"/>
  <path class="cls-1" d="M125.8,36.2h-5.1v-14.1c0-3.3-2-5.5-5.2-5.5s-5.4,2.3-5.4,5.5v14.1h-5.1V0h5.1v14.9c1.6-1.9,4-2.9,6.9-2.9,5.4,0,8.8,3.8,8.8,9.4v14.8Z"/>
  <path class="cls-1" d="M134.5,27.1c2.1,3.1,4.7,5.1,8.4,5.1s5.5-1.7,5.5-4.4-1.4-3.2-4.7-4.8l-3.5-1.6c-4.6-2.1-7.4-4.6-7.4-8.8s4.5-8.6,10-8.6,8.3,2.3,10.3,5.7l-3.6,2.8c-1.7-2.5-4-3.9-6.7-3.9s-4.8,1.4-4.8,3.9c.2,2.5,1.3,2.9,4.4,4.5l3.6,1.6c5.2,2.4,7.6,4.9,7.6,9.1s-4.5,9.2-10.7,9.2-9.6-2.6-12-6.9l3.6-2.8Z"/>
  <path class="cls-1" d="M173.7,36.2c-1.6.3-3,.5-4.2.5-5.5,0-8.7-2.7-8.7-8.3v-11.6h-3.9v-4.4h3.9v-6.2h5.1v6.2h7v4.4h-7v11.2c0,3,1.6,4.1,4.7,4.1s1.7,0,3.1-.2v4.3Z"/>
  <path class="cls-1" d="M197.6,36.2h-4.7v-2.7c-1.7,2.1-4.3,3.2-7.6,3.2-5,0-8.3-2.8-8.3-6.9s3.4-6.8,8.7-6.8h6.7v-1.5c0-3.3-1.8-5.1-5.1-5.1s-4.6,1.2-6.6,3.5l-2.9-3c2.4-3.4,5.9-5.1,10-5.1,5.8,0,9.7,3.5,9.7,9.9v14.3ZM192.5,26.8h-6.1c-2.7,0-4.2,1-4.2,2.9s1.7,3.1,4.2,3.1,6.1-2.4,6.1-5.6v-.4Z"/>
  <path class="cls-1" d="M218.8,36.2c-1.6.3-3,.5-4.2.5-5.5,0-8.7-2.7-8.7-8.3v-11.6h-3.9v-4.4h3.9v-6.2h5.1v6.2h7v4.4h-7v11.2c0,3,1.6,4.1,4.7,4.1s1.7,0,3.1-.2v4.3Z"/>
  <path class="cls-1" d="M227.1,26c.6,3.9,3.7,6.2,7.7,6.2s4.8-.9,6.9-2.8l2.4,3.5c-2.7,2.6-5.8,3.8-9.5,3.8-7.2,0-12.7-5.4-12.7-12.4-.1-6.8,5.6-12.6,12.3-12.4,6.3,0,11,4.7,11,10.9s-.1,2.1-.4,3.2h-17.7ZM240.1,22.1c0-3.6-2.8-5.8-6.1-5.8s-6,2.3-6.8,5.8h12.9Z"/>
  <path class="cls-1" d="M251.5,4.3h5.8l-2.4,12.9h-3.9l.4-12.9Z"/>
  <path class="cls-1" d="M264.2,29c2.1,2.2,4.2,3.4,6.7,3.4s3.8-.9,3.8-2.7-1-2-3.3-2.9l-2.4-1c-4.2-1.7-6.2-3.6-6.2-6.9s3.5-6.9,8.4-6.9,6.1,1.2,8.2,3.7l-2.8,3.1c-1.5-1.5-3.5-2.4-5.6-2.4s-3.2.8-3.2,2.3.8,1.8,3.1,2.8l2.3.9c4.5,1.9,6.5,3.8,6.5,7.1s-.8,4.1-2.5,5.4c-1.7,1.3-3.8,1.9-6.3,1.9-4.1,0-7.4-1.8-9.6-4.6l2.9-3.2Z"/>
</svg>