<?xml version="1.0" encoding="UTF-8"?>
<svg id="Layer_1" data-name="Layer 1" xmlns="http://www.w3.org/2000/svg" version="1.1" viewBox="0 0 88.9 34.9">
  <defs>
    <style>
      .cls-1 {
        fill: #ffbf3f;
        stroke-width: 0px;
      }
    </style>
  </defs>
  <path class="cls-1" d="M36.6,12.1l-9.4,22.8h-1.3l-7.6-16.9-7.6,16.9h-1.2L0,12.1h3.8l6.5,16.5,7.4-17.1h1.3l7.5,16.9,6.3-16.4h3.8Z"/>
  <path class="cls-1" d="M43.5,1c1.4,0,2.6,1.1,2.6,2.6s-1.1,2.6-2.6,2.6-2.7-1.1-2.7-2.6,1.2-2.6,2.7-2.6ZM41.7,12.1h3.5v22.3h-3.5V12.1Z"/>
  <path class="cls-1" d="M65.2,34.4c-1.4.3-2.7.5-3.7.5-4.6,0-7.5-2.3-7.5-7.2v-12.4h-3.8v-3.2h3.8v-6.1h3.5v6.1h7v3.2h-7v12.2c0,3.2,1.6,4.3,4.7,4.3s1.8,0,3-.3v3Z"/>
  <path class="cls-1" d="M88.9,34.4h-3.5v-13.6c0-3.6-2.1-6-5.5-6s-5.9,2.5-5.9,6v13.6h-3.5V0h3.5v14.6c1.5-1.9,3.9-3,6.7-3,5.1,0,8.3,3.5,8.3,8.8v14Z"/>
</svg>