<?xml version="1.0" encoding="UTF-8"?>
<svg id="Layer_1" data-name="Layer 1" xmlns="http://www.w3.org/2000/svg" version="1.1" viewBox="0 0 261.8 36.7">
  <defs>
    <style>
      .cls-1 {
        fill: #ffbf3f;
        stroke-width: 0px;
      }
    </style>
  </defs>
  <path class="cls-1" d="M16.8,3.8c5.8,0,10.9,2.8,13.7,7.3l-3.9,2.8c-2.3-3.5-5.6-5.5-9.8-5.5-6.5,0-11.5,5-11.5,11.8s5,11.8,11.5,11.8,7.5-2,9.8-5.5l3.9,2.8c-2.7,4.5-7.7,7.3-13.7,7.3C7.7,36.9-.2,29.4,0,20.3-.2,11.2,7.7,3.7,16.8,3.8Z"/>
  <path class="cls-1" d="M36,12.5h5v14.1c0,3.3,2.3,5.4,5.4,5.4s5.2-2.1,5.2-5.4v-14.1h5.1v13.8c0,6.4-4.5,10.5-10.3,10.5s-10.4-4.1-10.4-10.5v-13.8Z"/>
  <path class="cls-1" d="M64.4,29c2.1,2.2,4.2,3.4,6.7,3.4s3.8-.9,3.8-2.7-1-2-3.3-2.9l-2.4-1c-4.2-1.7-6.2-3.6-6.2-6.9s3.5-6.9,8.4-6.9,6.1,1.2,8.2,3.7l-2.8,3.1c-1.5-1.5-3.5-2.4-5.6-2.4s-3.2.8-3.2,2.3.8,1.8,3.1,2.8l2.3.9c4.5,1.9,6.5,3.8,6.5,7.1s-.8,4.1-2.5,5.4c-1.7,1.3-3.8,1.9-6.3,1.9-4.1,0-7.4-1.8-9.6-4.6l2.9-3.2Z"/>
  <path class="cls-1" d="M99.8,36.2c-1.6.3-3,.5-4.2.5-5.5,0-8.7-2.7-8.7-8.3v-11.6h-3.9v-4.4h3.9v-6.2h5.1v6.2h7v4.4h-7v11.2c0,3,1.6,4.1,4.7,4.1s1.7,0,3.1-.2v4.3Z"/>
  <path class="cls-1" d="M115.5,12c6.9-.1,12.7,5.6,12.6,12.4.1,6.7-5.7,12.6-12.6,12.4-6.8.1-12.6-5.7-12.5-12.4-.1-6.8,5.7-12.5,12.5-12.4ZM115.5,16.6c-4.2,0-7.4,3.4-7.4,7.8s3.2,7.7,7.3,7.7,7.4-3.4,7.4-7.7-3.2-7.8-7.3-7.8Z"/>
  <path class="cls-1" d="M169.4,36.2h-5.1v-14.1c0-3.3-1.9-5.5-4.9-5.5s-5.2,2.2-5.2,5.3v14.3h-5.1v-14.1c0-3.3-1.9-5.5-5-5.5s-5.2,2.2-5.2,5.5v14.1h-5.1V12.5h4.7v2.2c1.7-1.7,4-2.8,6.9-2.8s5.8,1.4,7.2,3.7c1.7-2.3,4.7-3.7,8-3.7,5.5,0,8.8,3.8,8.8,9.4v14.8Z"/>
  <path class="cls-1" d="M179,.3c1.9,0,3.4,1.5,3.4,3.4s-1.5,3.3-3.4,3.3-3.5-1.4-3.5-3.3,1.5-3.4,3.5-3.4ZM176.5,12.5h5.1v23.7h-5.1V12.5Z"/>
  <path class="cls-1" d="M206.4,31.8v4.4h-20.1v-1.4l12.4-17.9h-11.3v-4.4h18.9v1.4l-12.5,17.9h12.6Z"/>
  <path class="cls-1" d="M214.8,26c.6,3.9,3.7,6.2,7.7,6.2s4.8-.9,6.9-2.8l2.4,3.5c-2.7,2.6-5.8,3.8-9.5,3.8-7.2,0-12.7-5.4-12.7-12.4-.1-6.8,5.6-12.6,12.3-12.4,6.3,0,11,4.7,11,10.9s-.1,2.1-.4,3.2h-17.7ZM227.8,22.1c0-3.6-2.8-5.8-6.1-5.8s-6,2.3-6.8,5.8h12.9Z"/>
  <path class="cls-1" d="M261.8,0v36.2h-4.7v-3.4c-1.7,2.5-4.8,3.9-8.3,3.9-6.7,0-11.6-5.4-11.6-12.4-.1-6.9,5-12.6,11.6-12.4,3.3,0,6.1,1.3,7.9,3.4V0h5.1ZM249.6,16.6c-4.1,0-7.3,3.2-7.3,7.7s3.1,7.8,7.3,7.8,7.1-2.6,7.1-7.7-3.5-7.8-7.1-7.8Z"/>
</svg>