<?xml version="1.0" encoding="UTF-8"?>
<svg id="Layer_1" data-name="Layer 1" xmlns="http://www.w3.org/2000/svg" version="1.1" viewBox="0 0 487.2 30.1">
  <defs>
    <style>
      .cls-1 {
        fill: #fff;
        stroke-width: 0px;
      }
    </style>
  </defs>
  <path class="cls-1" d="M13.6,3.1c4.6,0,8.6,2.2,10.8,5.6l-2.3,1.8c-2-2.9-4.9-4.6-8.5-4.6-5.9,0-10.4,4.6-10.4,10.7s4.5,10.7,10.4,10.7,6.5-1.7,8.5-4.6l2.3,1.8c-2.2,3.4-6.2,5.6-10.8,5.6C6.2,30.3-.2,24.1,0,16.6-.2,9.1,6.2,3,13.6,3.1Z"/>
  <path class="cls-1" d="M38.1,10c5.5,0,10.2,4.6,10.1,10.1.1,5.4-4.6,10.2-10.1,10.1-5.5.1-10.1-4.6-10.1-10.1-.1-5.5,4.6-10.2,10.1-10.1ZM38.1,12.8c-4,0-7,3.1-7,7.3s3,7.2,6.9,7.2,7-3.2,7-7.2-3-7.3-7-7.3Z"/>
  <path class="cls-1" d="M81.7,29.7h-3v-11.7c0-3.1-1.7-5.2-4.6-5.2s-4.9,2.2-4.9,4.9v12h-3v-11.7c0-3.1-1.8-5.2-4.6-5.2s-4.9,2.1-4.9,5.2v11.7h-3V10.4h2.9v2c1.4-1.6,3.4-2.5,5.7-2.5s4.8,1.2,5.9,3.3c1.4-2,3.8-3.3,6.6-3.3,4.4,0,7,3,7,7.6v12.1Z"/>
  <path class="cls-1" d="M89.9,21c.4,3.8,3.3,6.3,7.1,6.3s4.2-.9,5.9-2.6l1.8,2.1c-2,2.1-4.7,3.4-7.7,3.4-5.7,0-10.2-4.4-10.2-10.1s4.4-10.1,9.9-10.1,8.8,3.6,8.8,8.7,0,1.5-.2,2.3h-15.2ZM102.3,18.3c0-3.4-2.5-5.5-5.7-5.5s-5.8,2.2-6.5,5.5h12.2Z"/>
  <path class="cls-1" d="M137.6,10.4l-9.1,19.7h-1.1l-9.1-19.7h3.2l6.4,14.5,6.4-14.5h3.2Z"/>
  <path class="cls-1" d="M143.5.8c1.2,0,2.3,1,2.3,2.2s-1,2.2-2.3,2.2-2.3-1-2.3-2.2,1-2.2,2.3-2.2ZM142,10.4h3v19.3h-3V10.4Z"/>
  <path class="cls-1" d="M151.9,24.4c1.9,1.9,3.4,3,5.5,3s3.7-1,3.7-2.7-1-2.1-3.4-3.1l-1.9-.8c-3.2-1.3-4.8-2.8-4.8-5.3s2.8-5.4,6.5-5.4,4.9,1.1,6.5,3l-1.9,1.9c-1.3-1.3-3-2.1-4.8-2.1s-3.2.9-3.2,2.4.8,1.8,3.1,2.8l1.8.8c3.6,1.5,5.1,3,5.1,5.7s-.7,3.2-2,4.2c-1.3,1-2.9,1.5-4.8,1.5-3.2,0-5.8-1.5-7.5-3.8l1.9-2Z"/>
  <path class="cls-1" d="M171.3.8c1.2,0,2.3,1,2.3,2.2s-1,2.2-2.3,2.2-2.3-1-2.3-2.2,1-2.2,2.3-2.2ZM169.7,10.4h3v19.3h-3V10.4Z"/>
  <path class="cls-1" d="M190,29.7c-1.2.3-2.3.4-3.2.4-4,0-6.5-2-6.5-6.3v-10.7h-3.2v-2.7h3.2v-5.3h3v5.3h6v2.7h-6v10.5c0,2.7,1.4,3.7,4.1,3.7s1.6,0,2.6-.2v2.6Z"/>
  <path class="cls-1" d="M205.4,10.4h3v11.8c0,3.1,2.1,5.1,5,5.1s4.9-2.1,4.9-5.1v-11.8h3v11.6c0,4.9-3.5,8.1-8,8.1s-8-3.2-8-8.1v-11.6Z"/>
  <path class="cls-1" d="M227.9,24.4c1.9,1.9,3.4,3,5.5,3s3.7-1,3.7-2.7-1-2.1-3.4-3.1l-1.9-.8c-3.2-1.3-4.8-2.8-4.8-5.3s2.8-5.4,6.5-5.4,4.9,1.1,6.5,3l-1.9,1.9c-1.3-1.3-3-2.1-4.8-2.1s-3.2.9-3.2,2.4.8,1.8,3.1,2.8l1.8.8c3.6,1.5,5.1,3,5.1,5.7s-.7,3.2-2,4.2c-1.3,1-2.9,1.5-4.8,1.5-3.2,0-5.8-1.5-7.5-3.8l1.9-2Z"/>
  <path class="cls-1" d="M271.3,29.7h-2.9v-2.5c-1.4,1.9-3.7,2.9-6.5,2.9s-6.7-2.1-6.7-5.4,2.8-5.4,6.9-5.4h6.1v-1.7c0-3.2-1.8-4.9-4.7-4.9s-4,1-5.6,3.1l-2-1.7c1.7-2.9,4.6-4.2,7.8-4.2,4.6,0,7.5,2.8,7.5,7.8v11.9ZM268.3,21.8h-5.7c-2.7,0-4.2,1-4.2,2.7s1.7,3,4,3,5.9-2.3,5.9-5.3v-.5Z"/>
  <path class="cls-1" d="M288.3,29.7c-1.2.3-2.3.4-3.2.4-4,0-6.5-2-6.5-6.3v-10.7h-3.2v-2.7h3.2v-5.3h3v5.3h6v2.7h-6v10.5c0,2.7,1.4,3.7,4.1,3.7s1.6,0,2.6-.2v2.6Z"/>
  <path class="cls-1" d="M314.1,30.1c-3,0-5.9-1.3-7.3-3.5v3h-2.9V0h3v13.2c1.5-2,4.2-3.2,7.1-3.2,5.4,0,9.5,4.4,9.5,10.1s-4.1,10.1-9.5,10.1ZM313.7,12.8c-3.6,0-6.7,2.4-6.7,7.3s3.2,7.2,6.7,7.2,6.9-3.1,6.9-7.3-2.9-7.2-6.9-7.2Z"/>
  <path class="cls-1" d="M337.7,10c5.5,0,10.2,4.6,10.1,10.1.1,5.4-4.6,10.2-10.1,10.1-5.5.1-10.1-4.6-10.1-10.1-.1-5.5,4.6-10.2,10.1-10.1ZM337.7,12.8c-4,0-7,3.1-7,7.3s3,7.2,6.9,7.2,7-3.2,7-7.2-3-7.3-7-7.3Z"/>
  <path class="cls-1" d="M361.8,10c5.5,0,10.2,4.6,10.1,10.1.1,5.4-4.6,10.2-10.1,10.1-5.5.1-10.1-4.6-10.1-10.1-.1-5.5,4.6-10.2,10.1-10.1ZM361.8,12.8c-4,0-7,3.1-7,7.3s3,7.2,6.9,7.2,7-3.2,7-7.2-3-7.3-7-7.3Z"/>
  <path class="cls-1" d="M387.8,29.7c-1.2.3-2.3.4-3.2.4-4,0-6.5-2-6.5-6.3v-10.7h-3.2v-2.7h3.2v-5.3h3v5.3h6v2.7h-6v10.5c0,2.7,1.4,3.7,4.1,3.7s1.6,0,2.6-.2v2.6Z"/>
  <path class="cls-1" d="M408.3,29.7h-3v-11.7c0-3.1-1.8-5.2-4.8-5.2s-5.1,2.2-5.1,5.2v11.7h-3V0h3v12.6c1.3-1.6,3.4-2.6,5.8-2.6,4.4,0,7.1,3,7.1,7.6v12.1Z"/>
  <path class="cls-1" d="M441.2,13l-1,7.2h3.9v2.6h-4.2l-1,6.9h-2.6l.9-6.9h-7.6l-1,6.9h-2.6l.9-6.9h-3.5v-2.6h3.8l1-7.2h-3.8v-2.6h4.2l.9-6.9h2.7l-1,6.9h7.6l.9-6.9h2.7l-1,6.9h3.5v2.6h-3.8ZM437.6,20.2l1-7.2h-7.6l-1,7.2h7.6Z"/>
  <path class="cls-1" d="M456,30.1c-4,0-7.1-2.3-8.9-5.4l2.2-1.5c1.7,2.5,3.7,4.1,6.7,4.1s6.1-2.3,6.1-5.8-2.4-5.4-6.6-5.4h-2.6v-.9l6.8-8.8h-10.8v-2.9h15.7v.9l-6.9,8.9c4,.4,7.6,3.2,7.6,8s-4.3,8.7-9.3,8.7Z"/>
  <path class="cls-1" d="M478.3,30.1c-4.9,0-8.9-3.8-8.9-8.8s.2-2.5.7-3.6c.5-1.1,1.3-2.4,2.3-3.9.3-.3.4-.6.6-.8l6.5-9.4h3.7l-6.7,9.6c.6-.2,1.3-.4,2.2-.4,4.6,0,8.5,3.8,8.5,8.6s-4,8.8-8.9,8.8ZM478.3,15.4c-3.3,0-5.9,2.7-5.9,5.9s2.6,6,5.9,6,5.9-2.7,5.9-6-2.6-5.9-5.9-5.9Z"/>
</svg>