<?xml version="1.0" encoding="UTF-8"?>
<svg id="Layer_1" data-name="Layer 1" xmlns="http://www.w3.org/2000/svg" xmlns:xlink="http://www.w3.org/1999/xlink" version="1.1" viewBox="0 0 229 51.6">
  <defs>
    <style>
      .cls-1 {
        clip-path: url(#clippath);
      }

      .cls-2 {
        fill: none;
      }

      .cls-2, .cls-3, .cls-4 {
        stroke-width: 0px;
      }

      .cls-3 {
        fill: #002d72;
      }

      .cls-4 {
        fill: #ffbf3f;
      }
    </style>
    <clipPath id="clippath">
      <rect class="cls-2" width="229" height="51.6"/>
    </clipPath>
  </defs>
  <g class="cls-1">
    <path class="cls-4" d="M7.9,0C3.5,0,0,3.5,0,7.8v36c0,4.3,3.5,7.8,7.9,7.8h213.3c4.3,0,7.9-3.5,7.9-7.8V7.8c-.1-4.3-3.6-7.8-7.9-7.8H7.9Z"/>
  </g>
  <g>
    <path class="cls-3" d="M35.4,16.2h3.4v17.8h9.5v3h-12.9s0-20.8,0-20.8Z"/>
    <path class="cls-3" d="M53.8,30.4c.4,2.5,2.3,4,5.1,4s3.1-.7,4.6-1.8l1.6,2.2c-1.8,1.7-3.8,2.5-6.3,2.5-4.7,0-8.3-3.5-8.3-8.1s3.6-8.2,8.1-8.1c4.2,0,7.2,3.1,7.2,7.2s0,1.3-.3,2.1c0,0-11.6,0-11.6,0ZM62.3,27.7c0-2.3-1.8-3.8-4-3.8s-3.9,1.4-4.4,3.8h8.5Z"/>
    <path class="cls-3" d="M81.7,37h-3.1v-1.7c-1.2,1.3-2.9,2.1-5,2.1-3.3,0-5.5-1.8-5.5-4.4s2.2-4.4,5.7-4.4h4.4v-1c0-2.2-1.2-3.3-3.3-3.3s-3,.8-4.3,2.3l-2-2c1.6-2.2,3.9-3.3,6.5-3.3,3.8,0,6.4,2.3,6.4,6.5v9.4-.3ZM78.4,30.9h-4c-1.8,0-2.7.7-2.7,2s1,2.1,2.7,2.1,4-1.6,4-3.6v-.3h0Z"/>
    <path class="cls-3" d="M95.2,24.4h-1c-2.6,0-4.6,1.6-4.6,4.3v8.3h-3.3v-15.5h3.1v2.1c1-1.4,2.7-2.2,4.6-2.2s.9,0,1.3.1v3h-.1Z"/>
    <path class="cls-3" d="M111.8,37h-3.3v-9.2c0-2.1-1.3-3.6-3.4-3.6s-3.5,1.4-3.5,3.6v9.2h-3.3v-15.5h3.1v1.6c1.2-1.2,2.7-1.8,4.7-1.8,3.6,0,5.9,2.5,5.9,6.1v9.8h-.3Z"/>
    <path class="cls-3" d="M145.4,15.8v21.2h-3.4v-13.2l-6,7.8h-1.2l-6-7.8v13.2h-3.4V15.8h1.2l8.7,11.7,8.7-11.7h1.3Z"/>
    <path class="cls-3" d="M157.4,21.1c4.6,0,8.3,3.6,8.2,8.1,0,4.4-3.8,8.2-8.2,8.1-4.4,0-8.3-3.8-8.2-8.1,0-4.4,3.8-8.2,8.2-8.1ZM157.5,24.1c-2.7,0-4.8,2.2-4.8,5.1s2.1,5.1,4.8,5.1,4.8-2.2,4.8-5.1-2.1-5.1-4.8-5.1Z"/>
    <path class="cls-3" d="M178.3,24.4h-1c-2.6,0-4.6,1.6-4.6,4.3v8.3h-3.3v-15.5h3.1v2.1c1-1.4,2.7-2.2,4.6-2.2s.9,0,1.3.1v3h-.1Z"/>
    <path class="cls-3" d="M183.4,30.4c.4,2.5,2.3,4,5.1,4s3.1-.7,4.6-1.8l1.6,2.2c-1.8,1.7-3.8,2.5-6.3,2.5-4.7,0-8.3-3.5-8.3-8.1s3.6-8.2,8.1-8.1c4.2,0,7.2,3.1,7.2,7.2s0,1.3-.3,2.1c0,0-11.6,0-11.6,0ZM191.9,27.7c0-2.3-1.8-3.8-4-3.8s-3.9,1.4-4.4,3.8h8.5Z"/>
  </g>
</svg>