<?xml version="1.0" encoding="UTF-8"?>
<svg id="Layer_1" data-name="Layer 1" xmlns="http://www.w3.org/2000/svg" version="1.1" viewBox="0 0 127.2 34">
  <defs>
    <style>
      .cls-1 {
        fill: #fff;
        stroke-width: 0px;
      }
    </style>
  </defs>
  <path class="cls-1" d="M15.8,2.7c5.1,0,9.6,2.3,12.4,6.2l-2.7,2.1c-2.3-3.2-5.6-5-9.7-5-6.9-.1-12.2,5.5-12,12.3-.1,6.9,5.2,12.6,12.2,12.5,4.4,0,8-2.1,10.1-5.4v-4.1h-10.3v-3.2h13.9v8.1c-1.3,2.4-3.3,4.3-5.7,5.7-2.4,1.4-5.1,2.1-8.1,2.1C7.1,34.1-.1,27,0,18.3-.1,9.7,7.1,2.5,15.8,2.7Z"/>
  <path class="cls-1" d="M52.8,33.5h-3.3v-2.9c-1.7,2.2-4.3,3.4-7.5,3.4s-7.8-2.4-7.8-6.3,3.2-6.2,8-6.2h7.1v-1.9c0-3.7-2.1-5.7-5.4-5.7s-4.7,1.2-6.5,3.6l-2.3-1.9c2-3.3,5.4-4.9,9.1-4.9,5.3,0,8.7,3.2,8.7,9.1v13.8ZM49.2,24.4h-6.7c-3.1,0-4.8,1.1-4.8,3.2s2,3.5,4.6,3.5,6.8-2.7,6.8-6.2v-.6Z"/>
  <path class="cls-1" d="M62,0c1.4,0,2.6,1.1,2.6,2.6s-1.1,2.6-2.6,2.6-2.7-1.1-2.7-2.6,1.2-2.6,2.7-2.6ZM60.3,11.1h3.5v22.4h-3.5V11.1Z"/>
  <path class="cls-1" d="M90.1,33.5h-3.5v-13.6c0-3.5-2.1-6-5.6-6s-5.9,2.5-5.9,6v13.6h-3.5V11.1h3.3v2.4c1.7-1.8,4.1-2.9,6.9-2.9,5.2,0,8.3,3.5,8.3,8.8v14.1Z"/>
  <path class="cls-1" d="M127.2,33.5h-3.3v-2.9c-1.7,2.2-4.3,3.4-7.5,3.4s-7.8-2.4-7.8-6.3,3.2-6.2,8-6.2h7.1v-1.9c0-3.7-2.1-5.7-5.4-5.7s-4.7,1.2-6.5,3.6l-2.3-1.9c2-3.3,5.4-4.9,9.1-4.9,5.3,0,8.7,3.2,8.7,9.1v13.8ZM123.7,24.4h-6.7c-3.1,0-4.8,1.1-4.8,3.2s2,3.5,4.6,3.5,6.8-2.7,6.8-6.2v-.6Z"/>
</svg>