<?xml version="1.0" encoding="UTF-8"?>
<svg id="Layer_1" data-name="Layer 1" xmlns="http://www.w3.org/2000/svg" version="1.1" viewBox="0 0 175.2 35">
  <defs>
    <style>
      .cls-1 {
        fill: #fff;
        stroke-width: 0px;
      }
    </style>
  </defs>
  <path class="cls-1" d="M36.7,12.1l-9.4,22.9h-1.3l-7.6-16.9-7.6,16.9h-1.2L0,12.1h3.8l6.5,16.6,7.4-17.1h1.3l7.5,17,6.3-16.5h3.8Z"/>
  <path class="cls-1" d="M43.6,1c1.4,0,2.6,1.1,2.6,2.6s-1.1,2.6-2.6,2.6-2.7-1.1-2.7-2.6,1.2-2.6,2.7-2.6ZM41.8,12.1h3.5v22.4h-3.5V12.1Z"/>
  <path class="cls-1" d="M65.4,34.5c-1.4.3-2.7.5-3.7.5-4.6,0-7.5-2.3-7.5-7.3v-12.5h-3.8v-3.2h3.8v-6.1h3.5v6.1h7v3.2h-7v12.2c0,3.2,1.7,4.3,4.7,4.3s1.8,0,3-.3v3Z"/>
  <path class="cls-1" d="M89.2,34.5h-3.5v-13.6c0-3.6-2.1-6-5.6-6s-5.9,2.5-5.9,6v13.6h-3.5V0h3.5v14.6c1.5-1.9,3.9-3,6.7-3,5.1,0,8.3,3.5,8.3,8.8v14.1Z"/>
  <path class="cls-1" d="M119.6,11.6c6.4,0,11.9,5.3,11.7,11.7.1,6.3-5.4,11.8-11.8,11.7-6.4.1-11.8-5.4-11.7-11.7-.1-6.4,5.3-11.8,11.7-11.7ZM119.6,14.8c-4.6,0-8.1,3.6-8.1,8.5s3.5,8.4,8,8.4,8.1-3.7,8.1-8.4-3.5-8.5-8.1-8.5Z"/>
  <path class="cls-1" d="M137.3,12.1h3.5v13.7c0,3.6,2.5,5.9,5.8,5.9s5.7-2.4,5.7-5.9v-13.7h3.5v13.5c0,5.7-4,9.4-9.2,9.4s-9.3-3.8-9.3-9.4v-13.5Z"/>
  <path class="cls-1" d="M175.2,15.2h-1.3c-3.8,0-7,2.4-7,6.6v12.7h-3.5V12.1h3.3v3.2c1.6-2.2,4.2-3.4,6.9-3.4s1.1,0,1.7.2v3.1Z"/>
</svg>