<?xml version="1.0" encoding="UTF-8"?>
<svg id="Layer_1" data-name="Layer 1" xmlns="http://www.w3.org/2000/svg" version="1.1" viewBox="0 0 404.8 43.8">
  <defs>
    <style>
      .cls-1 {
        fill: #fff;
        stroke-width: 0px;
      }
    </style>
  </defs>
  <path class="cls-1" d="M6.8,12.6h5.6v3.2h-5.6v19.2h-3.5V15.8H0v-3.2h3.2v-5.3C3.2,2.3,6.1,0,10.6,0s1.9.1,2.8.4v3c-.7,0-1.4-.1-2-.1-3,0-4.7,1.1-4.7,4.3v5.1ZM19.1,1.5c1.4,0,2.6,1.1,2.6,2.6s-1.1,2.6-2.6,2.6-2.7-1.1-2.7-2.6,1.2-2.6,2.7-2.6ZM17.3,12.6h3.5v22.4h-3.5V12.6Z"/>
  <path class="cls-1" d="M47.1,35h-3.5v-13.6c0-3.5-2.1-6-5.6-6s-5.9,2.5-5.9,6v13.6h-3.5V12.6h3.3v2.4c1.7-1.8,4.1-2.9,6.9-2.9,5.2,0,8.3,3.5,8.3,8.8v14.1Z"/>
  <path class="cls-1" d="M71.4,35h-3.3v-2.9c-1.7,2.2-4.3,3.4-7.5,3.4s-7.8-2.4-7.8-6.3,3.2-6.3,8-6.3h7.1v-1.9c0-3.7-2.1-5.7-5.4-5.7s-4.7,1.2-6.5,3.6l-2.3-1.9c2-3.3,5.4-4.9,9.1-4.9,5.3,0,8.7,3.2,8.7,9.1v13.8ZM67.8,25.8h-6.7c-3.1,0-4.8,1.1-4.8,3.2s2,3.5,4.6,3.5,6.8-2.7,6.8-6.2v-.6Z"/>
  <path class="cls-1" d="M97.4,35h-3.5v-13.6c0-3.5-2.1-6-5.6-6s-5.9,2.5-5.9,6v13.6h-3.5V12.6h3.3v2.4c1.7-1.8,4.1-2.9,6.9-2.9,5.2,0,8.3,3.5,8.3,8.8v14.1Z"/>
  <path class="cls-1" d="M115,12.1c3.9,0,7.2,1.9,9.2,4.9l-2.5,2c-1.8-2.4-4-3.6-6.7-3.6-4.6,0-8.1,3.8-8.1,8.4s3.5,8.5,8.1,8.5,4.8-1.2,6.6-3.6l2.5,2c-2,3-5.3,4.9-9.2,4.9-6.5,0-11.7-5.2-11.7-11.7-.1-6.4,5.3-11.8,11.7-11.7Z"/>
  <path class="cls-1" d="M132,1.5c1.4,0,2.6,1.1,2.6,2.6s-1.1,2.6-2.6,2.6-2.7-1.1-2.7-2.6,1.2-2.6,2.7-2.6ZM130.2,12.6h3.5v22.4h-3.5V12.6Z"/>
  <path class="cls-1" d="M160,35h-3.5v-13.6c0-3.5-2.1-6-5.6-6s-5.9,2.5-5.9,6v13.6h-3.5V12.6h3.3v2.4c1.7-1.8,4.1-2.9,6.9-2.9,5.2,0,8.3,3.5,8.3,8.8v14.1Z"/>
  <path class="cls-1" d="M189,12.6v20.2c0,6.8-4.3,10.9-10.9,10.9s-8-1.8-10.5-4.3l2.1-2.5c2.5,2.2,5,3.5,8.4,3.5s7.4-2.7,7.4-7.5v-2c-1.8,2.3-5,3.7-8.3,3.7-6.3,0-11-4.8-11-11.3s4.7-11.4,11-11.4,6.8,1.5,8.5,4.1v-3.6h3.4ZM177.7,15.4c-4.5,0-8,3.4-8,8s3.4,8,8,8,7.8-2.6,7.8-8-3.8-8-7.8-8Z"/>
  <path class="cls-1" d="M209.8,28.8c2.2,2.2,3.9,3.4,6.4,3.4s4.3-1.2,4.3-3.2-1.1-2.5-3.9-3.6l-2.2-.9c-3.7-1.5-5.6-3.2-5.6-6.2s3.3-6.3,7.5-6.3,5.7,1.3,7.5,3.5l-2.2,2.2c-1.5-1.5-3.4-2.5-5.5-2.5s-3.7,1-3.7,2.8.9,2.1,3.6,3.3l2.1.9c4.2,1.8,5.9,3.5,5.9,6.6s-.8,3.7-2.3,4.9c-1.5,1.1-3.4,1.7-5.6,1.7-3.7,0-6.8-1.8-8.7-4.4l2.3-2.3Z"/>
  <path class="cls-1" d="M240.6,12.1c6.4,0,11.9,5.3,11.7,11.7.1,6.3-5.4,11.8-11.8,11.7-6.4.1-11.8-5.4-11.7-11.7-.1-6.4,5.3-11.8,11.7-11.7ZM240.6,15.4c-4.6,0-8.1,3.6-8.1,8.5s3.5,8.4,8,8.4,8.1-3.7,8.1-8.4-3.5-8.5-8.1-8.5Z"/>
  <path class="cls-1" d="M258.6.5h3.5v34.5h-3.5V.5Z"/>
  <path class="cls-1" d="M269.6,12.6h3.5v13.7c0,3.6,2.5,5.9,5.8,5.9s5.7-2.4,5.7-5.9v-13.7h3.5v13.5c0,5.7-4,9.4-9.2,9.4s-9.3-3.8-9.3-9.4v-13.5Z"/>
  <path class="cls-1" d="M307.8,35c-1.4.3-2.7.5-3.7.5-4.6,0-7.5-2.3-7.5-7.3v-12.5h-3.8v-3.2h3.8v-6.1h3.5v6.1h7v3.2h-7v12.2c0,3.2,1.7,4.3,4.7,4.3s1.8,0,3-.3v3Z"/>
  <path class="cls-1" d="M314.9,1.5c1.4,0,2.6,1.1,2.6,2.6s-1.1,2.6-2.6,2.6-2.7-1.1-2.7-2.6,1.2-2.6,2.7-2.6ZM313.1,12.6h3.5v22.4h-3.5V12.6Z"/>
  <path class="cls-1" d="M334.5,12.1c6.4,0,11.9,5.3,11.7,11.7.1,6.3-5.4,11.8-11.8,11.7-6.4.1-11.8-5.4-11.7-11.7-.1-6.4,5.3-11.8,11.7-11.7ZM334.5,15.4c-4.6,0-8.1,3.6-8.1,8.5s3.5,8.4,8,8.4,8.1-3.7,8.1-8.4-3.5-8.5-8.1-8.5Z"/>
  <path class="cls-1" d="M371,35h-3.5v-13.6c0-3.5-2.1-6-5.6-6s-5.9,2.5-5.9,6v13.6h-3.5V12.6h3.3v2.4c1.7-1.8,4.1-2.9,6.9-2.9,5.2,0,8.3,3.5,8.3,8.8v14.1Z"/>
  <path class="cls-1" d="M378.6,28.8c2.2,2.2,3.9,3.4,6.4,3.4s4.3-1.2,4.3-3.2-1.1-2.5-3.9-3.6l-2.2-.9c-3.7-1.5-5.6-3.2-5.6-6.2s3.3-6.3,7.5-6.3,5.7,1.3,7.5,3.5l-2.2,2.2c-1.5-1.5-3.4-2.5-5.5-2.5s-3.7,1-3.7,2.8.9,2.1,3.6,3.3l2.1.9c4.2,1.8,5.9,3.5,5.9,6.6s-.8,3.7-2.3,4.9c-1.5,1.1-3.4,1.7-5.6,1.7-3.7,0-6.8-1.8-8.7-4.4l2.3-2.3Z"/>
  <path class="cls-1" d="M401.9,29.7c1.6,0,2.9,1.2,2.9,2.9s-1.3,2.9-2.9,2.9-2.9-1.2-2.9-2.9,1.3-2.9,2.9-2.9Z"/>
</svg>