<?xml version="1.0" encoding="UTF-8"?>
<svg id="Layer_1" data-name="Layer 1" xmlns="http://www.w3.org/2000/svg" version="1.1" viewBox="0 0 604 55.7">
  <defs>
    <style>
      .cls-1 {
        fill: #ffbf3f;
        stroke-width: 0px;
      }
    </style>
  </defs>
  <path class="cls-1" d="M4.5,33.6c2.6,3.8,5.8,6.3,10.4,6.3s6.8-2.2,6.8-5.5-1.7-4-5.8-5.9l-4.4-2c-5.8-2.6-9.2-5.7-9.2-11S7.9,4.7,14.7,4.7s10.3,2.8,12.8,7.1l-4.4,3.4c-2.1-3.1-5-4.8-8.3-4.8s-6,1.7-6,4.8c.2,3.1,1.6,3.7,5.5,5.6l4.4,2c6.4,2.9,9.5,6.1,9.5,11.3s-5.6,11.4-13.2,11.4-11.9-3.2-14.9-8.6l4.5-3.4Z"/>
  <path class="cls-1" d="M40.4,32.3c.8,4.8,4.6,7.7,9.6,7.7s5.9-1.1,8.6-3.5l3,4.3c-3.4,3.2-7.3,4.7-11.7,4.7-9,0-15.8-6.7-15.8-15.3-.2-8.4,6.9-15.6,15.2-15.4,7.8,0,13.6,5.8,13.6,13.5s-.2,2.6-.5,4h-21.9ZM56.6,27.4c0-4.5-3.4-7.2-7.6-7.2s-7.5,2.8-8.4,7.2h16Z"/>
  <path class="cls-1" d="M74.6,32.3c.8,4.8,4.6,7.7,9.6,7.7s5.9-1.1,8.6-3.5l3,4.3c-3.4,3.2-7.3,4.7-11.7,4.7-9,0-15.8-6.7-15.8-15.3-.2-8.4,6.9-15.6,15.2-15.4,7.8,0,13.6,5.8,13.6,13.5s-.2,2.6-.5,4h-21.9ZM90.7,27.4c0-4.5-3.4-7.2-7.6-7.2s-7.5,2.8-8.4,7.2h16Z"/>
  <path class="cls-1" d="M146.7,44.9h-6.3v-17.5c0-4.1-2.5-6.8-6.4-6.8s-6.7,2.8-6.7,6.8v17.5h-6.3V0h6.3v18.5c2-2.3,5-3.6,8.5-3.6,6.7,0,10.9,4.7,10.9,11.7v18.4Z"/>
  <path class="cls-1" d="M169.1,14.9c8.6-.2,15.8,7,15.6,15.3.2,8.3-7.1,15.6-15.6,15.4-8.4.2-15.7-7.1-15.5-15.4-.2-8.4,7.1-15.5,15.5-15.3ZM169.2,20.6c-5.2,0-9.2,4.2-9.2,9.6s4,9.5,9.1,9.5,9.2-4.2,9.2-9.5-4-9.6-9.1-9.6Z"/>
  <path class="cls-1" d="M236.2,15.5l-13.1,30.1h-2.2l-9.2-19.6-9.2,19.6h-2.2l-13.1-30.1h6.7l7.7,19.2,8.9-19.9h2.2l9,19.7,7.6-19h6.7Z"/>
  <path class="cls-1" d="M302.4,15.5l-13.1,30.1h-2.2l-9.2-19.6-9.2,19.6h-2.2l-13.1-30.1h6.7l7.7,19.2,8.9-19.9h2.2l9,19.7,7.6-19h6.7Z"/>
  <path class="cls-1" d="M311.4,32.3c.8,4.8,4.6,7.7,9.6,7.7s5.9-1.1,8.6-3.5l3,4.3c-3.4,3.2-7.2,4.7-11.7,4.7-9,0-15.8-6.7-15.8-15.3-.2-8.4,6.9-15.6,15.2-15.4,7.8,0,13.6,5.8,13.6,13.5s-.2,2.6-.5,4h-21.9ZM327.5,27.4c0-4.5-3.4-7.2-7.5-7.2s-7.5,2.8-8.4,7.2h16Z"/>
  <path class="cls-1" d="M371.5,14.9c5.5,0,9.8,2.6,12.4,6.8l-4.4,3.5c-2.1-3-4.7-4.5-7.9-4.5-5.3,0-9.2,4.2-9.2,9.5s4,9.6,9.2,9.6,5.8-1.5,7.9-4.4l4.4,3.4c-2.6,4.3-7.1,6.8-12.4,6.8-8.7,0-15.6-6.8-15.6-15.4-.2-8.4,7.1-15.5,15.6-15.3Z"/>
  <path class="cls-1" d="M414.2,44.9h-5.9v-3.3c-2.2,2.6-5.4,4-9.4,4-6.2,0-10.2-3.4-10.2-8.5s4.2-8.4,10.8-8.4h8.3v-1.9c0-4.1-2.3-6.3-6.3-6.3s-5.7,1.4-8.1,4.4l-3.7-3.7c2.9-4.3,7.3-6.3,12.4-6.3,7.3,0,12,4.4,12,12.3v17.8ZM407.9,33.3h-7.6c-3.4,0-5.2,1.2-5.2,3.6s2.1,3.9,5.2,3.9,7.6-2.9,7.6-7v-.5Z"/>
  <path class="cls-1" d="M448.7,44.9h-6.3v-17.6c0-4.1-2.6-6.8-6.4-6.8s-6.7,2.8-6.7,6.8v17.6h-6.3V15.5h5.9v2.9c2.2-2.3,5.2-3.5,8.8-3.5,6.9,0,11,4.7,11,11.7v18.4Z"/>
  <path class="cls-1" d="M499.9,44.9h-6.3v-17.5c0-4.1-2.5-6.8-6.4-6.8s-6.7,2.8-6.7,6.8v17.5h-6.3V0h6.3v18.5c2-2.3,5-3.6,8.5-3.6,6.7,0,10.9,4.7,10.9,11.7v18.4Z"/>
  <path class="cls-1" d="M513.2,32.3c.8,4.8,4.6,7.7,9.6,7.7s5.9-1.1,8.6-3.5l3,4.3c-3.4,3.2-7.2,4.7-11.7,4.7-9,0-15.8-6.7-15.8-15.3-.2-8.4,6.9-15.6,15.2-15.4,7.8,0,13.6,5.8,13.6,13.5s-.2,2.6-.5,4h-21.9ZM529.3,27.4c0-4.5-3.4-7.2-7.5-7.2s-7.5,2.8-8.4,7.2h16Z"/>
  <path class="cls-1" d="M542.8,0h6.3v44.9h-6.3V0Z"/>
  <path class="cls-1" d="M574.3,45.6c-4,0-7.5-1.6-9.8-4.3v14.4h-6.3V15.5h5.9v4.1c2.2-3.1,5.9-4.8,10.2-4.8,8.3,0,14.4,6.7,14.4,15.3s-6.1,15.4-14.4,15.4ZM573.3,20.6c-4.6,0-8.9,3.2-8.9,9.6s4.3,9.6,8.9,9.6,9-4,9-9.6-3.9-9.6-9-9.6Z"/>
  <path class="cls-1" d="M599.3,36.3c2.6,0,4.6,2,4.6,4.7s-2,4.6-4.6,4.6-4.7-2-4.7-4.6,2.1-4.7,4.7-4.7Z"/>
</svg>