<svg id="Layer_1" data-name="Layer 1" xmlns="http://www.w3.org/2000/svg" viewBox="0 0 34.54 27.79"><defs><style>.cls-1{fill:#008996;}.cls-2,.cls-3{fill:none;}.cls-2{stroke:#fff;stroke-linecap:round;stroke-linejoin:round;stroke-width:1.1px;}</style></defs><path class="cls-1" d="M17.49,3.15c9,0,16.36,5.36,16.36,12s-7.32,12-16.36,12-16.35-5.36-16.35-12,7.32-12,16.35-12"/><path class="cls-1" d="M9.85,4.07c0-2,2-3.53,4.39-3.49s4.39,1.68,4.38,3.65-2,3.53-4.38,3.49S9.85,6,9.85,4.07"/><path class="cls-2" d="M20.91,7V6.23h1.92v2.3m-5-2.3,6.52,5m-6.52-5-6.53,5m1.54,3.46V10m10,4.24V10M8.62,18.88l1.16-1.15,5,5-1.15,1.15m1.91-5.75h3.68a1.15,1.15,0,0,0,1.05-.68,1.21,1.21,0,0,0,0-1,1.14,1.14,0,0,0-1.05-.67H14a2.35,2.35,0,0,0-1.54.76L10.54,18.5m4.61-.38h4.64a1.41,1.41,0,0,0,.81-.27l3-2.42a1.13,1.13,0,0,1,1.92.77c0,.5-.42.84-.77,1.15L21.29,20a1.52,1.52,0,0,1-1.15.39H15.53a1.16,1.16,0,0,0-.76.38l-1,1"/><rect class="cls-3" x="0.29" y="-0.81" width="33.56" height="27.91"/></svg>