<svg id="Layer_1" data-name="Layer 1" xmlns="http://www.w3.org/2000/svg" viewBox="0 0 105.69 79.07"><defs><style>.cls-1{fill:#76236c;}.cls-2{fill:none;stroke:#fff;stroke-linecap:round;stroke-linejoin:round;stroke-width:1.95px;}.cls-3{fill:#fff;}.cls-4{fill:#77256c;}</style></defs><path class="cls-1" d="M52.85,79.07C23.66,79.07,0,61.74,0,40.37S23.66,1.67,52.85,1.67,105.69,19,105.69,40.37,82,79.07,52.85,79.07"/><path class="cls-2" d="M89.11,37.1,84,42.23l-19-19,5.12-5.12m-17.88,10H60.7a5.14,5.14,0,0,0,3.59-1.47l2.09-2.05m0,0L79.1,37.26"/><path class="cls-3" d="M85.48,33.48A1.49,1.49,0,1,1,84,32a1.49,1.49,0,0,1,1.49,1.49"/><path class="cls-2" d="M72,46l7.88-7.88m-60.54-1,5.12,5.13,19-19L38.3,18.12m3,14.52a6,6,0,0,0,0,8.53m.29,8.19-2.4,2.39a3.05,3.05,0,0,1-4.22.13,3,3,0,0,1-.07-4.31L46.13,36.31a4.66,4.66,0,0,1,3.33-1.37L55,35l2.5,2.49a6,6,0,0,0,6.8,1.18,1.52,1.52,0,0,0,.42-2.44l-6.75-6.74a4.72,4.72,0,0,0-3.34-1.39H47.75a5.14,5.14,0,0,1-3.59-1.47l-1.85-1.76m-.19-.29-13.7,13.7m8,7.73L28.57,38.1M67,57.94a3,3,0,0,0,4.24-4.24L66,48.51a3,3,0,1,0-4.23,4.24ZM61.87,61.3a3,3,0,0,0,4.24-4.24l-3.44-3.44a3,3,0,1,0-4.24,4.24Zm7.49-9.46a3,3,0,0,0,4.23-4.24l-3.43-3.44a3,3,0,1,0-4.24,4.24ZM56.76,64.66A3,3,0,0,0,61,60.43l-1.69-1.69A3,3,0,0,0,55.07,63ZM48.25,51.14l-6.77,6.77a3,3,0,0,1-4.24-4.24L44,46.9m8.48,8.48-5.9,5.89A3,3,0,0,1,42.36,57l3.43-3.44M54.4,62l-2.69,2.69a3,3,0,0,1-4.24-4.24l1.69-1.69"/><path class="cls-3" d="M23,33.48A1.49,1.49,0,1,0,24.44,32,1.49,1.49,0,0,0,23,33.48"/><path class="cls-2" d="M72,37.46A6,6,0,0,1,72,46"/><path class="cls-4" d="M37.7,6.89c-2.19-6-9.89-8.56-17.21-5.75S9,11.1,11.2,17.09s9.89,8.56,17.21,5.74S39.88,12.88,37.7,6.89"/></svg>