<svg id="Layer_1" data-name="Layer 1" xmlns="http://www.w3.org/2000/svg" viewBox="0 0 102.23 76.06"><defs><style>.cls-1{fill:#008996;}.cls-2{fill:none;stroke:#fff;stroke-linecap:round;stroke-linejoin:round;stroke-width:3.2px;}</style></defs><path class="cls-1" d="M51.65,3.09c26.39,0,47.79,15.66,47.79,35s-21.4,35-47.79,35S3.86,57.41,3.86,38.08s21.39-35,47.79-35"/><path class="cls-1" d="M5.21,19.58C4.73,13.38,10.83,8,18.85,7.48s14.91,4.14,15.39,10.34-5.62,11.61-13.63,12.1S5.7,25.77,5.21,19.58"/><path class="cls-2" d="M61.63,14.33V12.09h5.61v6.72M52.65,12.09,71.72,26.65M52.65,12.09,33.58,26.65m4.49,10.09V23.23M67.24,35.62V23.23M25.73,49.07l3.36-3.37L43.68,60.27l-3.37,3.36m5.61-16.81H56.67a3.36,3.36,0,0,0,0-6.72H41.43a6.78,6.78,0,0,0-4.49,2.24L31.33,48M44.8,46.82H58.35A3.88,3.88,0,0,0,60.71,46L69.48,39a3.3,3.3,0,0,1,5.61,2.24c0,1.45-1.22,2.45-2.24,3.36l-10.1,7.85a4.6,4.6,0,0,1-3.37,1.12H45.92a3.43,3.43,0,0,0-2.24,1.12l-2.81,2.8"/></svg>