<?xml version="1.0" encoding="UTF-8"?>
<svg id="Layer_1" data-name="Layer 1" xmlns="http://www.w3.org/2000/svg" version="1.1" viewBox="0 0 208.5 28">
  <defs>
    <style>
      .cls-1 {
        fill: #ffbf3f;
        stroke-width: 0px;
      }
    </style>
  </defs>
  <path class="cls-1" d="M14.3,0C19,0,22.9,2.1,25.5,5.7l-3.2,2.6c-2-2.8-4.7-4.3-8.1-4.3-5.7,0-9.7,4.3-9.7,10s4.1,10.1,10,10.1,6.4-1.5,8.1-4.1v-2.9h-8.3v-3.9h12.7v7.6c-2.4,4.3-7.2,7.1-12.7,7.1C6.4,28.1-.1,21.8,0,14-.2,6.2,6.5-.1,14.3,0Z"/>
  <path class="cls-1" d="M49.3,27.6l-7.7-10.5h-5v10.5h-4.4V.5h9.9c5.5,0,9.2,3.4,9.2,8.3s-2,6.4-5.2,7.6l8.1,11.2h-5ZM36.6,13.2h5.5c3,0,4.8-1.8,4.8-4.4s-1.8-4.5-4.8-4.5h-5.5v8.9Z"/>
  <path class="cls-1" d="M70.2,0c7.7-.1,14.4,6.2,14.3,14,.2,7.8-6.6,14.1-14.3,14-7.8.1-14.4-6.2-14.2-14C55.8,6.2,62.4-.1,70.2,0ZM70.2,4c-5.6,0-9.7,4.3-9.7,10s4.1,10.1,9.7,10.1,9.7-4.3,9.7-10.1-4.2-10-9.7-10Z"/>
  <path class="cls-1" d="M127.1.5l-10.6,27.6h-1.4l-8.1-19.2-8.1,19.2h-1.5L86.9.5h4.8l6.8,18.3L106.2,0h1.5l7.8,18.8L122.3.5h4.8Z"/>
  <path class="cls-1" d="M132,.5h4.4v27.1h-4.4V.5Z"/>
  <path class="cls-1" d="M165.5.5v27.6h-1.5l-16.5-18.8v18.4h-4.4V0h1.5l16.5,18.7V.5h4.4Z"/>
  <path class="cls-1" d="M185,0c4.7,0,8.6,2.1,11.2,5.7l-3.2,2.6c-2-2.8-4.7-4.3-8.1-4.3-5.7,0-9.7,4.3-9.7,10s4.1,10.1,10,10.1,6.4-1.5,8.1-4.1v-2.9h-8.3v-3.9h12.7v7.6c-2.4,4.3-7.2,7.1-12.7,7.1-7.9.1-14.4-6.2-14.3-14C170.5,6.2,177.1-.1,185,0Z"/>
  <path class="cls-1" d="M205.4,21.6c1.8,0,3.2,1.4,3.2,3.2s-1.4,3.2-3.2,3.2-3.2-1.4-3.2-3.2,1.4-3.2,3.2-3.2Z"/>
</svg>