<?xml version="1.0" encoding="UTF-8"?>
<svg id="Layer_1" data-name="Layer 1" xmlns="http://www.w3.org/2000/svg" version="1.1" viewBox="0 0 256.3 27.9">
  <defs>
    <style>
      .cls-1 {
        fill: #ffbf3f;
        stroke-width: 0px;
      }
    </style>
  </defs>
  <path class="cls-1" d="M9.4,9.4c5.2-.1,9.5,4.2,9.4,9.3.1,5-4.3,9.4-9.4,9.3C4.3,28-.1,23.6,0,18.6c-.1-5.1,4.3-9.3,9.4-9.3ZM9.4,12.8c-3.1,0-5.5,2.5-5.5,5.8s2.4,5.7,5.5,5.7,5.5-2.5,5.5-5.7-2.4-5.8-5.5-5.8Z"/>
  <path class="cls-1" d="M27.6,9.8h4.2v3.3h-4.2v14.5h-3.8v-14.5h-2.5v-3.3h2.5v-3.6c0-4.2,2.4-6.2,6.3-6.2s1.8.1,2.5.3v3.2c-.6,0-1.1-.1-1.5-.1-2.3,0-3.5.8-3.5,3.1v3.3Z"/>
  <path class="cls-1" d="M52.1,9.4c3.3,0,5.9,1.6,7.5,4.1l-2.7,2.1c-1.3-1.8-2.9-2.7-4.8-2.7-3.2,0-5.6,2.5-5.6,5.7s2.4,5.8,5.6,5.8,3.5-.9,4.8-2.7l2.7,2.1c-1.6,2.6-4.3,4.1-7.5,4.1-5.2,0-9.4-4.1-9.4-9.3-.1-5.1,4.3-9.3,9.4-9.3Z"/>
  <path class="cls-1" d="M71.7,9.4c5.2-.1,9.5,4.2,9.4,9.3.1,5-4.3,9.4-9.4,9.3-5.1.1-9.5-4.3-9.4-9.3-.1-5.1,4.3-9.3,9.4-9.3ZM71.7,12.8c-3.1,0-5.5,2.5-5.5,5.8s2.4,5.7,5.5,5.7,5.5-2.5,5.5-5.7-2.4-5.8-5.5-5.8Z"/>
  <path class="cls-1" d="M112.1,27.5h-3.8v-10.6c0-2.5-1.4-4.1-3.7-4.1s-3.9,1.7-3.9,3.9v10.7h-3.8v-10.6c0-2.5-1.4-4.1-3.7-4.1s-3.9,1.7-3.9,4.1v10.6h-3.8V9.8h3.5v1.7c1.3-1.3,3-2.1,5.1-2.1s4.3,1,5.4,2.8c1.3-1.7,3.5-2.8,6-2.8,4.1,0,6.6,2.8,6.6,7v11.1Z"/>
  <path class="cls-1" d="M144,27.5h-3.8v-10.6c0-2.5-1.4-4.1-3.7-4.1s-3.9,1.7-3.9,3.9v10.7h-3.8v-10.6c0-2.5-1.4-4.1-3.7-4.1s-3.9,1.7-3.9,4.1v10.6h-3.8V9.8h3.5v1.7c1.3-1.3,3-2.1,5.1-2.1s4.3,1,5.4,2.8c1.3-1.7,3.5-2.8,6-2.8,4.1,0,6.6,2.8,6.6,7v11.1Z"/>
  <path class="cls-1" d="M149.1,9.8h3.8v10.6c0,2.5,1.7,4,4,4s3.9-1.6,3.9-4v-10.6h3.8v10.3c0,4.8-3.4,7.8-7.7,7.8s-7.8-3.1-7.8-7.8v-10.3Z"/>
  <path class="cls-1" d="M185.4,27.5h-3.8v-10.6c0-2.5-1.6-4.1-3.9-4.1s-4,1.7-4,4.1v10.6h-3.8V9.8h3.5v1.7c1.3-1.4,3.1-2.1,5.3-2.1,4.2,0,6.7,2.8,6.7,7v11.1Z"/>
  <path class="cls-1" d="M192.6.6c1.4,0,2.6,1.1,2.6,2.5s-1.2,2.5-2.6,2.5-2.6-1.1-2.6-2.5,1.2-2.5,2.6-2.5ZM190.7,9.8h3.8v17.7h-3.8V9.8Z"/>
  <path class="cls-1" d="M210.5,27.5c-1.2.3-2.2.4-3.1.4-4.1,0-6.5-2-6.5-6.2v-8.7h-2.9v-3.3h2.9v-4.7h3.8v4.7h5.3v3.3h-5.3v8.3c0,2.3,1.2,3.1,3.5,3.1s1.3,0,2.3-.2v3.2Z"/>
  <path class="cls-1" d="M216.2.6c1.4,0,2.6,1.1,2.6,2.5s-1.2,2.5-2.6,2.5-2.6-1.1-2.6-2.5,1.2-2.5,2.6-2.5ZM214.3,9.8h3.8v17.7h-3.8V9.8Z"/>
  <path class="cls-1" d="M226.4,19.9c.5,2.9,2.7,4.7,5.8,4.7s3.6-.7,5.2-2.1l1.8,2.6c-2,1.9-4.4,2.9-7.1,2.9-5.4,0-9.5-4-9.5-9.3-.1-5.1,4.2-9.4,9.2-9.3,4.7,0,8.2,3.5,8.2,8.1s-.1,1.6-.3,2.4h-13.2ZM236.1,16.9c0-2.7-2.1-4.3-4.6-4.3s-4.5,1.7-5.1,4.3h9.7Z"/>
  <path class="cls-1" d="M244.7,22.1c1.6,1.6,3.1,2.5,5,2.5s2.9-.7,2.9-2-.8-1.5-2.5-2.2l-1.8-.8c-3.1-1.3-4.6-2.7-4.6-5.2s2.6-5.1,6.3-5.1,4.6.9,6.1,2.7l-2.1,2.3c-1.1-1.2-2.6-1.8-4.2-1.8s-2.4.6-2.4,1.7.6,1.4,2.3,2.1l1.7.7c3.4,1.4,4.8,2.9,4.8,5.4s-.6,3-1.9,4c-1.3.9-2.8,1.4-4.7,1.4-3,0-5.6-1.4-7.2-3.4l2.2-2.4Z"/>
</svg>