<?xml version="1.0" encoding="UTF-8"?>
<svg id="Layer_1" data-name="Layer 1" xmlns="http://www.w3.org/2000/svg" version="1.1" viewBox="0 0 230.2 74.1">
  <defs>
    <style>
      .cls-1 {
        fill: #ffbf3f;
        stroke-width: 0px;
      }
    </style>
  </defs>
  <path class="cls-1" d="M75.4,0h3.8v23.9h-3.8V0ZM95.1,23.9h-4.7l-11.1-12.7L89.3,0h4.7l-9.9,11.2,11,12.7Z"/>
  <path class="cls-1" d="M100.2,16.2c.5,2.9,2.7,4.7,5.8,4.7s3.6-.7,5.2-2.1l1.8,2.6c-2,1.9-4.4,2.9-7.1,2.9-5.4,0-9.5-4-9.5-9.3-.1-5.1,4.2-9.4,9.2-9.3,4.7,0,8.2,3.5,8.2,8.1s-.1,1.6-.3,2.4h-13.2ZM109.9,13.3c0-2.7-2.1-4.3-4.6-4.3s-4.5,1.7-5.1,4.3h9.7Z"/>
  <path class="cls-1" d="M120.8,16.2c.5,2.9,2.7,4.7,5.8,4.7s3.6-.7,5.2-2.1l1.8,2.6c-2,1.9-4.4,2.9-7.1,2.9-5.4,0-9.5-4-9.5-9.3-.1-5.1,4.2-9.4,9.2-9.3,4.7,0,8.2,3.5,8.2,8.1s-.1,1.6-.3,2.4h-13.2ZM130.5,13.3c0-2.7-2.1-4.3-4.6-4.3s-4.5,1.7-5.1,4.3h9.7Z"/>
  <path class="cls-1" d="M148.3,24.3c-2.4,0-4.5-.9-5.9-2.6v8.7h-3.8V6.1h3.5v2.5c1.3-1.8,3.6-2.9,6.2-2.9,5,0,8.7,4,8.7,9.3s-3.7,9.3-8.7,9.3ZM147.7,9.2c-2.8,0-5.3,1.9-5.3,5.8s2.6,5.8,5.3,5.8,5.4-2.4,5.4-5.8-2.3-5.8-5.4-5.8Z"/>
  <path class="cls-1" d="M18.5,49.5l-8.6,19.8c-1.5,3.4-3.5,4.9-6.5,4.9s-2-.1-2.9-.4v-3.2c1.1.1,1.8.1,2.1.1,1.8,0,3-.6,3.9-2.6l.7-1.7L0,49.5h4.1l5.1,12.9,5.2-12.9h4Z"/>
  <path class="cls-1" d="M29.4,49.1c5.2-.1,9.5,4.2,9.4,9.3.1,5-4.3,9.4-9.4,9.3-5.1.1-9.5-4.3-9.4-9.3-.1-5.1,4.3-9.3,9.4-9.3ZM29.5,52.6c-3.1,0-5.5,2.5-5.5,5.8s2.4,5.7,5.5,5.7,5.5-2.5,5.5-5.7-2.4-5.8-5.5-5.8Z"/>
  <path class="cls-1" d="M43,49.5h3.8v10.6c0,2.5,1.7,4,4,4s3.9-1.6,3.9-4v-10.6h3.8v10.3c0,4.8-3.4,7.8-7.7,7.8s-7.8-3.1-7.8-7.8v-10.3Z"/>
  <path class="cls-1" d="M74,52.9h-1.2c-3,0-5.2,1.8-5.2,4.9v9.5h-3.8v-17.7h3.5v2.3c1.3-1.6,3.1-2.5,5.2-2.5s1,0,1.4.2v3.4Z"/>
  <path class="cls-1" d="M97.2,67.6c-2.4,0-4.5-.9-5.9-2.6v8.7h-3.8v-24.3h3.5v2.5c1.3-1.8,3.6-2.9,6.2-2.9,5,0,8.7,4,8.7,9.3s-3.7,9.3-8.7,9.3ZM96.6,52.6c-2.8,0-5.3,1.9-5.3,5.8s2.6,5.8,5.3,5.8,5.4-2.4,5.4-5.8-2.3-5.8-5.4-5.8Z"/>
  <path class="cls-1" d="M118.5,49.1c5.2-.1,9.5,4.2,9.4,9.3.1,5-4.3,9.4-9.4,9.3-5.1.1-9.5-4.3-9.4-9.3-.1-5.1,4.3-9.3,9.4-9.3ZM118.6,52.6c-3.1,0-5.5,2.5-5.5,5.8s2.4,5.7,5.5,5.7,5.5-2.5,5.5-5.7-2.4-5.8-5.5-5.8Z"/>
  <path class="cls-1" d="M142.5,52.9h-1.2c-3,0-5.2,1.8-5.2,4.9v9.5h-3.8v-17.7h3.5v2.3c1.3-1.6,3.1-2.5,5.2-2.5s1,0,1.4.2v3.4Z"/>
  <path class="cls-1" d="M156.4,67.2c-1.2.3-2.2.4-3.1.4-4.1,0-6.5-2-6.5-6.2v-8.7h-2.9v-3.3h2.9v-4.7h3.8v4.7h5.3v3.3h-5.3v8.3c0,2.3,1.2,3.1,3.5,3.1s1.3,0,2.3-.2v3.2Z"/>
  <path class="cls-1" d="M164.7,49.5h4.2v3.3h-4.2v14.5h-3.8v-14.5h-2.5v-3.3h2.5v-3.6c0-4.2,2.4-6.2,6.3-6.2s1.8.1,2.5.3v3.2c-.6,0-1.1-.1-1.5-.1-2.3,0-3.5.8-3.5,3.1v3.3Z"/>
  <path class="cls-1" d="M180.1,49.1c5.2-.1,9.5,4.2,9.4,9.3.1,5-4.3,9.4-9.4,9.3-5.1.1-9.5-4.3-9.4-9.3-.1-5.1,4.3-9.3,9.4-9.3ZM180.2,52.6c-3.1,0-5.5,2.5-5.5,5.8s2.4,5.7,5.5,5.7,5.5-2.5,5.5-5.7-2.4-5.8-5.5-5.8Z"/>
  <path class="cls-1" d="M193.9,40.1h3.8v27.1h-3.8v-27.1Z"/>
  <path class="cls-1" d="M205.1,40.3c1.4,0,2.6,1.1,2.6,2.5s-1.2,2.5-2.6,2.5-2.6-1.1-2.6-2.5,1.2-2.5,2.6-2.5ZM203.2,49.5h3.8v17.7h-3.8v-17.7Z"/>
  <path class="cls-1" d="M220.7,49.1c5.2-.1,9.5,4.2,9.4,9.3.1,5-4.3,9.4-9.4,9.3-5.1.1-9.5-4.3-9.4-9.3-.1-5.1,4.3-9.3,9.4-9.3ZM220.8,52.6c-3.1,0-5.5,2.5-5.5,5.8s2.4,5.7,5.5,5.7,5.5-2.5,5.5-5.7-2.4-5.8-5.5-5.8Z"/>
</svg>