<?xml version="1.0" encoding="UTF-8"?>
<svg id="Layer_1" data-name="Layer 1" xmlns="http://www.w3.org/2000/svg" version="1.1" viewBox="0 0 168.3 33.5">
  <defs>
    <style>
      .cls-1 {
        fill: #002d72;
        stroke-width: 0px;
      }
    </style>
  </defs>
  <path class="cls-1" d="M8.9,11.6h4.7v4.9h-4.7v16.5H3v-16.5H0v-4.9h3v-3.5C3,2.7,6.1,0,11.3,0s2.2.2,3.2.5v4.9c-.6,0-1.2-.1-1.7-.1-2.6,0-3.9.9-3.9,3.3v3ZM20.4.1c2.1,0,3.8,1.6,3.8,3.6s-1.7,3.6-3.8,3.6-3.7-1.6-3.7-3.6S18.3.1,20.4.1ZM17.5,11.6h5.8v21.4h-5.8V11.6Z"/>
  <path class="cls-1" d="M48.8,33h-5.8v-12.5c0-2.5-1.6-4.2-4-4.2s-4.1,1.7-4.1,4.2v12.5h-5.8V11.6h5.4v1.9c1.5-1.5,3.7-2.4,6.3-2.4,5,0,8.1,3.4,8.1,8.6v13.3Z"/>
  <path class="cls-1" d="M72.4,33h-5.4v-2.1c-1.6,1.6-3.8,2.6-6.5,2.6-4.5,0-7.4-2.6-7.4-6.4s3.1-6.2,8.1-6.2h5.4v-1c0-2.4-1.4-3.8-4-3.8s-3.8.9-5.7,2.9l-3-3.6c2.5-2.9,5.6-4.4,9.4-4.4,5.6,0,9.2,3.2,9.2,9.2v12.7ZM66.6,24.7h-4.6c-1.9,0-3,.7-3,2.2s1.2,2.3,3.1,2.3,4.5-1.8,4.5-4.2v-.3Z"/>
  <path class="cls-1" d="M97.7,33h-5.8v-12.5c0-2.5-1.6-4.2-4-4.2s-4.1,1.7-4.1,4.2v12.5h-5.8V11.6h5.4v1.9c1.5-1.5,3.7-2.4,6.3-2.4,5,0,8.1,3.4,8.1,8.6v13.3Z"/>
  <path class="cls-1" d="M113.6,11.1c4.2,0,7.4,2,9.3,5.3l-4.1,3.2c-1.3-1.9-2.9-3.1-5.2-3.1-3.3,0-5.6,2.5-5.6,5.8s2.3,5.9,5.6,5.9,3.8-1.1,5.2-3.1l4.1,3.1c-1.9,3.3-5.2,5.3-9.3,5.3-6.3.1-11.6-5.1-11.5-11.3,0-6.3,5.1-11.2,11.5-11.2Z"/>
  <path class="cls-1" d="M130.2.1c2.1,0,3.8,1.6,3.8,3.6s-1.7,3.6-3.8,3.6-3.7-1.6-3.7-3.6,1.6-3.6,3.7-3.6ZM127.3,11.6h5.8v21.4h-5.8V11.6Z"/>
  <path class="cls-1" d="M156.9,33h-5.4v-2.1c-1.6,1.6-3.8,2.6-6.5,2.6-4.5,0-7.4-2.6-7.4-6.4s3.1-6.2,8.1-6.2h5.4v-1c0-2.4-1.4-3.8-4-3.8s-3.8.9-5.7,2.9l-3-3.6c2.5-2.9,5.6-4.4,9.4-4.4,5.6,0,9.2,3.2,9.2,9.2v12.7ZM151,24.7h-4.6c-1.9,0-3,.7-3,2.2s1.2,2.3,3.1,2.3,4.5-1.8,4.5-4.2v-.3Z"/>
  <path class="cls-1" d="M162.5.5h5.8v32.5h-5.8V.5Z"/>
</svg>