<?xml version="1.0" encoding="UTF-8"?>
<svg id="Layer_1" data-name="Layer 1" xmlns="http://www.w3.org/2000/svg" version="1.1" viewBox="0 0 164.6 33">
  <defs>
    <style>
      .cls-1 {
        fill: #002d72;
        stroke-width: 0px;
      }
    </style>
  </defs>
  <path class="cls-1" d="M19.7,32.5h-5.8v-12.5c0-2.5-1.6-4.2-4-4.2s-4.1,1.7-4.1,4.2v12.5H0V0h5.8v12.9c1.4-1.4,3.5-2.3,5.9-2.3,4.8,0,8,3.4,8,8.6v13.3Z"/>
  <path class="cls-1" d="M35.6,10.6c6.3,0,11.6,5.1,11.5,11.2.1,6.1-5.3,11.3-11.6,11.2-6.3.1-11.6-5.1-11.4-11.2-.1-6.1,5.2-11.3,11.5-11.2ZM35.6,15.9c-3.2,0-5.5,2.5-5.5,5.9s2.3,5.8,5.5,5.8,5.5-2.5,5.5-5.8-2.4-5.9-5.5-5.9Z"/>
  <path class="cls-1" d="M84.5,11l-10,21.9h-1.9l-6.1-12.5-6.2,12.5h-1.9l-10-21.9h6.1l5.1,12.2,5.8-12.7h1.9l5.9,12.4,5-11.9h6.1Z"/>
  <path class="cls-1" d="M110.3,10.6c6.3,0,11.6,5.1,11.5,11.2.1,6.1-5.3,11.3-11.6,11.2-6.3.1-11.6-5.1-11.4-11.2-.1-6.1,5.2-11.3,11.5-11.2ZM110.3,15.9c-3.2,0-5.5,2.5-5.5,5.9s2.3,5.8,5.5,5.8,5.5-2.5,5.5-5.8-2.4-5.9-5.5-5.9Z"/>
  <path class="cls-1" d="M126.1,11h5.8v12.5c0,2.5,1.7,4.1,4.1,4.1s4-1.6,4-4.1v-12.5h5.8v12c0,6-4.2,10-9.8,10s-9.9-4-9.9-10v-12Z"/>
  <path class="cls-1" d="M164.6,16.2h-1.6c-3.5,0-5.8,1.9-5.8,5.6v10.7h-5.8V11h5.4v2.6c1.4-1.8,3.5-2.8,5.9-2.8s1.3,0,1.9.3v5.2Z"/>
</svg>