<?xml version="1.0" encoding="UTF-8"?>
<svg id="Layer_1" data-name="Layer 1" xmlns="http://www.w3.org/2000/svg" version="1.1" viewBox="0 0 181.3 33.4">
  <defs>
    <style>
      .cls-1 {
        fill: #002d72;
        stroke-width: 0px;
      }
    </style>
  </defs>
  <path class="cls-1" d="M2.9,25.7c1.9,1.9,3.9,2.9,6,2.9s2.7-.6,2.7-1.8-.6-1.3-2.2-1.9l-2.3-1c-3.9-1.6-5.8-3.4-5.8-6.5s3.2-6.4,7.9-6.4,5.8,1.1,7.7,3.2l-2.9,3.6c-1.4-1.3-3-2-4.8-2s-2.3.5-2.3,1.5.6,1.2,2.3,1.9l2.1.9c4.2,1.7,6,3.4,6,6.5s-.8,3.8-2.4,5c-1.6,1.2-3.5,1.8-6,1.8-3.8,0-6.9-1.6-8.9-4.2l2.9-3.5Z"/>
  <path class="cls-1" d="M31.9,11c6.3,0,11.6,5.1,11.5,11.2.1,6.1-5.3,11.3-11.6,11.2-6.3.1-11.6-5.1-11.4-11.2-.1-6.1,5.2-11.3,11.5-11.2ZM31.9,16.3c-3.2,0-5.5,2.5-5.5,5.9s2.3,5.8,5.5,5.8,5.5-2.5,5.5-5.8-2.4-5.9-5.5-5.9Z"/>
  <path class="cls-1" d="M48,.4h5.8v32.5h-5.8V.4Z"/>
  <path class="cls-1" d="M59.4,11.4h5.8v12.5c0,2.5,1.7,4.1,4.1,4.1s4-1.6,4-4.1v-12.5h5.8v12c0,6-4.2,10-9.8,10s-9.9-4-9.9-10v-12Z"/>
  <path class="cls-1" d="M98.5,32.9c-1.4.3-2.7.5-4,.5-5.4,0-8.6-2.7-8.6-8.1v-9h-3.4v-4.9h3.4v-5.4h5.8v5.4h6.1v4.9h-6.1v8.4c0,2.4,1.2,3.3,4,3.3s1.3,0,2.8-.2v4.9Z"/>
  <path class="cls-1" d="M105.6,0c2.1,0,3.8,1.6,3.8,3.6s-1.7,3.6-3.8,3.6-3.7-1.6-3.7-3.6,1.6-3.6,3.7-3.6ZM102.7,11.4h5.8v21.4h-5.8V11.4Z"/>
  <path class="cls-1" d="M124.6,11c6.3,0,11.6,5.1,11.5,11.2.1,6.1-5.3,11.3-11.6,11.2-6.3.1-11.6-5.1-11.4-11.2-.1-6.1,5.2-11.3,11.5-11.2ZM124.6,16.3c-3.2,0-5.5,2.5-5.5,5.9s2.3,5.8,5.5,5.8,5.5-2.5,5.5-5.8-2.4-5.9-5.5-5.9Z"/>
  <path class="cls-1" d="M160.4,32.9h-5.8v-12.5c0-2.5-1.6-4.2-4-4.2s-4.1,1.7-4.1,4.2v12.5h-5.8V11.4h5.4v1.9c1.5-1.5,3.7-2.4,6.3-2.4,5,0,8.1,3.4,8.1,8.6v13.3Z"/>
  <path class="cls-1" d="M167,25.7c1.9,1.9,3.9,2.9,6,2.9s2.7-.6,2.7-1.8-.6-1.3-2.2-1.9l-2.3-1c-3.9-1.6-5.8-3.4-5.8-6.5s3.2-6.4,7.9-6.4,5.8,1.1,7.7,3.2l-2.9,3.6c-1.4-1.3-3-2-4.8-2s-2.3.5-2.3,1.5.6,1.2,2.3,1.9l2.1.9c4.2,1.7,6,3.4,6,6.5s-.8,3.8-2.4,5c-1.6,1.2-3.5,1.8-6,1.8-3.8,0-6.9-1.6-8.9-4.2l2.9-3.5Z"/>
</svg>