<?xml version="1.0" encoding="UTF-8"?>
<svg id="Layer_1" data-name="Layer 1" xmlns="http://www.w3.org/2000/svg" version="1.1" viewBox="0 0 181.7 40.3">
  <defs>
    <style>
      .cls-1 {
        fill: #002d72;
        stroke-width: 0px;
      }
    </style>
  </defs>
  <path class="cls-1" d="M11.5,10.6c4.2,0,7.4,2,9.3,5.3l-4.1,3.2c-1.3-1.9-2.9-3.1-5.2-3.1-3.3,0-5.6,2.5-5.6,5.8s2.3,5.9,5.6,5.9,3.8-1.1,5.2-3.1l4.1,3.1c-1.9,3.3-5.2,5.3-9.3,5.3C5.2,33.1,0,27.9,0,21.7,0,15.5,5.1,10.6,11.5,10.6Z"/>
  <path class="cls-1" d="M43.1,32.5h-5.4v-2.1c-1.6,1.6-3.8,2.6-6.5,2.6-4.5,0-7.4-2.6-7.4-6.4s3.1-6.2,8.1-6.2h5.4v-1c0-2.4-1.4-3.8-4-3.8s-3.8.9-5.7,2.9l-3-3.6c2.5-2.9,5.6-4.4,9.4-4.4,5.6,0,9.2,3.2,9.2,9.2v12.7ZM37.2,24.2h-4.6c-1.9,0-3,.7-3,2.2s1.2,2.3,3.1,2.3,4.5-1.8,4.5-4.2v-.3Z"/>
  <path class="cls-1" d="M68.4,32.5h-5.8v-12.5c0-2.5-1.6-4.2-4-4.2s-4.1,1.7-4.1,4.2v12.5h-5.8V11h5.4v1.9c1.5-1.5,3.7-2.4,6.3-2.4,5,0,8.1,3.4,8.1,8.6v13.3Z"/>
  <path class="cls-1" d="M105.8,32.5h-5.8v-12.5c0-2.5-1.6-4.2-4-4.2s-4.1,1.7-4.1,4.2v12.5h-5.8V0h5.8v12.9c1.4-1.4,3.5-2.3,5.9-2.3,4.8,0,8,3.4,8,8.6v13.3Z"/>
  <path class="cls-1" d="M116.1,23.7c.7,2.7,2.9,4.2,6,4.2s4.1-.7,6-2.2l2.4,4c-2.6,2.1-5.4,3.2-8.6,3.2-6.6.1-11.9-5-11.7-11.2-.1-6.2,5-11.3,11.2-11.2,5.9,0,10.1,4.4,10.1,10s-.1,2.1-.4,3.2h-15ZM125.9,19.6c0-2.6-2.1-4.3-4.6-4.3s-4.5,1.7-5.1,4.3h9.7Z"/>
  <path class="cls-1" d="M136.1,0h5.8v32.5h-5.8V0Z"/>
  <path class="cls-1" d="M160,33c-2.6,0-4.8-.9-6.4-2.6v9.9h-5.8V11h5.4v2.7c1.4-2,3.9-3.2,6.9-3.2,6,0,10.4,4.8,10.4,11.2s-4.4,11.3-10.4,11.3ZM158.9,15.8c-2.9,0-5.4,2-5.4,5.9s2.4,5.9,5.4,5.9,5.5-2.4,5.5-5.9-2.4-5.9-5.5-5.9Z"/>
  <path class="cls-1" d="M177.7,24.9c2.3,0,4,1.8,4,4s-1.7,4-4,4-4.1-1.7-4.1-4,1.8-4,4.1-4Z"/>
</svg>