<?xml version="1.0" encoding="UTF-8"?>
<svg id="Layer_1" data-name="Layer 1" xmlns="http://www.w3.org/2000/svg" version="1.1" viewBox="0 0 70.5 29.6">
  <defs>
    <style>
      .cls-1 {
        fill: #002d72;
        stroke-width: 0px;
      }
    </style>
  </defs>
  <path class="cls-1" d="M4,20.3c1.9,2.6,3.9,4.2,7,4.2s4.1-1.2,4.1-3.2-.9-2.3-3.6-3.6l-3.1-1.4c-4.4-1.9-6.9-4.4-6.9-8.2S5.5,0,11,0s7.7,2.1,9.4,5.4l-4,3.1c-1.5-2.2-3.3-3.3-5.5-3.3s-3.5,1-3.5,2.8.9,2.2,3.3,3.3l3.2,1.4c4.8,2.1,7.1,4.5,7.1,8.4s-4.3,8.6-10,8.6S2.2,27.1,0,23.3l4-3Z"/>
  <path class="cls-1" d="M30.5,20.3c.7,2.7,2.9,4.2,6,4.2s4.1-.7,6-2.2l2.4,4c-2.6,2.1-5.4,3.2-8.6,3.2-6.6.1-11.9-5-11.7-11.2-.1-6.2,5-11.3,11.2-11.2,5.9,0,10.1,4.4,10.1,10s-.1,2.1-.4,3.2h-15ZM40.2,16.2c0-2.6-2.1-4.3-4.6-4.3s-4.5,1.7-5.1,4.3h9.7Z"/>
  <path class="cls-1" d="M55.1,20.3c.7,2.7,2.9,4.2,6,4.2s4.1-.7,6-2.2l2.4,4c-2.6,2.1-5.4,3.2-8.6,3.2-6.6.1-11.9-5-11.7-11.2-.1-6.2,5-11.3,11.2-11.2,5.9,0,10.1,4.4,10.1,10s-.1,2.1-.4,3.2h-15ZM64.8,16.2c0-2.6-2.1-4.3-4.6-4.3s-4.5,1.7-5.1,4.3h9.7Z"/>
</svg>