<?xml version="1.0" encoding="utf-8"?>
<!-- Generator: Adobe Illustrator 19.1.0, SVG Export Plug-In . SVG Version: 6.00 Build 0)  -->
<svg version="1.1" xmlns="http://www.w3.org/2000/svg" xmlns:xlink="http://www.w3.org/1999/xlink" x="0px" y="0px"
	 viewBox="0 0 44.067 58.557" enable-background="new 0 0 44.067 58.557" xml:space="preserve">
<g id="Layer_1" display="none">
	<g id="_x35_5OItO_1_" display="inline">
		
			<image overflow="visible" width="160" height="600" id="_x35_5OItO" xlink:href="CC73F31C68A1184.jpg"  transform="matrix(1 0 0 1 -98.4513 -242.642)">
		</image>
	</g>
</g>
<g id="Bubbles" display="none">
</g>
<g id="h2">
	<path fill="#00A0DD" d="M40.298,49.067v-0.011c0-1.029,0.833-1.895,1.884-1.895c1.062,0,1.885,0.855,1.885,1.884v0.011
		c0,1.029-0.834,1.895-1.885,1.895C41.121,50.951,40.298,50.096,40.298,49.067z M43.85,49.056v-0.011
		c0-0.921-0.714-1.679-1.668-1.679c-0.942,0-1.667,0.769-1.667,1.689v0.011c0,0.921,0.715,1.679,1.667,1.679
		C43.124,50.746,43.85,49.976,43.85,49.056z M41.403,48.038h0.92c0.455,0,0.791,0.206,0.791,0.65c0,0.314-0.173,0.52-0.433,0.606
		l0.498,0.704h-0.574l-0.423-0.617h-0.303v0.617h-0.476V48.038z M42.291,48.991c0.217,0,0.336-0.108,0.336-0.271
		c0-0.173-0.13-0.271-0.336-0.271h-0.411v0.542H42.291z"/>
	<linearGradient id="XMLID_2_" gradientUnits="userSpaceOnUse" x1="18.9161" y1="1.3318" x2="18.9161" y2="58.4026">
		<stop  offset="0.35" style="stop-color:#B2E3F5"/>
		<stop  offset="1" style="stop-color:#00A0DD"/>
	</linearGradient>
	<path id="XMLID_12_" fill="url(#XMLID_2_)" d="M20.853,19.378c-4.591,0.799-7.356,3.362-8.726,6.219V6.991
		c0-4.18-2.282-6.134-5.661-6.041C3.085,1.037,0,1.28,0,1.28v51.135c0,4.018,2.203,6.714,6.065,6.037l6.062-1.038v-19.75
		c0-3.096,1.746-7.542,5.894-8.264c3.258-0.568,5.373,1.547,5.373,5.434v11.46c0,6.605,2.796,9.023,8.129,8.096l6.309-1.15v-1.849
		c0,0-2.114-1.406-2.114-4.875V31.088C35.718,23.262,29.518,17.867,20.853,19.378z"/>
	<path id="XMLID_10_" fill="#D0202E" d="M21.848,18.431c-4.591,0.8-7.356,3.363-8.726,6.219V6.044c0-4.179-2.282-6.133-5.661-6.041
		C4.08,0.09,0.995,0.334,0.995,0.334V51.47c0,4.017,2.203,6.713,6.065,6.036l6.062-1.038v-19.75c0-3.095,1.746-7.542,5.894-8.264
		c3.258-0.568,5.373,1.547,5.373,5.434v11.46c0,6.605,2.796,9.022,8.128,8.094l6.31-1.15v-1.848c0,0-2.114-1.407-2.114-4.876V30.141
		C36.713,22.315,30.513,16.92,21.848,18.431z"/>
</g>
<g id="t" display="none">
	<linearGradient id="XMLID_3_" gradientUnits="userSpaceOnUse" x1="-19.5798" y1="8.5639" x2="-19.5798" y2="61.9656">
		<stop  offset="0.35" style="stop-color:#B2E3F5"/>
		<stop  offset="1" style="stop-color:#00A0DD"/>
	</linearGradient>
	<path id="XMLID_11_" display="inline" fill="url(#XMLID_3_)" d="M-11.095,24.672l11.097-1.954v-6.026l-11.097,1.934l0,0v-4.015
		c0-4.203-2.374-6.132-5.754-6.043c-2.551,0.067-6.073,0.248-7.519,0.332v12.022l-14.415,2.529c-0.518,0.716-1.357,6.193,4.139,5.31
		c4.423-0.71,10.276-1.784,10.276-1.784v22.542c0,13.649,10.421,15.018,20.51,9.844v-1.626c-5.804-1.458-7.237-4.021-7.237-9.719
		V24.672z"/>
	<path id="XMLID_9_" display="inline" fill="#D0202E" d="M-10.1,23.725l11.097-1.954v-6.026L-10.1,17.678l0,0v-4.015
		c0-4.204-2.374-6.133-5.754-6.043c-2.55,0.067-6.073,0.25-7.519,0.332v12.022l-14.415,2.528c-0.517,0.716-1.356,6.194,4.139,5.31
		c4.423-0.71,10.276-1.784,10.276-1.784v22.542c0,13.649,10.421,15.018,20.51,9.844v-1.626c-5.805-1.458-7.237-4.02-7.237-9.717
		V23.725z"/>
</g>
<g id="h1" display="none">
</g>
</svg>
