<?xml version="1.0" encoding="utf-8"?>
<!-- Generator: Adobe Illustrator 19.1.0, SVG Export Plug-In . SVG Version: 6.00 Build 0)  -->
<svg version="1.1" id="Layer_2" xmlns="http://www.w3.org/2000/svg" xmlns:xlink="http://www.w3.org/1999/xlink" x="0px" y="0px"
	 viewBox="0 0 268.033 81.941" enable-background="new 0 0 268.033 81.941" xml:space="preserve">
<g>
	<path fill="#FFFFFF" d="M10.351,10.428H3.635c-1.265,0-2.252-1.027-2.252-2.252S2.37,5.925,3.635,5.925h18.369
		c1.225,0,2.213,1.027,2.213,2.251s-0.988,2.252-2.213,2.252h-6.755v20.938c0,1.343-1.106,2.41-2.449,2.41
		c-1.344,0-2.449-1.067-2.449-2.41V10.428z"/>
	<path fill="#FFFFFF" d="M26.429,19.831v-0.079c0-7.783,6.005-14.301,14.498-14.301s14.419,6.439,14.419,14.222v0.079
		c0,7.782-6.004,14.301-14.498,14.301C32.354,34.052,26.429,27.613,26.429,19.831z M50.25,19.831v-0.079
		c0-5.373-3.911-9.837-9.402-9.837s-9.323,4.385-9.323,9.758v0.079c0,5.373,3.911,9.797,9.402,9.797S50.25,25.203,50.25,19.831z"/>
	<path fill="#FFFFFF" d="M73.082,8.374c0-1.383,1.066-2.449,2.449-2.449h7.861c8.691,0,14.696,5.965,14.696,13.748v0.079
		c0,7.782-6.005,13.827-14.696,13.827h-7.861c-1.383,0-2.449-1.066-2.449-2.449V8.374z M83.393,29.153c5.808,0,9.6-3.911,9.6-9.323
		v-0.079c0-5.412-3.792-9.402-9.6-9.402h-5.451v18.804H83.393z"/>
	<path fill="#FFFFFF" d="M104.251,8.137c0-1.343,1.066-2.41,2.449-2.41c1.343,0,2.41,1.067,2.41,2.41v23.229
		c0,1.343-1.067,2.41-2.41,2.41c-1.383,0-2.449-1.067-2.449-2.41V8.137z"/>
	<path fill="#FFFFFF" d="M124.517,31.998l-9.679-22.755c-0.158-0.355-0.276-0.711-0.276-1.146c0-1.303,1.066-2.37,2.449-2.37
		c1.264,0,2.094,0.711,2.488,1.738l7.98,19.95l8.099-20.108c0.315-0.83,1.185-1.58,2.33-1.58c1.344,0,2.41,1.027,2.41,2.331
		c0,0.355-0.118,0.75-0.237,1.027l-9.718,22.913c-0.514,1.225-1.422,1.975-2.805,1.975h-0.277
		C125.938,33.973,125.03,33.223,124.517,31.998z"/>
	<path fill="#FFFFFF" d="M145.453,31.129V8.374c0-1.383,1.066-2.449,2.449-2.449h16.078c1.186,0,2.173,0.987,2.173,2.172
		c0,1.225-0.987,2.173-2.173,2.173h-13.668v7.19h11.891c1.186,0,2.173,0.988,2.173,2.212c0,1.185-0.987,2.133-2.173,2.133h-11.891
		v7.427h13.866c1.185,0,2.172,0.988,2.172,2.173c0,1.225-0.987,2.173-2.172,2.173h-16.276
		C146.52,33.578,145.453,32.512,145.453,31.129z"/>
	<path fill="#FFFFFF" d="M183.771,8.374c0-1.383,1.066-2.449,2.449-2.449h16.118c1.225,0,2.212,0.987,2.212,2.212
		s-0.987,2.212-2.212,2.212h-13.708v7.545h11.93c1.225,0,2.213,0.988,2.213,2.212s-0.988,2.212-2.213,2.212h-11.93v9.046
		c0,1.343-1.067,2.41-2.41,2.41c-1.383,0-2.449-1.067-2.449-2.41V8.374z"/>
	<path fill="#FFFFFF" d="M208.225,19.831v-0.079c0-7.783,6.005-14.301,14.498-14.301s14.419,6.439,14.419,14.222v0.079
		c0,7.782-6.004,14.301-14.498,14.301C214.15,34.052,208.225,27.613,208.225,19.831z M232.046,19.831v-0.079
		c0-5.373-3.911-9.837-9.402-9.837s-9.323,4.385-9.323,9.758v0.079c0,5.373,3.911,9.797,9.402,9.797S232.046,25.203,232.046,19.831z
		"/>
	<path fill="#FFFFFF" d="M243.027,8.374c0-1.383,1.066-2.449,2.449-2.449h9.876c3.477,0,6.202,1.027,7.98,2.765
		c1.461,1.501,2.291,3.556,2.291,5.965v0.079c0,4.424-2.567,7.111-6.281,8.256l5.294,6.676c0.474,0.593,0.79,1.106,0.79,1.857
		c0,1.343-1.146,2.252-2.331,2.252c-1.106,0-1.817-0.514-2.37-1.264l-6.716-8.573h-6.123v7.427c0,1.343-1.067,2.41-2.41,2.41
		c-1.383,0-2.449-1.067-2.449-2.41V8.374z M254.997,19.633c3.477,0,5.688-1.817,5.688-4.622v-0.079c0-2.963-2.133-4.583-5.728-4.583
		h-7.071v9.284H254.997z"/>
	<path fill="#FFFFFF" d="M37.312,45.874c0-1.383,1.066-2.449,2.449-2.449h8.454c6.479,0,10.508,3.674,10.508,9.244v0.079
		c0,6.202-4.978,9.441-11.061,9.441h-5.491v6.677c0,1.343-1.067,2.409-2.41,2.409c-1.383,0-2.449-1.066-2.449-2.409V45.874z
		 M47.819,57.805c3.674,0,5.966-2.055,5.966-4.938v-0.079c0-3.239-2.331-4.938-5.966-4.938h-5.648v9.955H47.819z"/>
	<path fill="#FFFFFF" d="M63.7,68.629V45.874c0-1.383,1.066-2.449,2.449-2.449h16.078c1.186,0,2.173,0.987,2.173,2.173
		c0,1.225-0.987,2.173-2.173,2.173H68.56v7.189H80.45c1.185,0,2.173,0.987,2.173,2.212c0,1.186-0.988,2.134-2.173,2.134H68.56v7.427
		h13.866c1.185,0,2.172,0.987,2.172,2.173c0,1.225-0.987,2.173-2.172,2.173H66.149C64.767,71.078,63.7,70.012,63.7,68.629z"/>
	<path fill="#FFFFFF" d="M90.168,45.716c0-1.343,1.066-2.449,2.449-2.449h0.514c1.185,0,1.856,0.593,2.528,1.422l13.826,17.896
		V45.598c0-1.304,1.067-2.37,2.371-2.37c1.343,0,2.409,1.066,2.409,2.37v23.229c0,1.344-1.027,2.41-2.37,2.41h-0.197
		c-1.146,0-1.857-0.593-2.528-1.462L94.948,51.365v17.54c0,1.304-1.067,2.37-2.371,2.37c-1.343,0-2.409-1.066-2.409-2.37V45.716z"/>
	<path fill="#FFFFFF" d="M121.376,45.716c0-1.343,1.066-2.449,2.449-2.449h0.514c1.185,0,1.856,0.593,2.528,1.422l13.826,17.896
		V45.598c0-1.304,1.067-2.37,2.371-2.37c1.343,0,2.409,1.066,2.409,2.37v23.229c0,1.344-1.027,2.41-2.37,2.41h-0.197
		c-1.146,0-1.857-0.593-2.528-1.462l-14.222-18.409v17.54c0,1.304-1.067,2.37-2.371,2.37c-1.343,0-2.409-1.066-2.409-2.37V45.716z"
		/>
	<path fill="#FFFFFF" d="M152.861,45.637c0-1.343,1.066-2.409,2.449-2.409c1.343,0,2.41,1.066,2.41,2.409v23.229
		c0,1.343-1.067,2.409-2.41,2.409c-1.383,0-2.449-1.066-2.449-2.409V45.637z"/>
	<path fill="#FFFFFF" d="M165.106,68.629V45.874c0-1.383,1.066-2.449,2.449-2.449h16.078c1.186,0,2.173,0.987,2.173,2.173
		c0,1.225-0.987,2.173-2.173,2.173h-13.668v7.189h11.891c1.185,0,2.173,0.987,2.173,2.212c0,1.186-0.988,2.134-2.173,2.134h-11.891
		v7.427h13.866c1.185,0,2.172,0.987,2.172,2.173c0,1.225-0.987,2.173-2.172,2.173h-16.276
		C166.173,71.078,165.106,70.012,165.106,68.629z"/>
	<path fill="#FFFFFF" d="M190.864,67.997c-0.554-0.396-0.948-1.067-0.948-1.857c0-1.264,1.027-2.251,2.291-2.251
		c0.672,0,1.106,0.197,1.422,0.435c2.292,1.816,4.741,2.844,7.743,2.844c3.003,0,4.898-1.422,4.898-3.477v-0.079
		c0-1.975-1.105-3.042-6.241-4.227c-5.887-1.422-9.205-3.16-9.205-8.257v-0.079c0-4.74,3.95-8.02,9.441-8.02
		c3.477,0,6.282,0.909,8.771,2.568c0.553,0.315,1.066,0.987,1.066,1.936c0,1.264-1.026,2.252-2.291,2.252
		c-0.474,0-0.869-0.119-1.264-0.355c-2.134-1.383-4.188-2.094-6.36-2.094c-2.845,0-4.504,1.461-4.504,3.278v0.079
		c0,2.134,1.264,3.082,6.598,4.346c5.847,1.422,8.849,3.516,8.849,8.099v0.079c0,5.175-4.069,8.257-9.876,8.257
		C197.501,71.474,193.945,70.288,190.864,67.997z"/>
	<path fill="#FFFFFF" d="M222.586,62.545c-0.908,0-1.58-0.672-1.698-1.58l-0.396-3.397c-0.158-1.066,0.474-1.856,1.541-1.976
		c3.713-0.355,5.768-1.777,5.768-4.267v-0.078c0-2.213-1.699-3.754-4.543-3.754c-2.094,0-3.793,0.751-5.373,2.173
		c-0.395,0.316-0.908,0.554-1.462,0.554c-1.225,0-2.212-0.988-2.212-2.173c0-0.593,0.237-1.225,0.79-1.699
		c2.094-1.975,4.74-3.278,8.375-3.278c5.531,0,9.284,3.081,9.284,8.02v0.079c0,4.978-3.596,7.229-7.98,7.979l-0.158,1.817
		c-0.158,0.869-0.79,1.58-1.698,1.58H222.586z M222.586,65.429c1.62,0,2.805,1.186,2.805,2.726v0.396
		c0,1.541-1.185,2.726-2.805,2.726s-2.805-1.185-2.805-2.726v-0.396C219.781,66.614,220.966,65.429,222.586,65.429z"/>
</g>
</svg>
