<?xml version="1.0" encoding="UTF-8"?>
<svg id="Layer_1" data-name="Layer 1" xmlns="http://www.w3.org/2000/svg" version="1.1" viewBox="0 0 186.8 34.2">
  <defs>
    <style>
      .cls-1 {
        fill: #ffbf3f;
        stroke-width: 0px;
      }
    </style>
  </defs>
  <path class="cls-1" d="M11.9,27.2c-1.1.3-2.1.4-2.9.4-3.7,0-6-1.9-6-5.7v-9.8H0v-2.5h3v-4.8h2.8v4.8h5.5v2.5h-5.5v9.7c0,2.5,1.3,3.4,3.7,3.4s1.5,0,2.4-.2v2.4Z"/>
  <path class="cls-1" d="M23.7,9.2c5,0,9.4,4.2,9.3,9.2.1,5-4.2,9.3-9.3,9.2-5,.1-9.3-4.2-9.2-9.2-.1-5,4.2-9.3,9.3-9.2ZM23.7,11.7c-3.6,0-6.4,2.9-6.4,6.7s2.8,6.6,6.4,6.6,6.4-2.9,6.4-6.6-2.8-6.7-6.4-6.7Z"/>
  <path class="cls-1" d="M62.7,27.2h-2.8v-10.7c0-2.9-1.7-4.8-4.4-4.8s-4.6,2-4.6,4.8v10.7h-2.8V0h2.8v11.5c1.2-1.5,3.1-2.4,5.3-2.4,4.1,0,6.5,2.8,6.5,7v11.1Z"/>
  <path class="cls-1" d="M70.2,19.2c.3,3.5,3,5.8,6.5,5.8s3.8-.8,5.4-2.4l1.6,1.9c-1.9,1.9-4.3,3.1-7.1,3.1-5.3,0-9.4-4-9.4-9.2s4-9.3,9-9.3,8.1,3.3,8.1,8,0,1.4-.2,2.1h-14ZM81.5,16.8c0-3.2-2.3-5.1-5.3-5.1s-5.3,2-6,5.1h11.2Z"/>
  <path class="cls-1" d="M89.3,0h2.8v27.2h-2.8V0Z"/>
  <path class="cls-1" d="M107.5,27.6c-2.6,0-5-1.1-6.5-2.9v9.1h-2.8V9.6h2.6v2.8c1.3-2,3.9-3.2,6.7-3.2,5,0,8.8,4,8.8,9.2s-3.8,9.3-8.8,9.3ZM107.1,11.7c-3.2,0-6.1,2.2-6.1,6.6s2.9,6.7,6.1,6.7,6.3-2.8,6.3-6.6-2.7-6.7-6.3-6.7Z"/>
  <path class="cls-1" d="M146.9,9.6l-8.7,20.2c-1.3,3.1-3.3,4.5-6,4.5s-1.8-.1-2.7-.4v-2.4c.9.1,1.6.2,2.1.2,1.9,0,3.1-.7,4-2.8l.9-2.1-7.3-17.1h3l5.8,14.1,5.8-14.1h3Z"/>
  <path class="cls-1" d="M158.2,9.2c5,0,9.4,4.2,9.3,9.2.1,5-4.2,9.3-9.3,9.2-5,.1-9.3-4.2-9.2-9.2-.1-5,4.2-9.3,9.3-9.2ZM158.2,11.7c-3.6,0-6.4,2.9-6.4,6.7s2.8,6.6,6.4,6.6,6.4-2.9,6.4-6.6-2.8-6.7-6.4-6.7Z"/>
  <path class="cls-1" d="M172.2,9.6h2.8v10.8c0,2.9,2,4.7,4.6,4.7s4.5-1.9,4.5-4.7v-10.8h2.8v10.6c0,4.5-3.2,7.4-7.3,7.4s-7.3-3-7.3-7.4v-10.6Z"/>
</svg>