<?xml version="1.0" encoding="UTF-8"?>
<svg id="Layer_1" data-name="Layer 1" xmlns="http://www.w3.org/2000/svg" version="1.1" viewBox="0 0 238.8 27.6">
  <defs>
    <style>
      .cls-1 {
        fill: #ffbf3f;
        stroke-width: 0px;
      }
    </style>
  </defs>
  <path class="cls-1" d="M2.1,20.9c1.8,2.7,4,4.1,6.7,4.1s4.8-1.6,4.8-4-1.3-2.9-4-4.2l-2.7-1.3c-3.3-1.6-5.4-3.2-5.4-6.4s3.3-6.2,7.2-6.2,6,1.6,7.5,4.1l-2.1,1.6c-1.3-1.9-3.3-3-5.5-3s-4.2,1.3-4.2,3.5.1,1.3.5,1.7c.6.9,1.5,1.4,3.4,2.3l2.7,1.3c3.8,1.9,5.6,3.6,5.6,6.7s-3.3,6.7-7.7,6.7-6.9-2-8.8-5.2l2.1-1.6Z"/>
  <path class="cls-1" d="M47.7,27.2h-2.8v-10.7c0-2.9-1.6-4.8-4.2-4.8s-4.5,2-4.5,4.5v11h-2.8v-10.7c0-2.9-1.6-4.8-4.2-4.8s-4.5,2-4.5,4.8v10.7h-2.8V9.6h2.6v1.9c1.3-1.5,3.1-2.3,5.3-2.3s4.4,1.1,5.4,3.1c1.3-1.9,3.5-3.1,6.1-3.1,4.1,0,6.4,2.8,6.4,7v11.1Z"/>
  <path class="cls-1" d="M66.9,27.2h-2.6v-2.3c-1.3,1.7-3.4,2.7-6,2.7s-6.2-1.9-6.2-5,2.5-4.9,6.4-4.9h5.6v-1.5c0-2.9-1.6-4.5-4.3-4.5s-3.7.9-5.2,2.8l-1.9-1.5c1.6-2.6,4.2-3.9,7.2-3.9,4.2,0,6.9,2.5,6.9,7.2v10.9ZM64.1,20h-5.3c-2.5,0-3.8.9-3.8,2.5s1.6,2.8,3.7,2.8,5.4-2.1,5.4-4.9v-.4Z"/>
  <path class="cls-1" d="M72.8,0h2.8v27.2h-2.8V0Z"/>
  <path class="cls-1" d="M81.7,0h2.8v27.2h-2.8V0Z"/>
  <path class="cls-1" d="M110.2,27.6c-2.8,0-5.4-1.2-6.7-3.2v2.8h-2.6V0h2.8v12.1c1.4-1.9,3.8-3,6.5-3,5,0,8.8,4.1,8.8,9.3s-3.7,9.2-8.7,9.2ZM109.7,11.7c-3.3,0-6.1,2.2-6.1,6.7s3,6.6,6.1,6.6,6.3-2.9,6.3-6.7-2.7-6.6-6.3-6.6Z"/>
  <path class="cls-1" d="M123.6,9.6h2.8v10.8c0,2.9,2,4.7,4.6,4.7s4.5-1.9,4.5-4.7v-10.8h2.8v10.6c0,4.5-3.2,7.4-7.3,7.4s-7.3-3-7.3-7.4v-10.6Z"/>
  <path class="cls-1" d="M144.2,22.3c1.7,1.7,3.1,2.7,5.1,2.7s3.4-.9,3.4-2.5-.9-2-3.1-2.8l-1.7-.7c-2.9-1.2-4.4-2.5-4.4-4.9s2.6-4.9,6-4.9,4.5,1.1,5.9,2.8l-1.7,1.7c-1.2-1.2-2.7-2-4.4-2s-2.9.8-2.9,2.2.7,1.7,2.9,2.6l1.6.7c3.3,1.4,4.7,2.8,4.7,5.2s-.6,2.9-1.8,3.8c-1.2.9-2.7,1.3-4.4,1.3-2.9,0-5.3-1.4-6.9-3.5l1.8-1.9Z"/>
  <path class="cls-1" d="M162,.8c1.1,0,2.1.9,2.1,2s-.9,2-2.1,2-2.1-.9-2.1-2,.9-2,2.1-2ZM160.6,9.6h2.8v17.7h-2.8V9.6Z"/>
  <path class="cls-1" d="M184.2,27.2h-2.8v-10.8c0-2.8-1.7-4.7-4.4-4.7s-4.6,2-4.6,4.7v10.8h-2.8V9.6h2.6v1.9c1.3-1.5,3.2-2.3,5.4-2.3,4.1,0,6.6,2.8,6.6,7v11.1Z"/>
  <path class="cls-1" d="M191.7,19.2c.3,3.5,3,5.8,6.5,5.8s3.8-.8,5.4-2.4l1.6,1.9c-1.9,1.9-4.3,3.1-7.1,3.1-5.3,0-9.4-4-9.4-9.2s4-9.3,9-9.3,8.1,3.3,8.1,8,0,1.4-.2,2.1h-14ZM203.1,16.8c0-3.2-2.3-5.1-5.3-5.1s-5.3,2-6,5.1h11.2Z"/>
  <path class="cls-1" d="M211,22.3c1.7,1.7,3.1,2.7,5.1,2.7s3.4-.9,3.4-2.5-.9-2-3.1-2.8l-1.7-.7c-2.9-1.2-4.4-2.5-4.4-4.9s2.6-4.9,6-4.9,4.5,1.1,5.9,2.8l-1.7,1.7c-1.2-1.2-2.7-2-4.4-2s-2.9.8-2.9,2.2.7,1.7,2.9,2.6l1.6.7c3.3,1.4,4.7,2.8,4.7,5.2s-.6,2.9-1.8,3.8c-1.2.9-2.7,1.3-4.4,1.3-2.9,0-5.3-1.4-6.9-3.5l1.8-1.9Z"/>
  <path class="cls-1" d="M227.4,22.3c1.7,1.7,3.1,2.7,5.1,2.7s3.4-.9,3.4-2.5-.9-2-3.1-2.8l-1.7-.7c-2.9-1.2-4.4-2.5-4.4-4.9s2.6-4.9,6-4.9,4.5,1.1,5.9,2.8l-1.7,1.7c-1.2-1.2-2.7-2-4.4-2s-2.9.8-2.9,2.2.7,1.7,2.9,2.6l1.6.7c3.3,1.4,4.7,2.8,4.7,5.2s-.6,2.9-1.8,3.8c-1.2.9-2.7,1.3-4.4,1.3-2.9,0-5.3-1.4-6.9-3.5l1.8-1.9Z"/>
</svg>