<?xml version="1.0" encoding="UTF-8"?>
<svg id="Layer_1" data-name="Layer 1" xmlns="http://www.w3.org/2000/svg" version="1.1" viewBox="0 0 182.3 33">
  <defs>
    <style>
      .cls-1 {
        fill: #ffbf3f;
        stroke-width: 0px;
      }
    </style>
  </defs>
  <path class="cls-1" d="M2.9,18.5c.3,3.5,3,5.8,6.5,5.8s3.8-.8,5.4-2.4l1.6,1.9c-1.9,1.9-4.3,3.1-7.1,3.1-5.3,0-9.4-4-9.4-9.2s4-9.3,9-9.3,8.1,3.3,8.1,8,0,1.4-.2,2.1H2.9ZM14.2,16c0-3.2-2.3-5.1-5.3-5.1s-5.3,2-6,5.1h11.2Z"/>
  <path class="cls-1" d="M32.6,26.5l-5-7.3-5,7.3h-3.3l6.6-9.2-6-8.5h3.2l4.5,6.5,4.5-6.5h3.2l-6.1,8.5,6.6,9.2h-3.2Z"/>
  <path class="cls-1" d="M49,26.9c-2.6,0-5-1.1-6.5-2.9v9.1h-2.8V8.8h2.6v2.8c1.3-2,3.9-3.2,6.7-3.2,5,0,8.8,4,8.8,9.2s-3.8,9.3-8.8,9.3ZM48.6,11c-3.2,0-6.1,2.2-6.1,6.6s2.9,6.7,6.1,6.7,6.3-2.8,6.3-6.6-2.7-6.7-6.3-6.7Z"/>
  <path class="cls-1" d="M64.3,18.5c.3,3.5,3,5.8,6.5,5.8s3.8-.8,5.4-2.4l1.6,1.9c-1.9,1.9-4.3,3.1-7.1,3.1-5.3,0-9.4-4-9.4-9.2s4-9.3,9-9.3,8.1,3.3,8.1,8,0,1.4-.2,2.1h-14ZM75.6,16c0-3.2-2.3-5.1-5.3-5.1s-5.3,2-6,5.1h11.2Z"/>
  <path class="cls-1" d="M92.8,11.3h-1.1c-3,0-5.6,1.9-5.6,5.2v10h-2.8V8.8h2.6v2.5c1.3-1.7,3.3-2.7,5.5-2.7s.8,0,1.3.1v2.5Z"/>
  <path class="cls-1" d="M98,0c1.1,0,2.1.9,2.1,2s-.9,2-2.1,2-2.1-.9-2.1-2,.9-2,2.1-2ZM96.5,8.8h2.8v17.7h-2.8V8.8Z"/>
  <path class="cls-1" d="M107.1,18.5c.3,3.5,3,5.8,6.5,5.8s3.8-.8,5.4-2.4l1.6,1.9c-1.9,1.9-4.3,3.1-7.1,3.1-5.3,0-9.4-4-9.4-9.2s4-9.3,9-9.3,8.1,3.3,8.1,8,0,1.4-.2,2.1h-14ZM118.4,16c0-3.2-2.3-5.1-5.3-5.1s-5.3,2-6,5.1h11.2Z"/>
  <path class="cls-1" d="M140.9,26.5h-2.8v-10.8c0-2.8-1.7-4.7-4.4-4.7s-4.6,2-4.6,4.7v10.8h-2.8V8.8h2.6v1.9c1.3-1.5,3.2-2.3,5.4-2.3,4.1,0,6.6,2.8,6.6,7v11.1Z"/>
  <path class="cls-1" d="M154.8,8.4c3.1,0,5.7,1.5,7.3,3.8l-2,1.6c-1.4-1.9-3.2-2.9-5.3-2.9-3.7,0-6.4,3-6.4,6.6s2.8,6.7,6.4,6.7,3.8-.9,5.2-2.8l2,1.6c-1.6,2.4-4.2,3.8-7.3,3.8-5.1,0-9.3-4.1-9.3-9.3-.1-5,4.2-9.3,9.3-9.2Z"/>
  <path class="cls-1" d="M168.1,18.5c.3,3.5,3,5.8,6.5,5.8s3.8-.8,5.4-2.4l1.6,1.9c-1.9,1.9-4.3,3.1-7.1,3.1-5.3,0-9.4-4-9.4-9.2s4-9.3,9-9.3,8.1,3.3,8.1,8,0,1.4-.2,2.1h-14ZM179.4,16c0-3.2-2.3-5.1-5.3-5.1s-5.3,2-6,5.1h11.2Z"/>
</svg>