<?xml version="1.0" encoding="UTF-8"?>
<svg id="Layer_1" data-name="Layer 1" xmlns="http://www.w3.org/2000/svg" version="1.1" viewBox="0 0 235.7 52">
  <defs>
    <style>
      .cls-1 {
        fill: #ffbf3f;
        stroke-width: 0px;
      }
    </style>
  </defs>
  <path class="cls-1" d="M26.5,0C35.3,0,42.5,3.8,47.3,10.5l-5.9,4.8c-3.7-5.3-8.8-7.9-15-7.9-10.6,0-18.1,7.9-18.1,18.5s7.7,18.8,18.5,18.8,11.9-2.8,15-7.6v-5.4h-15.5v-7.2h23.5v14.2c-4.5,8-13.3,13.3-23.5,13.3C11.8,52.2-.2,40.4,0,26-.3,11.6,12-.2,26.5,0Z"/>
  <path class="cls-1" d="M91.5,51.1l-14.3-19.4h-9.2v19.4h-8.1V.8h18.4c10.1,0,17.1,6.3,17.1,15.4s-3.7,11.8-9.7,14.2l15.1,20.7h-9.2ZM68,24.5h10.1c5.6,0,8.9-3.4,8.9-8.2s-3.4-8.3-8.9-8.3h-10.1v16.5Z"/>
  <path class="cls-1" d="M130.1,0c14.2-.2,26.7,11.6,26.4,26,.3,14.4-12.2,26.2-26.4,26-14.4.2-26.7-11.6-26.4-26C103.5,11.6,115.8-.2,130.1,0ZM130.2,7.4c-10.4,0-18.1,7.9-18.1,18.5s7.6,18.7,18.1,18.7,18.1-7.9,18.1-18.7-7.8-18.5-18.1-18.5Z"/>
  <path class="cls-1" d="M235.7.8l-19.6,51.1h-2.7l-15-35.7-15,35.7h-2.7L161.2.8h8.9l12.6,34L197,0h2.8l14.5,34.8L226.9.8h8.8Z"/>
</svg>