<?xml version="1.0" encoding="UTF-8"?>
<svg id="Layer_1" data-name="Layer 1" xmlns="http://www.w3.org/2000/svg" version="1.1" viewBox="0 0 110.8 35.4">
  <defs>
    <style>
      .cls-1 {
        fill: #ffbf3f;
        stroke-width: 0px;
      }
    </style>
  </defs>
  <path class="cls-1" d="M3.5,26.1c2,3,4.5,4.9,8.1,4.9s5.3-1.7,5.3-4.3-1.3-3.1-4.5-4.6l-3.4-1.6c-4.5-2-7.2-4.4-7.2-8.5S6.1,3.7,11.5,3.7s8,2.2,9.9,5.5l-3.4,2.7c-1.6-2.4-3.9-3.7-6.5-3.7s-4.7,1.3-4.7,3.7c.2,2.4,1.3,2.8,4.3,4.4l3.4,1.6c5,2.3,7.4,4.7,7.4,8.8s-4.4,8.9-10.3,8.9-9.2-2.5-11.6-6.7l3.5-2.7Z"/>
  <path class="cls-1" d="M62.2,34.9h-4.9v-13.6c0-3.2-1.8-5.3-4.7-5.3s-5,2.1-5,5.1v13.8h-4.9v-13.6c0-3.2-1.9-5.3-4.8-5.3s-5,2.1-5,5.3v13.6h-4.9V12.1h4.6v2.1c1.6-1.7,3.9-2.7,6.6-2.7s5.6,1.4,6.9,3.6c1.7-2.2,4.5-3.6,7.7-3.6,5.3,0,8.5,3.6,8.5,9.1v14.3Z"/>
  <path class="cls-1" d="M87.1,34.9h-4.6v-2.6c-1.7,2-4.2,3.1-7.3,3.1-4.8,0-8-2.7-8-6.6s3.3-6.5,8.4-6.5h6.5v-1.5c0-3.2-1.8-4.9-4.9-4.9s-4.4,1.1-6.3,3.4l-2.8-2.9c2.3-3.3,5.7-4.9,9.6-4.9,5.6,0,9.4,3.4,9.4,9.5v13.8ZM82.2,25.8h-5.9c-2.6,0-4,.9-4,2.8s1.6,3,4,3,5.9-2.3,5.9-5.4v-.4Z"/>
  <path class="cls-1" d="M93.9,0h4.9v34.9h-4.9V0Z"/>
  <path class="cls-1" d="M105.9,0h4.9v34.9h-4.9V0Z"/>
</svg>