<?xml version="1.0" encoding="UTF-8"?>
<svg id="Layer_1" data-name="Layer 1" xmlns="http://www.w3.org/2000/svg" version="1.1" viewBox="0 0 236.3 35.4">
  <defs>
    <style>
      .cls-1 {
        fill: #ffbf3f;
        stroke-width: 0px;
      }
    </style>
  </defs>
  <path class="cls-1" d="M3.5,26.1c2,3,4.5,4.9,8.1,4.9s5.3-1.7,5.3-4.3-1.3-3.1-4.5-4.6l-3.4-1.6c-4.5-2-7.2-4.4-7.2-8.5S6.1,3.7,11.5,3.7s8,2.2,9.9,5.5l-3.4,2.7c-1.6-2.4-3.9-3.7-6.5-3.7s-4.7,1.3-4.7,3.7c.2,2.4,1.3,2.8,4.3,4.4l3.4,1.6c5,2.3,7.4,4.7,7.4,8.8s-4.4,8.9-10.3,8.9-9.2-2.5-11.6-6.7l3.5-2.7Z"/>
  <path class="cls-1" d="M38.5,11.5c6.7-.1,12.3,5.4,12.2,11.9.1,6.5-5.5,12.1-12.2,12-6.6.1-12.2-5.5-12.1-12-.1-6.6,5.5-12,12.1-11.9ZM38.5,16c-4.1,0-7.1,3.3-7.1,7.5s3.1,7.4,7.1,7.4,7.1-3.3,7.1-7.4-3.1-7.5-7.1-7.5Z"/>
  <path class="cls-1" d="M56,12.1h4.8v13.6c0,3.2,2.2,5.2,5.2,5.2s5-2,5-5.2v-13.6h4.9v13.3c0,6.1-4.3,10.1-9.9,10.1s-10-4-10-10.1v-13.3Z"/>
  <path class="cls-1" d="M96.4,34.9c-1.5.3-2.9.5-4,.5-5.3,0-8.4-2.6-8.4-8v-11.2h-3.7v-4.2h3.7v-6h4.9v6h6.8v4.2h-6.8v10.8c0,2.9,1.5,4,4.5,4s1.7,0,3-.2v4.1Z"/>
  <path class="cls-1" d="M121.3,34.9h-4.9v-13.6c0-3.2-2-5.3-5-5.3s-5.2,2.2-5.2,5.3v13.6h-4.9V0h4.9v14.3c1.5-1.8,3.9-2.8,6.6-2.8,5.2,0,8.5,3.7,8.5,9.1v14.3Z"/>
  <path class="cls-1" d="M129.7,26.1c2,3,4.5,4.9,8.1,4.9s5.3-1.7,5.3-4.3-1.3-3.1-4.5-4.6l-3.4-1.6c-4.5-2-7.2-4.4-7.2-8.5s4.4-8.3,9.7-8.3,8,2.2,9.9,5.5l-3.4,2.7c-1.6-2.4-3.9-3.7-6.5-3.7s-4.7,1.3-4.7,3.7c.2,2.4,1.3,2.8,4.3,4.4l3.4,1.6c5,2.3,7.4,4.7,7.4,8.8s-4.4,8.9-10.3,8.9-9.2-2.5-11.6-6.7l3.5-2.7Z"/>
  <path class="cls-1" d="M167.4,34.9c-1.5.3-2.9.5-4,.5-5.3,0-8.4-2.6-8.4-8v-11.2h-3.7v-4.2h3.7v-6h4.9v6h6.8v4.2h-6.8v10.8c0,2.9,1.5,4,4.5,4s1.7,0,3-.2v4.1Z"/>
  <path class="cls-1" d="M190.5,34.9h-4.6v-2.6c-1.7,2-4.2,3.1-7.3,3.1-4.8,0-8-2.7-8-6.6s3.3-6.5,8.4-6.5h6.5v-1.5c0-3.2-1.8-4.9-4.9-4.9s-4.4,1.1-6.3,3.4l-2.8-2.9c2.3-3.3,5.7-4.9,9.6-4.9,5.6,0,9.4,3.4,9.4,9.5v13.8ZM185.6,25.8h-5.9c-2.6,0-4,.9-4,2.8s1.6,3,4,3,5.9-2.3,5.9-5.4v-.4Z"/>
  <path class="cls-1" d="M210.9,34.9c-1.5.3-2.9.5-4,.5-5.3,0-8.4-2.6-8.4-8v-11.2h-3.7v-4.2h3.7v-6h4.9v6h6.8v4.2h-6.8v10.8c0,2.9,1.5,4,4.5,4s1.7,0,3-.2v4.1Z"/>
  <path class="cls-1" d="M218.9,25.1c.6,3.7,3.5,6,7.4,6s4.6-.9,6.7-2.7l2.3,3.4c-2.6,2.5-5.6,3.7-9.1,3.7-7,0-12.3-5.2-12.3-11.9-.1-6.6,5.4-12.1,11.8-12,6.1,0,10.6,4.5,10.6,10.5s-.1,2-.4,3.1h-17ZM231.5,21.3c0-3.5-2.7-5.6-5.9-5.6s-5.8,2.2-6.6,5.6h12.4Z"/>
</svg>