<?xml version="1.0" encoding="UTF-8"?>
<svg id="Layer_1" data-name="Layer 1" xmlns="http://www.w3.org/2000/svg" version="1.1" viewBox="0 0 178.2 35.1">
  <defs>
    <style>
      .cls-1 {
        fill: #ffbf3f;
        stroke-width: 0px;
      }
    </style>
  </defs>
  <path class="cls-1" d="M13.2,34.6H0V3.9h10.8c5.5,0,9.2,3.4,9.2,8.2s-.9,4.3-2.6,5.8c3.6,1.2,5.7,4.1,5.7,7.8s-4,8.9-10,8.9ZM4.8,8.2v8.3h5.4c3,0,4.7-1.6,4.7-4.2s-1.7-4.1-4.7-4.1h-5.4ZM12.8,20.8h-7.9v9.5h7.9c3.4,0,5.4-1.8,5.4-4.7s-2-4.8-5.4-4.8Z"/>
  <path class="cls-1" d="M28.2,11.8h4.8v13.6c0,3.2,2.2,5.2,5.2,5.2s5-2,5-5.2v-13.6h4.9v13.3c0,6.1-4.3,10.1-9.9,10.1s-10-4-10-10.1v-13.3Z"/>
  <path class="cls-1" d="M55.6,27.7c2,2.1,4,3.3,6.4,3.3s3.7-.9,3.7-2.6-1-1.9-3.2-2.8l-2.3-1c-4.1-1.7-6-3.4-6-6.7s3.4-6.6,8.1-6.6,5.9,1.2,7.9,3.5l-2.7,3c-1.4-1.5-3.4-2.3-5.4-2.3s-3.1.7-3.1,2.2.8,1.8,3,2.7l2.2.9c4.3,1.8,6.2,3.7,6.2,6.9s-.8,3.9-2.4,5.2c-1.6,1.2-3.6,1.8-6.1,1.8-3.9,0-7.2-1.8-9.2-4.4l2.8-3.1Z"/>
  <path class="cls-1" d="M78.6,0c1.8,0,3.3,1.4,3.3,3.3s-1.5,3.2-3.3,3.2-3.4-1.4-3.4-3.2,1.5-3.3,3.4-3.3ZM76.2,11.8h4.9v22.9h-4.9V11.8Z"/>
  <path class="cls-1" d="M108.1,34.6h-4.9v-13.6c0-3.2-2-5.3-5-5.3s-5.2,2.2-5.2,5.3v13.6h-4.9V11.8h4.6v2.2c1.7-1.8,4-2.7,6.8-2.7,5.4,0,8.6,3.6,8.6,9.1v14.3Z"/>
  <path class="cls-1" d="M118.4,24.8c.6,3.7,3.5,6,7.4,6s4.6-.9,6.7-2.7l2.3,3.4c-2.6,2.5-5.6,3.7-9.1,3.7-7,0-12.3-5.2-12.3-11.9-.1-6.6,5.4-12.1,11.8-12,6.1,0,10.6,4.5,10.6,10.5s-.1,2-.4,3.1h-17ZM130.9,21c0-3.5-2.7-5.6-5.9-5.6s-5.8,2.2-6.6,5.6h12.4Z"/>
  <path class="cls-1" d="M142.1,27.7c2,2.1,4,3.3,6.4,3.3s3.7-.9,3.7-2.6-1-1.9-3.2-2.8l-2.3-1c-4-1.7-6-3.4-6-6.7s3.4-6.6,8.1-6.6,5.9,1.2,7.9,3.5l-2.7,3c-1.4-1.5-3.4-2.3-5.4-2.3s-3.1.7-3.1,2.2.8,1.8,3,2.7l2.2.9c4.3,1.8,6.2,3.7,6.2,6.9s-.8,3.9-2.4,5.2c-1.6,1.2-3.6,1.8-6.1,1.8-3.9,0-7.2-1.8-9.2-4.4l2.8-3.1Z"/>
  <path class="cls-1" d="M163.3,27.7c2,2.1,4,3.3,6.4,3.3s3.7-.9,3.7-2.6-1-1.9-3.2-2.8l-2.3-1c-4-1.7-6-3.4-6-6.7s3.4-6.6,8.1-6.6,5.9,1.2,7.9,3.5l-2.7,3c-1.4-1.5-3.4-2.3-5.4-2.3s-3.1.7-3.1,2.2.8,1.8,3,2.7l2.2.9c4.3,1.8,6.2,3.7,6.2,6.9s-.8,3.9-2.4,5.2c-1.6,1.2-3.6,1.8-6.1,1.8-3.9,0-7.2-1.8-9.2-4.4l2.8-3.1Z"/>
</svg>