<?xml version="1.0" encoding="UTF-8"?>
<svg id="Layer_1" data-name="Layer 1" xmlns="http://www.w3.org/2000/svg" xmlns:xlink="http://www.w3.org/1999/xlink" version="1.1" viewBox="0 0 95.8 21.6">
  <defs>
    <style>
      .cls-1 {
        clip-path: url(#clippath);
      }

      .cls-2 {
        fill: none;
      }

      .cls-2, .cls-3, .cls-4 {
        stroke-width: 0px;
      }

      .cls-3 {
        fill: #002d72;
      }

      .cls-4 {
        fill: #ffbf3f;
      }
    </style>
    <clipPath id="clippath">
      <rect class="cls-2" width="95.8" height="21.6"/>
    </clipPath>
  </defs>
  <g class="cls-1">
    <path class="cls-4" d="M3.3,0C1.5,0,0,1.5,0,3.3v15c0,1.8,1.5,3.3,3.3,3.3h89.2c1.8,0,3.3-1.5,3.3-3.3V3.3c0-1.8-1.5-3.3-3.3-3.3H3.3Z"/>
  </g>
  <g>
    <path class="cls-3" d="M14.8,6.8h1.4v7.5h4v1.3h-5.4s0-8.7,0-8.7Z"/>
    <path class="cls-3" d="M22.5,12.7c.2,1,1,1.7,2.1,1.7s1.3-.3,1.9-.8l.7.9c-.8.7-1.6,1-2.6,1-2,0-3.5-1.5-3.5-3.4s1.5-3.4,3.4-3.4c1.7,0,3,1.3,3,3s0,.5-.1.9c0,0-4.8,0-4.8,0ZM26,11.6c0-1-.8-1.6-1.7-1.6s-1.6.6-1.9,1.6h3.5Z"/>
    <path class="cls-3" d="M34.2,15.5h-1.3v-.7c-.5.5-1.2.9-2.1.9-1.4,0-2.3-.8-2.3-1.9s.9-1.9,2.4-1.9h1.9v-.4c0-.9-.5-1.4-1.4-1.4s-1.3.3-1.8,1l-.8-.8c.7-.9,1.6-1.4,2.7-1.4,1.6,0,2.7,1,2.7,2.7v3.9h0ZM32.8,12.9h-1.7c-.8,0-1.1.3-1.1.8s.4.9,1.1.9,1.7-.7,1.7-1.5h0v-.2Z"/>
    <path class="cls-3" d="M39.8,10.2h-.4c-1.1,0-1.9.7-1.9,1.8v3.5h-1.4v-6.5h1.3v.9c.4-.6,1.1-.9,1.9-.9s.4,0,.5,0v1.3h0Z"/>
    <path class="cls-3" d="M46.7,15.5h-1.4v-3.9c0-.9-.5-1.5-1.4-1.5s-1.5.6-1.5,1.5v3.9h-1.4v-6.5h1.3v.7c.5-.5,1.1-.8,2-.8,1.5,0,2.5,1,2.5,2.6v4.1h-.1Z"/>
    <path class="cls-3" d="M60.8,6.6v8.9h-1.4v-5.5l-2.5,3.3h-.5l-2.5-3.3v5.5h-1.4V6.6h.5l3.6,4.9,3.6-4.9h.5Z"/>
    <path class="cls-3" d="M65.8,8.8c1.9,0,3.5,1.5,3.4,3.4,0,1.9-1.6,3.4-3.4,3.4-1.9,0-3.5-1.6-3.4-3.4,0-1.9,1.6-3.4,3.4-3.4ZM65.9,10.1c-1.1,0-2,.9-2,2.1s.9,2.1,2,2.1,2-.9,2-2.1-.9-2.1-2-2.1Z"/>
    <path class="cls-3" d="M74.6,10.2h-.4c-1.1,0-1.9.7-1.9,1.8v3.5h-1.4v-6.5h1.3v.9c.4-.6,1.1-.9,1.9-.9s.4,0,.5,0v1.3h0Z"/>
    <path class="cls-3" d="M76.7,12.7c.2,1,1,1.7,2.1,1.7s1.3-.3,1.9-.8l.7.9c-.8.7-1.6,1-2.6,1-2,0-3.5-1.5-3.5-3.4s1.5-3.4,3.4-3.4c1.7,0,3,1.3,3,3s0,.5-.1.9c0,0-4.8,0-4.8,0ZM80.2,11.6c0-1-.8-1.6-1.7-1.6s-1.6.6-1.9,1.6h3.5Z"/>
  </g>
</svg>