<?xml version="1.0" encoding="UTF-8"?>
<svg id="Layer_1" data-name="Layer 1" xmlns="http://www.w3.org/2000/svg" version="1.1" viewBox="0 0 57.2 15.3">
  <defs>
    <style>
      .cls-1 {
        fill: #fff;
        stroke-width: 0px;
      }
    </style>
  </defs>
  <path class="cls-1" d="M7.1,1.2c2.3,0,4.3,1,5.6,2.8l-1.2,1c-1.1-1.4-2.5-2.3-4.3-2.3-3.1,0-5.5,2.5-5.4,5.5,0,3.1,2.4,5.7,5.5,5.6,2,0,3.6-1,4.5-2.4v-1.8h-4.6v-1.4h6.3v3.6c-.6,1.1-1.5,1.9-2.6,2.6-1.1.6-2.3,1-3.7,1C3.2,15.4,0,12.1,0,8.2,0,4.3,3.2,1.1,7.1,1.2Z"/>
  <path class="cls-1" d="M23.7,15.1h-1.5v-1.3c-.7,1-1.9,1.5-3.4,1.5s-3.5-1.1-3.5-2.8,1.4-2.8,3.6-2.8h3.2v-.9c0-1.7-.9-2.5-2.4-2.5s-2.1.5-2.9,1.6l-1.1-.9c.9-1.5,2.4-2.2,4.1-2.2,2.4,0,3.9,1.4,3.9,4.1v6.2ZM22.1,11h-3c-1.4,0-2.2.5-2.2,1.4s.9,1.6,2.1,1.6,3.1-1.2,3.1-2.8v-.2Z"/>
  <path class="cls-1" d="M27.9,0c.6,0,1.2.5,1.2,1.2s-.5,1.2-1.2,1.2-1.2-.5-1.2-1.2.5-1.2,1.2-1.2ZM27.1,5h1.6v10.1h-1.6V5Z"/>
  <path class="cls-1" d="M40.5,15.1h-1.6v-6.1c0-1.6-1-2.7-2.5-2.7s-2.6,1.1-2.6,2.7v6.1h-1.6V5h1.5v1.1c.7-.8,1.8-1.3,3.1-1.3,2.3,0,3.7,1.6,3.7,4v6.3Z"/>
  <path class="cls-1" d="M57.2,15.1h-1.5v-1.3c-.7,1-1.9,1.5-3.4,1.5s-3.5-1.1-3.5-2.8,1.4-2.8,3.6-2.8h3.2v-.9c0-1.7-.9-2.5-2.4-2.5s-2.1.5-2.9,1.6l-1.1-.9c.9-1.5,2.4-2.2,4.1-2.2,2.4,0,3.9,1.4,3.9,4.1v6.2ZM55.6,11h-3c-1.4,0-2.2.5-2.2,1.4s.9,1.6,2.1,1.6,3.1-1.2,3.1-2.8v-.2Z"/>
</svg>