<?xml version="1.0" encoding="UTF-8"?>
<svg id="Layer_1" data-name="Layer 1" xmlns="http://www.w3.org/2000/svg" version="1.1" viewBox="0 0 181.9 19.7">
  <defs>
    <style>
      .cls-1 {
        fill: #fff;
        stroke-width: 0px;
      }
    </style>
  </defs>
  <path class="cls-1" d="M3,5.7h2.5v1.4h-2.5v8.6h-1.6V7.1H0v-1.4h1.4v-2.4C1.4,1.1,2.7,0,4.8,0s.9,0,1.3.2v1.3c-.3,0-.6,0-.9,0-1.3,0-2.1.5-2.1,1.9v2.3ZM8.6.7c.6,0,1.2.5,1.2,1.2s-.5,1.2-1.2,1.2-1.2-.5-1.2-1.2.5-1.2,1.2-1.2ZM7.8,5.7h1.6v10.1h-1.6V5.7Z"/>
  <path class="cls-1" d="M21.2,15.7h-1.6v-6.1c0-1.6-1-2.7-2.5-2.7s-2.6,1.1-2.6,2.7v6.1h-1.6V5.7h1.5v1.1c.7-.8,1.8-1.3,3.1-1.3,2.3,0,3.7,1.6,3.7,4v6.3Z"/>
  <path class="cls-1" d="M32.1,15.7h-1.5v-1.3c-.7,1-1.9,1.5-3.4,1.5s-3.5-1.1-3.5-2.8,1.4-2.8,3.6-2.8h3.2v-.9c0-1.7-.9-2.5-2.4-2.5s-2.1.5-2.9,1.6l-1.1-.9c.9-1.5,2.4-2.2,4.1-2.2,2.4,0,3.9,1.4,3.9,4.1v6.2ZM30.5,11.6h-3c-1.4,0-2.2.5-2.2,1.4s.9,1.6,2.1,1.6,3.1-1.2,3.1-2.8v-.2Z"/>
  <path class="cls-1" d="M43.8,15.7h-1.6v-6.1c0-1.6-1-2.7-2.5-2.7s-2.6,1.1-2.6,2.7v6.1h-1.6V5.7h1.5v1.1c.7-.8,1.8-1.3,3.1-1.3,2.3,0,3.7,1.6,3.7,4v6.3Z"/>
  <path class="cls-1" d="M51.7,5.4c1.8,0,3.2.8,4.2,2.2l-1.1.9c-.8-1.1-1.8-1.6-3-1.6-2.1,0-3.7,1.7-3.7,3.8s1.6,3.8,3.7,3.8,2.2-.5,3-1.6l1.1.9c-.9,1.3-2.4,2.2-4.1,2.2-2.9,0-5.3-2.4-5.3-5.3,0-2.9,2.4-5.3,5.3-5.2Z"/>
  <path class="cls-1" d="M59.3.7c.6,0,1.2.5,1.2,1.2s-.5,1.2-1.2,1.2-1.2-.5-1.2-1.2.5-1.2,1.2-1.2ZM58.5,5.7h1.6v10.1h-1.6V5.7Z"/>
  <path class="cls-1" d="M71.9,15.7h-1.6v-6.1c0-1.6-1-2.7-2.5-2.7s-2.6,1.1-2.6,2.7v6.1h-1.6V5.7h1.5v1.1c.7-.8,1.8-1.3,3.1-1.3,2.3,0,3.7,1.6,3.7,4v6.3Z"/>
  <path class="cls-1" d="M84.9,5.7v9.1c0,3.1-1.9,4.9-4.9,4.9s-3.6-.8-4.7-1.9l.9-1.1c1.1,1,2.3,1.6,3.8,1.6s3.3-1.2,3.3-3.4v-.9c-.8,1.1-2.2,1.7-3.7,1.7-2.8,0-4.9-2.2-4.9-5.1s2.1-5.1,4.9-5.1,3.1.7,3.8,1.8v-1.6h1.5ZM79.9,6.9c-2,0-3.6,1.5-3.6,3.6s1.5,3.6,3.6,3.6,3.5-1.2,3.5-3.6-1.7-3.6-3.5-3.6Z"/>
  <path class="cls-1" d="M94.3,12.9c1,1,1.8,1.5,2.9,1.5s1.9-.5,1.9-1.4-.5-1.1-1.8-1.6l-1-.4c-1.7-.7-2.5-1.4-2.5-2.8s1.5-2.8,3.4-2.8,2.5.6,3.4,1.6l-1,1c-.7-.7-1.5-1.1-2.5-1.1s-1.7.5-1.7,1.3.4,1,1.6,1.5l.9.4c1.9.8,2.7,1.6,2.7,3s-.4,1.7-1,2.2c-.7.5-1.5.8-2.5.8-1.7,0-3-.8-3.9-2l1-1.1Z"/>
  <path class="cls-1" d="M108.1,5.4c2.9,0,5.3,2.4,5.3,5.2,0,2.8-2.4,5.3-5.3,5.2-2.9,0-5.3-2.4-5.2-5.2,0-2.9,2.4-5.3,5.3-5.2ZM108.1,6.9c-2.1,0-3.6,1.6-3.6,3.8s1.6,3.8,3.6,3.8,3.7-1.7,3.7-3.8-1.6-3.8-3.6-3.8Z"/>
  <path class="cls-1" d="M116.2.2h1.6v15.5h-1.6V.2Z"/>
  <path class="cls-1" d="M121.1,5.7h1.6v6.2c0,1.6,1.1,2.7,2.6,2.7s2.6-1.1,2.6-2.7v-6.2h1.6v6.1c0,2.5-1.8,4.2-4.2,4.2s-4.2-1.7-4.2-4.2v-6.1Z"/>
  <path class="cls-1" d="M138.3,15.7c-.6.1-1.2.2-1.7.2-2.1,0-3.4-1.1-3.4-3.3v-5.6h-1.7v-1.4h1.7v-2.7h1.6v2.7h3.1v1.4h-3.1v5.5c0,1.4.7,1.9,2.1,1.9s.8,0,1.3-.1v1.3Z"/>
  <path class="cls-1" d="M141.5.7c.6,0,1.2.5,1.2,1.2s-.5,1.2-1.2,1.2-1.2-.5-1.2-1.2.5-1.2,1.2-1.2ZM140.7,5.7h1.6v10.1h-1.6V5.7Z"/>
  <path class="cls-1" d="M150.3,5.4c2.9,0,5.3,2.4,5.3,5.2,0,2.8-2.4,5.3-5.3,5.2-2.9,0-5.3-2.4-5.2-5.2,0-2.9,2.4-5.3,5.3-5.2ZM150.3,6.9c-2.1,0-3.6,1.6-3.6,3.8s1.6,3.8,3.6,3.8,3.7-1.7,3.7-3.8-1.6-3.8-3.6-3.8Z"/>
  <path class="cls-1" d="M166.7,15.7h-1.6v-6.1c0-1.6-1-2.7-2.5-2.7s-2.6,1.1-2.6,2.7v6.1h-1.6V5.7h1.5v1.1c.7-.8,1.8-1.3,3.1-1.3,2.3,0,3.7,1.6,3.7,4v6.3Z"/>
  <path class="cls-1" d="M170.1,12.9c1,1,1.8,1.5,2.9,1.5s1.9-.5,1.9-1.4-.5-1.1-1.8-1.6l-1-.4c-1.7-.7-2.5-1.4-2.5-2.8s1.5-2.8,3.4-2.8,2.5.6,3.4,1.6l-1,1c-.7-.7-1.5-1.1-2.5-1.1s-1.7.5-1.7,1.3.4,1,1.6,1.5l.9.4c1.9.8,2.7,1.6,2.7,3s-.4,1.7-1,2.2-1.5.8-2.5.8c-1.7,0-3-.8-3.9-2l1-1.1Z"/>
  <path class="cls-1" d="M180.6,13.3c.7,0,1.3.6,1.3,1.3s-.6,1.3-1.3,1.3-1.3-.6-1.3-1.3.6-1.3,1.3-1.3Z"/>
</svg>