<?xml version="1.0" encoding="UTF-8"?>
<svg id="Layer_1" data-name="Layer 1" xmlns="http://www.w3.org/2000/svg" version="1.1" viewBox="0 0 78.7 15.7">
  <defs>
    <style>
      .cls-1 {
        fill: #fff;
        stroke-width: 0px;
      }
    </style>
  </defs>
  <path class="cls-1" d="M16.5,5.4l-4.2,10.3h-.6l-3.4-7.6-3.4,7.6h-.6L0,5.4h1.7l2.9,7.5,3.3-7.7h.6l3.4,7.6,2.9-7.4h1.7Z"/>
  <path class="cls-1" d="M19.6.4c.6,0,1.2.5,1.2,1.2s-.5,1.2-1.2,1.2-1.2-.5-1.2-1.2.5-1.2,1.2-1.2ZM18.8,5.4h1.6v10.1h-1.6V5.4Z"/>
  <path class="cls-1" d="M29.4,15.5c-.6.1-1.2.2-1.7.2-2.1,0-3.4-1.1-3.4-3.3v-5.6h-1.7v-1.4h1.7v-2.7h1.6v2.7h3.1v1.4h-3.1v5.5c0,1.4.7,1.9,2.1,1.9s.8,0,1.3-.1v1.3Z"/>
  <path class="cls-1" d="M40.1,15.5h-1.6v-6.1c0-1.6-1-2.7-2.5-2.7s-2.6,1.1-2.6,2.7v6.1h-1.6V0h1.6v6.6c.7-.8,1.8-1.4,3-1.4,2.3,0,3.7,1.6,3.7,4v6.3Z"/>
  <path class="cls-1" d="M53.8,5.2c2.9,0,5.3,2.4,5.3,5.2,0,2.8-2.4,5.3-5.3,5.2-2.9,0-5.3-2.4-5.2-5.2,0-2.9,2.4-5.3,5.3-5.2ZM53.8,6.7c-2.1,0-3.6,1.6-3.6,3.8s1.6,3.8,3.6,3.8,3.7-1.7,3.7-3.8-1.6-3.8-3.6-3.8Z"/>
  <path class="cls-1" d="M61.7,5.4h1.6v6.2c0,1.6,1.1,2.7,2.6,2.7s2.6-1.1,2.6-2.7v-6.2h1.6v6.1c0,2.5-1.8,4.2-4.2,4.2s-4.2-1.7-4.2-4.2v-6.1Z"/>
  <path class="cls-1" d="M78.7,6.8h-.6c-1.7,0-3.2,1.1-3.2,3v5.7h-1.6V5.4h1.5v1.4c.7-1,1.9-1.5,3.1-1.5s.5,0,.7,0v1.4Z"/>
</svg>