<?xml version="1.0" encoding="UTF-8"?>
<svg id="Layer_1" data-name="Layer 1" xmlns="http://www.w3.org/2000/svg" version="1.1" viewBox="0 0 281.8 26">
  <defs>
    <style>
      .cls-1 {
        fill: #ffbf3f;
        stroke-width: 0px;
      }
    </style>
  </defs>
  <path class="cls-1" d="M2.1,15.7c1.2,1.8,2.7,2.9,4.8,2.9s3.2-1,3.2-2.6-.8-1.9-2.7-2.8l-2-1c-2.7-1.2-4.3-2.7-4.3-5.1S3.7,2.2,6.9,2.2s4.8,1.3,6,3.3l-2.1,1.6c-1-1.5-2.3-2.2-3.9-2.2s-2.8.8-2.8,2.2c.1,1.5.8,1.7,2.6,2.6l2.1,1c3,1.4,4.4,2.8,4.4,5.3s-2.6,5.3-6.2,5.3-5.5-1.5-7-4l2.1-1.6Z"/>
  <path class="cls-1" d="M18.9,15.1c.4,2.2,2.1,3.6,4.5,3.6s2.8-.5,4-1.6l1.4,2c-1.6,1.5-3.4,2.2-5.5,2.2-4.2,0-7.4-3.1-7.4-7.2,0-3.9,3.2-7.3,7.1-7.2,3.6,0,6.3,2.7,6.3,6.3s0,1.2-.2,1.8h-10.2ZM26.4,12.8c0-2.1-1.6-3.4-3.5-3.4s-3.5,1.3-3.9,3.4h7.5Z"/>
  <path class="cls-1" d="M34.8,15.1c.4,2.2,2.1,3.6,4.5,3.6s2.8-.5,4-1.6l1.4,2c-1.6,1.5-3.4,2.2-5.5,2.2-4.2,0-7.4-3.1-7.4-7.2,0-3.9,3.2-7.3,7.1-7.2,3.6,0,6.3,2.7,6.3,6.3s0,1.2-.2,1.8h-10.2ZM42.3,12.8c0-2.1-1.6-3.4-3.5-3.4s-3.5,1.3-3.9,3.4h7.5Z"/>
  <path class="cls-1" d="M68.5,21h-2.9v-8.2c0-1.9-1.2-3.2-3-3.2s-3.1,1.3-3.1,3.2v8.2h-2.9V0h2.9v8.6c.9-1.1,2.3-1.7,4-1.7,3.1,0,5.1,2.2,5.1,5.5v8.6Z"/>
  <path class="cls-1" d="M78.9,6.9c4,0,7.4,3.3,7.3,7.2,0,3.9-3.3,7.3-7.3,7.2-3.9,0-7.3-3.3-7.2-7.2,0-3.9,3.3-7.2,7.2-7.2ZM78.9,9.6c-2.4,0-4.3,2-4.3,4.5s1.8,4.4,4.3,4.4,4.3-2,4.3-4.4-1.9-4.5-4.3-4.5Z"/>
  <path class="cls-1" d="M110.2,7.2l-6.1,14h-1l-4.3-9.1-4.3,9.1h-1l-6.1-14h3.1l3.6,9,4.2-9.3h1l4.2,9.2,3.6-8.9h3.1Z"/>
  <path class="cls-1" d="M141.1,7.2l-6.1,14h-1l-4.3-9.1-4.3,9.1h-1l-6.1-14h3.1l3.6,9,4.2-9.3h1l4.2,9.2,3.6-8.9h3.1Z"/>
  <path class="cls-1" d="M145.3,15.1c.4,2.2,2.1,3.6,4.5,3.6s2.8-.5,4-1.6l1.4,2c-1.6,1.5-3.4,2.2-5.5,2.2-4.2,0-7.4-3.1-7.4-7.2,0-3.9,3.2-7.3,7.1-7.2,3.6,0,6.3,2.7,6.3,6.3s0,1.2-.2,1.8h-10.2ZM152.8,12.8c0-2.1-1.6-3.4-3.5-3.4s-3.5,1.3-3.9,3.4h7.5Z"/>
  <path class="cls-1" d="M173.4,6.9c2.5,0,4.6,1.2,5.8,3.2l-2.1,1.6c-1-1.4-2.2-2.1-3.7-2.1-2.5,0-4.3,2-4.3,4.4s1.8,4.5,4.3,4.5,2.7-.7,3.7-2.1l2.1,1.6c-1.2,2-3.3,3.2-5.8,3.2-4.1,0-7.3-3.2-7.3-7.2,0-3.9,3.3-7.2,7.3-7.2Z"/>
  <path class="cls-1" d="M193.3,21h-2.7v-1.5c-1,1.2-2.5,1.8-4.4,1.8-2.9,0-4.8-1.6-4.8-4s2-3.9,5.1-3.9h3.9v-.9c0-1.9-1.1-2.9-2.9-2.9s-2.7.7-3.8,2l-1.7-1.7c1.4-2,3.4-2.9,5.8-2.9,3.4,0,5.6,2,5.6,5.7v8.3ZM190.3,15.5h-3.5c-1.6,0-2.4.6-2.4,1.7s1,1.8,2.4,1.8,3.6-1.4,3.6-3.2v-.3Z"/>
  <path class="cls-1" d="M209.4,21h-2.9v-8.2c0-1.9-1.2-3.2-3-3.2s-3.1,1.3-3.1,3.2v8.2h-2.9V7.2h2.7v1.3c1-1.1,2.4-1.6,4.1-1.6,3.2,0,5.1,2.2,5.1,5.5v8.6Z"/>
  <path class="cls-1" d="M233.3,21h-2.9v-8.2c0-1.9-1.2-3.2-3-3.2s-3.1,1.3-3.1,3.2v8.2h-2.9V0h2.9v8.6c.9-1.1,2.3-1.7,4-1.7,3.1,0,5.1,2.2,5.1,5.5v8.6Z"/>
  <path class="cls-1" d="M239.5,15.1c.4,2.2,2.1,3.6,4.5,3.6s2.8-.5,4-1.6l1.4,2c-1.6,1.5-3.4,2.2-5.5,2.2-4.2,0-7.4-3.1-7.4-7.2,0-3.9,3.2-7.3,7.1-7.2,3.6,0,6.3,2.7,6.3,6.3s0,1.2-.2,1.8h-10.2ZM247,12.8c0-2.1-1.6-3.4-3.5-3.4s-3.5,1.3-3.9,3.4h7.5Z"/>
  <path class="cls-1" d="M253.3,0h2.9v21h-2.9V0Z"/>
  <path class="cls-1" d="M268,21.3c-1.9,0-3.5-.7-4.6-2v6.7h-2.9V7.2h2.7v1.9c1-1.4,2.8-2.2,4.8-2.2,3.9,0,6.7,3.1,6.7,7.2s-2.9,7.2-6.7,7.2ZM267.5,9.6c-2.2,0-4.1,1.5-4.1,4.5s2,4.5,4.1,4.5,4.2-1.8,4.2-4.5-1.8-4.5-4.2-4.5Z"/>
  <path class="cls-1" d="M279.7,17c1.2,0,2.2.9,2.2,2.2s-.9,2.2-2.2,2.2-2.2-.9-2.2-2.2,1-2.2,2.2-2.2Z"/>
</svg>