<?xml version="1.0" encoding="utf-8"?>
<!-- Generator: Adobe Illustrator 19.1.0, SVG Export Plug-In . SVG Version: 6.00 Build 0)  -->
<svg version="1.1" id="Layer_2" xmlns="http://www.w3.org/2000/svg" xmlns:xlink="http://www.w3.org/1999/xlink" x="0px" y="0px"
	 viewBox="0 0 104.63 28.998" enable-background="new 0 0 104.63 28.998" xml:space="preserve">
<g>
	<path fill="#FFFFFF" d="M6.054,26.261c-0.229-1.272,0.312-2.785,0.064-4.161c-0.124-0.688-0.566-1.064-1.248-0.947
		c-0.853,0.147-1.677,1.063-1.675,3.149l0,4.15l-3.178,0.546L0,15.799l3.19-0.551l-0.015,5.529c0.533-1.188,1.714-2.079,2.802-2.266
		c1.749-0.301,2.968,0.608,3.246,2.151c0.248,1.377-0.185,3.731-0.012,4.69c0.071,0.397,0.318,0.547,0.66,0.489
		c0.256-0.044,0.415-0.136,0.575-0.228l0.214,1.189c-0.424,0.331-1.164,0.738-2.188,0.914C7.362,27.907,6.283,27.534,6.054,26.261z"
		/>
	<path fill="#FFFFFF" d="M11.282,22.33c-0.073-2.848,2.144-5.186,4.81-5.644c1.727-0.297,3.243,0.303,3.446,1.795
		c0.199,1.471-1.047,3.341-4.911,4.715c0.39,0.943,1.257,1.117,1.958,1.104c1.05-0.03,2.084-0.638,2.83-1.498l0.798,1.497
		c-0.883,1.076-2.065,1.839-3.878,2.151C13.285,26.975,11.338,24.837,11.282,22.33z M16.887,19.388
		c0.004-0.345-0.296-0.788-0.85-0.693c-0.896,0.154-1.726,1.157-1.725,3.114C15.97,21.137,16.875,20.057,16.887,19.388z"/>
	<path fill="#FFFFFF" d="M22.029,18.396c0-0.731-0.24-0.969-0.688-0.892c-0.235,0.04-0.416,0.136-0.574,0.228l-0.214-1.189
		c0.441-0.355,1.1-0.727,2.167-0.91c1.173-0.202,2.036,0.316,2.342,1.403c0.44-1.216,1.54-2.071,2.521-2.24
		c1.429-0.246,2.471,0.414,2.689,1.623c0.147,0.814-0.334,2.294-1.934,2.569c-0.363,0.062-0.673,0.051-0.876,0.021
		c0.027-0.091,0.241-0.493,0.162-0.931c-0.079-0.438-0.462-0.738-0.996-0.646c-0.746,0.128-1.408,0.973-1.406,3.059l0.004,4.172
		l-3.178,0.547L22.029,18.396z"/>
	<path fill="#FFFFFF" d="M31.01,18.938c-0.073-2.848,2.144-5.186,4.81-5.644c1.728-0.297,3.243,0.302,3.446,1.795
		c0.199,1.471-1.047,3.341-4.911,4.715c0.39,0.944,1.257,1.117,1.958,1.104c1.05-0.03,2.084-0.638,2.83-1.498l0.798,1.497
		c-0.883,1.076-2.065,1.839-3.878,2.151C33.013,23.583,31.066,21.445,31.01,18.938z M36.615,15.996
		c0.004-0.345-0.296-0.788-0.851-0.693c-0.895,0.154-1.726,1.157-1.726,3.114C35.699,17.745,36.604,16.665,36.615,15.996z"/>
	<path fill="#FFFFFF" d="M45.216,17.851l0.012-3.959l-1.28,0.22l-0.001-1.957l1.28-0.22l0.014-2.652l3.146-0.558l0.018,2.664
		l2.026-0.349l0.001,1.957l-2.026,0.348l0.003,3.677c-0.006,1.184,0.341,1.769,1.173,1.626c0.427-0.073,0.724-0.254,0.989-0.492
		l0.466,1.49c-0.437,0.505-1.276,0.972-2.513,1.185C46.583,21.164,45.2,20.198,45.216,17.851z"/>
	<path fill="#FFFFFF" d="M57.128,19.523c-3.135,0.539-5.477-1.596-5.489-4.346c-0.019-2.793,2.124-5.053,4.811-5.516
		c3.157-0.543,5.477,1.596,5.489,4.347C61.958,16.8,59.815,19.061,57.128,19.523z M56.688,11.835
		c-1.045,0.18-1.908,1.124-1.905,2.973c-0.005,2.044,0.955,2.739,2.107,2.541c1.003-0.172,1.938-1.086,1.926-2.976
		C58.804,12.353,57.818,11.641,56.688,11.835z"/>
	<path fill="#FFFFFF" d="M72.897,14.712c-0.229-1.272,0.311-2.785,0.063-4.161c-0.124-0.688-0.565-1.064-1.248-0.947
		c-0.853,0.147-1.678,1.062-1.675,3.148l0,4.15l-3.178,0.547L66.843,4.249l3.19-0.549l-0.015,5.529
		c0.533-1.189,1.714-2.08,2.802-2.267c1.749-0.301,2.968,0.608,3.246,2.152c0.248,1.377-0.185,3.731-0.012,4.69
		c0.071,0.396,0.319,0.547,0.66,0.489c0.256-0.044,0.415-0.136,0.575-0.228l0.214,1.189c-0.424,0.331-1.165,0.738-2.188,0.914
		C74.205,16.359,73.126,15.985,72.897,14.712z"/>
	<path fill="#FFFFFF" d="M78.125,10.781c-0.073-2.848,2.144-5.186,4.81-5.644c1.728-0.297,3.243,0.303,3.446,1.795
		c0.199,1.471-1.047,3.341-4.911,4.715c0.39,0.943,1.257,1.117,1.958,1.104c1.05-0.03,2.084-0.638,2.83-1.498l0.798,1.497
		c-0.883,1.077-2.065,1.839-3.878,2.151C80.127,15.427,78.181,13.288,78.125,10.781z M83.729,7.84
		c0.004-0.345-0.296-0.788-0.85-0.693c-0.895,0.154-1.726,1.157-1.726,3.114C82.813,9.588,83.718,8.508,83.729,7.84z"/>
	<path fill="#FFFFFF" d="M88.37,11.386L88.362,0.53L91.551,0L91.55,10.731c-0.008,0.689,0.241,0.969,0.689,0.892
		c0.235-0.04,0.415-0.136,0.575-0.228l0.214,1.189c-0.441,0.356-1.122,0.731-2.166,0.91C89.539,13.722,88.38,13.148,88.37,11.386z"
		/>
	<path fill="#FFFFFF" d="M100.175,11.98c-0.64,0.11-1.502,0.086-2.149-0.211l0.001,4.516l-3.178,0.546l-0.011-9.697
		c-0.237,0.514-0.556,1.063-0.928,1.557l-0.853-0.585c1.06-1.558,2.052-3.621,2.031-5.811l-0.011-0.794l2.751-0.473l-0.014,2.97
		c0.478-1.007,1.607-1.696,2.631-1.872c2.602-0.448,4.189,1.645,4.186,4.313C104.62,9.194,102.798,11.529,100.175,11.98z
		 M99.59,4.467c-0.875,0.15-1.583,1.218-1.579,2.465l0.018,2.664c0.376,0.258,0.848,0.435,1.53,0.317
		c1.152-0.198,1.813-1.409,1.851-3.028C101.446,5.245,100.785,4.262,99.59,4.467z"/>
</g>
</svg>
