<?xml version="1.0" encoding="utf-8"?>
<!-- Generator: Adobe Illustrator 19.1.0, SVG Export Plug-In . SVG Version: 6.00 Build 0)  -->
<svg version="1.1" xmlns="http://www.w3.org/2000/svg" xmlns:xlink="http://www.w3.org/1999/xlink" x="0px" y="0px"
	 viewBox="0 0 40.159 54.528" enable-background="new 0 0 40.159 54.528" xml:space="preserve">
<g id="Layer_1" display="none">
	<g id="_x35_5OItO_1_" display="inline">
		
			<image overflow="visible" width="160" height="600" id="_x35_5OItO" xlink:href="CC73F31C68A1187.jpg"  transform="matrix(1 0 0 1 -59.2898 -250.2589)">
		</image>
	</g>
</g>
<g id="Bubbles" display="none">
	
		<image display="inline" overflow="visible" width="136" height="151" id="bottomdropsSpot2_2_" xlink:href="CC73F31C68A1185.png"  transform="matrix(-0.034 -0.0592 0.0592 -0.034 7.0962 54.7562)">
	</image>
	
		<image display="inline" overflow="visible" width="136" height="151" id="PANTONE_286_C_1_" xlink:href="CC73F31C68A118B.png"  transform="matrix(-0.034 -0.0592 0.0592 -0.034 7.0962 54.7562)">
	</image>
	
		<image display="inline" overflow="visible" width="136" height="151" id="PANTONE_299_C_2_" xlink:href="CC73F31C68A118D.png"  transform="matrix(-0.034 -0.0592 0.0592 -0.034 7.0962 54.7562)">
	</image>
</g>
<g id="h2" display="none">
	<linearGradient id="XMLID_2_" gradientUnits="userSpaceOnUse" x1="58.0776" y1="-6.2851" x2="58.0776" y2="50.7857">
		<stop  offset="0.35" style="stop-color:#B2E3F5"/>
		<stop  offset="1" style="stop-color:#00A0DD"/>
	</linearGradient>
	<path id="XMLID_12_" display="inline" fill="url(#XMLID_2_)" d="M60.015,11.761c-4.591,0.799-7.356,3.362-8.726,6.219V-0.626
		c0-4.18-2.282-6.134-5.661-6.041c-3.381,0.087-6.466,0.33-6.466,0.33v51.135c0,4.018,2.203,6.714,6.065,6.037l6.062-1.038v-19.75
		c0-3.096,1.746-7.542,5.894-8.264c3.258-0.568,5.373,1.547,5.373,5.434v11.46c0,6.605,2.796,9.023,8.129,8.096l6.309-1.15v-1.849
		c0,0-2.114-1.406-2.114-4.875V23.472C74.88,15.645,68.68,10.25,60.015,11.761z"/>
	<path id="XMLID_10_" display="inline" fill="#D0202E" d="M61.009,10.814c-4.591,0.8-7.356,3.363-8.726,6.219V-1.573
		c0-4.179-2.282-6.133-5.661-6.041c-3.381,0.087-6.466,0.331-6.466,0.331v51.136c0,4.017,2.203,6.713,6.065,6.036l6.062-1.038
		v-19.75c0-3.095,1.746-7.542,5.894-8.264c3.258-0.568,5.373,1.547,5.373,5.434v11.46c0,6.605,2.796,9.022,8.128,8.094l6.31-1.15
		v-1.848c0,0-2.114-1.407-2.114-4.876V22.525C75.874,14.698,69.675,9.303,61.009,10.814z"/>
</g>
<g id="t">
	<linearGradient id="XMLID_3_" gradientUnits="userSpaceOnUse" x1="19.5817" y1="0.947" x2="19.5817" y2="54.3487">
		<stop  offset="0.35" style="stop-color:#B2E3F5"/>
		<stop  offset="1" style="stop-color:#00A0DD"/>
	</linearGradient>
	<path id="XMLID_11_" fill="url(#XMLID_3_)" d="M28.066,17.055L39.163,15.1V9.074l-11.097,1.934l0,0V6.993
		c0-4.203-2.374-6.132-5.754-6.043c-2.551,0.067-6.073,0.248-7.519,0.332v12.022L0.378,15.833c-0.518,0.716-1.357,6.193,4.139,5.31
		c4.423-0.71,10.276-1.784,10.276-1.784v22.542c0,13.649,10.421,15.018,20.51,9.844v-1.626c-5.804-1.458-7.237-4.021-7.237-9.719
		V17.055z"/>
	<path id="XMLID_9_" fill="#D0202E" d="M29.061,16.108l11.097-1.954V8.128l-11.097,1.933l0,0V6.046c0-4.204-2.374-6.133-5.754-6.043
		c-2.55,0.067-6.073,0.25-7.519,0.332v12.022L1.373,14.886c-0.517,0.716-1.356,6.194,4.139,5.31
		c4.423-0.71,10.276-1.784,10.276-1.784v22.542c0,13.649,10.421,15.018,20.51,9.844v-1.626c-5.805-1.458-7.237-4.02-7.237-9.717
		V16.108z"/>
</g>
<g id="h1" display="none">
	<linearGradient id="XMLID_4_" gradientUnits="userSpaceOnUse" x1="-8.79" y1="5.351" x2="-8.79" y2="62.4227">
		<stop  offset="0.35" style="stop-color:#B2E3F5"/>
		<stop  offset="1" style="stop-color:#00A0DD"/>
	</linearGradient>
	<path id="XMLID_8_" display="inline" fill="url(#XMLID_4_)" d="M-6.853,23.397c-4.591,0.8-7.356,3.363-8.726,6.219V11.011
		c0-4.18-2.282-6.134-5.661-6.042c-3.381,0.088-6.466,0.33-6.466,0.33v51.137c0,4.017,2.202,6.712,6.065,6.037l6.062-1.039V41.684
		c0-3.095,1.746-7.541,5.894-8.263c3.258-0.568,5.373,1.547,5.373,5.433v11.46c0,6.605,2.796,9.023,8.129,8.095l6.309-1.149v-1.849
		c0,0-2.114-1.408-2.114-4.877V35.108C8.012,27.281,1.813,21.887-6.853,23.397z"/>
	<path id="XMLID_7_" display="inline" fill="#D0202E" d="M-5.858,22.451c-4.591,0.8-7.356,3.363-8.726,6.219V10.064
		c0-4.18-2.282-6.134-5.661-6.041c-3.381,0.087-6.466,0.331-6.466,0.331v51.135c0,4.018,2.202,6.714,6.064,6.037l6.062-1.038v-19.75
		c0-3.097,1.746-7.543,5.894-8.265c3.259-0.568,5.373,1.547,5.373,5.434v11.461c0,6.603,2.796,9.022,8.129,8.094l6.309-1.15v-1.849
		c0,0-2.114-1.406-2.114-4.875V34.161C9.007,26.335,2.807,20.94-5.858,22.451z"/>
</g>
</svg>
