<?xml version="1.0" encoding="utf-8"?>
<!-- Generator: Adobe Illustrator 19.1.0, SVG Export Plug-In . SVG Version: 6.00 Build 0)  -->
<svg version="1.1" id="Layer_2" xmlns="http://www.w3.org/2000/svg" xmlns:xlink="http://www.w3.org/1999/xlink" x="0px" y="0px"
	 viewBox="0 0 283.201 87.588" enable-background="new 0 0 283.201 87.588" xml:space="preserve">
<g>
	<path fill="#FFFFFF" d="M5.449,40.227v-0.16c0-15.867,11.861-29.011,28.37-29.011c9.056,0,14.826,2.966,20.035,7.293
		c0.641,0.562,1.282,1.442,1.282,2.564c0,1.684-1.522,3.126-3.206,3.126c-0.881,0-1.603-0.401-2.083-0.722
		c-4.328-3.847-9.216-6.411-16.108-6.411c-12.422,0-21.718,10.098-21.718,23v0.16c0,12.982,9.376,23.16,21.718,23.16
		c6.972,0,11.86-2.404,16.669-6.812c0.48-0.48,1.202-0.882,2.003-0.882c1.603,0,3.045,1.442,3.045,3.046
		c0,0.961-0.48,1.763-1.042,2.243c-5.53,5.049-11.62,8.255-20.836,8.255C17.39,69.077,5.449,56.335,5.449,40.227z"/>
	<path fill="#FFFFFF" d="M67.074,14.822c0-1.763,1.443-3.205,3.125-3.205c1.763,0,3.206,1.442,3.206,3.205v47.442h29.091
		c1.603,0,2.885,1.363,2.885,2.966s-1.282,2.885-2.885,2.885H70.199c-1.683,0-3.125-1.442-3.125-3.206V14.822z"/>
	<path fill="#FFFFFF" d="M116.678,64.909V15.224c0-1.764,1.443-3.206,3.125-3.206h34.861c1.603,0,2.885,1.282,2.885,2.886
		c0,1.603-1.282,2.885-2.885,2.885h-31.655v19.153h28.049c1.603,0,2.885,1.362,2.885,2.885c0,1.603-1.282,2.885-2.885,2.885h-28.049
		v19.634h32.056c1.603,0,2.885,1.283,2.885,2.886s-1.282,2.885-2.885,2.885h-35.261C118.121,68.115,116.678,66.673,116.678,64.909z"
		/>
	<path fill="#FFFFFF" d="M166.924,63.948l22.759-49.767c0.802-1.763,2.004-2.805,4.007-2.805h0.321c1.923,0,3.205,1.042,3.927,2.805
		l22.759,49.687c0.241,0.561,0.401,1.122,0.401,1.603c0,1.683-1.362,3.045-3.046,3.045c-1.522,0-2.564-1.042-3.125-2.323
		l-5.851-12.903h-30.773l-5.85,13.063c-0.562,1.362-1.603,2.163-3.046,2.163c-1.603,0-2.885-1.282-2.885-2.885
		C166.522,65.15,166.603,64.589,166.924,63.948z M206.592,47.52L193.689,18.83L180.787,47.52H206.592z"/>
	<path fill="#FFFFFF" d="M233.196,15.224c0-1.764,1.442-3.206,3.126-3.206h20.996c6.892,0,12.422,2.084,15.947,5.61
		c2.726,2.725,4.328,6.651,4.328,11.059v0.16c0,9.217-6.251,14.586-14.986,16.269l13.944,17.951
		c0.642,0.722,1.042,1.442,1.042,2.324c0,1.683-1.603,3.125-3.206,3.125c-1.282,0-2.243-0.721-2.965-1.683l-15.787-20.516h-16.108
		v18.993c0,1.763-1.442,3.205-3.205,3.205c-1.684,0-3.126-1.442-3.126-3.205V15.224z M256.758,40.628
		c8.414,0,14.425-4.328,14.425-11.54v-0.161c0-6.892-5.289-11.059-14.345-11.059h-17.311v22.76H256.758z"/>
</g>
</svg>
