<?xml version="1.0" encoding="utf-8"?>
<!-- Generator: Adobe Illustrator 19.1.0, SVG Export Plug-In . SVG Version: 6.00 Build 0)  -->
<svg version="1.1" id="Layer_2" xmlns="http://www.w3.org/2000/svg" xmlns:xlink="http://www.w3.org/1999/xlink" x="0px" y="0px"
	 viewBox="0 0 175.43 72.567" enable-background="new 0 0 175.43 72.567" xml:space="preserve">
<g>
	<path fill="#FFFFFF" d="M7.866,16.318v-0.064c0-6.371,4.875-11.766,11.733-11.766c3.413,0,5.688,0.812,7.768,2.308
		c0.39,0.292,0.812,0.845,0.812,1.625c0,1.072-0.877,1.982-1.983,1.982c-0.52,0-0.91-0.228-1.235-0.455
		c-1.462-1.072-3.055-1.787-5.525-1.787c-4.192,0-7.377,3.672-7.377,8.027v0.065c0,4.68,3.087,8.125,7.735,8.125
		c2.145,0,4.095-0.683,5.493-1.723v-4.258h-4.485c-0.975,0-1.788-0.747-1.788-1.723c0-0.975,0.812-1.755,1.788-1.755h6.338
		c1.137,0,2.015,0.878,2.015,2.015v6.078c0,1.138-0.455,1.95-1.398,2.535c-1.95,1.3-4.68,2.47-8.093,2.47
		C12.546,28.019,7.866,22.948,7.866,16.318z"/>
	<path fill="#FFFFFF" d="M33.35,16.318v-0.064c0-6.403,4.94-11.766,11.928-11.766s11.863,5.298,11.863,11.7v0.065
		c0,6.402-4.94,11.765-11.928,11.765C38.226,28.019,33.35,22.722,33.35,16.318z M52.948,16.318v-0.064
		c0-4.421-3.217-8.093-7.735-8.093c-4.518,0-7.67,3.607-7.67,8.027v0.065c0,4.42,3.217,8.06,7.735,8.06
		C49.796,24.313,52.948,20.738,52.948,16.318z"/>
	<path fill="#FFFFFF" d="M71.738,6.894c0-1.138,0.877-2.016,2.015-2.016h13.261c1.008,0,1.82,0.812,1.82,1.82s-0.812,1.82-1.82,1.82
		H75.736v6.207h9.815c1.007,0,1.82,0.812,1.82,1.82s-0.812,1.82-1.82,1.82h-9.815v7.442c0,1.105-0.877,1.982-1.983,1.982
		c-1.137,0-2.015-0.877-2.015-1.982V6.894z"/>
	<path fill="#FFFFFF" d="M93.062,6.894c0-1.138,0.878-2.016,2.016-2.016h8.125c2.86,0,5.103,0.845,6.565,2.275
		c1.202,1.234,1.885,2.925,1.885,4.907v0.065c0,3.64-2.112,5.85-5.168,6.793l4.355,5.492c0.391,0.487,0.65,0.91,0.65,1.527
		c0,1.105-0.942,1.853-1.918,1.853c-0.91,0-1.495-0.422-1.95-1.04l-5.524-7.053H97.06v6.11c0,1.105-0.878,1.982-1.982,1.982
		c-1.138,0-2.016-0.877-2.016-1.982V6.894z M102.91,16.156c2.859,0,4.68-1.495,4.68-3.803v-0.065c0-2.438-1.755-3.77-4.713-3.77
		H97.06v7.638H102.91z"/>
	<path fill="#FFFFFF" d="M115.556,16.318v-0.064c0-6.403,4.939-11.766,11.928-11.766c6.987,0,11.862,5.298,11.862,11.7v0.065
		c0,6.402-4.939,11.765-11.928,11.765C120.431,28.019,115.556,22.722,115.556,16.318z M135.153,16.318v-0.064
		c0-4.421-3.218-8.093-7.735-8.093s-7.67,3.607-7.67,8.027v0.065c0,4.42,3.218,8.06,7.735,8.06S135.153,20.738,135.153,16.318z"/>
	<path fill="#FFFFFF" d="M144.191,6.763c0-1.104,0.878-2.015,2.016-2.015h0.422c0.878,0,1.463,0.455,1.853,1.072l6.891,10.791
		l6.923-10.823c0.423-0.683,1.008-1.04,1.82-1.04h0.422c1.138,0,2.016,0.91,2.016,2.015v19.046c0,1.105-0.878,1.982-2.016,1.982
		c-1.072,0-1.982-0.909-1.982-1.982v-13.65l-5.558,8.353c-0.423,0.65-0.942,1.04-1.69,1.04c-0.715,0-1.234-0.39-1.657-1.04
		l-5.525-8.287v13.618c0,1.104-0.877,1.949-1.982,1.949c-1.104,0-1.95-0.845-1.95-1.949V6.763z"/>
	<path fill="#FFFFFF" d="M1.917,52.318v-0.064c0-6.371,4.875-11.766,11.733-11.766c3.413,0,5.688,0.812,7.768,2.308
		c0.39,0.292,0.812,0.845,0.812,1.625c0,1.072-0.877,1.982-1.983,1.982c-0.52,0-0.91-0.228-1.235-0.455
		c-1.462-1.072-3.055-1.787-5.525-1.787c-4.192,0-7.377,3.672-7.377,8.027v0.065c0,4.68,3.087,8.125,7.735,8.125
		c2.145,0,4.095-0.683,5.493-1.723v-4.258h-4.485c-0.975,0-1.788-0.747-1.788-1.723c0-0.975,0.812-1.755,1.788-1.755h6.338
		c1.137,0,2.015,0.878,2.015,2.015v6.078c0,1.138-0.455,1.95-1.398,2.535c-1.95,1.3-4.68,2.47-8.093,2.47
		C6.598,64.019,1.917,58.948,1.917,52.318z"/>
	<path fill="#FFFFFF" d="M28.409,42.894c0-1.138,0.877-2.016,2.015-2.016h8.125c2.86,0,5.103,0.845,6.565,2.275
		C46.317,44.388,47,46.078,47,48.061v0.065c0,3.64-2.112,5.85-5.167,6.793l4.355,5.492c0.39,0.487,0.65,0.91,0.65,1.527
		c0,1.105-0.943,1.853-1.918,1.853c-0.91,0-1.495-0.422-1.95-1.04l-5.525-7.053h-5.038v6.11c0,1.105-0.877,1.982-1.983,1.982
		c-1.137,0-2.015-0.877-2.015-1.982V42.894z M38.257,52.156c2.86,0,4.68-1.495,4.68-3.803v-0.065c0-2.438-1.755-3.77-4.712-3.77
		h-5.818v7.638H38.257z"/>
	<path fill="#FFFFFF" d="M51.911,61.614V42.894c0-1.138,0.877-2.016,2.015-2.016h13.228c0.975,0,1.788,0.812,1.788,1.788
		c0,1.007-0.812,1.787-1.788,1.787H55.908v5.915h9.783c0.975,0,1.788,0.812,1.788,1.82c0,0.975-0.812,1.755-1.788,1.755h-9.783v6.11
		h11.408c0.975,0,1.788,0.812,1.788,1.788c0,1.007-0.812,1.787-1.788,1.787h-13.39C52.788,63.629,51.911,62.751,51.911,61.614z"/>
	<path fill="#FFFFFF" d="M73.689,61.614V42.894c0-1.138,0.877-2.016,2.015-2.016h13.228c0.976,0,1.788,0.812,1.788,1.788
		c0,1.007-0.812,1.787-1.788,1.787H77.687v5.915h9.783c0.975,0,1.788,0.812,1.788,1.82c0,0.975-0.812,1.755-1.788,1.755h-9.783v6.11
		h11.408c0.975,0,1.787,0.812,1.787,1.788c0,1.007-0.812,1.787-1.787,1.787H75.704C74.566,63.629,73.689,62.751,73.689,61.614z"/>
	<path fill="#FFFFFF" d="M95.467,42.763c0-1.104,0.878-2.015,2.016-2.015h0.422c0.976,0,1.528,0.487,2.08,1.17l11.376,14.724V42.666
		c0-1.073,0.877-1.95,1.95-1.95c1.104,0,1.982,0.877,1.982,1.95v19.11c0,1.105-0.845,1.982-1.95,1.982h-0.162
		c-0.943,0-1.528-0.487-2.08-1.202L99.399,47.411v14.431c0,1.072-0.877,1.949-1.95,1.949c-1.104,0-1.982-0.877-1.982-1.949V42.763z"
		/>
	<path fill="#FFFFFF" d="M136.488,44.583h-5.525c-1.04,0-1.853-0.845-1.853-1.853s0.812-1.853,1.853-1.853h15.113
		c1.007,0,1.819,0.845,1.819,1.853s-0.812,1.853-1.819,1.853h-5.558v17.226c0,1.105-0.91,1.982-2.016,1.982
		c-1.104,0-2.015-0.877-2.015-1.982V44.583z"/>
	<path fill="#FFFFFF" d="M149.719,52.318v-0.064c0-6.403,4.939-11.766,11.928-11.766c6.987,0,11.862,5.298,11.862,11.7v0.065
		c0,6.402-4.939,11.765-11.928,11.765C154.594,64.019,149.719,58.722,149.719,52.318z M169.316,52.318v-0.064
		c0-4.421-3.218-8.093-7.735-8.093s-7.67,3.607-7.67,8.027v0.065c0,4.42,3.218,8.06,7.735,8.06S169.316,56.738,169.316,52.318z"/>
</g>
</svg>
