<?xml version="1.0" encoding="utf-8"?>
<!-- Generator: Adobe Illustrator 21.0.0, SVG Export Plug-In . SVG Version: 6.00 Build 0)  -->
<svg version="1.1" xmlns="http://www.w3.org/2000/svg" xmlns:xlink="http://www.w3.org/1999/xlink" x="0px" y="0px"
	 viewBox="0 0 615.1 187.9" style="enable-background:new 0 0 615.1 187.9;" xml:space="preserve">
<g id="Layer_1">
	<g>
		<g style="opacity:0.6;">
			<path d="M0,108.9l563.6-97.2c24-4.1,46.8,12,50.9,36.1l0,0c4.1,23.9-12,46.6-35.9,50.8L0,198.9V108.9z"/>
		</g>
		<g>
			<path style="fill:#D0202E;" d="M0,97.9L563.6,0.6c24-4.1,46.8,12,50.9,36.1l0,0c4.1,23.9-12,46.6-35.9,50.8L0,187.9V97.9z"/>
		</g>
	</g>
</g>
<g id="Layer_2">
	<g id="LM_-_Gotham">
		<g>
			<path style="fill:#FFFFFF;stroke:#FFFFFF;stroke-width:0.4922;stroke-miterlimit:10;" d="M250.1,114.3c-2,0.3-3.5-0.9-3.6-3.3
				L246,90.2c-0.1-1.9,0.9-3.2,2.5-3.5c2-0.3,3.5,0.9,3.6,3.3l0.5,18.3l10.4-1.8c1.5-0.3,3,0.7,3.5,2.2s-0.4,2.8-1.9,3.1
				L250.1,114.3z"/>
			<path style="fill:#FFFFFF;stroke:#FFFFFF;stroke-width:0.4922;stroke-miterlimit:10;" d="M274.5,110.1c-2,0.3-3.5-0.9-3.6-3.3
				l-0.6-20.5c-0.1-1.9,0.9-3.2,2.5-3.5l14.6-2.5c1.5-0.3,3,0.7,3.5,2.1c0.4,1.4-0.4,2.8-1.9,3l-12.7,2.2l0.2,5.6l9.5-1.6
				c1.5-0.3,3,0.7,3.5,2.1c0.4,1.4-0.4,2.7-1.9,3l-10.9,1.9l0.1,5.8l11.4-2c1.5-0.3,3,0.7,3.5,2.1c0.4,1.4-0.4,2.8-1.9,3
				L274.5,110.1z"/>
			<path style="fill:#FFFFFF;stroke:#FFFFFF;stroke-width:0.4922;stroke-miterlimit:10;" d="M321.9,97.8c0.2,0.5,0.5,1.1,0.7,1.5
				c0.5,1.5-0.4,3-2.2,3.3c-1.7,0.3-3-0.5-3.6-1.8l-1.8-3.7l-12.1,2.1L301,104c-0.4,1.1-1.2,2.1-2.5,2.3c-1.6,0.3-2.7-0.5-3.1-1.8
				c-0.2-0.6-0.2-1.3,0.1-2l8.9-23c0.6-1.5,1.6-2.6,3.5-3h0.1c2-0.3,3.3,0.5,4.1,2.2L321.9,97.8z M312.5,92.1l-4.1-8.4l-3.5,9.7
				L312.5,92.1z"/>
			<path style="fill:#FFFFFF;stroke:#FFFFFF;stroke-width:0.4922;stroke-miterlimit:10;" d="M332.6,97.4c0.1,1.9-0.9,3.2-2.5,3.5
				c-2,0.3-3.5-0.9-3.6-3.3l-0.6-20.7c-0.1-1.9,0.9-3.2,2.5-3.5l7.4-1.3c4-0.7,7.1-0.3,9.4,1.1c1.8,1.1,3.1,2.8,3.7,4.9
				c0.8,2.5,0.5,4.8-0.6,6.6c-1.1,1.7-2.5,2.9-5,4.1l4.8,4.2c0.7,0.6,1.1,1.2,1.2,1.7c0.5,1.8-0.8,2.9-2.1,3.1
				c-1.7,0.3-3-0.3-4.1-1.3l-6.4-6l-4.5,0.8L332.6,97.4z M337.7,85.2c2.3-0.4,4.1-1.3,5-2.6c0.5-0.8,0.6-1.8,0.3-2.9
				c-0.3-0.9-0.7-1.5-1.5-1.9c-1-0.6-2.4-0.7-4.3-0.4l-5,0.9l0.2,7.9L337.7,85.2z"/>
			<path style="fill:#FFFFFF;stroke:#FFFFFF;stroke-width:0.4922;stroke-miterlimit:10;" d="M372.5,68.6c-0.1-1.9,0.9-3.2,2.4-3.4
				c2-0.3,3.5,0.9,3.5,3.3l0.5,21.1c0.1,1.8-0.6,2.9-2.4,3.2h-0.1c-1.9,0.3-3-0.3-4.1-1.6l-11.9-13.9l0.4,15.2
				c0.1,1.9-0.9,3.2-2.4,3.4c-2,0.3-3.5-0.9-3.5-3.3l-0.6-20.9c-0.1-1.9,0.9-3.2,2.7-3.5h0.3c1.8-0.3,3.1,0.4,4.2,1.7l11.4,13.3
				L372.5,68.6z"/>
			<path style="fill:#FFFFFF;stroke:#FFFFFF;stroke-width:0.4922;stroke-miterlimit:10;" d="M420.4,57.5c2-0.3,3.5,0.9,3.5,3.3
				l0.6,20.9c0.1,1.9-0.9,3.2-2.5,3.5c-2,0.3-3.5-0.9-3.6-3.3L418,69.2l-4.5,8.1c-0.7,1.3-1.5,2.1-2.7,2.3c-1.4,0.2-2.2-0.3-3.2-1.7
				l-4.6-6.1l0.4,13.5c0.1,1.9-0.9,3.2-2.5,3.5c-2,0.3-3.5-0.9-3.6-3.3l-0.6-20.9c-0.1-1.9,0.7-3.2,2.5-3.5l0.4-0.1
				c1.6-0.3,2.7,0.4,3.8,1.8l7.4,9.8l6.2-12.7c0.7-1.3,1.5-2.1,3-2.4L420.4,57.5z"/>
			<path style="fill:#FFFFFF;stroke:#FFFFFF;stroke-width:0.4922;stroke-miterlimit:10;" d="M429.8,71.9
				c-2.4-7.8,1.9-16.6,11.6-18.3c7.5-1.3,14,2.9,16,9.5c2.4,7.8-1.9,16.6-11.6,18.3C438.3,82.6,431.8,78.5,429.8,71.9z M451.4,64.5
				c-1.2-3.9-4.5-6.2-9-5.5c-5.7,1-7.8,6.9-6.4,11.4c1.2,3.9,4.5,6.2,9,5.5C450.6,74.9,452.8,69,451.4,64.5z"/>
			<path style="fill:#FFFFFF;stroke:#FFFFFF;stroke-width:0.4922;stroke-miterlimit:10;" d="M469.4,74c0.1,1.9-0.9,3.2-2.5,3.5
				c-2,0.3-3.5-0.9-3.6-3.3l-0.6-20.7c-0.1-1.9,0.9-3.2,2.5-3.5l7.4-1.3c4-0.7,7.1-0.3,9.4,1.1c1.8,1.1,3.1,2.8,3.7,4.9
				c0.8,2.5,0.5,4.8-0.6,6.6c-1.1,1.7-2.5,2.9-5,4.1l4.8,4.2c0.7,0.6,1.1,1.2,1.2,1.7c0.5,1.8-0.8,2.9-2.1,3.1
				c-1.7,0.3-3-0.3-4.1-1.3l-6.4-6l-4.5,0.8L469.4,74z M474.5,61.8c2.3-0.4,4.1-1.3,5-2.6c0.5-0.8,0.6-1.8,0.3-2.9
				c-0.3-0.9-0.7-1.5-1.5-1.9c-1-0.6-2.4-0.7-4.3-0.4l-5,0.9l0.2,7.9L474.5,61.8z"/>
			<path style="fill:#FFFFFF;stroke:#FFFFFF;stroke-width:0.4922;stroke-miterlimit:10;" d="M495.3,72.4c-2,0.3-3.5-0.9-3.6-3.3
				l-0.6-20.5c-0.1-1.9,0.9-3.2,2.5-3.5l14.6-2.5c1.5-0.3,3,0.7,3.5,2.1c0.4,1.4-0.4,2.8-1.9,3l-12.7,2.2l0.2,5.6l9.5-1.6
				c1.5-0.3,3,0.7,3.5,2.1c0.4,1.4-0.4,2.7-1.9,3l-10.9,1.9l0.1,5.8l11.4-2c1.5-0.3,3,0.7,3.5,2.1c0.4,1.4-0.4,2.8-1.9,3L495.3,72.4
				z"/>
		</g>
	</g>
	<g id="Arrow">
	</g>
</g>
</svg>
