<?xml version="1.0" encoding="utf-8"?>
<!-- Generator: Adobe Illustrator 19.1.0, SVG Export Plug-In . SVG Version: 6.00 Build 0)  -->
<svg version="1.1" xmlns="http://www.w3.org/2000/svg" xmlns:xlink="http://www.w3.org/1999/xlink" x="0px" y="0px"
	 viewBox="0 0 38.827 58.557" enable-background="new 0 0 38.827 58.557" xml:space="preserve">
<g id="Layer_1" display="none">
	<g id="_x35_5OItO_1_" display="inline">
		
			<image overflow="visible" width="160" height="600" id="_x35_5OItO" xlink:href="F42F74253A42BE5C.jpg"  transform="matrix(1 0 0 1 -31.5839 -254.2789)">
		</image>
	</g>
</g>
<g id="Bubbles" display="none">
	
		<image display="inline" overflow="visible" width="136" height="151" id="bottomdropsSpot2_2_" xlink:href="F42F74253A42BE5C.png"  transform="matrix(-0.034 -0.0592 0.0592 -0.034 34.8021 50.7362)">
	</image>
	
		<image display="inline" overflow="visible" width="136" height="151" id="PANTONE_286_C_1_" xlink:href="F42F74253A42BE5B.png"  transform="matrix(-0.034 -0.0592 0.0592 -0.034 34.8021 50.7362)">
	</image>
	
		<image display="inline" overflow="visible" width="136" height="151" id="PANTONE_299_C_2_" xlink:href="F42F74253A42BE64.png"  transform="matrix(-0.034 -0.0592 0.0592 -0.034 34.8021 50.7362)">
	</image>
	
		<image display="inline" overflow="visible" width="627" height="453" id="sidedropsSpot2_2_" xlink:href="F42F74253A42BE67.png"  transform="matrix(0.0613 0 0 0.0613 -31.5839 5.667)">
	</image>
	
		<image display="inline" overflow="visible" width="627" height="453" id="PANTONE_299_C_4_" xlink:href="F42F74253A42BE65.png"  transform="matrix(0.0613 0 0 0.0613 -31.5839 5.667)">
	</image>
</g>
<g id="h2" display="none">
</g>
<g id="t" display="none">
	<linearGradient id="XMLID_2_" gradientUnits="userSpaceOnUse" x1="47.2875" y1="-3.073" x2="47.2875" y2="50.3287">
		<stop  offset="0.35" style="stop-color:#B2E3F5"/>
		<stop  offset="1" style="stop-color:#00A0DD"/>
	</linearGradient>
	<path id="XMLID_11_" display="inline" fill="url(#XMLID_2_)" d="M55.772,13.035l11.097-1.954V5.054L55.772,6.988l0,0V2.973
		c0-4.203-2.374-6.132-5.754-6.043c-2.551,0.067-6.073,0.248-7.519,0.332V9.284l-14.415,2.529c-0.518,0.716-1.357,6.193,4.139,5.31
		c4.423-0.71,10.276-1.784,10.276-1.784v22.542c0,13.649,10.421,15.018,20.51,9.844v-1.626c-5.804-1.458-7.237-4.021-7.237-9.719
		V13.035z"/>
	<path id="XMLID_9_" display="inline" fill="#D0202E" d="M56.767,12.088l11.097-1.954V4.108L56.767,6.041l0,0V2.026
		c0-4.204-2.374-6.133-5.754-6.043c-2.55,0.067-6.073,0.25-7.519,0.332V8.338l-14.415,2.528c-0.517,0.716-1.356,6.194,4.139,5.31
		c4.423-0.71,10.276-1.784,10.276-1.784v22.542c0,13.649,10.421,15.018,20.51,9.844v-1.626c-5.805-1.458-7.237-4.02-7.237-9.717
		V12.088z"/>
</g>
<g id="h1">
	<linearGradient id="XMLID_3_" gradientUnits="userSpaceOnUse" x1="18.9158" y1="1.331" x2="18.9158" y2="58.4026">
		<stop  offset="0.35" style="stop-color:#B2E3F5"/>
		<stop  offset="1" style="stop-color:#00A0DD"/>
	</linearGradient>
	<path id="XMLID_8_" fill="url(#XMLID_3_)" d="M20.853,19.377c-4.591,0.8-7.356,3.363-8.726,6.219V6.991
		c0-4.18-2.282-6.134-5.661-6.042C3.085,1.037,0,1.28,0,1.28v51.137c0,4.017,2.202,6.712,6.065,6.037l6.062-1.039V37.664
		c0-3.095,1.746-7.541,5.894-8.263c3.258-0.568,5.373,1.547,5.373,5.433v11.46c0,6.605,2.796,9.023,8.129,8.095l6.309-1.149v-1.849
		c0,0-2.114-1.408-2.114-4.877V31.088C35.718,23.261,29.518,17.867,20.853,19.377z"/>
	<path id="XMLID_7_" fill="#D0202E" d="M21.848,18.431c-4.591,0.8-7.356,3.363-8.726,6.219V6.044c0-4.18-2.282-6.134-5.661-6.041
		C4.08,0.09,0.995,0.334,0.995,0.334v51.135c0,4.018,2.202,6.714,6.064,6.037l6.062-1.038v-19.75c0-3.097,1.746-7.543,5.894-8.265
		c3.259-0.568,5.373,1.547,5.373,5.434v11.461c0,6.603,2.796,9.022,8.129,8.094l6.309-1.15v-1.849c0,0-2.114-1.406-2.114-4.875
		V30.141C36.713,22.315,30.513,16.92,21.848,18.431z"/>
</g>
</svg>
