<?xml version="1.0" encoding="utf-8"?>
<!-- Generator: Adobe Illustrator 21.0.0, SVG Export Plug-In . SVG Version: 6.00 Build 0)  -->
<svg version="1.1" id="Layer_2" xmlns="http://www.w3.org/2000/svg" xmlns:xlink="http://www.w3.org/1999/xlink" x="0px" y="0px"
	 viewBox="0 0 111.4 26.5" style="enable-background:new 0 0 111.4 26.5;" xml:space="preserve">
<path style="fill:#FFFFFF;" d="M0,22L0,22c0-2.9,2.2-5.7,5.3-6.2c3.1-0.5,5.3,1.5,5.3,4.4v0c0,2.9-2.2,5.6-5.3,6.1
	C2.2,26.9,0,24.9,0,22z M8.8,20.6L8.8,20.6c0-2-1.4-3.4-3.5-3.1c-2,0.3-3.4,2.2-3.4,4.1v0c0,2,1.4,3.4,3.5,3
	C7.4,24.4,8.8,22.6,8.8,20.6z"/>
<path style="fill:#FFFFFF;" d="M12.8,15.6c0-0.5,0.4-1,0.9-1l0.2,0c0.4-0.1,0.7,0.1,0.9,0.4l5.1,5.8v-6.3c0-0.5,0.4-0.9,0.9-1
	c0.5-0.1,0.9,0.2,0.9,0.7v8.6c0,0.5-0.4,0.9-0.9,1l-0.1,0c-0.4,0.1-0.7-0.1-0.9-0.4l-5.2-5.9v6.5c0,0.5-0.4,0.9-0.9,1
	c-0.5,0.1-0.9-0.2-0.9-0.7V15.6z"/>
<path style="fill:#FFFFFF;" d="M28.4,21.3c-0.2-0.1-0.3-0.3-0.3-0.6c0-0.5,0.4-0.9,0.8-1c0.2,0,0.4,0,0.5,0.1
	c0.8,0.5,1.7,0.8,2.9,0.6c1.1-0.2,1.8-0.8,1.8-1.6v0c0-0.7-0.4-1.1-2.3-1.2c-2.2-0.2-3.4-0.6-3.4-2.5v0c0-1.7,1.5-3.2,3.5-3.5
	c1.3-0.2,2.3,0,3.2,0.4c0.2,0.1,0.4,0.3,0.4,0.6c0,0.5-0.4,0.9-0.8,1c-0.2,0-0.3,0-0.5-0.1c-0.8-0.4-1.5-0.5-2.3-0.4
	c-1,0.2-1.7,0.8-1.7,1.5v0c0,0.8,0.5,1.1,2.4,1.2c2.2,0.2,3.3,0.8,3.3,2.5v0c0,1.9-1.5,3.3-3.6,3.6C30.9,22.2,29.5,22,28.4,21.3z"/>
<path style="fill:#FFFFFF;" d="M37.3,19.9l3.8-9c0.2-0.5,0.6-0.8,1.1-0.9l0.1,0c0.5-0.1,0.9,0.1,1.1,0.6l3.8,7.8
	c0.1,0.1,0.1,0.2,0.1,0.4c0,0.5-0.4,0.9-0.8,1c-0.4,0.1-0.7-0.1-0.9-0.5l-0.8-1.8l-4.9,0.8l-0.9,2.1c-0.1,0.4-0.5,0.6-0.8,0.7
	c-0.5,0.1-0.8-0.2-0.8-0.7C37.2,20.2,37.2,20,37.3,19.9z M43.9,15.9l-1.8-3.8l-1.8,4.4L43.9,15.9z"/>
<path style="fill:#FFFFFF;" d="M49.1,9.8c0-0.5,0.4-1,0.9-1l0.2,0c0.4-0.1,0.7,0.1,0.9,0.4l5.1,5.8V8.6c0-0.5,0.4-0.9,0.9-1
	C57.6,7.5,58,7.8,58,8.3v8.6c0,0.5-0.4,0.9-0.9,1l-0.1,0c-0.4,0.1-0.7-0.1-0.9-0.4l-5.2-5.9V18c0,0.5-0.4,0.9-0.9,1
	c-0.5,0.1-0.9-0.2-0.9-0.7V9.8z"/>
<path style="fill:#FFFFFF;" d="M60.7,7.9c0-0.5,0.4-1,0.9-1c0.5-0.1,0.9,0.2,0.9,0.7v8.6c0,0.5-0.4,1-0.9,1
	c-0.5,0.1-0.9-0.2-0.9-0.7V7.9z"/>
<path style="fill:#FFFFFF;" d="M67.7,7.6L65.2,8c-0.5,0.1-0.8-0.2-0.8-0.7c0-0.5,0.4-0.9,0.8-1L72,5.2c0.5-0.1,0.8,0.2,0.8,0.7
	c0,0.5-0.4,0.9-0.8,1l-2.5,0.4V15c0,0.5-0.4,1-0.9,1c-0.5,0.1-0.9-0.2-0.9-0.7V7.6z"/>
<path style="fill:#FFFFFF;" d="M74.7,5.6c0-0.5,0.4-1,0.9-1c0.5-0.1,0.9,0.2,0.9,0.7v8.6c0,0.5-0.4,1-0.9,1
	c-0.5,0.1-0.9-0.2-0.9-0.7V5.6z"/>
<path style="fill:#FFFFFF;" d="M78.8,13.5L78.8,13.5c0-0.3,0.1-0.6,0.3-0.9l5.7-7.9l-5.1,0.8C79.4,5.6,79,5.3,79,4.9
	C79,4.4,79.4,4,79.8,4l6.7-1.1c0.4-0.1,0.8,0.2,0.8,0.7v0c0,0.3-0.1,0.6-0.3,0.9l-5.7,7.9l5.3-0.9c0.4-0.1,0.8,0.2,0.8,0.7
	c0,0.4-0.4,0.8-0.8,0.9l-6.9,1.1C79.2,14.2,78.8,13.9,78.8,13.5z"/>
<path style="fill:#FFFFFF;" d="M89.5,11.7V3.3c0-0.5,0.4-1,0.9-1l5.9-1c0.4-0.1,0.8,0.2,0.8,0.7c0,0.5-0.4,0.9-0.8,0.9l-5,0.8v2.6
	l4.4-0.7c0.4-0.1,0.8,0.2,0.8,0.7c0,0.4-0.4,0.8-0.8,0.9l-4.4,0.7v2.7l5.1-0.8c0.4-0.1,0.8,0.2,0.8,0.7c0,0.5-0.4,0.9-0.8,0.9l-6,1
	C89.9,12.5,89.5,12.2,89.5,11.7z"/>
<path style="fill:#FFFFFF;" d="M99.2,1.7c0-0.5,0.4-1,0.9-1l3.6-0.6c1.3-0.2,2.3,0,2.9,0.5c0.5,0.5,0.8,1.2,0.8,2.1v0
	c0,1.6-0.9,2.8-2.3,3.4l1.9,2.1c0.2,0.2,0.3,0.4,0.3,0.6c0,0.5-0.4,0.9-0.9,1c-0.4,0.1-0.7-0.1-0.9-0.3l-2.5-2.8L101,7.2v2.7
	c0,0.5-0.4,1-0.9,1c-0.5,0.1-0.9-0.2-0.9-0.7V1.7z M103.6,5.1c1.3-0.2,2.1-1,2.1-2v0c0-1.1-0.8-1.6-2.1-1.3L101,2.2v3.4L103.6,5.1z"
	/>
<path style="fill:#FFFFFF;" d="M110.4,7.1c0.6-0.1,1,0.3,1,0.8v0.1c0,0.6-0.4,1.1-1,1.2c-0.6,0.1-1-0.3-1-0.8V8.3
	C109.3,7.7,109.8,7.2,110.4,7.1z"/>
</svg>
