<?xml version="1.0" encoding="utf-8"?>
<!-- Generator: Adobe Illustrator 21.0.0, SVG Export Plug-In . SVG Version: 6.00 Build 0)  -->
<svg version="1.1" id="Layer_2" xmlns="http://www.w3.org/2000/svg" xmlns:xlink="http://www.w3.org/1999/xlink" x="0px" y="0px"
	 viewBox="0 0 233.8 52.9" style="enable-background:new 0 0 233.8 52.9;" xml:space="preserve">
<g>
	<path style="fill:#FFFFFF;" d="M60.4,5.1c0-0.8,0.6-1.5,1.5-1.5h9.8c0.7,0,1.3,0.6,1.3,1.3s-0.6,1.3-1.3,1.3h-8.3v4.6h7.2
		c0.7,0,1.3,0.6,1.3,1.3s-0.6,1.3-1.3,1.3h-7.2V19c0,0.8-0.6,1.5-1.5,1.5c-0.8,0-1.5-0.6-1.5-1.5V5.1z"/>
	<path style="fill:#FFFFFF;" d="M75.2,12L75.2,12c0-4.8,3.6-8.7,8.8-8.7c5.1,0,8.7,3.9,8.7,8.6v0c0,4.7-3.6,8.7-8.8,8.7
		C78.8,20.6,75.2,16.7,75.2,12z M89.6,12L89.6,12c0-3.3-2.4-6-5.7-6c-3.3,0-5.6,2.7-5.6,5.9v0c0,3.3,2.4,5.9,5.7,5.9
		C87.3,17.9,89.6,15.3,89.6,12z"/>
	<path style="fill:#FFFFFF;" d="M96.3,5.1c0-0.8,0.6-1.5,1.5-1.5h6c2.1,0,3.8,0.6,4.8,1.7c0.9,0.9,1.4,2.2,1.4,3.6v0
		c0,2.7-1.6,4.3-3.8,5l3.2,4c0.3,0.4,0.5,0.7,0.5,1.1c0,0.8-0.7,1.4-1.4,1.4c-0.7,0-1.1-0.3-1.4-0.8l-4.1-5.2h-3.7V19
		c0,0.8-0.6,1.5-1.5,1.5c-0.8,0-1.5-0.6-1.5-1.5V5.1z M103.5,11.9c2.1,0,3.4-1.1,3.4-2.8v0c0-1.8-1.3-2.8-3.5-2.8h-4.3v5.6H103.5z"
		/>
	<path style="fill:#FFFFFF;" d="M124.9,6.3h-4.1c-0.8,0-1.4-0.6-1.4-1.4s0.6-1.4,1.4-1.4H132c0.7,0,1.3,0.6,1.3,1.4
		s-0.6,1.4-1.3,1.4h-4.1V19c0,0.8-0.7,1.5-1.5,1.5c-0.8,0-1.5-0.6-1.5-1.5V6.3z"/>
	<path style="fill:#FFFFFF;" d="M136.3,4.9c0-0.8,0.6-1.5,1.5-1.5c0.8,0,1.5,0.6,1.5,1.5v5.6h8V4.9c0-0.8,0.6-1.5,1.5-1.5
		c0.8,0,1.5,0.6,1.5,1.5V19c0,0.8-0.6,1.5-1.5,1.5c-0.8,0-1.5-0.6-1.5-1.5v-5.7h-8V19c0,0.8-0.6,1.5-1.5,1.5c-0.8,0-1.5-0.6-1.5-1.5
		V4.9z"/>
	<path style="fill:#FFFFFF;" d="M154.5,18.9V5.1c0-0.8,0.6-1.5,1.5-1.5h9.7c0.7,0,1.3,0.6,1.3,1.3c0,0.7-0.6,1.3-1.3,1.3h-8.3v4.4
		h7.2c0.7,0,1.3,0.6,1.3,1.3c0,0.7-0.6,1.3-1.3,1.3h-7.2v4.5h8.4c0.7,0,1.3,0.6,1.3,1.3c0,0.7-0.6,1.3-1.3,1.3H156
		C155.1,20.4,154.5,19.7,154.5,18.9z"/>
	<path style="fill:#FFFFFF;" d="M1.2,44.4l6.2-13.9c0.3-0.7,0.9-1.2,1.8-1.2h0.1c0.8,0,1.4,0.5,1.7,1.2l6.2,13.9
		c0.1,0.2,0.2,0.4,0.2,0.6c0,0.8-0.6,1.4-1.4,1.4c-0.7,0-1.2-0.4-1.4-1l-1.4-3.1H5.1l-1.4,3.2c-0.2,0.6-0.7,0.9-1.4,0.9
		c-0.8,0-1.4-0.6-1.4-1.4C1,44.9,1.1,44.7,1.2,44.4z M12.2,39.7l-2.9-6.8l-2.9,6.8H12.2z"/>
	<path style="fill:#FFFFFF;" d="M20.7,31.1c0-0.8,0.6-1.5,1.5-1.5h9.8c0.7,0,1.3,0.6,1.3,1.3s-0.6,1.3-1.3,1.3h-8.3v4.6h7.2
		c0.7,0,1.3,0.6,1.3,1.3s-0.6,1.3-1.3,1.3h-7.2V45c0,0.8-0.6,1.5-1.5,1.5c-0.8,0-1.5-0.6-1.5-1.5V31.1z"/>
	<path style="fill:#FFFFFF;" d="M40.5,32.3h-4.1c-0.8,0-1.4-0.6-1.4-1.4s0.6-1.4,1.4-1.4h11.1c0.7,0,1.3,0.6,1.3,1.4
		s-0.6,1.4-1.3,1.4h-4.1V45c0,0.8-0.7,1.5-1.5,1.5s-1.5-0.6-1.5-1.5V32.3z"/>
	<path style="fill:#FFFFFF;" d="M51.9,44.9V31.1c0-0.8,0.6-1.5,1.5-1.5h9.7c0.7,0,1.3,0.6,1.3,1.3c0,0.7-0.6,1.3-1.3,1.3h-8.3v4.4
		H62c0.7,0,1.3,0.6,1.3,1.3c0,0.7-0.6,1.3-1.3,1.3h-7.2v4.5h8.4c0.7,0,1.3,0.6,1.3,1.3c0,0.7-0.6,1.3-1.3,1.3h-9.9
		C52.5,46.4,51.9,45.7,51.9,44.9z"/>
	<path style="fill:#FFFFFF;" d="M67.9,31.1c0-0.8,0.6-1.5,1.5-1.5h6c2.1,0,3.8,0.6,4.8,1.7c0.9,0.9,1.4,2.2,1.4,3.6v0
		c0,2.7-1.6,4.3-3.8,5l3.2,4c0.3,0.4,0.5,0.7,0.5,1.1c0,0.8-0.7,1.4-1.4,1.4c-0.7,0-1.1-0.3-1.4-0.8l-4.1-5.2h-3.7V45
		c0,0.8-0.6,1.5-1.5,1.5c-0.8,0-1.5-0.6-1.5-1.5V31.1z M75.2,37.9c2.1,0,3.4-1.1,3.4-2.8v0c0-1.8-1.3-2.8-3.5-2.8h-4.3v5.6H75.2z"/>
	<path style="fill:#FFFFFF;" d="M85.2,31c0-0.8,0.6-1.5,1.5-1.5H87c0.7,0,1.1,0.4,1.5,0.9L97,41.2V30.9c0-0.8,0.6-1.4,1.4-1.4
		c0.8,0,1.5,0.6,1.5,1.4V45c0,0.8-0.6,1.5-1.4,1.5h-0.1c-0.7,0-1.1-0.4-1.5-0.9l-8.6-11.2V45c0,0.8-0.6,1.4-1.4,1.4
		c-0.8,0-1.5-0.6-1.5-1.4V31z"/>
	<path style="fill:#FFFFFF;" d="M103.4,38L103.4,38c0-4.8,3.6-8.7,8.8-8.7c5.1,0,8.7,3.9,8.7,8.6v0c0,4.7-3.6,8.7-8.8,8.7
		C107,46.6,103.4,42.7,103.4,38z M117.9,38L117.9,38c0-3.3-2.4-6-5.7-6c-3.3,0-5.6,2.7-5.6,5.9v0c0,3.3,2.4,5.9,5.7,5.9
		C115.5,43.9,117.9,41.3,117.9,38z"/>
	<path style="fill:#FFFFFF;" d="M123.8,38L123.8,38c0-4.8,3.6-8.7,8.8-8.7s8.7,3.9,8.7,8.6v0c0,4.7-3.6,8.7-8.8,8.7
		C127.4,46.6,123.8,42.7,123.8,38z M138.2,38L138.2,38c0-3.3-2.4-6-5.7-6c-3.3,0-5.7,2.7-5.7,5.9v0c0,3.3,2.4,5.9,5.7,5.9
		C135.9,43.9,138.2,41.3,138.2,38z"/>
	<path style="fill:#FFFFFF;" d="M144.9,31c0-0.8,0.6-1.5,1.5-1.5h0.3c0.7,0,1.1,0.4,1.5,0.9l8.4,10.8V30.9c0-0.8,0.6-1.4,1.4-1.4
		c0.8,0,1.5,0.6,1.5,1.4V45c0,0.8-0.6,1.5-1.4,1.5h-0.1c-0.7,0-1.1-0.4-1.5-0.9l-8.6-11.2V45c0,0.8-0.6,1.4-1.4,1.4
		c-0.8,0-1.5-0.6-1.5-1.4V31z"/>
	<path style="fill:#FFFFFF;" d="M170.2,38L170.2,38c0-4.8,3.6-8.7,8.8-8.7s8.7,3.9,8.7,8.6v0c0,4.7-3.6,8.7-8.8,8.7
		C173.8,46.6,170.2,42.7,170.2,38z M184.7,38L184.7,38c0-3.3-2.4-6-5.7-6c-3.3,0-5.7,2.7-5.7,5.9v0c0,3.3,2.4,5.9,5.7,5.9
		C182.3,43.9,184.7,41.3,184.7,38z"/>
	<path style="fill:#FFFFFF;" d="M191.3,31.1c0-0.8,0.6-1.5,1.5-1.5h9.8c0.7,0,1.3,0.6,1.3,1.3s-0.6,1.3-1.3,1.3h-8.3v4.6h7.2
		c0.7,0,1.3,0.6,1.3,1.3s-0.6,1.3-1.3,1.3h-7.2V45c0,0.8-0.6,1.5-1.5,1.5c-0.8,0-1.5-0.6-1.5-1.5V31.1z"/>
	<path style="fill:#FFFFFF;" d="M207,31.1c0-0.8,0.6-1.5,1.5-1.5h9.8c0.7,0,1.3,0.6,1.3,1.3s-0.6,1.3-1.3,1.3H210v4.6h7.2
		c0.7,0,1.3,0.6,1.3,1.3s-0.6,1.3-1.3,1.3H210V45c0,0.8-0.6,1.5-1.5,1.5c-0.8,0-1.5-0.6-1.5-1.5V31.1z"/>
	<path style="fill:#FFFFFF;" d="M226.7,41.2c-0.6,0-1-0.4-1-1l-0.2-2.1c-0.1-0.6,0.3-1.1,0.9-1.2c2.3-0.2,3.5-1.1,3.5-2.6v0
		c0-1.3-1-2.3-2.8-2.3c-1.3,0-2.3,0.5-3.3,1.3c-0.2,0.2-0.6,0.3-0.9,0.3c-0.7,0-1.3-0.6-1.3-1.3c0-0.4,0.1-0.7,0.5-1
		c1.3-1.2,2.9-2,5.1-2c3.4,0,5.6,1.9,5.6,4.9v0c0,3-2.2,4.4-4.8,4.8l-0.1,1.1c-0.1,0.5-0.5,1-1,1H226.7z M226.7,42.9
		c1,0,1.7,0.7,1.7,1.7v0.2c0,0.9-0.7,1.7-1.7,1.7s-1.7-0.7-1.7-1.7v-0.2C225,43.6,225.7,42.9,226.7,42.9z"/>
</g>
</svg>
