<?xml version="1.0" encoding="utf-8"?>
<!-- Generator: Adobe Illustrator 21.0.0, SVG Export Plug-In . SVG Version: 6.00 Build 0)  -->
<svg version="1.1" id="Layer_4" xmlns="http://www.w3.org/2000/svg" xmlns:xlink="http://www.w3.org/1999/xlink" x="0px" y="0px"
	 viewBox="0 0 235.7 75.3" style="enable-background:new 0 0 235.7 75.3;" xml:space="preserve">
<g>
	<path style="fill:#FFFFFF;" d="M4.5,33.6v-0.1c0-13.2,9.9-24.2,23.7-24.2c7.6,0,12.4,2.5,16.7,6.1c0.5,0.5,1.1,1.2,1.1,2.1
		c0,1.4-1.3,2.6-2.7,2.6c-0.7,0-1.3-0.3-1.7-0.6c-3.6-3.2-7.7-5.4-13.4-5.4C17.8,14.1,10,22.5,10,33.3v0.1
		c0,10.8,7.8,19.3,18.1,19.3c5.8,0,9.9-2,13.9-5.7c0.4-0.4,1-0.7,1.7-0.7c1.3,0,2.5,1.2,2.5,2.5c0,0.8-0.4,1.5-0.9,1.9
		c-4.6,4.2-9.7,6.9-17.4,6.9C14.5,57.7,4.5,47,4.5,33.6z"/>
	<path style="fill:#FFFFFF;" d="M56,12.4c0-1.5,1.2-2.7,2.6-2.7c1.5,0,2.7,1.2,2.7,2.7V52h24.3c1.3,0,2.4,1.1,2.4,2.5
		s-1.1,2.4-2.4,2.4h-27c-1.4,0-2.6-1.2-2.6-2.7V12.4z"/>
	<path style="fill:#FFFFFF;" d="M97.4,54.2V12.7c0-1.5,1.2-2.7,2.6-2.7h29.1c1.3,0,2.4,1.1,2.4,2.4s-1.1,2.4-2.4,2.4h-26.4v16h23.4
		c1.3,0,2.4,1.1,2.4,2.4c0,1.3-1.1,2.4-2.4,2.4h-23.4V52h26.8c1.3,0,2.4,1.1,2.4,2.4s-1.1,2.4-2.4,2.4H100
		C98.6,56.9,97.4,55.7,97.4,54.2z"/>
	<path style="fill:#FFFFFF;" d="M139.3,53.4l19-41.5c0.7-1.5,1.7-2.3,3.3-2.3h0.3c1.6,0,2.7,0.9,3.3,2.3l19,41.5
		c0.2,0.5,0.3,0.9,0.3,1.3c0,1.4-1.1,2.5-2.5,2.5c-1.3,0-2.1-0.9-2.6-1.9l-4.9-10.8h-25.7L144,55.4c-0.5,1.1-1.3,1.8-2.5,1.8
		c-1.3,0-2.4-1.1-2.4-2.4C139,54.4,139.1,53.9,139.3,53.4z M172.5,39.7l-10.8-23.9l-10.8,23.9H172.5z"/>
	<path style="fill:#FFFFFF;" d="M194.7,12.7c0-1.5,1.2-2.7,2.6-2.7h17.5c5.8,0,10.4,1.7,13.3,4.7c2.3,2.3,3.6,5.6,3.6,9.2v0.1
		c0,7.7-5.2,12.2-12.5,13.6l11.6,15c0.5,0.6,0.9,1.2,0.9,1.9c0,1.4-1.3,2.6-2.7,2.6c-1.1,0-1.9-0.6-2.5-1.4l-13.2-17.1h-13.4v15.9
		c0,1.5-1.2,2.7-2.7,2.7c-1.4,0-2.6-1.2-2.6-2.7V12.7z M214.3,33.9c7,0,12-3.6,12-9.6v-0.1c0-5.8-4.4-9.2-12-9.2h-14.4v19H214.3z"/>
</g>
</svg>
