<?xml version="1.0" encoding="utf-8"?>
<!-- Generator: Adobe Illustrator 21.0.0, SVG Export Plug-In . SVG Version: 6.00 Build 0)  -->
<svg version="1.1" id="Layer_2" xmlns="http://www.w3.org/2000/svg" xmlns:xlink="http://www.w3.org/1999/xlink" x="0px" y="0px"
	 viewBox="0 0 75.3 21.4" style="enable-background:new 0 0 75.3 21.4;" xml:space="preserve">
<path style="fill:#FFFFFF;" d="M0.3,20.6C0.1,20.5,0,20.3,0,20c0-0.5,0.4-0.9,0.8-1c0.2,0,0.4,0,0.5,0.1c0.8,0.5,1.7,0.8,2.9,0.6
	C5.3,19.5,6,18.9,6,18.1v0c0-0.7-0.4-1.1-2.3-1.2c-2.2-0.2-3.4-0.6-3.4-2.5v0c0-1.7,1.5-3.2,3.5-3.5c1.3-0.2,2.3,0,3.2,0.4
	c0.2,0.1,0.4,0.3,0.4,0.6c0,0.5-0.4,0.9-0.8,1c-0.2,0-0.3,0-0.5-0.1c-0.8-0.4-1.5-0.5-2.3-0.4c-1,0.2-1.7,0.8-1.7,1.5v0
	c0,0.8,0.5,1.1,2.4,1.2c2.2,0.2,3.3,0.8,3.3,2.5v0c0,1.9-1.5,3.3-3.6,3.6C2.8,21.5,1.5,21.3,0.3,20.6z"/>
<path style="fill:#FFFFFF;" d="M12.2,11.3l-2.5,0.4c-0.5,0.1-0.8-0.2-0.8-0.7c0-0.5,0.4-0.9,0.8-1L16.5,9c0.5-0.1,0.8,0.2,0.8,0.7
	c0,0.4-0.4,0.9-0.8,1L14,11v7.7c0,0.5-0.4,1-0.9,1c-0.5,0.1-0.9-0.2-0.9-0.7V11.3z"/>
<path style="fill:#FFFFFF;" d="M18.1,13.8L18.1,13.8c0-2.9,2.2-5.7,5.3-6.2c3.1-0.5,5.3,1.5,5.3,4.4v0c0,2.9-2.2,5.6-5.3,6.1
	C20.3,18.7,18.1,16.7,18.1,13.8z M26.9,12.4L26.9,12.4c0-2-1.4-3.4-3.5-3.1c-2,0.3-3.4,2.2-3.4,4.1v0c0,2,1.4,3.4,3.5,3
	C25.5,16.2,26.9,14.4,26.9,12.4z"/>
<path style="fill:#FFFFFF;" d="M30.5,11.8L30.5,11.8c0-2.9,2.2-5.6,5.2-6.1c1.6-0.3,2.6,0,3.5,0.6c0.2,0.1,0.3,0.3,0.3,0.7
	c0,0.5-0.4,0.9-0.9,1c-0.2,0-0.4,0-0.5-0.1c-0.7-0.5-1.5-0.7-2.4-0.5c-1.9,0.3-3.4,2.1-3.4,4.1v0c0,2,1.4,3.4,3.4,3.1
	c1.1-0.2,1.8-0.6,2.5-1.4c0.1-0.1,0.3-0.3,0.5-0.3c0.5-0.1,0.8,0.2,0.8,0.7c0,0.3-0.1,0.5-0.3,0.7c-1,1-2.1,1.7-3.7,2
	C32.7,16.7,30.5,14.8,30.5,11.8z"/>
<path style="fill:#FFFFFF;" d="M41.7,5.7c0-0.5,0.4-1,0.9-1c0.5-0.1,0.9,0.2,0.9,0.7v4.3l4.8-5.6c0.2-0.3,0.4-0.4,0.7-0.5
	c0.5-0.1,0.8,0.3,0.8,0.7c0,0.3-0.1,0.5-0.3,0.7l-3.2,3.6l3.4,3.7c0.1,0.2,0.2,0.3,0.2,0.6c0,0.5-0.4,0.9-0.9,1
	c-0.3,0.1-0.6-0.1-0.8-0.3L45.1,10l-1.7,1.9V14c0,0.5-0.4,1-0.9,1c-0.5,0.1-0.9-0.2-0.9-0.7V5.7z"/>
<path style="fill:#FFFFFF;" d="M56.2,8.4v-5c0-0.5,0.4-1,0.9-1C57.6,2.2,58,2.6,58,3.1v5c0,1.9,1,2.7,2.6,2.5
	c1.6-0.3,2.6-1.4,2.6-3.2v-5c0-0.5,0.4-1,0.9-1C64.6,1.1,65,1.4,65,1.9v5c0,3-1.7,4.8-4.4,5.3C57.9,12.6,56.2,11.4,56.2,8.4z"/>
<path style="fill:#FFFFFF;" d="M67.4,1.6c0-0.5,0.4-1,0.9-1l3.1-0.5c2.4-0.4,3.9,0.7,3.9,2.8v0c0,2.3-1.8,3.8-4.1,4.1l-2,0.3v2.5
	c0,0.5-0.4,1-0.9,1c-0.5,0.1-0.9-0.2-0.9-0.7V1.6z M71.3,5.4c1.4-0.2,2.2-1.1,2.2-2.2v0c0-1.2-0.9-1.7-2.2-1.5l-2.1,0.3v3.7
	L71.3,5.4z"/>
</svg>
