<?xml version="1.0" encoding="utf-8"?>
<!-- Generator: Adobe Illustrator 21.0.0, SVG Export Plug-In . SVG Version: 6.00 Build 0)  -->
<svg version="1.1" id="Layer_2" xmlns="http://www.w3.org/2000/svg" xmlns:xlink="http://www.w3.org/1999/xlink" x="0px" y="0px"
	 viewBox="0 0 91.9 24.5" style="enable-background:new 0 0 91.9 24.5;" xml:space="preserve">
<path style="fill:#FFFFFF;" d="M0,15.1c0-0.5,0.4-1,0.9-1c0.5-0.1,0.9,0.3,0.9,0.7v8.6c0,0.5-0.4,1-0.9,1C0.4,24.5,0,24.2,0,23.7
	V15.1z"/>
<path style="fill:#FFFFFF;" d="M7.1,14.8l-2.5,0.4c-0.5,0.1-0.8-0.2-0.8-0.7c0-0.5,0.4-0.9,0.8-1l6.8-1.1c0.5-0.1,0.8,0.2,0.8,0.7
	c0,0.5-0.4,0.9-0.8,1l-2.5,0.4v7.8c0,0.5-0.4,1-0.9,1s-0.9-0.2-0.9-0.7V14.8z"/>
<path style="fill:#FFFFFF;" d="M13.6,15.4c0.7-0.3,1-0.8,1-1.5c-0.4,0-0.8-0.3-0.8-0.8V13c0-0.6,0.4-1,1-1.1
	c0.6-0.1,1.1,0.3,1.1,1.1v0.1c0,1-0.3,1.7-0.7,2.3c-0.4,0.5-1,0.8-1.4,0.9c-0.3,0-0.5-0.1-0.5-0.3C13.2,15.7,13.4,15.5,13.6,15.4z"
	/>
<path style="fill:#FFFFFF;" d="M17.7,20.5c-0.2-0.1-0.4-0.3-0.4-0.6c0-0.5,0.4-0.9,0.8-1c0.2,0,0.4,0,0.5,0.1
	c0.8,0.5,1.8,0.8,2.9,0.6c1.1-0.2,1.8-0.8,1.8-1.6v0c0-0.7-0.4-1.1-2.3-1.2c-2.2-0.2-3.4-0.6-3.4-2.5v0c0-1.8,1.5-3.2,3.5-3.5
	c1.3-0.2,2.3,0,3.2,0.4c0.2,0.1,0.4,0.3,0.4,0.7c0,0.5-0.4,0.9-0.8,1c-0.2,0-0.3,0-0.5-0.1c-0.8-0.4-1.6-0.5-2.4-0.4
	c-1.1,0.2-1.7,0.8-1.7,1.5v0c0,0.8,0.5,1.1,2.4,1.2c2.2,0.2,3.3,0.8,3.3,2.5v0c0,1.9-1.5,3.3-3.7,3.7C20.2,21.4,18.8,21.2,17.7,20.5
	z"/>
<path style="fill:#FFFFFF;" d="M34.2,10.4l-2.5,0.4c-0.5,0.1-0.8-0.2-0.8-0.7c0-0.5,0.4-0.9,0.8-1L38.6,8C39,8,39.4,8.3,39.4,8.7
	c0,0.5-0.4,0.9-0.8,1l-2.5,0.4v7.8c0,0.5-0.4,1-0.9,1s-0.9-0.2-0.9-0.7V10.4z"/>
<path style="fill:#FFFFFF;" d="M41.3,8.4c0-0.5,0.4-1,0.9-1c0.5-0.1,0.9,0.3,0.9,0.7v8.6c0,0.5-0.4,1-0.9,1
	c-0.5,0.1-0.9-0.2-0.9-0.7V8.4z"/>
<path style="fill:#FFFFFF;" d="M45.8,7.7c0-0.5,0.4-1,0.9-1.1l0.2,0c0.4-0.1,0.7,0.1,0.8,0.3l3.1,4.4L54,5.9
	c0.2-0.3,0.5-0.5,0.8-0.6l0.2,0c0.5-0.1,0.9,0.3,0.9,0.8v8.6c0,0.5-0.4,1-0.9,1c-0.5,0.1-0.9-0.3-0.9-0.7V8.8L51.6,13
	c-0.2,0.3-0.4,0.5-0.8,0.6c-0.3,0.1-0.6-0.1-0.7-0.3l-2.5-3.3V16c0,0.5-0.4,0.9-0.9,1c-0.5,0.1-0.9-0.2-0.9-0.7V7.7z"/>
<path style="fill:#FFFFFF;" d="M58.6,14.1V5.7c0-0.5,0.4-1,0.9-1.1l6-1c0.4-0.1,0.8,0.2,0.8,0.7c0,0.5-0.4,0.9-0.8,0.9l-5.1,0.8v2.7
	l4.4-0.7c0.4-0.1,0.8,0.2,0.8,0.7c0,0.4-0.4,0.8-0.8,0.9l-4.4,0.7v2.8l5.1-0.8c0.4-0.1,0.8,0.2,0.8,0.7c0,0.5-0.4,0.9-0.8,0.9l-6,1
	C59,15,58.6,14.6,58.6,14.1z"/>
<path style="fill:#FFFFFF;" d="M75.3,3.8l-2.5,0.4c-0.5,0.1-0.8-0.2-0.8-0.7c0-0.5,0.4-0.9,0.8-1l6.8-1.1c0.5-0.1,0.8,0.2,0.8,0.7
	c0,0.5-0.4,0.9-0.8,1l-2.5,0.4v7.8c0,0.5-0.4,1-0.9,1s-0.9-0.2-0.9-0.7V3.8z"/>
<path style="fill:#FFFFFF;" d="M81.2,6.3L81.2,6.3c0-2.9,2.2-5.7,5.4-6.2c3.1-0.5,5.3,1.5,5.3,4.4v0c0,2.9-2.2,5.7-5.4,6.2
	C83.4,11.2,81.2,9.2,81.2,6.3z M90.1,4.8L90.1,4.8c0-2-1.4-3.4-3.5-3.1c-2,0.3-3.5,2.2-3.5,4.2v0c0,2,1.4,3.4,3.5,3.1
	C88.6,8.7,90.1,6.8,90.1,4.8z"/>
</svg>
