<?xml version="1.0" encoding="utf-8"?>
<!-- Generator: Adobe Illustrator 19.1.0, SVG Export Plug-In . SVG Version: 6.00 Build 0)  -->
<svg version="1.1" id="Layer_2" xmlns="http://www.w3.org/2000/svg" xmlns:xlink="http://www.w3.org/1999/xlink" x="0px" y="0px"
	 viewBox="0 0 110.715 17.41" enable-background="new 0 0 110.715 17.41" xml:space="preserve">
<g>
	<path fill="#FFFFFF" d="M0.192,15.198L6.444,1.25c0.337-0.745,0.938-1.202,1.78-1.202h0.144c0.842,0,1.419,0.457,1.756,1.202
		l6.252,13.948c0.12,0.217,0.168,0.433,0.168,0.625c0,0.794-0.602,1.419-1.395,1.419c-0.697,0-1.178-0.408-1.443-1.034l-1.371-3.15
		H4.16l-1.419,3.247c-0.24,0.601-0.746,0.938-1.371,0.938C0.601,17.242,0,16.641,0,15.871C0,15.655,0.072,15.438,0.192,15.198z
		 M11.206,10.437L8.248,3.631L5.29,10.437H11.206z"/>
	<path fill="#FFFFFF" d="M19.738,1.779c0-0.842,0.649-1.49,1.491-1.49h6.012c2.116,0,3.775,0.625,4.857,1.683
		c0.89,0.914,1.395,2.165,1.395,3.632v0.048c0,2.693-1.563,4.328-3.823,5.026l3.222,4.063c0.289,0.36,0.481,0.674,0.481,1.13
		c0,0.818-0.697,1.371-1.419,1.371c-0.673,0-1.106-0.312-1.442-0.77l-4.088-5.219h-3.728v4.521c0,0.817-0.649,1.467-1.467,1.467
		c-0.842,0-1.491-0.649-1.491-1.467V1.779z M27.024,8.633c2.116,0,3.463-1.105,3.463-2.813V5.771c0-1.804-1.298-2.789-3.487-2.789
		h-4.305v5.65H27.024z"/>
	<path fill="#FFFFFF" d="M37.12,15.631V1.779c0-0.842,0.649-1.49,1.491-1.49h9.788c0.721,0,1.323,0.601,1.323,1.322
		c0,0.745-0.602,1.322-1.323,1.322h-8.321v4.377h7.238c0.722,0,1.323,0.602,1.323,1.347c0,0.722-0.601,1.299-1.323,1.299h-7.238
		v4.521h8.441c0.721,0,1.323,0.602,1.323,1.323c0,0.745-0.602,1.322-1.323,1.322h-9.908C37.77,17.122,37.12,16.473,37.12,15.631z"/>
	<path fill="#FFFFFF" d="M65.178,10.581l-5.795-7.96c-0.192-0.288-0.337-0.625-0.337-1.034c0-0.793,0.649-1.419,1.491-1.419
		c0.649,0,1.082,0.361,1.442,0.891l4.689,6.757l4.762-6.781c0.36-0.529,0.793-0.89,1.419-0.89c0.865,0,1.442,0.649,1.442,1.442
		c0,0.409-0.192,0.77-0.408,1.059l-5.748,7.863v5.267c0,0.817-0.649,1.467-1.49,1.467c-0.818,0-1.468-0.649-1.468-1.467V10.581z"/>
	<path fill="#FFFFFF" d="M75.395,8.754V8.705C75.395,3.968,79.05,0,84.22,0c5.171,0,8.777,3.92,8.777,8.657v0.048
		c0,4.737-3.655,8.705-8.825,8.705S75.395,13.491,75.395,8.754z M89.896,8.754V8.705c0-3.271-2.381-5.987-5.724-5.987
		s-5.675,2.669-5.675,5.939v0.048c0,3.271,2.38,5.964,5.723,5.964S89.896,12.023,89.896,8.754z"/>
	<path fill="#FFFFFF" d="M96.31,9.979V1.635c0-0.817,0.649-1.467,1.491-1.467c0.817,0,1.467,0.649,1.467,1.467v8.225
		c0,3.127,1.611,4.786,4.257,4.786c2.621,0,4.232-1.563,4.232-4.666V1.635c0-0.817,0.649-1.467,1.491-1.467
		c0.817,0,1.467,0.649,1.467,1.467v8.201c0,5.025-2.838,7.551-7.238,7.551C99.1,17.387,96.31,14.861,96.31,9.979z"/>
</g>
</svg>
