<?xml version="1.0" encoding="UTF-8"?>
<svg id="Layer_1" data-name="Layer 1" xmlns="http://www.w3.org/2000/svg" version="1.1" viewBox="0 0 180.5 230.8">
  <defs>
    <style>
      .cls-1 {
        fill: #002d72;
        stroke-width: 0px;
      }

      .cls-2 {
        fill: none;
        stroke: #ffbf3f;
        stroke-linejoin: round;
        stroke-width: 7.8px;
      }
    </style>
  </defs>
  <path class="cls-1" d="M164.4,3.9H16.1c-6.7,0-12.2,5.5-12.2,12.2v198.6c0,6.7,5.5,12.2,12.2,12.2h148.3c6.7,0,12.2-5.5,12.2-12.2V16.1c0-6.7-5.5-12.2-12.2-12.2Z"/>
  <path class="cls-2" d="M164.4,3.9H16.1c-6.7,0-12.2,5.5-12.2,12.2v198.6c0,6.7,5.5,12.2,12.2,12.2h148.3c6.7,0,12.2-5.5,12.2-12.2V16.1c0-6.7-5.5-12.2-12.2-12.2Z"/>
</svg>