<?xml version="1.0" encoding="UTF-8"?>
<svg id="Layer_1" data-name="Layer 1" xmlns="http://www.w3.org/2000/svg" xmlns:xlink="http://www.w3.org/1999/xlink" version="1.1" viewBox="0 0 205.8 46.4">
  <defs>
    <style>
      .cls-1 {
        clip-path: url(#clippath);
      }

      .cls-2 {
        fill: none;
      }

      .cls-2, .cls-3, .cls-4 {
        stroke-width: 0px;
      }

      .cls-3 {
        fill: #002d72;
      }

      .cls-4 {
        fill: #ffbf3f;
      }
    </style>
    <clipPath id="clippath">
      <rect class="cls-2" width="205.8" height="46.4"/>
    </clipPath>
  </defs>
  <g class="cls-1">
    <path class="cls-4" d="M7.2,0C3.2,0,0,3.2,0,7v32.3c0,3.9,3.2,7,7.2,7h191.6c3.9,0,7.2-3.2,7.2-7V7c0-3.9-3.3-7-7.2-7H7.2Z"/>
  </g>
  <g>
    <path class="cls-3" d="M37,14.6c3.3,0,5.9,1.4,7.8,3.9l-2.2,1.8c-1.4-1.9-3.3-2.9-5.7-2.9-4,0-6.8,2.9-6.8,6.9s2.9,7,6.9,7,4.4-1.1,5.7-2.8v-2.1h-5.8v-2.7h8.8v5.3c-1.6,3-5,5-8.8,5-5.5,0-9.9-4.3-9.8-9.8,0-5.4,4.4-9.8,9.8-9.8h0,0Z"/>
    <path class="cls-3" d="M51.5,27.7c.3,2.3,2.2,3.7,4.6,3.7s2.8-.5,4.1-1.6l1.4,2.1c-1.6,1.5-3.5,2.3-5.7,2.3-4.3,0-7.5-3.2-7.5-7.3s3.3-7.3,7.3-7.3,6.5,2.7,6.5,6.4,0,1.2-.3,1.8h-10.5,0ZM59.1,25.4c0-2.2-1.6-3.5-3.6-3.5s-3.6,1.3-4,3.5c0,0,7.6,0,7.6,0Z"/>
    <path class="cls-3" d="M73.8,33.7c-1,.3-1.8.3-2.5.3-3.3,0-5.2-1.6-5.2-4.8v-6.8h-2.3v-2.6h2.3v-3.7h3v3.7h4.1v2.6h-4.1v6.6c0,1.8,1,2.4,2.7,2.4s1,0,1.8,0v2.5h.2Z"/>
    <path class="cls-3" d="M85.8,28.3c1.3,1.8,2.7,3,4.8,3s3.3-1,3.3-2.6-.8-1.9-2.7-2.8l-2.1-1c-2.7-1.3-4.3-2.7-4.3-5.2s2.7-5.1,5.9-5.1,4.8,1.3,6.1,3.3l-2.1,1.6c-1-1.5-2.4-2.3-4-2.3s-2.8.8-2.8,2.3c0,1.5.8,1.8,2.6,2.7l2.1,1c3,1.4,4.6,2.9,4.6,5.3s-2.7,5.4-6.3,5.4-5.7-1.5-7-4.1l2.2-1.6h-.3Z"/>
    <path class="cls-3" d="M108.9,33.7c-1,.3-1.8.3-2.5.3-3.3,0-5.2-1.6-5.2-4.8v-6.8h-2.3v-2.6h2.3v-3.7h3v3.7h4.1v2.6h-4.1v6.6c0,1.8,1,2.4,2.7,2.4s1,0,1.8,0v2.5h.2Z"/>
    <path class="cls-3" d="M123,33.7h-2.8v-1.5c-1,1.2-2.6,1.8-4.4,1.8-2.9,0-4.8-1.6-4.8-4s1.9-4,5.2-4h4v-.8c0-1.9-1.1-3-3-3s-2.7.7-3.9,2.1l-1.8-1.8c1.4-2.1,3.5-3,5.8-3,3.5,0,5.8,2.1,5.8,5.8v8.4h0ZM120.1,28.2h-3.6c-1.6,0-2.5.5-2.5,1.8s1,1.8,2.5,1.8,3.6-1.4,3.6-3.3v-.3h0Z"/>
    <path class="cls-3" d="M135.2,22.3h-.8c-2.4,0-4.1,1.4-4.1,3.9v7.5h-3v-13.9h2.8v1.8c1-1.3,2.5-1.9,4.1-1.9s.8,0,1.2,0v2.6h-.2Z"/>
    <path class="cls-3" d="M146.2,33.7c-1,.3-1.8.3-2.5.3-3.3,0-5.2-1.6-5.2-4.8v-6.8h-2.3v-2.6h2.3v-3.7h3v3.7h4.1v2.6h-4.1v6.6c0,1.8,1,2.4,2.7,2.4s1,0,1.8,0v2.5h.2Z"/>
    <path class="cls-3" d="M151,27.7c.3,2.3,2.2,3.7,4.6,3.7s2.8-.5,4.1-1.6l1.4,2.1c-1.6,1.5-3.5,2.3-5.7,2.3-4.3,0-7.5-3.2-7.5-7.3s3.3-7.3,7.3-7.3,6.5,2.7,6.5,6.4,0,1.2-.3,1.8h-10.5,0ZM158.7,25.4c0-2.2-1.6-3.5-3.6-3.5s-3.6,1.3-4,3.5c0,0,7.6,0,7.6,0Z"/>
    <path class="cls-3" d="M178.7,12.3v21.4h-2.8v-1.9c-1,1.4-2.8,2.3-4.8,2.3-3.9,0-6.8-3.2-6.8-7.3s2.9-7.3,6.8-7.3,3.6.8,4.7,2.1v-9.1h3,0ZM171.6,22.1c-2.4,0-4.3,1.8-4.3,4.6s1.8,4.6,4.3,4.6,4.3-1.5,4.3-4.6-2.1-4.6-4.3-4.6Z"/>
  </g>
</svg>