<?xml version="1.0" encoding="UTF-8"?>
<svg id="Layer_1" data-name="Layer 1" xmlns="http://www.w3.org/2000/svg" version="1.1" viewBox="0 0 236.5 44">
  <defs>
    <style>
      .cls-1 {
        fill: #ffbf3f;
        stroke-width: 0px;
      }
    </style>
  </defs>
  <path class="cls-1" d="M13.6,35.1H0V4.6h10.8c5.6,0,9.7,3.5,9.7,8.5s-.7,4.1-2.3,5.5c3.4,1.3,5.4,3.8,5.4,7.5,0,5.3-4.2,9-10,9ZM6,10v7h4.3c2.5,0,4-1.3,4-3.5s-1.4-3.5-4-3.5h-4.3ZM13.2,22.1h-7.1v7.7h7.1c2.7,0,4.4-1.4,4.4-3.8s-1.6-3.8-4.4-3.8Z"/>
  <path class="cls-1" d="M42.4,17.7h-1.7c-3.8,0-6.2,2-6.2,6v11.4h-6.3V12.2h5.7v2.7c1.5-1.9,3.8-3,6.3-3s1.4,0,2,.3v5.5Z"/>
  <path class="cls-1" d="M49.4,0c2.2,0,4,1.7,4,3.9s-1.8,3.8-4,3.8-4-1.7-4-3.8,1.8-3.9,4-3.9ZM46.3,12.2h6.3v22.9h-6.3V12.2Z"/>
  <path class="cls-1" d="M79.8,35.1h-6.2v-13.4c0-2.6-1.7-4.4-4.3-4.4s-4.4,1.8-4.4,4.4v13.4h-6.3V12.2h5.7v2.1c1.6-1.6,4-2.6,6.7-2.6,5.3,0,8.6,3.7,8.6,9.2v14.2Z"/>
  <path class="cls-1" d="M108.9,12.2v20.4c0,7.5-4.7,11.4-11.9,11.4s-8.1-1.4-11.3-4.3l3.3-4.4c2.5,1.9,4.7,3,7.5,3s6.1-1.9,6.1-5.4v-1.2c-1.7,1.8-4.1,2.7-7,2.7-6.3,0-11-4.7-11-11.4s4.7-11.3,11-11.3,5.9,1.2,7.5,3.4v-2.9h5.7ZM96.9,17c-3.4,0-5.9,2.3-5.9,6s2.6,6.2,5.9,6.2,5.8-2.3,5.8-6.2-2.6-5.9-5.8-5.9Z"/>
  <path class="cls-1" d="M163.4,35.1h-6.3v-13.3c0-2.7-1.6-4.4-4.1-4.4s-4.2,1.8-4.2,4.3v13.5h-6.3v-13.3c0-2.7-1.6-4.4-4.1-4.4s-4.2,1.7-4.2,4.4v13.3h-6.3V12.2h5.7v2c1.5-1.6,3.8-2.5,6.5-2.5s5.3,1.1,6.8,3.3c1.8-2,4.5-3.3,7.6-3.3,5.4,0,8.7,3.7,8.7,9.2v14.2Z"/>
  <path class="cls-1" d="M180.3,11.7c6.7,0,12.5,5.4,12.3,11.9.1,6.5-5.6,12.1-12.4,12-6.7.1-12.4-5.5-12.2-12-.1-6.5,5.6-12.1,12.3-11.9ZM180.3,17.4c-3.5,0-5.9,2.6-5.9,6.3s2.5,6.2,5.9,6.2,5.9-2.6,5.9-6.2-2.5-6.3-5.9-6.3Z"/>
  <path class="cls-1" d="M211.6,17.7h-1.7c-3.8,0-6.2,2-6.2,6v11.4h-6.3V12.2h5.7v2.7c1.5-1.9,3.8-3,6.3-3s1.4,0,2,.3v5.5Z"/>
  <path class="cls-1" d="M220,25.8c.7,2.9,3.1,4.5,6.4,4.5s4.4-.8,6.4-2.3l2.6,4.3c-2.7,2.3-5.8,3.4-9.2,3.4-7.1.1-12.7-5.4-12.6-12-.1-6.6,5.4-12.1,12-12,6.3,0,10.8,4.7,10.8,10.7s-.1,2.3-.4,3.4h-16.1ZM230.4,21.4c0-2.8-2.2-4.6-5-4.6s-4.8,1.8-5.5,4.6h10.4Z"/>
</svg>