<?xml version="1.0" encoding="UTF-8"?>
<svg id="Layer_1" data-name="Layer 1" xmlns="http://www.w3.org/2000/svg" version="1.1" viewBox="0 0 195.6 35.3">
  <defs>
    <style>
      .cls-1 {
        fill: #ffbf3f;
        stroke-width: 0px;
      }
    </style>
  </defs>
  <path class="cls-1" d="M17.1,34.7c-1.5.4-2.9.6-4.3.6-5.8,0-9.2-2.9-9.2-8.6v-9.6H0v-5.3h3.6v-5.8h6.3v5.8h6.5v5.3h-6.5v9c0,2.6,1.3,3.6,4.3,3.6s1.3,0,3-.2v5.2Z"/>
  <path class="cls-1" d="M42.7,34.7h-6.2v-13.3c0-2.6-1.7-4.4-4.3-4.4s-4.4,1.8-4.4,4.4v13.3h-6.3V0h6.3v13.8c1.5-1.5,3.8-2.5,6.3-2.5,5.2,0,8.5,3.7,8.5,9.2v14.2Z"/>
  <path class="cls-1" d="M53.7,25.4c.7,2.9,3.1,4.5,6.4,4.5s4.4-.8,6.4-2.3l2.6,4.3c-2.7,2.3-5.8,3.4-9.2,3.4-7.1.1-12.7-5.4-12.6-12-.1-6.6,5.4-12.1,12-12,6.3,0,10.8,4.7,10.8,10.7s-.1,2.3-.4,3.4h-16.1ZM64.1,21c0-2.8-2.2-4.6-5-4.6s-4.8,1.8-5.5,4.6h10.4Z"/>
  <path class="cls-1" d="M102.8,34.7c-1.5.4-2.9.6-4.3.6-5.8,0-9.2-2.9-9.2-8.6v-9.6h-3.6v-5.3h3.6v-5.8h6.3v5.8h6.5v5.3h-6.5v9c0,2.6,1.3,3.6,4.3,3.6s1.3,0,3-.2v5.2Z"/>
  <path class="cls-1" d="M126.5,34.7h-5.7v-2.2c-1.7,1.7-4.1,2.8-7,2.8-4.9,0-7.9-2.8-7.9-6.9s3.3-6.7,8.7-6.7h5.7v-1c0-2.5-1.5-4-4.3-4s-4,1-6.1,3.1l-3.2-3.8c2.6-3.1,6-4.7,10-4.7,6,0,9.8,3.5,9.8,9.8v13.6ZM120.3,25.9h-4.9c-2,0-3.2.8-3.2,2.3s1.3,2.5,3.3,2.5,4.8-1.9,4.8-4.5v-.3Z"/>
  <path class="cls-1" d="M145.6,35.3c-3.1,0-5.7-1.2-7.4-3.4v2.8h-5.7V0h6.3v14c1.7-1.8,3.9-2.7,6.9-2.7,6.4,0,11.1,5.1,11.1,12s-4.7,12-11.1,12ZM144.5,16.9c-3.2,0-5.8,2.3-5.8,6.3s2.6,6.3,5.8,6.3,5.9-2.5,5.9-6.3-2.6-6.3-5.9-6.3Z"/>
  <path class="cls-1" d="M161.7,0h6.3v34.7h-6.3V0Z"/>
  <path class="cls-1" d="M179.1,25.4c.7,2.9,3.1,4.5,6.4,4.5s4.4-.8,6.4-2.3l2.6,4.3c-2.7,2.3-5.8,3.4-9.2,3.4-7.1.1-12.7-5.4-12.6-12-.1-6.6,5.4-12.1,12-12,6.3,0,10.8,4.7,10.8,10.7s-.1,2.3-.4,3.4h-16.1ZM189.5,21c0-2.8-2.2-4.6-5-4.6s-4.8,1.8-5.5,4.6h10.4Z"/>
</svg>