<?xml version="1.0" encoding="UTF-8"?>
<svg id="Layer_1" data-name="Layer 1" xmlns="http://www.w3.org/2000/svg" version="1.1" viewBox="0 0 44.5 29.3">
  <defs>
    <style>
      .cls-1 {
        fill: #ffbf3f;
        stroke-width: 0px;
      }
    </style>
  </defs>
  <path class="cls-1" d="M17.1,28.7c-1.5.4-2.9.6-4.3.6-5.8,0-9.2-2.9-9.2-8.6v-9.6H0v-5.3h3.6V0h6.3v5.8h6.5v5.3h-6.5v9c0,2.6,1.3,3.6,4.3,3.6s1.3,0,3-.2v5.2Z"/>
  <path class="cls-1" d="M32.1,5.3c6.7,0,12.5,5.4,12.3,11.9.1,6.5-5.6,12.1-12.4,12-6.7.1-12.4-5.5-12.2-12-.1-6.5,5.6-12.1,12.3-11.9ZM32.1,11c-3.5,0-5.9,2.6-5.9,6.3s2.5,6.2,5.9,6.2,5.9-2.6,5.9-6.2-2.5-6.3-5.9-6.3Z"/>
</svg>