<?xml version="1.0" encoding="UTF-8"?>
<svg id="Layer_1" data-name="Layer 1" xmlns="http://www.w3.org/2000/svg" version="1.1" viewBox="0 0 63.4 24.8">
  <defs>
    <style>
      .cls-1 {
        fill: #ffbf3f;
        stroke-width: 0px;
      }
    </style>
  </defs>
  <path class="cls-1" d="M26.1,8.6l-6.7,16.3h-.9l-5.4-12-5.4,12h-.9L0,8.6h2.7l4.6,11.8,5.3-12.1h.9l5.4,12,4.5-11.7h2.7Z"/>
  <path class="cls-1" d="M31,.7c1,0,1.9.8,1.9,1.8s-.8,1.8-1.9,1.8-1.9-.8-1.9-1.8.8-1.8,1.9-1.8ZM29.7,8.6h2.5v15.9h-2.5v-15.9Z"/>
  <path class="cls-1" d="M46.4,24.5c-1,.2-1.9.4-2.6.4-3.3,0-5.4-1.7-5.4-5.2v-8.8h-2.7v-2.3h2.7v-4.3h2.5v4.3h5v2.3h-5v8.7c0,2.3,1.2,3,3.4,3s1.3,0,2.1-.2v2.1Z"/>
  <path class="cls-1" d="M63.4,24.5h-2.5v-9.7c0-2.6-1.5-4.3-4-4.3s-4.2,1.8-4.2,4.3v9.7h-2.5V0h2.5v10.4c1.1-1.3,2.8-2.2,4.8-2.2,3.7,0,5.9,2.5,5.9,6.3v10Z"/>
</svg>