<?xml version="1.0" encoding="UTF-8"?>
<svg id="Layer_1" data-name="Layer 1" xmlns="http://www.w3.org/2000/svg" version="1.1" viewBox="0 0 233.8 32.8">
  <defs>
    <style>
      .cls-1 {
        fill: #ffbf3f;
        stroke-width: 0px;
      }
    </style>
  </defs>
  <path class="cls-1" d="M15,3.4c5.2,0,9.7,2.5,12.2,6.6l-3.4,2.5c-2-3.1-5-4.9-8.7-4.9-5.8,0-10.3,4.5-10.3,10.5s4.4,10.5,10.3,10.5,6.7-1.8,8.7-4.9l3.4,2.5c-2.4,4-6.9,6.6-12.2,6.6C6.9,32.9-.2,26.3,0,18.1-.2,10,6.9,3.3,15,3.4Z"/>
  <path class="cls-1" d="M32.1,11.2h4.5v12.6c0,2.9,2,4.8,4.8,4.8s4.7-1.9,4.7-4.8v-12.6h4.5v12.3c0,5.7-4,9.4-9.2,9.4s-9.3-3.7-9.3-9.4v-12.3Z"/>
  <path class="cls-1" d="M57.5,25.9c1.9,1.9,3.7,3,6,3s3.4-.8,3.4-2.4-.9-1.8-3-2.6l-2.2-.9c-3.8-1.6-5.5-3.2-5.5-6.2s3.1-6.1,7.5-6.1,5.5,1.1,7.3,3.3l-2.5,2.8c-1.3-1.4-3.1-2.2-5-2.2s-2.9.7-2.9,2,.7,1.6,2.8,2.5l2,.8c4,1.7,5.8,3.4,5.8,6.4s-.7,3.6-2.2,4.8c-1.5,1.1-3.4,1.7-5.6,1.7-3.6,0-6.6-1.6-8.5-4.1l2.6-2.8Z"/>
  <path class="cls-1" d="M89.1,32.3c-1.4.3-2.7.5-3.8.5-4.9,0-7.8-2.4-7.8-7.4v-10.3h-3.4v-3.9h3.4v-5.6h4.6v5.6h6.3v3.9h-6.3v10c0,2.7,1.4,3.7,4.2,3.7s1.6,0,2.8-.2v3.8Z"/>
  <path class="cls-1" d="M103.1,10.7c6.2-.1,11.4,5,11.3,11,.1,6-5.1,11.2-11.3,11.1-6.1.1-11.3-5.1-11.2-11.1-.1-6.1,5.1-11.1,11.2-11ZM103.1,14.8c-3.8,0-6.6,3-6.6,6.9s2.8,6.9,6.6,6.9,6.6-3,6.6-6.9-2.9-6.9-6.6-6.9Z"/>
  <path class="cls-1" d="M151.3,32.3h-4.6v-12.6c0-3-1.7-4.9-4.4-4.9s-4.7,2-4.7,4.7v12.8h-4.5v-12.6c0-2.9-1.7-4.9-4.4-4.9s-4.7,2-4.7,4.9v12.6h-4.5V11.2h4.2v2c1.5-1.6,3.6-2.5,6.1-2.5s5.2,1.3,6.4,3.3c1.6-2,4.2-3.3,7.2-3.3,4.9,0,7.8,3.4,7.8,8.4v13.2Z"/>
  <path class="cls-1" d="M159.9.3c1.7,0,3.1,1.3,3.1,3s-1.4,3-3.1,3-3.1-1.3-3.1-3,1.4-3,3.1-3ZM157.6,11.2h4.5v21.2h-4.5V11.2Z"/>
  <path class="cls-1" d="M184.3,28.4v3.9h-18v-1.3l11.1-16h-10.1v-3.9h16.9v1.3l-11.1,16h11.2Z"/>
  <path class="cls-1" d="M191.8,23.2c.6,3.4,3.3,5.6,6.9,5.6s4.3-.8,6.2-2.5l2.2,3.1c-2.4,2.3-5.2,3.4-8.5,3.4-6.5,0-11.4-4.8-11.4-11-.1-6.1,5-11.2,11-11.1,5.6,0,9.8,4.2,9.8,9.7s-.1,1.9-.3,2.8h-15.8ZM203.4,19.7c0-3.2-2.5-5.2-5.4-5.2s-5.4,2-6.1,5.2h11.5Z"/>
  <path class="cls-1" d="M233.8,0v32.3h-4.2v-3c-1.6,2.2-4.3,3.5-7.4,3.5-6,0-10.3-4.8-10.3-11-.1-6.2,4.5-11.2,10.3-11.1,2.9,0,5.5,1.1,7.1,3.1V0h4.6ZM222.9,14.8c-3.6,0-6.5,2.8-6.5,6.9s2.8,6.9,6.5,6.9,6.4-2.3,6.4-6.9-3.1-6.9-6.4-6.9Z"/>
</svg>