<?xml version="1.0" encoding="UTF-8"?>
<svg id="Layer_1" data-name="Layer 1" xmlns="http://www.w3.org/2000/svg" version="1.1" viewBox="0 0 76.4 29.4">
  <defs>
    <style>
      .cls-1 {
        fill: #ffbf3f;
        stroke-width: 0px;
      }
    </style>
  </defs>
  <path class="cls-1" d="M3.2,20.8c1.9,2.8,4.2,4.5,7.5,4.5s4.9-1.6,4.9-4-1.2-2.9-4.2-4.3l-3.1-1.5c-4.1-1.9-6.6-4.1-6.6-7.9S5.7,0,10.6,0s7.4,2,9.2,5.1l-3.2,2.5c-1.5-2.2-3.6-3.4-6-3.4s-4.3,1.2-4.3,3.4c.2,2.2,1.2,2.6,4,4.1l3.2,1.5c4.6,2.1,6.8,4.4,6.8,8.1s-4.1,8.2-9.5,8.2S2.2,27.1,0,23.2l3.2-2.5Z"/>
  <path class="cls-1" d="M38.3,28.9h-12.2V.5h10c5.1,0,8.5,3.2,8.5,7.6s-.8,4-2.4,5.3c3.3,1.1,5.3,3.8,5.3,7.2s-3.7,8.3-9.2,8.3ZM30.6,4.5v7.7h5c2.8,0,4.4-1.5,4.4-3.9s-1.6-3.8-4.4-3.8h-5ZM37.9,16.1h-7.3v8.8h7.3c3.1,0,5-1.7,5-4.4s-1.9-4.4-5-4.4Z"/>
  <path class="cls-1" d="M69.4,24.2h-12.8l-2,4.7h-4.9L62.3,0h1.6l12.5,28.9h-4.9l-2-4.7ZM63,8.5l-4.8,11.8h9.5l-4.7-11.8Z"/>
</svg>