<?xml version="1.0" encoding="UTF-8"?>
<svg id="Layer_1" data-name="Layer 1" xmlns="http://www.w3.org/2000/svg" version="1.1" viewBox="0 0 249.7 32.8">
  <defs>
    <style>
      .cls-1 {
        fill: #ffbf3f;
        stroke-width: 0px;
      }
    </style>
  </defs>
  <path class="cls-1" d="M3.2,24.2c1.9,2.8,4.2,4.5,7.5,4.5s4.9-1.6,4.9-4-1.2-2.9-4.2-4.3l-3.1-1.5c-4.1-1.9-6.6-4.1-6.6-7.9S5.7,3.4,10.6,3.4s7.4,2,9.2,5.1l-3.2,2.5c-1.5-2.2-3.6-3.4-6-3.4s-4.3,1.2-4.3,3.4c.2,2.2,1.2,2.6,4,4.1l3.2,1.5c4.6,2.1,6.8,4.4,6.8,8.1s-4.1,8.2-9.5,8.2S2.2,30.5,0,26.6l3.2-2.5Z"/>
  <path class="cls-1" d="M35.7,10.7c6.2-.1,11.4,5,11.3,11,.1,6-5.1,11.2-11.3,11.1-6.1.1-11.3-5.1-11.2-11.1-.1-6.1,5.1-11.1,11.2-11ZM35.7,14.8c-3.8,0-6.6,3-6.6,6.9s2.8,6.9,6.6,6.9,6.6-3,6.6-6.9-2.9-6.9-6.6-6.9Z"/>
  <path class="cls-1" d="M51.9,11.2h4.5v12.6c0,2.9,2,4.8,4.8,4.8s4.7-1.9,4.7-4.8v-12.6h4.5v12.3c0,5.7-4,9.4-9.2,9.4s-9.3-3.7-9.3-9.4v-12.3Z"/>
  <path class="cls-1" d="M89.3,32.3c-1.4.3-2.7.5-3.8.5-4.9,0-7.8-2.4-7.8-7.4v-10.3h-3.4v-3.9h3.4v-5.6h4.6v5.6h6.3v3.9h-6.3v10c0,2.7,1.4,3.7,4.2,3.7s1.6,0,2.8-.2v3.8Z"/>
  <path class="cls-1" d="M112.3,32.3h-4.5v-12.6c0-2.9-1.8-4.9-4.6-4.9s-4.8,2-4.8,4.9v12.6h-4.5V0h4.5v13.3c1.4-1.7,3.6-2.6,6.1-2.6,4.8,0,7.8,3.4,7.8,8.4v13.2Z"/>
  <path class="cls-1" d="M120.1,24.2c1.9,2.8,4.2,4.5,7.5,4.5s4.9-1.6,4.9-4-1.2-2.9-4.2-4.3l-3.1-1.5c-4.1-1.9-6.6-4.1-6.6-7.9s4.1-7.7,9-7.7,7.4,2,9.2,5.1l-3.2,2.5c-1.5-2.2-3.6-3.4-6-3.4s-4.3,1.2-4.3,3.4c.2,2.2,1.2,2.6,4,4.1l3.2,1.5c4.6,2.1,6.8,4.4,6.8,8.1s-4.1,8.2-9.5,8.2-8.5-2.3-10.7-6.2l3.2-2.5Z"/>
  <path class="cls-1" d="M155.1,32.3c-1.4.3-2.7.5-3.8.5-4.9,0-7.8-2.4-7.8-7.4v-10.3h-3.5v-3.9h3.5v-5.6h4.6v5.6h6.3v3.9h-6.3v10c0,2.7,1.4,3.7,4.2,3.7s1.6,0,2.8-.2v3.8Z"/>
  <path class="cls-1" d="M176.5,32.3h-4.2v-2.4c-1.6,1.9-3.9,2.8-6.8,2.8-4.4,0-7.4-2.5-7.4-6.1s3-6,7.8-6h6v-1.4c0-2.9-1.6-4.5-4.5-4.5s-4.1,1-5.9,3.1l-2.6-2.7c2.1-3.1,5.3-4.5,8.9-4.5,5.2,0,8.7,3.1,8.7,8.8v12.8ZM171.9,23.9h-5.4c-2.4,0-3.8.9-3.8,2.6s1.5,2.8,3.7,2.8,5.5-2.1,5.5-5v-.4Z"/>
  <path class="cls-1" d="M195.4,32.3c-1.4.3-2.7.5-3.8.5-4.9,0-7.8-2.4-7.8-7.4v-10.3h-3.5v-3.9h3.5v-5.6h4.6v5.6h6.3v3.9h-6.3v10c0,2.7,1.4,3.7,4.2,3.7s1.6,0,2.8-.2v3.8Z"/>
  <path class="cls-1" d="M202.8,23.2c.6,3.4,3.3,5.6,6.9,5.6s4.3-.8,6.2-2.5l2.2,3.1c-2.4,2.3-5.2,3.4-8.5,3.4-6.5,0-11.4-4.8-11.4-11-.1-6.1,5-11.2,11-11.1,5.6,0,9.8,4.2,9.8,9.7s-.1,1.9-.3,2.8h-15.8ZM214.4,19.7c0-3.2-2.5-5.2-5.4-5.2s-5.4,2-6.1,5.2h11.5Z"/>
  <path class="cls-1" d="M224.6,3.9h5.2l-2.1,11.6h-3.5l.4-11.6Z"/>
  <path class="cls-1" d="M235.9,25.9c1.9,1.9,3.7,3,6,3s3.4-.8,3.4-2.4-.9-1.8-3-2.6l-2.2-.9c-3.8-1.6-5.5-3.2-5.5-6.2s3.1-6.1,7.5-6.1,5.5,1.1,7.3,3.3l-2.5,2.8c-1.3-1.4-3.1-2.2-5-2.2s-2.9.7-2.9,2,.7,1.6,2.8,2.5l2,.8c4,1.7,5.8,3.4,5.8,6.4s-.7,3.6-2.2,4.8c-1.5,1.1-3.4,1.7-5.6,1.7-3.6,0-6.6-1.6-8.5-4.1l2.6-2.8Z"/>
</svg>