<?xml version="1.0" encoding="UTF-8"?>
<svg id="Layer_1" data-name="Layer 1" xmlns="http://www.w3.org/2000/svg" version="1.1" viewBox="0 0 186.7 40.3">
  <defs>
    <style>
      .cls-1 {
        fill: #ffbf3f;
        stroke-width: 0px;
      }
    </style>
  </defs>
  <path class="cls-1" d="M0,3.6h18.3v4.1H4.6v8.5h11.3v4.1H4.6v11.7H0V3.6Z"/>
  <path class="cls-1" d="M24.8,0c1.7,0,3.1,1.3,3.1,3s-1.4,3-3.1,3-3.1-1.3-3.1-3,1.4-3,3.1-3ZM22.5,10.9h4.5v21.2h-4.5V10.9Z"/>
  <path class="cls-1" d="M52.1,32.1h-4.5v-12.6c0-2.9-1.9-4.9-4.6-4.9s-4.8,2-4.8,4.9v12.6h-4.5V10.9h4.2v2.1c1.6-1.7,3.7-2.5,6.3-2.5,5,0,7.9,3.4,7.9,8.4v13.2Z"/>
  <path class="cls-1" d="M75.2,32.1h-4.2v-2.4c-1.6,1.9-3.9,2.8-6.8,2.8-4.4,0-7.4-2.5-7.4-6.1s3-6,7.8-6h6v-1.4c0-2.9-1.6-4.5-4.5-4.5s-4.1,1-5.9,3.1l-2.6-2.7c2.1-3.1,5.3-4.5,8.9-4.5,5.2,0,8.7,3.1,8.7,8.8v12.8ZM70.6,23.7h-5.4c-2.4,0-3.8.9-3.8,2.6s1.5,2.8,3.7,2.8,5.5-2.1,5.5-5v-.4Z"/>
  <path class="cls-1" d="M100,32.1h-4.5v-12.6c0-2.9-1.9-4.9-4.6-4.9s-4.8,2-4.8,4.9v12.6h-4.5V10.9h4.2v2.1c1.6-1.7,3.7-2.5,6.3-2.5,5,0,7.9,3.4,7.9,8.4v13.2Z"/>
  <path class="cls-1" d="M116.2,10.4c3.9,0,7.1,1.9,8.9,4.9l-3.2,2.5c-1.5-2.2-3.4-3.2-5.7-3.2-3.8,0-6.6,3-6.6,6.9s2.8,6.9,6.6,6.9,4.1-1.1,5.7-3.2l3.2,2.5c-1.9,3.1-5.1,4.9-8.9,4.9-6.3,0-11.2-4.9-11.2-11.1-.1-6.1,5.1-11.1,11.2-11Z"/>
  <path class="cls-1" d="M132.4,0c1.7,0,3.1,1.3,3.1,3s-1.4,3-3.1,3-3.1-1.3-3.1-3,1.4-3,3.1-3ZM130.1,10.9h4.5v21.2h-4.5V10.9Z"/>
  <path class="cls-1" d="M159.7,32.1h-4.5v-12.6c0-2.9-1.9-4.9-4.6-4.9s-4.8,2-4.8,4.9v12.6h-4.5V10.9h4.2v2.1c1.6-1.7,3.7-2.5,6.3-2.5,5,0,7.9,3.4,7.9,8.4v13.2Z"/>
  <path class="cls-1" d="M186.7,10.9v19c0,6.7-4.2,10.4-10.6,10.4s-7.6-1.6-10.2-4l2.5-3.1c2.4,1.9,4.5,3,7.4,3s6.3-2.1,6.3-6v-1.5c-1.6,1.9-4.2,3-7.2,3-5.9,0-10.3-4.4-10.3-10.6s4.4-10.6,10.3-10.6,6,1.3,7.5,3.5v-3h4.2ZM175.9,14.5c-1.9,0-3.4.6-4.6,1.8-1.2,1.2-1.9,2.8-1.9,4.7s.6,3.6,1.9,4.8c1.3,1.2,2.8,1.8,4.6,1.8s3.2-.6,4.5-1.7c1.3-1.2,1.9-2.8,1.9-5,0-4.3-2.9-6.5-6.4-6.5Z"/>
</svg>