<svg id="Layer_1" data-name="Layer 1" xmlns="http://www.w3.org/2000/svg" xmlns:xlink="http://www.w3.org/1999/xlink" viewBox="0 0 33.27 27.04"><defs><style>.cls-1,.cls-3,.cls-4,.cls-5,.cls-6{fill:none;}.cls-2{fill:#00a0df;}.cls-3,.cls-4,.cls-5,.cls-6{stroke:#fff;}.cls-3,.cls-6{stroke-linecap:round;}.cls-3{stroke-linejoin:round;}.cls-3,.cls-4,.cls-6{stroke-width:0.85px;}.cls-4,.cls-5,.cls-6{stroke-miterlimit:10;}.cls-5{stroke-width:0.84px;}.cls-7{clip-path:url(#clip-path);}</style><clipPath id="clip-path"><rect class="cls-1" x="0.31" y="1.07" width="31.73" height="26.39"/></clipPath></defs><path class="cls-2" d="M16.57,23.72C25.11,23.72,32,18.65,32,12.4S25.11,1.07,16.57,1.07,1.11,6.14,1.11,12.4,8,23.72,16.57,23.72"/><path class="cls-2" d="M9.35,22.85c0,1.86,1.86,3.34,4.15,3.3s4.14-1.59,4.14-3.45-1.86-3.34-4.15-3.3S9.35,21,9.35,22.85"/><path class="cls-3" d="M22.77,10.92,21.4,6.71a2,2,0,0,0-1.87-1.32H11.59A2,2,0,0,0,9.72,6.71L8,11.21a2.73,2.73,0,0,0-.16.94v3.17a.68.68,0,0,0,.67.68h6.7"/><path class="cls-4" d="M7.87,15.1v1.81a.69.69,0,0,0,.67.72h1a.69.69,0,0,0,.67-.72V15.83"/><path class="cls-3" d="M8.52,10l.49.4a1.66,1.66,0,0,0,1.06.42H21"/><path class="cls-5" d="M11.53,13.71H10a1.26,1.26,0,0,1-1.15-1.34.42.42,0,0,1,.38-.45h1.54a1.26,1.26,0,0,1,1.15,1.35A.42.42,0,0,1,11.53,13.71Z"/><rect class="cls-1" x="0.31" y="1.07" width="31.73" height="26.39"/><line class="cls-6" x1="15.25" y1="14.5" x2="12.73" y2="14.5"/><g class="cls-7"><path class="cls-4" d="M22.87,9.89H24a.91.91,0,0,0,.83-1,.55.55,0,0,0-.5-.59h-1a.55.55,0,0,0-.5.59Zm-14.62,0H7.08a.9.9,0,0,1-.83-1,.55.55,0,0,1,.5-.59h1a.55.55,0,0,1,.5.59Z"/><path class="cls-4" d="M20.71,12.42a3.72,3.72,0,1,0,3.69,3.71A3.7,3.7,0,0,0,20.71,12.42Z"/></g><polyline class="cls-3" points="19.23 15.85 20.61 17.29 24.4 13.33"/></svg>