<?xml version="1.0" encoding="UTF-8"?>
<svg id="Layer_1" data-name="Layer 1" xmlns="http://www.w3.org/2000/svg" xmlns:xlink="http://www.w3.org/1999/xlink" version="1.1" viewBox="0 0 246.6 55.5">
  <defs>
    <style>
      .cls-1 {
        clip-path: url(#clippath);
      }

      .cls-2 {
        fill: none;
      }

      .cls-2, .cls-3, .cls-4 {
        stroke-width: 0px;
      }

      .cls-3 {
        fill: #002d72;
      }

      .cls-4 {
        fill: #ffbf3f;
      }
    </style>
    <clipPath id="clippath">
      <rect class="cls-2" width="246.6" height="55.5"/>
    </clipPath>
  </defs>
  <g class="cls-1">
    <path class="cls-4" d="M8.6,0C3.8,0,0,3.8,0,8.4v38.7c0,4.7,3.8,8.4,8.6,8.4h229.6c4.7,0,8.6-3.8,8.6-8.4V8.4c-.1-4.7-3.9-8.4-8.6-8.4H8.6Z"/>
  </g>
  <g>
    <path class="cls-3" d="M44.3,17.5c3.9,0,7.1,1.7,9.3,4.7l-2.6,2.2c-1.7-2.3-3.9-3.5-6.7-3.5-4.8,0-8,3.5-8,8.3s3.5,8.4,8.3,8.4,5.3-1.3,6.7-3.4v-2.5h-6.9v-3.2h10.5v6.4c-1.9,3.6-6,6-10.5,6-6.6,0-11.9-5.2-11.8-11.7-.1-6.5,5.3-11.7,11.8-11.7h-.1Z"/>
    <path class="cls-3" d="M61.6,33.2c.4,2.7,2.6,4.4,5.5,4.4s3.4-.6,4.9-1.9l1.7,2.5c-1.9,1.8-4.2,2.7-6.7,2.7-5.1,0-9-3.8-9-8.7s3.9-8.8,8.7-8.8,7.8,3.2,7.8,7.7,0,1.4-.3,2.2h-12.6ZM70.7,30.4c0-2.6-1.9-4.2-4.3-4.2s-4.3,1.6-4.8,4.2h9.1Z"/>
    <path class="cls-3" d="M88.4,40.4c-1.2.3-2.1.4-3,.4-3.9,0-6.2-1.9-6.2-5.8v-8.2h-2.7v-3.1h2.7v-4.4h3.6v4.4h4.9v3.1h-4.9v7.9c0,2.2,1.2,2.9,3.2,2.9s1.2,0,2.2-.1v3h.1Z"/>
    <path class="cls-3" d="M102.8,33.9c1.6,2.2,3.2,3.6,5.8,3.6s3.9-1.2,3.9-3.1-.9-2.3-3.2-3.4l-2.5-1.2c-3.2-1.6-5.2-3.2-5.2-6.2s3.2-6.1,7.1-6.1,5.8,1.6,7.3,4l-2.5,1.9c-1.2-1.8-2.9-2.7-4.8-2.7s-3.4.9-3.4,2.7c.1,1.8.9,2.1,3.1,3.2l2.5,1.2c3.6,1.7,5.5,3.5,5.5,6.4s-3.2,6.5-7.5,6.5-6.7-1.8-8.4-4.9l2.6-1.9h-.3Z"/>
    <path class="cls-3" d="M130.4,40.4c-1.2.3-2.1.4-3,.4-3.9,0-6.2-1.9-6.2-5.8v-8.2h-2.7v-3.1h2.7v-4.4h3.6v4.4h4.9v3.1h-4.9v7.9c0,2.2,1.2,2.9,3.2,2.9s1.2,0,2.2-.1v3h.1Z"/>
    <path class="cls-3" d="M147.3,40.4h-3.4v-1.8c-1.2,1.4-3.1,2.2-5.3,2.2-3.5,0-5.8-1.9-5.8-4.8s2.3-4.8,6.2-4.8h4.8v-1c0-2.3-1.3-3.6-3.6-3.6s-3.2.8-4.7,2.5l-2.1-2.1c1.7-2.5,4.2-3.6,7-3.6,4.2,0,6.9,2.5,6.9,7,0,0,0,10.1,0,10.1ZM143.8,33.7h-4.3c-1.9,0-3,.6-3,2.1s1.2,2.2,3,2.2,4.3-1.7,4.3-3.9v-.3h0Z"/>
    <path class="cls-3" d="M161.9,26.7h-1c-2.9,0-4.9,1.7-4.9,4.7v9h-3.6v-16.7h3.4v2.2c1.2-1.6,3-2.3,4.9-2.3s.9,0,1.4.1v3.1h-.1Z"/>
    <path class="cls-3" d="M175.1,40.4c-1.2.3-2.1.4-3,.4-3.9,0-6.2-1.9-6.2-5.8v-8.2h-2.7v-3.1h2.7v-4.4h3.6v4.4h4.9v3.1h-4.9v7.9c0,2.2,1.2,2.9,3.2,2.9s1.2,0,2.2-.1v3h.1Z"/>
    <path class="cls-3" d="M180.9,33.2c.4,2.7,2.6,4.4,5.5,4.4s3.4-.6,4.9-1.9l1.7,2.5c-1.9,1.8-4.2,2.7-6.7,2.7-5.1,0-9-3.8-9-8.7s3.9-8.8,8.7-8.8,7.8,3.2,7.8,7.7,0,1.4-.3,2.2h-12.6ZM190.1,30.4c0-2.6-1.9-4.2-4.3-4.2s-4.3,1.6-4.8,4.2h9.1Z"/>
    <path class="cls-3" d="M214.1,14.8v25.6h-3.4v-2.3c-1.2,1.7-3.4,2.7-5.8,2.7-4.7,0-8.2-3.8-8.2-8.7s3.5-8.8,8.2-8.8,4.3.9,5.6,2.5v-10.9s3.6,0,3.6,0ZM205.6,26.5c-2.9,0-5.2,2.2-5.2,5.5s2.2,5.5,5.2,5.5,5.1-1.8,5.1-5.5-2.5-5.5-5.1-5.5Z"/>
  </g>
</svg>