<?xml version="1.0" encoding="UTF-8"?>
<svg id="Layer_1" data-name="Layer 1" xmlns="http://www.w3.org/2000/svg" version="1.1" viewBox="0 0 335.8 38.9">
  <defs>
    <style>
      .cls-1 {
        fill: #ffbf3f;
        stroke-width: 0px;
      }
    </style>
  </defs>
  <path class="cls-1" d="M3,29.4c2.5,3.8,5.7,5.8,9.4,5.8s6.8-2.2,6.8-5.6-1.8-4.1-5.6-5.9l-3.8-1.8c-4.6-2.2-7.6-4.5-7.6-9S6.8,4,12.3,4s8.4,2.3,10.6,5.7l-2.9,2.2c-1.8-2.7-4.6-4.2-7.7-4.2s-6,1.8-6,4.9.2,1.8.7,2.5c.9,1.3,2.1,1.9,4.8,3.2l3.7,1.8c5.3,2.6,7.9,5.1,7.9,9.4s-4.6,9.4-10.9,9.4-9.8-2.8-12.4-7.3l3-2.2Z"/>
  <path class="cls-1" d="M67.1,38.3h-3.9v-15.1c0-4-2.2-6.7-5.9-6.7s-6.4,2.8-6.4,6.3v15.5h-3.9v-15.1c0-4-2.3-6.7-5.9-6.7s-6.3,2.8-6.3,6.7v15.1h-3.9V13.4h3.7v2.6c1.8-2,4.3-3.2,7.4-3.2s6.2,1.6,7.7,4.3c1.8-2.6,4.9-4.3,8.5-4.3,5.7,0,9,3.9,9,9.8v15.6Z"/>
  <path class="cls-1" d="M94,38.3h-3.7v-3.2c-1.8,2.5-4.8,3.8-8.4,3.8s-8.7-2.7-8.7-7,3.6-6.9,8.9-6.9h7.9v-2.1c0-4.1-2.3-6.3-6-6.3s-5.2,1.3-7.3,4l-2.6-2.1c2.2-3.7,6-5.5,10.1-5.5,5.9,0,9.7,3.6,9.7,10.1v15.3ZM90.1,28.1h-7.4c-3.5,0-5.4,1.2-5.4,3.5s2.2,3.9,5.2,3.9,7.6-3,7.6-6.8v-.6Z"/>
  <path class="cls-1" d="M102.4,0h3.9v38.3h-3.9V0Z"/>
  <path class="cls-1" d="M114.9,0h3.9v38.3h-3.9V0Z"/>
  <path class="cls-1" d="M154.9,38.9c-3.9,0-7.6-1.7-9.5-4.5v3.9h-3.7V0h3.9v17.1c2-2.6,5.4-4.2,9.1-4.2,7,0,12.3,5.7,12.3,13s-5.3,13-12.3,13ZM154.3,16.5c-4.6,0-8.6,3.1-8.6,9.4s4.2,9.3,8.6,9.3,8.8-4,8.8-9.4-3.8-9.3-8.8-9.3Z"/>
  <path class="cls-1" d="M173.8,13.4h3.9v15.2c0,4,2.8,6.6,6.4,6.6s6.3-2.7,6.3-6.6v-15.2h3.9v15c0,6.3-4.5,10.5-10.3,10.5s-10.3-4.2-10.3-10.5v-15Z"/>
  <path class="cls-1" d="M202.8,31.4c2.4,2.5,4.3,3.8,7.2,3.8s4.8-1.3,4.8-3.5-1.3-2.8-4.3-4l-2.4-1c-4.1-1.7-6.2-3.6-6.2-6.9s3.6-6.9,8.4-6.9,6.3,1.5,8.3,3.9l-2.4,2.5c-1.7-1.7-3.8-2.8-6.1-2.8s-4.1,1.1-4.1,3.1,1,2.4,4,3.6l2.3,1c4.6,2,6.6,3.9,6.6,7.4s-.9,4.1-2.6,5.4c-1.7,1.3-3.7,1.9-6.2,1.9-4.1,0-7.5-2-9.7-4.9l2.5-2.6Z"/>
  <path class="cls-1" d="M227.9,1.1c1.6,0,2.9,1.3,2.9,2.9s-1.3,2.9-2.9,2.9-3-1.2-3-2.9,1.3-2.9,3-2.9ZM225.9,13.4h3.9v24.9h-3.9V13.4Z"/>
  <path class="cls-1" d="M259,38.3h-3.9v-15.2c0-3.9-2.3-6.6-6.2-6.6s-6.5,2.8-6.5,6.6v15.2h-3.9V13.4h3.7v2.7c1.8-2,4.5-3.2,7.7-3.2,5.8,0,9.2,3.9,9.2,9.8v15.6Z"/>
  <path class="cls-1" d="M269.7,27.1c.5,4.9,4.2,8.2,9.1,8.2s5.4-1.1,7.6-3.4l2.3,2.7c-2.6,2.7-6,4.3-10,4.3-7.4,0-13.2-5.7-13.2-13s5.6-13,12.7-13,11.3,4.6,11.3,11.2-.1,1.9-.3,3h-19.7ZM285.6,23.6c0-4.4-3.3-7.2-7.4-7.2s-7.5,2.9-8.4,7.2h15.8Z"/>
  <path class="cls-1" d="M296.7,31.4c2.4,2.5,4.3,3.8,7.2,3.8s4.8-1.3,4.8-3.5-1.3-2.8-4.3-4l-2.4-1c-4.1-1.7-6.2-3.6-6.2-6.9s3.6-6.9,8.4-6.9,6.3,1.5,8.3,3.9l-2.4,2.5c-1.7-1.7-3.8-2.8-6.1-2.8s-4.1,1.1-4.1,3.1,1,2.4,4,3.6l2.3,1c4.6,2,6.6,3.9,6.6,7.4s-.9,4.1-2.6,5.4c-1.7,1.3-3.7,1.9-6.2,1.9-4.1,0-7.5-2-9.7-4.9l2.5-2.6Z"/>
  <path class="cls-1" d="M319.9,31.4c2.4,2.5,4.3,3.8,7.2,3.8s4.8-1.3,4.8-3.5-1.3-2.8-4.3-4l-2.4-1c-4.1-1.7-6.2-3.6-6.2-6.9s3.6-6.9,8.4-6.9,6.3,1.5,8.3,3.9l-2.4,2.5c-1.7-1.7-3.8-2.8-6.1-2.8s-4.1,1.1-4.1,3.1,1,2.4,4,3.6l2.3,1c4.6,2,6.6,3.9,6.6,7.4s-.9,4.1-2.6,5.4c-1.7,1.3-3.7,1.9-6.2,1.9-4.1,0-7.5-2-9.7-4.9l2.5-2.6Z"/>
</svg>