<?xml version="1.0" encoding="UTF-8"?>
<svg id="Layer_1" data-name="Layer 1" xmlns="http://www.w3.org/2000/svg" version="1.1" viewBox="0 0 262.7 48.1">
  <defs>
    <style>
      .cls-1 {
        fill: #ffbf3f;
        stroke-width: 0px;
      }
    </style>
  </defs>
  <path class="cls-1" d="M16.7,38.3c-1.6.4-3,.6-4.1.6-5.2,0-8.4-2.6-8.4-8.1v-13.8H0v-3.5h4.2v-6.8h3.9v6.8h7.8v3.5h-7.8v13.6c0,3.5,1.8,4.8,5.3,4.8s2-.1,3.3-.3v3.3Z"/>
  <path class="cls-1" d="M33.3,12.9c7.1-.1,13.2,5.9,13,13,.2,7-6,13.1-13.1,13-7.1.2-13.1-6-13-13-.2-7.1,5.9-13.1,13-13ZM33.3,16.5c-5.1,0-9,4-9,9.4s3.9,9.3,8.9,9.3,9-4.1,9-9.3-3.9-9.4-9-9.4Z"/>
  <path class="cls-1" d="M88.1,38.3h-3.9v-15.1c0-4-2.4-6.7-6.2-6.7s-6.5,2.8-6.5,6.7v15.1h-3.9V0h3.9v16.2c1.7-2.1,4.3-3.4,7.5-3.4,5.7,0,9.2,3.9,9.2,9.8v15.6Z"/>
  <path class="cls-1" d="M98.7,27.1c.5,4.9,4.2,8.2,9.1,8.2s5.4-1.1,7.6-3.4l2.3,2.7c-2.6,2.7-6,4.3-10,4.3-7.4,0-13.2-5.7-13.2-13s5.6-13,12.7-13,11.3,4.6,11.3,11.2-.1,1.9-.3,3h-19.7ZM114.7,23.6c0-4.4-3.3-7.2-7.4-7.2s-7.5,2.9-8.4,7.2h15.8Z"/>
  <path class="cls-1" d="M125.6,0h3.9v38.3h-3.9V0Z"/>
  <path class="cls-1" d="M151.3,38.9c-3.7,0-7.1-1.5-9.1-4.1v12.8h-3.9V13.4h3.7v4c1.9-2.9,5.5-4.5,9.4-4.5,7.1,0,12.3,5.7,12.3,13s-5.3,13-12.3,13ZM150.7,16.5c-4.4,0-8.6,3.1-8.6,9.3s4,9.4,8.6,9.4,8.8-4,8.8-9.3-3.8-9.4-8.8-9.4Z"/>
  <path class="cls-1" d="M206.6,13.4l-12.3,28.4c-1.9,4.3-4.6,6.3-8.4,6.3s-2.6-.2-3.8-.5v-3.3c1.3.2,2.3.3,3,.3,2.6,0,4.3-1,5.6-4l1.3-3-10.3-24.1h4.2l8.2,19.8,8.2-19.8h4.2Z"/>
  <path class="cls-1" d="M222.5,12.9c7.1-.1,13.2,5.9,13,13,.2,7-6,13.1-13.1,13-7.1.2-13.1-6-13-13-.2-7.1,5.9-13.1,13-13ZM222.5,16.5c-5.1,0-9,4-9,9.4s3.9,9.3,8.9,9.3,9-4.1,9-9.3-3.9-9.4-9-9.4Z"/>
  <path class="cls-1" d="M242.1,13.4h3.9v15.2c0,4,2.8,6.6,6.4,6.6s6.3-2.7,6.3-6.6v-15.2h3.9v15c0,6.3-4.5,10.5-10.3,10.5s-10.3-4.2-10.3-10.5v-15Z"/>
</svg>