<?xml version="1.0" encoding="UTF-8"?>
<svg id="Layer_1" data-name="Layer 1" xmlns="http://www.w3.org/2000/svg" version="1.1" viewBox="0 0 331.2 73">
  <defs>
    <style>
      .cls-1 {
        fill: #ffbf3f;
        stroke-width: 0px;
      }
    </style>
  </defs>
  <path class="cls-1" d="M37.3,0C49.6,0,59.7,5.4,66.5,14.8l-8.2,6.7c-5.2-7.4-12.3-11.1-21.1-11.1-14.9,0-25.4,11.1-25.4,26s10.8,26.4,26,26.4,16.7-4,21.1-10.7v-7.6h-21.7v-10.1h33.1v19.9c-6.3,11.2-18.7,18.6-33,18.6C16.6,73.3-.3,56.7,0,36.5-.4,16.3,16.8-.3,37.3,0Z"/>
  <path class="cls-1" d="M128.6,71.8l-20.1-27.3h-13v27.3h-11.3V1.2h25.8c14.2,0,24,8.9,24,21.6s-5.1,16.6-13.6,19.9l21.2,29.1h-13ZM95.5,34.5h14.2c7.8,0,12.5-4.7,12.5-11.6s-4.7-11.7-12.5-11.7h-14.2v23.2Z"/>
  <path class="cls-1" d="M182.8,0c20-.3,37.6,16.3,37.1,36.5.4,20.2-17.1,36.8-37.1,36.5-20.2.3-37.5-16.3-37-36.5C145.5,16.3,162.7-.3,182.8,0ZM182.9,10.4c-14.7,0-25.4,11.1-25.4,26s10.7,26.2,25.4,26.2,25.4-11.1,25.4-26.2-10.9-26-25.4-26Z"/>
  <path class="cls-1" d="M331.2,1.2l-27.5,71.8h-3.7l-21.1-50.1-21.1,50.1h-3.9L226.4,1.2h12.5l17.7,47.7L276.8,0h4l20.3,48.9L318.8,1.2h12.4Z"/>
</svg>