<?xml version="1.0" encoding="UTF-8"?>
<svg id="Layer_1" data-name="Layer 1" xmlns="http://www.w3.org/2000/svg" version="1.1" viewBox="0 0 256.3 46.4">
  <defs>
    <style>
      .cls-1 {
        fill: #ffbf3f;
        stroke-width: 0px;
      }
    </style>
  </defs>
  <path class="cls-1" d="M4.1,26c.5,4.9,4.2,8.2,9.1,8.2s5.4-1.1,7.6-3.4l2.3,2.7c-2.6,2.7-6,4.3-10,4.3-7.4,0-13.2-5.7-13.2-13s5.6-13,12.7-13,11.3,4.6,11.3,11.2-.1,1.9-.3,3H4.1ZM20,22.5c0-4.4-3.3-7.2-7.4-7.2s-7.5,2.9-8.4,7.2h15.8Z"/>
  <path class="cls-1" d="M45.9,37.2l-7.1-10.2-7,10.2h-4.6l9.2-13-8.5-11.9h4.5l6.3,9.1,6.4-9.1h4.5l-8.6,11.9,9.3,13h-4.5Z"/>
  <path class="cls-1" d="M68.9,37.8c-3.7,0-7.1-1.5-9.1-4.1v12.8h-3.9V12.4h3.7v4c1.9-2.9,5.5-4.5,9.4-4.5,7.1,0,12.3,5.7,12.3,13s-5.3,13-12.3,13ZM68.3,15.4c-4.4,0-8.6,3.1-8.6,9.3s4,9.4,8.6,9.4,8.8-4,8.8-9.3-3.8-9.4-8.8-9.4Z"/>
  <path class="cls-1" d="M90.4,26c.5,4.9,4.2,8.2,9.1,8.2s5.4-1.1,7.6-3.4l2.3,2.7c-2.6,2.7-6,4.3-10,4.3-7.4,0-13.2-5.7-13.2-13s5.6-13,12.7-13,11.3,4.6,11.3,11.2-.1,1.9-.3,3h-19.7ZM106.4,22.5c0-4.4-3.3-7.2-7.4-7.2s-7.5,2.9-8.4,7.2h15.8Z"/>
  <path class="cls-1" d="M130.5,15.8h-1.5c-4.2,0-7.8,2.7-7.8,7.3v14.1h-3.9V12.4h3.7v3.5c1.8-2.4,4.7-3.7,7.7-3.7s1.2,0,1.8.2v3.5Z"/>
  <path class="cls-1" d="M137.8,0c1.6,0,2.9,1.3,2.9,2.9s-1.3,2.9-2.9,2.9-3-1.2-3-2.9,1.3-2.9,3-2.9ZM135.8,12.4h3.9v24.9h-3.9V12.4Z"/>
  <path class="cls-1" d="M150.6,26c.5,4.9,4.2,8.2,9.1,8.2s5.4-1.1,7.6-3.4l2.3,2.7c-2.6,2.7-6,4.3-10,4.3-7.4,0-13.2-5.7-13.2-13s5.6-13,12.7-13,11.3,4.6,11.3,11.2-.1,1.9-.3,3h-19.7ZM166.6,22.5c0-4.4-3.3-7.2-7.4-7.2s-7.5,2.9-8.4,7.2h15.8Z"/>
  <path class="cls-1" d="M198.1,37.2h-3.9v-15.2c0-3.9-2.3-6.6-6.2-6.6s-6.5,2.8-6.5,6.6v15.2h-3.9V12.4h3.7v2.7c1.8-2,4.5-3.2,7.7-3.2,5.8,0,9.2,3.9,9.2,9.8v15.6Z"/>
  <path class="cls-1" d="M217.7,11.8c4.3,0,8,2.1,10.3,5.4l-2.8,2.2c-2-2.7-4.5-4-7.4-4-5.2,0-9,4.2-9,9.3s3.9,9.4,9,9.4,5.4-1.3,7.4-4l2.8,2.2c-2.2,3.3-5.9,5.4-10.2,5.4-7.2,0-13-5.8-13-13-.2-7.1,5.9-13.1,13-13Z"/>
  <path class="cls-1" d="M236.4,26c.5,4.9,4.2,8.2,9.1,8.2s5.4-1.1,7.6-3.4l2.3,2.7c-2.6,2.7-6,4.3-10,4.3-7.4,0-13.2-5.7-13.2-13s5.6-13,12.7-13,11.3,4.6,11.3,11.2-.1,1.9-.3,3h-19.7ZM252.3,22.5c0-4.4-3.3-7.2-7.4-7.2s-7.5,2.9-8.4,7.2h15.8Z"/>
</svg>