<?xml version="1.0" encoding="UTF-8"?>
<svg id="Layer_1" data-name="Layer 1" xmlns="http://www.w3.org/2000/svg" version="1.1" viewBox="0 0 325.1 48.7">
  <defs>
    <style>
      .cls-1 {
        fill: #ffbf3f;
        stroke-width: 0px;
      }
    </style>
  </defs>
  <path class="cls-1" d="M4.8,35.9c2.8,4.1,6.2,6.7,11.1,6.7s7.3-2.3,7.3-5.9-1.8-4.3-6.2-6.3l-4.7-2.2c-6.1-2.8-9.9-6.1-9.9-11.7S8.5,5.1,15.8,5.1s11,3,13.6,7.6l-4.7,3.7c-2.2-3.3-5.3-5.1-8.9-5.1s-6.4,1.8-6.4,5.1c.3,3.3,1.7,3.9,5.9,6l4.7,2.2c6.9,3.1,10.1,6.5,10.1,12s-6,12.2-14.2,12.2-12.7-3.5-15.9-9.2l4.8-3.7Z"/>
  <path class="cls-1" d="M53,15.9c9.2-.2,16.9,7.5,16.7,16.4.2,8.9-7.6,16.7-16.7,16.5-9,.2-16.8-7.6-16.6-16.5-.2-9,7.6-16.5,16.6-16.4ZM53,22c-5.6,0-9.8,4.5-9.8,10.3s4.2,10.2,9.7,10.2,9.8-4.5,9.8-10.2-4.3-10.3-9.7-10.3Z"/>
  <path class="cls-1" d="M77,16.6h6.7v18.8c0,4.4,3,7.2,7.1,7.2s6.9-2.8,6.9-7.2v-18.8h6.7v18.3c0,8.5-6,13.9-13.6,13.9s-13.8-5.4-13.8-13.9v-18.3Z"/>
  <path class="cls-1" d="M132.6,48c-2.1.4-4,.7-5.6.7-7.2,0-11.6-3.6-11.6-11v-15.4h-5.1v-5.8h5.1v-8.3h6.8v8.3h9.4v5.8h-9.4v14.8c0,4,2.1,5.4,6.2,5.4s2.3-.1,4.2-.3v5.7Z"/>
  <path class="cls-1" d="M166.8,48h-6.7v-18.7c0-4.4-2.7-7.3-6.9-7.3s-7.2,3-7.2,7.3v18.7h-6.7V0h6.7v19.7c2.1-2.5,5.3-3.8,9.1-3.8,7.2,0,11.7,5.1,11.7,12.5v19.7Z"/>
  <path class="cls-1" d="M178.4,35.9c2.8,4.1,6.2,6.7,11.1,6.7s7.3-2.3,7.3-5.9-1.8-4.3-6.2-6.3l-4.7-2.2c-6.1-2.8-9.9-6.1-9.9-11.7s6-11.5,13.3-11.5,11,3,13.6,7.6l-4.7,3.7c-2.2-3.3-5.3-5.1-8.9-5.1s-6.4,1.8-6.4,5.1c.3,3.3,1.7,3.9,5.9,6l4.7,2.2c6.9,3.1,10.1,6.5,10.1,12s-6,12.2-14.2,12.2-12.7-3.5-15.9-9.2l4.8-3.7Z"/>
  <path class="cls-1" d="M230.4,48c-2.1.4-4,.7-5.6.7-7.2,0-11.6-3.6-11.6-11v-15.4h-5.1v-5.8h5.1v-8.3h6.8v8.3h9.4v5.8h-9.4v14.8c0,4,2.1,5.4,6.2,5.4s2.3-.1,4.2-.3v5.7Z"/>
  <path class="cls-1" d="M262.1,48h-6.3v-3.5c-2.3,2.8-5.8,4.2-10.1,4.2-6.6,0-11-3.7-11-9.1s4.5-9,11.6-9h8.9v-2c0-4.4-2.4-6.7-6.7-6.7s-6.1,1.5-8.7,4.7l-3.9-4c3.1-4.5,7.8-6.7,13.3-6.7,7.7,0,12.9,4.7,12.9,13.1v19ZM255.3,35.5h-8.1c-3.6,0-5.6,1.3-5.6,3.8s2.2,4.2,5.5,4.2,8.1-3.1,8.1-7.4v-.6Z"/>
  <path class="cls-1" d="M290.2,48c-2.1.4-4,.7-5.6.7-7.2,0-11.6-3.6-11.6-11v-15.4h-5.1v-5.8h5.1v-8.3h6.8v8.3h9.4v5.8h-9.4v14.8c0,4,2.1,5.4,6.2,5.4s2.3-.1,4.2-.3v5.7Z"/>
  <path class="cls-1" d="M301.2,34.5c.8,5.1,4.9,8.3,10.2,8.3s6.3-1.2,9.2-3.7l3.2,4.6c-3.6,3.4-7.7,5.1-12.6,5.1-9.6,0-16.9-7.1-16.9-16.4-.2-9,7.4-16.7,16.3-16.5,8.3,0,14.5,6.2,14.5,14.4s-.2,2.8-.5,4.2h-23.4ZM318.4,29.3c0-4.8-3.7-7.7-8.1-7.7s-8,3-9,7.7h17.1Z"/>
</svg>