<?xml version="1.0" encoding="UTF-8"?>
<svg id="Layer_1" data-name="Layer 1" xmlns="http://www.w3.org/2000/svg" version="1.1" viewBox="0 0 425.6 48.7">
  <defs>
    <style>
      .cls-1 {
        fill: #ffbf3f;
        stroke-width: 0px;
      }
    </style>
  </defs>
  <path class="cls-1" d="M4.8,35.9c2.8,4.1,6.2,6.7,11.1,6.7s7.3-2.3,7.3-5.9-1.8-4.3-6.2-6.3l-4.7-2.2c-6.1-2.8-9.9-6.1-9.9-11.7S8.5,5.1,15.8,5.1s11,3,13.6,7.6l-4.7,3.7c-2.2-3.3-5.3-5.1-8.9-5.1s-6.4,1.8-6.4,5.1c.3,3.3,1.7,3.9,5.9,6l4.7,2.2c6.9,3.1,10.1,6.5,10.1,12s-6,12.2-14.2,12.2-12.7-3.5-15.9-9.2l4.8-3.7Z"/>
  <path class="cls-1" d="M85.6,48h-6.8v-18.7c0-4.4-2.5-7.3-6.5-7.3s-6.9,2.9-6.9,7v19h-6.7v-18.7c0-4.4-2.6-7.3-6.6-7.3s-6.9,2.9-6.9,7.3v18.7h-6.7v-31.4h6.3v2.9c2.2-2.3,5.3-3.6,9.1-3.6s7.7,1.9,9.5,4.9c2.3-3,6.2-4.9,10.6-4.9,7.2,0,11.7,5,11.7,12.5v19.7Z"/>
  <path class="cls-1" d="M119.9,48h-6.3v-3.5c-2.3,2.8-5.8,4.2-10.1,4.2-6.6,0-11-3.7-11-9.1s4.5-9,11.6-9h8.9v-2c0-4.4-2.4-6.7-6.7-6.7s-6.1,1.5-8.7,4.7l-3.9-4c3.1-4.5,7.8-6.7,13.3-6.7,7.7,0,12.9,4.7,12.9,13.1v19ZM113.1,35.5h-8.1c-3.6,0-5.6,1.3-5.6,3.8s2.2,4.2,5.5,4.2,8.1-3.1,8.1-7.4v-.6Z"/>
  <path class="cls-1" d="M129.2,0h6.7v48h-6.7V0Z"/>
  <path class="cls-1" d="M145.7,0h6.7v48h-6.7V0Z"/>
  <path class="cls-1" d="M198.7,48h-18.1V5.8h14.8c7.6,0,12.7,4.7,12.7,11.3s-1.2,6-3.5,7.9c4.9,1.6,7.9,5.6,7.9,10.8s-5.4,12.3-13.7,12.3ZM187.2,11.7v11.4h7.5c4.2,0,6.5-2.2,6.5-5.8s-2.4-5.6-6.5-5.6h-7.5ZM198.1,28.9h-10.9v13.1h10.9c4.7,0,7.4-2.5,7.4-6.5s-2.8-6.6-7.4-6.6Z"/>
  <path class="cls-1" d="M219.3,16.6h6.7v18.8c0,4.4,3,7.2,7.1,7.2s6.9-2.8,6.9-7.2v-18.8h6.7v18.3c0,8.5-6,13.9-13.6,13.9s-13.8-5.4-13.8-13.9v-18.3Z"/>
  <path class="cls-1" d="M257.1,38.4c2.8,2.9,5.5,4.5,8.8,4.5s5.1-1.2,5.1-3.5-1.3-2.6-4.4-3.9l-3.2-1.3c-5.6-2.3-8.2-4.7-8.2-9.2s4.7-9.1,11.1-9.1,8.1,1.6,10.9,4.9l-3.7,4.2c-2-2-4.6-3.2-7.4-3.2s-4.3,1-4.3,3,1.1,2.4,4.2,3.7l3,1.2c6,2.5,8.6,5.1,8.6,9.5s-1.1,5.4-3.3,7.1c-2.2,1.7-5,2.5-8.3,2.5-5.4,0-9.9-2.4-12.7-6.1l3.8-4.2Z"/>
  <path class="cls-1" d="M288.7.4c2.5,0,4.5,2,4.5,4.5s-2,4.4-4.5,4.4-4.6-1.9-4.6-4.4,2-4.5,4.6-4.5ZM285.3,16.6h6.7v31.4h-6.7v-31.4Z"/>
  <path class="cls-1" d="M329.2,48h-6.7v-18.8c0-4.4-2.8-7.3-6.9-7.3s-7.2,3-7.2,7.3v18.8h-6.7v-31.4h6.3v3.1c2.4-2.5,5.5-3.8,9.4-3.8,7.4,0,11.8,5,11.8,12.5v19.7Z"/>
  <path class="cls-1" d="M343.5,34.5c.8,5.1,4.9,8.3,10.2,8.3s6.3-1.2,9.2-3.7l3.2,4.6c-3.6,3.4-7.7,5.1-12.6,5.1-9.6,0-16.9-7.1-16.9-16.4-.2-9,7.4-16.7,16.3-16.5,8.3,0,14.5,6.2,14.5,14.4s-.2,2.8-.5,4.2h-23.4ZM360.7,29.3c0-4.8-3.7-7.7-8.1-7.7s-8,3-9,7.7h17.1Z"/>
  <path class="cls-1" d="M376,38.4c2.8,2.9,5.5,4.5,8.8,4.5s5.1-1.2,5.1-3.5-1.3-2.6-4.4-3.9l-3.2-1.3c-5.6-2.3-8.2-4.7-8.2-9.2s4.7-9.1,11.1-9.1,8.1,1.6,10.9,4.9l-3.7,4.2c-2-2-4.6-3.2-7.4-3.2s-4.3,1-4.3,3,1.1,2.4,4.2,3.7l3,1.2c6,2.5,8.6,5.1,8.6,9.5s-1.1,5.4-3.3,7.1c-2.2,1.7-5,2.5-8.3,2.5-5.4,0-9.9-2.4-12.7-6.1l3.8-4.2Z"/>
  <path class="cls-1" d="M405.1,38.4c2.8,2.9,5.5,4.5,8.8,4.5s5.1-1.2,5.1-3.5-1.3-2.6-4.4-3.9l-3.2-1.3c-5.6-2.3-8.2-4.7-8.2-9.2s4.7-9.1,11.1-9.1,8.1,1.6,10.9,4.9l-3.7,4.2c-2-2-4.6-3.2-7.4-3.2s-4.3,1-4.3,3,1.1,2.4,4.2,3.7l3,1.2c6,2.5,8.6,5.1,8.6,9.5s-1.1,5.4-3.3,7.1c-2.2,1.7-5,2.5-8.3,2.5-5.4,0-9.9-2.4-12.7-6.1l3.8-4.2Z"/>
</svg>