<?xml version="1.0" encoding="UTF-8"?>
<svg id="Layer_1" data-name="Layer 1" xmlns="http://www.w3.org/2000/svg" version="1.1" viewBox="0 0 277.4 59.9">
  <defs>
    <style>
      .cls-1 {
        fill: #ffbf3f;
        stroke-width: 0px;
      }
    </style>
  </defs>
  <path class="cls-1" d="M0,5.4h27.2v6.1H6.8v12.6h16.8v6.1H6.8v17.4H0V5.4Z"/>
  <path class="cls-1" d="M36.8,0c2.5,0,4.5,2,4.5,4.5s-2,4.4-4.5,4.4-4.6-1.9-4.6-4.4,2-4.5,4.6-4.5ZM33.4,16.2h6.7v31.4h-6.7v-31.4Z"/>
  <path class="cls-1" d="M77.4,47.6h-6.7v-18.8c0-4.4-2.8-7.3-6.9-7.3s-7.2,3-7.2,7.3v18.8h-6.7v-31.4h6.3v3.1c2.4-2.5,5.5-3.8,9.4-3.8,7.4,0,11.8,5,11.8,12.5v19.7Z"/>
  <path class="cls-1" d="M111.7,47.6h-6.3v-3.5c-2.3,2.8-5.8,4.2-10.1,4.2-6.6,0-11-3.7-11-9.1s4.5-9,11.6-9h8.9v-2c0-4.4-2.4-6.7-6.7-6.7s-6.1,1.5-8.7,4.7l-3.9-4c3.1-4.5,7.8-6.7,13.3-6.7,7.7,0,12.9,4.7,12.9,13.1v19ZM104.9,35.2h-8.1c-3.6,0-5.6,1.3-5.6,3.8s2.2,4.2,5.5,4.2,8.1-3.1,8.1-7.4v-.6Z"/>
  <path class="cls-1" d="M148.5,47.6h-6.7v-18.8c0-4.4-2.8-7.3-6.9-7.3s-7.2,3-7.2,7.3v18.8h-6.7v-31.4h6.3v3.1c2.4-2.5,5.5-3.8,9.4-3.8,7.4,0,11.8,5,11.8,12.5v19.7Z"/>
  <path class="cls-1" d="M172.5,15.5c5.8,0,10.5,2.8,13.3,7.3l-4.7,3.7c-2.2-3.2-5.1-4.8-8.5-4.8-5.6,0-9.9,4.5-9.9,10.2s4.2,10.2,9.9,10.2,6.1-1.6,8.5-4.7l4.7,3.7c-2.8,4.5-7.6,7.3-13.3,7.3-9.3,0-16.7-7.3-16.7-16.5-.2-9,7.6-16.5,16.7-16.4Z"/>
  <path class="cls-1" d="M196.6,0c2.5,0,4.5,2,4.5,4.5s-2,4.4-4.5,4.4-4.6-1.9-4.6-4.4,2-4.5,4.6-4.5ZM193.2,16.2h6.7v31.4h-6.7v-31.4Z"/>
  <path class="cls-1" d="M237.1,47.6h-6.7v-18.8c0-4.4-2.8-7.3-6.9-7.3s-7.2,3-7.2,7.3v18.8h-6.7v-31.4h6.3v3.1c2.4-2.5,5.5-3.8,9.4-3.8,7.4,0,11.8,5,11.8,12.5v19.7Z"/>
  <path class="cls-1" d="M277.4,16.2v28.2c0,9.9-6.2,15.5-15.8,15.5s-11.3-2.4-15.1-6l3.7-4.7c3.5,2.8,6.7,4.5,11,4.5s9.4-3.1,9.4-9v-2.2c-2.4,2.9-6.3,4.5-10.6,4.5-8.8,0-15.3-6.6-15.3-15.8s6.6-15.8,15.3-15.8,8.8,1.9,11.1,5.2v-4.5h6.2ZM261.2,21.5c-2.8,0-5,.9-6.9,2.7-1.9,1.8-2.8,4.2-2.8,7s.9,5.3,2.8,7.2c1.9,1.8,4.1,2.7,6.9,2.7s4.8-.8,6.7-2.6c1.9-1.7,2.8-4.2,2.8-7.4,0-6.4-4.3-9.7-9.5-9.7Z"/>
</svg>