<?xml version="1.0" encoding="UTF-8"?>
<svg id="Layer_1" data-name="Layer 1" xmlns="http://www.w3.org/2000/svg" version="1.1" viewBox="0 0 251.2 87.7">
  <defs>
    <style>
      .cls-1 {
        fill: #fff;
        stroke-width: 0px;
      }
    </style>
  </defs>
  <path class="cls-1" d="M14.2,2.4c4.8,0,9,2.3,11.3,5.9l-2.4,1.9c-2.1-3-5.1-4.8-8.9-4.8-6.2,0-10.9,4.8-10.9,11.1s4.7,11.1,10.9,11.1,6.8-1.8,8.9-4.8l2.4,1.9c-2.3,3.6-6.5,5.9-11.3,5.9C6.5,30.8-.2,24.3,0,16.5-.2,8.7,6.5,2.3,14.2,2.4Z"/>
  <path class="cls-1" d="M39.8,9.6c5.8,0,10.7,4.8,10.6,10.5.1,5.7-4.8,10.6-10.6,10.5-5.8.1-10.6-4.8-10.5-10.5-.1-5.8,4.8-10.6,10.6-10.5ZM39.8,12.5c-4.1,0-7.3,3.3-7.3,7.6s3.1,7.5,7.2,7.5,7.3-3.3,7.3-7.5-3.2-7.6-7.3-7.6Z"/>
  <path class="cls-1" d="M85.4,30.2h-3.2v-12.3c0-3.3-1.8-5.4-4.8-5.4s-5.2,2.3-5.2,5.1v12.5h-3.2v-12.3c0-3.3-1.9-5.4-4.8-5.4s-5.1,2.2-5.1,5.4v12.3h-3.2V10h3v2.1c1.4-1.7,3.5-2.6,6-2.6s5.1,1.3,6.2,3.5c1.5-2.1,3.9-3.5,6.9-3.5,4.6,0,7.3,3.1,7.3,7.9v12.7Z"/>
  <path class="cls-1" d="M94,21.1c.4,4,3.4,6.6,7.4,6.6s4.3-.9,6.2-2.7l1.9,2.2c-2.1,2.2-4.9,3.5-8.1,3.5-6,0-10.7-4.6-10.7-10.5s4.6-10.6,10.3-10.6,9.2,3.8,9.2,9.1,0,1.6-.2,2.4h-15.9ZM106.9,18.3c0-3.6-2.6-5.8-6-5.8s-6.1,2.3-6.8,5.8h12.8Z"/>
  <path class="cls-1" d="M143.9,10l-9.5,20.6h-1.2l-9.5-20.6h3.4l6.7,15.2,6.7-15.2h3.4Z"/>
  <path class="cls-1" d="M150.1,0c1.3,0,2.4,1,2.4,2.3s-1,2.3-2.4,2.3-2.4-1-2.4-2.3,1.1-2.3,2.4-2.3ZM148.5,10h3.2v20.2h-3.2V10Z"/>
  <path class="cls-1" d="M158.8,24.6c1.9,2,3.5,3.1,5.8,3.1s3.8-1.1,3.8-2.9-1-2.2-3.5-3.2l-1.9-.8c-3.4-1.4-5-2.9-5-5.6s2.9-5.6,6.8-5.6,5.1,1.2,6.7,3.2l-1.9,2c-1.4-1.4-3.1-2.2-5-2.2s-3.4.9-3.4,2.5.8,1.9,3.3,2.9l1.9.8c3.8,1.6,5.3,3.2,5.3,6s-.7,3.4-2.1,4.4c-1.4,1-3,1.5-5,1.5-3.4,0-6.1-1.6-7.9-3.9l2-2.1Z"/>
  <path class="cls-1" d="M179.1,0c1.3,0,2.4,1,2.4,2.3s-1,2.3-2.4,2.3-2.4-1-2.4-2.3,1.1-2.3,2.4-2.3ZM177.5,10h3.2v20.2h-3.2V10Z"/>
  <path class="cls-1" d="M198.7,30.2c-1.3.3-2.4.5-3.4.5-4.2,0-6.8-2.1-6.8-6.5v-11.2h-3.4v-2.9h3.4v-5.5h3.2v5.5h6.3v2.9h-6.3v11c0,2.9,1.5,3.9,4.3,3.9s1.7,0,2.7-.2v2.7Z"/>
  <path class="cls-1" d="M214.8,10h3.1v12.3c0,3.3,2.2,5.3,5.2,5.3s5.1-2.2,5.1-5.3v-12.3h3.2v12.1c0,5.1-3.6,8.5-8.3,8.5s-8.4-3.4-8.4-8.5v-12.1Z"/>
  <path class="cls-1" d="M238.3,24.6c1.9,2,3.5,3.1,5.8,3.1s3.8-1.1,3.8-2.9-1-2.2-3.5-3.2l-1.9-.8c-3.4-1.4-5-2.9-5-5.6s2.9-5.6,6.8-5.6,5.1,1.2,6.7,3.2l-1.9,2c-1.4-1.4-3.1-2.2-5-2.2s-3.4.9-3.4,2.5.8,1.9,3.3,2.9l1.9.8c3.8,1.6,5.3,3.2,5.3,6s-.7,3.4-2.1,4.4c-1.4,1-3,1.5-5,1.5-3.4,0-6.1-1.6-7.9-3.9l2-2.1Z"/>
  <path class="cls-1" d="M21.1,87.2h-3v-2.6c-1.5,2-3.8,3.1-6.8,3.1s-7-2.2-7-5.7,2.9-5.6,7.2-5.6h6.4v-1.7c0-3.3-1.9-5.1-4.9-5.1s-4.2,1.1-5.9,3.2l-2.1-1.7c1.8-3,4.8-4.4,8.2-4.4,4.8,0,7.9,2.9,7.9,8.2v12.4ZM17.9,79h-6c-2.8,0-4.3,1-4.3,2.9s1.8,3.2,4.2,3.2,6.2-2.4,6.2-5.5v-.5Z"/>
  <path class="cls-1" d="M38.9,87.2c-1.3.3-2.4.5-3.4.5-4.2,0-6.8-2.1-6.8-6.5v-11.2h-3.4v-2.9h3.4v-5.5h3.2v5.5h6.3v2.9h-6.3v11c0,2.9,1.5,3.8,4.3,3.8s1.7,0,2.7-.2v2.7Z"/>
  <path class="cls-1" d="M65.9,87.7c-3.1,0-6.1-1.4-7.7-3.6v3.2h-3v-31h3.2v13.8c1.6-2.1,4.4-3.4,7.4-3.4,5.7,0,10,4.6,10,10.6s-4.3,10.5-9.9,10.5ZM65.4,69.5c-3.7,0-7,2.5-7,7.6s3.4,7.6,7,7.6,7.2-3.3,7.2-7.6-3.1-7.6-7.2-7.6Z"/>
  <path class="cls-1" d="M90.5,66.6c5.8,0,10.7,4.8,10.6,10.5.1,5.7-4.8,10.6-10.6,10.5-5.8.1-10.6-4.8-10.5-10.5-.1-5.8,4.8-10.6,10.6-10.5ZM90.5,69.5c-4.1,0-7.3,3.3-7.3,7.6s3.1,7.5,7.2,7.5,7.3-3.3,7.3-7.5-3.2-7.6-7.3-7.6Z"/>
  <path class="cls-1" d="M115.8,66.6c5.8,0,10.7,4.8,10.6,10.5.1,5.7-4.8,10.6-10.6,10.5-5.8.1-10.6-4.8-10.5-10.5-.1-5.8,4.8-10.6,10.6-10.5ZM115.8,69.5c-4.1,0-7.3,3.3-7.3,7.6s3.1,7.5,7.2,7.5,7.3-3.3,7.3-7.5-3.2-7.6-7.3-7.6Z"/>
  <path class="cls-1" d="M142.9,87.2c-1.3.3-2.4.5-3.4.5-4.2,0-6.8-2.1-6.8-6.5v-11.2h-3.4v-2.9h3.4v-5.5h3.2v5.5h6.3v2.9h-6.3v11c0,2.9,1.5,3.8,4.3,3.8s1.7,0,2.7-.2v2.7Z"/>
  <path class="cls-1" d="M164.4,87.2h-3.2v-12.3c0-3.3-1.9-5.4-5-5.4s-5.3,2.3-5.3,5.4v12.3h-3.2v-31h3.2v13.2c1.4-1.7,3.5-2.7,6-2.7,4.6,0,7.5,3.2,7.5,7.9v12.7Z"/>
  <path class="cls-1" d="M198.7,69.8l-1,7.5h4.1v2.7h-4.4l-1,7.2h-2.7l1-7.2h-7.9l-1,7.2h-2.7l1-7.2h-3.6v-2.7h4l1-7.5h-4v-2.7h4.4l1-7.2h2.8l-1,7.2h7.9l1-7.2h2.8l-1,7.2h3.6v2.7h-4ZM195,77.3l1-7.5h-7.9l-1,7.5h7.9Z"/>
  <path class="cls-1" d="M214.3,87.7c-4.2,0-7.5-2.4-9.3-5.7l2.3-1.6c1.8,2.6,3.8,4.3,7,4.3s6.4-2.4,6.4-6.1-2.5-5.6-6.9-5.6h-2.7v-1l7.2-9.1h-11.3v-3h16.4v1l-7.2,9.3c4.1.4,7.9,3.3,7.9,8.4s-4.5,9.1-9.7,9.1Z"/>
  <path class="cls-1" d="M237.6,87.7c-5.1,0-9.3-4-9.3-9.2s.2-2.6.7-3.8c.5-1.1,1.3-2.5,2.4-4.1.3-.3.4-.6.6-.8l6.8-9.9h3.8l-7,10c.7-.2,1.4-.4,2.3-.4,4.8,0,8.9,3.9,8.9,8.9s-4.1,9.2-9.3,9.2ZM237.6,72.3c-3.4,0-6.1,2.8-6.1,6.2s2.7,6.3,6.1,6.3,6.1-2.8,6.1-6.3-2.7-6.2-6.1-6.2Z"/>
</svg>